<svg width="1440" height="720" viewBox="0 0 1440 720" fill="none" xmlns="http://www.w3.org/2000/svg">
<g clip-path="url(#clip0_221_326)">
<rect width="1440" height="720" fill="#080808"/>
<path d="M858 162C862.418 162 866 165.582 866 170L866 525C866 529.418 862.418 533 858 533L582 533C577.582 533 574 529.418 574 525L574 170C574 165.582 577.582 162 582 162L858 162Z" fill="white" fill-opacity="0.05"/>
<path d="M574 170L574.5 170C574.5 169.498 574.549 169.009 574.643 168.536L574.152 168.439L573.662 168.342C573.556 168.878 573.5 169.433 573.5 170L574 170ZM575.348 165.555L575.763 165.833C576.311 165.015 577.015 164.311 577.833 163.763L577.555 163.347L577.277 162.932C576.35 163.552 575.552 164.35 574.932 165.277L575.348 165.555ZM580.439 162.152L580.536 162.643C581.009 162.549 581.499 162.5 582 162.5L582 162L582 161.5C581.433 161.5 580.878 161.556 580.342 161.662L580.439 162.152ZM582 162L582 162.5L584.029 162.5L584.029 162L584.029 161.5L582 161.5L582 162ZM588.088 162L588.088 162.5L592.147 162.5L592.147 162L592.147 161.5L588.088 161.5L588.088 162ZM596.206 162L596.206 162.5L600.265 162.5L600.265 162L600.265 161.5L596.206 161.5L596.206 162ZM604.324 162L604.324 162.5L608.382 162.5L608.382 162L608.382 161.5L604.324 161.5L604.324 162ZM612.441 162L612.441 162.5L616.5 162.5L616.5 162L616.5 161.5L612.441 161.5L612.441 162ZM620.559 162L620.559 162.5L624.618 162.5L624.618 162L624.618 161.5L620.559 161.5L620.559 162ZM628.676 162L628.676 162.5L632.735 162.5L632.735 162L632.735 161.5L628.676 161.5L628.676 162ZM636.794 162L636.794 162.5L640.853 162.5L640.853 162L640.853 161.5L636.794 161.5L636.794 162ZM644.912 162L644.912 162.5L648.971 162.5L648.971 162L648.971 161.5L644.912 161.5L644.912 162ZM653.029 162L653.029 162.5L657.088 162.5L657.088 162L657.088 161.5L653.029 161.5L653.029 162ZM661.147 162L661.147 162.5L665.206 162.5L665.206 162L665.206 161.5L661.147 161.5L661.147 162ZM669.265 162L669.265 162.5L673.324 162.5L673.324 162L673.324 161.5L669.265 161.5L669.265 162ZM677.382 162L677.382 162.5L681.441 162.5L681.441 162L681.441 161.5L677.382 161.5L677.382 162ZM685.5 162L685.5 162.5L689.559 162.5L689.559 162L689.559 161.5L685.5 161.5L685.5 162ZM693.618 162L693.618 162.5L697.676 162.5L697.676 162L697.676 161.5L693.618 161.5L693.618 162ZM701.735 162L701.735 162.5L705.794 162.5L705.794 162L705.794 161.5L701.735 161.5L701.735 162ZM709.853 162L709.853 162.5L713.912 162.5L713.912 162L713.912 161.5L709.853 161.5L709.853 162ZM717.971 162L717.971 162.5L722.029 162.5L722.029 162L722.029 161.5L717.971 161.5L717.971 162ZM726.088 162L726.088 162.5L730.147 162.5L730.147 162L730.147 161.5L726.088 161.5L726.088 162ZM734.206 162L734.206 162.5L738.265 162.5L738.265 162L738.265 161.5L734.206 161.5L734.206 162ZM742.324 162L742.324 162.5L746.382 162.5L746.382 162L746.382 161.5L742.324 161.5L742.324 162ZM750.441 162L750.441 162.5L754.5 162.5L754.5 162L754.5 161.5L750.441 161.5L750.441 162ZM758.559 162L758.559 162.5L762.618 162.5L762.618 162L762.618 161.5L758.559 161.5L758.559 162ZM766.676 162L766.676 162.5L770.735 162.5L770.735 162L770.735 161.5L766.676 161.5L766.676 162ZM774.794 162L774.794 162.5L778.853 162.5L778.853 162L778.853 161.5L774.794 161.5L774.794 162ZM782.912 162L782.912 162.5L786.971 162.5L786.971 162L786.971 161.5L782.912 161.5L782.912 162ZM791.029 162L791.029 162.5L795.088 162.5L795.088 162L795.088 161.5L791.029 161.5L791.029 162ZM799.147 162L799.147 162.5L803.206 162.5L803.206 162L803.206 161.5L799.147 161.5L799.147 162ZM807.265 162L807.265 162.5L811.324 162.5L811.324 162L811.324 161.5L807.265 161.5L807.265 162ZM815.382 162L815.382 162.5L819.441 162.5L819.441 162L819.441 161.5L815.382 161.5L815.382 162ZM823.5 162L823.5 162.5L827.559 162.5L827.559 162L827.559 161.5L823.5 161.5L823.5 162ZM831.618 162L831.618 162.5L835.676 162.5L835.676 162L835.676 161.5L831.618 161.5L831.618 162ZM839.735 162L839.735 162.5L843.794 162.5L843.794 162L843.794 161.5L839.735 161.5L839.735 162ZM847.853 162L847.853 162.5L851.912 162.5L851.912 162L851.912 161.5L847.853 161.5L847.853 162ZM855.971 162L855.971 162.5L858 162.5L858 162L858 161.5L855.971 161.5L855.971 162ZM858 162L858 162.5C858.502 162.5 858.991 162.549 859.464 162.643L859.561 162.152L859.658 161.662C859.122 161.556 858.567 161.5 858 161.5L858 162ZM862.445 163.347L862.167 163.763C862.985 164.311 863.689 165.015 864.237 165.833L864.653 165.555L865.068 165.277C864.448 164.35 863.65 163.552 862.723 162.932L862.445 163.347ZM865.848 168.439L865.357 168.536C865.451 169.009 865.5 169.498 865.5 170L866 170L866.5 170C866.5 169.433 866.444 168.878 866.338 168.342L865.848 168.439ZM866 170L865.5 170L865.5 172.017L866 172.017L866.5 172.017L866.5 170L866 170ZM866 176.051L865.5 176.051L865.5 180.085L866 180.085L866.5 180.085L866.5 176.051L866 176.051ZM866 184.119L865.5 184.119L865.5 188.153L866 188.153L866.5 188.153L866.5 184.119L866 184.119ZM866 192.188L865.5 192.187L865.5 196.222L866 196.222L866.5 196.222L866.5 192.188L866 192.188ZM866 200.256L865.5 200.256L865.5 204.29L866 204.29L866.5 204.29L866.5 200.256L866 200.256ZM866 208.324L865.5 208.324L865.5 212.358L866 212.358L866.5 212.358L866.5 208.324L866 208.324ZM866 216.392L865.5 216.392L865.5 220.426L866 220.426L866.5 220.426L866.5 216.392L866 216.392ZM866 224.46L865.5 224.46L865.5 228.494L866 228.494L866.5 228.494L866.5 224.46L866 224.46ZM866 232.528L865.5 232.528L865.5 236.563L866 236.563L866.5 236.563L866.5 232.528L866 232.528ZM866 240.597L865.5 240.597L865.5 244.631L866 244.631L866.5 244.631L866.5 240.597L866 240.597ZM866 248.665L865.5 248.665L865.5 252.699L866 252.699L866.5 252.699L866.5 248.665L866 248.665ZM866 256.733L865.5 256.733L865.5 260.767L866 260.767L866.5 260.767L866.5 256.733L866 256.733ZM866 264.801L865.5 264.801L865.5 268.835L866 268.835L866.5 268.835L866.5 264.801L866 264.801ZM866 272.869L865.5 272.869L865.5 276.903L866 276.903L866.5 276.903L866.5 272.869L866 272.869ZM866 280.937L865.5 280.937L865.5 284.972L866 284.972L866.5 284.972L866.5 280.937L866 280.937ZM866 289.006L865.5 289.006L865.5 293.04L866 293.04L866.5 293.04L866.5 289.006L866 289.006ZM866 297.074L865.5 297.074L865.5 301.108L866 301.108L866.5 301.108L866.5 297.074L866 297.074ZM866 305.142L865.5 305.142L865.5 309.176L866 309.176L866.5 309.176L866.5 305.142L866 305.142ZM866 313.21L865.5 313.21L865.5 317.244L866 317.244L866.5 317.244L866.5 313.21L866 313.21ZM866 321.278L865.5 321.278L865.5 325.312L866 325.312L866.5 325.312L866.5 321.278L866 321.278ZM866 329.347L865.5 329.347L865.5 333.381L866 333.381L866.5 333.381L866.5 329.347L866 329.347ZM866 337.415L865.5 337.415L865.5 341.449L866 341.449L866.5 341.449L866.5 337.415L866 337.415ZM866 345.483L865.5 345.483L865.5 349.517L866 349.517L866.5 349.517L866.5 345.483L866 345.483ZM866 353.551L865.5 353.551L865.5 357.585L866 357.585L866.5 357.585L866.5 353.551L866 353.551ZM866 361.619L865.5 361.619L865.5 365.653L866 365.653L866.5 365.653L866.5 361.619L866 361.619ZM866 369.687L865.5 369.687L865.5 373.721L866 373.721L866.5 373.721L866.5 369.687L866 369.687ZM866 377.756L865.5 377.756L865.5 381.79L866 381.79L866.5 381.79L866.5 377.756L866 377.756ZM866 385.824L865.5 385.824L865.5 389.858L866 389.858L866.5 389.858L866.5 385.824L866 385.824ZM866 393.892L865.5 393.892L865.5 397.926L866 397.926L866.5 397.926L866.5 393.892L866 393.892ZM866 401.96L865.5 401.96L865.5 405.994L866 405.994L866.5 405.994L866.5 401.96L866 401.96ZM866 410.028L865.5 410.028L865.5 414.062L866 414.062L866.5 414.062L866.5 410.028L866 410.028ZM866 418.096L865.5 418.096L865.5 422.131L866 422.131L866.5 422.131L866.5 418.096L866 418.096ZM866 426.165L865.5 426.165L865.5 430.199L866 430.199L866.5 430.199L866.5 426.165L866 426.165ZM866 434.233L865.5 434.233L865.5 438.267L866 438.267L866.5 438.267L866.5 434.233L866 434.233ZM866 442.301L865.5 442.301L865.5 446.335L866 446.335L866.5 446.335L866.5 442.301L866 442.301ZM866 450.369L865.5 450.369L865.5 454.403L866 454.403L866.5 454.403L866.5 450.369L866 450.369ZM866 458.437L865.5 458.437L865.5 462.471L866 462.471L866.5 462.471L866.5 458.437L866 458.437ZM866 466.506L865.5 466.506L865.5 470.54L866 470.54L866.5 470.54L866.5 466.506L866 466.506ZM866 474.574L865.5 474.574L865.5 478.608L866 478.608L866.5 478.608L866.5 474.574L866 474.574ZM866 482.642L865.5 482.642L865.5 486.676L866 486.676L866.5 486.676L866.5 482.642L866 482.642ZM866 490.71L865.5 490.71L865.5 494.744L866 494.744L866.5 494.744L866.5 490.71L866 490.71ZM866 498.778L865.5 498.778L865.5 502.812L866 502.812L866.5 502.812L866.5 498.778L866 498.778ZM866 506.846L865.5 506.846L865.5 510.881L866 510.881L866.5 510.881L866.5 506.846L866 506.846ZM866 514.915L865.5 514.915L865.5 518.949L866 518.949L866.5 518.949L866.5 514.915L866 514.915ZM866 522.983L865.5 522.983L865.5 525L866 525L866.5 525L866.5 522.983L866 522.983ZM866 525L865.5 525C865.5 525.502 865.451 525.991 865.357 526.464L865.848 526.561L866.338 526.658C866.444 526.122 866.5 525.567 866.5 525L866 525ZM864.653 529.445L864.237 529.167C863.689 529.985 862.985 530.689 862.167 531.237L862.445 531.653L862.723 532.068C863.65 531.448 864.448 530.65 865.068 529.723L864.653 529.445ZM859.561 532.848L859.464 532.357C858.991 532.451 858.502 532.5 858 532.5L858 533L858 533.5C858.567 533.5 859.122 533.444 859.658 533.338L859.561 532.848ZM858 533L858 532.5L855.971 532.5L855.971 533L855.971 533.5L858 533.5L858 533ZM851.912 533L851.912 532.5L847.853 532.5L847.853 533L847.853 533.5L851.912 533.5L851.912 533ZM843.794 533L843.794 532.5L839.735 532.5L839.735 533L839.735 533.5L843.794 533.5L843.794 533ZM835.676 533L835.676 532.5L831.618 532.5L831.618 533L831.618 533.5L835.676 533.5L835.676 533ZM827.559 533L827.559 532.5L823.5 532.5L823.5 533L823.5 533.5L827.559 533.5L827.559 533ZM819.441 533L819.441 532.5L815.382 532.5L815.382 533L815.382 533.5L819.441 533.5L819.441 533ZM811.324 533L811.324 532.5L807.265 532.5L807.265 533L807.265 533.5L811.324 533.5L811.324 533ZM803.206 533L803.206 532.5L799.147 532.5L799.147 533L799.147 533.5L803.206 533.5L803.206 533ZM795.088 533L795.088 532.5L791.029 532.5L791.029 533L791.029 533.5L795.088 533.5L795.088 533ZM786.971 533L786.971 532.5L782.912 532.5L782.912 533L782.912 533.5L786.971 533.5L786.971 533ZM778.853 533L778.853 532.5L774.794 532.5L774.794 533L774.794 533.5L778.853 533.5L778.853 533ZM770.735 533L770.735 532.5L766.676 532.5L766.676 533L766.676 533.5L770.735 533.5L770.735 533ZM762.618 533L762.618 532.5L758.559 532.5L758.559 533L758.559 533.5L762.618 533.5L762.618 533ZM754.5 533L754.5 532.5L750.441 532.5L750.441 533L750.441 533.5L754.5 533.5L754.5 533ZM746.382 533L746.382 532.5L742.324 532.5L742.324 533L742.324 533.5L746.382 533.5L746.382 533ZM738.265 533L738.265 532.5L734.206 532.5L734.206 533L734.206 533.5L738.265 533.5L738.265 533ZM730.147 533L730.147 532.5L726.088 532.5L726.088 533L726.088 533.5L730.147 533.5L730.147 533ZM722.029 533L722.029 532.5L717.971 532.5L717.971 533L717.971 533.5L722.029 533.5L722.029 533ZM713.912 533L713.912 532.5L709.853 532.5L709.853 533L709.853 533.5L713.912 533.5L713.912 533ZM705.794 533L705.794 532.5L701.735 532.5L701.735 533L701.735 533.5L705.794 533.5L705.794 533ZM697.676 533L697.676 532.5L693.618 532.5L693.618 533L693.618 533.5L697.676 533.5L697.676 533ZM689.559 533L689.559 532.5L685.5 532.5L685.5 533L685.5 533.5L689.559 533.5L689.559 533ZM681.441 533L681.441 532.5L677.382 532.5L677.382 533L677.382 533.5L681.441 533.5L681.441 533ZM673.324 533L673.324 532.5L669.265 532.5L669.265 533L669.265 533.5L673.324 533.5L673.324 533ZM665.206 533L665.206 532.5L661.147 532.5L661.147 533L661.147 533.5L665.206 533.5L665.206 533ZM657.088 533L657.088 532.5L653.029 532.5L653.029 533L653.029 533.5L657.088 533.5L657.088 533ZM648.971 533L648.971 532.5L644.912 532.5L644.912 533L644.912 533.5L648.971 533.5L648.971 533ZM640.853 533L640.853 532.5L636.794 532.5L636.794 533L636.794 533.5L640.853 533.5L640.853 533ZM632.735 533L632.735 532.5L628.676 532.5L628.676 533L628.676 533.5L632.735 533.5L632.735 533ZM624.618 533L624.618 532.5L620.559 532.5L620.559 533L620.559 533.5L624.618 533.5L624.618 533ZM616.5 533L616.5 532.5L612.441 532.5L612.441 533L612.441 533.5L616.5 533.5L616.5 533ZM608.382 533L608.382 532.5L604.324 532.5L604.324 533L604.324 533.5L608.382 533.5L608.382 533ZM600.265 533L600.265 532.5L596.206 532.5L596.206 533L596.206 533.5L600.265 533.5L600.265 533ZM592.147 533L592.147 532.5L588.088 532.5L588.088 533L588.088 533.5L592.147 533.5L592.147 533ZM584.029 533L584.029 532.5L582 532.5L582 533L582 533.5L584.029 533.5L584.029 533ZM582 533L582 532.5C581.498 532.5 581.009 532.451 580.536 532.357L580.439 532.848L580.342 533.338C580.878 533.444 581.433 533.5 582 533.5L582 533ZM577.555 531.653L577.833 531.237C577.015 530.689 576.311 529.985 575.763 529.167L575.347 529.445L574.932 529.723C575.552 530.65 576.35 531.448 577.277 532.068L577.555 531.653ZM574.152 526.561L574.643 526.464C574.549 525.991 574.5 525.502 574.5 525L574 525L573.5 525C573.5 525.567 573.556 526.122 573.662 526.658L574.152 526.561ZM574 525L574.5 525L574.5 522.983L574 522.983L573.5 522.983L573.5 525L574 525ZM574 518.949L574.5 518.949L574.5 514.915L574 514.915L573.5 514.915L573.5 518.949L574 518.949ZM574 510.881L574.5 510.881L574.5 506.847L574 506.847L573.5 506.847L573.5 510.881L574 510.881ZM574 502.812L574.5 502.812L574.5 498.778L574 498.778L573.5 498.778L573.5 502.812L574 502.812ZM574 494.744L574.5 494.744L574.5 490.71L574 490.71L573.5 490.71L573.5 494.744L574 494.744ZM574 486.676L574.5 486.676L574.5 482.642L574 482.642L573.5 482.642L573.5 486.676L574 486.676ZM574 478.608L574.5 478.608L574.5 474.574L574 474.574L573.5 474.574L573.5 478.608L574 478.608ZM574 470.54L574.5 470.54L574.5 466.506L574 466.506L573.5 466.506L573.5 470.54L574 470.54ZM574 462.472L574.5 462.472L574.5 458.437L574 458.437L573.5 458.437L573.5 462.472L574 462.472ZM574 454.403L574.5 454.403L574.5 450.369L574 450.369L573.5 450.369L573.5 454.403L574 454.403ZM574 446.335L574.5 446.335L574.5 442.301L574 442.301L573.5 442.301L573.5 446.335L574 446.335ZM574 438.267L574.5 438.267L574.5 434.233L574 434.233L573.5 434.233L573.5 438.267L574 438.267ZM574 430.199L574.5 430.199L574.5 426.165L574 426.165L573.5 426.165L573.5 430.199L574 430.199ZM574 422.131L574.5 422.131L574.5 418.097L574 418.097L573.5 418.097L573.5 422.131L574 422.131ZM574 414.063L574.5 414.063L574.5 410.028L574 410.028L573.5 410.028L573.5 414.063L574 414.063ZM574 405.994L574.5 405.994L574.5 401.96L574 401.96L573.5 401.96L573.5 405.994L574 405.994ZM574 397.926L574.5 397.926L574.5 393.892L574 393.892L573.5 393.892L573.5 397.926L574 397.926ZM574 389.858L574.5 389.858L574.5 385.824L574 385.824L573.5 385.824L573.5 389.858L574 389.858ZM574 381.79L574.5 381.79L574.5 377.756L574 377.756L573.5 377.756L573.5 381.79L574 381.79ZM574 373.722L574.5 373.722L574.5 369.688L574 369.688L573.5 369.688L573.5 373.722L574 373.722ZM574 365.653L574.5 365.653L574.5 361.619L574 361.619L573.5 361.619L573.5 365.653L574 365.653ZM574 357.585L574.5 357.585L574.5 353.551L574 353.551L573.5 353.551L573.5 357.585L574 357.585ZM574 349.517L574.5 349.517L574.5 345.483L574 345.483L573.5 345.483L573.5 349.517L574 349.517ZM574 341.449L574.5 341.449L574.5 337.415L574 337.415L573.5 337.415L573.5 341.449L574 341.449ZM574 333.381L574.5 333.381L574.5 329.347L574 329.347L573.5 329.347L573.5 333.381L574 333.381ZM574 325.313L574.5 325.313L574.5 321.278L574 321.278L573.5 321.278L573.5 325.313L574 325.313ZM574 317.244L574.5 317.244L574.5 313.21L574 313.21L573.5 313.21L573.5 317.244L574 317.244ZM574 309.176L574.5 309.176L574.5 305.142L574 305.142L573.5 305.142L573.5 309.176L574 309.176ZM574 301.108L574.5 301.108L574.5 297.074L574 297.074L573.5 297.074L573.5 301.108L574 301.108ZM574 293.04L574.5 293.04L574.5 289.006L574 289.006L573.5 289.006L573.5 293.04L574 293.04ZM574 284.972L574.5 284.972L574.5 280.938L574 280.938L573.5 280.938L573.5 284.972L574 284.972ZM574 276.904L574.5 276.904L574.5 272.869L574 272.869L573.5 272.869L573.5 276.904L574 276.904ZM574 268.835L574.5 268.835L574.5 264.801L574 264.801L573.5 264.801L573.5 268.835L574 268.835ZM574 260.767L574.5 260.767L574.5 256.733L574 256.733L573.5 256.733L573.5 260.767L574 260.767ZM574 252.699L574.5 252.699L574.5 248.665L574 248.665L573.5 248.665L573.5 252.699L574 252.699ZM574 244.631L574.5 244.631L574.5 240.597L574 240.597L573.5 240.597L573.5 244.631L574 244.631ZM574 236.563L574.5 236.563L574.5 232.529L574 232.529L573.5 232.529L573.5 236.563L574 236.563ZM574 228.494L574.5 228.494L574.5 224.46L574 224.46L573.5 224.46L573.5 228.494L574 228.494ZM574 220.426L574.5 220.426L574.5 216.392L574 216.392L573.5 216.392L573.5 220.426L574 220.426ZM574 212.358L574.5 212.358L574.5 208.324L574 208.324L573.5 208.324L573.5 212.358L574 212.358ZM574 204.29L574.5 204.29L574.5 200.256L574 200.256L573.5 200.256L573.5 204.29L574 204.29ZM574 196.222L574.5 196.222L574.5 192.188L574 192.188L573.5 192.188L573.5 196.222L574 196.222ZM574 188.154L574.5 188.154L574.5 184.119L574 184.119L573.5 184.119L573.5 188.154L574 188.154ZM574 180.085L574.5 180.085L574.5 176.051L574 176.051L573.5 176.051L573.5 180.085L574 180.085ZM574 172.017L574.5 172.017L574.5 170L574 170L573.5 170L573.5 172.017L574 172.017Z" fill="white"/>
<path d="M590 235C590 230.582 593.582 227 598 227H842C846.418 227 850 230.582 850 235V258C850 262.418 846.418 266 842 266H598C593.582 266 590 262.418 590 258V235Z" fill="white" fill-opacity="0.2"/>
<text fill="white" style="white-space: pre" xml:space="preserve" font-family="Red Hat Mono" font-size="16" font-weight="600" letter-spacing="0em"><tspan x="672.031" y="252.204">User Input</tspan></text>
<path d="M590 439C590 434.582 593.582 431 598 431H842C846.418 431 850 434.582 850 439V462C850 466.418 846.418 470 842 470H598C593.582 470 590 466.418 590 462V439Z" fill="white" fill-opacity="0.2"/>
<text fill="white" style="white-space: pre" xml:space="preserve" font-family="Red Hat Mono" font-size="16" font-weight="600" letter-spacing="0em"><tspan x="672.031" y="456.204">User Input</tspan></text>
<path d="M590 184C590 179.582 593.582 176 598 176H842C846.418 176 850 179.582 850 184V207C850 211.418 846.418 215 842 215H598C593.582 215 590 211.418 590 207V184Z" fill="white" fill-opacity="0.2"/>
<text fill="white" style="white-space: pre" xml:space="preserve" font-family="Red Hat Mono" font-size="16" font-weight="600" letter-spacing="0em"><tspan x="624.062" y="201.204">System Prompt &#38; Tool</tspan></text>
<path d="M590 286C590 281.582 593.582 278 598 278H842C846.418 278 850 281.582 850 286V360C850 364.418 846.418 368 842 368H598C593.582 368 590 364.418 590 360V286Z" fill="white" fill-opacity="0.2"/>
<text fill="white" style="white-space: pre" xml:space="preserve" font-family="Red Hat Mono" font-size="16" font-weight="600" letter-spacing="0em"><tspan x="662.438" y="328.704">Tool Results</tspan></text>
<path d="M590 388C590 383.582 593.582 380 598 380H842C846.418 380 850 383.582 850 388V411C850 415.418 846.418 419 842 419H598C593.582 419 590 415.418 590 411V388Z" fill="white" fill-opacity="0.2"/>
<text fill="white" style="white-space: pre" xml:space="preserve" font-family="Red Hat Mono" font-size="16" font-weight="600" letter-spacing="0em"><tspan x="633.656" y="405.204">Assistant Response</tspan></text>
<path d="M590 490C590 485.582 593.582 482 598 482H842C846.418 482 850 485.582 850 490V513C850 517.418 846.418 521 842 521H598C593.582 521 590 517.418 590 513V490Z" fill="white" fill-opacity="0.2"/>
<text fill="white" style="white-space: pre" xml:space="preserve" font-family="Red Hat Mono" font-size="16" font-weight="600" letter-spacing="0em"><tspan x="633.656" y="507.204">Assistant Response</tspan></text>
<path d="M258 311C258 306.582 261.582 303 266 303H510C514.418 303 518 306.582 518 311V385C518 389.418 514.418 393 510 393H266C261.582 393 258 389.418 258 385V311Z" fill="#E66A32"/>
<text fill="#080808" style="white-space: pre" xml:space="preserve" font-family="Red Hat Mono" font-size="16" font-weight="600" letter-spacing="0em"><tspan x="268.078" y="343.204">.history/sessions/*.jsonl&#10;</tspan><tspan x="292.062" y="364.204">.history/index.jsonl</tspan></text>
<path d="M922 311C922 306.582 925.582 303 930 303H1174C1178.42 303 1182 306.582 1182 311V385C1182 389.418 1178.42 393 1174 393H930C925.582 393 922 389.418 922 385V311Z" fill="white"/>
<text fill="#080808" style="white-space: pre" xml:space="preserve" font-family="Red Hat Mono" font-size="16" font-weight="600" letter-spacing="0em"><tspan x="960.859" y="353.704">LLM &#38; Tool Exection</tspan></text>
<path d="M922.707 325.707C923.098 325.317 923.098 324.683 922.707 324.293L916.343 317.929C915.953 317.538 915.319 317.538 914.929 317.929C914.538 318.319 914.538 318.953 914.929 319.343L920.586 325L914.929 330.657C914.538 331.047 914.538 331.681 914.929 332.071C915.319 332.462 915.953 332.462 916.343 332.071L922.707 325.707ZM922 325V324H866V325V326H922V325Z" fill="white"/>
<path d="M574.707 373.707C575.098 373.317 575.098 372.683 574.707 372.293L568.343 365.929C567.953 365.538 567.319 365.538 566.929 365.929C566.538 366.319 566.538 366.953 566.929 367.343L572.586 373L566.929 378.657C566.538 379.047 566.538 379.681 566.929 380.071C567.319 380.462 567.953 380.462 568.343 380.071L574.707 373.707ZM574 373V372H518V373V374H574V373Z" fill="white"/>
<path d="M865.293 372.293C864.902 372.683 864.902 373.317 865.293 373.707L871.657 380.071C872.047 380.462 872.681 380.462 873.071 380.071C873.462 379.681 873.462 379.047 873.071 378.657L867.414 373L873.071 367.343C873.462 366.953 873.462 366.319 873.071 365.929C872.681 365.538 872.047 365.538 871.657 365.929L865.293 372.293ZM922 373V372H866V373V374H922V373Z" fill="white"/>
<path d="M517.293 324.293C516.902 324.683 516.902 325.317 517.293 325.707L523.657 332.071C524.047 332.462 524.681 332.462 525.071 332.071C525.462 331.681 525.462 331.047 525.071 330.657L519.414 325L525.071 319.343C525.462 318.953 525.462 318.319 525.071 317.929C524.681 317.538 524.047 317.538 523.657 317.929L517.293 324.293ZM574 325V324H518V325V326H574V325Z" fill="white"/>
</g>
<defs>
<clipPath id="clip0_221_326">
<rect width="1440" height="720" fill="white"/>
</clipPath>
</defs>
</svg>
