<svg width="1440" height="720" viewBox="0 0 1440 720" fill="none" xmlns="http://www.w3.org/2000/svg">
<g clip-path="url(#clip0_221_600)">
<rect width="1440" height="720" fill="#080808"/>
<path d="M886 214C890.418 214 894 217.582 894 222L894 473C894 477.418 890.418 481 886 481L610 481C605.582 481 602 477.418 602 473L602 222C602 217.582 605.582 214 610 214L886 214Z" fill="white" fill-opacity="0.05"/>
<path d="M602 222L602.5 222C602.5 221.498 602.549 221.009 602.643 220.536L602.152 220.439L601.662 220.342C601.556 220.878 601.5 221.433 601.5 222L602 222ZM603.347 217.555L603.763 217.833C604.311 217.015 605.015 216.311 605.833 215.763L605.555 215.347L605.277 214.932C604.35 215.552 603.552 216.35 602.932 217.277L603.347 217.555ZM608.439 214.152L608.536 214.643C609.009 214.549 609.498 214.5 610 214.5L610 214L610 213.5C609.433 213.5 608.878 213.556 608.342 213.662L608.439 214.152ZM610 214L610 214.5L611.971 214.5L611.971 214L611.971 213.5L610 213.5L610 214ZM615.914 214L615.914 214.5L619.857 214.5L619.857 214L619.857 213.5L615.914 213.5L615.914 214ZM623.8 214L623.8 214.5L627.743 214.5L627.743 214L627.743 213.5L623.8 213.5L623.8 214ZM631.686 214L631.686 214.5L635.629 214.5L635.629 214L635.629 213.5L631.686 213.5L631.686 214ZM639.571 214L639.571 214.5L643.514 214.5L643.514 214L643.514 213.5L639.571 213.5L639.571 214ZM647.457 214L647.457 214.5L651.4 214.5L651.4 214L651.4 213.5L647.457 213.5L647.457 214ZM655.343 214L655.343 214.5L659.286 214.5L659.286 214L659.286 213.5L655.343 213.5L655.343 214ZM663.229 214L663.229 214.5L667.171 214.5L667.171 214L667.171 213.5L663.229 213.5L663.229 214ZM671.114 214L671.114 214.5L675.057 214.5L675.057 214L675.057 213.5L671.114 213.5L671.114 214ZM679 214L679 214.5L682.943 214.5L682.943 214L682.943 213.5L679 213.5L679 214ZM686.886 214L686.886 214.5L690.829 214.5L690.829 214L690.829 213.5L686.886 213.5L686.886 214ZM694.771 214L694.771 214.5L698.714 214.5L698.714 214L698.714 213.5L694.771 213.5L694.771 214ZM702.657 214L702.657 214.5L706.6 214.5L706.6 214L706.6 213.5L702.657 213.5L702.657 214ZM710.543 214L710.543 214.5L714.486 214.5L714.486 214L714.486 213.5L710.543 213.5L710.543 214ZM718.429 214L718.429 214.5L722.371 214.5L722.371 214L722.371 213.5L718.429 213.5L718.429 214ZM726.314 214L726.314 214.5L730.257 214.5L730.257 214L730.257 213.5L726.314 213.5L726.314 214ZM734.2 214L734.2 214.5L738.143 214.5L738.143 214L738.143 213.5L734.2 213.5L734.2 214ZM742.086 214L742.086 214.5L746.029 214.5L746.029 214L746.029 213.5L742.086 213.5L742.086 214ZM749.971 214L749.971 214.5L753.914 214.5L753.914 214L753.914 213.5L749.971 213.5L749.971 214ZM757.857 214L757.857 214.5L761.8 214.5L761.8 214L761.8 213.5L757.857 213.5L757.857 214ZM765.743 214L765.743 214.5L769.686 214.5L769.686 214L769.686 213.5L765.743 213.5L765.743 214ZM773.629 214L773.629 214.5L777.571 214.5L777.571 214L777.571 213.5L773.629 213.5L773.629 214ZM781.514 214L781.514 214.5L785.457 214.5L785.457 214L785.457 213.5L781.514 213.5L781.514 214ZM789.4 214L789.4 214.5L793.343 214.5L793.343 214L793.343 213.5L789.4 213.5L789.4 214ZM797.286 214L797.286 214.5L801.229 214.5L801.229 214L801.229 213.5L797.286 213.5L797.286 214ZM805.171 214L805.171 214.5L809.114 214.5L809.114 214L809.114 213.5L805.171 213.5L805.171 214ZM813.057 214L813.057 214.5L817 214.5L817 214L817 213.5L813.057 213.5L813.057 214ZM820.943 214L820.943 214.5L824.886 214.5L824.886 214L824.886 213.5L820.943 213.5L820.943 214ZM828.829 214L828.829 214.5L832.771 214.5L832.771 214L832.771 213.5L828.829 213.5L828.829 214ZM836.714 214L836.714 214.5L840.657 214.5L840.657 214L840.657 213.5L836.714 213.5L836.714 214ZM844.6 214L844.6 214.5L848.543 214.5L848.543 214L848.543 213.5L844.6 213.5L844.6 214ZM852.486 214L852.486 214.5L856.429 214.5L856.429 214L856.429 213.5L852.486 213.5L852.486 214ZM860.371 214L860.371 214.5L864.314 214.5L864.314 214L864.314 213.5L860.371 213.5L860.371 214ZM868.257 214L868.257 214.5L872.2 214.5L872.2 214L872.2 213.5L868.257 213.5L868.257 214ZM876.143 214L876.143 214.5L880.086 214.5L880.086 214L880.086 213.5L876.143 213.5L876.143 214ZM884.029 214L884.029 214.5L886 214.5L886 214L886 213.5L884.029 213.5L884.029 214ZM886 214L886 214.5C886.502 214.5 886.991 214.549 887.464 214.643L887.561 214.152L887.658 213.662C887.122 213.556 886.567 213.5 886 213.5L886 214ZM890.445 215.347L890.167 215.763C890.985 216.311 891.689 217.015 892.237 217.833L892.653 217.555L893.068 217.277C892.448 216.35 891.65 215.552 890.723 214.932L890.445 215.347ZM893.848 220.439L893.357 220.536C893.451 221.009 893.5 221.498 893.5 222L894 222L894.5 222C894.5 221.433 894.444 220.878 894.338 220.342L893.848 220.439ZM894 222L893.5 222L893.5 224.024L894 224.024L894.5 224.024L894.5 222L894 222ZM894 228.073L893.5 228.073L893.5 232.121L894 232.121L894.5 232.121L894.5 228.073L894 228.073ZM894 236.169L893.5 236.169L893.5 240.218L894 240.218L894.5 240.218L894.5 236.169L894 236.169ZM894 244.266L893.5 244.266L893.5 248.315L894 248.315L894.5 248.315L894.5 244.266L894 244.266ZM894 252.363L893.5 252.363L893.5 256.411L894 256.411L894.5 256.411L894.5 252.363L894 252.363ZM894 260.46L893.5 260.46L893.5 264.508L894 264.508L894.5 264.508L894.5 260.46L894 260.46ZM894 268.556L893.5 268.556L893.5 272.605L894 272.605L894.5 272.605L894.5 268.556L894 268.556ZM894 276.653L893.5 276.653L893.5 280.702L894 280.702L894.5 280.702L894.5 276.653L894 276.653ZM894 284.75L893.5 284.75L893.5 288.798L894 288.798L894.5 288.798L894.5 284.75L894 284.75ZM894 292.847L893.5 292.847L893.5 296.895L894 296.895L894.5 296.895L894.5 292.847L894 292.847ZM894 300.944L893.5 300.944L893.5 304.992L894 304.992L894.5 304.992L894.5 300.944L894 300.944ZM894 309.04L893.5 309.04L893.5 313.089L894 313.089L894.5 313.089L894.5 309.04L894 309.04ZM894 317.137L893.5 317.137L893.5 321.185L894 321.185L894.5 321.185L894.5 317.137L894 317.137ZM894 325.234L893.5 325.234L893.5 329.282L894 329.282L894.5 329.282L894.5 325.234L894 325.234ZM894 333.331L893.5 333.331L893.5 337.379L894 337.379L894.5 337.379L894.5 333.331L894 333.331ZM894 341.427L893.5 341.427L893.5 345.476L894 345.476L894.5 345.476L894.5 341.427L894 341.427ZM894 349.524L893.5 349.524L893.5 353.573L894 353.573L894.5 353.573L894.5 349.524L894 349.524ZM894 357.621L893.5 357.621L893.5 361.669L894 361.669L894.5 361.669L894.5 357.621L894 357.621ZM894 365.718L893.5 365.718L893.5 369.766L894 369.766L894.5 369.766L894.5 365.718L894 365.718ZM894 373.814L893.5 373.814L893.5 377.863L894 377.863L894.5 377.863L894.5 373.814L894 373.814ZM894 381.911L893.5 381.911L893.5 385.96L894 385.96L894.5 385.96L894.5 381.911L894 381.911ZM894 390.008L893.5 390.008L893.5 394.056L894 394.056L894.5 394.056L894.5 390.008L894 390.008ZM894 398.105L893.5 398.105L893.5 402.153L894 402.153L894.5 402.153L894.5 398.105L894 398.105ZM894 406.202L893.5 406.202L893.5 410.25L894 410.25L894.5 410.25L894.5 406.202L894 406.202ZM894 414.298L893.5 414.298L893.5 418.347L894 418.347L894.5 418.347L894.5 414.298L894 414.298ZM894 422.395L893.5 422.395L893.5 426.444L894 426.444L894.5 426.444L894.5 422.395L894 422.395ZM894 430.492L893.5 430.492L893.5 434.54L894 434.54L894.5 434.54L894.5 430.492L894 430.492ZM894 438.589L893.5 438.589L893.5 442.637L894 442.637L894.5 442.637L894.5 438.589L894 438.589ZM894 446.685L893.5 446.685L893.5 450.734L894 450.734L894.5 450.734L894.5 446.685L894 446.685ZM894 454.782L893.5 454.782L893.5 458.831L894 458.831L894.5 458.831L894.5 454.782L894 454.782ZM894 462.879L893.5 462.879L893.5 466.927L894 466.927L894.5 466.927L894.5 462.879L894 462.879ZM894 470.976L893.5 470.976L893.5 473L894 473L894.5 473L894.5 470.976L894 470.976ZM894 473L893.5 473C893.5 473.502 893.451 473.991 893.357 474.464L893.848 474.561L894.338 474.658C894.444 474.122 894.5 473.567 894.5 473L894 473ZM892.653 477.445L892.237 477.167C891.689 477.985 890.985 478.689 890.167 479.237L890.445 479.653L890.723 480.068C891.65 479.448 892.448 478.65 893.068 477.723L892.653 477.445ZM887.561 480.848L887.464 480.357C886.991 480.451 886.502 480.5 886 480.5L886 481L886 481.5C886.567 481.5 887.122 481.444 887.658 481.338L887.561 480.848ZM886 481L886 480.5L884.029 480.5L884.029 481L884.029 481.5L886 481.5L886 481ZM880.086 481L880.086 480.5L876.143 480.5L876.143 481L876.143 481.5L880.086 481.5L880.086 481ZM872.2 481L872.2 480.5L868.257 480.5L868.257 481L868.257 481.5L872.2 481.5L872.2 481ZM864.314 481L864.314 480.5L860.371 480.5L860.371 481L860.371 481.5L864.314 481.5L864.314 481ZM856.429 481L856.429 480.5L852.486 480.5L852.486 481L852.486 481.5L856.429 481.5L856.429 481ZM848.543 481L848.543 480.5L844.6 480.5L844.6 481L844.6 481.5L848.543 481.5L848.543 481ZM840.657 481L840.657 480.5L836.714 480.5L836.714 481L836.714 481.5L840.657 481.5L840.657 481ZM832.771 481L832.771 480.5L828.829 480.5L828.829 481L828.829 481.5L832.771 481.5L832.771 481ZM824.886 481L824.886 480.5L820.943 480.5L820.943 481L820.943 481.5L824.886 481.5L824.886 481ZM817 481L817 480.5L813.057 480.5L813.057 481L813.057 481.5L817 481.5L817 481ZM809.114 481L809.114 480.5L805.171 480.5L805.171 481L805.171 481.5L809.114 481.5L809.114 481ZM801.229 481L801.229 480.5L797.286 480.5L797.286 481L797.286 481.5L801.229 481.5L801.229 481ZM793.343 481L793.343 480.5L789.4 480.5L789.4 481L789.4 481.5L793.343 481.5L793.343 481ZM785.457 481L785.457 480.5L781.514 480.5L781.514 481L781.514 481.5L785.457 481.5L785.457 481ZM777.571 481L777.571 480.5L773.629 480.5L773.629 481L773.629 481.5L777.571 481.5L777.571 481ZM769.686 481L769.686 480.5L765.743 480.5L765.743 481L765.743 481.5L769.686 481.5L769.686 481ZM761.8 481L761.8 480.5L757.857 480.5L757.857 481L757.857 481.5L761.8 481.5L761.8 481ZM753.914 481L753.914 480.5L749.971 480.5L749.971 481L749.971 481.5L753.914 481.5L753.914 481ZM746.029 481L746.029 480.5L742.086 480.5L742.086 481L742.086 481.5L746.029 481.5L746.029 481ZM738.143 481L738.143 480.5L734.2 480.5L734.2 481L734.2 481.5L738.143 481.5L738.143 481ZM730.257 481L730.257 480.5L726.314 480.5L726.314 481L726.314 481.5L730.257 481.5L730.257 481ZM722.371 481L722.371 480.5L718.429 480.5L718.429 481L718.429 481.5L722.371 481.5L722.371 481ZM714.486 481L714.486 480.5L710.543 480.5L710.543 481L710.543 481.5L714.486 481.5L714.486 481ZM706.6 481L706.6 480.5L702.657 480.5L702.657 481L702.657 481.5L706.6 481.5L706.6 481ZM698.714 481L698.714 480.5L694.771 480.5L694.771 481L694.771 481.5L698.714 481.5L698.714 481ZM690.829 481L690.829 480.5L686.886 480.5L686.886 481L686.886 481.5L690.829 481.5L690.829 481ZM682.943 481L682.943 480.5L679 480.5L679 481L679 481.5L682.943 481.5L682.943 481ZM675.057 481L675.057 480.5L671.114 480.5L671.114 481L671.114 481.5L675.057 481.5L675.057 481ZM667.171 481L667.171 480.5L663.229 480.5L663.229 481L663.229 481.5L667.171 481.5L667.171 481ZM659.286 481L659.286 480.5L655.343 480.5L655.343 481L655.343 481.5L659.286 481.5L659.286 481ZM651.4 481L651.4 480.5L647.457 480.5L647.457 481L647.457 481.5L651.4 481.5L651.4 481ZM643.514 481L643.514 480.5L639.571 480.5L639.571 481L639.571 481.5L643.514 481.5L643.514 481ZM635.629 481L635.629 480.5L631.686 480.5L631.686 481L631.686 481.5L635.629 481.5L635.629 481ZM627.743 481L627.743 480.5L623.8 480.5L623.8 481L623.8 481.5L627.743 481.5L627.743 481ZM619.857 481L619.857 480.5L615.914 480.5L615.914 481L615.914 481.5L619.857 481.5L619.857 481ZM611.971 481L611.971 480.5L610 480.5L610 481L610 481.5L611.971 481.5L611.971 481ZM610 481L610 480.5C609.498 480.5 609.009 480.451 608.536 480.357L608.439 480.848L608.342 481.338C608.878 481.444 609.433 481.5 610 481.5L610 481ZM605.555 479.653L605.833 479.237C605.015 478.689 604.311 477.985 603.763 477.167L603.347 477.445L602.932 477.723C603.552 478.65 604.35 479.448 605.277 480.068L605.555 479.653ZM602.152 474.561L602.643 474.464C602.549 473.991 602.5 473.502 602.5 473L602 473L601.5 473C601.5 473.567 601.556 474.122 601.662 474.658L602.152 474.561ZM602 473L602.5 473L602.5 470.976L602 470.976L601.5 470.976L601.5 473L602 473ZM602 466.927L602.5 466.927L602.5 462.879L602 462.879L601.5 462.879L601.5 466.927L602 466.927ZM602 458.831L602.5 458.831L602.5 454.782L602 454.782L601.5 454.782L601.5 458.831L602 458.831ZM602 450.734L602.5 450.734L602.5 446.685L602 446.685L601.5 446.685L601.5 450.734L602 450.734ZM602 442.637L602.5 442.637L602.5 438.589L602 438.589L601.5 438.589L601.5 442.637L602 442.637ZM602 434.54L602.5 434.54L602.5 430.492L602 430.492L601.5 430.492L601.5 434.54L602 434.54ZM602 426.444L602.5 426.444L602.5 422.395L602 422.395L601.5 422.395L601.5 426.444L602 426.444ZM602 418.347L602.5 418.347L602.5 414.298L602 414.298L601.5 414.298L601.5 418.347L602 418.347ZM602 410.25L602.5 410.25L602.5 406.202L602 406.202L601.5 406.202L601.5 410.25L602 410.25ZM602 402.153L602.5 402.153L602.5 398.105L602 398.105L601.5 398.105L601.5 402.153L602 402.153ZM602 394.056L602.5 394.056L602.5 390.008L602 390.008L601.5 390.008L601.5 394.056L602 394.056ZM602 385.96L602.5 385.96L602.5 381.911L602 381.911L601.5 381.911L601.5 385.96L602 385.96ZM602 377.863L602.5 377.863L602.5 373.815L602 373.815L601.5 373.815L601.5 377.863L602 377.863ZM602 369.766L602.5 369.766L602.5 365.718L602 365.718L601.5 365.718L601.5 369.766L602 369.766ZM602 361.669L602.5 361.669L602.5 357.621L602 357.621L601.5 357.621L601.5 361.669L602 361.669ZM602 353.573L602.5 353.573L602.5 349.524L602 349.524L601.5 349.524L601.5 353.573L602 353.573ZM602 345.476L602.5 345.476L602.5 341.427L602 341.427L601.5 341.427L601.5 345.476L602 345.476ZM602 337.379L602.5 337.379L602.5 333.331L602 333.331L601.5 333.331L601.5 337.379L602 337.379ZM602 329.282L602.5 329.282L602.5 325.234L602 325.234L601.5 325.234L601.5 329.282L602 329.282ZM602 321.185L602.5 321.185L602.5 317.137L602 317.137L601.5 317.137L601.5 321.185L602 321.185ZM602 313.089L602.5 313.089L602.5 309.04L602 309.04L601.5 309.04L601.5 313.089L602 313.089ZM602 304.992L602.5 304.992L602.5 300.944L602 300.944L601.5 300.944L601.5 304.992L602 304.992ZM602 296.895L602.5 296.895L602.5 292.847L602 292.847L601.5 292.847L601.5 296.895L602 296.895ZM602 288.798L602.5 288.798L602.5 284.75L602 284.75L601.5 284.75L601.5 288.798L602 288.798ZM602 280.702L602.5 280.702L602.5 276.653L602 276.653L601.5 276.653L601.5 280.702L602 280.702ZM602 272.605L602.5 272.605L602.5 268.556L602 268.556L601.5 268.556L601.5 272.605L602 272.605ZM602 264.508L602.5 264.508L602.5 260.46L602 260.46L601.5 260.46L601.5 264.508L602 264.508ZM602 256.411L602.5 256.411L602.5 252.363L602 252.363L601.5 252.363L601.5 256.411L602 256.411ZM602 248.315L602.5 248.315L602.5 244.266L602 244.266L601.5 244.266L601.5 248.315L602 248.315ZM602 240.218L602.5 240.218L602.5 236.169L602 236.169L601.5 236.169L601.5 240.218L602 240.218ZM602 232.121L602.5 232.121L602.5 228.073L602 228.073L601.5 228.073L601.5 232.121L602 232.121ZM602 224.024L602.5 224.024L602.5 222L602 222L601.5 222L601.5 224.024L602 224.024Z" fill="white"/>
<path d="M618 336C618 331.582 621.582 328 626 328H870C874.418 328 878 331.582 878 336V359C878 363.418 874.418 367 870 367H626C621.582 367 618 363.418 618 359V336Z" fill="white" fill-opacity="0.2"/>
<text fill="white" style="white-space: pre" xml:space="preserve" font-family="Red Hat Mono" font-size="16" font-weight="600" letter-spacing="0em"><tspan x="661.656" y="353.204">Assistant Response</tspan></text>
<path d="M618 438C618 433.582 621.582 430 626 430H870C874.418 430 878 433.582 878 438V461C878 465.418 874.418 469 870 469H626C621.582 469 618 465.418 618 461V438Z" fill="white" fill-opacity="0.2"/>
<text fill="white" style="white-space: pre" xml:space="preserve" font-family="Red Hat Mono" font-size="16" font-weight="600" letter-spacing="0em"><tspan x="661.656" y="455.204">Assistant Response</tspan></text>
<path d="M618 285C618 280.582 621.582 277 626 277H870C874.418 277 878 280.582 878 285V308C878 312.418 874.418 316 870 316H626C621.582 316 618 312.418 618 308V285Z" fill="white" fill-opacity="0.2"/>
<text fill="white" style="white-space: pre" xml:space="preserve" font-family="Red Hat Mono" font-size="16" font-weight="600" letter-spacing="0em"><tspan x="700.031" y="302.204">User Input</tspan></text>
<path d="M618 387C618 382.582 621.582 379 626 379H870C874.418 379 878 382.582 878 387V410C878 414.418 874.418 418 870 418H626C621.582 418 618 414.418 618 410V387Z" fill="white" fill-opacity="0.2"/>
<text fill="white" style="white-space: pre" xml:space="preserve" font-family="Red Hat Mono" font-size="16" font-weight="600" letter-spacing="0em"><tspan x="700.031" y="404.204">User Input</tspan></text>
<path d="M618 234C618 229.582 621.582 226 626 226H870C874.418 226 878 229.582 878 234V257C878 261.418 874.418 265 870 265H626C621.582 265 618 261.418 618 257V234Z" fill="white" fill-opacity="0.2"/>
<text fill="white" style="white-space: pre" xml:space="preserve" font-family="Red Hat Mono" font-size="16" font-weight="600" letter-spacing="0em"><tspan x="652.062" y="251.204">System Prompt &#38; Tool</tspan></text>
<path d="M286 311C286 306.582 289.582 303 294 303H538C542.418 303 546 306.582 546 311V385C546 389.418 542.418 393 538 393H294C289.582 393 286 389.418 286 385V311Z" fill="#E66A32"/>
<text fill="#080808" style="white-space: pre" xml:space="preserve" font-family="Red Hat Mono" font-size="16" font-weight="600" letter-spacing="0em"><tspan x="372.828" y="353.704">Event Bus</tspan></text>
<path d="M229.293 373.707C228.902 373.317 228.902 372.683 229.293 372.293L235.657 365.929C236.047 365.538 236.681 365.538 237.071 365.929C237.462 366.319 237.462 366.953 237.071 367.343L231.414 373L237.071 378.657C237.462 379.047 237.462 379.681 237.071 380.071C236.681 380.462 236.047 380.462 235.657 380.071L229.293 373.707ZM230 373V372H286V373V374H230V373Z" fill="white"/>
<path d="M893.293 373.707C892.902 373.317 892.902 372.683 893.293 372.293L899.657 365.929C900.047 365.538 900.681 365.538 901.071 365.929C901.462 366.319 901.462 366.953 901.071 367.343L895.414 373L901.071 378.657C901.462 379.047 901.462 379.681 901.071 380.071C900.681 380.462 900.047 380.462 899.657 380.071L893.293 373.707ZM894 373V372H950V373V374H894V373Z" fill="white"/>
<path d="M286.707 324.293C287.098 324.683 287.098 325.317 286.707 325.707L280.343 332.071C279.953 332.462 279.319 332.462 278.929 332.071C278.538 331.681 278.538 331.047 278.929 330.657L284.586 325L278.929 319.343C278.538 318.953 278.538 318.319 278.929 317.929C279.319 317.538 279.953 317.538 280.343 317.929L286.707 324.293ZM230 325V324H286V325V326H230V325Z" fill="white"/>
<path d="M618.707 295.293C619.098 295.683 619.098 296.317 618.707 296.707L612.343 303.071C611.953 303.462 611.319 303.462 610.929 303.071C610.538 302.681 610.538 302.047 610.929 301.657L616.586 296L610.929 290.343C610.538 289.953 610.538 289.319 610.929 288.929C611.319 288.538 611.953 288.538 612.343 288.929L618.707 295.293ZM546 325V324H560.345V325V326H546V325ZM568.345 317H567.345V304H568.345H569.345V317H568.345ZM576.345 296V295H618V296V297H576.345V296ZM568.345 304H567.345C567.345 299.029 571.374 295 576.345 295V296V297C572.479 297 569.345 300.134 569.345 304H568.345ZM560.345 325V324C564.211 324 567.345 320.866 567.345 317H568.345H569.345C569.345 321.971 565.315 326 560.345 326V325Z" fill="white"/>
<path d="M545.293 372.293C544.902 372.683 544.902 373.317 545.293 373.707L551.657 380.071C552.047 380.462 552.681 380.462 553.071 380.071C553.462 379.681 553.462 379.047 553.071 378.657L547.414 373L553.071 367.343C553.462 366.953 553.462 366.319 553.071 365.929C552.681 365.538 552.047 365.538 551.657 365.929L545.293 372.293ZM618 450L618 449L603.655 449L603.655 450L603.655 451L618 451L618 450ZM595.655 442L596.655 442L596.655 381L595.655 381L594.655 381L594.655 442L595.655 442ZM587.655 373L587.655 372L546 372L546 373L546 374L587.655 374L587.655 373ZM595.655 381L596.655 381C596.655 376.029 592.626 372 587.655 372L587.655 373L587.655 374C591.521 374 594.655 377.134 594.655 381L595.655 381ZM603.655 450L603.655 449C599.789 449 596.655 445.866 596.655 442L595.655 442L594.655 442C594.655 446.971 598.685 451 603.655 451L603.655 450Z" fill="white"/>
<path d="M545.293 373.707C544.902 373.317 544.902 372.683 545.293 372.293L551.657 365.929C552.047 365.538 552.681 365.538 553.071 365.929C553.462 366.319 553.462 366.953 553.071 367.343L547.414 373L553.071 378.657C553.462 379.047 553.462 379.681 553.071 380.071C552.681 380.462 552.047 380.462 551.657 380.071L545.293 373.707ZM618 347L618 348L603.655 348L603.655 347L603.655 346L618 346L618 347ZM595.655 355L596.655 355L596.655 365L595.655 365L594.655 365L594.655 355L595.655 355ZM587.655 373L587.655 374L546 374L546 373L546 372L587.655 372L587.655 373ZM595.655 365L596.655 365C596.655 369.971 592.626 374 587.655 374L587.655 373L587.655 372C591.521 372 594.655 368.866 594.655 365L595.655 365ZM603.655 347L603.655 348C599.789 348 596.655 351.134 596.655 355L595.655 355L594.655 355C594.655 350.029 598.685 346 603.655 346L603.655 347Z" fill="white"/>
<path d="M618.707 397.707C619.098 397.317 619.098 396.683 618.707 396.293L612.343 389.929C611.953 389.538 611.319 389.538 610.929 389.929C610.538 390.319 610.538 390.953 610.929 391.343L616.586 397L610.929 402.657C610.538 403.047 610.538 403.681 610.929 404.071C611.319 404.462 611.953 404.462 612.343 404.071L618.707 397.707ZM546 325V326H560.345V325V324H546V325ZM568.345 333H567.345V389H568.345H569.345V333H568.345ZM576.345 397V398H618V397V396H576.345V397ZM568.345 389H567.345C567.345 393.971 571.374 398 576.345 398V397V396C572.479 396 569.345 392.866 569.345 389H568.345ZM560.345 325V326C564.211 326 567.345 329.134 567.345 333H568.345H569.345C569.345 328.029 565.315 324 560.345 324V325Z" fill="white"/>
<path d="M950.707 324.293C951.098 324.683 951.098 325.317 950.707 325.707L944.343 332.071C943.953 332.462 943.319 332.462 942.929 332.071C942.538 331.681 942.538 331.047 942.929 330.657L948.586 325L942.929 319.343C942.538 318.953 942.538 318.319 942.929 317.929C943.319 317.538 943.953 317.538 944.343 317.929L950.707 324.293ZM894 325V324H950V325V326H894V325Z" fill="white"/>
<path d="M950 311C950 306.582 953.582 303 958 303H1202C1206.42 303 1210 306.582 1210 311V385C1210 389.418 1206.42 393 1202 393H958C953.582 393 950 389.418 950 385V311Z" fill="white"/>
<text fill="#080808" style="white-space: pre" xml:space="preserve" font-family="Red Hat Mono" font-size="16" font-weight="600" letter-spacing="0em"><tspan x="988.859" y="353.704">LLM &#38; Tool Exection</tspan></text>
</g>
<defs>
<clipPath id="clip0_221_600">
<rect width="1440" height="720" fill="white"/>
</clipPath>
</defs>
</svg>
