<svg width="1440" height="720" viewBox="0 0 1440 720" fill="none" xmlns="http://www.w3.org/2000/svg">
<g clip-path="url(#clip0_232_205)">
<rect width="1440" height="720" fill="#080808"/>
<path d="M858 264C862.418 264 866 267.582 866 272L866 434C866 438.418 862.418 442 858 442L582 442C577.582 442 574 438.418 574 434L574 272C574 267.582 577.582 264 582 264L858 264Z" fill="white" fill-opacity="0.05"/>
<path d="M574 272L574.5 272C574.5 271.498 574.549 271.009 574.643 270.536L574.152 270.439L573.662 270.342C573.556 270.878 573.5 271.433 573.5 272L574 272ZM575.347 267.555L575.763 267.833C576.311 267.015 577.015 266.311 577.833 265.763L577.555 265.347L577.277 264.932C576.35 265.552 575.552 266.35 574.932 267.277L575.347 267.555ZM580.439 264.152L580.536 264.643C581.009 264.549 581.498 264.5 582 264.5L582 264L582 263.5C581.433 263.5 580.878 263.556 580.342 263.662L580.439 264.152ZM582 264L582 264.5L583.971 264.5L583.971 264L583.971 263.5L582 263.5L582 264ZM587.914 264L587.914 264.5L591.857 264.5L591.857 264L591.857 263.5L587.914 263.5L587.914 264ZM595.8 264L595.8 264.5L599.743 264.5L599.743 264L599.743 263.5L595.8 263.5L595.8 264ZM603.686 264L603.686 264.5L607.629 264.5L607.629 264L607.629 263.5L603.686 263.5L603.686 264ZM611.571 264L611.571 264.5L615.514 264.5L615.514 264L615.514 263.5L611.571 263.5L611.571 264ZM619.457 264L619.457 264.5L623.4 264.5L623.4 264L623.4 263.5L619.457 263.5L619.457 264ZM627.343 264L627.343 264.5L631.286 264.5L631.286 264L631.286 263.5L627.343 263.5L627.343 264ZM635.229 264L635.229 264.5L639.171 264.5L639.171 264L639.171 263.5L635.229 263.5L635.229 264ZM643.114 264L643.114 264.5L647.057 264.5L647.057 264L647.057 263.5L643.114 263.5L643.114 264ZM651 264L651 264.5L654.943 264.5L654.943 264L654.943 263.5L651 263.5L651 264ZM658.886 264L658.886 264.5L662.829 264.5L662.829 264L662.829 263.5L658.886 263.5L658.886 264ZM666.771 264L666.771 264.5L670.714 264.5L670.714 264L670.714 263.5L666.771 263.5L666.771 264ZM674.657 264L674.657 264.5L678.6 264.5L678.6 264L678.6 263.5L674.657 263.5L674.657 264ZM682.543 264L682.543 264.5L686.486 264.5L686.486 264L686.486 263.5L682.543 263.5L682.543 264ZM690.429 264L690.429 264.5L694.371 264.5L694.371 264L694.371 263.5L690.429 263.5L690.429 264ZM698.314 264L698.314 264.5L702.257 264.5L702.257 264L702.257 263.5L698.314 263.5L698.314 264ZM706.2 264L706.2 264.5L710.143 264.5L710.143 264L710.143 263.5L706.2 263.5L706.2 264ZM714.086 264L714.086 264.5L718.029 264.5L718.029 264L718.029 263.5L714.086 263.5L714.086 264ZM721.971 264L721.971 264.5L725.914 264.5L725.914 264L725.914 263.5L721.971 263.5L721.971 264ZM729.857 264L729.857 264.5L733.8 264.5L733.8 264L733.8 263.5L729.857 263.5L729.857 264ZM737.743 264L737.743 264.5L741.686 264.5L741.686 264L741.686 263.5L737.743 263.5L737.743 264ZM745.629 264L745.629 264.5L749.571 264.5L749.571 264L749.571 263.5L745.629 263.5L745.629 264ZM753.514 264L753.514 264.5L757.457 264.5L757.457 264L757.457 263.5L753.514 263.5L753.514 264ZM761.4 264L761.4 264.5L765.343 264.5L765.343 264L765.343 263.5L761.4 263.5L761.4 264ZM769.286 264L769.286 264.5L773.229 264.5L773.229 264L773.229 263.5L769.286 263.5L769.286 264ZM777.171 264L777.171 264.5L781.114 264.5L781.114 264L781.114 263.5L777.171 263.5L777.171 264ZM785.057 264L785.057 264.5L789 264.5L789 264L789 263.5L785.057 263.5L785.057 264ZM792.943 264L792.943 264.5L796.886 264.5L796.886 264L796.886 263.5L792.943 263.5L792.943 264ZM800.829 264L800.829 264.5L804.771 264.5L804.771 264L804.771 263.5L800.829 263.5L800.829 264ZM808.714 264L808.714 264.5L812.657 264.5L812.657 264L812.657 263.5L808.714 263.5L808.714 264ZM816.6 264L816.6 264.5L820.543 264.5L820.543 264L820.543 263.5L816.6 263.5L816.6 264ZM824.486 264L824.486 264.5L828.429 264.5L828.429 264L828.429 263.5L824.486 263.5L824.486 264ZM832.371 264L832.371 264.5L836.314 264.5L836.314 264L836.314 263.5L832.371 263.5L832.371 264ZM840.257 264L840.257 264.5L844.2 264.5L844.2 264L844.2 263.5L840.257 263.5L840.257 264ZM848.143 264L848.143 264.5L852.086 264.5L852.086 264L852.086 263.5L848.143 263.5L848.143 264ZM856.029 264L856.029 264.5L858 264.5L858 264L858 263.5L856.029 263.5L856.029 264ZM858 264L858 264.5C858.502 264.5 858.991 264.549 859.464 264.643L859.561 264.152L859.658 263.662C859.122 263.556 858.567 263.5 858 263.5L858 264ZM862.445 265.347L862.167 265.763C862.985 266.311 863.689 267.015 864.237 267.833L864.653 267.555L865.068 267.277C864.448 266.35 863.65 265.552 862.723 264.932L862.445 265.347ZM865.848 270.439L865.357 270.536C865.451 271.009 865.5 271.498 865.5 272L866 272L866.5 272C866.5 271.433 866.444 270.878 866.338 270.342L865.848 270.439ZM866 272L865.5 272L865.5 274.025L866 274.025L866.5 274.025L866.5 272L866 272ZM866 278.075L865.5 278.075L865.5 282.125L866 282.125L866.5 282.125L866.5 278.075L866 278.075ZM866 286.175L865.5 286.175L865.5 290.225L866 290.225L866.5 290.225L866.5 286.175L866 286.175ZM866 294.275L865.5 294.275L865.5 298.325L866 298.325L866.5 298.325L866.5 294.275L866 294.275ZM866 302.375L865.5 302.375L865.5 306.425L866 306.425L866.5 306.425L866.5 302.375L866 302.375ZM866 310.475L865.5 310.475L865.5 314.525L866 314.525L866.5 314.525L866.5 310.475L866 310.475ZM866 318.575L865.5 318.575L865.5 322.625L866 322.625L866.5 322.625L866.5 318.575L866 318.575ZM866 326.675L865.5 326.675L865.5 330.725L866 330.725L866.5 330.725L866.5 326.675L866 326.675ZM866 334.775L865.5 334.775L865.5 338.825L866 338.825L866.5 338.825L866.5 334.775L866 334.775ZM866 342.875L865.5 342.875L865.5 346.925L866 346.925L866.5 346.925L866.5 342.875L866 342.875ZM866 350.975L865.5 350.975L865.5 355.025L866 355.025L866.5 355.025L866.5 350.975L866 350.975ZM866 359.075L865.5 359.075L865.5 363.125L866 363.125L866.5 363.125L866.5 359.075L866 359.075ZM866 367.175L865.5 367.175L865.5 371.225L866 371.225L866.5 371.225L866.5 367.175L866 367.175ZM866 375.275L865.5 375.275L865.5 379.325L866 379.325L866.5 379.325L866.5 375.275L866 375.275ZM866 383.375L865.5 383.375L865.5 387.425L866 387.425L866.5 387.425L866.5 383.375L866 383.375ZM866 391.475L865.5 391.475L865.5 395.525L866 395.525L866.5 395.525L866.5 391.475L866 391.475ZM866 399.575L865.5 399.575L865.5 403.625L866 403.625L866.5 403.625L866.5 399.575L866 399.575ZM866 407.675L865.5 407.675L865.5 411.725L866 411.725L866.5 411.725L866.5 407.675L866 407.675ZM866 415.775L865.5 415.775L865.5 419.825L866 419.825L866.5 419.825L866.5 415.775L866 415.775ZM866 423.875L865.5 423.875L865.5 427.925L866 427.925L866.5 427.925L866.5 423.875L866 423.875ZM866 431.975L865.5 431.975L865.5 434L866 434L866.5 434L866.5 431.975L866 431.975ZM866 434L865.5 434C865.5 434.502 865.451 434.991 865.357 435.464L865.848 435.561L866.338 435.658C866.444 435.122 866.5 434.567 866.5 434L866 434ZM864.653 438.445L864.237 438.167C863.689 438.985 862.985 439.689 862.167 440.237L862.445 440.653L862.723 441.068C863.65 440.448 864.448 439.65 865.068 438.723L864.653 438.445ZM859.561 441.848L859.464 441.357C858.991 441.451 858.502 441.5 858 441.5L858 442L858 442.5C858.567 442.5 859.122 442.444 859.658 442.338L859.561 441.848ZM858 442L858 441.5L856.029 441.5L856.029 442L856.029 442.5L858 442.5L858 442ZM852.086 442L852.086 441.5L848.143 441.5L848.143 442L848.143 442.5L852.086 442.5L852.086 442ZM844.2 442L844.2 441.5L840.257 441.5L840.257 442L840.257 442.5L844.2 442.5L844.2 442ZM836.314 442L836.314 441.5L832.371 441.5L832.371 442L832.371 442.5L836.314 442.5L836.314 442ZM828.429 442L828.429 441.5L824.486 441.5L824.486 442L824.486 442.5L828.429 442.5L828.429 442ZM820.543 442L820.543 441.5L816.6 441.5L816.6 442L816.6 442.5L820.543 442.5L820.543 442ZM812.657 442L812.657 441.5L808.714 441.5L808.714 442L808.714 442.5L812.657 442.5L812.657 442ZM804.771 442L804.771 441.5L800.829 441.5L800.829 442L800.829 442.5L804.771 442.5L804.771 442ZM796.886 442L796.886 441.5L792.943 441.5L792.943 442L792.943 442.5L796.886 442.5L796.886 442ZM789 442L789 441.5L785.057 441.5L785.057 442L785.057 442.5L789 442.5L789 442ZM781.114 442L781.114 441.5L777.171 441.5L777.171 442L777.171 442.5L781.114 442.5L781.114 442ZM773.229 442L773.229 441.5L769.286 441.5L769.286 442L769.286 442.5L773.229 442.5L773.229 442ZM765.343 442L765.343 441.5L761.4 441.5L761.4 442L761.4 442.5L765.343 442.5L765.343 442ZM757.457 442L757.457 441.5L753.514 441.5L753.514 442L753.514 442.5L757.457 442.5L757.457 442ZM749.571 442L749.571 441.5L745.629 441.5L745.629 442L745.629 442.5L749.571 442.5L749.571 442ZM741.686 442L741.686 441.5L737.743 441.5L737.743 442L737.743 442.5L741.686 442.5L741.686 442ZM733.8 442L733.8 441.5L729.857 441.5L729.857 442L729.857 442.5L733.8 442.5L733.8 442ZM725.914 442L725.914 441.5L721.971 441.5L721.971 442L721.971 442.5L725.914 442.5L725.914 442ZM718.029 442L718.029 441.5L714.086 441.5L714.086 442L714.086 442.5L718.029 442.5L718.029 442ZM710.143 442L710.143 441.5L706.2 441.5L706.2 442L706.2 442.5L710.143 442.5L710.143 442ZM702.257 442L702.257 441.5L698.314 441.5L698.314 442L698.314 442.5L702.257 442.5L702.257 442ZM694.371 442L694.371 441.5L690.429 441.5L690.429 442L690.429 442.5L694.371 442.5L694.371 442ZM686.486 442L686.486 441.5L682.543 441.5L682.543 442L682.543 442.5L686.486 442.5L686.486 442ZM678.6 442L678.6 441.5L674.657 441.5L674.657 442L674.657 442.5L678.6 442.5L678.6 442ZM670.714 442L670.714 441.5L666.771 441.5L666.771 442L666.771 442.5L670.714 442.5L670.714 442ZM662.829 442L662.829 441.5L658.886 441.5L658.886 442L658.886 442.5L662.829 442.5L662.829 442ZM654.943 442L654.943 441.5L651 441.5L651 442L651 442.5L654.943 442.5L654.943 442ZM647.057 442L647.057 441.5L643.114 441.5L643.114 442L643.114 442.5L647.057 442.5L647.057 442ZM639.171 442L639.171 441.5L635.229 441.5L635.229 442L635.229 442.5L639.171 442.5L639.171 442ZM631.286 442L631.286 441.5L627.343 441.5L627.343 442L627.343 442.5L631.286 442.5L631.286 442ZM623.4 442L623.4 441.5L619.457 441.5L619.457 442L619.457 442.5L623.4 442.5L623.4 442ZM615.514 442L615.514 441.5L611.571 441.5L611.571 442L611.571 442.5L615.514 442.5L615.514 442ZM607.629 442L607.629 441.5L603.686 441.5L603.686 442L603.686 442.5L607.629 442.5L607.629 442ZM599.743 442L599.743 441.5L595.8 441.5L595.8 442L595.8 442.5L599.743 442.5L599.743 442ZM591.857 442L591.857 441.5L587.914 441.5L587.914 442L587.914 442.5L591.857 442.5L591.857 442ZM583.971 442L583.971 441.5L582 441.5L582 442L582 442.5L583.971 442.5L583.971 442ZM582 442L582 441.5C581.498 441.5 581.009 441.451 580.536 441.357L580.439 441.848L580.342 442.338C580.878 442.444 581.433 442.5 582 442.5L582 442ZM577.555 440.653L577.833 440.237C577.015 439.689 576.311 438.985 575.763 438.167L575.347 438.445L574.932 438.723C575.552 439.65 576.35 440.448 577.277 441.068L577.555 440.653ZM574.152 435.561L574.643 435.464C574.549 434.991 574.5 434.502 574.5 434L574 434L573.5 434C573.5 434.567 573.556 435.122 573.662 435.658L574.152 435.561ZM574 434L574.5 434L574.5 431.975L574 431.975L573.5 431.975L573.5 434L574 434ZM574 427.925L574.5 427.925L574.5 423.875L574 423.875L573.5 423.875L573.5 427.925L574 427.925ZM574 419.825L574.5 419.825L574.5 415.775L574 415.775L573.5 415.775L573.5 419.825L574 419.825ZM574 411.725L574.5 411.725L574.5 407.675L574 407.675L573.5 407.675L573.5 411.725L574 411.725ZM574 403.625L574.5 403.625L574.5 399.575L574 399.575L573.5 399.575L573.5 403.625L574 403.625ZM574 395.525L574.5 395.525L574.5 391.475L574 391.475L573.5 391.475L573.5 395.525L574 395.525ZM574 387.425L574.5 387.425L574.5 383.375L574 383.375L573.5 383.375L573.5 387.425L574 387.425ZM574 379.325L574.5 379.325L574.5 375.275L574 375.275L573.5 375.275L573.5 379.325L574 379.325ZM574 371.225L574.5 371.225L574.5 367.175L574 367.175L573.5 367.175L573.5 371.225L574 371.225ZM574 363.125L574.5 363.125L574.5 359.075L574 359.075L573.5 359.075L573.5 363.125L574 363.125ZM574 355.025L574.5 355.025L574.5 350.975L574 350.975L573.5 350.975L573.5 355.025L574 355.025ZM574 346.925L574.5 346.925L574.5 342.875L574 342.875L573.5 342.875L573.5 346.925L574 346.925ZM574 338.825L574.5 338.825L574.5 334.775L574 334.775L573.5 334.775L573.5 338.825L574 338.825ZM574 330.725L574.5 330.725L574.5 326.675L574 326.675L573.5 326.675L573.5 330.725L574 330.725ZM574 322.625L574.5 322.625L574.5 318.575L574 318.575L573.5 318.575L573.5 322.625L574 322.625ZM574 314.525L574.5 314.525L574.5 310.475L574 310.475L573.5 310.475L573.5 314.525L574 314.525ZM574 306.425L574.5 306.425L574.5 302.375L574 302.375L573.5 302.375L573.5 306.425L574 306.425ZM574 298.325L574.5 298.325L574.5 294.275L574 294.275L573.5 294.275L573.5 298.325L574 298.325ZM574 290.225L574.5 290.225L574.5 286.175L574 286.175L573.5 286.175L573.5 290.225L574 290.225ZM574 282.125L574.5 282.125L574.5 278.075L574 278.075L573.5 278.075L573.5 282.125L574 282.125ZM574 274.025L574.5 274.025L574.5 272L574 272L573.5 272L573.5 274.025L574 274.025Z" fill="white"/>
<path d="M858 264C862.418 264 866 267.582 866 272L866 371C866 375.418 862.418 379 858 379L582 379C577.582 379 574 375.418 574 371L574 272C574 267.582 577.582 264 582 264L858 264Z" fill="white" fill-opacity="0.05"/>
<path d="M574 272L574.5 272C574.5 271.498 574.549 271.009 574.643 270.536L574.152 270.439L573.662 270.342C573.556 270.878 573.5 271.433 573.5 272L574 272ZM575.347 267.555L575.763 267.833C576.311 267.015 577.015 266.311 577.833 265.763L577.555 265.347L577.277 264.932C576.35 265.552 575.552 266.35 574.932 267.277L575.347 267.555ZM580.439 264.152L580.536 264.643C581.009 264.549 581.498 264.5 582 264.5L582 264L582 263.5C581.433 263.5 580.878 263.556 580.342 263.662L580.439 264.152ZM582 264L582 264.5L583.971 264.5L583.971 264L583.971 263.5L582 263.5L582 264ZM587.914 264L587.914 264.5L591.857 264.5L591.857 264L591.857 263.5L587.914 263.5L587.914 264ZM595.8 264L595.8 264.5L599.743 264.5L599.743 264L599.743 263.5L595.8 263.5L595.8 264ZM603.686 264L603.686 264.5L607.629 264.5L607.629 264L607.629 263.5L603.686 263.5L603.686 264ZM611.571 264L611.571 264.5L615.514 264.5L615.514 264L615.514 263.5L611.571 263.5L611.571 264ZM619.457 264L619.457 264.5L623.4 264.5L623.4 264L623.4 263.5L619.457 263.5L619.457 264ZM627.343 264L627.343 264.5L631.286 264.5L631.286 264L631.286 263.5L627.343 263.5L627.343 264ZM635.229 264L635.229 264.5L639.171 264.5L639.171 264L639.171 263.5L635.229 263.5L635.229 264ZM643.114 264L643.114 264.5L647.057 264.5L647.057 264L647.057 263.5L643.114 263.5L643.114 264ZM651 264L651 264.5L654.943 264.5L654.943 264L654.943 263.5L651 263.5L651 264ZM658.886 264L658.886 264.5L662.829 264.5L662.829 264L662.829 263.5L658.886 263.5L658.886 264ZM666.771 264L666.771 264.5L670.714 264.5L670.714 264L670.714 263.5L666.771 263.5L666.771 264ZM674.657 264L674.657 264.5L678.6 264.5L678.6 264L678.6 263.5L674.657 263.5L674.657 264ZM682.543 264L682.543 264.5L686.486 264.5L686.486 264L686.486 263.5L682.543 263.5L682.543 264ZM690.429 264L690.429 264.5L694.371 264.5L694.371 264L694.371 263.5L690.429 263.5L690.429 264ZM698.314 264L698.314 264.5L702.257 264.5L702.257 264L702.257 263.5L698.314 263.5L698.314 264ZM706.2 264L706.2 264.5L710.143 264.5L710.143 264L710.143 263.5L706.2 263.5L706.2 264ZM714.086 264L714.086 264.5L718.029 264.5L718.029 264L718.029 263.5L714.086 263.5L714.086 264ZM721.971 264L721.971 264.5L725.914 264.5L725.914 264L725.914 263.5L721.971 263.5L721.971 264ZM729.857 264L729.857 264.5L733.8 264.5L733.8 264L733.8 263.5L729.857 263.5L729.857 264ZM737.743 264L737.743 264.5L741.686 264.5L741.686 264L741.686 263.5L737.743 263.5L737.743 264ZM745.629 264L745.629 264.5L749.571 264.5L749.571 264L749.571 263.5L745.629 263.5L745.629 264ZM753.514 264L753.514 264.5L757.457 264.5L757.457 264L757.457 263.5L753.514 263.5L753.514 264ZM761.4 264L761.4 264.5L765.343 264.5L765.343 264L765.343 263.5L761.4 263.5L761.4 264ZM769.286 264L769.286 264.5L773.229 264.5L773.229 264L773.229 263.5L769.286 263.5L769.286 264ZM777.171 264L777.171 264.5L781.114 264.5L781.114 264L781.114 263.5L777.171 263.5L777.171 264ZM785.057 264L785.057 264.5L789 264.5L789 264L789 263.5L785.057 263.5L785.057 264ZM792.943 264L792.943 264.5L796.886 264.5L796.886 264L796.886 263.5L792.943 263.5L792.943 264ZM800.829 264L800.829 264.5L804.771 264.5L804.771 264L804.771 263.5L800.829 263.5L800.829 264ZM808.714 264L808.714 264.5L812.657 264.5L812.657 264L812.657 263.5L808.714 263.5L808.714 264ZM816.6 264L816.6 264.5L820.543 264.5L820.543 264L820.543 263.5L816.6 263.5L816.6 264ZM824.486 264L824.486 264.5L828.429 264.5L828.429 264L828.429 263.5L824.486 263.5L824.486 264ZM832.371 264L832.371 264.5L836.314 264.5L836.314 264L836.314 263.5L832.371 263.5L832.371 264ZM840.257 264L840.257 264.5L844.2 264.5L844.2 264L844.2 263.5L840.257 263.5L840.257 264ZM848.143 264L848.143 264.5L852.086 264.5L852.086 264L852.086 263.5L848.143 263.5L848.143 264ZM856.029 264L856.029 264.5L858 264.5L858 264L858 263.5L856.029 263.5L856.029 264ZM858 264L858 264.5C858.502 264.5 858.991 264.549 859.464 264.643L859.561 264.152L859.658 263.662C859.122 263.556 858.567 263.5 858 263.5L858 264ZM862.445 265.347L862.167 265.763C862.985 266.311 863.689 267.015 864.237 267.833L864.653 267.555L865.068 267.277C864.448 266.35 863.65 265.552 862.723 264.932L862.445 265.347ZM865.848 270.439L865.357 270.536C865.451 271.009 865.5 271.498 865.5 272L866 272L866.5 272C866.5 271.433 866.444 270.878 866.338 270.342L865.848 270.439ZM866 272L865.5 272L865.5 274.062L866 274.062L866.5 274.063L866.5 272L866 272ZM866 278.188L865.5 278.188L865.5 282.313L866 282.313L866.5 282.313L866.5 278.188L866 278.188ZM866 286.438L865.5 286.438L865.5 290.562L866 290.562L866.5 290.563L866.5 286.438L866 286.438ZM866 294.688L865.5 294.688L865.5 298.812L866 298.812L866.5 298.813L866.5 294.688L866 294.688ZM866 302.938L865.5 302.937L865.5 307.063L866 307.063L866.5 307.063L866.5 302.938L866 302.938ZM866 311.188L865.5 311.188L865.5 315.313L866 315.313L866.5 315.313L866.5 311.188L866 311.188ZM866 319.438L865.5 319.437L865.5 323.563L866 323.563L866.5 323.563L866.5 319.438L866 319.438ZM866 327.688L865.5 327.687L865.5 331.812L866 331.812L866.5 331.813L866.5 327.688L866 327.688ZM866 335.938L865.5 335.937L865.5 340.063L866 340.063L866.5 340.063L866.5 335.938L866 335.938ZM866 344.188L865.5 344.188L865.5 348.313L866 348.313L866.5 348.313L866.5 344.188L866 344.188ZM866 352.438L865.5 352.437L865.5 356.563L866 356.563L866.5 356.563L866.5 352.438L866 352.438ZM866 360.688L865.5 360.687L865.5 364.813L866 364.813L866.5 364.813L866.5 360.688L866 360.688ZM866 368.938L865.5 368.937L865.5 371L866 371L866.5 371L866.5 368.938L866 368.938ZM866 371L865.5 371C865.5 371.502 865.451 371.991 865.357 372.464L865.848 372.561L866.338 372.658C866.444 372.122 866.5 371.567 866.5 371L866 371ZM864.653 375.445L864.237 375.167C863.689 375.985 862.985 376.689 862.167 377.237L862.445 377.653L862.723 378.068C863.65 377.448 864.448 376.65 865.068 375.723L864.653 375.445ZM859.561 378.848L859.464 378.357C858.991 378.451 858.502 378.5 858 378.5L858 379L858 379.5C858.567 379.5 859.122 379.444 859.658 379.338L859.561 378.848ZM858 379L858 378.5L856.029 378.5L856.029 379L856.029 379.5L858 379.5L858 379ZM852.086 379L852.086 378.5L848.143 378.5L848.143 379L848.143 379.5L852.086 379.5L852.086 379ZM844.2 379L844.2 378.5L840.257 378.5L840.257 379L840.257 379.5L844.2 379.5L844.2 379ZM836.314 379L836.314 378.5L832.371 378.5L832.371 379L832.371 379.5L836.314 379.5L836.314 379ZM828.429 379L828.429 378.5L824.486 378.5L824.486 379L824.486 379.5L828.429 379.5L828.429 379ZM820.543 379L820.543 378.5L816.6 378.5L816.6 379L816.6 379.5L820.543 379.5L820.543 379ZM812.657 379L812.657 378.5L808.714 378.5L808.714 379L808.714 379.5L812.657 379.5L812.657 379ZM804.771 379L804.771 378.5L800.829 378.5L800.829 379L800.829 379.5L804.771 379.5L804.771 379ZM796.886 379L796.886 378.5L792.943 378.5L792.943 379L792.943 379.5L796.886 379.5L796.886 379ZM789 379L789 378.5L785.057 378.5L785.057 379L785.057 379.5L789 379.5L789 379ZM781.114 379L781.114 378.5L777.171 378.5L777.171 379L777.171 379.5L781.114 379.5L781.114 379ZM773.229 379L773.229 378.5L769.286 378.5L769.286 379L769.286 379.5L773.229 379.5L773.229 379ZM765.343 379L765.343 378.5L761.4 378.5L761.4 379L761.4 379.5L765.343 379.5L765.343 379ZM757.457 379L757.457 378.5L753.514 378.5L753.514 379L753.514 379.5L757.457 379.5L757.457 379ZM749.571 379L749.571 378.5L745.629 378.5L745.629 379L745.629 379.5L749.571 379.5L749.571 379ZM741.686 379L741.686 378.5L737.743 378.5L737.743 379L737.743 379.5L741.686 379.5L741.686 379ZM733.8 379L733.8 378.5L729.857 378.5L729.857 379L729.857 379.5L733.8 379.5L733.8 379ZM725.914 379L725.914 378.5L721.971 378.5L721.971 379L721.971 379.5L725.914 379.5L725.914 379ZM718.029 379L718.029 378.5L714.086 378.5L714.086 379L714.086 379.5L718.029 379.5L718.029 379ZM710.143 379L710.143 378.5L706.2 378.5L706.2 379L706.2 379.5L710.143 379.5L710.143 379ZM702.257 379L702.257 378.5L698.314 378.5L698.314 379L698.314 379.5L702.257 379.5L702.257 379ZM694.371 379L694.371 378.5L690.429 378.5L690.429 379L690.429 379.5L694.371 379.5L694.371 379ZM686.486 379L686.486 378.5L682.543 378.5L682.543 379L682.543 379.5L686.486 379.5L686.486 379ZM678.6 379L678.6 378.5L674.657 378.5L674.657 379L674.657 379.5L678.6 379.5L678.6 379ZM670.714 379L670.714 378.5L666.771 378.5L666.771 379L666.771 379.5L670.714 379.5L670.714 379ZM662.829 379L662.829 378.5L658.886 378.5L658.886 379L658.886 379.5L662.829 379.5L662.829 379ZM654.943 379L654.943 378.5L651 378.5L651 379L651 379.5L654.943 379.5L654.943 379ZM647.057 379L647.057 378.5L643.114 378.5L643.114 379L643.114 379.5L647.057 379.5L647.057 379ZM639.171 379L639.171 378.5L635.229 378.5L635.229 379L635.229 379.5L639.171 379.5L639.171 379ZM631.286 379L631.286 378.5L627.343 378.5L627.343 379L627.343 379.5L631.286 379.5L631.286 379ZM623.4 379L623.4 378.5L619.457 378.5L619.457 379L619.457 379.5L623.4 379.5L623.4 379ZM615.514 379L615.514 378.5L611.571 378.5L611.571 379L611.571 379.5L615.514 379.5L615.514 379ZM607.629 379L607.629 378.5L603.686 378.5L603.686 379L603.686 379.5L607.629 379.5L607.629 379ZM599.743 379L599.743 378.5L595.8 378.5L595.8 379L595.8 379.5L599.743 379.5L599.743 379ZM591.857 379L591.857 378.5L587.914 378.5L587.914 379L587.914 379.5L591.857 379.5L591.857 379ZM583.971 379L583.971 378.5L582 378.5L582 379L582 379.5L583.971 379.5L583.971 379ZM582 379L582 378.5C581.498 378.5 581.009 378.451 580.536 378.357L580.439 378.848L580.342 379.338C580.878 379.444 581.433 379.5 582 379.5L582 379ZM577.555 377.653L577.833 377.237C577.015 376.689 576.311 375.985 575.763 375.167L575.347 375.445L574.932 375.723C575.552 376.65 576.35 377.448 577.277 378.068L577.555 377.653ZM574.152 372.561L574.643 372.464C574.549 371.991 574.5 371.502 574.5 371L574 371L573.5 371C573.5 371.567 573.556 372.122 573.662 372.658L574.152 372.561ZM574 371L574.5 371L574.5 368.938L574 368.938L573.5 368.938L573.5 371L574 371ZM574 364.813L574.5 364.813L574.5 360.688L574 360.688L573.5 360.688L573.5 364.813L574 364.813ZM574 356.563L574.5 356.563L574.5 352.438L574 352.438L573.5 352.438L573.5 356.563L574 356.563ZM574 348.313L574.5 348.313L574.5 344.188L574 344.188L573.5 344.188L573.5 348.313L574 348.313ZM574 340.063L574.5 340.063L574.5 335.938L574 335.938L573.5 335.938L573.5 340.063L574 340.063ZM574 331.813L574.5 331.813L574.5 327.687L574 327.687L573.5 327.687L573.5 331.813L574 331.813ZM574 323.563L574.5 323.563L574.5 319.437L574 319.437L573.5 319.437L573.5 323.563L574 323.563ZM574 315.313L574.5 315.313L574.5 311.187L574 311.187L573.5 311.187L573.5 315.313L574 315.313ZM574 307.063L574.5 307.063L574.5 302.937L574 302.937L573.5 302.937L573.5 307.063L574 307.063ZM574 298.812L574.5 298.812L574.5 294.687L574 294.687L573.5 294.687L573.5 298.812L574 298.812ZM574 290.562L574.5 290.562L574.5 286.437L574 286.437L573.5 286.437L573.5 290.562L574 290.562ZM574 282.313L574.5 282.313L574.5 278.187L574 278.187L573.5 278.187L573.5 282.313L574 282.313ZM574 274.063L574.5 274.063L574.5 272L574 272L573.5 272L573.5 274.063L574 274.063Z" fill="white"/>
<path d="M590 336C590 331.582 593.582 328 598 328H842C846.418 328 850 331.582 850 336V359C850 363.418 846.418 367 842 367H598C593.582 367 590 363.418 590 359V336Z" fill="white" fill-opacity="0.2"/>
<text fill="white" style="white-space: pre" xml:space="preserve" font-family="Red Hat Mono" font-size="16" font-weight="600" letter-spacing="0em"><tspan x="672.031" y="353.204">User Input</tspan></text>
<path d="M590 399C590 394.582 593.582 391 598 391H842C846.418 391 850 394.582 850 399V422C850 426.418 846.418 430 842 430H598C593.582 430 590 426.418 590 422V399Z" fill="white" fill-opacity="0.2"/>
<text fill="white" style="white-space: pre" xml:space="preserve" font-family="Red Hat Mono" font-size="16" font-weight="600" letter-spacing="0em"><tspan x="667.234" y="416.204">Tool Result</tspan></text>
<path d="M590 462C590 457.582 593.582 454 598 454H842C846.418 454 850 457.582 850 462V485C850 489.418 846.418 493 842 493H598C593.582 493 590 489.418 590 485V462Z" fill="white" fill-opacity="0.2"/>
<text fill="white" style="white-space: pre" xml:space="preserve" font-family="Red Hat Mono" font-size="16" font-weight="600" letter-spacing="0em"><tspan x="633.656" y="479.204">Assistant Response</tspan></text>
<path d="M590 285C590 280.582 593.582 277 598 277H842C846.418 277 850 280.582 850 285V308C850 312.418 846.418 316 842 316H598C593.582 316 590 312.418 590 308V285Z" fill="white" fill-opacity="0.2"/>
<text fill="white" style="white-space: pre" xml:space="preserve" font-family="Red Hat Mono" font-size="16" font-weight="600" letter-spacing="0em"><tspan x="624.062" y="302.204">System Prompt &#38; Tool</tspan></text>
<path d="M922 336C922 331.582 925.582 328 930 328H1174C1178.42 328 1182 331.582 1182 336V359C1182 363.418 1178.42 367 1174 367H930C925.582 367 922 363.418 922 359V336Z" fill="white"/>
<text fill="#080808" style="white-space: pre" xml:space="preserve" font-family="Red Hat Mono" font-size="16" font-weight="600" letter-spacing="0em"><tspan x="1037.61" y="353.204">LLM</tspan></text>
<path d="M922 399C922 394.582 925.582 391 930 391H1174C1178.42 391 1182 394.582 1182 399V422C1182 426.418 1178.42 430 1174 430H930C925.582 430 922 426.418 922 422V399Z" fill="white"/>
<text fill="#080808" style="white-space: pre" xml:space="preserve" font-family="Red Hat Mono" font-size="16" font-weight="600" letter-spacing="0em"><tspan x="1037.61" y="416.204">LLM</tspan></text>
<path d="M922 259C922 254.582 925.582 251 930 251H1174C1178.42 251 1182 254.582 1182 259V282C1182 286.418 1178.42 290 1174 290H930C925.582 290 922 286.418 922 282V259Z" fill="#E66A32"/>
<text fill="#080808" style="white-space: pre" xml:space="preserve" font-family="Red Hat Mono" font-size="16" font-weight="600" letter-spacing="0em"><tspan x="970.453" y="276.204">Post Message Tool</tspan></text>
<path d="M1053 250.5L1053 251.5L1051 251.5L1051 250.5L1052 250.5L1053 250.5ZM391.707 328.707C391.317 329.098 390.683 329.098 390.293 328.707L383.929 322.343C383.538 321.953 383.538 321.319 383.929 320.929C384.319 320.538 384.953 320.538 385.343 320.929L391 326.586L396.657 320.929C397.047 320.538 397.681 320.538 398.071 320.929C398.462 321.319 398.462 321.953 398.071 322.343L391.707 328.707ZM1052 250.5L1051 250.5L1051 222L1052 222L1053 222L1053 250.5L1052 250.5ZM1044 214L1044 215L399 215L399 214L399 213L1044 213L1044 214ZM391 222L392 222L392 328L391 328L390 328L390 222L391 222ZM399 214L399 215C395.134 215 392 218.134 392 222L391 222L390 222C390 217.029 394.029 213 399 213L399 214ZM1052 222L1051 222C1051 218.134 1047.87 215 1044 215L1044 214L1044 213C1048.97 213 1053 217.029 1053 222L1052 222Z" fill="white"/>
<path d="M922.707 348.707C923.098 348.317 923.098 347.683 922.707 347.293L916.343 340.929C915.953 340.538 915.319 340.538 914.929 340.929C914.538 341.319 914.538 341.953 914.929 342.343L920.586 348L914.929 353.657C914.538 354.047 914.538 354.681 914.929 355.071C915.319 355.462 915.953 355.462 916.343 355.071L922.707 348.707ZM922 348V347H866V348V349H922V348Z" fill="white"/>
<path d="M922.707 411.707C923.098 411.317 923.098 410.683 922.707 410.293L916.343 403.929C915.953 403.538 915.319 403.538 914.929 403.929C914.538 404.319 914.538 404.953 914.929 405.343L920.586 411L914.929 416.657C914.538 417.047 914.538 417.681 914.929 418.071C915.319 418.462 915.953 418.462 916.343 418.071L922.707 411.707ZM922 411V410H866V411V412H922V411Z" fill="white"/>
<path d="M1052.71 289.293C1052.32 288.902 1051.68 288.902 1051.29 289.293L1044.93 295.657C1044.54 296.047 1044.54 296.681 1044.93 297.071C1045.32 297.462 1045.95 297.462 1046.34 297.071L1052 291.414L1057.66 297.071C1058.05 297.462 1058.68 297.462 1059.07 297.071C1059.46 296.681 1059.46 296.047 1059.07 295.657L1052.71 289.293ZM1052 290L1051 290L1051 328L1052 328L1053 328L1053 290L1052 290Z" fill="white"/>
<path d="M258 336C258 331.582 261.582 328 266 328H510C514.418 328 518 331.582 518 336V410C518 414.418 514.418 418 510 418H266C261.582 418 258 414.418 258 410V336Z" fill="white"/>
<text fill="#080808" style="white-space: pre" xml:space="preserve" font-family="Red Hat Mono" font-size="16" font-weight="600" letter-spacing="0em"><tspan x="344.828" y="378.704">Event Bus</tspan></text>
<path d="M590.707 347.293C591.098 347.683 591.098 348.317 590.707 348.707L584.343 355.071C583.953 355.462 583.319 355.462 582.929 355.071C582.538 354.681 582.538 354.047 582.929 353.657L588.586 348L582.929 342.343C582.538 341.953 582.538 341.319 582.929 340.929C583.319 340.538 583.953 340.538 584.343 340.929L590.707 347.293ZM518 377V376H532.345V377V378H518V377ZM540.345 369H539.345V356H540.345H541.345V369H540.345ZM548.345 348V347H590V348V349H548.345V348ZM540.345 356H539.345C539.345 351.029 543.374 347 548.345 347V348V349C544.479 349 541.345 352.134 541.345 356H540.345ZM532.345 377V376C536.211 376 539.345 372.866 539.345 369H540.345H541.345C541.345 373.971 537.315 378 532.345 378V377Z" fill="white"/>
<path d="M849.293 473.293C848.902 473.683 848.902 474.317 849.293 474.707L855.657 481.071C856.047 481.462 856.681 481.462 857.071 481.071C857.462 480.681 857.462 480.047 857.071 479.657L851.414 474L857.071 468.343C857.462 467.953 857.462 467.319 857.071 466.929C856.681 466.538 856.047 466.538 855.657 466.929L849.293 473.293ZM1052 430L1051 430L1051 466L1052 466L1053 466L1053 430L1052 430ZM1044 474L1044 473L850 473L850 474L850 475L1044 475L1044 474ZM1052 466L1051 466C1051 469.866 1047.87 473 1044 473L1044 474L1044 475C1048.97 475 1053 470.971 1053 466L1052 466Z" fill="white"/>
</g>
<defs>
<clipPath id="clip0_232_205">
<rect width="1440" height="720" fill="white"/>
</clipPath>
</defs>
</svg>
