<svg width="1440" height="720" viewBox="0 0 1440 720" fill="none" xmlns="http://www.w3.org/2000/svg">
<g clip-path="url(#clip0_221_59)">
<rect width="1440" height="720" fill="#080808"/>
<path d="M700 221C704.418 221 708 224.582 708 229L708 327C708 331.418 704.418 335 700 335L424 335C419.582 335 416 331.418 416 327L416 229C416 224.582 419.582 221 424 221L700 221Z" fill="white" fill-opacity="0.05"/>
<path d="M416 229L416.5 229C416.5 228.498 416.549 228.009 416.643 227.536L416.152 227.439L415.662 227.342C415.556 227.878 415.5 228.433 415.5 229L416 229ZM417.347 224.555L417.763 224.833C418.311 224.015 419.015 223.311 419.833 222.763L419.555 222.347L419.277 221.932C418.35 222.552 417.552 223.35 416.932 224.277L417.347 224.555ZM422.439 221.152L422.536 221.643C423.009 221.549 423.498 221.5 424 221.5L424 221L424 220.5C423.433 220.5 422.878 220.556 422.342 220.662L422.439 221.152ZM424 221L424 221.5L425.971 221.5L425.971 221L425.971 220.5L424 220.5L424 221ZM429.914 221L429.914 221.5L433.857 221.5L433.857 221L433.857 220.5L429.914 220.5L429.914 221ZM437.8 221L437.8 221.5L441.743 221.5L441.743 221L441.743 220.5L437.8 220.5L437.8 221ZM445.686 221L445.686 221.5L449.629 221.5L449.629 221L449.629 220.5L445.686 220.5L445.686 221ZM453.571 221L453.571 221.5L457.514 221.5L457.514 221L457.514 220.5L453.571 220.5L453.571 221ZM461.457 221L461.457 221.5L465.4 221.5L465.4 221L465.4 220.5L461.457 220.5L461.457 221ZM469.343 221L469.343 221.5L473.286 221.5L473.286 221L473.286 220.5L469.343 220.5L469.343 221ZM477.229 221L477.229 221.5L481.171 221.5L481.171 221L481.171 220.5L477.229 220.5L477.229 221ZM485.114 221L485.114 221.5L489.057 221.5L489.057 221L489.057 220.5L485.114 220.5L485.114 221ZM493 221L493 221.5L496.943 221.5L496.943 221L496.943 220.5L493 220.5L493 221ZM500.886 221L500.886 221.5L504.829 221.5L504.829 221L504.829 220.5L500.886 220.5L500.886 221ZM508.771 221L508.771 221.5L512.714 221.5L512.714 221L512.714 220.5L508.771 220.5L508.771 221ZM516.657 221L516.657 221.5L520.6 221.5L520.6 221L520.6 220.5L516.657 220.5L516.657 221ZM524.543 221L524.543 221.5L528.486 221.5L528.486 221L528.486 220.5L524.543 220.5L524.543 221ZM532.429 221L532.429 221.5L536.371 221.5L536.371 221L536.371 220.5L532.429 220.5L532.429 221ZM540.314 221L540.314 221.5L544.257 221.5L544.257 221L544.257 220.5L540.314 220.5L540.314 221ZM548.2 221L548.2 221.5L552.143 221.5L552.143 221L552.143 220.5L548.2 220.5L548.2 221ZM556.086 221L556.086 221.5L560.029 221.5L560.029 221L560.029 220.5L556.086 220.5L556.086 221ZM563.971 221L563.971 221.5L567.914 221.5L567.914 221L567.914 220.5L563.971 220.5L563.971 221ZM571.857 221L571.857 221.5L575.8 221.5L575.8 221L575.8 220.5L571.857 220.5L571.857 221ZM579.743 221L579.743 221.5L583.686 221.5L583.686 221L583.686 220.5L579.743 220.5L579.743 221ZM587.629 221L587.629 221.5L591.571 221.5L591.571 221L591.571 220.5L587.629 220.5L587.629 221ZM595.514 221L595.514 221.5L599.457 221.5L599.457 221L599.457 220.5L595.514 220.5L595.514 221ZM603.4 221L603.4 221.5L607.343 221.5L607.343 221L607.343 220.5L603.4 220.5L603.4 221ZM611.286 221L611.286 221.5L615.229 221.5L615.229 221L615.229 220.5L611.286 220.5L611.286 221ZM619.171 221L619.171 221.5L623.114 221.5L623.114 221L623.114 220.5L619.171 220.5L619.171 221ZM627.057 221L627.057 221.5L631 221.5L631 221L631 220.5L627.057 220.5L627.057 221ZM634.943 221L634.943 221.5L638.886 221.5L638.886 221L638.886 220.5L634.943 220.5L634.943 221ZM642.829 221L642.829 221.5L646.771 221.5L646.771 221L646.771 220.5L642.829 220.5L642.829 221ZM650.714 221L650.714 221.5L654.657 221.5L654.657 221L654.657 220.5L650.714 220.5L650.714 221ZM658.6 221L658.6 221.5L662.543 221.5L662.543 221L662.543 220.5L658.6 220.5L658.6 221ZM666.486 221L666.486 221.5L670.429 221.5L670.429 221L670.429 220.5L666.486 220.5L666.486 221ZM674.371 221L674.371 221.5L678.314 221.5L678.314 221L678.314 220.5L674.371 220.5L674.371 221ZM682.257 221L682.257 221.5L686.2 221.5L686.2 221L686.2 220.5L682.257 220.5L682.257 221ZM690.143 221L690.143 221.5L694.086 221.5L694.086 221L694.086 220.5L690.143 220.5L690.143 221ZM698.029 221L698.029 221.5L700 221.5L700 221L700 220.5L698.029 220.5L698.029 221ZM700 221L700 221.5C700.502 221.5 700.991 221.549 701.464 221.643L701.561 221.152L701.658 220.662C701.122 220.556 700.567 220.5 700 220.5L700 221ZM704.445 222.347L704.167 222.763C704.985 223.311 705.689 224.015 706.237 224.833L706.653 224.555L707.068 224.277C706.448 223.35 705.65 222.552 704.723 221.932L704.445 222.347ZM707.848 227.439L707.357 227.536C707.451 228.009 707.5 228.498 707.5 229L708 229L708.5 229C708.5 228.433 708.444 227.878 708.338 227.342L707.848 227.439ZM708 229L707.5 229L707.5 231.042L708 231.042L708.5 231.042L708.5 229L708 229ZM708 235.125L707.5 235.125L707.5 239.208L708 239.208L708.5 239.208L708.5 235.125L708 235.125ZM708 243.292L707.5 243.292L707.5 247.375L708 247.375L708.5 247.375L708.5 243.292L708 243.292ZM708 251.458L707.5 251.458L707.5 255.542L708 255.542L708.5 255.542L708.5 251.458L708 251.458ZM708 259.625L707.5 259.625L707.5 263.708L708 263.708L708.5 263.708L708.5 259.625L708 259.625ZM708 267.792L707.5 267.792L707.5 271.875L708 271.875L708.5 271.875L708.5 267.792L708 267.792ZM708 275.958L707.5 275.958L707.5 280.042L708 280.042L708.5 280.042L708.5 275.958L708 275.958ZM708 284.125L707.5 284.125L707.5 288.208L708 288.208L708.5 288.208L708.5 284.125L708 284.125ZM708 292.292L707.5 292.292L707.5 296.375L708 296.375L708.5 296.375L708.5 292.292L708 292.292ZM708 300.458L707.5 300.458L707.5 304.542L708 304.542L708.5 304.542L708.5 300.458L708 300.458ZM708 308.625L707.5 308.625L707.5 312.708L708 312.708L708.5 312.708L708.5 308.625L708 308.625ZM708 316.792L707.5 316.792L707.5 320.875L708 320.875L708.5 320.875L708.5 316.792L708 316.792ZM708 324.958L707.5 324.958L707.5 327L708 327L708.5 327L708.5 324.958L708 324.958ZM708 327L707.5 327C707.5 327.502 707.451 327.991 707.357 328.464L707.848 328.561L708.338 328.658C708.444 328.122 708.5 327.567 708.5 327L708 327ZM706.653 331.445L706.237 331.167C705.689 331.985 704.985 332.689 704.167 333.237L704.445 333.653L704.723 334.068C705.65 333.448 706.448 332.65 707.068 331.723L706.653 331.445ZM701.561 334.848L701.464 334.357C700.991 334.451 700.502 334.5 700 334.5L700 335L700 335.5C700.567 335.5 701.122 335.444 701.658 335.338L701.561 334.848ZM700 335L700 334.5L698.029 334.5L698.029 335L698.029 335.5L700 335.5L700 335ZM694.086 335L694.086 334.5L690.143 334.5L690.143 335L690.143 335.5L694.086 335.5L694.086 335ZM686.2 335L686.2 334.5L682.257 334.5L682.257 335L682.257 335.5L686.2 335.5L686.2 335ZM678.314 335L678.314 334.5L674.371 334.5L674.371 335L674.371 335.5L678.314 335.5L678.314 335ZM670.429 335L670.429 334.5L666.486 334.5L666.486 335L666.486 335.5L670.429 335.5L670.429 335ZM662.543 335L662.543 334.5L658.6 334.5L658.6 335L658.6 335.5L662.543 335.5L662.543 335ZM654.657 335L654.657 334.5L650.714 334.5L650.714 335L650.714 335.5L654.657 335.5L654.657 335ZM646.771 335L646.771 334.5L642.829 334.5L642.829 335L642.829 335.5L646.771 335.5L646.771 335ZM638.886 335L638.886 334.5L634.943 334.5L634.943 335L634.943 335.5L638.886 335.5L638.886 335ZM631 335L631 334.5L627.057 334.5L627.057 335L627.057 335.5L631 335.5L631 335ZM623.114 335L623.114 334.5L619.171 334.5L619.171 335L619.171 335.5L623.114 335.5L623.114 335ZM615.229 335L615.229 334.5L611.286 334.5L611.286 335L611.286 335.5L615.229 335.5L615.229 335ZM607.343 335L607.343 334.5L603.4 334.5L603.4 335L603.4 335.5L607.343 335.5L607.343 335ZM599.457 335L599.457 334.5L595.514 334.5L595.514 335L595.514 335.5L599.457 335.5L599.457 335ZM591.571 335L591.571 334.5L587.629 334.5L587.629 335L587.629 335.5L591.571 335.5L591.571 335ZM583.686 335L583.686 334.5L579.743 334.5L579.743 335L579.743 335.5L583.686 335.5L583.686 335ZM575.8 335L575.8 334.5L571.857 334.5L571.857 335L571.857 335.5L575.8 335.5L575.8 335ZM567.914 335L567.914 334.5L563.971 334.5L563.971 335L563.971 335.5L567.914 335.5L567.914 335ZM560.029 335L560.029 334.5L556.086 334.5L556.086 335L556.086 335.5L560.029 335.5L560.029 335ZM552.143 335L552.143 334.5L548.2 334.5L548.2 335L548.2 335.5L552.143 335.5L552.143 335ZM544.257 335L544.257 334.5L540.314 334.5L540.314 335L540.314 335.5L544.257 335.5L544.257 335ZM536.371 335L536.371 334.5L532.429 334.5L532.429 335L532.429 335.5L536.371 335.5L536.371 335ZM528.486 335L528.486 334.5L524.543 334.5L524.543 335L524.543 335.5L528.486 335.5L528.486 335ZM520.6 335L520.6 334.5L516.657 334.5L516.657 335L516.657 335.5L520.6 335.5L520.6 335ZM512.714 335L512.714 334.5L508.771 334.5L508.771 335L508.771 335.5L512.714 335.5L512.714 335ZM504.829 335L504.829 334.5L500.886 334.5L500.886 335L500.886 335.5L504.829 335.5L504.829 335ZM496.943 335L496.943 334.5L493 334.5L493 335L493 335.5L496.943 335.5L496.943 335ZM489.057 335L489.057 334.5L485.114 334.5L485.114 335L485.114 335.5L489.057 335.5L489.057 335ZM481.171 335L481.171 334.5L477.229 334.5L477.229 335L477.229 335.5L481.171 335.5L481.171 335ZM473.286 335L473.286 334.5L469.343 334.5L469.343 335L469.343 335.5L473.286 335.5L473.286 335ZM465.4 335L465.4 334.5L461.457 334.5L461.457 335L461.457 335.5L465.4 335.5L465.4 335ZM457.514 335L457.514 334.5L453.571 334.5L453.571 335L453.571 335.5L457.514 335.5L457.514 335ZM449.629 335L449.629 334.5L445.686 334.5L445.686 335L445.686 335.5L449.629 335.5L449.629 335ZM441.743 335L441.743 334.5L437.8 334.5L437.8 335L437.8 335.5L441.743 335.5L441.743 335ZM433.857 335L433.857 334.5L429.914 334.5L429.914 335L429.914 335.5L433.857 335.5L433.857 335ZM425.971 335L425.971 334.5L424 334.5L424 335L424 335.5L425.971 335.5L425.971 335ZM424 335L424 334.5C423.498 334.5 423.009 334.451 422.536 334.357L422.439 334.848L422.342 335.338C422.878 335.444 423.433 335.5 424 335.5L424 335ZM419.555 333.653L419.833 333.237C419.015 332.689 418.311 331.985 417.763 331.167L417.347 331.445L416.932 331.723C417.552 332.65 418.35 333.448 419.277 334.068L419.555 333.653ZM416.152 328.561L416.643 328.464C416.549 327.991 416.5 327.502 416.5 327L416 327L415.5 327C415.5 327.567 415.556 328.122 415.662 328.658L416.152 328.561ZM416 327L416.5 327L416.5 324.958L416 324.958L415.5 324.958L415.5 327L416 327ZM416 320.875L416.5 320.875L416.5 316.792L416 316.792L415.5 316.792L415.5 320.875L416 320.875ZM416 312.708L416.5 312.708L416.5 308.625L416 308.625L415.5 308.625L415.5 312.708L416 312.708ZM416 304.542L416.5 304.542L416.5 300.458L416 300.458L415.5 300.458L415.5 304.542L416 304.542ZM416 296.375L416.5 296.375L416.5 292.292L416 292.292L415.5 292.292L415.5 296.375L416 296.375ZM416 288.208L416.5 288.208L416.5 284.125L416 284.125L415.5 284.125L415.5 288.208L416 288.208ZM416 280.042L416.5 280.042L416.5 275.958L416 275.958L415.5 275.958L415.5 280.042L416 280.042ZM416 271.875L416.5 271.875L416.5 267.792L416 267.792L415.5 267.792L415.5 271.875L416 271.875ZM416 263.708L416.5 263.708L416.5 259.625L416 259.625L415.5 259.625L415.5 263.708L416 263.708ZM416 255.542L416.5 255.542L416.5 251.458L416 251.458L415.5 251.458L415.5 255.542L416 255.542ZM416 247.375L416.5 247.375L416.5 243.292L416 243.292L415.5 243.292L415.5 247.375L416 247.375ZM416 239.208L416.5 239.208L416.5 235.125L416 235.125L415.5 235.125L415.5 239.208L416 239.208ZM416 231.042L416.5 231.042L416.5 229L416 229L415.5 229L415.5 231.042L416 231.042Z" fill="white"/>
<path d="M700 221C704.418 221 708 224.582 708 229L708 441C708 445.418 704.418 449 700 449L424 449C419.582 449 416 445.418 416 441L416 229C416 224.582 419.582 221 424 221L700 221Z" fill="white" fill-opacity="0.05"/>
<path d="M416 229L416.5 229C416.5 228.498 416.549 228.009 416.643 227.536L416.152 227.439L415.662 227.342C415.556 227.878 415.5 228.433 415.5 229L416 229ZM417.347 224.555L417.763 224.833C418.311 224.015 419.015 223.311 419.833 222.763L419.555 222.347L419.277 221.932C418.35 222.552 417.552 223.35 416.932 224.277L417.347 224.555ZM422.439 221.152L422.536 221.643C423.009 221.549 423.498 221.5 424 221.5L424 221L424 220.5C423.433 220.5 422.878 220.556 422.342 220.662L422.439 221.152ZM424 221L424 221.5L425.971 221.5L425.971 221L425.971 220.5L424 220.5L424 221ZM429.914 221L429.914 221.5L433.857 221.5L433.857 221L433.857 220.5L429.914 220.5L429.914 221ZM437.8 221L437.8 221.5L441.743 221.5L441.743 221L441.743 220.5L437.8 220.5L437.8 221ZM445.686 221L445.686 221.5L449.629 221.5L449.629 221L449.629 220.5L445.686 220.5L445.686 221ZM453.571 221L453.571 221.5L457.514 221.5L457.514 221L457.514 220.5L453.571 220.5L453.571 221ZM461.457 221L461.457 221.5L465.4 221.5L465.4 221L465.4 220.5L461.457 220.5L461.457 221ZM469.343 221L469.343 221.5L473.286 221.5L473.286 221L473.286 220.5L469.343 220.5L469.343 221ZM477.229 221L477.229 221.5L481.171 221.5L481.171 221L481.171 220.5L477.229 220.5L477.229 221ZM485.114 221L485.114 221.5L489.057 221.5L489.057 221L489.057 220.5L485.114 220.5L485.114 221ZM493 221L493 221.5L496.943 221.5L496.943 221L496.943 220.5L493 220.5L493 221ZM500.886 221L500.886 221.5L504.829 221.5L504.829 221L504.829 220.5L500.886 220.5L500.886 221ZM508.771 221L508.771 221.5L512.714 221.5L512.714 221L512.714 220.5L508.771 220.5L508.771 221ZM516.657 221L516.657 221.5L520.6 221.5L520.6 221L520.6 220.5L516.657 220.5L516.657 221ZM524.543 221L524.543 221.5L528.486 221.5L528.486 221L528.486 220.5L524.543 220.5L524.543 221ZM532.429 221L532.429 221.5L536.371 221.5L536.371 221L536.371 220.5L532.429 220.5L532.429 221ZM540.314 221L540.314 221.5L544.257 221.5L544.257 221L544.257 220.5L540.314 220.5L540.314 221ZM548.2 221L548.2 221.5L552.143 221.5L552.143 221L552.143 220.5L548.2 220.5L548.2 221ZM556.086 221L556.086 221.5L560.029 221.5L560.029 221L560.029 220.5L556.086 220.5L556.086 221ZM563.971 221L563.971 221.5L567.914 221.5L567.914 221L567.914 220.5L563.971 220.5L563.971 221ZM571.857 221L571.857 221.5L575.8 221.5L575.8 221L575.8 220.5L571.857 220.5L571.857 221ZM579.743 221L579.743 221.5L583.686 221.5L583.686 221L583.686 220.5L579.743 220.5L579.743 221ZM587.629 221L587.629 221.5L591.571 221.5L591.571 221L591.571 220.5L587.629 220.5L587.629 221ZM595.514 221L595.514 221.5L599.457 221.5L599.457 221L599.457 220.5L595.514 220.5L595.514 221ZM603.4 221L603.4 221.5L607.343 221.5L607.343 221L607.343 220.5L603.4 220.5L603.4 221ZM611.286 221L611.286 221.5L615.229 221.5L615.229 221L615.229 220.5L611.286 220.5L611.286 221ZM619.171 221L619.171 221.5L623.114 221.5L623.114 221L623.114 220.5L619.171 220.5L619.171 221ZM627.057 221L627.057 221.5L631 221.5L631 221L631 220.5L627.057 220.5L627.057 221ZM634.943 221L634.943 221.5L638.886 221.5L638.886 221L638.886 220.5L634.943 220.5L634.943 221ZM642.829 221L642.829 221.5L646.771 221.5L646.771 221L646.771 220.5L642.829 220.5L642.829 221ZM650.714 221L650.714 221.5L654.657 221.5L654.657 221L654.657 220.5L650.714 220.5L650.714 221ZM658.6 221L658.6 221.5L662.543 221.5L662.543 221L662.543 220.5L658.6 220.5L658.6 221ZM666.486 221L666.486 221.5L670.429 221.5L670.429 221L670.429 220.5L666.486 220.5L666.486 221ZM674.371 221L674.371 221.5L678.314 221.5L678.314 221L678.314 220.5L674.371 220.5L674.371 221ZM682.257 221L682.257 221.5L686.2 221.5L686.2 221L686.2 220.5L682.257 220.5L682.257 221ZM690.143 221L690.143 221.5L694.086 221.5L694.086 221L694.086 220.5L690.143 220.5L690.143 221ZM698.029 221L698.029 221.5L700 221.5L700 221L700 220.5L698.029 220.5L698.029 221ZM700 221L700 221.5C700.502 221.5 700.991 221.549 701.464 221.643L701.561 221.152L701.658 220.662C701.122 220.556 700.567 220.5 700 220.5L700 221ZM704.445 222.347L704.167 222.763C704.985 223.311 705.689 224.015 706.237 224.833L706.653 224.555L707.068 224.277C706.448 223.35 705.65 222.552 704.723 221.932L704.445 222.347ZM707.848 227.439L707.357 227.536C707.451 228.009 707.5 228.498 707.5 229L708 229L708.5 229C708.5 228.433 708.444 227.878 708.338 227.342L707.848 227.439ZM708 229L707.5 229L707.5 230.963L708 230.963L708.5 230.963L708.5 229L708 229ZM708 234.889L707.5 234.889L707.5 238.815L708 238.815L708.5 238.815L708.5 234.889L708 234.889ZM708 242.741L707.5 242.741L707.5 246.667L708 246.667L708.5 246.667L708.5 242.741L708 242.741ZM708 250.593L707.5 250.593L707.5 254.519L708 254.519L708.5 254.519L708.5 250.593L708 250.593ZM708 258.444L707.5 258.444L707.5 262.37L708 262.37L708.5 262.37L708.5 258.444L708 258.444ZM708 266.296L707.5 266.296L707.5 270.222L708 270.222L708.5 270.222L708.5 266.296L708 266.296ZM708 274.148L707.5 274.148L707.5 278.074L708 278.074L708.5 278.074L708.5 274.148L708 274.148ZM708 282L707.5 282L707.5 285.926L708 285.926L708.5 285.926L708.5 282L708 282ZM708 289.852L707.5 289.852L707.5 293.778L708 293.778L708.5 293.778L708.5 289.852L708 289.852ZM708 297.704L707.5 297.704L707.5 301.63L708 301.63L708.5 301.63L708.5 297.704L708 297.704ZM708 305.556L707.5 305.556L707.5 309.481L708 309.481L708.5 309.481L708.5 305.556L708 305.556ZM708 313.407L707.5 313.407L707.5 317.333L708 317.333L708.5 317.333L708.5 313.407L708 313.407ZM708 321.259L707.5 321.259L707.5 325.185L708 325.185L708.5 325.185L708.5 321.259L708 321.259ZM708 329.111L707.5 329.111L707.5 333.037L708 333.037L708.5 333.037L708.5 329.111L708 329.111ZM708 336.963L707.5 336.963L707.5 340.889L708 340.889L708.5 340.889L708.5 336.963L708 336.963ZM708 344.815L707.5 344.815L707.5 348.741L708 348.741L708.5 348.741L708.5 344.815L708 344.815ZM708 352.667L707.5 352.667L707.5 356.593L708 356.593L708.5 356.593L708.5 352.667L708 352.667ZM708 360.519L707.5 360.519L707.5 364.444L708 364.444L708.5 364.444L708.5 360.519L708 360.519ZM708 368.37L707.5 368.37L707.5 372.296L708 372.296L708.5 372.296L708.5 368.37L708 368.37ZM708 376.222L707.5 376.222L707.5 380.148L708 380.148L708.5 380.148L708.5 376.222L708 376.222ZM708 384.074L707.5 384.074L707.5 388L708 388L708.5 388L708.5 384.074L708 384.074ZM708 391.926L707.5 391.926L707.5 395.852L708 395.852L708.5 395.852L708.5 391.926L708 391.926ZM708 399.778L707.5 399.778L707.5 403.704L708 403.704L708.5 403.704L708.5 399.778L708 399.778ZM708 407.63L707.5 407.63L707.5 411.556L708 411.556L708.5 411.556L708.5 407.63L708 407.63ZM708 415.482L707.5 415.482L707.5 419.408L708 419.408L708.5 419.408L708.5 415.482L708 415.482ZM708 423.333L707.5 423.333L707.5 427.259L708 427.259L708.5 427.259L708.5 423.333L708 423.333ZM708 431.185L707.5 431.185L707.5 435.111L708 435.111L708.5 435.111L708.5 431.185L708 431.185ZM708 439.037L707.5 439.037L707.5 441L708 441L708.5 441L708.5 439.037L708 439.037ZM708 441L707.5 441C707.5 441.502 707.451 441.991 707.357 442.464L707.848 442.561L708.338 442.658C708.444 442.122 708.5 441.567 708.5 441L708 441ZM706.653 445.445L706.237 445.167C705.689 445.985 704.985 446.689 704.167 447.237L704.445 447.653L704.723 448.068C705.65 447.448 706.448 446.65 707.068 445.723L706.653 445.445ZM701.561 448.848L701.464 448.357C700.991 448.451 700.502 448.5 700 448.5L700 449L700 449.5C700.567 449.5 701.122 449.444 701.658 449.338L701.561 448.848ZM700 449L700 448.5L698.029 448.5L698.029 449L698.029 449.5L700 449.5L700 449ZM694.086 449L694.086 448.5L690.143 448.5L690.143 449L690.143 449.5L694.086 449.5L694.086 449ZM686.2 449L686.2 448.5L682.257 448.5L682.257 449L682.257 449.5L686.2 449.5L686.2 449ZM678.314 449L678.314 448.5L674.371 448.5L674.371 449L674.371 449.5L678.314 449.5L678.314 449ZM670.429 449L670.429 448.5L666.486 448.5L666.486 449L666.486 449.5L670.429 449.5L670.429 449ZM662.543 449L662.543 448.5L658.6 448.5L658.6 449L658.6 449.5L662.543 449.5L662.543 449ZM654.657 449L654.657 448.5L650.714 448.5L650.714 449L650.714 449.5L654.657 449.5L654.657 449ZM646.771 449L646.771 448.5L642.829 448.5L642.829 449L642.829 449.5L646.771 449.5L646.771 449ZM638.886 449L638.886 448.5L634.943 448.5L634.943 449L634.943 449.5L638.886 449.5L638.886 449ZM631 449L631 448.5L627.057 448.5L627.057 449L627.057 449.5L631 449.5L631 449ZM623.114 449L623.114 448.5L619.171 448.5L619.171 449L619.171 449.5L623.114 449.5L623.114 449ZM615.229 449L615.229 448.5L611.286 448.5L611.286 449L611.286 449.5L615.229 449.5L615.229 449ZM607.343 449L607.343 448.5L603.4 448.5L603.4 449L603.4 449.5L607.343 449.5L607.343 449ZM599.457 449L599.457 448.5L595.514 448.5L595.514 449L595.514 449.5L599.457 449.5L599.457 449ZM591.571 449L591.571 448.5L587.629 448.5L587.629 449L587.629 449.5L591.571 449.5L591.571 449ZM583.686 449L583.686 448.5L579.743 448.5L579.743 449L579.743 449.5L583.686 449.5L583.686 449ZM575.8 449L575.8 448.5L571.857 448.5L571.857 449L571.857 449.5L575.8 449.5L575.8 449ZM567.914 449L567.914 448.5L563.971 448.5L563.971 449L563.971 449.5L567.914 449.5L567.914 449ZM560.029 449L560.029 448.5L556.086 448.5L556.086 449L556.086 449.5L560.029 449.5L560.029 449ZM552.143 449L552.143 448.5L548.2 448.5L548.2 449L548.2 449.5L552.143 449.5L552.143 449ZM544.257 449L544.257 448.5L540.314 448.5L540.314 449L540.314 449.5L544.257 449.5L544.257 449ZM536.371 449L536.371 448.5L532.429 448.5L532.429 449L532.429 449.5L536.371 449.5L536.371 449ZM528.486 449L528.486 448.5L524.543 448.5L524.543 449L524.543 449.5L528.486 449.5L528.486 449ZM520.6 449L520.6 448.5L516.657 448.5L516.657 449L516.657 449.5L520.6 449.5L520.6 449ZM512.714 449L512.714 448.5L508.771 448.5L508.771 449L508.771 449.5L512.714 449.5L512.714 449ZM504.829 449L504.829 448.5L500.886 448.5L500.886 449L500.886 449.5L504.829 449.5L504.829 449ZM496.943 449L496.943 448.5L493 448.5L493 449L493 449.5L496.943 449.5L496.943 449ZM489.057 449L489.057 448.5L485.114 448.5L485.114 449L485.114 449.5L489.057 449.5L489.057 449ZM481.171 449L481.171 448.5L477.229 448.5L477.229 449L477.229 449.5L481.171 449.5L481.171 449ZM473.286 449L473.286 448.5L469.343 448.5L469.343 449L469.343 449.5L473.286 449.5L473.286 449ZM465.4 449L465.4 448.5L461.457 448.5L461.457 449L461.457 449.5L465.4 449.5L465.4 449ZM457.514 449L457.514 448.5L453.571 448.5L453.571 449L453.571 449.5L457.514 449.5L457.514 449ZM449.629 449L449.629 448.5L445.686 448.5L445.686 449L445.686 449.5L449.629 449.5L449.629 449ZM441.743 449L441.743 448.5L437.8 448.5L437.8 449L437.8 449.5L441.743 449.5L441.743 449ZM433.857 449L433.857 448.5L429.914 448.5L429.914 449L429.914 449.5L433.857 449.5L433.857 449ZM425.971 449L425.971 448.5L424 448.5L424 449L424 449.5L425.971 449.5L425.971 449ZM424 449L424 448.5C423.498 448.5 423.009 448.451 422.536 448.357L422.439 448.848L422.342 449.338C422.878 449.444 423.433 449.5 424 449.5L424 449ZM419.555 447.653L419.833 447.237C419.015 446.689 418.311 445.985 417.763 445.167L417.347 445.445L416.932 445.723C417.552 446.65 418.35 447.448 419.277 448.068L419.555 447.653ZM416.152 442.561L416.643 442.464C416.549 441.991 416.5 441.502 416.5 441L416 441L415.5 441C415.5 441.567 415.556 442.122 415.662 442.658L416.152 442.561ZM416 441L416.5 441L416.5 439.037L416 439.037L415.5 439.037L415.5 441L416 441ZM416 435.111L416.5 435.111L416.5 431.185L416 431.185L415.5 431.185L415.5 435.111L416 435.111ZM416 427.259L416.5 427.259L416.5 423.333L416 423.333L415.5 423.333L415.5 427.259L416 427.259ZM416 419.407L416.5 419.407L416.5 415.481L416 415.481L415.5 415.481L415.5 419.407L416 419.407ZM416 411.556L416.5 411.556L416.5 407.63L416 407.63L415.5 407.63L415.5 411.556L416 411.556ZM416 403.704L416.5 403.704L416.5 399.778L416 399.778L415.5 399.778L415.5 403.704L416 403.704ZM416 395.852L416.5 395.852L416.5 391.926L416 391.926L415.5 391.926L415.5 395.852L416 395.852ZM416 388L416.5 388L416.5 384.074L416 384.074L415.5 384.074L415.5 388L416 388ZM416 380.148L416.5 380.148L416.5 376.222L416 376.222L415.5 376.222L415.5 380.148L416 380.148ZM416 372.296L416.5 372.296L416.5 368.37L416 368.37L415.5 368.37L415.5 372.296L416 372.296ZM416 364.444L416.5 364.444L416.5 360.519L416 360.519L415.5 360.519L415.5 364.444L416 364.444ZM416 356.593L416.5 356.593L416.5 352.667L416 352.667L415.5 352.667L415.5 356.593L416 356.593ZM416 348.741L416.5 348.741L416.5 344.815L416 344.815L415.5 344.815L415.5 348.741L416 348.741ZM416 340.889L416.5 340.889L416.5 336.963L416 336.963L415.5 336.963L415.5 340.889L416 340.889ZM416 333.037L416.5 333.037L416.5 329.111L416 329.111L415.5 329.111L415.5 333.037L416 333.037ZM416 325.185L416.5 325.185L416.5 321.259L416 321.259L415.5 321.259L415.5 325.185L416 325.185ZM416 317.333L416.5 317.333L416.5 313.407L416 313.407L415.5 313.407L415.5 317.333L416 317.333ZM416 309.481L416.5 309.481L416.5 305.556L416 305.556L415.5 305.556L415.5 309.481L416 309.481ZM416 301.63L416.5 301.63L416.5 297.704L416 297.704L415.5 297.704L415.5 301.63L416 301.63ZM416 293.778L416.5 293.778L416.5 289.852L416 289.852L415.5 289.852L415.5 293.778L416 293.778ZM416 285.926L416.5 285.926L416.5 282L416 282L415.5 282L415.5 285.926L416 285.926ZM416 278.074L416.5 278.074L416.5 274.148L416 274.148L415.5 274.148L415.5 278.074L416 278.074ZM416 270.222L416.5 270.222L416.5 266.296L416 266.296L415.5 266.296L415.5 270.222L416 270.222ZM416 262.37L416.5 262.37L416.5 258.444L416 258.444L415.5 258.444L415.5 262.37L416 262.37ZM416 254.518L416.5 254.518L416.5 250.592L416 250.592L415.5 250.592L415.5 254.518L416 254.518ZM416 246.667L416.5 246.667L416.5 242.741L416 242.741L415.5 242.741L415.5 246.667L416 246.667ZM416 238.815L416.5 238.815L416.5 234.889L416 234.889L415.5 234.889L415.5 238.815L416 238.815ZM416 230.963L416.5 230.963L416.5 229L416 229L415.5 229L415.5 230.963L416 230.963Z" fill="white"/>
<path d="M432 292C432 287.582 435.582 284 440 284H684C688.418 284 692 287.582 692 292V315C692 319.418 688.418 323 684 323H440C435.582 323 432 319.418 432 315V292Z" fill="#E66A32" fill-opacity="0.25"/>
<text fill="white" style="white-space: pre" xml:space="preserve" font-family="Red Hat Mono" font-size="16" font-weight="600" letter-spacing="0em"><tspan x="514.031" y="309.204">User Input</tspan></text>
<path d="M432 406C432 401.582 435.582 398 440 398H684C688.418 398 692 401.582 692 406V429C692 433.418 688.418 437 684 437H440C435.582 437 432 433.418 432 429V406Z" fill="#E66A32" fill-opacity="0.25"/>
<text fill="white" style="white-space: pre" xml:space="preserve" font-family="Red Hat Mono" font-size="16" font-weight="600" letter-spacing="0em"><tspan x="514.031" y="423.204">User Input</tspan></text>
<path d="M432 355C432 350.582 435.582 347 440 347H684C688.418 347 692 350.582 692 355V378C692 382.418 688.418 386 684 386H440C435.582 386 432 382.418 432 378V355Z" fill="white" fill-opacity="0.2"/>
<text fill="white" style="white-space: pre" xml:space="preserve" font-family="Red Hat Mono" font-size="16" font-weight="600" letter-spacing="0em"><tspan x="475.656" y="372.204">Assistant Response</tspan></text>
<path d="M432 469C432 464.582 435.582 461 440 461H684C688.418 461 692 464.582 692 469V492C692 496.418 688.418 500 684 500H440C435.582 500 432 496.418 432 492V469Z" fill="white" fill-opacity="0.2"/>
<text fill="white" style="white-space: pre" xml:space="preserve" font-family="Red Hat Mono" font-size="16" font-weight="600" letter-spacing="0em"><tspan x="475.656" y="486.204">Assistant Response</tspan></text>
<path d="M432 241C432 236.582 435.582 233 440 233H684C688.418 233 692 236.582 692 241V264C692 268.418 688.418 272 684 272H440C435.582 272 432 268.418 432 264V241Z" fill="white" fill-opacity="0.2"/>
<text fill="white" style="white-space: pre" xml:space="preserve" font-family="Red Hat Mono" font-size="16" font-weight="600" letter-spacing="0em"><tspan x="499.641" y="258.204">System Prompt</tspan></text>
<path d="M764 292C764 287.582 767.582 284 772 284H1016C1020.42 284 1024 287.582 1024 292V315C1024 319.418 1020.42 323 1016 323H772C767.582 323 764 319.418 764 315V292Z" fill="white"/>
<text fill="#080808" style="white-space: pre" xml:space="preserve" font-family="Red Hat Mono" font-size="16" font-weight="600" letter-spacing="0em"><tspan x="879.609" y="309.204">LLM</tspan></text>
<path d="M764 406C764 401.582 767.582 398 772 398H1016C1020.42 398 1024 401.582 1024 406V429C1024 433.418 1020.42 437 1016 437H772C767.582 437 764 433.418 764 429V406Z" fill="white"/>
<text fill="#080808" style="white-space: pre" xml:space="preserve" font-family="Red Hat Mono" font-size="16" font-weight="600" letter-spacing="0em"><tspan x="879.609" y="423.204">LLM</tspan></text>
<path d="M691.293 366.293C690.902 366.683 690.902 367.317 691.293 367.707L697.657 374.071C698.047 374.462 698.681 374.462 699.071 374.071C699.462 373.681 699.462 373.047 699.071 372.657L693.414 367L699.071 361.343C699.462 360.953 699.462 360.319 699.071 359.929C698.681 359.538 698.047 359.538 697.657 359.929L691.293 366.293ZM893 323L892 323L892 359L893 359L894 359L894 323L893 323ZM885 367L885 366L692 366L692 367L692 368L885 368L885 367ZM893 359L892 359C892 362.866 888.866 366 885 366L885 367L885 368C889.971 368 894 363.971 894 359L893 359Z" fill="white"/>
<path d="M691.293 480.293C690.902 480.683 690.902 481.317 691.293 481.707L697.657 488.071C698.047 488.462 698.681 488.462 699.071 488.071C699.462 487.681 699.462 487.047 699.071 486.657L693.414 481L699.071 475.343C699.462 474.953 699.462 474.319 699.071 473.929C698.681 473.538 698.047 473.538 697.657 473.929L691.293 480.293ZM893 437L892 437L892 473L893 473L894 473L894 437L893 437ZM885 481L885 480L692 480L692 481L692 482L885 482L885 481ZM893 473L892 473C892 476.866 888.866 480 885 480L885 481L885 482C889.971 482 894 477.971 894 473L893 473Z" fill="white"/>
<path d="M764.707 309.707C765.098 309.317 765.098 308.683 764.707 308.293L758.343 301.929C757.953 301.538 757.319 301.538 756.929 301.929C756.538 302.319 756.538 302.953 756.929 303.343L762.586 309L756.929 314.657C756.538 315.047 756.538 315.681 756.929 316.071C757.319 316.462 757.953 316.462 758.343 316.071L764.707 309.707ZM764 309V308H708V309V310H764V309Z" fill="white"/>
<path d="M764.707 418.707C765.098 418.317 765.098 417.683 764.707 417.293L758.343 410.929C757.953 410.538 757.319 410.538 756.929 410.929C756.538 411.319 756.538 411.953 756.929 412.343L762.586 418L756.929 423.657C756.538 424.047 756.538 424.681 756.929 425.071C757.319 425.462 757.953 425.462 758.343 425.071L764.707 418.707ZM764 418V417H708V418V419H764V418Z" fill="white"/>
</g>
<defs>
<clipPath id="clip0_221_59">
<rect width="1440" height="720" fill="white"/>
</clipPath>
</defs>
</svg>
