<svg width="1440" height="720" viewBox="0 0 1440 720" fill="none" xmlns="http://www.w3.org/2000/svg">
<g clip-path="url(#clip0_221_132)">
<rect width="1440" height="720" fill="#080808"/>
<path d="M542 138C546.418 138 550 141.582 550 146L550 523C550 527.418 546.418 531 542 531L266 531C261.582 531 258 527.418 258 523L258 146C258 141.582 261.582 138 266 138L542 138Z" fill="white" fill-opacity="0.05"/>
<path d="M258 146L258.5 146C258.5 145.498 258.549 145.009 258.643 144.536L258.152 144.439L257.662 144.342C257.556 144.878 257.5 145.433 257.5 146L258 146ZM259.348 141.555L259.763 141.833C260.311 141.015 261.015 140.311 261.833 139.763L261.555 139.347L261.277 138.932C260.35 139.552 259.552 140.35 258.932 141.277L259.348 141.555ZM264.439 138.152L264.536 138.643C265.009 138.549 265.499 138.5 266 138.5L266 138L266 137.5C265.433 137.5 264.878 137.556 264.342 137.662L264.439 138.152ZM266 138L266 138.5L268.029 138.5L268.029 138L268.029 137.5L266 137.5L266 138ZM272.088 138L272.088 138.5L276.147 138.5L276.147 138L276.147 137.5L272.088 137.5L272.088 138ZM280.206 138L280.206 138.5L284.265 138.5L284.265 138L284.265 137.5L280.206 137.5L280.206 138ZM288.324 138L288.324 138.5L292.382 138.5L292.382 138L292.382 137.5L288.324 137.5L288.324 138ZM296.441 138L296.441 138.5L300.5 138.5L300.5 138L300.5 137.5L296.441 137.5L296.441 138ZM304.559 138L304.559 138.5L308.618 138.5L308.618 138L308.618 137.5L304.559 137.5L304.559 138ZM312.676 138L312.676 138.5L316.735 138.5L316.735 138L316.735 137.5L312.676 137.5L312.676 138ZM320.794 138L320.794 138.5L324.853 138.5L324.853 138L324.853 137.5L320.794 137.5L320.794 138ZM328.912 138L328.912 138.5L332.971 138.5L332.971 138L332.971 137.5L328.912 137.5L328.912 138ZM337.029 138L337.029 138.5L341.088 138.5L341.088 138L341.088 137.5L337.029 137.5L337.029 138ZM345.147 138L345.147 138.5L349.206 138.5L349.206 138L349.206 137.5L345.147 137.5L345.147 138ZM353.265 138L353.265 138.5L357.324 138.5L357.324 138L357.324 137.5L353.265 137.5L353.265 138ZM361.382 138L361.382 138.5L365.441 138.5L365.441 138L365.441 137.5L361.382 137.5L361.382 138ZM369.5 138L369.5 138.5L373.559 138.5L373.559 138L373.559 137.5L369.5 137.5L369.5 138ZM377.618 138L377.618 138.5L381.676 138.5L381.676 138L381.676 137.5L377.618 137.5L377.618 138ZM385.735 138L385.735 138.5L389.794 138.5L389.794 138L389.794 137.5L385.735 137.5L385.735 138ZM393.853 138L393.853 138.5L397.912 138.5L397.912 138L397.912 137.5L393.853 137.5L393.853 138ZM401.971 138L401.971 138.5L406.029 138.5L406.029 138L406.029 137.5L401.971 137.5L401.971 138ZM410.088 138L410.088 138.5L414.147 138.5L414.147 138L414.147 137.5L410.088 137.5L410.088 138ZM418.206 138L418.206 138.5L422.265 138.5L422.265 138L422.265 137.5L418.206 137.5L418.206 138ZM426.324 138L426.324 138.5L430.382 138.5L430.382 138L430.382 137.5L426.324 137.5L426.324 138ZM434.441 138L434.441 138.5L438.5 138.5L438.5 138L438.5 137.5L434.441 137.5L434.441 138ZM442.559 138L442.559 138.5L446.618 138.5L446.618 138L446.618 137.5L442.559 137.5L442.559 138ZM450.676 138L450.676 138.5L454.735 138.5L454.735 138L454.735 137.5L450.676 137.5L450.676 138ZM458.794 138L458.794 138.5L462.853 138.5L462.853 138L462.853 137.5L458.794 137.5L458.794 138ZM466.912 138L466.912 138.5L470.971 138.5L470.971 138L470.971 137.5L466.912 137.5L466.912 138ZM475.029 138L475.029 138.5L479.088 138.5L479.088 138L479.088 137.5L475.029 137.5L475.029 138ZM483.147 138L483.147 138.5L487.206 138.5L487.206 138L487.206 137.5L483.147 137.5L483.147 138ZM491.265 138L491.265 138.5L495.324 138.5L495.324 138L495.324 137.5L491.265 137.5L491.265 138ZM499.382 138L499.382 138.5L503.441 138.5L503.441 138L503.441 137.5L499.382 137.5L499.382 138ZM507.5 138L507.5 138.5L511.559 138.5L511.559 138L511.559 137.5L507.5 137.5L507.5 138ZM515.618 138L515.618 138.5L519.676 138.5L519.676 138L519.676 137.5L515.618 137.5L515.618 138ZM523.735 138L523.735 138.5L527.794 138.5L527.794 138L527.794 137.5L523.735 137.5L523.735 138ZM531.853 138L531.853 138.5L535.912 138.5L535.912 138L535.912 137.5L531.853 137.5L531.853 138ZM539.971 138L539.971 138.5L542 138.5L542 138L542 137.5L539.971 137.5L539.971 138ZM542 138L542 138.5C542.502 138.5 542.991 138.549 543.464 138.643L543.561 138.152L543.658 137.662C543.122 137.556 542.567 137.5 542 137.5L542 138ZM546.445 139.347L546.167 139.763C546.985 140.311 547.689 141.015 548.237 141.833L548.653 141.555L549.068 141.277C548.448 140.35 547.65 139.552 546.723 138.932L546.445 139.347ZM549.848 144.439L549.357 144.536C549.451 145.009 549.5 145.498 549.5 146L550 146L550.5 146C550.5 145.433 550.444 144.878 550.338 144.342L549.848 144.439ZM550 146L549.5 146L549.5 148.005L550 148.005L550.5 148.005L550.5 146L550 146ZM550 152.016L549.5 152.016L549.5 156.027L550 156.027L550.5 156.027L550.5 152.016L550 152.016ZM550 160.037L549.5 160.037L549.5 164.048L550 164.048L550.5 164.048L550.5 160.037L550 160.037ZM550 168.059L549.5 168.059L549.5 172.069L550 172.069L550.5 172.069L550.5 168.059L550 168.059ZM550 176.08L549.5 176.08L549.5 180.09L550 180.09L550.5 180.09L550.5 176.08L550 176.08ZM550 184.101L549.5 184.101L549.5 188.112L550 188.112L550.5 188.112L550.5 184.101L550 184.101ZM550 192.122L549.5 192.122L549.5 196.133L550 196.133L550.5 196.133L550.5 192.122L550 192.122ZM550 200.144L549.5 200.144L549.5 204.154L550 204.154L550.5 204.154L550.5 200.144L550 200.144ZM550 208.165L549.5 208.165L549.5 212.176L550 212.176L550.5 212.176L550.5 208.165L550 208.165ZM550 216.186L549.5 216.186L549.5 220.197L550 220.197L550.5 220.197L550.5 216.186L550 216.186ZM550 224.207L549.5 224.207L549.5 228.218L550 228.218L550.5 228.218L550.5 224.207L550 224.207ZM550 232.229L549.5 232.229L549.5 236.239L550 236.239L550.5 236.239L550.5 232.229L550 232.229ZM550 240.25L549.5 240.25L549.5 244.261L550 244.261L550.5 244.261L550.5 240.25L550 240.25ZM550 248.271L549.5 248.271L549.5 252.282L550 252.282L550.5 252.282L550.5 248.271L550 248.271ZM550 256.293L549.5 256.293L549.5 260.303L550 260.303L550.5 260.303L550.5 256.293L550 256.293ZM550 264.314L549.5 264.314L549.5 268.324L550 268.324L550.5 268.324L550.5 264.314L550 264.314ZM550 272.335L549.5 272.335L549.5 276.346L550 276.346L550.5 276.346L550.5 272.335L550 272.335ZM550 280.356L549.5 280.356L549.5 284.367L550 284.367L550.5 284.367L550.5 280.356L550 280.356ZM550 288.378L549.5 288.378L549.5 292.388L550 292.388L550.5 292.388L550.5 288.378L550 288.378ZM550 296.399L549.5 296.399L549.5 300.41L550 300.41L550.5 300.41L550.5 296.399L550 296.399ZM550 304.42L549.5 304.42L549.5 308.431L550 308.431L550.5 308.431L550.5 304.42L550 304.42ZM550 312.441L549.5 312.441L549.5 316.452L550 316.452L550.5 316.452L550.5 312.441L550 312.441ZM550 320.463L549.5 320.463L549.5 324.473L550 324.473L550.5 324.473L550.5 320.463L550 320.463ZM550 328.484L549.5 328.484L549.5 332.495L550 332.495L550.5 332.495L550.5 328.484L550 328.484ZM550 336.505L549.5 336.505L549.5 340.516L550 340.516L550.5 340.516L550.5 336.505L550 336.505ZM550 344.526L549.5 344.526L549.5 348.537L550 348.537L550.5 348.537L550.5 344.526L550 344.526ZM550 352.548L549.5 352.548L549.5 356.558L550 356.558L550.5 356.558L550.5 352.548L550 352.548ZM550 360.569L549.5 360.569L549.5 364.58L550 364.58L550.5 364.58L550.5 360.569L550 360.569ZM550 368.59L549.5 368.59L549.5 372.601L550 372.601L550.5 372.601L550.5 368.59L550 368.59ZM550 376.612L549.5 376.612L549.5 380.622L550 380.622L550.5 380.622L550.5 376.612L550 376.612ZM550 384.633L549.5 384.633L549.5 388.643L550 388.643L550.5 388.643L550.5 384.633L550 384.633ZM550 392.654L549.5 392.654L549.5 396.665L550 396.665L550.5 396.665L550.5 392.654L550 392.654ZM550 400.675L549.5 400.675L549.5 404.686L550 404.686L550.5 404.686L550.5 400.675L550 400.675ZM550 408.697L549.5 408.697L549.5 412.707L550 412.707L550.5 412.707L550.5 408.697L550 408.697ZM550 416.718L549.5 416.718L549.5 420.729L550 420.729L550.5 420.729L550.5 416.718L550 416.718ZM550 424.739L549.5 424.739L549.5 428.75L550 428.75L550.5 428.75L550.5 424.739L550 424.739ZM550 432.761L549.5 432.761L549.5 436.771L550 436.771L550.5 436.771L550.5 432.761L550 432.761ZM550 440.782L549.5 440.782L549.5 444.793L550 444.793L550.5 444.793L550.5 440.782L550 440.782ZM550 448.803L549.5 448.803L549.5 452.814L550 452.814L550.5 452.814L550.5 448.803L550 448.803ZM550 456.824L549.5 456.824L549.5 460.835L550 460.835L550.5 460.835L550.5 456.824L550 456.824ZM550 464.846L549.5 464.846L549.5 468.856L550 468.856L550.5 468.856L550.5 464.846L550 464.846ZM550 472.867L549.5 472.867L549.5 476.878L550 476.878L550.5 476.878L550.5 472.867L550 472.867ZM550 480.888L549.5 480.888L549.5 484.899L550 484.899L550.5 484.899L550.5 480.888L550 480.888ZM550 488.91L549.5 488.91L549.5 492.92L550 492.92L550.5 492.92L550.5 488.91L550 488.91ZM550 496.931L549.5 496.931L549.5 500.942L550 500.942L550.5 500.942L550.5 496.931L550 496.931ZM550 504.952L549.5 504.952L549.5 508.963L550 508.963L550.5 508.963L550.5 504.952L550 504.952ZM550 512.974L549.5 512.974L549.5 516.984L550 516.984L550.5 516.984L550.5 512.974L550 512.974ZM550 520.995L549.5 520.995L549.5 523L550 523L550.5 523L550.5 520.995L550 520.995ZM550 523L549.5 523C549.5 523.502 549.451 523.991 549.357 524.464L549.848 524.561L550.338 524.658C550.444 524.122 550.5 523.567 550.5 523L550 523ZM548.653 527.445L548.237 527.167C547.689 527.985 546.985 528.689 546.167 529.237L546.445 529.653L546.723 530.068C547.65 529.448 548.448 528.65 549.068 527.723L548.653 527.445ZM543.561 530.848L543.464 530.357C542.991 530.451 542.502 530.5 542 530.5L542 531L542 531.5C542.567 531.5 543.122 531.444 543.658 531.338L543.561 530.848ZM542 531L542 530.5L539.971 530.5L539.971 531L539.971 531.5L542 531.5L542 531ZM535.912 531L535.912 530.5L531.853 530.5L531.853 531L531.853 531.5L535.912 531.5L535.912 531ZM527.794 531L527.794 530.5L523.735 530.5L523.735 531L523.735 531.5L527.794 531.5L527.794 531ZM519.676 531L519.676 530.5L515.618 530.5L515.618 531L515.618 531.5L519.676 531.5L519.676 531ZM511.559 531L511.559 530.5L507.5 530.5L507.5 531L507.5 531.5L511.559 531.5L511.559 531ZM503.441 531L503.441 530.5L499.382 530.5L499.382 531L499.382 531.5L503.441 531.5L503.441 531ZM495.324 531L495.324 530.5L491.265 530.5L491.265 531L491.265 531.5L495.324 531.5L495.324 531ZM487.206 531L487.206 530.5L483.147 530.5L483.147 531L483.147 531.5L487.206 531.5L487.206 531ZM479.088 531L479.088 530.5L475.029 530.5L475.029 531L475.029 531.5L479.088 531.5L479.088 531ZM470.971 531L470.971 530.5L466.912 530.5L466.912 531L466.912 531.5L470.971 531.5L470.971 531ZM462.853 531L462.853 530.5L458.794 530.5L458.794 531L458.794 531.5L462.853 531.5L462.853 531ZM454.735 531L454.735 530.5L450.676 530.5L450.676 531L450.676 531.5L454.735 531.5L454.735 531ZM446.618 531L446.618 530.5L442.559 530.5L442.559 531L442.559 531.5L446.618 531.5L446.618 531ZM438.5 531L438.5 530.5L434.441 530.5L434.441 531L434.441 531.5L438.5 531.5L438.5 531ZM430.382 531L430.382 530.5L426.324 530.5L426.324 531L426.324 531.5L430.382 531.5L430.382 531ZM422.265 531L422.265 530.5L418.206 530.5L418.206 531L418.206 531.5L422.265 531.5L422.265 531ZM414.147 531L414.147 530.5L410.088 530.5L410.088 531L410.088 531.5L414.147 531.5L414.147 531ZM406.029 531L406.029 530.5L401.971 530.5L401.971 531L401.971 531.5L406.029 531.5L406.029 531ZM397.912 531L397.912 530.5L393.853 530.5L393.853 531L393.853 531.5L397.912 531.5L397.912 531ZM389.794 531L389.794 530.5L385.735 530.5L385.735 531L385.735 531.5L389.794 531.5L389.794 531ZM381.676 531L381.676 530.5L377.618 530.5L377.618 531L377.618 531.5L381.676 531.5L381.676 531ZM373.559 531L373.559 530.5L369.5 530.5L369.5 531L369.5 531.5L373.559 531.5L373.559 531ZM365.441 531L365.441 530.5L361.382 530.5L361.382 531L361.382 531.5L365.441 531.5L365.441 531ZM357.324 531L357.324 530.5L353.265 530.5L353.265 531L353.265 531.5L357.324 531.5L357.324 531ZM349.206 531L349.206 530.5L345.147 530.5L345.147 531L345.147 531.5L349.206 531.5L349.206 531ZM341.088 531L341.088 530.5L337.029 530.5L337.029 531L337.029 531.5L341.088 531.5L341.088 531ZM332.971 531L332.971 530.5L328.912 530.5L328.912 531L328.912 531.5L332.971 531.5L332.971 531ZM324.853 531L324.853 530.5L320.794 530.5L320.794 531L320.794 531.5L324.853 531.5L324.853 531ZM316.735 531L316.735 530.5L312.676 530.5L312.676 531L312.676 531.5L316.735 531.5L316.735 531ZM308.618 531L308.618 530.5L304.559 530.5L304.559 531L304.559 531.5L308.618 531.5L308.618 531ZM300.5 531L300.5 530.5L296.441 530.5L296.441 531L296.441 531.5L300.5 531.5L300.5 531ZM292.382 531L292.382 530.5L288.324 530.5L288.324 531L288.324 531.5L292.382 531.5L292.382 531ZM284.265 531L284.265 530.5L280.206 530.5L280.206 531L280.206 531.5L284.265 531.5L284.265 531ZM276.147 531L276.147 530.5L272.088 530.5L272.088 531L272.088 531.5L276.147 531.5L276.147 531ZM268.029 531L268.029 530.5L266 530.5L266 531L266 531.5L268.029 531.5L268.029 531ZM266 531L266 530.5C265.498 530.5 265.009 530.451 264.536 530.357L264.439 530.848L264.342 531.338C264.878 531.444 265.433 531.5 266 531.5L266 531ZM261.555 529.653L261.833 529.237C261.015 528.689 260.311 527.985 259.763 527.167L259.347 527.445L258.932 527.723C259.552 528.65 260.35 529.448 261.277 530.068L261.555 529.653ZM258.152 524.561L258.643 524.464C258.549 523.991 258.5 523.502 258.5 523L258 523L257.5 523C257.5 523.567 257.556 524.122 257.662 524.658L258.152 524.561ZM258 523L258.5 523L258.5 520.995L258 520.995L257.5 520.995L257.5 523L258 523ZM258 516.984L258.5 516.984L258.5 512.973L258 512.973L257.5 512.973L257.5 516.984L258 516.984ZM258 508.963L258.5 508.963L258.5 504.952L258 504.952L257.5 504.952L257.5 508.963L258 508.963ZM258 500.941L258.5 500.941L258.5 496.931L258 496.931L257.5 496.931L257.5 500.941L258 500.941ZM258 492.92L258.5 492.92L258.5 488.91L258 488.91L257.5 488.91L257.5 492.92L258 492.92ZM258 484.899L258.5 484.899L258.5 480.888L258 480.888L257.5 480.888L257.5 484.899L258 484.899ZM258 476.878L258.5 476.878L258.5 472.867L258 472.867L257.5 472.867L257.5 476.878L258 476.878ZM258 468.856L258.5 468.856L258.5 464.846L258 464.846L257.5 464.846L257.5 468.856L258 468.856ZM258 460.835L258.5 460.835L258.5 456.824L258 456.824L257.5 456.824L257.5 460.835L258 460.835ZM258 452.814L258.5 452.814L258.5 448.803L258 448.803L257.5 448.803L257.5 452.814L258 452.814ZM258 444.793L258.5 444.793L258.5 440.782L258 440.782L257.5 440.782L257.5 444.793L258 444.793ZM258 436.771L258.5 436.771L258.5 432.761L258 432.761L257.5 432.761L257.5 436.771L258 436.771ZM258 428.75L258.5 428.75L258.5 424.739L258 424.739L257.5 424.739L257.5 428.75L258 428.75ZM258 420.729L258.5 420.729L258.5 416.718L258 416.718L257.5 416.718L257.5 420.729L258 420.729ZM258 412.707L258.5 412.707L258.5 408.697L258 408.697L257.5 408.697L257.5 412.707L258 412.707ZM258 404.686L258.5 404.686L258.5 400.676L258 400.676L257.5 400.676L257.5 404.686L258 404.686ZM258 396.665L258.5 396.665L258.5 392.654L258 392.654L257.5 392.654L257.5 396.665L258 396.665ZM258 388.644L258.5 388.644L258.5 384.633L258 384.633L257.5 384.633L257.5 388.644L258 388.644ZM258 380.622L258.5 380.622L258.5 376.612L258 376.612L257.5 376.612L257.5 380.622L258 380.622ZM258 372.601L258.5 372.601L258.5 368.59L258 368.59L257.5 368.59L257.5 372.601L258 372.601ZM258 364.58L258.5 364.58L258.5 360.569L258 360.569L257.5 360.569L257.5 364.58L258 364.58ZM258 356.559L258.5 356.559L258.5 352.548L258 352.548L257.5 352.548L257.5 356.559L258 356.559ZM258 348.537L258.5 348.537L258.5 344.527L258 344.527L257.5 344.527L257.5 348.537L258 348.537ZM258 340.516L258.5 340.516L258.5 336.505L258 336.505L257.5 336.505L257.5 340.516L258 340.516ZM258 332.495L258.5 332.495L258.5 328.484L258 328.484L257.5 328.484L257.5 332.495L258 332.495ZM258 324.473L258.5 324.473L258.5 320.463L258 320.463L257.5 320.463L257.5 324.473L258 324.473ZM258 316.452L258.5 316.452L258.5 312.442L258 312.442L257.5 312.442L257.5 316.452L258 316.452ZM258 308.431L258.5 308.431L258.5 304.42L258 304.42L257.5 304.42L257.5 308.431L258 308.431ZM258 300.41L258.5 300.41L258.5 296.399L258 296.399L257.5 296.399L257.5 300.41L258 300.41ZM258 292.388L258.5 292.388L258.5 288.378L258 288.378L257.5 288.378L257.5 292.388L258 292.388ZM258 284.367L258.5 284.367L258.5 280.356L258 280.356L257.5 280.356L257.5 284.367L258 284.367ZM258 276.346L258.5 276.346L258.5 272.335L258 272.335L257.5 272.335L257.5 276.346L258 276.346ZM258 268.325L258.5 268.325L258.5 264.314L258 264.314L257.5 264.314L257.5 268.325L258 268.325ZM258 260.303L258.5 260.303L258.5 256.293L258 256.293L257.5 256.293L257.5 260.303L258 260.303ZM258 252.282L258.5 252.282L258.5 248.271L258 248.271L257.5 248.271L257.5 252.282L258 252.282ZM258 244.261L258.5 244.261L258.5 240.25L258 240.25L257.5 240.25L257.5 244.261L258 244.261ZM258 236.239L258.5 236.239L258.5 232.229L258 232.229L257.5 232.229L257.5 236.239L258 236.239ZM258 228.218L258.5 228.218L258.5 224.207L258 224.207L257.5 224.207L257.5 228.218L258 228.218ZM258 220.197L258.5 220.197L258.5 216.186L258 216.186L257.5 216.186L257.5 220.197L258 220.197ZM258 212.176L258.5 212.176L258.5 208.165L258 208.165L257.5 208.165L257.5 212.176L258 212.176ZM258 204.154L258.5 204.154L258.5 200.144L258 200.144L257.5 200.144L257.5 204.154L258 204.154ZM258 196.133L258.5 196.133L258.5 192.122L258 192.122L257.5 192.122L257.5 196.133L258 196.133ZM258 188.112L258.5 188.112L258.5 184.101L258 184.101L257.5 184.101L257.5 188.112L258 188.112ZM258 180.09L258.5 180.09L258.5 176.08L258 176.08L257.5 176.08L257.5 180.09L258 180.09ZM258 172.069L258.5 172.069L258.5 168.058L258 168.058L257.5 168.058L257.5 172.069L258 172.069ZM258 164.048L258.5 164.048L258.5 160.037L258 160.037L257.5 160.037L257.5 164.048L258 164.048ZM258 156.026L258.5 156.026L258.5 152.016L258 152.016L257.5 152.016L257.5 156.026L258 156.026ZM258 148.005L258.5 148.005L258.5 146L258 146L257.5 146L257.5 148.005L258 148.005Z" fill="white"/>
<path d="M542 138C546.418 138 550 141.582 550 146L550 409C550 413.418 546.418 417 542 417L266 417C261.582 417 258 413.418 258 409L258 146C258 141.582 261.582 138 266 138L542 138Z" fill="white" fill-opacity="0.05"/>
<path d="M258 146L258.5 146C258.5 145.498 258.549 145.009 258.643 144.536L258.152 144.439L257.662 144.342C257.556 144.878 257.5 145.433 257.5 146L258 146ZM259.347 141.555L259.763 141.833C260.311 141.015 261.015 140.311 261.833 139.763L261.555 139.347L261.277 138.932C260.35 139.552 259.552 140.35 258.932 141.277L259.347 141.555ZM264.439 138.152L264.536 138.643C265.009 138.549 265.498 138.5 266 138.5L266 138L266 137.5C265.433 137.5 264.878 137.556 264.342 137.662L264.439 138.152ZM266 138L266 138.5L267.971 138.5L267.971 138L267.971 137.5L266 137.5L266 138ZM271.914 138L271.914 138.5L275.857 138.5L275.857 138L275.857 137.5L271.914 137.5L271.914 138ZM279.8 138L279.8 138.5L283.743 138.5L283.743 138L283.743 137.5L279.8 137.5L279.8 138ZM287.686 138L287.686 138.5L291.629 138.5L291.629 138L291.629 137.5L287.686 137.5L287.686 138ZM295.571 138L295.571 138.5L299.514 138.5L299.514 138L299.514 137.5L295.571 137.5L295.571 138ZM303.457 138L303.457 138.5L307.4 138.5L307.4 138L307.4 137.5L303.457 137.5L303.457 138ZM311.343 138L311.343 138.5L315.286 138.5L315.286 138L315.286 137.5L311.343 137.5L311.343 138ZM319.229 138L319.229 138.5L323.171 138.5L323.171 138L323.171 137.5L319.229 137.5L319.229 138ZM327.114 138L327.114 138.5L331.057 138.5L331.057 138L331.057 137.5L327.114 137.5L327.114 138ZM335 138L335 138.5L338.943 138.5L338.943 138L338.943 137.5L335 137.5L335 138ZM342.886 138L342.886 138.5L346.829 138.5L346.829 138L346.829 137.5L342.886 137.5L342.886 138ZM350.771 138L350.771 138.5L354.714 138.5L354.714 138L354.714 137.5L350.771 137.5L350.771 138ZM358.657 138L358.657 138.5L362.6 138.5L362.6 138L362.6 137.5L358.657 137.5L358.657 138ZM366.543 138L366.543 138.5L370.486 138.5L370.486 138L370.486 137.5L366.543 137.5L366.543 138ZM374.429 138L374.429 138.5L378.371 138.5L378.371 138L378.371 137.5L374.429 137.5L374.429 138ZM382.314 138L382.314 138.5L386.257 138.5L386.257 138L386.257 137.5L382.314 137.5L382.314 138ZM390.2 138L390.2 138.5L394.143 138.5L394.143 138L394.143 137.5L390.2 137.5L390.2 138ZM398.086 138L398.086 138.5L402.029 138.5L402.029 138L402.029 137.5L398.086 137.5L398.086 138ZM405.971 138L405.971 138.5L409.914 138.5L409.914 138L409.914 137.5L405.971 137.5L405.971 138ZM413.857 138L413.857 138.5L417.8 138.5L417.8 138L417.8 137.5L413.857 137.5L413.857 138ZM421.743 138L421.743 138.5L425.686 138.5L425.686 138L425.686 137.5L421.743 137.5L421.743 138ZM429.629 138L429.629 138.5L433.571 138.5L433.571 138L433.571 137.5L429.629 137.5L429.629 138ZM437.514 138L437.514 138.5L441.457 138.5L441.457 138L441.457 137.5L437.514 137.5L437.514 138ZM445.4 138L445.4 138.5L449.343 138.5L449.343 138L449.343 137.5L445.4 137.5L445.4 138ZM453.286 138L453.286 138.5L457.229 138.5L457.229 138L457.229 137.5L453.286 137.5L453.286 138ZM461.171 138L461.171 138.5L465.114 138.5L465.114 138L465.114 137.5L461.171 137.5L461.171 138ZM469.057 138L469.057 138.5L473 138.5L473 138L473 137.5L469.057 137.5L469.057 138ZM476.943 138L476.943 138.5L480.886 138.5L480.886 138L480.886 137.5L476.943 137.5L476.943 138ZM484.829 138L484.829 138.5L488.771 138.5L488.771 138L488.771 137.5L484.829 137.5L484.829 138ZM492.714 138L492.714 138.5L496.657 138.5L496.657 138L496.657 137.5L492.714 137.5L492.714 138ZM500.6 138L500.6 138.5L504.543 138.5L504.543 138L504.543 137.5L500.6 137.5L500.6 138ZM508.486 138L508.486 138.5L512.429 138.5L512.429 138L512.429 137.5L508.486 137.5L508.486 138ZM516.371 138L516.371 138.5L520.314 138.5L520.314 138L520.314 137.5L516.371 137.5L516.371 138ZM524.257 138L524.257 138.5L528.2 138.5L528.2 138L528.2 137.5L524.257 137.5L524.257 138ZM532.143 138L532.143 138.5L536.086 138.5L536.086 138L536.086 137.5L532.143 137.5L532.143 138ZM540.029 138L540.029 138.5L542 138.5L542 138L542 137.5L540.029 137.5L540.029 138ZM542 138L542 138.5C542.502 138.5 542.991 138.549 543.464 138.643L543.561 138.152L543.658 137.662C543.122 137.556 542.567 137.5 542 137.5L542 138ZM546.445 139.347L546.167 139.763C546.985 140.311 547.689 141.015 548.237 141.833L548.653 141.555L549.068 141.277C548.448 140.35 547.65 139.552 546.723 138.932L546.445 139.347ZM549.848 144.439L549.357 144.536C549.451 145.009 549.5 145.498 549.5 146L550 146L550.5 146C550.5 145.433 550.444 144.878 550.338 144.342L549.848 144.439ZM550 146L549.5 146L549.5 147.992L550 147.992L550.5 147.992L550.5 146L550 146ZM550 151.977L549.5 151.977L549.5 155.962L550 155.962L550.5 155.962L550.5 151.977L550 151.977ZM550 159.947L549.5 159.947L549.5 163.932L550 163.932L550.5 163.932L550.5 159.947L550 159.947ZM550 167.917L549.5 167.917L549.5 171.902L550 171.902L550.5 171.902L550.5 167.917L550 167.917ZM550 175.886L549.5 175.886L549.5 179.871L550 179.871L550.5 179.871L550.5 175.886L550 175.886ZM550 183.856L549.5 183.856L549.5 187.841L550 187.841L550.5 187.841L550.5 183.856L550 183.856ZM550 191.826L549.5 191.826L549.5 195.811L550 195.811L550.5 195.811L550.5 191.826L550 191.826ZM550 199.795L549.5 199.795L549.5 203.78L550 203.78L550.5 203.78L550.5 199.795L550 199.795ZM550 207.765L549.5 207.765L549.5 211.75L550 211.75L550.5 211.75L550.5 207.765L550 207.765ZM550 215.735L549.5 215.735L549.5 219.72L550 219.72L550.5 219.72L550.5 215.735L550 215.735ZM550 223.705L549.5 223.705L549.5 227.689L550 227.689L550.5 227.689L550.5 223.705L550 223.705ZM550 231.674L549.5 231.674L549.5 235.659L550 235.659L550.5 235.659L550.5 231.674L550 231.674ZM550 239.644L549.5 239.644L549.5 243.629L550 243.629L550.5 243.629L550.5 239.644L550 239.644ZM550 247.614L549.5 247.614L549.5 251.598L550 251.598L550.5 251.598L550.5 247.614L550 247.614ZM550 255.583L549.5 255.583L549.5 259.568L550 259.568L550.5 259.568L550.5 255.583L550 255.583ZM550 263.553L549.5 263.553L549.5 267.538L550 267.538L550.5 267.538L550.5 263.553L550 263.553ZM550 271.523L549.5 271.523L549.5 275.508L550 275.508L550.5 275.508L550.5 271.523L550 271.523ZM550 279.492L549.5 279.492L549.5 283.477L550 283.477L550.5 283.477L550.5 279.492L550 279.492ZM550 287.462L549.5 287.462L549.5 291.447L550 291.447L550.5 291.447L550.5 287.462L550 287.462ZM550 295.432L549.5 295.432L549.5 299.417L550 299.417L550.5 299.417L550.5 295.432L550 295.432ZM550 303.402L549.5 303.402L549.5 307.386L550 307.386L550.5 307.386L550.5 303.402L550 303.402ZM550 311.371L549.5 311.371L549.5 315.356L550 315.356L550.5 315.356L550.5 311.371L550 311.371ZM550 319.341L549.5 319.341L549.5 323.326L550 323.326L550.5 323.326L550.5 319.341L550 319.341ZM550 327.311L549.5 327.311L549.5 331.295L550 331.295L550.5 331.295L550.5 327.311L550 327.311ZM550 335.28L549.5 335.28L549.5 339.265L550 339.265L550.5 339.265L550.5 335.28L550 335.28ZM550 343.25L549.5 343.25L549.5 347.235L550 347.235L550.5 347.235L550.5 343.25L550 343.25ZM550 351.22L549.5 351.22L549.5 355.205L550 355.205L550.5 355.205L550.5 351.22L550 351.22ZM550 359.189L549.5 359.189L549.5 363.174L550 363.174L550.5 363.174L550.5 359.189L550 359.189ZM550 367.159L549.5 367.159L549.5 371.144L550 371.144L550.5 371.144L550.5 367.159L550 367.159ZM550 375.129L549.5 375.129L549.5 379.114L550 379.114L550.5 379.114L550.5 375.129L550 375.129ZM550 383.098L549.5 383.098L549.5 387.083L550 387.083L550.5 387.083L550.5 383.098L550 383.098ZM550 391.068L549.5 391.068L549.5 395.053L550 395.053L550.5 395.053L550.5 391.068L550 391.068ZM550 399.038L549.5 399.038L549.5 403.023L550 403.023L550.5 403.023L550.5 399.038L550 399.038ZM550 407.008L549.5 407.008L549.5 409L550 409L550.5 409L550.5 407.008L550 407.008ZM550 409L549.5 409C549.5 409.502 549.451 409.991 549.357 410.464L549.848 410.561L550.338 410.658C550.444 410.122 550.5 409.567 550.5 409L550 409ZM548.653 413.445L548.237 413.167C547.689 413.985 546.985 414.689 546.167 415.237L546.445 415.653L546.723 416.068C547.65 415.448 548.448 414.65 549.068 413.723L548.653 413.445ZM543.561 416.848L543.464 416.357C542.991 416.451 542.502 416.5 542 416.5L542 417L542 417.5C542.567 417.5 543.122 417.444 543.658 417.338L543.561 416.848ZM542 417L542 416.5L540.029 416.5L540.029 417L540.029 417.5L542 417.5L542 417ZM536.086 417L536.086 416.5L532.143 416.5L532.143 417L532.143 417.5L536.086 417.5L536.086 417ZM528.2 417L528.2 416.5L524.257 416.5L524.257 417L524.257 417.5L528.2 417.5L528.2 417ZM520.314 417L520.314 416.5L516.371 416.5L516.371 417L516.371 417.5L520.314 417.5L520.314 417ZM512.429 417L512.429 416.5L508.486 416.5L508.486 417L508.486 417.5L512.429 417.5L512.429 417ZM504.543 417L504.543 416.5L500.6 416.5L500.6 417L500.6 417.5L504.543 417.5L504.543 417ZM496.657 417L496.657 416.5L492.714 416.5L492.714 417L492.714 417.5L496.657 417.5L496.657 417ZM488.771 417L488.771 416.5L484.829 416.5L484.829 417L484.829 417.5L488.771 417.5L488.771 417ZM480.886 417L480.886 416.5L476.943 416.5L476.943 417L476.943 417.5L480.886 417.5L480.886 417ZM473 417L473 416.5L469.057 416.5L469.057 417L469.057 417.5L473 417.5L473 417ZM465.114 417L465.114 416.5L461.171 416.5L461.171 417L461.171 417.5L465.114 417.5L465.114 417ZM457.229 417L457.229 416.5L453.286 416.5L453.286 417L453.286 417.5L457.229 417.5L457.229 417ZM449.343 417L449.343 416.5L445.4 416.5L445.4 417L445.4 417.5L449.343 417.5L449.343 417ZM441.457 417L441.457 416.5L437.514 416.5L437.514 417L437.514 417.5L441.457 417.5L441.457 417ZM433.571 417L433.571 416.5L429.629 416.5L429.629 417L429.629 417.5L433.571 417.5L433.571 417ZM425.686 417L425.686 416.5L421.743 416.5L421.743 417L421.743 417.5L425.686 417.5L425.686 417ZM417.8 417L417.8 416.5L413.857 416.5L413.857 417L413.857 417.5L417.8 417.5L417.8 417ZM409.914 417L409.914 416.5L405.971 416.5L405.971 417L405.971 417.5L409.914 417.5L409.914 417ZM402.029 417L402.029 416.5L398.086 416.5L398.086 417L398.086 417.5L402.029 417.5L402.029 417ZM394.143 417L394.143 416.5L390.2 416.5L390.2 417L390.2 417.5L394.143 417.5L394.143 417ZM386.257 417L386.257 416.5L382.314 416.5L382.314 417L382.314 417.5L386.257 417.5L386.257 417ZM378.371 417L378.371 416.5L374.429 416.5L374.429 417L374.429 417.5L378.371 417.5L378.371 417ZM370.486 417L370.486 416.5L366.543 416.5L366.543 417L366.543 417.5L370.486 417.5L370.486 417ZM362.6 417L362.6 416.5L358.657 416.5L358.657 417L358.657 417.5L362.6 417.5L362.6 417ZM354.714 417L354.714 416.5L350.771 416.5L350.771 417L350.771 417.5L354.714 417.5L354.714 417ZM346.829 417L346.829 416.5L342.886 416.5L342.886 417L342.886 417.5L346.829 417.5L346.829 417ZM338.943 417L338.943 416.5L335 416.5L335 417L335 417.5L338.943 417.5L338.943 417ZM331.057 417L331.057 416.5L327.114 416.5L327.114 417L327.114 417.5L331.057 417.5L331.057 417ZM323.171 417L323.171 416.5L319.229 416.5L319.229 417L319.229 417.5L323.171 417.5L323.171 417ZM315.286 417L315.286 416.5L311.343 416.5L311.343 417L311.343 417.5L315.286 417.5L315.286 417ZM307.4 417L307.4 416.5L303.457 416.5L303.457 417L303.457 417.5L307.4 417.5L307.4 417ZM299.514 417L299.514 416.5L295.571 416.5L295.571 417L295.571 417.5L299.514 417.5L299.514 417ZM291.629 417L291.629 416.5L287.686 416.5L287.686 417L287.686 417.5L291.629 417.5L291.629 417ZM283.743 417L283.743 416.5L279.8 416.5L279.8 417L279.8 417.5L283.743 417.5L283.743 417ZM275.857 417L275.857 416.5L271.914 416.5L271.914 417L271.914 417.5L275.857 417.5L275.857 417ZM267.971 417L267.971 416.5L266 416.5L266 417L266 417.5L267.971 417.5L267.971 417ZM266 417L266 416.5C265.498 416.5 265.009 416.451 264.536 416.357L264.439 416.848L264.342 417.338C264.878 417.444 265.433 417.5 266 417.5L266 417ZM261.555 415.653L261.833 415.237C261.015 414.689 260.311 413.985 259.763 413.167L259.347 413.445L258.932 413.723C259.552 414.65 260.35 415.448 261.277 416.068L261.555 415.653ZM258.152 410.561L258.643 410.464C258.549 409.991 258.5 409.502 258.5 409L258 409L257.5 409C257.5 409.567 257.556 410.122 257.662 410.658L258.152 410.561ZM258 409L258.5 409L258.5 407.008L258 407.008L257.5 407.008L257.5 409L258 409ZM258 403.023L258.5 403.023L258.5 399.038L258 399.038L257.5 399.038L257.5 403.023L258 403.023ZM258 395.053L258.5 395.053L258.5 391.068L258 391.068L257.5 391.068L257.5 395.053L258 395.053ZM258 387.083L258.5 387.083L258.5 383.098L258 383.098L257.5 383.098L257.5 387.083L258 387.083ZM258 379.114L258.5 379.114L258.5 375.129L258 375.129L257.5 375.129L257.5 379.114L258 379.114ZM258 371.144L258.5 371.144L258.5 367.159L258 367.159L257.5 367.159L257.5 371.144L258 371.144ZM258 363.174L258.5 363.174L258.5 359.189L258 359.189L257.5 359.189L257.5 363.174L258 363.174ZM258 355.205L258.5 355.205L258.5 351.22L258 351.22L257.5 351.22L257.5 355.205L258 355.205ZM258 347.235L258.5 347.235L258.5 343.25L258 343.25L257.5 343.25L257.5 347.235L258 347.235ZM258 339.265L258.5 339.265L258.5 335.28L258 335.28L257.5 335.28L257.5 339.265L258 339.265ZM258 331.295L258.5 331.295L258.5 327.311L258 327.311L257.5 327.311L257.5 331.295L258 331.295ZM258 323.326L258.5 323.326L258.5 319.341L258 319.341L257.5 319.341L257.5 323.326L258 323.326ZM258 315.356L258.5 315.356L258.5 311.371L258 311.371L257.5 311.371L257.5 315.356L258 315.356ZM258 307.386L258.5 307.386L258.5 303.402L258 303.402L257.5 303.402L257.5 307.386L258 307.386ZM258 299.417L258.5 299.417L258.5 295.432L258 295.432L257.5 295.432L257.5 299.417L258 299.417ZM258 291.447L258.5 291.447L258.5 287.462L258 287.462L257.5 287.462L257.5 291.447L258 291.447ZM258 283.477L258.5 283.477L258.5 279.492L258 279.492L257.5 279.492L257.5 283.477L258 283.477ZM258 275.508L258.5 275.508L258.5 271.523L258 271.523L257.5 271.523L257.5 275.508L258 275.508ZM258 267.538L258.5 267.538L258.5 263.553L258 263.553L257.5 263.553L257.5 267.538L258 267.538ZM258 259.568L258.5 259.568L258.5 255.583L258 255.583L257.5 255.583L257.5 259.568L258 259.568ZM258 251.598L258.5 251.598L258.5 247.614L258 247.614L257.5 247.614L257.5 251.598L258 251.598ZM258 243.629L258.5 243.629L258.5 239.644L258 239.644L257.5 239.644L257.5 243.629L258 243.629ZM258 235.659L258.5 235.659L258.5 231.674L258 231.674L257.5 231.674L257.5 235.659L258 235.659ZM258 227.689L258.5 227.689L258.5 223.705L258 223.705L257.5 223.705L257.5 227.689L258 227.689ZM258 219.72L258.5 219.72L258.5 215.735L258 215.735L257.5 215.735L257.5 219.72L258 219.72ZM258 211.75L258.5 211.75L258.5 207.765L258 207.765L257.5 207.765L257.5 211.75L258 211.75ZM258 203.78L258.5 203.78L258.5 199.795L258 199.795L257.5 199.795L257.5 203.78L258 203.78ZM258 195.811L258.5 195.811L258.5 191.826L258 191.826L257.5 191.826L257.5 195.811L258 195.811ZM258 187.841L258.5 187.841L258.5 183.856L258 183.856L257.5 183.856L257.5 187.841L258 187.841ZM258 179.871L258.5 179.871L258.5 175.886L258 175.886L257.5 175.886L257.5 179.871L258 179.871ZM258 171.902L258.5 171.902L258.5 167.917L258 167.917L257.5 167.917L257.5 171.902L258 171.902ZM258 163.932L258.5 163.932L258.5 159.947L258 159.947L257.5 159.947L257.5 163.932L258 163.932ZM258 155.962L258.5 155.962L258.5 151.977L258 151.977L257.5 151.977L257.5 155.962L258 155.962ZM258 147.992L258.5 147.992L258.5 146L258 146L257.5 146L257.5 147.992L258 147.992Z" fill="white"/>
<path d="M542 138C546.418 138 550 141.582 550 146L550 295C550 299.418 546.418 303 542 303L266 303C261.582 303 258 299.418 258 295L258 146C258 141.582 261.582 138 266 138L542 138Z" fill="white" fill-opacity="0.05"/>
<path d="M258 146L258.5 146C258.5 145.498 258.549 145.009 258.643 144.536L258.152 144.439L257.662 144.342C257.556 144.878 257.5 145.433 257.5 146L258 146ZM259.347 141.555L259.763 141.833C260.311 141.015 261.015 140.311 261.833 139.763L261.555 139.347L261.277 138.932C260.35 139.552 259.552 140.35 258.932 141.277L259.347 141.555ZM264.439 138.152L264.536 138.643C265.009 138.549 265.498 138.5 266 138.5L266 138L266 137.5C265.433 137.5 264.878 137.556 264.342 137.662L264.439 138.152ZM266 138L266 138.5L267.971 138.5L267.971 138L267.971 137.5L266 137.5L266 138ZM271.914 138L271.914 138.5L275.857 138.5L275.857 138L275.857 137.5L271.914 137.5L271.914 138ZM279.8 138L279.8 138.5L283.743 138.5L283.743 138L283.743 137.5L279.8 137.5L279.8 138ZM287.686 138L287.686 138.5L291.629 138.5L291.629 138L291.629 137.5L287.686 137.5L287.686 138ZM295.571 138L295.571 138.5L299.514 138.5L299.514 138L299.514 137.5L295.571 137.5L295.571 138ZM303.457 138L303.457 138.5L307.4 138.5L307.4 138L307.4 137.5L303.457 137.5L303.457 138ZM311.343 138L311.343 138.5L315.286 138.5L315.286 138L315.286 137.5L311.343 137.5L311.343 138ZM319.229 138L319.229 138.5L323.171 138.5L323.171 138L323.171 137.5L319.229 137.5L319.229 138ZM327.114 138L327.114 138.5L331.057 138.5L331.057 138L331.057 137.5L327.114 137.5L327.114 138ZM335 138L335 138.5L338.943 138.5L338.943 138L338.943 137.5L335 137.5L335 138ZM342.886 138L342.886 138.5L346.829 138.5L346.829 138L346.829 137.5L342.886 137.5L342.886 138ZM350.771 138L350.771 138.5L354.714 138.5L354.714 138L354.714 137.5L350.771 137.5L350.771 138ZM358.657 138L358.657 138.5L362.6 138.5L362.6 138L362.6 137.5L358.657 137.5L358.657 138ZM366.543 138L366.543 138.5L370.486 138.5L370.486 138L370.486 137.5L366.543 137.5L366.543 138ZM374.429 138L374.429 138.5L378.371 138.5L378.371 138L378.371 137.5L374.429 137.5L374.429 138ZM382.314 138L382.314 138.5L386.257 138.5L386.257 138L386.257 137.5L382.314 137.5L382.314 138ZM390.2 138L390.2 138.5L394.143 138.5L394.143 138L394.143 137.5L390.2 137.5L390.2 138ZM398.086 138L398.086 138.5L402.029 138.5L402.029 138L402.029 137.5L398.086 137.5L398.086 138ZM405.971 138L405.971 138.5L409.914 138.5L409.914 138L409.914 137.5L405.971 137.5L405.971 138ZM413.857 138L413.857 138.5L417.8 138.5L417.8 138L417.8 137.5L413.857 137.5L413.857 138ZM421.743 138L421.743 138.5L425.686 138.5L425.686 138L425.686 137.5L421.743 137.5L421.743 138ZM429.629 138L429.629 138.5L433.571 138.5L433.571 138L433.571 137.5L429.629 137.5L429.629 138ZM437.514 138L437.514 138.5L441.457 138.5L441.457 138L441.457 137.5L437.514 137.5L437.514 138ZM445.4 138L445.4 138.5L449.343 138.5L449.343 138L449.343 137.5L445.4 137.5L445.4 138ZM453.286 138L453.286 138.5L457.229 138.5L457.229 138L457.229 137.5L453.286 137.5L453.286 138ZM461.171 138L461.171 138.5L465.114 138.5L465.114 138L465.114 137.5L461.171 137.5L461.171 138ZM469.057 138L469.057 138.5L473 138.5L473 138L473 137.5L469.057 137.5L469.057 138ZM476.943 138L476.943 138.5L480.886 138.5L480.886 138L480.886 137.5L476.943 137.5L476.943 138ZM484.829 138L484.829 138.5L488.771 138.5L488.771 138L488.771 137.5L484.829 137.5L484.829 138ZM492.714 138L492.714 138.5L496.657 138.5L496.657 138L496.657 137.5L492.714 137.5L492.714 138ZM500.6 138L500.6 138.5L504.543 138.5L504.543 138L504.543 137.5L500.6 137.5L500.6 138ZM508.486 138L508.486 138.5L512.429 138.5L512.429 138L512.429 137.5L508.486 137.5L508.486 138ZM516.371 138L516.371 138.5L520.314 138.5L520.314 138L520.314 137.5L516.371 137.5L516.371 138ZM524.257 138L524.257 138.5L528.2 138.5L528.2 138L528.2 137.5L524.257 137.5L524.257 138ZM532.143 138L532.143 138.5L536.086 138.5L536.086 138L536.086 137.5L532.143 137.5L532.143 138ZM540.029 138L540.029 138.5L542 138.5L542 138L542 137.5L540.029 137.5L540.029 138ZM542 138L542 138.5C542.502 138.5 542.991 138.549 543.464 138.643L543.561 138.152L543.658 137.662C543.122 137.556 542.567 137.5 542 137.5L542 138ZM546.445 139.347L546.167 139.763C546.985 140.311 547.689 141.015 548.237 141.833L548.653 141.555L549.068 141.277C548.448 140.35 547.65 139.552 546.723 138.932L546.445 139.347ZM549.848 144.439L549.357 144.536C549.451 145.009 549.5 145.498 549.5 146L550 146L550.5 146C550.5 145.433 550.444 144.878 550.338 144.342L549.848 144.439ZM550 146L549.5 146L549.5 147.961L550 147.961L550.5 147.961L550.5 146L550 146ZM550 151.882L549.5 151.882L549.5 155.803L550 155.803L550.5 155.803L550.5 151.882L550 151.882ZM550 159.724L549.5 159.724L549.5 163.645L550 163.645L550.5 163.645L550.5 159.724L550 159.724ZM550 167.566L549.5 167.566L549.5 171.487L550 171.487L550.5 171.487L550.5 167.566L550 167.566ZM550 175.408L549.5 175.408L549.5 179.329L550 179.329L550.5 179.329L550.5 175.408L550 175.408ZM550 183.25L549.5 183.25L549.5 187.171L550 187.171L550.5 187.171L550.5 183.25L550 183.25ZM550 191.092L549.5 191.092L549.5 195.013L550 195.013L550.5 195.013L550.5 191.092L550 191.092ZM550 198.934L549.5 198.934L549.5 202.855L550 202.855L550.5 202.855L550.5 198.934L550 198.934ZM550 206.776L549.5 206.776L549.5 210.697L550 210.697L550.5 210.697L550.5 206.776L550 206.776ZM550 214.618L549.5 214.618L549.5 218.539L550 218.539L550.5 218.539L550.5 214.618L550 214.618ZM550 222.461L549.5 222.461L549.5 226.382L550 226.382L550.5 226.382L550.5 222.461L550 222.461ZM550 230.303L549.5 230.303L549.5 234.224L550 234.224L550.5 234.224L550.5 230.303L550 230.303ZM550 238.145L549.5 238.145L549.5 242.066L550 242.066L550.5 242.066L550.5 238.145L550 238.145ZM550 245.987L549.5 245.987L549.5 249.908L550 249.908L550.5 249.908L550.5 245.987L550 245.987ZM550 253.829L549.5 253.829L549.5 257.75L550 257.75L550.5 257.75L550.5 253.829L550 253.829ZM550 261.671L549.5 261.671L549.5 265.592L550 265.592L550.5 265.592L550.5 261.671L550 261.671ZM550 269.513L549.5 269.513L549.5 273.434L550 273.434L550.5 273.434L550.5 269.513L550 269.513ZM550 277.355L549.5 277.355L549.5 281.276L550 281.276L550.5 281.276L550.5 277.355L550 277.355ZM550 285.197L549.5 285.197L549.5 289.118L550 289.118L550.5 289.118L550.5 285.197L550 285.197ZM550 293.039L549.5 293.039L549.5 295L550 295L550.5 295L550.5 293.039L550 293.039ZM550 295L549.5 295C549.5 295.502 549.451 295.991 549.357 296.464L549.848 296.561L550.338 296.658C550.444 296.122 550.5 295.567 550.5 295L550 295ZM548.653 299.445L548.237 299.167C547.689 299.985 546.985 300.689 546.167 301.237L546.445 301.653L546.723 302.068C547.65 301.448 548.448 300.65 549.068 299.723L548.653 299.445ZM543.561 302.848L543.464 302.357C542.991 302.451 542.502 302.5 542 302.5L542 303L542 303.5C542.567 303.5 543.122 303.444 543.658 303.338L543.561 302.848ZM542 303L542 302.5L540.029 302.5L540.029 303L540.029 303.5L542 303.5L542 303ZM536.086 303L536.086 302.5L532.143 302.5L532.143 303L532.143 303.5L536.086 303.5L536.086 303ZM528.2 303L528.2 302.5L524.257 302.5L524.257 303L524.257 303.5L528.2 303.5L528.2 303ZM520.314 303L520.314 302.5L516.371 302.5L516.371 303L516.371 303.5L520.314 303.5L520.314 303ZM512.429 303L512.429 302.5L508.486 302.5L508.486 303L508.486 303.5L512.429 303.5L512.429 303ZM504.543 303L504.543 302.5L500.6 302.5L500.6 303L500.6 303.5L504.543 303.5L504.543 303ZM496.657 303L496.657 302.5L492.714 302.5L492.714 303L492.714 303.5L496.657 303.5L496.657 303ZM488.771 303L488.771 302.5L484.829 302.5L484.829 303L484.829 303.5L488.771 303.5L488.771 303ZM480.886 303L480.886 302.5L476.943 302.5L476.943 303L476.943 303.5L480.886 303.5L480.886 303ZM473 303L473 302.5L469.057 302.5L469.057 303L469.057 303.5L473 303.5L473 303ZM465.114 303L465.114 302.5L461.171 302.5L461.171 303L461.171 303.5L465.114 303.5L465.114 303ZM457.229 303L457.229 302.5L453.286 302.5L453.286 303L453.286 303.5L457.229 303.5L457.229 303ZM449.343 303L449.343 302.5L445.4 302.5L445.4 303L445.4 303.5L449.343 303.5L449.343 303ZM441.457 303L441.457 302.5L437.514 302.5L437.514 303L437.514 303.5L441.457 303.5L441.457 303ZM433.571 303L433.571 302.5L429.629 302.5L429.629 303L429.629 303.5L433.571 303.5L433.571 303ZM425.686 303L425.686 302.5L421.743 302.5L421.743 303L421.743 303.5L425.686 303.5L425.686 303ZM417.8 303L417.8 302.5L413.857 302.5L413.857 303L413.857 303.5L417.8 303.5L417.8 303ZM409.914 303L409.914 302.5L405.971 302.5L405.971 303L405.971 303.5L409.914 303.5L409.914 303ZM402.029 303L402.029 302.5L398.086 302.5L398.086 303L398.086 303.5L402.029 303.5L402.029 303ZM394.143 303L394.143 302.5L390.2 302.5L390.2 303L390.2 303.5L394.143 303.5L394.143 303ZM386.257 303L386.257 302.5L382.314 302.5L382.314 303L382.314 303.5L386.257 303.5L386.257 303ZM378.371 303L378.371 302.5L374.429 302.5L374.429 303L374.429 303.5L378.371 303.5L378.371 303ZM370.486 303L370.486 302.5L366.543 302.5L366.543 303L366.543 303.5L370.486 303.5L370.486 303ZM362.6 303L362.6 302.5L358.657 302.5L358.657 303L358.657 303.5L362.6 303.5L362.6 303ZM354.714 303L354.714 302.5L350.771 302.5L350.771 303L350.771 303.5L354.714 303.5L354.714 303ZM346.829 303L346.829 302.5L342.886 302.5L342.886 303L342.886 303.5L346.829 303.5L346.829 303ZM338.943 303L338.943 302.5L335 302.5L335 303L335 303.5L338.943 303.5L338.943 303ZM331.057 303L331.057 302.5L327.114 302.5L327.114 303L327.114 303.5L331.057 303.5L331.057 303ZM323.171 303L323.171 302.5L319.229 302.5L319.229 303L319.229 303.5L323.171 303.5L323.171 303ZM315.286 303L315.286 302.5L311.343 302.5L311.343 303L311.343 303.5L315.286 303.5L315.286 303ZM307.4 303L307.4 302.5L303.457 302.5L303.457 303L303.457 303.5L307.4 303.5L307.4 303ZM299.514 303L299.514 302.5L295.571 302.5L295.571 303L295.571 303.5L299.514 303.5L299.514 303ZM291.629 303L291.629 302.5L287.686 302.5L287.686 303L287.686 303.5L291.629 303.5L291.629 303ZM283.743 303L283.743 302.5L279.8 302.5L279.8 303L279.8 303.5L283.743 303.5L283.743 303ZM275.857 303L275.857 302.5L271.914 302.5L271.914 303L271.914 303.5L275.857 303.5L275.857 303ZM267.971 303L267.971 302.5L266 302.5L266 303L266 303.5L267.971 303.5L267.971 303ZM266 303L266 302.5C265.498 302.5 265.009 302.451 264.536 302.357L264.439 302.848L264.342 303.338C264.878 303.444 265.433 303.5 266 303.5L266 303ZM261.555 301.653L261.833 301.237C261.015 300.689 260.311 299.985 259.763 299.167L259.347 299.445L258.932 299.723C259.552 300.65 260.35 301.448 261.277 302.068L261.555 301.653ZM258.152 296.561L258.643 296.464C258.549 295.991 258.5 295.502 258.5 295L258 295L257.5 295C257.5 295.567 257.556 296.122 257.662 296.658L258.152 296.561ZM258 295L258.5 295L258.5 293.039L258 293.039L257.5 293.039L257.5 295L258 295ZM258 289.118L258.5 289.118L258.5 285.197L258 285.197L257.5 285.197L257.5 289.118L258 289.118ZM258 281.276L258.5 281.276L258.5 277.355L258 277.355L257.5 277.355L257.5 281.276L258 281.276ZM258 273.434L258.5 273.434L258.5 269.513L258 269.513L257.5 269.513L257.5 273.434L258 273.434ZM258 265.592L258.5 265.592L258.5 261.671L258 261.671L257.5 261.671L257.5 265.592L258 265.592ZM258 257.75L258.5 257.75L258.5 253.829L258 253.829L257.5 253.829L257.5 257.75L258 257.75ZM258 249.908L258.5 249.908L258.5 245.987L258 245.987L257.5 245.987L257.5 249.908L258 249.908ZM258 242.066L258.5 242.066L258.5 238.145L258 238.145L257.5 238.145L257.5 242.066L258 242.066ZM258 234.224L258.5 234.224L258.5 230.303L258 230.303L257.5 230.303L257.5 234.224L258 234.224ZM258 226.382L258.5 226.382L258.5 222.461L258 222.461L257.5 222.461L257.5 226.382L258 226.382ZM258 218.539L258.5 218.539L258.5 214.618L258 214.618L257.5 214.618L257.5 218.539L258 218.539ZM258 210.697L258.5 210.697L258.5 206.776L258 206.776L257.5 206.776L257.5 210.697L258 210.697ZM258 202.855L258.5 202.855L258.5 198.934L258 198.934L257.5 198.934L257.5 202.855L258 202.855ZM258 195.013L258.5 195.013L258.5 191.092L258 191.092L257.5 191.092L257.5 195.013L258 195.013ZM258 187.171L258.5 187.171L258.5 183.25L258 183.25L257.5 183.25L257.5 187.171L258 187.171ZM258 179.329L258.5 179.329L258.5 175.408L258 175.408L257.5 175.408L257.5 179.329L258 179.329ZM258 171.487L258.5 171.487L258.5 167.566L258 167.566L257.5 167.566L257.5 171.487L258 171.487ZM258 163.645L258.5 163.645L258.5 159.724L258 159.724L257.5 159.724L257.5 163.645L258 163.645ZM258 155.803L258.5 155.803L258.5 151.882L258 151.882L257.5 151.882L257.5 155.803L258 155.803ZM258 147.961L258.5 147.961L258.5 146L258 146L257.5 146L257.5 147.961L258 147.961Z" fill="white"/>
<path d="M274 260C274 255.582 277.582 252 282 252H526C530.418 252 534 255.582 534 260V283C534 287.418 530.418 291 526 291H282C277.582 291 274 287.418 274 283V260Z" fill="white" fill-opacity="0.2"/>
<text fill="white" style="white-space: pre" xml:space="preserve" font-family="Red Hat Mono" font-size="16" font-weight="600" letter-spacing="0em"><tspan x="356.031" y="277.204">User Input</tspan></text>
<path d="M274 209C274 204.582 277.582 201 282 201H526C530.418 201 534 204.582 534 209V232C534 236.418 530.418 240 526 240H282C277.582 240 274 236.418 274 232V209Z" fill="#E66A32" fill-opacity="0.25"/>
<text fill="white" style="white-space: pre" xml:space="preserve" font-family="Red Hat Mono" font-size="16" font-weight="600" letter-spacing="0em"><tspan x="327.25" y="226.204">Tool Definitions</tspan></text>
<path d="M274 158C274 153.582 277.582 150 282 150H526C530.418 150 534 153.582 534 158V181C534 185.418 530.418 189 526 189H282C277.582 189 274 185.418 274 181V158Z" fill="white" fill-opacity="0.2"/>
<text fill="white" style="white-space: pre" xml:space="preserve" font-family="Red Hat Mono" font-size="16" font-weight="600" letter-spacing="0em"><tspan x="341.641" y="175.204">System Prompt</tspan></text>
<path d="M274 323C274 318.582 277.582 315 282 315H526C530.418 315 534 318.582 534 323V397C534 401.418 530.418 405 526 405H282C277.582 405 274 401.418 274 397V323Z" fill="#E66A32" fill-opacity="0.25"/>
<text fill="white" style="white-space: pre" xml:space="preserve" font-family="Red Hat Mono" font-size="16" font-weight="600" letter-spacing="0em"><tspan x="336.844" y="365.704">Tool Result(s)</tspan></text>
<path d="M274 437C274 432.582 277.582 429 282 429H526C530.418 429 534 432.582 534 437V511C534 515.418 530.418 519 526 519H282C277.582 519 274 515.418 274 511V437Z" fill="#E66A32" fill-opacity="0.25"/>
<text fill="white" style="white-space: pre" xml:space="preserve" font-family="Red Hat Mono" font-size="16" font-weight="600" letter-spacing="0em"><tspan x="336.844" y="479.704">Tool Result(s)</tspan></text>
<path d="M606 260C606 255.582 609.582 252 614 252H858C862.418 252 866 255.582 866 260V283C866 287.418 862.418 291 858 291H614C609.582 291 606 287.418 606 283V260Z" fill="white"/>
<text fill="#080808" style="white-space: pre" xml:space="preserve" font-family="Red Hat Mono" font-size="16" font-weight="600" letter-spacing="0em"><tspan x="721.609" y="277.204">LLM</tspan></text>
<path d="M606 374C606 369.582 609.582 366 614 366H858C862.418 366 866 369.582 866 374V397C866 401.418 862.418 405 858 405H614C609.582 405 606 401.418 606 397V374Z" fill="white"/>
<text fill="#080808" style="white-space: pre" xml:space="preserve" font-family="Red Hat Mono" font-size="16" font-weight="600" letter-spacing="0em"><tspan x="721.609" y="391.204">LLM</tspan></text>
<path d="M606 488C606 483.582 609.582 480 614 480H858C862.418 480 866 483.582 866 488V511C866 515.418 862.418 519 858 519H614C609.582 519 606 515.418 606 511V488Z" fill="white"/>
<text fill="#080808" style="white-space: pre" xml:space="preserve" font-family="Red Hat Mono" font-size="16" font-weight="600" letter-spacing="0em"><tspan x="721.609" y="505.204">LLM</tspan></text>
<path d="M922 260C922 255.582 925.582 252 930 252H1174C1178.42 252 1182 255.582 1182 260V283C1182 287.418 1178.42 291 1174 291H930C925.582 291 922 287.418 922 283V260Z" fill="#E66A32"/>
<text fill="#080808" style="white-space: pre" xml:space="preserve" font-family="Red Hat Mono" font-size="16" font-weight="600" letter-spacing="0em"><tspan x="984.844" y="277.204">Tool Execution</tspan></text>
<path d="M922 374C922 369.582 925.582 366 930 366H1174C1178.42 366 1182 369.582 1182 374V397C1182 401.418 1178.42 405 1174 405H930C925.582 405 922 401.418 922 397V374Z" fill="#E66A32"/>
<text fill="#080808" style="white-space: pre" xml:space="preserve" font-family="Red Hat Mono" font-size="16" font-weight="600" letter-spacing="0em"><tspan x="984.844" y="391.204">Tool Execution</tspan></text>
<path d="M533.293 334.293C532.902 334.683 532.902 335.317 533.293 335.707L539.657 342.071C540.047 342.462 540.681 342.462 541.071 342.071C541.462 341.681 541.462 341.047 541.071 340.657L535.414 335L541.071 329.343C541.462 328.953 541.462 328.319 541.071 327.929C540.681 327.538 540.047 327.538 539.657 327.929L533.293 334.293ZM1052 291L1051 291L1051 327L1052 327L1053 327L1053 291L1052 291ZM1044 335L1044 334L534 334L534 335L534 336L1044 336L1044 335ZM1052 327L1051 327C1051 330.866 1047.87 334 1044 334L1044 335L1044 336C1048.97 336 1053 331.971 1053 327L1052 327Z" fill="white"/>
<path d="M533.293 448.293C532.902 448.683 532.902 449.317 533.293 449.707L539.657 456.071C540.047 456.462 540.681 456.462 541.071 456.071C541.462 455.681 541.462 455.047 541.071 454.657L535.414 449L541.071 443.343C541.462 442.953 541.462 442.319 541.071 441.929C540.681 441.538 540.047 441.538 539.657 441.929L533.293 448.293ZM1052 405L1051 405L1051 441L1052 441L1053 441L1053 405L1052 405ZM1044 449L1044 448L534 448L534 449L534 450L1044 450L1044 449ZM1052 441L1051 441C1051 444.866 1047.87 448 1044 448L1044 449L1044 450C1048.97 450 1053 445.971 1053 441L1052 441Z" fill="white"/>
<path d="M533.293 562.293C532.902 562.683 532.902 563.317 533.293 563.707L539.657 570.071C540.047 570.462 540.681 570.462 541.071 570.071C541.462 569.681 541.462 569.047 541.071 568.657L535.414 563L541.071 557.343C541.462 556.953 541.462 556.319 541.071 555.929C540.681 555.538 540.047 555.538 539.657 555.929L533.293 562.293ZM736 519L735 519L735 555L736 555L737 555L737 519L736 519ZM728 563L728 562L534 562L534 563L534 564L728 564L728 563ZM736 555L735 555C735 558.866 731.866 562 728 562L728 563L728 564C732.971 564 737 559.971 737 555L736 555Z" fill="white"/>
<path d="M606.707 272.707C607.098 272.317 607.098 271.683 606.707 271.293L600.343 264.929C599.953 264.538 599.319 264.538 598.929 264.929C598.538 265.319 598.538 265.953 598.929 266.343L604.586 272L598.929 277.657C598.538 278.047 598.538 278.681 598.929 279.071C599.319 279.462 599.953 279.462 600.343 279.071L606.707 272.707ZM606 272V271H550V272V273H606V272Z" fill="white"/>
<path d="M606.707 386.707C607.098 386.317 607.098 385.683 606.707 385.293L600.343 378.929C599.953 378.538 599.319 378.538 598.929 378.929C598.538 379.319 598.538 379.953 598.929 380.343L604.586 386L598.929 391.657C598.538 392.047 598.538 392.681 598.929 393.071C599.319 393.462 599.953 393.462 600.343 393.071L606.707 386.707ZM606 386V385H550V386V387H606V386Z" fill="white"/>
<path d="M606.707 500.707C607.098 500.317 607.098 499.683 606.707 499.293L600.343 492.929C599.953 492.538 599.319 492.538 598.929 492.929C598.538 493.319 598.538 493.953 598.929 494.343L604.586 500L598.929 505.657C598.538 506.047 598.538 506.681 598.929 507.071C599.319 507.462 599.953 507.462 600.343 507.071L606.707 500.707ZM606 500V499H550V500V501H606V500Z" fill="white"/>
<path d="M922.707 272.707C923.098 272.317 923.098 271.683 922.707 271.293L916.343 264.929C915.953 264.538 915.319 264.538 914.929 264.929C914.538 265.319 914.538 265.953 914.929 266.343L920.586 272L914.929 277.657C914.538 278.047 914.538 278.681 914.929 279.071C915.319 279.462 915.953 279.462 916.343 279.071L922.707 272.707ZM922 272V271H866V272V273H922V272Z" fill="white"/>
<path d="M922.707 386.707C923.098 386.317 923.098 385.683 922.707 385.293L916.343 378.929C915.953 378.538 915.319 378.538 914.929 378.929C914.538 379.319 914.538 379.953 914.929 380.343L920.586 386L914.929 391.657C914.538 392.047 914.538 392.681 914.929 393.071C915.319 393.462 915.953 393.462 916.343 393.071L922.707 386.707ZM922 386V385H866V386V387H922V386Z" fill="white"/>
<text fill="white" style="white-space: pre" xml:space="preserve" font-family="Red Hat Mono" font-size="16" font-weight="600" letter-spacing="0em"><tspan x="781.938" y="552.204">stop_reason:&#10;</tspan><tspan x="801.125" y="573.204">end turn</tspan></text>
<text fill="white" style="white-space: pre" xml:space="preserve" font-family="Red Hat Mono" font-size="16" font-weight="600" letter-spacing="0em"><tspan x="836.938" y="207.204">stop_reason:&#10;</tspan><tspan x="851.328" y="228.204">tool call</tspan></text>
<path d="M274 551C274 546.582 277.582 543 282 543H526C530.418 543 534 546.582 534 551V574C534 578.418 530.418 582 526 582H282C277.582 582 274 578.418 274 574V551Z" fill="white" fill-opacity="0.2"/>
<text fill="white" style="white-space: pre" xml:space="preserve" font-family="Red Hat Mono" font-size="16" font-weight="600" letter-spacing="0em"><tspan x="317.656" y="568.204">Assistant Response</tspan></text>
</g>
<defs>
<clipPath id="clip0_221_132">
<rect width="1440" height="720" fill="white"/>
</clipPath>
</defs>
</svg>
