<svg width="1440" height="720" viewBox="0 0 1440 720" fill="none" xmlns="http://www.w3.org/2000/svg">
<g clip-path="url(#clip0_221_381)">
<rect width="1440" height="720" fill="#080808"/>
<path d="M700 227C704.418 227 708 230.582 708 235L708 486C708 490.418 704.418 494 700 494L424 494C419.582 494 416 490.418 416 486L416 235C416 230.582 419.582 227 424 227L700 227Z" fill="white" fill-opacity="0.05"/>
<path d="M416 235L416.5 235C416.5 234.498 416.549 234.009 416.643 233.536L416.152 233.439L415.662 233.342C415.556 233.878 415.5 234.433 415.5 235L416 235ZM417.347 230.555L417.763 230.833C418.311 230.015 419.015 229.311 419.833 228.763L419.555 228.347L419.277 227.932C418.35 228.552 417.552 229.35 416.932 230.277L417.347 230.555ZM422.439 227.152L422.536 227.643C423.009 227.549 423.498 227.5 424 227.5L424 227L424 226.5C423.433 226.5 422.878 226.556 422.342 226.662L422.439 227.152ZM424 227L424 227.5L425.971 227.5L425.971 227L425.971 226.5L424 226.5L424 227ZM429.914 227L429.914 227.5L433.857 227.5L433.857 227L433.857 226.5L429.914 226.5L429.914 227ZM437.8 227L437.8 227.5L441.743 227.5L441.743 227L441.743 226.5L437.8 226.5L437.8 227ZM445.686 227L445.686 227.5L449.629 227.5L449.629 227L449.629 226.5L445.686 226.5L445.686 227ZM453.571 227L453.571 227.5L457.514 227.5L457.514 227L457.514 226.5L453.571 226.5L453.571 227ZM461.457 227L461.457 227.5L465.4 227.5L465.4 227L465.4 226.5L461.457 226.5L461.457 227ZM469.343 227L469.343 227.5L473.286 227.5L473.286 227L473.286 226.5L469.343 226.5L469.343 227ZM477.229 227L477.229 227.5L481.171 227.5L481.171 227L481.171 226.5L477.229 226.5L477.229 227ZM485.114 227L485.114 227.5L489.057 227.5L489.057 227L489.057 226.5L485.114 226.5L485.114 227ZM493 227L493 227.5L496.943 227.5L496.943 227L496.943 226.5L493 226.5L493 227ZM500.886 227L500.886 227.5L504.829 227.5L504.829 227L504.829 226.5L500.886 226.5L500.886 227ZM508.771 227L508.771 227.5L512.714 227.5L512.714 227L512.714 226.5L508.771 226.5L508.771 227ZM516.657 227L516.657 227.5L520.6 227.5L520.6 227L520.6 226.5L516.657 226.5L516.657 227ZM524.543 227L524.543 227.5L528.486 227.5L528.486 227L528.486 226.5L524.543 226.5L524.543 227ZM532.429 227L532.429 227.5L536.371 227.5L536.371 227L536.371 226.5L532.429 226.5L532.429 227ZM540.314 227L540.314 227.5L544.257 227.5L544.257 227L544.257 226.5L540.314 226.5L540.314 227ZM548.2 227L548.2 227.5L552.143 227.5L552.143 227L552.143 226.5L548.2 226.5L548.2 227ZM556.086 227L556.086 227.5L560.029 227.5L560.029 227L560.029 226.5L556.086 226.5L556.086 227ZM563.971 227L563.971 227.5L567.914 227.5L567.914 227L567.914 226.5L563.971 226.5L563.971 227ZM571.857 227L571.857 227.5L575.8 227.5L575.8 227L575.8 226.5L571.857 226.5L571.857 227ZM579.743 227L579.743 227.5L583.686 227.5L583.686 227L583.686 226.5L579.743 226.5L579.743 227ZM587.629 227L587.629 227.5L591.571 227.5L591.571 227L591.571 226.5L587.629 226.5L587.629 227ZM595.514 227L595.514 227.5L599.457 227.5L599.457 227L599.457 226.5L595.514 226.5L595.514 227ZM603.4 227L603.4 227.5L607.343 227.5L607.343 227L607.343 226.5L603.4 226.5L603.4 227ZM611.286 227L611.286 227.5L615.229 227.5L615.229 227L615.229 226.5L611.286 226.5L611.286 227ZM619.171 227L619.171 227.5L623.114 227.5L623.114 227L623.114 226.5L619.171 226.5L619.171 227ZM627.057 227L627.057 227.5L631 227.5L631 227L631 226.5L627.057 226.5L627.057 227ZM634.943 227L634.943 227.5L638.886 227.5L638.886 227L638.886 226.5L634.943 226.5L634.943 227ZM642.829 227L642.829 227.5L646.771 227.5L646.771 227L646.771 226.5L642.829 226.5L642.829 227ZM650.714 227L650.714 227.5L654.657 227.5L654.657 227L654.657 226.5L650.714 226.5L650.714 227ZM658.6 227L658.6 227.5L662.543 227.5L662.543 227L662.543 226.5L658.6 226.5L658.6 227ZM666.486 227L666.486 227.5L670.429 227.5L670.429 227L670.429 226.5L666.486 226.5L666.486 227ZM674.371 227L674.371 227.5L678.314 227.5L678.314 227L678.314 226.5L674.371 226.5L674.371 227ZM682.257 227L682.257 227.5L686.2 227.5L686.2 227L686.2 226.5L682.257 226.5L682.257 227ZM690.143 227L690.143 227.5L694.086 227.5L694.086 227L694.086 226.5L690.143 226.5L690.143 227ZM698.029 227L698.029 227.5L700 227.5L700 227L700 226.5L698.029 226.5L698.029 227ZM700 227L700 227.5C700.502 227.5 700.991 227.549 701.464 227.643L701.561 227.152L701.658 226.662C701.122 226.556 700.567 226.5 700 226.5L700 227ZM704.445 228.347L704.167 228.763C704.985 229.311 705.689 230.015 706.237 230.833L706.653 230.555L707.068 230.277C706.448 229.35 705.65 228.552 704.723 227.932L704.445 228.347ZM707.848 233.439L707.357 233.536C707.451 234.009 707.5 234.498 707.5 235L708 235L708.5 235C708.5 234.433 708.444 233.878 708.338 233.342L707.848 233.439ZM708 235L707.5 235L707.5 237.024L708 237.024L708.5 237.024L708.5 235L708 235ZM708 241.073L707.5 241.073L707.5 245.121L708 245.121L708.5 245.121L708.5 241.073L708 241.073ZM708 249.169L707.5 249.169L707.5 253.218L708 253.218L708.5 253.218L708.5 249.169L708 249.169ZM708 257.266L707.5 257.266L707.5 261.315L708 261.315L708.5 261.315L708.5 257.266L708 257.266ZM708 265.363L707.5 265.363L707.5 269.411L708 269.411L708.5 269.411L708.5 265.363L708 265.363ZM708 273.46L707.5 273.46L707.5 277.508L708 277.508L708.5 277.508L708.5 273.46L708 273.46ZM708 281.556L707.5 281.556L707.5 285.605L708 285.605L708.5 285.605L708.5 281.556L708 281.556ZM708 289.653L707.5 289.653L707.5 293.702L708 293.702L708.5 293.702L708.5 289.653L708 289.653ZM708 297.75L707.5 297.75L707.5 301.798L708 301.798L708.5 301.798L708.5 297.75L708 297.75ZM708 305.847L707.5 305.847L707.5 309.895L708 309.895L708.5 309.895L708.5 305.847L708 305.847ZM708 313.944L707.5 313.944L707.5 317.992L708 317.992L708.5 317.992L708.5 313.944L708 313.944ZM708 322.04L707.5 322.04L707.5 326.089L708 326.089L708.5 326.089L708.5 322.04L708 322.04ZM708 330.137L707.5 330.137L707.5 334.185L708 334.185L708.5 334.185L708.5 330.137L708 330.137ZM708 338.234L707.5 338.234L707.5 342.282L708 342.282L708.5 342.282L708.5 338.234L708 338.234ZM708 346.331L707.5 346.331L707.5 350.379L708 350.379L708.5 350.379L708.5 346.331L708 346.331ZM708 354.427L707.5 354.427L707.5 358.476L708 358.476L708.5 358.476L708.5 354.427L708 354.427ZM708 362.524L707.5 362.524L707.5 366.573L708 366.573L708.5 366.573L708.5 362.524L708 362.524ZM708 370.621L707.5 370.621L707.5 374.669L708 374.669L708.5 374.669L708.5 370.621L708 370.621ZM708 378.718L707.5 378.718L707.5 382.766L708 382.766L708.5 382.766L708.5 378.718L708 378.718ZM708 386.814L707.5 386.814L707.5 390.863L708 390.863L708.5 390.863L708.5 386.814L708 386.814ZM708 394.911L707.5 394.911L707.5 398.96L708 398.96L708.5 398.96L708.5 394.911L708 394.911ZM708 403.008L707.5 403.008L707.5 407.056L708 407.056L708.5 407.056L708.5 403.008L708 403.008ZM708 411.105L707.5 411.105L707.5 415.153L708 415.153L708.5 415.153L708.5 411.105L708 411.105ZM708 419.202L707.5 419.202L707.5 423.25L708 423.25L708.5 423.25L708.5 419.202L708 419.202ZM708 427.298L707.5 427.298L707.5 431.347L708 431.347L708.5 431.347L708.5 427.298L708 427.298ZM708 435.395L707.5 435.395L707.5 439.444L708 439.444L708.5 439.444L708.5 435.395L708 435.395ZM708 443.492L707.5 443.492L707.5 447.54L708 447.54L708.5 447.54L708.5 443.492L708 443.492ZM708 451.589L707.5 451.589L707.5 455.637L708 455.637L708.5 455.637L708.5 451.589L708 451.589ZM708 459.685L707.5 459.685L707.5 463.734L708 463.734L708.5 463.734L708.5 459.685L708 459.685ZM708 467.782L707.5 467.782L707.5 471.831L708 471.831L708.5 471.831L708.5 467.782L708 467.782ZM708 475.879L707.5 475.879L707.5 479.927L708 479.927L708.5 479.927L708.5 475.879L708 475.879ZM708 483.976L707.5 483.976L707.5 486L708 486L708.5 486L708.5 483.976L708 483.976ZM708 486L707.5 486C707.5 486.502 707.451 486.991 707.357 487.464L707.848 487.561L708.338 487.658C708.444 487.122 708.5 486.567 708.5 486L708 486ZM706.653 490.445L706.237 490.167C705.689 490.985 704.985 491.689 704.167 492.237L704.445 492.653L704.723 493.068C705.65 492.448 706.448 491.65 707.068 490.723L706.653 490.445ZM701.561 493.848L701.464 493.357C700.991 493.451 700.502 493.5 700 493.5L700 494L700 494.5C700.567 494.5 701.122 494.444 701.658 494.338L701.561 493.848ZM700 494L700 493.5L698.029 493.5L698.029 494L698.029 494.5L700 494.5L700 494ZM694.086 494L694.086 493.5L690.143 493.5L690.143 494L690.143 494.5L694.086 494.5L694.086 494ZM686.2 494L686.2 493.5L682.257 493.5L682.257 494L682.257 494.5L686.2 494.5L686.2 494ZM678.314 494L678.314 493.5L674.371 493.5L674.371 494L674.371 494.5L678.314 494.5L678.314 494ZM670.429 494L670.429 493.5L666.486 493.5L666.486 494L666.486 494.5L670.429 494.5L670.429 494ZM662.543 494L662.543 493.5L658.6 493.5L658.6 494L658.6 494.5L662.543 494.5L662.543 494ZM654.657 494L654.657 493.5L650.714 493.5L650.714 494L650.714 494.5L654.657 494.5L654.657 494ZM646.771 494L646.771 493.5L642.829 493.5L642.829 494L642.829 494.5L646.771 494.5L646.771 494ZM638.886 494L638.886 493.5L634.943 493.5L634.943 494L634.943 494.5L638.886 494.5L638.886 494ZM631 494L631 493.5L627.057 493.5L627.057 494L627.057 494.5L631 494.5L631 494ZM623.114 494L623.114 493.5L619.171 493.5L619.171 494L619.171 494.5L623.114 494.5L623.114 494ZM615.229 494L615.229 493.5L611.286 493.5L611.286 494L611.286 494.5L615.229 494.5L615.229 494ZM607.343 494L607.343 493.5L603.4 493.5L603.4 494L603.4 494.5L607.343 494.5L607.343 494ZM599.457 494L599.457 493.5L595.514 493.5L595.514 494L595.514 494.5L599.457 494.5L599.457 494ZM591.571 494L591.571 493.5L587.629 493.5L587.629 494L587.629 494.5L591.571 494.5L591.571 494ZM583.686 494L583.686 493.5L579.743 493.5L579.743 494L579.743 494.5L583.686 494.5L583.686 494ZM575.8 494L575.8 493.5L571.857 493.5L571.857 494L571.857 494.5L575.8 494.5L575.8 494ZM567.914 494L567.914 493.5L563.971 493.5L563.971 494L563.971 494.5L567.914 494.5L567.914 494ZM560.029 494L560.029 493.5L556.086 493.5L556.086 494L556.086 494.5L560.029 494.5L560.029 494ZM552.143 494L552.143 493.5L548.2 493.5L548.2 494L548.2 494.5L552.143 494.5L552.143 494ZM544.257 494L544.257 493.5L540.314 493.5L540.314 494L540.314 494.5L544.257 494.5L544.257 494ZM536.371 494L536.371 493.5L532.429 493.5L532.429 494L532.429 494.5L536.371 494.5L536.371 494ZM528.486 494L528.486 493.5L524.543 493.5L524.543 494L524.543 494.5L528.486 494.5L528.486 494ZM520.6 494L520.6 493.5L516.657 493.5L516.657 494L516.657 494.5L520.6 494.5L520.6 494ZM512.714 494L512.714 493.5L508.771 493.5L508.771 494L508.771 494.5L512.714 494.5L512.714 494ZM504.829 494L504.829 493.5L500.886 493.5L500.886 494L500.886 494.5L504.829 494.5L504.829 494ZM496.943 494L496.943 493.5L493 493.5L493 494L493 494.5L496.943 494.5L496.943 494ZM489.057 494L489.057 493.5L485.114 493.5L485.114 494L485.114 494.5L489.057 494.5L489.057 494ZM481.171 494L481.171 493.5L477.229 493.5L477.229 494L477.229 494.5L481.171 494.5L481.171 494ZM473.286 494L473.286 493.5L469.343 493.5L469.343 494L469.343 494.5L473.286 494.5L473.286 494ZM465.4 494L465.4 493.5L461.457 493.5L461.457 494L461.457 494.5L465.4 494.5L465.4 494ZM457.514 494L457.514 493.5L453.571 493.5L453.571 494L453.571 494.5L457.514 494.5L457.514 494ZM449.629 494L449.629 493.5L445.686 493.5L445.686 494L445.686 494.5L449.629 494.5L449.629 494ZM441.743 494L441.743 493.5L437.8 493.5L437.8 494L437.8 494.5L441.743 494.5L441.743 494ZM433.857 494L433.857 493.5L429.914 493.5L429.914 494L429.914 494.5L433.857 494.5L433.857 494ZM425.971 494L425.971 493.5L424 493.5L424 494L424 494.5L425.971 494.5L425.971 494ZM424 494L424 493.5C423.498 493.5 423.009 493.451 422.536 493.357L422.439 493.848L422.342 494.338C422.878 494.444 423.433 494.5 424 494.5L424 494ZM419.555 492.653L419.833 492.237C419.015 491.689 418.311 490.985 417.763 490.167L417.347 490.445L416.932 490.723C417.552 491.65 418.35 492.448 419.277 493.068L419.555 492.653ZM416.152 487.561L416.643 487.464C416.549 486.991 416.5 486.502 416.5 486L416 486L415.5 486C415.5 486.567 415.556 487.122 415.662 487.658L416.152 487.561ZM416 486L416.5 486L416.5 483.976L416 483.976L415.5 483.976L415.5 486L416 486ZM416 479.927L416.5 479.927L416.5 475.879L416 475.879L415.5 475.879L415.5 479.927L416 479.927ZM416 471.831L416.5 471.831L416.5 467.782L416 467.782L415.5 467.782L415.5 471.831L416 471.831ZM416 463.734L416.5 463.734L416.5 459.685L416 459.685L415.5 459.685L415.5 463.734L416 463.734ZM416 455.637L416.5 455.637L416.5 451.589L416 451.589L415.5 451.589L415.5 455.637L416 455.637ZM416 447.54L416.5 447.54L416.5 443.492L416 443.492L415.5 443.492L415.5 447.54L416 447.54ZM416 439.444L416.5 439.444L416.5 435.395L416 435.395L415.5 435.395L415.5 439.444L416 439.444ZM416 431.347L416.5 431.347L416.5 427.298L416 427.298L415.5 427.298L415.5 431.347L416 431.347ZM416 423.25L416.5 423.25L416.5 419.202L416 419.202L415.5 419.202L415.5 423.25L416 423.25ZM416 415.153L416.5 415.153L416.5 411.105L416 411.105L415.5 411.105L415.5 415.153L416 415.153ZM416 407.056L416.5 407.056L416.5 403.008L416 403.008L415.5 403.008L415.5 407.056L416 407.056ZM416 398.96L416.5 398.96L416.5 394.911L416 394.911L415.5 394.911L415.5 398.96L416 398.96ZM416 390.863L416.5 390.863L416.5 386.815L416 386.815L415.5 386.815L415.5 390.863L416 390.863ZM416 382.766L416.5 382.766L416.5 378.718L416 378.718L415.5 378.718L415.5 382.766L416 382.766ZM416 374.669L416.5 374.669L416.5 370.621L416 370.621L415.5 370.621L415.5 374.669L416 374.669ZM416 366.573L416.5 366.573L416.5 362.524L416 362.524L415.5 362.524L415.5 366.573L416 366.573ZM416 358.476L416.5 358.476L416.5 354.427L416 354.427L415.5 354.427L415.5 358.476L416 358.476ZM416 350.379L416.5 350.379L416.5 346.331L416 346.331L415.5 346.331L415.5 350.379L416 350.379ZM416 342.282L416.5 342.282L416.5 338.234L416 338.234L415.5 338.234L415.5 342.282L416 342.282ZM416 334.185L416.5 334.185L416.5 330.137L416 330.137L415.5 330.137L415.5 334.185L416 334.185ZM416 326.089L416.5 326.089L416.5 322.04L416 322.04L415.5 322.04L415.5 326.089L416 326.089ZM416 317.992L416.5 317.992L416.5 313.944L416 313.944L415.5 313.944L415.5 317.992L416 317.992ZM416 309.895L416.5 309.895L416.5 305.847L416 305.847L415.5 305.847L415.5 309.895L416 309.895ZM416 301.798L416.5 301.798L416.5 297.75L416 297.75L415.5 297.75L415.5 301.798L416 301.798ZM416 293.702L416.5 293.702L416.5 289.653L416 289.653L415.5 289.653L415.5 293.702L416 293.702ZM416 285.605L416.5 285.605L416.5 281.556L416 281.556L415.5 281.556L415.5 285.605L416 285.605ZM416 277.508L416.5 277.508L416.5 273.46L416 273.46L415.5 273.46L415.5 277.508L416 277.508ZM416 269.411L416.5 269.411L416.5 265.363L416 265.363L415.5 265.363L415.5 269.411L416 269.411ZM416 261.315L416.5 261.315L416.5 257.266L416 257.266L415.5 257.266L415.5 261.315L416 261.315ZM416 253.218L416.5 253.218L416.5 249.169L416 249.169L415.5 249.169L415.5 253.218L416 253.218ZM416 245.121L416.5 245.121L416.5 241.073L416 241.073L415.5 241.073L415.5 245.121L416 245.121ZM416 237.024L416.5 237.024L416.5 235L416 235L415.5 235L415.5 237.024L416 237.024Z" fill="white"/>
<path d="M432 298C432 293.582 435.582 290 440 290H684C688.419 290 692 293.582 692 298V321C692 325.418 688.419 329 684 329H440C435.582 329 432 325.418 432 321V298Z" stroke="#E66A32" stroke-dasharray="2 2"/>
<text fill="white" style="white-space: pre" xml:space="preserve" font-family="Red Hat Mono" font-size="16" font-weight="600" letter-spacing="0em"><tspan x="514.032" y="315.204">User Input</tspan></text>
<path d="M432 349C432 344.582 435.582 341 440 341H684C688.419 341 692 344.582 692 349V372C692 376.418 688.419 380 684 380H440C435.582 380 432 376.418 432 372V349Z" stroke="#E66A32" stroke-dasharray="2 2"/>
<text fill="white" style="white-space: pre" xml:space="preserve" font-family="Red Hat Mono" font-size="16" font-weight="600" letter-spacing="0em"><tspan x="494.844" y="366.204">Command Result</tspan></text>
<path d="M432 400C432 395.582 435.582 392 440 392H684C688.419 392 692 395.582 692 400V423C692 427.418 688.419 431 684 431H440C435.582 431 432 427.418 432 423V400Z" fill="white" fill-opacity="0.2"/>
<text fill="white" style="white-space: pre" xml:space="preserve" font-family="Red Hat Mono" font-size="16" font-weight="600" letter-spacing="0em"><tspan x="514.032" y="417.204">User Input</tspan></text>
<path d="M432 247C432 242.582 435.582 239 440 239H684C688.419 239 692 242.582 692 247V270C692 274.418 688.419 278 684 278H440C435.582 278 432 274.418 432 270V247Z" fill="white" fill-opacity="0.2"/>
<text fill="white" style="white-space: pre" xml:space="preserve" font-family="Red Hat Mono" font-size="16" font-weight="600" letter-spacing="0em"><tspan x="466.063" y="264.204">System Prompt &#38; Tool</tspan></text>
<path d="M432 451C432 446.582 435.582 443 440 443H684C688.419 443 692 446.582 692 451V474C692 478.418 688.419 482 684 482H440C435.582 482 432 478.418 432 474V451Z" fill="white" fill-opacity="0.2"/>
<text fill="white" style="white-space: pre" xml:space="preserve" font-family="Red Hat Mono" font-size="16" font-weight="600" letter-spacing="0em"><tspan x="475.657" y="468.204">Assistant Response</tspan></text>
<path d="M764 298C764 293.582 767.582 290 772 290H1016C1020.42 290 1024 293.582 1024 298V321C1024 325.418 1020.42 329 1016 329H772C767.582 329 764 325.418 764 321V298Z" fill="#E66A32"/>
<text fill="#080808" style="white-space: pre" xml:space="preserve" font-family="Red Hat Mono" font-size="16" font-weight="600" letter-spacing="0em"><tspan x="817.25" y="315.204">Command Registry</tspan></text>
<path d="M764 400C764 395.582 767.582 392 772 392H1016C1020.42 392 1024 395.582 1024 400V474C1024 478.418 1020.42 482 1016 482H772C767.582 482 764 478.418 764 474V400Z" fill="white"/>
<text fill="#080808" style="white-space: pre" xml:space="preserve" font-family="Red Hat Mono" font-size="16" font-weight="600" letter-spacing="0em"><tspan x="802.859" y="442.704">LLM &#38; Tool Exection</tspan></text>
<path d="M764.707 414.707C765.098 414.317 765.098 413.683 764.707 413.293L758.343 406.929C757.953 406.538 757.319 406.538 756.929 406.929C756.538 407.319 756.538 407.953 756.929 408.343L762.586 414L756.929 419.657C756.538 420.047 756.538 420.681 756.929 421.071C757.319 421.462 757.953 421.462 758.343 421.071L764.707 414.707ZM764 414V413H708V414V415H764V414Z" fill="white"/>
<path d="M764.707 310.707C765.098 310.317 765.098 309.683 764.707 309.293L758.343 302.929C757.953 302.538 757.319 302.538 756.929 302.929C756.538 303.319 756.538 303.953 756.929 304.343L762.586 310L756.929 315.657C756.538 316.047 756.538 316.681 756.929 317.071C757.319 317.462 757.953 317.462 758.343 317.071L764.707 310.707ZM764 310L764 309L692 309L692 310L692 311L764 311L764 310Z" fill="white"/>
<path d="M691.293 461.293C690.902 461.683 690.902 462.317 691.293 462.707L697.657 469.071C698.047 469.462 698.681 469.462 699.071 469.071C699.462 468.681 699.462 468.047 699.071 467.657L693.414 462L699.071 456.343C699.462 455.953 699.462 455.319 699.071 454.929C698.681 454.538 698.047 454.538 697.657 454.929L691.293 461.293ZM764 462L764 461L692 461L692 462L692 463L764 463L764 462Z" fill="white"/>
<path d="M691.293 360.293C690.902 360.683 690.902 361.317 691.293 361.707L697.657 368.071C698.047 368.462 698.681 368.462 699.071 368.071C699.462 367.681 699.462 367.047 699.071 366.657L693.414 361L699.071 355.343C699.462 354.953 699.462 354.319 699.071 353.929C698.681 353.538 698.047 353.538 697.657 353.929L691.293 360.293ZM894 329L893 329L893 353L894 353L895 353L895 329L894 329ZM886 361L886 360L692 360L692 361L692 362L886 362L886 361ZM894 353L893 353C893 356.866 889.866 360 886 360L886 361L886 362C890.971 362 895 357.971 895 353L894 353Z" fill="white"/>
</g>
<defs>
<clipPath id="clip0_221_381">
<rect width="1440" height="720" fill="white"/>
</clipPath>
</defs>
</svg>
