<svg width="1440" height="720" viewBox="0 0 1440 720" fill="none" xmlns="http://www.w3.org/2000/svg">
<g clip-path="url(#clip0_221_450)">
<rect width="1440" height="720" fill="#080808"/>
<path d="M703 275C707.418 275 711 278.582 711 283L711 434C711 438.418 707.418 442 703 442L427 442C422.582 442 419 438.418 419 434L419 283C419 278.582 422.582 275 427 275L703 275Z" fill="white" fill-opacity="0.05"/>
<path d="M419 283L419.5 283C419.5 282.498 419.549 282.009 419.643 281.536L419.152 281.439L418.662 281.342C418.556 281.878 418.5 282.433 418.5 283L419 283ZM420.347 278.555L420.763 278.833C421.311 278.015 422.015 277.311 422.833 276.763L422.555 276.347L422.277 275.932C421.35 276.552 420.552 277.35 419.932 278.277L420.347 278.555ZM425.439 275.152L425.536 275.643C426.009 275.549 426.498 275.5 427 275.5L427 275L427 274.5C426.433 274.5 425.878 274.556 425.342 274.662L425.439 275.152ZM427 275L427 275.5L428.971 275.5L428.971 275L428.971 274.5L427 274.5L427 275ZM432.914 275L432.914 275.5L436.857 275.5L436.857 275L436.857 274.5L432.914 274.5L432.914 275ZM440.8 275L440.8 275.5L444.743 275.5L444.743 275L444.743 274.5L440.8 274.5L440.8 275ZM448.686 275L448.686 275.5L452.629 275.5L452.629 275L452.629 274.5L448.686 274.5L448.686 275ZM456.571 275L456.571 275.5L460.514 275.5L460.514 275L460.514 274.5L456.571 274.5L456.571 275ZM464.457 275L464.457 275.5L468.4 275.5L468.4 275L468.4 274.5L464.457 274.5L464.457 275ZM472.343 275L472.343 275.5L476.286 275.5L476.286 275L476.286 274.5L472.343 274.5L472.343 275ZM480.229 275L480.229 275.5L484.171 275.5L484.171 275L484.171 274.5L480.229 274.5L480.229 275ZM488.114 275L488.114 275.5L492.057 275.5L492.057 275L492.057 274.5L488.114 274.5L488.114 275ZM496 275L496 275.5L499.943 275.5L499.943 275L499.943 274.5L496 274.5L496 275ZM503.886 275L503.886 275.5L507.829 275.5L507.829 275L507.829 274.5L503.886 274.5L503.886 275ZM511.771 275L511.771 275.5L515.714 275.5L515.714 275L515.714 274.5L511.771 274.5L511.771 275ZM519.657 275L519.657 275.5L523.6 275.5L523.6 275L523.6 274.5L519.657 274.5L519.657 275ZM527.543 275L527.543 275.5L531.486 275.5L531.486 275L531.486 274.5L527.543 274.5L527.543 275ZM535.429 275L535.429 275.5L539.371 275.5L539.371 275L539.371 274.5L535.429 274.5L535.429 275ZM543.314 275L543.314 275.5L547.257 275.5L547.257 275L547.257 274.5L543.314 274.5L543.314 275ZM551.2 275L551.2 275.5L555.143 275.5L555.143 275L555.143 274.5L551.2 274.5L551.2 275ZM559.086 275L559.086 275.5L563.029 275.5L563.029 275L563.029 274.5L559.086 274.5L559.086 275ZM566.971 275L566.971 275.5L570.914 275.5L570.914 275L570.914 274.5L566.971 274.5L566.971 275ZM574.857 275L574.857 275.5L578.8 275.5L578.8 275L578.8 274.5L574.857 274.5L574.857 275ZM582.743 275L582.743 275.5L586.686 275.5L586.686 275L586.686 274.5L582.743 274.5L582.743 275ZM590.629 275L590.629 275.5L594.571 275.5L594.571 275L594.571 274.5L590.629 274.5L590.629 275ZM598.514 275L598.514 275.5L602.457 275.5L602.457 275L602.457 274.5L598.514 274.5L598.514 275ZM606.4 275L606.4 275.5L610.343 275.5L610.343 275L610.343 274.5L606.4 274.5L606.4 275ZM614.286 275L614.286 275.5L618.229 275.5L618.229 275L618.229 274.5L614.286 274.5L614.286 275ZM622.171 275L622.171 275.5L626.114 275.5L626.114 275L626.114 274.5L622.171 274.5L622.171 275ZM630.057 275L630.057 275.5L634 275.5L634 275L634 274.5L630.057 274.5L630.057 275ZM637.943 275L637.943 275.5L641.886 275.5L641.886 275L641.886 274.5L637.943 274.5L637.943 275ZM645.829 275L645.829 275.5L649.771 275.5L649.771 275L649.771 274.5L645.829 274.5L645.829 275ZM653.714 275L653.714 275.5L657.657 275.5L657.657 275L657.657 274.5L653.714 274.5L653.714 275ZM661.6 275L661.6 275.5L665.543 275.5L665.543 275L665.543 274.5L661.6 274.5L661.6 275ZM669.486 275L669.486 275.5L673.429 275.5L673.429 275L673.429 274.5L669.486 274.5L669.486 275ZM677.371 275L677.371 275.5L681.314 275.5L681.314 275L681.314 274.5L677.371 274.5L677.371 275ZM685.257 275L685.257 275.5L689.2 275.5L689.2 275L689.2 274.5L685.257 274.5L685.257 275ZM693.143 275L693.143 275.5L697.086 275.5L697.086 275L697.086 274.5L693.143 274.5L693.143 275ZM701.029 275L701.029 275.5L703 275.5L703 275L703 274.5L701.029 274.5L701.029 275ZM703 275L703 275.5C703.502 275.5 703.991 275.549 704.464 275.643L704.561 275.152L704.658 274.662C704.122 274.556 703.567 274.5 703 274.5L703 275ZM707.445 276.347L707.167 276.763C707.985 277.311 708.689 278.015 709.237 278.833L709.653 278.555L710.068 278.277C709.448 277.35 708.65 276.552 707.723 275.932L707.445 276.347ZM710.848 281.439L710.357 281.536C710.451 282.009 710.5 282.498 710.5 283L711 283L711.5 283C711.5 282.433 711.444 281.878 711.338 281.342L710.848 281.439ZM711 283L710.5 283L710.5 284.987L711 284.987L711.5 284.987L711.5 283L711 283ZM711 288.961L710.5 288.961L710.5 292.934L711 292.934L711.5 292.934L711.5 288.961L711 288.961ZM711 296.908L710.5 296.908L710.5 300.882L711 300.882L711.5 300.882L711.5 296.908L711 296.908ZM711 304.855L710.5 304.855L710.5 308.829L711 308.829L711.5 308.829L711.5 304.855L711 304.855ZM711 312.803L710.5 312.803L710.5 316.776L711 316.776L711.5 316.776L711.5 312.803L711 312.803ZM711 320.75L710.5 320.75L710.5 324.724L711 324.724L711.5 324.724L711.5 320.75L711 320.75ZM711 328.697L710.5 328.697L710.5 332.671L711 332.671L711.5 332.671L711.5 328.697L711 328.697ZM711 336.645L710.5 336.645L710.5 340.618L711 340.618L711.5 340.618L711.5 336.645L711 336.645ZM711 344.592L710.5 344.592L710.5 348.566L711 348.566L711.5 348.566L711.5 344.592L711 344.592ZM711 352.539L710.5 352.539L710.5 356.513L711 356.513L711.5 356.513L711.5 352.539L711 352.539ZM711 360.487L710.5 360.487L710.5 364.461L711 364.461L711.5 364.461L711.5 360.487L711 360.487ZM711 368.434L710.5 368.434L710.5 372.408L711 372.408L711.5 372.408L711.5 368.434L711 368.434ZM711 376.382L710.5 376.382L710.5 380.355L711 380.355L711.5 380.355L711.5 376.382L711 376.382ZM711 384.329L710.5 384.329L710.5 388.303L711 388.303L711.5 388.303L711.5 384.329L711 384.329ZM711 392.276L710.5 392.276L710.5 396.25L711 396.25L711.5 396.25L711.5 392.276L711 392.276ZM711 400.224L710.5 400.224L710.5 404.197L711 404.197L711.5 404.197L711.5 400.224L711 400.224ZM711 408.171L710.5 408.171L710.5 412.145L711 412.145L711.5 412.145L711.5 408.171L711 408.171ZM711 416.118L710.5 416.118L710.5 420.092L711 420.092L711.5 420.092L711.5 416.118L711 416.118ZM711 424.066L710.5 424.066L710.5 428.039L711 428.039L711.5 428.039L711.5 424.066L711 424.066ZM711 432.013L710.5 432.013L710.5 434L711 434L711.5 434L711.5 432.013L711 432.013ZM711 434L710.5 434C710.5 434.502 710.451 434.991 710.357 435.464L710.848 435.561L711.338 435.658C711.444 435.122 711.5 434.567 711.5 434L711 434ZM709.653 438.445L709.237 438.167C708.689 438.985 707.985 439.689 707.167 440.237L707.445 440.653L707.723 441.068C708.65 440.448 709.448 439.65 710.068 438.723L709.653 438.445ZM704.561 441.848L704.464 441.357C703.991 441.451 703.502 441.5 703 441.5L703 442L703 442.5C703.567 442.5 704.122 442.444 704.658 442.338L704.561 441.848ZM703 442L703 441.5L701.029 441.5L701.029 442L701.029 442.5L703 442.5L703 442ZM697.086 442L697.086 441.5L693.143 441.5L693.143 442L693.143 442.5L697.086 442.5L697.086 442ZM689.2 442L689.2 441.5L685.257 441.5L685.257 442L685.257 442.5L689.2 442.5L689.2 442ZM681.314 442L681.314 441.5L677.371 441.5L677.371 442L677.371 442.5L681.314 442.5L681.314 442ZM673.429 442L673.429 441.5L669.486 441.5L669.486 442L669.486 442.5L673.429 442.5L673.429 442ZM665.543 442L665.543 441.5L661.6 441.5L661.6 442L661.6 442.5L665.543 442.5L665.543 442ZM657.657 442L657.657 441.5L653.714 441.5L653.714 442L653.714 442.5L657.657 442.5L657.657 442ZM649.771 442L649.771 441.5L645.829 441.5L645.829 442L645.829 442.5L649.771 442.5L649.771 442ZM641.886 442L641.886 441.5L637.943 441.5L637.943 442L637.943 442.5L641.886 442.5L641.886 442ZM634 442L634 441.5L630.057 441.5L630.057 442L630.057 442.5L634 442.5L634 442ZM626.114 442L626.114 441.5L622.171 441.5L622.171 442L622.171 442.5L626.114 442.5L626.114 442ZM618.229 442L618.229 441.5L614.286 441.5L614.286 442L614.286 442.5L618.229 442.5L618.229 442ZM610.343 442L610.343 441.5L606.4 441.5L606.4 442L606.4 442.5L610.343 442.5L610.343 442ZM602.457 442L602.457 441.5L598.514 441.5L598.514 442L598.514 442.5L602.457 442.5L602.457 442ZM594.571 442L594.571 441.5L590.629 441.5L590.629 442L590.629 442.5L594.571 442.5L594.571 442ZM586.686 442L586.686 441.5L582.743 441.5L582.743 442L582.743 442.5L586.686 442.5L586.686 442ZM578.8 442L578.8 441.5L574.857 441.5L574.857 442L574.857 442.5L578.8 442.5L578.8 442ZM570.914 442L570.914 441.5L566.971 441.5L566.971 442L566.971 442.5L570.914 442.5L570.914 442ZM563.029 442L563.029 441.5L559.086 441.5L559.086 442L559.086 442.5L563.029 442.5L563.029 442ZM555.143 442L555.143 441.5L551.2 441.5L551.2 442L551.2 442.5L555.143 442.5L555.143 442ZM547.257 442L547.257 441.5L543.314 441.5L543.314 442L543.314 442.5L547.257 442.5L547.257 442ZM539.371 442L539.371 441.5L535.429 441.5L535.429 442L535.429 442.5L539.371 442.5L539.371 442ZM531.486 442L531.486 441.5L527.543 441.5L527.543 442L527.543 442.5L531.486 442.5L531.486 442ZM523.6 442L523.6 441.5L519.657 441.5L519.657 442L519.657 442.5L523.6 442.5L523.6 442ZM515.714 442L515.714 441.5L511.771 441.5L511.771 442L511.771 442.5L515.714 442.5L515.714 442ZM507.829 442L507.829 441.5L503.886 441.5L503.886 442L503.886 442.5L507.829 442.5L507.829 442ZM499.943 442L499.943 441.5L496 441.5L496 442L496 442.5L499.943 442.5L499.943 442ZM492.057 442L492.057 441.5L488.114 441.5L488.114 442L488.114 442.5L492.057 442.5L492.057 442ZM484.171 442L484.171 441.5L480.229 441.5L480.229 442L480.229 442.5L484.171 442.5L484.171 442ZM476.286 442L476.286 441.5L472.343 441.5L472.343 442L472.343 442.5L476.286 442.5L476.286 442ZM468.4 442L468.4 441.5L464.457 441.5L464.457 442L464.457 442.5L468.4 442.5L468.4 442ZM460.514 442L460.514 441.5L456.571 441.5L456.571 442L456.571 442.5L460.514 442.5L460.514 442ZM452.629 442L452.629 441.5L448.686 441.5L448.686 442L448.686 442.5L452.629 442.5L452.629 442ZM444.743 442L444.743 441.5L440.8 441.5L440.8 442L440.8 442.5L444.743 442.5L444.743 442ZM436.857 442L436.857 441.5L432.914 441.5L432.914 442L432.914 442.5L436.857 442.5L436.857 442ZM428.971 442L428.971 441.5L427 441.5L427 442L427 442.5L428.971 442.5L428.971 442ZM427 442L427 441.5C426.498 441.5 426.009 441.451 425.536 441.357L425.439 441.848L425.342 442.338C425.878 442.444 426.433 442.5 427 442.5L427 442ZM422.555 440.653L422.833 440.237C422.015 439.689 421.311 438.985 420.763 438.167L420.347 438.445L419.932 438.723C420.552 439.65 421.35 440.448 422.277 441.068L422.555 440.653ZM419.152 435.561L419.643 435.464C419.549 434.991 419.5 434.502 419.5 434L419 434L418.5 434C418.5 434.567 418.556 435.122 418.662 435.658L419.152 435.561ZM419 434L419.5 434L419.5 432.013L419 432.013L418.5 432.013L418.5 434L419 434ZM419 428.039L419.5 428.039L419.5 424.066L419 424.066L418.5 424.066L418.5 428.039L419 428.039ZM419 420.092L419.5 420.092L419.5 416.118L419 416.118L418.5 416.118L418.5 420.092L419 420.092ZM419 412.145L419.5 412.145L419.5 408.171L419 408.171L418.5 408.171L418.5 412.145L419 412.145ZM419 404.197L419.5 404.197L419.5 400.224L419 400.224L418.5 400.224L418.5 404.197L419 404.197ZM419 396.25L419.5 396.25L419.5 392.276L419 392.276L418.5 392.276L418.5 396.25L419 396.25ZM419 388.303L419.5 388.303L419.5 384.329L419 384.329L418.5 384.329L418.5 388.303L419 388.303ZM419 380.355L419.5 380.355L419.5 376.382L419 376.382L418.5 376.382L418.5 380.355L419 380.355ZM419 372.408L419.5 372.408L419.5 368.434L419 368.434L418.5 368.434L418.5 372.408L419 372.408ZM419 364.461L419.5 364.461L419.5 360.487L419 360.487L418.5 360.487L418.5 364.461L419 364.461ZM419 356.513L419.5 356.513L419.5 352.539L419 352.539L418.5 352.539L418.5 356.513L419 356.513ZM419 348.566L419.5 348.566L419.5 344.592L419 344.592L418.5 344.592L418.5 348.566L419 348.566ZM419 340.618L419.5 340.618L419.5 336.645L419 336.645L418.5 336.645L418.5 340.618L419 340.618ZM419 332.671L419.5 332.671L419.5 328.697L419 328.697L418.5 328.697L418.5 332.671L419 332.671ZM419 324.724L419.5 324.724L419.5 320.75L419 320.75L418.5 320.75L418.5 324.724L419 324.724ZM419 316.776L419.5 316.776L419.5 312.803L419 312.803L418.5 312.803L418.5 316.776L419 316.776ZM419 308.829L419.5 308.829L419.5 304.855L419 304.855L418.5 304.855L418.5 308.829L419 308.829ZM419 300.882L419.5 300.882L419.5 296.908L419 296.908L418.5 296.908L418.5 300.882L419 300.882ZM419 292.934L419.5 292.934L419.5 288.961L419 288.961L418.5 288.961L418.5 292.934L419 292.934ZM419 284.987L419.5 284.987L419.5 283L419 283L418.5 283L418.5 284.987L419 284.987Z" fill="white"/>
<path d="M371 175C375.418 175 379 178.582 379 183L379 537C379 541.418 375.418 545 371 545L95 545C90.5817 545 87 541.418 87 537L87 183C87 178.582 90.5818 175 95 175L371 175Z" fill="white" fill-opacity="0.05"/>
<path d="M87 183L87.5 183C87.5 182.498 87.5492 182.009 87.6428 181.536L87.1523 181.439L86.6618 181.342C86.5556 181.878 86.5 182.433 86.5 183L87 183ZM88.3475 178.555L88.763 178.833C89.3107 178.015 90.0152 177.311 90.8333 176.763L90.5551 176.347L90.2769 175.932C89.3502 176.552 88.5525 177.35 87.932 178.277L88.3475 178.555ZM93.4387 175.152L93.5358 175.643C94.0089 175.549 94.4985 175.5 95 175.5L95 175L95 174.5C94.433 174.5 93.8784 174.556 93.3417 174.662L93.4387 175.152ZM95 175L95 175.5L97.0294 175.5L97.0294 175L97.0294 174.5L95 174.5L95 175ZM101.088 175L101.088 175.5L105.147 175.5L105.147 175L105.147 174.5L101.088 174.5L101.088 175ZM109.206 175L109.206 175.5L113.265 175.5L113.265 175L113.265 174.5L109.206 174.5L109.206 175ZM117.324 175L117.324 175.5L121.382 175.5L121.382 175L121.382 174.5L117.324 174.5L117.324 175ZM125.441 175L125.441 175.5L129.5 175.5L129.5 175L129.5 174.5L125.441 174.5L125.441 175ZM133.559 175L133.559 175.5L137.618 175.5L137.618 175L137.618 174.5L133.559 174.5L133.559 175ZM141.676 175L141.676 175.5L145.735 175.5L145.735 175L145.735 174.5L141.676 174.5L141.676 175ZM149.794 175L149.794 175.5L153.853 175.5L153.853 175L153.853 174.5L149.794 174.5L149.794 175ZM157.912 175L157.912 175.5L161.971 175.5L161.971 175L161.971 174.5L157.912 174.5L157.912 175ZM166.029 175L166.029 175.5L170.088 175.5L170.088 175L170.088 174.5L166.029 174.5L166.029 175ZM174.147 175L174.147 175.5L178.206 175.5L178.206 175L178.206 174.5L174.147 174.5L174.147 175ZM182.265 175L182.265 175.5L186.324 175.5L186.324 175L186.324 174.5L182.265 174.5L182.265 175ZM190.382 175L190.382 175.5L194.441 175.5L194.441 175L194.441 174.5L190.382 174.5L190.382 175ZM198.5 175L198.5 175.5L202.559 175.5L202.559 175L202.559 174.5L198.5 174.5L198.5 175ZM206.618 175L206.618 175.5L210.676 175.5L210.676 175L210.676 174.5L206.618 174.5L206.618 175ZM214.735 175L214.735 175.5L218.794 175.5L218.794 175L218.794 174.5L214.735 174.5L214.735 175ZM222.853 175L222.853 175.5L226.912 175.5L226.912 175L226.912 174.5L222.853 174.5L222.853 175ZM230.971 175L230.971 175.5L235.029 175.5L235.029 175L235.029 174.5L230.971 174.5L230.971 175ZM239.088 175L239.088 175.5L243.147 175.5L243.147 175L243.147 174.5L239.088 174.5L239.088 175ZM247.206 175L247.206 175.5L251.265 175.5L251.265 175L251.265 174.5L247.206 174.5L247.206 175ZM255.324 175L255.324 175.5L259.382 175.5L259.382 175L259.382 174.5L255.324 174.5L255.324 175ZM263.441 175L263.441 175.5L267.5 175.5L267.5 175L267.5 174.5L263.441 174.5L263.441 175ZM271.559 175L271.559 175.5L275.618 175.5L275.618 175L275.618 174.5L271.559 174.5L271.559 175ZM279.676 175L279.676 175.5L283.735 175.5L283.735 175L283.735 174.5L279.676 174.5L279.676 175ZM287.794 175L287.794 175.5L291.853 175.5L291.853 175L291.853 174.5L287.794 174.5L287.794 175ZM295.912 175L295.912 175.5L299.971 175.5L299.971 175L299.971 174.5L295.912 174.5L295.912 175ZM304.029 175L304.029 175.5L308.088 175.5L308.088 175L308.088 174.5L304.029 174.5L304.029 175ZM312.147 175L312.147 175.5L316.206 175.5L316.206 175L316.206 174.5L312.147 174.5L312.147 175ZM320.265 175L320.265 175.5L324.324 175.5L324.324 175L324.324 174.5L320.265 174.5L320.265 175ZM328.382 175L328.382 175.5L332.441 175.5L332.441 175L332.441 174.5L328.382 174.5L328.382 175ZM336.5 175L336.5 175.5L340.559 175.5L340.559 175L340.559 174.5L336.5 174.5L336.5 175ZM344.618 175L344.618 175.5L348.676 175.5L348.676 175L348.676 174.5L344.618 174.5L344.618 175ZM352.735 175L352.735 175.5L356.794 175.5L356.794 175L356.794 174.5L352.735 174.5L352.735 175ZM360.853 175L360.853 175.5L364.912 175.5L364.912 175L364.912 174.5L360.853 174.5L360.853 175ZM368.971 175L368.971 175.5L371 175.5L371 175L371 174.5L368.971 174.5L368.971 175ZM371 175L371 175.5C371.502 175.5 371.991 175.549 372.464 175.643L372.561 175.152L372.658 174.662C372.122 174.556 371.567 174.5 371 174.5L371 175ZM375.445 176.347L375.167 176.763C375.985 177.311 376.689 178.015 377.237 178.833L377.653 178.555L378.068 178.277C377.448 177.35 376.65 176.552 375.723 175.932L375.445 176.347ZM378.848 181.439L378.357 181.536C378.451 182.009 378.5 182.498 378.5 183L379 183L379.5 183C379.5 182.433 379.444 181.878 379.338 181.342L378.848 181.439ZM379 183L378.5 183L378.5 185.011L379 185.011L379.5 185.011L379.5 183L379 183ZM379 189.034L378.5 189.034L378.5 193.057L379 193.057L379.5 193.057L379.5 189.034L379 189.034ZM379 197.08L378.5 197.08L378.5 201.102L379 201.102L379.5 201.102L379.5 197.08L379 197.08ZM379 205.125L378.5 205.125L378.5 209.148L379 209.148L379.5 209.148L379.5 205.125L379 205.125ZM379 213.17L378.5 213.17L378.5 217.193L379 217.193L379.5 217.193L379.5 213.17L379 213.17ZM379 221.216L378.5 221.216L378.5 225.239L379 225.239L379.5 225.239L379.5 221.216L379 221.216ZM379 229.261L378.5 229.261L378.5 233.284L379 233.284L379.5 233.284L379.5 229.261L379 229.261ZM379 237.307L378.5 237.307L378.5 241.33L379 241.33L379.5 241.33L379.5 237.307L379 237.307ZM379 245.352L378.5 245.352L378.5 249.375L379 249.375L379.5 249.375L379.5 245.352L379 245.352ZM379 253.398L378.5 253.398L378.5 257.42L379 257.42L379.5 257.42L379.5 253.398L379 253.398ZM379 261.443L378.5 261.443L378.5 265.466L379 265.466L379.5 265.466L379.5 261.443L379 261.443ZM379 269.489L378.5 269.489L378.5 273.511L379 273.511L379.5 273.511L379.5 269.489L379 269.489ZM379 277.534L378.5 277.534L378.5 281.557L379 281.557L379.5 281.557L379.5 277.534L379 277.534ZM379 285.58L378.5 285.58L378.5 289.602L379 289.602L379.5 289.602L379.5 285.58L379 285.58ZM379 293.625L378.5 293.625L378.5 297.648L379 297.648L379.5 297.648L379.5 293.625L379 293.625ZM379 301.67L378.5 301.67L378.5 305.693L379 305.693L379.5 305.693L379.5 301.67L379 301.67ZM379 309.716L378.5 309.716L378.5 313.739L379 313.739L379.5 313.739L379.5 309.716L379 309.716ZM379 317.761L378.5 317.761L378.5 321.784L379 321.784L379.5 321.784L379.5 317.761L379 317.761ZM379 325.807L378.5 325.807L378.5 329.83L379 329.83L379.5 329.83L379.5 325.807L379 325.807ZM379 333.852L378.5 333.852L378.5 337.875L379 337.875L379.5 337.875L379.5 333.852L379 333.852ZM379 341.898L378.5 341.898L378.5 345.92L379 345.92L379.5 345.92L379.5 341.898L379 341.898ZM379 349.943L378.5 349.943L378.5 353.966L379 353.966L379.5 353.966L379.5 349.943L379 349.943ZM379 357.989L378.5 357.989L378.5 362.011L379 362.011L379.5 362.011L379.5 357.989L379 357.989ZM379 366.034L378.5 366.034L378.5 370.057L379 370.057L379.5 370.057L379.5 366.034L379 366.034ZM379 374.079L378.5 374.079L378.5 378.102L379 378.102L379.5 378.102L379.5 374.079L379 374.079ZM379 382.125L378.5 382.125L378.5 386.148L379 386.148L379.5 386.148L379.5 382.125L379 382.125ZM379 390.17L378.5 390.17L378.5 394.193L379 394.193L379.5 394.193L379.5 390.17L379 390.17ZM379 398.216L378.5 398.216L378.5 402.238L379 402.238L379.5 402.238L379.5 398.216L379 398.216ZM379 406.261L378.5 406.261L378.5 410.284L379 410.284L379.5 410.284L379.5 406.261L379 406.261ZM379 414.307L378.5 414.307L378.5 418.329L379 418.329L379.5 418.329L379.5 414.307L379 414.307ZM379 422.352L378.5 422.352L378.5 426.375L379 426.375L379.5 426.375L379.5 422.352L379 422.352ZM379 430.398L378.5 430.398L378.5 434.42L379 434.42L379.5 434.42L379.5 430.398L379 430.398ZM379 438.443L378.5 438.443L378.5 442.466L379 442.466L379.5 442.466L379.5 438.443L379 438.443ZM379 446.488L378.5 446.488L378.5 450.511L379 450.511L379.5 450.511L379.5 446.488L379 446.488ZM379 454.534L378.5 454.534L378.5 458.557L379 458.557L379.5 458.557L379.5 454.534L379 454.534ZM379 462.579L378.5 462.579L378.5 466.602L379 466.602L379.5 466.602L379.5 462.579L379 462.579ZM379 470.625L378.5 470.625L378.5 474.648L379 474.648L379.5 474.648L379.5 470.625L379 470.625ZM379 478.67L378.5 478.67L378.5 482.693L379 482.693L379.5 482.693L379.5 478.67L379 478.67ZM379 486.716L378.5 486.716L378.5 490.739L379 490.739L379.5 490.739L379.5 486.716L379 486.716ZM379 494.761L378.5 494.761L378.5 498.784L379 498.784L379.5 498.784L379.5 494.761L379 494.761ZM379 502.807L378.5 502.807L378.5 506.829L379 506.829L379.5 506.829L379.5 502.807L379 502.807ZM379 510.852L378.5 510.852L378.5 514.875L379 514.875L379.5 514.875L379.5 510.852L379 510.852ZM379 518.898L378.5 518.898L378.5 522.92L379 522.92L379.5 522.92L379.5 518.898L379 518.898ZM379 526.943L378.5 526.943L378.5 530.966L379 530.966L379.5 530.966L379.5 526.943L379 526.943ZM379 534.989L378.5 534.989L378.5 537L379 537L379.5 537L379.5 534.989L379 534.989ZM379 537L378.5 537C378.5 537.502 378.451 537.991 378.357 538.464L378.848 538.561L379.338 538.658C379.444 538.122 379.5 537.567 379.5 537L379 537ZM377.653 541.445L377.237 541.167C376.689 541.985 375.985 542.689 375.167 543.237L375.445 543.653L375.723 544.068C376.65 543.448 377.448 542.65 378.068 541.723L377.653 541.445ZM372.561 544.848L372.464 544.357C371.991 544.451 371.502 544.5 371 544.5L371 545L371 545.5C371.567 545.5 372.122 545.444 372.658 545.338L372.561 544.848ZM371 545L371 544.5L368.971 544.5L368.971 545L368.971 545.5L371 545.5L371 545ZM364.912 545L364.912 544.5L360.853 544.5L360.853 545L360.853 545.5L364.912 545.5L364.912 545ZM356.794 545L356.794 544.5L352.735 544.5L352.735 545L352.735 545.5L356.794 545.5L356.794 545ZM348.676 545L348.676 544.5L344.618 544.5L344.618 545L344.618 545.5L348.676 545.5L348.676 545ZM340.559 545L340.559 544.5L336.5 544.5L336.5 545L336.5 545.5L340.559 545.5L340.559 545ZM332.441 545L332.441 544.5L328.382 544.5L328.382 545L328.382 545.5L332.441 545.5L332.441 545ZM324.324 545L324.324 544.5L320.265 544.5L320.265 545L320.265 545.5L324.324 545.5L324.324 545ZM316.206 545L316.206 544.5L312.147 544.5L312.147 545L312.147 545.5L316.206 545.5L316.206 545ZM308.088 545L308.088 544.5L304.029 544.5L304.029 545L304.029 545.5L308.088 545.5L308.088 545ZM299.971 545L299.971 544.5L295.912 544.5L295.912 545L295.912 545.5L299.971 545.5L299.971 545ZM291.853 545L291.853 544.5L287.794 544.5L287.794 545L287.794 545.5L291.853 545.5L291.853 545ZM283.735 545L283.735 544.5L279.676 544.5L279.676 545L279.676 545.5L283.735 545.5L283.735 545ZM275.618 545L275.618 544.5L271.559 544.5L271.559 545L271.559 545.5L275.618 545.5L275.618 545ZM267.5 545L267.5 544.5L263.441 544.5L263.441 545L263.441 545.5L267.5 545.5L267.5 545ZM259.382 545L259.382 544.5L255.324 544.5L255.324 545L255.324 545.5L259.382 545.5L259.382 545ZM251.265 545L251.265 544.5L247.206 544.5L247.206 545L247.206 545.5L251.265 545.5L251.265 545ZM243.147 545L243.147 544.5L239.088 544.5L239.088 545L239.088 545.5L243.147 545.5L243.147 545ZM235.029 545L235.029 544.5L230.971 544.5L230.971 545L230.971 545.5L235.029 545.5L235.029 545ZM226.912 545L226.912 544.5L222.853 544.5L222.853 545L222.853 545.5L226.912 545.5L226.912 545ZM218.794 545L218.794 544.5L214.735 544.5L214.735 545L214.735 545.5L218.794 545.5L218.794 545ZM210.676 545L210.676 544.5L206.618 544.5L206.618 545L206.618 545.5L210.676 545.5L210.676 545ZM202.559 545L202.559 544.5L198.5 544.5L198.5 545L198.5 545.5L202.559 545.5L202.559 545ZM194.441 545L194.441 544.5L190.382 544.5L190.382 545L190.382 545.5L194.441 545.5L194.441 545ZM186.324 545L186.324 544.5L182.265 544.5L182.265 545L182.265 545.5L186.324 545.5L186.324 545ZM178.206 545L178.206 544.5L174.147 544.5L174.147 545L174.147 545.5L178.206 545.5L178.206 545ZM170.088 545L170.088 544.5L166.029 544.5L166.029 545L166.029 545.5L170.088 545.5L170.088 545ZM161.971 545L161.971 544.5L157.912 544.5L157.912 545L157.912 545.5L161.971 545.5L161.971 545ZM153.853 545L153.853 544.5L149.794 544.5L149.794 545L149.794 545.5L153.853 545.5L153.853 545ZM145.735 545L145.735 544.5L141.676 544.5L141.676 545L141.676 545.5L145.735 545.5L145.735 545ZM137.618 545L137.618 544.5L133.559 544.5L133.559 545L133.559 545.5L137.618 545.5L137.618 545ZM129.5 545L129.5 544.5L125.441 544.5L125.441 545L125.441 545.5L129.5 545.5L129.5 545ZM121.382 545L121.382 544.5L117.324 544.5L117.324 545L117.324 545.5L121.382 545.5L121.382 545ZM113.265 545L113.265 544.5L109.206 544.5L109.206 545L109.206 545.5L113.265 545.5L113.265 545ZM105.147 545L105.147 544.5L101.088 544.5L101.088 545L101.088 545.5L105.147 545.5L105.147 545ZM97.0294 545L97.0294 544.5L95 544.5L95 545L95 545.5L97.0294 545.5L97.0294 545ZM95 545L95 544.5C94.4985 544.5 94.0089 544.451 93.5358 544.357L93.4387 544.848L93.3417 545.338C93.8784 545.444 94.433 545.5 95 545.5L95 545ZM90.5551 543.653L90.8332 543.237C90.0152 542.689 89.3107 541.985 88.763 541.167L88.3475 541.445L87.932 541.723C88.5524 542.65 89.3502 543.448 90.2769 544.068L90.5551 543.653ZM87.1523 538.561L87.6428 538.464C87.5492 537.991 87.5 537.502 87.5 537L87 537L86.5 537C86.5 537.567 86.5556 538.122 86.6618 538.658L87.1523 538.561ZM87 537L87.5 537L87.5 534.989L87 534.989L86.5 534.989L86.5 537L87 537ZM87 530.966L87.5 530.966L87.5 526.943L87 526.943L86.5 526.943L86.5 530.966L87 530.966ZM87 522.92L87.5 522.92L87.5 518.898L87 518.898L86.5 518.898L86.5 522.92L87 522.92ZM87 514.875L87.5 514.875L87.5 510.852L87 510.852L86.5 510.852L86.5 514.875L87 514.875ZM87 506.83L87.5 506.83L87.5 502.807L87 502.807L86.5 502.807L86.5 506.83L87 506.83ZM87 498.784L87.5 498.784L87.5 494.761L87 494.761L86.5 494.761L86.5 498.784L87 498.784ZM87 490.739L87.5 490.739L87.5 486.716L87 486.716L86.5 486.716L86.5 490.739L87 490.739ZM87 482.693L87.5 482.693L87.5 478.67L87 478.67L86.5 478.67L86.5 482.693L87 482.693ZM87 474.648L87.5 474.648L87.5 470.625L87 470.625L86.5 470.625L86.5 474.648L87 474.648ZM87 466.602L87.5 466.602L87.5 462.58L87 462.58L86.5 462.58L86.5 466.602L87 466.602ZM87 458.557L87.5 458.557L87.5 454.534L87 454.534L86.5 454.534L86.5 458.557L87 458.557ZM87 450.511L87.5 450.511L87.5 446.489L87 446.489L86.5 446.489L86.5 450.511L87 450.511ZM87 442.466L87.5 442.466L87.5 438.443L87 438.443L86.5 438.443L86.5 442.466L87 442.466ZM87 434.42L87.5 434.42L87.5 430.398L87 430.398L86.5 430.398L86.5 434.42L87 434.42ZM87 426.375L87.5 426.375L87.5 422.352L87 422.352L86.5 422.352L86.5 426.375L87 426.375ZM87 418.33L87.5 418.33L87.5 414.307L87 414.307L86.5 414.307L86.5 418.33L87 418.33ZM87 410.284L87.5 410.284L87.5 406.261L87 406.261L86.5 406.261L86.5 410.284L87 410.284ZM87 402.239L87.5 402.239L87.5 398.216L87 398.216L86.5 398.216L86.5 402.239L87 402.239ZM87 394.193L87.5 394.193L87.5 390.17L87 390.17L86.5 390.17L86.5 394.193L87 394.193ZM87 386.148L87.5 386.148L87.5 382.125L87 382.125L86.5 382.125L86.5 386.148L87 386.148ZM87 378.102L87.5 378.102L87.5 374.08L87 374.08L86.5 374.08L86.5 378.102L87 378.102ZM87 370.057L87.5 370.057L87.5 366.034L87 366.034L86.5 366.034L86.5 370.057L87 370.057ZM87 362.011L87.5 362.011L87.5 357.989L87 357.989L86.5 357.989L86.5 362.011L87 362.011ZM87 353.966L87.5 353.966L87.5 349.943L87 349.943L86.5 349.943L86.5 353.966L87 353.966ZM87 345.921L87.5 345.921L87.5 341.898L87 341.898L86.5 341.898L86.5 345.921L87 345.921ZM87 337.875L87.5 337.875L87.5 333.852L87 333.852L86.5 333.852L86.5 337.875L87 337.875ZM87 329.83L87.5 329.83L87.5 325.807L87 325.807L86.5 325.807L86.5 329.83L87 329.83ZM87 321.784L87.5 321.784L87.5 317.762L87 317.762L86.5 317.762L86.5 321.784L87 321.784ZM87 313.739L87.5 313.739L87.5 309.716L87 309.716L86.5 309.716L86.5 313.739L87 313.739ZM87 305.693L87.5 305.693L87.5 301.671L87 301.671L86.5 301.671L86.5 305.693L87 305.693ZM87 297.648L87.5 297.648L87.5 293.625L87 293.625L86.5 293.625L86.5 297.648L87 297.648ZM87 289.602L87.5 289.602L87.5 285.58L87 285.58L86.5 285.58L86.5 289.602L87 289.602ZM87 281.557L87.5 281.557L87.5 277.534L87 277.534L86.5 277.534L86.5 281.557L87 281.557ZM87 273.512L87.5 273.512L87.5 269.489L87 269.489L86.5 269.489L86.5 273.512L87 273.512ZM87 265.466L87.5 265.466L87.5 261.443L87 261.443L86.5 261.443L86.5 265.466L87 265.466ZM87 257.421L87.5 257.421L87.5 253.398L87 253.398L86.5 253.398L86.5 257.421L87 257.421ZM87 249.375L87.5 249.375L87.5 245.352L87 245.352L86.5 245.352L86.5 249.375L87 249.375ZM87 241.33L87.5 241.33L87.5 237.307L87 237.307L86.5 237.307L86.5 241.33L87 241.33ZM87 233.284L87.5 233.284L87.5 229.261L87 229.261L86.5 229.261L86.5 233.284L87 233.284ZM87 225.239L87.5 225.239L87.5 221.216L87 221.216L86.5 221.216L86.5 225.239L87 225.239ZM87 217.193L87.5 217.193L87.5 213.171L87 213.171L86.5 213.171L86.5 217.193L87 217.193ZM87 209.148L87.5 209.148L87.5 205.125L87 205.125L86.5 205.125L86.5 209.148L87 209.148ZM87 201.102L87.5 201.102L87.5 197.08L87 197.08L86.5 197.08L86.5 201.102L87 201.102ZM87 193.057L87.5 193.057L87.5 189.034L87 189.034L86.5 189.034L86.5 193.057L87 193.057ZM87 185.011L87.5 185.011L87.5 183L87 183L86.5 183L86.5 185.011L87 185.011Z" fill="white"/>
<path d="M103 246C103 241.582 106.582 238 111 238H355C359.418 238 363 241.582 363 246V269C363 273.418 359.418 277 355 277H111C106.582 277 103 273.418 103 269V246Z" fill="white" fill-opacity="0.2"/>
<text fill="white" style="white-space: pre" xml:space="preserve" font-family="Red Hat Mono" font-size="16" font-weight="600" letter-spacing="0em"><tspan x="185.031" y="263.204">User Input</tspan></text>
<path d="M103 501C103 496.582 106.582 493 111 493H355C359.418 493 363 496.582 363 501V524C363 528.418 359.418 532 355 532H111C106.582 532 103 528.418 103 524V501Z" fill="#E66A32" fill-opacity="0.25"/>
<text fill="white" style="white-space: pre" xml:space="preserve" font-family="Red Hat Mono" font-size="16" font-weight="600" letter-spacing="0em"><tspan x="185.031" y="518.204">User Input</tspan></text>
<path d="M103 399C103 394.582 106.582 391 111 391H355C359.418 391 363 394.582 363 399V422C363 426.418 359.418 430 355 430H111C106.582 430 103 426.418 103 422V399Z" fill="white" fill-opacity="0.2"/>
<text fill="white" style="white-space: pre" xml:space="preserve" font-family="Red Hat Mono" font-size="16" font-weight="600" letter-spacing="0em"><tspan x="185.031" y="416.204">User Input</tspan></text>
<path d="M103 195C103 190.582 106.582 187 111 187H355C359.418 187 363 190.582 363 195V218C363 222.418 359.418 226 355 226H111C106.582 226 103 222.418 103 218V195Z" fill="white" fill-opacity="0.2"/>
<text fill="white" style="white-space: pre" xml:space="preserve" font-family="Red Hat Mono" font-size="16" font-weight="600" letter-spacing="0em"><tspan x="170.641" y="212.204">System Prompt</tspan></text>
<path d="M103 450C103 445.582 106.582 442 111 442H355C359.418 442 363 445.582 363 450V473C363 477.418 359.418 481 355 481H111C106.582 481 103 477.418 103 473V450Z" fill="white" fill-opacity="0.2"/>
<text fill="white" style="white-space: pre" xml:space="preserve" font-family="Red Hat Mono" font-size="16" font-weight="600" letter-spacing="0em"><tspan x="146.656" y="467.204">Assistant Response</tspan></text>
<path d="M103 297C103 292.582 106.582 289 111 289H355C359.418 289 363 292.582 363 297V320C363 324.418 359.418 328 355 328H111C106.582 328 103 324.418 103 320V297Z" fill="white" fill-opacity="0.2"/>
<text fill="white" style="white-space: pre" xml:space="preserve" font-family="Red Hat Mono" font-size="16" font-weight="600" letter-spacing="0em"><tspan x="146.656" y="314.204">Assistant Response</tspan></text>
<text fill="white" style="white-space: pre" xml:space="preserve" font-family="Red Hat Mono" font-size="16" font-weight="600" letter-spacing="0em"><tspan x="204.219" y="365.204">......</tspan></text>
<path d="M435 296C435 291.582 438.582 288 443 288H687C691.418 288 695 291.582 695 296V319C695 323.418 691.418 327 687 327H443C438.582 327 435 323.418 435 319V296Z" fill="#E66A32"/>
<text fill="#080808" style="white-space: pre" xml:space="preserve" font-family="Red Hat Mono" font-size="16" font-weight="600" letter-spacing="0em"><tspan x="493.047" y="313.204">Context Enough?</tspan></text>
<path d="M435 347C435 342.582 438.582 339 443 339H687C691.418 339 695 342.582 695 347V370C695 374.418 691.418 378 687 378H443C438.582 378 435 374.418 435 370V347Z" fill="#E66A32"/>
<text fill="#080808" style="white-space: pre" xml:space="preserve" font-family="Red Hat Mono" font-size="16" font-weight="600" letter-spacing="0em"><tspan x="454.672" y="364.204">Tool Result Truncation?</tspan></text>
<path d="M435 399C435 394.582 438.582 391 443 391H687C691.418 391 695 394.582 695 399V422C695 426.418 691.418 430 687 430H443C438.582 430 435 426.418 435 422V399Z" fill="#E66A32"/>
<text fill="#080808" style="white-space: pre" xml:space="preserve" font-family="Red Hat Mono" font-size="16" font-weight="600" letter-spacing="0em"><tspan x="517.031" y="416.204">Compaction</tspan></text>
<path d="M751.707 411.707C752.098 411.317 752.098 410.683 751.707 410.293L745.343 403.929C744.953 403.538 744.319 403.538 743.929 403.929C743.538 404.319 743.538 404.953 743.929 405.343L749.586 411L743.929 416.657C743.538 417.047 743.538 417.681 743.929 418.071C744.319 418.462 744.953 418.462 745.343 418.071L751.707 411.707ZM751 411V410H695V411V412H751V411Z" fill="white"/>
<path d="M564.293 339.707C564.683 340.098 565.317 340.098 565.707 339.707L572.071 333.343C572.462 332.953 572.462 332.319 572.071 331.929C571.681 331.538 571.047 331.538 570.657 331.929L565 337.586L559.343 331.929C558.953 331.538 558.319 331.538 557.929 331.929C557.538 332.319 557.538 332.953 557.929 333.343L564.293 339.707ZM565 339L566 339L566 327L565 327L564 327L564 339L565 339Z" fill="white"/>
<path d="M564.293 390.707C564.683 391.098 565.317 391.098 565.707 390.707L572.071 384.343C572.462 383.953 572.462 383.319 572.071 382.929C571.681 382.538 571.047 382.538 570.657 382.929L565 388.586L559.343 382.929C558.953 382.538 558.319 382.538 557.929 382.929C557.538 383.319 557.538 383.953 557.929 384.343L564.293 390.707ZM565 390L566 390L566 378L565 378L564 378L564 390L565 390Z" fill="white"/>
<path d="M378.293 307.293C377.902 307.683 377.902 308.317 378.293 308.707L384.657 315.071C385.047 315.462 385.681 315.462 386.071 315.071C386.462 314.681 386.462 314.047 386.071 313.657L380.414 308L386.071 302.343C386.462 301.953 386.462 301.319 386.071 300.929C385.681 300.538 385.047 300.538 384.657 300.929L378.293 307.293ZM379 308L379 309L435 309L435 308L435 307L379 307L379 308Z" fill="white"/>
<path d="M378.293 358.293C377.902 358.683 377.902 359.317 378.293 359.707L384.657 366.071C385.047 366.462 385.681 366.462 386.071 366.071C386.462 365.681 386.462 365.047 386.071 364.657L380.414 359L386.071 353.343C386.462 352.953 386.462 352.319 386.071 351.929C385.681 351.538 385.047 351.538 384.657 351.929L378.293 358.293ZM379 359L379 360L435 360L435 359L435 358L379 358L379 359Z" fill="white"/>
<path d="M1035 251C1039.42 251 1043 254.582 1043 259L1043 461C1043 465.418 1039.42 469 1035 469L759 469C754.582 469 751 465.418 751 461L751 259C751 254.582 754.582 251 759 251L1035 251Z" fill="white" fill-opacity="0.05"/>
<path d="M751 259L751.5 259C751.5 258.498 751.549 258.009 751.643 257.536L751.152 257.439L750.662 257.342C750.556 257.878 750.5 258.433 750.5 259L751 259ZM752.347 254.555L752.763 254.833C753.311 254.015 754.015 253.311 754.833 252.763L754.555 252.347L754.277 251.932C753.35 252.552 752.552 253.35 751.932 254.277L752.347 254.555ZM757.439 251.152L757.536 251.643C758.009 251.549 758.498 251.5 759 251.5L759 251L759 250.5C758.433 250.5 757.878 250.556 757.342 250.662L757.439 251.152ZM759 251L759 251.5L760.971 251.5L760.971 251L760.971 250.5L759 250.5L759 251ZM764.914 251L764.914 251.5L768.857 251.5L768.857 251L768.857 250.5L764.914 250.5L764.914 251ZM772.8 251L772.8 251.5L776.743 251.5L776.743 251L776.743 250.5L772.8 250.5L772.8 251ZM780.686 251L780.686 251.5L784.629 251.5L784.629 251L784.629 250.5L780.686 250.5L780.686 251ZM788.571 251L788.571 251.5L792.514 251.5L792.514 251L792.514 250.5L788.571 250.5L788.571 251ZM796.457 251L796.457 251.5L800.4 251.5L800.4 251L800.4 250.5L796.457 250.5L796.457 251ZM804.343 251L804.343 251.5L808.286 251.5L808.286 251L808.286 250.5L804.343 250.5L804.343 251ZM812.229 251L812.229 251.5L816.171 251.5L816.171 251L816.171 250.5L812.229 250.5L812.229 251ZM820.114 251L820.114 251.5L824.057 251.5L824.057 251L824.057 250.5L820.114 250.5L820.114 251ZM828 251L828 251.5L831.943 251.5L831.943 251L831.943 250.5L828 250.5L828 251ZM835.886 251L835.886 251.5L839.829 251.5L839.829 251L839.829 250.5L835.886 250.5L835.886 251ZM843.771 251L843.771 251.5L847.714 251.5L847.714 251L847.714 250.5L843.771 250.5L843.771 251ZM851.657 251L851.657 251.5L855.6 251.5L855.6 251L855.6 250.5L851.657 250.5L851.657 251ZM859.543 251L859.543 251.5L863.486 251.5L863.486 251L863.486 250.5L859.543 250.5L859.543 251ZM867.429 251L867.429 251.5L871.371 251.5L871.371 251L871.371 250.5L867.429 250.5L867.429 251ZM875.314 251L875.314 251.5L879.257 251.5L879.257 251L879.257 250.5L875.314 250.5L875.314 251ZM883.2 251L883.2 251.5L887.143 251.5L887.143 251L887.143 250.5L883.2 250.5L883.2 251ZM891.086 251L891.086 251.5L895.029 251.5L895.029 251L895.029 250.5L891.086 250.5L891.086 251ZM898.971 251L898.971 251.5L902.914 251.5L902.914 251L902.914 250.5L898.971 250.5L898.971 251ZM906.857 251L906.857 251.5L910.8 251.5L910.8 251L910.8 250.5L906.857 250.5L906.857 251ZM914.743 251L914.743 251.5L918.686 251.5L918.686 251L918.686 250.5L914.743 250.5L914.743 251ZM922.629 251L922.629 251.5L926.571 251.5L926.571 251L926.571 250.5L922.629 250.5L922.629 251ZM930.514 251L930.514 251.5L934.457 251.5L934.457 251L934.457 250.5L930.514 250.5L930.514 251ZM938.4 251L938.4 251.5L942.343 251.5L942.343 251L942.343 250.5L938.4 250.5L938.4 251ZM946.286 251L946.286 251.5L950.229 251.5L950.229 251L950.229 250.5L946.286 250.5L946.286 251ZM954.171 251L954.171 251.5L958.114 251.5L958.114 251L958.114 250.5L954.171 250.5L954.171 251ZM962.057 251L962.057 251.5L966 251.5L966 251L966 250.5L962.057 250.5L962.057 251ZM969.943 251L969.943 251.5L973.886 251.5L973.886 251L973.886 250.5L969.943 250.5L969.943 251ZM977.829 251L977.829 251.5L981.771 251.5L981.771 251L981.771 250.5L977.829 250.5L977.829 251ZM985.714 251L985.714 251.5L989.657 251.5L989.657 251L989.657 250.5L985.714 250.5L985.714 251ZM993.6 251L993.6 251.5L997.543 251.5L997.543 251L997.543 250.5L993.6 250.5L993.6 251ZM1001.49 251L1001.49 251.5L1005.43 251.5L1005.43 251L1005.43 250.5L1001.49 250.5L1001.49 251ZM1009.37 251L1009.37 251.5L1013.31 251.5L1013.31 251L1013.31 250.5L1009.37 250.5L1009.37 251ZM1017.26 251L1017.26 251.5L1021.2 251.5L1021.2 251L1021.2 250.5L1017.26 250.5L1017.26 251ZM1025.14 251L1025.14 251.5L1029.09 251.5L1029.09 251L1029.09 250.5L1025.14 250.5L1025.14 251ZM1033.03 251L1033.03 251.5L1035 251.5L1035 251L1035 250.5L1033.03 250.5L1033.03 251ZM1035 251L1035 251.5C1035.5 251.5 1035.99 251.549 1036.46 251.643L1036.56 251.152L1036.66 250.662C1036.12 250.556 1035.57 250.5 1035 250.5L1035 251ZM1039.44 252.347L1039.17 252.763C1039.98 253.311 1040.69 254.015 1041.24 254.833L1041.65 254.555L1042.07 254.277C1041.45 253.35 1040.65 252.552 1039.72 251.932L1039.44 252.347ZM1042.85 257.439L1042.36 257.536C1042.45 258.009 1042.5 258.498 1042.5 259L1043 259L1043.5 259C1043.5 258.433 1043.44 257.878 1043.34 257.342L1042.85 257.439ZM1043 259L1042.5 259L1042.5 261.02L1043 261.02L1043.5 261.02L1043.5 259L1043 259ZM1043 265.06L1042.5 265.06L1042.5 269.1L1043 269.1L1043.5 269.1L1043.5 265.06L1043 265.06ZM1043 273.14L1042.5 273.14L1042.5 277.18L1043 277.18L1043.5 277.18L1043.5 273.14L1043 273.14ZM1043 281.22L1042.5 281.22L1042.5 285.26L1043 285.26L1043.5 285.26L1043.5 281.22L1043 281.22ZM1043 289.3L1042.5 289.3L1042.5 293.34L1043 293.34L1043.5 293.34L1043.5 289.3L1043 289.3ZM1043 297.38L1042.5 297.38L1042.5 301.42L1043 301.42L1043.5 301.42L1043.5 297.38L1043 297.38ZM1043 305.46L1042.5 305.46L1042.5 309.5L1043 309.5L1043.5 309.5L1043.5 305.46L1043 305.46ZM1043 313.54L1042.5 313.54L1042.5 317.58L1043 317.58L1043.5 317.58L1043.5 313.54L1043 313.54ZM1043 321.62L1042.5 321.62L1042.5 325.66L1043 325.66L1043.5 325.66L1043.5 321.62L1043 321.62ZM1043 329.7L1042.5 329.7L1042.5 333.74L1043 333.74L1043.5 333.74L1043.5 329.7L1043 329.7ZM1043 337.78L1042.5 337.78L1042.5 341.82L1043 341.82L1043.5 341.82L1043.5 337.78L1043 337.78ZM1043 345.86L1042.5 345.86L1042.5 349.9L1043 349.9L1043.5 349.9L1043.5 345.86L1043 345.86ZM1043 353.94L1042.5 353.94L1042.5 357.98L1043 357.98L1043.5 357.98L1043.5 353.94L1043 353.94ZM1043 362.02L1042.5 362.02L1042.5 366.06L1043 366.06L1043.5 366.06L1043.5 362.02L1043 362.02ZM1043 370.1L1042.5 370.1L1042.5 374.14L1043 374.14L1043.5 374.14L1043.5 370.1L1043 370.1ZM1043 378.18L1042.5 378.18L1042.5 382.22L1043 382.22L1043.5 382.22L1043.5 378.18L1043 378.18ZM1043 386.26L1042.5 386.26L1042.5 390.3L1043 390.3L1043.5 390.3L1043.5 386.26L1043 386.26ZM1043 394.34L1042.5 394.34L1042.5 398.38L1043 398.38L1043.5 398.38L1043.5 394.34L1043 394.34ZM1043 402.42L1042.5 402.42L1042.5 406.46L1043 406.46L1043.5 406.46L1043.5 402.42L1043 402.42ZM1043 410.5L1042.5 410.5L1042.5 414.54L1043 414.54L1043.5 414.54L1043.5 410.5L1043 410.5ZM1043 418.58L1042.5 418.58L1042.5 422.62L1043 422.62L1043.5 422.62L1043.5 418.58L1043 418.58ZM1043 426.66L1042.5 426.66L1042.5 430.7L1043 430.7L1043.5 430.7L1043.5 426.66L1043 426.66ZM1043 434.74L1042.5 434.74L1042.5 438.78L1043 438.78L1043.5 438.78L1043.5 434.74L1043 434.74ZM1043 442.82L1042.5 442.82L1042.5 446.86L1043 446.86L1043.5 446.86L1043.5 442.82L1043 442.82ZM1043 450.9L1042.5 450.9L1042.5 454.94L1043 454.94L1043.5 454.94L1043.5 450.9L1043 450.9ZM1043 458.98L1042.5 458.98L1042.5 461L1043 461L1043.5 461L1043.5 458.98L1043 458.98ZM1043 461L1042.5 461C1042.5 461.502 1042.45 461.991 1042.36 462.464L1042.85 462.561L1043.34 462.658C1043.44 462.122 1043.5 461.567 1043.5 461L1043 461ZM1041.65 465.445L1041.24 465.167C1040.69 465.985 1039.98 466.689 1039.17 467.237L1039.44 467.653L1039.72 468.068C1040.65 467.448 1041.45 466.65 1042.07 465.723L1041.65 465.445ZM1036.56 468.848L1036.46 468.357C1035.99 468.451 1035.5 468.5 1035 468.5L1035 469L1035 469.5C1035.57 469.5 1036.12 469.444 1036.66 469.338L1036.56 468.848ZM1035 469L1035 468.5L1033.03 468.5L1033.03 469L1033.03 469.5L1035 469.5L1035 469ZM1029.09 469L1029.09 468.5L1025.14 468.5L1025.14 469L1025.14 469.5L1029.09 469.5L1029.09 469ZM1021.2 469L1021.2 468.5L1017.26 468.5L1017.26 469L1017.26 469.5L1021.2 469.5L1021.2 469ZM1013.31 469L1013.31 468.5L1009.37 468.5L1009.37 469L1009.37 469.5L1013.31 469.5L1013.31 469ZM1005.43 469L1005.43 468.5L1001.49 468.5L1001.49 469L1001.49 469.5L1005.43 469.5L1005.43 469ZM997.543 469L997.543 468.5L993.6 468.5L993.6 469L993.6 469.5L997.543 469.5L997.543 469ZM989.657 469L989.657 468.5L985.714 468.5L985.714 469L985.714 469.5L989.657 469.5L989.657 469ZM981.771 469L981.771 468.5L977.829 468.5L977.829 469L977.829 469.5L981.771 469.5L981.771 469ZM973.886 469L973.886 468.5L969.943 468.5L969.943 469L969.943 469.5L973.886 469.5L973.886 469ZM966 469L966 468.5L962.057 468.5L962.057 469L962.057 469.5L966 469.5L966 469ZM958.114 469L958.114 468.5L954.171 468.5L954.171 469L954.171 469.5L958.114 469.5L958.114 469ZM950.229 469L950.229 468.5L946.286 468.5L946.286 469L946.286 469.5L950.229 469.5L950.229 469ZM942.343 469L942.343 468.5L938.4 468.5L938.4 469L938.4 469.5L942.343 469.5L942.343 469ZM934.457 469L934.457 468.5L930.514 468.5L930.514 469L930.514 469.5L934.457 469.5L934.457 469ZM926.571 469L926.571 468.5L922.629 468.5L922.629 469L922.629 469.5L926.571 469.5L926.571 469ZM918.686 469L918.686 468.5L914.743 468.5L914.743 469L914.743 469.5L918.686 469.5L918.686 469ZM910.8 469L910.8 468.5L906.857 468.5L906.857 469L906.857 469.5L910.8 469.5L910.8 469ZM902.914 469L902.914 468.5L898.971 468.5L898.971 469L898.971 469.5L902.914 469.5L902.914 469ZM895.029 469L895.029 468.5L891.086 468.5L891.086 469L891.086 469.5L895.029 469.5L895.029 469ZM887.143 469L887.143 468.5L883.2 468.5L883.2 469L883.2 469.5L887.143 469.5L887.143 469ZM879.257 469L879.257 468.5L875.314 468.5L875.314 469L875.314 469.5L879.257 469.5L879.257 469ZM871.371 469L871.371 468.5L867.429 468.5L867.429 469L867.429 469.5L871.371 469.5L871.371 469ZM863.486 469L863.486 468.5L859.543 468.5L859.543 469L859.543 469.5L863.486 469.5L863.486 469ZM855.6 469L855.6 468.5L851.657 468.5L851.657 469L851.657 469.5L855.6 469.5L855.6 469ZM847.714 469L847.714 468.5L843.771 468.5L843.771 469L843.771 469.5L847.714 469.5L847.714 469ZM839.829 469L839.829 468.5L835.886 468.5L835.886 469L835.886 469.5L839.829 469.5L839.829 469ZM831.943 469L831.943 468.5L828 468.5L828 469L828 469.5L831.943 469.5L831.943 469ZM824.057 469L824.057 468.5L820.114 468.5L820.114 469L820.114 469.5L824.057 469.5L824.057 469ZM816.171 469L816.171 468.5L812.229 468.5L812.229 469L812.229 469.5L816.171 469.5L816.171 469ZM808.286 469L808.286 468.5L804.343 468.5L804.343 469L804.343 469.5L808.286 469.5L808.286 469ZM800.4 469L800.4 468.5L796.457 468.5L796.457 469L796.457 469.5L800.4 469.5L800.4 469ZM792.514 469L792.514 468.5L788.571 468.5L788.571 469L788.571 469.5L792.514 469.5L792.514 469ZM784.629 469L784.629 468.5L780.686 468.5L780.686 469L780.686 469.5L784.629 469.5L784.629 469ZM776.743 469L776.743 468.5L772.8 468.5L772.8 469L772.8 469.5L776.743 469.5L776.743 469ZM768.857 469L768.857 468.5L764.914 468.5L764.914 469L764.914 469.5L768.857 469.5L768.857 469ZM760.971 469L760.971 468.5L759 468.5L759 469L759 469.5L760.971 469.5L760.971 469ZM759 469L759 468.5C758.498 468.5 758.009 468.451 757.536 468.357L757.439 468.848L757.342 469.338C757.878 469.444 758.433 469.5 759 469.5L759 469ZM754.555 467.653L754.833 467.237C754.015 466.689 753.311 465.985 752.763 465.167L752.347 465.445L751.932 465.723C752.552 466.65 753.35 467.448 754.277 468.068L754.555 467.653ZM751.152 462.561L751.643 462.464C751.549 461.991 751.5 461.502 751.5 461L751 461L750.5 461C750.5 461.567 750.556 462.122 750.662 462.658L751.152 462.561ZM751 461L751.5 461L751.5 458.98L751 458.98L750.5 458.98L750.5 461L751 461ZM751 454.94L751.5 454.94L751.5 450.9L751 450.9L750.5 450.9L750.5 454.94L751 454.94ZM751 446.86L751.5 446.86L751.5 442.82L751 442.82L750.5 442.82L750.5 446.86L751 446.86ZM751 438.78L751.5 438.78L751.5 434.74L751 434.74L750.5 434.74L750.5 438.78L751 438.78ZM751 430.7L751.5 430.7L751.5 426.66L751 426.66L750.5 426.66L750.5 430.7L751 430.7ZM751 422.62L751.5 422.62L751.5 418.58L751 418.58L750.5 418.58L750.5 422.62L751 422.62ZM751 414.54L751.5 414.54L751.5 410.5L751 410.5L750.5 410.5L750.5 414.54L751 414.54ZM751 406.46L751.5 406.46L751.5 402.42L751 402.42L750.5 402.42L750.5 406.46L751 406.46ZM751 398.38L751.5 398.38L751.5 394.34L751 394.34L750.5 394.34L750.5 398.38L751 398.38ZM751 390.3L751.5 390.3L751.5 386.26L751 386.26L750.5 386.26L750.5 390.3L751 390.3ZM751 382.22L751.5 382.22L751.5 378.18L751 378.18L750.5 378.18L750.5 382.22L751 382.22ZM751 374.14L751.5 374.14L751.5 370.1L751 370.1L750.5 370.1L750.5 374.14L751 374.14ZM751 366.06L751.5 366.06L751.5 362.02L751 362.02L750.5 362.02L750.5 366.06L751 366.06ZM751 357.98L751.5 357.98L751.5 353.94L751 353.94L750.5 353.94L750.5 357.98L751 357.98ZM751 349.9L751.5 349.9L751.5 345.86L751 345.86L750.5 345.86L750.5 349.9L751 349.9ZM751 341.82L751.5 341.82L751.5 337.78L751 337.78L750.5 337.78L750.5 341.82L751 341.82ZM751 333.74L751.5 333.74L751.5 329.7L751 329.7L750.5 329.7L750.5 333.74L751 333.74ZM751 325.66L751.5 325.66L751.5 321.62L751 321.62L750.5 321.62L750.5 325.66L751 325.66ZM751 317.58L751.5 317.58L751.5 313.54L751 313.54L750.5 313.54L750.5 317.58L751 317.58ZM751 309.5L751.5 309.5L751.5 305.46L751 305.46L750.5 305.46L750.5 309.5L751 309.5ZM751 301.42L751.5 301.42L751.5 297.38L751 297.38L750.5 297.38L750.5 301.42L751 301.42ZM751 293.34L751.5 293.34L751.5 289.3L751 289.3L750.5 289.3L750.5 293.34L751 293.34ZM751 285.26L751.5 285.26L751.5 281.22L751 281.22L750.5 281.22L750.5 285.26L751 285.26ZM751 277.18L751.5 277.18L751.5 273.14L751 273.14L750.5 273.14L750.5 277.18L751 277.18ZM751 269.1L751.5 269.1L751.5 265.06L751 265.06L750.5 265.06L750.5 269.1L751 269.1ZM751 261.02L751.5 261.02L751.5 259L751 259L750.5 259L750.5 261.02L751 261.02Z" fill="white"/>
<path d="M767 322C767 317.582 770.582 314 775 314H1019C1023.42 314 1027 317.582 1027 322V345C1027 349.418 1023.42 353 1019 353H775C770.582 353 767 349.418 767 345V322Z" fill="#E66A32" fill-opacity="0.25"/>
<text fill="white" style="white-space: pre" xml:space="preserve" font-family="Red Hat Mono" font-size="16" font-weight="600" letter-spacing="0em"><tspan x="815.453" y="339.204">Compacted History</tspan></text>
<path d="M767 374C767 369.582 770.582 366 775 366H1019C1023.42 366 1027 369.582 1027 374V397C1027 401.418 1023.42 405 1019 405H775C770.582 405 767 401.418 767 397V374Z" fill="#E66A32" fill-opacity="0.25"/>
<text fill="white" style="white-space: pre" xml:space="preserve" font-family="Red Hat Mono" font-size="16" font-weight="600" letter-spacing="0em"><tspan x="849.031" y="391.204">User Input</tspan></text>
<path d="M767 271C767 266.582 770.582 263 775 263H1019C1023.42 263 1027 266.582 1027 271V294C1027 298.418 1023.42 302 1019 302H775C770.582 302 767 298.418 767 294V271Z" fill="white" fill-opacity="0.2"/>
<text fill="white" style="white-space: pre" xml:space="preserve" font-family="Red Hat Mono" font-size="16" font-weight="600" letter-spacing="0em"><tspan x="834.641" y="288.204">System Prompt</tspan></text>
<path d="M767 425C767 420.582 770.582 417 775 417H1019C1023.42 417 1027 420.582 1027 425V448C1027 452.418 1023.42 456 1019 456H775C770.582 456 767 452.418 767 448V425Z" fill="white" fill-opacity="0.2"/>
<text fill="white" style="white-space: pre" xml:space="preserve" font-family="Red Hat Mono" font-size="16" font-weight="600" letter-spacing="0em"><tspan x="810.656" y="442.204">Assistant Response</tspan></text>
<path d="M1099 374C1099 369.582 1102.58 366 1107 366H1351C1355.42 366 1359 369.582 1359 374V448C1359 452.418 1355.42 456 1351 456H1107C1102.58 456 1099 452.418 1099 448V374Z" fill="white"/>
<text fill="#080808" style="white-space: pre" xml:space="preserve" font-family="Red Hat Mono" font-size="16" font-weight="600" letter-spacing="0em"><tspan x="1137.86" y="416.704">LLM &#38; Tool Exection</tspan></text>
<path d="M1099.71 388.707C1100.1 388.317 1100.1 387.683 1099.71 387.293L1093.34 380.929C1092.95 380.538 1092.32 380.538 1091.93 380.929C1091.54 381.319 1091.54 381.953 1091.93 382.343L1097.59 388L1091.93 393.657C1091.54 394.047 1091.54 394.681 1091.93 395.071C1092.32 395.462 1092.95 395.462 1093.34 395.071L1099.71 388.707ZM1099 388V387H1043V388V389H1099V388Z" fill="white"/>
<path d="M1026.29 435.293C1025.9 435.683 1025.9 436.317 1026.29 436.707L1032.66 443.071C1033.05 443.462 1033.68 443.462 1034.07 443.071C1034.46 442.681 1034.46 442.047 1034.07 441.657L1028.41 436L1034.07 430.343C1034.46 429.953 1034.46 429.319 1034.07 428.929C1033.68 428.538 1033.05 428.538 1032.66 428.929L1026.29 435.293ZM1099 436L1099 435L1027 435L1027 436L1027 437L1099 437L1099 436Z" fill="white"/>
<path d="M564.293 288.707C564.683 289.098 565.317 289.098 565.707 288.707L572.071 282.343C572.462 281.953 572.462 281.319 572.071 280.929C571.681 280.538 571.047 280.538 570.657 280.929L565 286.586L559.343 280.929C558.953 280.538 558.319 280.538 557.929 280.929C557.538 281.319 557.538 281.953 557.929 282.343L564.293 288.707ZM379 251L379 252L557 252L557 251L557 250L379 250L379 251ZM565 259L564 259L564 288L565 288L566 288L566 259L565 259ZM557 251L557 252C560.866 252 564 255.134 564 259L565 259L566 259C566 254.029 561.971 250 557 250L557 251Z" fill="white"/>
</g>
<defs>
<clipPath id="clip0_221_450">
<rect width="1440" height="720" fill="white"/>
</clipPath>
</defs>
</svg>
