<svg width="1440" height="720" viewBox="0 0 1440 720" fill="none" xmlns="http://www.w3.org/2000/svg">
<g clip-path="url(#clip0_221_553)">
<rect width="1440" height="720" fill="#080808"/>
<path d="M542 195C546.418 195 550 198.582 550 203L550 466C550 470.418 546.418 474 542 474L266 474C261.582 474 258 470.418 258 466L258 203C258 198.582 261.582 195 266 195L542 195Z" fill="white" fill-opacity="0.05"/>
<path d="M258 203L258.5 203C258.5 202.498 258.549 202.009 258.643 201.536L258.152 201.439L257.662 201.342C257.556 201.878 257.5 202.433 257.5 203L258 203ZM259.347 198.555L259.763 198.833C260.311 198.015 261.015 197.311 261.833 196.763L261.555 196.347L261.277 195.932C260.35 196.552 259.552 197.35 258.932 198.277L259.347 198.555ZM264.439 195.152L264.536 195.643C265.009 195.549 265.498 195.5 266 195.5L266 195L266 194.5C265.433 194.5 264.878 194.556 264.342 194.662L264.439 195.152ZM266 195L266 195.5L267.971 195.5L267.971 195L267.971 194.5L266 194.5L266 195ZM271.914 195L271.914 195.5L275.857 195.5L275.857 195L275.857 194.5L271.914 194.5L271.914 195ZM279.8 195L279.8 195.5L283.743 195.5L283.743 195L283.743 194.5L279.8 194.5L279.8 195ZM287.686 195L287.686 195.5L291.629 195.5L291.629 195L291.629 194.5L287.686 194.5L287.686 195ZM295.571 195L295.571 195.5L299.514 195.5L299.514 195L299.514 194.5L295.571 194.5L295.571 195ZM303.457 195L303.457 195.5L307.4 195.5L307.4 195L307.4 194.5L303.457 194.5L303.457 195ZM311.343 195L311.343 195.5L315.286 195.5L315.286 195L315.286 194.5L311.343 194.5L311.343 195ZM319.229 195L319.229 195.5L323.171 195.5L323.171 195L323.171 194.5L319.229 194.5L319.229 195ZM327.114 195L327.114 195.5L331.057 195.5L331.057 195L331.057 194.5L327.114 194.5L327.114 195ZM335 195L335 195.5L338.943 195.5L338.943 195L338.943 194.5L335 194.5L335 195ZM342.886 195L342.886 195.5L346.829 195.5L346.829 195L346.829 194.5L342.886 194.5L342.886 195ZM350.771 195L350.771 195.5L354.714 195.5L354.714 195L354.714 194.5L350.771 194.5L350.771 195ZM358.657 195L358.657 195.5L362.6 195.5L362.6 195L362.6 194.5L358.657 194.5L358.657 195ZM366.543 195L366.543 195.5L370.486 195.5L370.486 195L370.486 194.5L366.543 194.5L366.543 195ZM374.429 195L374.429 195.5L378.371 195.5L378.371 195L378.371 194.5L374.429 194.5L374.429 195ZM382.314 195L382.314 195.5L386.257 195.5L386.257 195L386.257 194.5L382.314 194.5L382.314 195ZM390.2 195L390.2 195.5L394.143 195.5L394.143 195L394.143 194.5L390.2 194.5L390.2 195ZM398.086 195L398.086 195.5L402.029 195.5L402.029 195L402.029 194.5L398.086 194.5L398.086 195ZM405.971 195L405.971 195.5L409.914 195.5L409.914 195L409.914 194.5L405.971 194.5L405.971 195ZM413.857 195L413.857 195.5L417.8 195.5L417.8 195L417.8 194.5L413.857 194.5L413.857 195ZM421.743 195L421.743 195.5L425.686 195.5L425.686 195L425.686 194.5L421.743 194.5L421.743 195ZM429.629 195L429.629 195.5L433.571 195.5L433.571 195L433.571 194.5L429.629 194.5L429.629 195ZM437.514 195L437.514 195.5L441.457 195.5L441.457 195L441.457 194.5L437.514 194.5L437.514 195ZM445.4 195L445.4 195.5L449.343 195.5L449.343 195L449.343 194.5L445.4 194.5L445.4 195ZM453.286 195L453.286 195.5L457.229 195.5L457.229 195L457.229 194.5L453.286 194.5L453.286 195ZM461.171 195L461.171 195.5L465.114 195.5L465.114 195L465.114 194.5L461.171 194.5L461.171 195ZM469.057 195L469.057 195.5L473 195.5L473 195L473 194.5L469.057 194.5L469.057 195ZM476.943 195L476.943 195.5L480.886 195.5L480.886 195L480.886 194.5L476.943 194.5L476.943 195ZM484.829 195L484.829 195.5L488.771 195.5L488.771 195L488.771 194.5L484.829 194.5L484.829 195ZM492.714 195L492.714 195.5L496.657 195.5L496.657 195L496.657 194.5L492.714 194.5L492.714 195ZM500.6 195L500.6 195.5L504.543 195.5L504.543 195L504.543 194.5L500.6 194.5L500.6 195ZM508.486 195L508.486 195.5L512.429 195.5L512.429 195L512.429 194.5L508.486 194.5L508.486 195ZM516.371 195L516.371 195.5L520.314 195.5L520.314 195L520.314 194.5L516.371 194.5L516.371 195ZM524.257 195L524.257 195.5L528.2 195.5L528.2 195L528.2 194.5L524.257 194.5L524.257 195ZM532.143 195L532.143 195.5L536.086 195.5L536.086 195L536.086 194.5L532.143 194.5L532.143 195ZM540.029 195L540.029 195.5L542 195.5L542 195L542 194.5L540.029 194.5L540.029 195ZM542 195L542 195.5C542.502 195.5 542.991 195.549 543.464 195.643L543.561 195.152L543.658 194.662C543.122 194.556 542.567 194.5 542 194.5L542 195ZM546.445 196.347L546.167 196.763C546.985 197.311 547.689 198.015 548.237 198.833L548.653 198.555L549.068 198.277C548.448 197.35 547.65 196.552 546.723 195.932L546.445 196.347ZM549.848 201.439L549.357 201.536C549.451 202.009 549.5 202.498 549.5 203L550 203L550.5 203C550.5 202.433 550.444 201.878 550.338 201.342L549.848 201.439ZM550 203L549.5 203L549.5 204.992L550 204.992L550.5 204.992L550.5 203L550 203ZM550 208.977L549.5 208.977L549.5 212.962L550 212.962L550.5 212.962L550.5 208.977L550 208.977ZM550 216.947L549.5 216.947L549.5 220.932L550 220.932L550.5 220.932L550.5 216.947L550 216.947ZM550 224.917L549.5 224.917L549.5 228.902L550 228.902L550.5 228.902L550.5 224.917L550 224.917ZM550 232.886L549.5 232.886L549.5 236.871L550 236.871L550.5 236.871L550.5 232.886L550 232.886ZM550 240.856L549.5 240.856L549.5 244.841L550 244.841L550.5 244.841L550.5 240.856L550 240.856ZM550 248.826L549.5 248.826L549.5 252.811L550 252.811L550.5 252.811L550.5 248.826L550 248.826ZM550 256.795L549.5 256.795L549.5 260.78L550 260.78L550.5 260.78L550.5 256.795L550 256.795ZM550 264.765L549.5 264.765L549.5 268.75L550 268.75L550.5 268.75L550.5 264.765L550 264.765ZM550 272.735L549.5 272.735L549.5 276.72L550 276.72L550.5 276.72L550.5 272.735L550 272.735ZM550 280.705L549.5 280.705L549.5 284.689L550 284.689L550.5 284.689L550.5 280.705L550 280.705ZM550 288.674L549.5 288.674L549.5 292.659L550 292.659L550.5 292.659L550.5 288.674L550 288.674ZM550 296.644L549.5 296.644L549.5 300.629L550 300.629L550.5 300.629L550.5 296.644L550 296.644ZM550 304.614L549.5 304.614L549.5 308.598L550 308.598L550.5 308.598L550.5 304.614L550 304.614ZM550 312.583L549.5 312.583L549.5 316.568L550 316.568L550.5 316.568L550.5 312.583L550 312.583ZM550 320.553L549.5 320.553L549.5 324.538L550 324.538L550.5 324.538L550.5 320.553L550 320.553ZM550 328.523L549.5 328.523L549.5 332.508L550 332.508L550.5 332.508L550.5 328.523L550 328.523ZM550 336.492L549.5 336.492L549.5 340.477L550 340.477L550.5 340.477L550.5 336.492L550 336.492ZM550 344.462L549.5 344.462L549.5 348.447L550 348.447L550.5 348.447L550.5 344.462L550 344.462ZM550 352.432L549.5 352.432L549.5 356.417L550 356.417L550.5 356.417L550.5 352.432L550 352.432ZM550 360.402L549.5 360.402L549.5 364.386L550 364.386L550.5 364.386L550.5 360.402L550 360.402ZM550 368.371L549.5 368.371L549.5 372.356L550 372.356L550.5 372.356L550.5 368.371L550 368.371ZM550 376.341L549.5 376.341L549.5 380.326L550 380.326L550.5 380.326L550.5 376.341L550 376.341ZM550 384.311L549.5 384.311L549.5 388.295L550 388.295L550.5 388.295L550.5 384.311L550 384.311ZM550 392.28L549.5 392.28L549.5 396.265L550 396.265L550.5 396.265L550.5 392.28L550 392.28ZM550 400.25L549.5 400.25L549.5 404.235L550 404.235L550.5 404.235L550.5 400.25L550 400.25ZM550 408.22L549.5 408.22L549.5 412.205L550 412.205L550.5 412.205L550.5 408.22L550 408.22ZM550 416.189L549.5 416.189L549.5 420.174L550 420.174L550.5 420.174L550.5 416.189L550 416.189ZM550 424.159L549.5 424.159L549.5 428.144L550 428.144L550.5 428.144L550.5 424.159L550 424.159ZM550 432.129L549.5 432.129L549.5 436.114L550 436.114L550.5 436.114L550.5 432.129L550 432.129ZM550 440.098L549.5 440.098L549.5 444.083L550 444.083L550.5 444.083L550.5 440.098L550 440.098ZM550 448.068L549.5 448.068L549.5 452.053L550 452.053L550.5 452.053L550.5 448.068L550 448.068ZM550 456.038L549.5 456.038L549.5 460.023L550 460.023L550.5 460.023L550.5 456.038L550 456.038ZM550 464.008L549.5 464.008L549.5 466L550 466L550.5 466L550.5 464.008L550 464.008ZM550 466L549.5 466C549.5 466.502 549.451 466.991 549.357 467.464L549.848 467.561L550.338 467.658C550.444 467.122 550.5 466.567 550.5 466L550 466ZM548.653 470.445L548.237 470.167C547.689 470.985 546.985 471.689 546.167 472.237L546.445 472.653L546.723 473.068C547.65 472.448 548.448 471.65 549.068 470.723L548.653 470.445ZM543.561 473.848L543.464 473.357C542.991 473.451 542.502 473.5 542 473.5L542 474L542 474.5C542.567 474.5 543.122 474.444 543.658 474.338L543.561 473.848ZM542 474L542 473.5L540.029 473.5L540.029 474L540.029 474.5L542 474.5L542 474ZM536.086 474L536.086 473.5L532.143 473.5L532.143 474L532.143 474.5L536.086 474.5L536.086 474ZM528.2 474L528.2 473.5L524.257 473.5L524.257 474L524.257 474.5L528.2 474.5L528.2 474ZM520.314 474L520.314 473.5L516.371 473.5L516.371 474L516.371 474.5L520.314 474.5L520.314 474ZM512.429 474L512.429 473.5L508.486 473.5L508.486 474L508.486 474.5L512.429 474.5L512.429 474ZM504.543 474L504.543 473.5L500.6 473.5L500.6 474L500.6 474.5L504.543 474.5L504.543 474ZM496.657 474L496.657 473.5L492.714 473.5L492.714 474L492.714 474.5L496.657 474.5L496.657 474ZM488.771 474L488.771 473.5L484.829 473.5L484.829 474L484.829 474.5L488.771 474.5L488.771 474ZM480.886 474L480.886 473.5L476.943 473.5L476.943 474L476.943 474.5L480.886 474.5L480.886 474ZM473 474L473 473.5L469.057 473.5L469.057 474L469.057 474.5L473 474.5L473 474ZM465.114 474L465.114 473.5L461.171 473.5L461.171 474L461.171 474.5L465.114 474.5L465.114 474ZM457.229 474L457.229 473.5L453.286 473.5L453.286 474L453.286 474.5L457.229 474.5L457.229 474ZM449.343 474L449.343 473.5L445.4 473.5L445.4 474L445.4 474.5L449.343 474.5L449.343 474ZM441.457 474L441.457 473.5L437.514 473.5L437.514 474L437.514 474.5L441.457 474.5L441.457 474ZM433.571 474L433.571 473.5L429.629 473.5L429.629 474L429.629 474.5L433.571 474.5L433.571 474ZM425.686 474L425.686 473.5L421.743 473.5L421.743 474L421.743 474.5L425.686 474.5L425.686 474ZM417.8 474L417.8 473.5L413.857 473.5L413.857 474L413.857 474.5L417.8 474.5L417.8 474ZM409.914 474L409.914 473.5L405.971 473.5L405.971 474L405.971 474.5L409.914 474.5L409.914 474ZM402.029 474L402.029 473.5L398.086 473.5L398.086 474L398.086 474.5L402.029 474.5L402.029 474ZM394.143 474L394.143 473.5L390.2 473.5L390.2 474L390.2 474.5L394.143 474.5L394.143 474ZM386.257 474L386.257 473.5L382.314 473.5L382.314 474L382.314 474.5L386.257 474.5L386.257 474ZM378.371 474L378.371 473.5L374.429 473.5L374.429 474L374.429 474.5L378.371 474.5L378.371 474ZM370.486 474L370.486 473.5L366.543 473.5L366.543 474L366.543 474.5L370.486 474.5L370.486 474ZM362.6 474L362.6 473.5L358.657 473.5L358.657 474L358.657 474.5L362.6 474.5L362.6 474ZM354.714 474L354.714 473.5L350.771 473.5L350.771 474L350.771 474.5L354.714 474.5L354.714 474ZM346.829 474L346.829 473.5L342.886 473.5L342.886 474L342.886 474.5L346.829 474.5L346.829 474ZM338.943 474L338.943 473.5L335 473.5L335 474L335 474.5L338.943 474.5L338.943 474ZM331.057 474L331.057 473.5L327.114 473.5L327.114 474L327.114 474.5L331.057 474.5L331.057 474ZM323.171 474L323.171 473.5L319.229 473.5L319.229 474L319.229 474.5L323.171 474.5L323.171 474ZM315.286 474L315.286 473.5L311.343 473.5L311.343 474L311.343 474.5L315.286 474.5L315.286 474ZM307.4 474L307.4 473.5L303.457 473.5L303.457 474L303.457 474.5L307.4 474.5L307.4 474ZM299.514 474L299.514 473.5L295.571 473.5L295.571 474L295.571 474.5L299.514 474.5L299.514 474ZM291.629 474L291.629 473.5L287.686 473.5L287.686 474L287.686 474.5L291.629 474.5L291.629 474ZM283.743 474L283.743 473.5L279.8 473.5L279.8 474L279.8 474.5L283.743 474.5L283.743 474ZM275.857 474L275.857 473.5L271.914 473.5L271.914 474L271.914 474.5L275.857 474.5L275.857 474ZM267.971 474L267.971 473.5L266 473.5L266 474L266 474.5L267.971 474.5L267.971 474ZM266 474L266 473.5C265.498 473.5 265.009 473.451 264.536 473.357L264.439 473.848L264.342 474.338C264.878 474.444 265.433 474.5 266 474.5L266 474ZM261.555 472.653L261.833 472.237C261.015 471.689 260.311 470.985 259.763 470.167L259.347 470.445L258.932 470.723C259.552 471.65 260.35 472.448 261.277 473.068L261.555 472.653ZM258.152 467.561L258.643 467.464C258.549 466.991 258.5 466.502 258.5 466L258 466L257.5 466C257.5 466.567 257.556 467.122 257.662 467.658L258.152 467.561ZM258 466L258.5 466L258.5 464.008L258 464.008L257.5 464.008L257.5 466L258 466ZM258 460.023L258.5 460.023L258.5 456.038L258 456.038L257.5 456.038L257.5 460.023L258 460.023ZM258 452.053L258.5 452.053L258.5 448.068L258 448.068L257.5 448.068L257.5 452.053L258 452.053ZM258 444.083L258.5 444.083L258.5 440.098L258 440.098L257.5 440.098L257.5 444.083L258 444.083ZM258 436.114L258.5 436.114L258.5 432.129L258 432.129L257.5 432.129L257.5 436.114L258 436.114ZM258 428.144L258.5 428.144L258.5 424.159L258 424.159L257.5 424.159L257.5 428.144L258 428.144ZM258 420.174L258.5 420.174L258.5 416.189L258 416.189L257.5 416.189L257.5 420.174L258 420.174ZM258 412.205L258.5 412.205L258.5 408.22L258 408.22L257.5 408.22L257.5 412.205L258 412.205ZM258 404.235L258.5 404.235L258.5 400.25L258 400.25L257.5 400.25L257.5 404.235L258 404.235ZM258 396.265L258.5 396.265L258.5 392.28L258 392.28L257.5 392.28L257.5 396.265L258 396.265ZM258 388.295L258.5 388.295L258.5 384.311L258 384.311L257.5 384.311L257.5 388.295L258 388.295ZM258 380.326L258.5 380.326L258.5 376.341L258 376.341L257.5 376.341L257.5 380.326L258 380.326ZM258 372.356L258.5 372.356L258.5 368.371L258 368.371L257.5 368.371L257.5 372.356L258 372.356ZM258 364.386L258.5 364.386L258.5 360.402L258 360.402L257.5 360.402L257.5 364.386L258 364.386ZM258 356.417L258.5 356.417L258.5 352.432L258 352.432L257.5 352.432L257.5 356.417L258 356.417ZM258 348.447L258.5 348.447L258.5 344.462L258 344.462L257.5 344.462L257.5 348.447L258 348.447ZM258 340.477L258.5 340.477L258.5 336.492L258 336.492L257.5 336.492L257.5 340.477L258 340.477ZM258 332.508L258.5 332.508L258.5 328.523L258 328.523L257.5 328.523L257.5 332.508L258 332.508ZM258 324.538L258.5 324.538L258.5 320.553L258 320.553L257.5 320.553L257.5 324.538L258 324.538ZM258 316.568L258.5 316.568L258.5 312.583L258 312.583L257.5 312.583L257.5 316.568L258 316.568ZM258 308.598L258.5 308.598L258.5 304.614L258 304.614L257.5 304.614L257.5 308.598L258 308.598ZM258 300.629L258.5 300.629L258.5 296.644L258 296.644L257.5 296.644L257.5 300.629L258 300.629ZM258 292.659L258.5 292.659L258.5 288.674L258 288.674L257.5 288.674L257.5 292.659L258 292.659ZM258 284.689L258.5 284.689L258.5 280.705L258 280.705L257.5 280.705L257.5 284.689L258 284.689ZM258 276.72L258.5 276.72L258.5 272.735L258 272.735L257.5 272.735L257.5 276.72L258 276.72ZM258 268.75L258.5 268.75L258.5 264.765L258 264.765L257.5 264.765L257.5 268.75L258 268.75ZM258 260.78L258.5 260.78L258.5 256.795L258 256.795L257.5 256.795L257.5 260.78L258 260.78ZM258 252.811L258.5 252.811L258.5 248.826L258 248.826L257.5 248.826L257.5 252.811L258 252.811ZM258 244.841L258.5 244.841L258.5 240.856L258 240.856L257.5 240.856L257.5 244.841L258 244.841ZM258 236.871L258.5 236.871L258.5 232.886L258 232.886L257.5 232.886L257.5 236.871L258 236.871ZM258 228.902L258.5 228.902L258.5 224.917L258 224.917L257.5 224.917L257.5 228.902L258 228.902ZM258 220.932L258.5 220.932L258.5 216.947L258 216.947L257.5 216.947L257.5 220.932L258 220.932ZM258 212.962L258.5 212.962L258.5 208.977L258 208.977L257.5 208.977L257.5 212.962L258 212.962ZM258 204.992L258.5 204.992L258.5 203L258 203L257.5 203L257.5 204.992L258 204.992Z" fill="white"/>
<path d="M542 195C546.418 195 550 198.582 550 203L550 352C550 356.418 546.418 360 542 360L266 360C261.582 360 258 356.418 258 352L258 203C258 198.582 261.582 195 266 195L542 195Z" fill="white" fill-opacity="0.05"/>
<path d="M258 203L258.5 203C258.5 202.498 258.549 202.009 258.643 201.536L258.152 201.439L257.662 201.342C257.556 201.878 257.5 202.433 257.5 203L258 203ZM259.347 198.555L259.763 198.833C260.311 198.015 261.015 197.311 261.833 196.763L261.555 196.347L261.277 195.932C260.35 196.552 259.552 197.35 258.932 198.277L259.347 198.555ZM264.439 195.152L264.536 195.643C265.009 195.549 265.498 195.5 266 195.5L266 195L266 194.5C265.433 194.5 264.878 194.556 264.342 194.662L264.439 195.152ZM266 195L266 195.5L267.971 195.5L267.971 195L267.971 194.5L266 194.5L266 195ZM271.914 195L271.914 195.5L275.857 195.5L275.857 195L275.857 194.5L271.914 194.5L271.914 195ZM279.8 195L279.8 195.5L283.743 195.5L283.743 195L283.743 194.5L279.8 194.5L279.8 195ZM287.686 195L287.686 195.5L291.629 195.5L291.629 195L291.629 194.5L287.686 194.5L287.686 195ZM295.571 195L295.571 195.5L299.514 195.5L299.514 195L299.514 194.5L295.571 194.5L295.571 195ZM303.457 195L303.457 195.5L307.4 195.5L307.4 195L307.4 194.5L303.457 194.5L303.457 195ZM311.343 195L311.343 195.5L315.286 195.5L315.286 195L315.286 194.5L311.343 194.5L311.343 195ZM319.229 195L319.229 195.5L323.171 195.5L323.171 195L323.171 194.5L319.229 194.5L319.229 195ZM327.114 195L327.114 195.5L331.057 195.5L331.057 195L331.057 194.5L327.114 194.5L327.114 195ZM335 195L335 195.5L338.943 195.5L338.943 195L338.943 194.5L335 194.5L335 195ZM342.886 195L342.886 195.5L346.829 195.5L346.829 195L346.829 194.5L342.886 194.5L342.886 195ZM350.771 195L350.771 195.5L354.714 195.5L354.714 195L354.714 194.5L350.771 194.5L350.771 195ZM358.657 195L358.657 195.5L362.6 195.5L362.6 195L362.6 194.5L358.657 194.5L358.657 195ZM366.543 195L366.543 195.5L370.486 195.5L370.486 195L370.486 194.5L366.543 194.5L366.543 195ZM374.429 195L374.429 195.5L378.371 195.5L378.371 195L378.371 194.5L374.429 194.5L374.429 195ZM382.314 195L382.314 195.5L386.257 195.5L386.257 195L386.257 194.5L382.314 194.5L382.314 195ZM390.2 195L390.2 195.5L394.143 195.5L394.143 195L394.143 194.5L390.2 194.5L390.2 195ZM398.086 195L398.086 195.5L402.029 195.5L402.029 195L402.029 194.5L398.086 194.5L398.086 195ZM405.971 195L405.971 195.5L409.914 195.5L409.914 195L409.914 194.5L405.971 194.5L405.971 195ZM413.857 195L413.857 195.5L417.8 195.5L417.8 195L417.8 194.5L413.857 194.5L413.857 195ZM421.743 195L421.743 195.5L425.686 195.5L425.686 195L425.686 194.5L421.743 194.5L421.743 195ZM429.629 195L429.629 195.5L433.571 195.5L433.571 195L433.571 194.5L429.629 194.5L429.629 195ZM437.514 195L437.514 195.5L441.457 195.5L441.457 195L441.457 194.5L437.514 194.5L437.514 195ZM445.4 195L445.4 195.5L449.343 195.5L449.343 195L449.343 194.5L445.4 194.5L445.4 195ZM453.286 195L453.286 195.5L457.229 195.5L457.229 195L457.229 194.5L453.286 194.5L453.286 195ZM461.171 195L461.171 195.5L465.114 195.5L465.114 195L465.114 194.5L461.171 194.5L461.171 195ZM469.057 195L469.057 195.5L473 195.5L473 195L473 194.5L469.057 194.5L469.057 195ZM476.943 195L476.943 195.5L480.886 195.5L480.886 195L480.886 194.5L476.943 194.5L476.943 195ZM484.829 195L484.829 195.5L488.771 195.5L488.771 195L488.771 194.5L484.829 194.5L484.829 195ZM492.714 195L492.714 195.5L496.657 195.5L496.657 195L496.657 194.5L492.714 194.5L492.714 195ZM500.6 195L500.6 195.5L504.543 195.5L504.543 195L504.543 194.5L500.6 194.5L500.6 195ZM508.486 195L508.486 195.5L512.429 195.5L512.429 195L512.429 194.5L508.486 194.5L508.486 195ZM516.371 195L516.371 195.5L520.314 195.5L520.314 195L520.314 194.5L516.371 194.5L516.371 195ZM524.257 195L524.257 195.5L528.2 195.5L528.2 195L528.2 194.5L524.257 194.5L524.257 195ZM532.143 195L532.143 195.5L536.086 195.5L536.086 195L536.086 194.5L532.143 194.5L532.143 195ZM540.029 195L540.029 195.5L542 195.5L542 195L542 194.5L540.029 194.5L540.029 195ZM542 195L542 195.5C542.502 195.5 542.991 195.549 543.464 195.643L543.561 195.152L543.658 194.662C543.122 194.556 542.567 194.5 542 194.5L542 195ZM546.445 196.347L546.167 196.763C546.985 197.311 547.689 198.015 548.237 198.833L548.653 198.555L549.068 198.277C548.448 197.35 547.65 196.552 546.723 195.932L546.445 196.347ZM549.848 201.439L549.357 201.536C549.451 202.009 549.5 202.498 549.5 203L550 203L550.5 203C550.5 202.433 550.444 201.878 550.338 201.342L549.848 201.439ZM550 203L549.5 203L549.5 204.961L550 204.961L550.5 204.961L550.5 203L550 203ZM550 208.882L549.5 208.882L549.5 212.803L550 212.803L550.5 212.803L550.5 208.882L550 208.882ZM550 216.724L549.5 216.724L549.5 220.645L550 220.645L550.5 220.645L550.5 216.724L550 216.724ZM550 224.566L549.5 224.566L549.5 228.487L550 228.487L550.5 228.487L550.5 224.566L550 224.566ZM550 232.408L549.5 232.408L549.5 236.329L550 236.329L550.5 236.329L550.5 232.408L550 232.408ZM550 240.25L549.5 240.25L549.5 244.171L550 244.171L550.5 244.171L550.5 240.25L550 240.25ZM550 248.092L549.5 248.092L549.5 252.013L550 252.013L550.5 252.013L550.5 248.092L550 248.092ZM550 255.934L549.5 255.934L549.5 259.855L550 259.855L550.5 259.855L550.5 255.934L550 255.934ZM550 263.776L549.5 263.776L549.5 267.697L550 267.697L550.5 267.697L550.5 263.776L550 263.776ZM550 271.618L549.5 271.618L549.5 275.539L550 275.539L550.5 275.539L550.5 271.618L550 271.618ZM550 279.461L549.5 279.461L549.5 283.382L550 283.382L550.5 283.382L550.5 279.461L550 279.461ZM550 287.303L549.5 287.303L549.5 291.224L550 291.224L550.5 291.224L550.5 287.303L550 287.303ZM550 295.145L549.5 295.145L549.5 299.066L550 299.066L550.5 299.066L550.5 295.145L550 295.145ZM550 302.987L549.5 302.987L549.5 306.908L550 306.908L550.5 306.908L550.5 302.987L550 302.987ZM550 310.829L549.5 310.829L549.5 314.75L550 314.75L550.5 314.75L550.5 310.829L550 310.829ZM550 318.671L549.5 318.671L549.5 322.592L550 322.592L550.5 322.592L550.5 318.671L550 318.671ZM550 326.513L549.5 326.513L549.5 330.434L550 330.434L550.5 330.434L550.5 326.513L550 326.513ZM550 334.355L549.5 334.355L549.5 338.276L550 338.276L550.5 338.276L550.5 334.355L550 334.355ZM550 342.197L549.5 342.197L549.5 346.118L550 346.118L550.5 346.118L550.5 342.197L550 342.197ZM550 350.039L549.5 350.039L549.5 352L550 352L550.5 352L550.5 350.039L550 350.039ZM550 352L549.5 352C549.5 352.502 549.451 352.991 549.357 353.464L549.848 353.561L550.338 353.658C550.444 353.122 550.5 352.567 550.5 352L550 352ZM548.653 356.445L548.237 356.167C547.689 356.985 546.985 357.689 546.167 358.237L546.445 358.653L546.723 359.068C547.65 358.448 548.448 357.65 549.068 356.723L548.653 356.445ZM543.561 359.848L543.464 359.357C542.991 359.451 542.502 359.5 542 359.5L542 360L542 360.5C542.567 360.5 543.122 360.444 543.658 360.338L543.561 359.848ZM542 360L542 359.5L540.029 359.5L540.029 360L540.029 360.5L542 360.5L542 360ZM536.086 360L536.086 359.5L532.143 359.5L532.143 360L532.143 360.5L536.086 360.5L536.086 360ZM528.2 360L528.2 359.5L524.257 359.5L524.257 360L524.257 360.5L528.2 360.5L528.2 360ZM520.314 360L520.314 359.5L516.371 359.5L516.371 360L516.371 360.5L520.314 360.5L520.314 360ZM512.429 360L512.429 359.5L508.486 359.5L508.486 360L508.486 360.5L512.429 360.5L512.429 360ZM504.543 360L504.543 359.5L500.6 359.5L500.6 360L500.6 360.5L504.543 360.5L504.543 360ZM496.657 360L496.657 359.5L492.714 359.5L492.714 360L492.714 360.5L496.657 360.5L496.657 360ZM488.771 360L488.771 359.5L484.829 359.5L484.829 360L484.829 360.5L488.771 360.5L488.771 360ZM480.886 360L480.886 359.5L476.943 359.5L476.943 360L476.943 360.5L480.886 360.5L480.886 360ZM473 360L473 359.5L469.057 359.5L469.057 360L469.057 360.5L473 360.5L473 360ZM465.114 360L465.114 359.5L461.171 359.5L461.171 360L461.171 360.5L465.114 360.5L465.114 360ZM457.229 360L457.229 359.5L453.286 359.5L453.286 360L453.286 360.5L457.229 360.5L457.229 360ZM449.343 360L449.343 359.5L445.4 359.5L445.4 360L445.4 360.5L449.343 360.5L449.343 360ZM441.457 360L441.457 359.5L437.514 359.5L437.514 360L437.514 360.5L441.457 360.5L441.457 360ZM433.571 360L433.571 359.5L429.629 359.5L429.629 360L429.629 360.5L433.571 360.5L433.571 360ZM425.686 360L425.686 359.5L421.743 359.5L421.743 360L421.743 360.5L425.686 360.5L425.686 360ZM417.8 360L417.8 359.5L413.857 359.5L413.857 360L413.857 360.5L417.8 360.5L417.8 360ZM409.914 360L409.914 359.5L405.971 359.5L405.971 360L405.971 360.5L409.914 360.5L409.914 360ZM402.029 360L402.029 359.5L398.086 359.5L398.086 360L398.086 360.5L402.029 360.5L402.029 360ZM394.143 360L394.143 359.5L390.2 359.5L390.2 360L390.2 360.5L394.143 360.5L394.143 360ZM386.257 360L386.257 359.5L382.314 359.5L382.314 360L382.314 360.5L386.257 360.5L386.257 360ZM378.371 360L378.371 359.5L374.429 359.5L374.429 360L374.429 360.5L378.371 360.5L378.371 360ZM370.486 360L370.486 359.5L366.543 359.5L366.543 360L366.543 360.5L370.486 360.5L370.486 360ZM362.6 360L362.6 359.5L358.657 359.5L358.657 360L358.657 360.5L362.6 360.5L362.6 360ZM354.714 360L354.714 359.5L350.771 359.5L350.771 360L350.771 360.5L354.714 360.5L354.714 360ZM346.829 360L346.829 359.5L342.886 359.5L342.886 360L342.886 360.5L346.829 360.5L346.829 360ZM338.943 360L338.943 359.5L335 359.5L335 360L335 360.5L338.943 360.5L338.943 360ZM331.057 360L331.057 359.5L327.114 359.5L327.114 360L327.114 360.5L331.057 360.5L331.057 360ZM323.171 360L323.171 359.5L319.229 359.5L319.229 360L319.229 360.5L323.171 360.5L323.171 360ZM315.286 360L315.286 359.5L311.343 359.5L311.343 360L311.343 360.5L315.286 360.5L315.286 360ZM307.4 360L307.4 359.5L303.457 359.5L303.457 360L303.457 360.5L307.4 360.5L307.4 360ZM299.514 360L299.514 359.5L295.571 359.5L295.571 360L295.571 360.5L299.514 360.5L299.514 360ZM291.629 360L291.629 359.5L287.686 359.5L287.686 360L287.686 360.5L291.629 360.5L291.629 360ZM283.743 360L283.743 359.5L279.8 359.5L279.8 360L279.8 360.5L283.743 360.5L283.743 360ZM275.857 360L275.857 359.5L271.914 359.5L271.914 360L271.914 360.5L275.857 360.5L275.857 360ZM267.971 360L267.971 359.5L266 359.5L266 360L266 360.5L267.971 360.5L267.971 360ZM266 360L266 359.5C265.498 359.5 265.009 359.451 264.536 359.357L264.439 359.848L264.342 360.338C264.878 360.444 265.433 360.5 266 360.5L266 360ZM261.555 358.653L261.833 358.237C261.015 357.689 260.311 356.985 259.763 356.167L259.347 356.445L258.932 356.723C259.552 357.65 260.35 358.448 261.277 359.068L261.555 358.653ZM258.152 353.561L258.643 353.464C258.549 352.991 258.5 352.502 258.5 352L258 352L257.5 352C257.5 352.567 257.556 353.122 257.662 353.658L258.152 353.561ZM258 352L258.5 352L258.5 350.039L258 350.039L257.5 350.039L257.5 352L258 352ZM258 346.118L258.5 346.118L258.5 342.197L258 342.197L257.5 342.197L257.5 346.118L258 346.118ZM258 338.276L258.5 338.276L258.5 334.355L258 334.355L257.5 334.355L257.5 338.276L258 338.276ZM258 330.434L258.5 330.434L258.5 326.513L258 326.513L257.5 326.513L257.5 330.434L258 330.434ZM258 322.592L258.5 322.592L258.5 318.671L258 318.671L257.5 318.671L257.5 322.592L258 322.592ZM258 314.75L258.5 314.75L258.5 310.829L258 310.829L257.5 310.829L257.5 314.75L258 314.75ZM258 306.908L258.5 306.908L258.5 302.987L258 302.987L257.5 302.987L257.5 306.908L258 306.908ZM258 299.066L258.5 299.066L258.5 295.145L258 295.145L257.5 295.145L257.5 299.066L258 299.066ZM258 291.224L258.5 291.224L258.5 287.303L258 287.303L257.5 287.303L257.5 291.224L258 291.224ZM258 283.382L258.5 283.382L258.5 279.461L258 279.461L257.5 279.461L257.5 283.382L258 283.382ZM258 275.539L258.5 275.539L258.5 271.618L258 271.618L257.5 271.618L257.5 275.539L258 275.539ZM258 267.697L258.5 267.697L258.5 263.776L258 263.776L257.5 263.776L257.5 267.697L258 267.697ZM258 259.855L258.5 259.855L258.5 255.934L258 255.934L257.5 255.934L257.5 259.855L258 259.855ZM258 252.013L258.5 252.013L258.5 248.092L258 248.092L257.5 248.092L257.5 252.013L258 252.013ZM258 244.171L258.5 244.171L258.5 240.25L258 240.25L257.5 240.25L257.5 244.171L258 244.171ZM258 236.329L258.5 236.329L258.5 232.408L258 232.408L257.5 232.408L257.5 236.329L258 236.329ZM258 228.487L258.5 228.487L258.5 224.566L258 224.566L257.5 224.566L257.5 228.487L258 228.487ZM258 220.645L258.5 220.645L258.5 216.724L258 216.724L257.5 216.724L257.5 220.645L258 220.645ZM258 212.803L258.5 212.803L258.5 208.882L258 208.882L257.5 208.882L257.5 212.803L258 212.803ZM258 204.961L258.5 204.961L258.5 203L258 203L257.5 203L257.5 204.961L258 204.961Z" fill="white"/>
<path d="M274 317C274 312.582 277.582 309 282 309H526C530.418 309 534 312.582 534 317V340C534 344.418 530.418 348 526 348H282C277.582 348 274 344.418 274 340V317Z" fill="white" fill-opacity="0.2"/>
<text fill="white" style="white-space: pre" xml:space="preserve" font-family="Red Hat Mono" font-size="16" font-weight="600" letter-spacing="0em"><tspan x="356.031" y="334.204">User Input</tspan></text>
<text fill="white" style="white-space: pre" xml:space="preserve" font-family="Red Hat Mono" font-size="16" font-weight="600" letter-spacing="0em"><tspan x="989.641" y="232.204">Broader World</tspan></text>
<path d="M274 215C274 210.582 277.582 207 282 207H526C530.418 207 534 210.582 534 215V238C534 242.418 530.418 246 526 246H282C277.582 246 274 242.418 274 238V215Z" fill="white" fill-opacity="0.2"/>
<text fill="white" style="white-space: pre" xml:space="preserve" font-family="Red Hat Mono" font-size="16" font-weight="600" letter-spacing="0em"><tspan x="308.062" y="232.204">System Prompt &#38; Tool</tspan></text>
<path d="M274 266C274 261.582 277.582 258 282 258H526C530.418 258 534 261.582 534 266V289C534 293.418 530.418 297 526 297H282C277.582 297 274 293.418 274 289V266Z" fill="#E66A32" fill-opacity="0.25"/>
<text fill="white" style="white-space: pre" xml:space="preserve" font-family="Red Hat Mono" font-size="16" font-weight="600" letter-spacing="0em"><tspan x="360.828" y="283.204">Web Tools</tspan></text>
<path d="M274 380C274 375.582 277.582 372 282 372H526C530.418 372 534 375.582 534 380V454C534 458.418 530.418 462 526 462H282C277.582 462 274 458.418 274 454V380Z" fill="#E66A32" fill-opacity="0.25"/>
<text fill="white" style="white-space: pre" xml:space="preserve" font-family="Red Hat Mono" font-size="16" font-weight="600" letter-spacing="0em"><tspan x="351.234" y="422.704">Web Content</tspan></text>
<path d="M606 317C606 312.582 609.582 309 614 309H858C862.418 309 866 312.582 866 317V340C866 344.418 862.418 348 858 348H614C609.582 348 606 344.418 606 340V317Z" fill="white"/>
<text fill="#080808" style="white-space: pre" xml:space="preserve" font-family="Red Hat Mono" font-size="16" font-weight="600" letter-spacing="0em"><tspan x="721.609" y="334.204">LLM</tspan></text>
<path d="M606 431C606 426.582 609.582 423 614 423H858C862.418 423 866 426.582 866 431V454C866 458.418 862.418 462 858 462H614C609.582 462 606 458.418 606 454V431Z" fill="white"/>
<text fill="#080808" style="white-space: pre" xml:space="preserve" font-family="Red Hat Mono" font-size="16" font-weight="600" letter-spacing="0em"><tspan x="721.609" y="448.204">LLM</tspan></text>
<path d="M922 317C922 312.582 925.582 309 930 309H1174C1178.42 309 1182 312.582 1182 317V340C1182 344.418 1178.42 348 1174 348H930C925.582 348 922 344.418 922 340V317Z" fill="#E66A32"/>
<text fill="#080808" style="white-space: pre" xml:space="preserve" font-family="Red Hat Mono" font-size="16" font-weight="600" letter-spacing="0em"><tspan x="970.453" y="334.204">Web Search &#38; Read</tspan></text>
<path d="M533.293 391.293C532.902 391.683 532.902 392.317 533.293 392.707L539.657 399.071C540.047 399.462 540.681 399.462 541.071 399.071C541.462 398.681 541.462 398.047 541.071 397.657L535.414 392L541.071 386.343C541.462 385.953 541.462 385.319 541.071 384.929C540.681 384.538 540.047 384.538 539.657 384.929L533.293 391.293ZM1052 348L1051 348L1051 384L1052 384L1053 384L1053 348L1052 348ZM1044 392L1044 391L534 391L534 392L534 393L1044 393L1044 392ZM1052 384L1051 384C1051 387.866 1047.87 391 1044 391L1044 392L1044 393C1048.97 393 1053 388.971 1053 384L1052 384Z" fill="white"/>
<path d="M533.293 505.293C532.902 505.683 532.902 506.317 533.293 506.707L539.657 513.071C540.047 513.462 540.681 513.462 541.071 513.071C541.462 512.681 541.462 512.047 541.071 511.657L535.414 506L541.071 500.343C541.462 499.953 541.462 499.319 541.071 498.929C540.681 498.538 540.047 498.538 539.657 498.929L533.293 505.293ZM736 462L735 462L735 498L736 498L737 498L737 462L736 462ZM728 506L728 505L534 505L534 506L534 507L728 507L728 506ZM736 498L735 498C735 501.866 731.866 505 728 505L728 506L728 507C732.971 507 737 502.971 737 498L736 498Z" fill="white"/>
<path d="M606.707 329.707C607.098 329.317 607.098 328.683 606.707 328.293L600.343 321.929C599.953 321.538 599.319 321.538 598.929 321.929C598.538 322.319 598.538 322.953 598.929 323.343L604.586 329L598.929 334.657C598.538 335.047 598.538 335.681 598.929 336.071C599.319 336.462 599.953 336.462 600.343 336.071L606.707 329.707ZM606 329V328H550V329V330H606V329Z" fill="white"/>
<path d="M606.707 443.707C607.098 443.317 607.098 442.683 606.707 442.293L600.343 435.929C599.953 435.538 599.319 435.538 598.929 435.929C598.538 436.319 598.538 436.953 598.929 437.343L604.586 443L598.929 448.657C598.538 449.047 598.538 449.681 598.929 450.071C599.319 450.462 599.953 450.462 600.343 450.071L606.707 443.707ZM606 443V442H550V443V444H606V443Z" fill="white"/>
<path d="M922.707 329.707C923.098 329.317 923.098 328.683 922.707 328.293L916.343 321.929C915.953 321.538 915.319 321.538 914.929 321.929C914.538 322.319 914.538 322.953 914.929 323.343L920.586 329L914.929 334.657C914.538 335.047 914.538 335.681 914.929 336.071C915.319 336.462 915.953 336.462 916.343 336.071L922.707 329.707ZM922 329V328H866V329V330H922V329Z" fill="white"/>
<path d="M1035.71 252.293C1035.32 251.902 1034.68 251.902 1034.29 252.293L1027.93 258.657C1027.54 259.047 1027.54 259.681 1027.93 260.071C1028.32 260.462 1028.95 260.462 1029.34 260.071L1035 254.414L1040.66 260.071C1041.05 260.462 1041.68 260.462 1042.07 260.071C1042.46 259.681 1042.46 259.047 1042.07 258.657L1035.71 252.293ZM1035 253L1034 253L1034 309L1035 309L1036 309L1036 253L1035 253Z" fill="white"/>
<path d="M1068.28 309.707C1068.67 310.098 1069.31 310.098 1069.7 309.707L1076.06 303.343C1076.45 302.953 1076.45 302.319 1076.06 301.929C1075.67 301.538 1075.04 301.538 1074.65 301.929L1068.99 307.586L1063.33 301.929C1062.94 301.538 1062.31 301.538 1061.92 301.929C1061.53 302.319 1061.53 302.953 1061.92 303.343L1068.28 309.707ZM1068.99 309L1069.99 309L1069.99 253L1068.99 253L1067.99 253L1067.99 309L1068.99 309Z" fill="white"/>
<path d="M274 494C274 489.582 277.582 486 282 486H526C530.418 486 534 489.582 534 494V517C534 521.418 530.418 525 526 525H282C277.582 525 274 521.418 274 517V494Z" fill="white" fill-opacity="0.2"/>
<text fill="white" style="white-space: pre" xml:space="preserve" font-family="Red Hat Mono" font-size="16" font-weight="600" letter-spacing="0em"><tspan x="317.656" y="511.204">Assistant Response</tspan></text>
</g>
<defs>
<clipPath id="clip0_221_553">
<rect width="1440" height="720" fill="white"/>
</clipPath>
</defs>
</svg>
