<svg width="1440" height="720" viewBox="0 0 1440 720" fill="none" xmlns="http://www.w3.org/2000/svg">
<g clip-path="url(#clip0_221_684)">
<rect width="1440" height="720" fill="#080808"/>
<path d="M399 350C399 345.582 402.582 342 407 342H651C655.418 342 659 345.582 659 350V424C659 428.418 655.418 432 651 432H407C402.582 432 399 428.418 399 424V350Z" fill="white"/>
<text fill="#080808" style="white-space: pre" xml:space="preserve" font-family="Red Hat Mono" font-size="16" font-weight="600" letter-spacing="0em"><tspan x="500.219" y="392.704">Config</tspan></text>
<path d="M731 296C731 291.582 734.582 288 739 288H983C987.418 288 991 291.582 991 296V319C991 323.418 987.418 327 983 327H739C734.582 327 731 323.418 731 319V296Z" fill="#E66A32"/>
<text fill="#080808" style="white-space: pre" xml:space="preserve" font-family="Red Hat Mono" font-size="16" font-weight="600" letter-spacing="0em"><tspan x="793.844" y="313.204">Config Watcher</tspan></text>
<path d="M731 350C731 345.582 734.582 342 739 342H983C987.418 342 991 345.582 991 350V373C991 377.418 987.418 381 983 381H739C734.582 381 731 377.418 731 373V350Z" fill="white"/>
<text fill="#080808" style="white-space: pre" xml:space="preserve" font-family="Red Hat Mono" font-size="16" font-weight="600" letter-spacing="0em"><tspan x="784.25" y="367.204">config.user.yaml</tspan></text>
<path d="M731 401C731 396.582 734.582 393 739 393H983C987.418 393 991 396.582 991 401V424C991 428.418 987.418 432 983 432H739C734.582 432 731 428.418 731 424V401Z" fill="white"/>
<text fill="#080808" style="white-space: pre" xml:space="preserve" font-family="Red Hat Mono" font-size="16" font-weight="600" letter-spacing="0em"><tspan x="769.859" y="418.204">config.runtime.yaml</tspan></text>
<path d="M658.293 363.707C657.902 363.317 657.902 362.683 658.293 362.293L664.657 355.929C665.047 355.538 665.681 355.538 666.071 355.929C666.462 356.319 666.462 356.953 666.071 357.343L660.414 363L666.071 368.657C666.462 369.047 666.462 369.681 666.071 370.071C665.681 370.462 665.047 370.462 664.657 370.071L658.293 363.707ZM731 308L731 309L716.655 309L716.655 308L716.655 307L731 307L731 308ZM708.655 316L709.655 316L709.655 355L708.655 355L707.655 355L707.655 316L708.655 316ZM700.655 363L700.655 364L659 364L659 363L659 362L700.655 362L700.655 363ZM708.655 355L709.655 355C709.655 359.971 705.626 364 700.655 364L700.655 363L700.655 362C704.521 362 707.655 358.866 707.655 355L708.655 355ZM716.655 308L716.655 309C712.789 309 709.655 312.134 709.655 316L708.655 316L707.655 316C707.655 311.029 711.685 307 716.655 307L716.655 308Z" fill="white"/>
<path d="M990.293 307.293C989.902 307.683 989.902 308.317 990.293 308.707L996.657 315.071C997.047 315.462 997.681 315.462 998.071 315.071C998.462 314.681 998.462 314.047 998.071 313.657L992.414 308L998.071 302.343C998.462 301.953 998.462 301.319 998.071 300.929C997.681 300.538 997.047 300.538 996.657 300.929L990.293 307.293ZM991 360L991 361L1033 361L1033 360L1033 359L991 359L991 360ZM1041 352L1042 352L1042 316L1041 316L1040 316L1040 352L1041 352ZM1033 308L1033 307L991 307L991 308L991 309L1033 309L1033 308ZM1041 316L1042 316C1042 311.029 1037.97 307 1033 307L1033 308L1033 309C1036.87 309 1040 312.134 1040 316L1041 316ZM1033 360L1033 361C1037.97 361 1042 356.971 1042 352L1041 352L1040 352C1040 355.866 1036.87 359 1033 359L1033 360Z" fill="white"/>
<path d="M990.293 307.293C989.902 307.683 989.902 308.317 990.293 308.707L996.657 315.071C997.047 315.462 997.681 315.462 998.071 315.071C998.462 314.681 998.462 314.047 998.071 313.657L992.414 308L998.071 302.343C998.462 301.953 998.462 301.319 998.071 300.929C997.681 300.538 997.047 300.538 996.657 300.929L990.293 307.293ZM991 413L991 414L1033 414L1033 413L1033 412L991 412L991 413ZM1041 405L1042 405L1042 316L1041 316L1040 316L1040 405L1041 405ZM1033 308L1033 307L991 307L991 308L991 309L1033 309L1033 308ZM1041 316L1042 316C1042 311.029 1037.97 307 1033 307L1033 308L1033 309C1036.87 309 1040 312.134 1040 316L1041 316ZM1033 413L1033 414C1037.97 414 1042 409.971 1042 405L1041 405L1040 405C1040 408.866 1036.87 412 1033 412L1033 413Z" fill="white"/>
<path d="M731.707 413.717C732.098 413.326 732.098 412.693 731.707 412.303L725.343 405.939C724.953 405.548 724.319 405.548 723.929 405.939C723.538 406.329 723.538 406.962 723.929 407.353L729.586 413.01L723.929 418.667C723.538 419.057 723.538 419.69 723.929 420.081C724.319 420.471 724.953 420.471 725.343 420.081L731.707 413.717ZM731 413.01L731 412.01L659 412.01L659 413.01L659 414.01L731 414.01L731 413.01Z" fill="white"/>
</g>
<defs>
<clipPath id="clip0_221_684">
<rect width="1440" height="720" fill="white"/>
</clipPath>
</defs>
</svg>
