<svg width="1440" height="720" viewBox="0 0 1440 720" fill="none" xmlns="http://www.w3.org/2000/svg">
<g clip-path="url(#clip0_232_101)">
<rect width="1440" height="720" fill="#080808"/>
<path d="M1174 214C1178.42 214 1182 217.582 1182 222L1182 473C1182 477.418 1178.42 481 1174 481L898 481C893.582 481 890 477.418 890 473L890 222C890 217.582 893.582 214 898 214L1174 214Z" fill="white" fill-opacity="0.05"/>
<path d="M890 222L890.5 222C890.5 221.498 890.549 221.009 890.643 220.536L890.152 220.439L889.662 220.342C889.556 220.878 889.5 221.433 889.5 222L890 222ZM891.347 217.555L891.763 217.833C892.311 217.015 893.015 216.311 893.833 215.763L893.555 215.347L893.277 214.932C892.35 215.552 891.552 216.35 890.932 217.277L891.347 217.555ZM896.439 214.152L896.536 214.643C897.009 214.549 897.498 214.5 898 214.5L898 214L898 213.5C897.433 213.5 896.878 213.556 896.342 213.662L896.439 214.152ZM898 214L898 214.5L899.971 214.5L899.971 214L899.971 213.5L898 213.5L898 214ZM903.914 214L903.914 214.5L907.857 214.5L907.857 214L907.857 213.5L903.914 213.5L903.914 214ZM911.8 214L911.8 214.5L915.743 214.5L915.743 214L915.743 213.5L911.8 213.5L911.8 214ZM919.686 214L919.686 214.5L923.629 214.5L923.629 214L923.629 213.5L919.686 213.5L919.686 214ZM927.571 214L927.571 214.5L931.514 214.5L931.514 214L931.514 213.5L927.571 213.5L927.571 214ZM935.457 214L935.457 214.5L939.4 214.5L939.4 214L939.4 213.5L935.457 213.5L935.457 214ZM943.343 214L943.343 214.5L947.286 214.5L947.286 214L947.286 213.5L943.343 213.5L943.343 214ZM951.229 214L951.229 214.5L955.171 214.5L955.171 214L955.171 213.5L951.229 213.5L951.229 214ZM959.114 214L959.114 214.5L963.057 214.5L963.057 214L963.057 213.5L959.114 213.5L959.114 214ZM967 214L967 214.5L970.943 214.5L970.943 214L970.943 213.5L967 213.5L967 214ZM974.886 214L974.886 214.5L978.829 214.5L978.829 214L978.829 213.5L974.886 213.5L974.886 214ZM982.771 214L982.771 214.5L986.714 214.5L986.714 214L986.714 213.5L982.771 213.5L982.771 214ZM990.657 214L990.657 214.5L994.6 214.5L994.6 214L994.6 213.5L990.657 213.5L990.657 214ZM998.543 214L998.543 214.5L1002.49 214.5L1002.49 214L1002.49 213.5L998.543 213.5L998.543 214ZM1006.43 214L1006.43 214.5L1010.37 214.5L1010.37 214L1010.37 213.5L1006.43 213.5L1006.43 214ZM1014.31 214L1014.31 214.5L1018.26 214.5L1018.26 214L1018.26 213.5L1014.31 213.5L1014.31 214ZM1022.2 214L1022.2 214.5L1026.14 214.5L1026.14 214L1026.14 213.5L1022.2 213.5L1022.2 214ZM1030.09 214L1030.09 214.5L1034.03 214.5L1034.03 214L1034.03 213.5L1030.09 213.5L1030.09 214ZM1037.97 214L1037.97 214.5L1041.91 214.5L1041.91 214L1041.91 213.5L1037.97 213.5L1037.97 214ZM1045.86 214L1045.86 214.5L1049.8 214.5L1049.8 214L1049.8 213.5L1045.86 213.5L1045.86 214ZM1053.74 214L1053.74 214.5L1057.69 214.5L1057.69 214L1057.69 213.5L1053.74 213.5L1053.74 214ZM1061.63 214L1061.63 214.5L1065.57 214.5L1065.57 214L1065.57 213.5L1061.63 213.5L1061.63 214ZM1069.51 214L1069.51 214.5L1073.46 214.5L1073.46 214L1073.46 213.5L1069.51 213.5L1069.51 214ZM1077.4 214L1077.4 214.5L1081.34 214.5L1081.34 214L1081.34 213.5L1077.4 213.5L1077.4 214ZM1085.29 214L1085.29 214.5L1089.23 214.5L1089.23 214L1089.23 213.5L1085.29 213.5L1085.29 214ZM1093.17 214L1093.17 214.5L1097.11 214.5L1097.11 214L1097.11 213.5L1093.17 213.5L1093.17 214ZM1101.06 214L1101.06 214.5L1105 214.5L1105 214L1105 213.5L1101.06 213.5L1101.06 214ZM1108.94 214L1108.94 214.5L1112.89 214.5L1112.89 214L1112.89 213.5L1108.94 213.5L1108.94 214ZM1116.83 214L1116.83 214.5L1120.77 214.5L1120.77 214L1120.77 213.5L1116.83 213.5L1116.83 214ZM1124.71 214L1124.71 214.5L1128.66 214.5L1128.66 214L1128.66 213.5L1124.71 213.5L1124.71 214ZM1132.6 214L1132.6 214.5L1136.54 214.5L1136.54 214L1136.54 213.5L1132.6 213.5L1132.6 214ZM1140.49 214L1140.49 214.5L1144.43 214.5L1144.43 214L1144.43 213.5L1140.49 213.5L1140.49 214ZM1148.37 214L1148.37 214.5L1152.31 214.5L1152.31 214L1152.31 213.5L1148.37 213.5L1148.37 214ZM1156.26 214L1156.26 214.5L1160.2 214.5L1160.2 214L1160.2 213.5L1156.26 213.5L1156.26 214ZM1164.14 214L1164.14 214.5L1168.09 214.5L1168.09 214L1168.09 213.5L1164.14 213.5L1164.14 214ZM1172.03 214L1172.03 214.5L1174 214.5L1174 214L1174 213.5L1172.03 213.5L1172.03 214ZM1174 214L1174 214.5C1174.5 214.5 1174.99 214.549 1175.46 214.643L1175.56 214.152L1175.66 213.662C1175.12 213.556 1174.57 213.5 1174 213.5L1174 214ZM1178.44 215.347L1178.17 215.763C1178.98 216.311 1179.69 217.015 1180.24 217.833L1180.65 217.555L1181.07 217.277C1180.45 216.35 1179.65 215.552 1178.72 214.932L1178.44 215.347ZM1181.85 220.439L1181.36 220.536C1181.45 221.009 1181.5 221.498 1181.5 222L1182 222L1182.5 222C1182.5 221.433 1182.44 220.878 1182.34 220.342L1181.85 220.439ZM1182 222L1181.5 222L1181.5 224.024L1182 224.024L1182.5 224.024L1182.5 222L1182 222ZM1182 228.073L1181.5 228.073L1181.5 232.121L1182 232.121L1182.5 232.121L1182.5 228.073L1182 228.073ZM1182 236.169L1181.5 236.169L1181.5 240.218L1182 240.218L1182.5 240.218L1182.5 236.169L1182 236.169ZM1182 244.266L1181.5 244.266L1181.5 248.315L1182 248.315L1182.5 248.315L1182.5 244.266L1182 244.266ZM1182 252.363L1181.5 252.363L1181.5 256.411L1182 256.411L1182.5 256.411L1182.5 252.363L1182 252.363ZM1182 260.46L1181.5 260.46L1181.5 264.508L1182 264.508L1182.5 264.508L1182.5 260.46L1182 260.46ZM1182 268.556L1181.5 268.556L1181.5 272.605L1182 272.605L1182.5 272.605L1182.5 268.556L1182 268.556ZM1182 276.653L1181.5 276.653L1181.5 280.702L1182 280.702L1182.5 280.702L1182.5 276.653L1182 276.653ZM1182 284.75L1181.5 284.75L1181.5 288.798L1182 288.798L1182.5 288.798L1182.5 284.75L1182 284.75ZM1182 292.847L1181.5 292.847L1181.5 296.895L1182 296.895L1182.5 296.895L1182.5 292.847L1182 292.847ZM1182 300.944L1181.5 300.944L1181.5 304.992L1182 304.992L1182.5 304.992L1182.5 300.944L1182 300.944ZM1182 309.04L1181.5 309.04L1181.5 313.089L1182 313.089L1182.5 313.089L1182.5 309.04L1182 309.04ZM1182 317.137L1181.5 317.137L1181.5 321.185L1182 321.185L1182.5 321.185L1182.5 317.137L1182 317.137ZM1182 325.234L1181.5 325.234L1181.5 329.282L1182 329.282L1182.5 329.282L1182.5 325.234L1182 325.234ZM1182 333.331L1181.5 333.331L1181.5 337.379L1182 337.379L1182.5 337.379L1182.5 333.331L1182 333.331ZM1182 341.427L1181.5 341.427L1181.5 345.476L1182 345.476L1182.5 345.476L1182.5 341.427L1182 341.427ZM1182 349.524L1181.5 349.524L1181.5 353.573L1182 353.573L1182.5 353.573L1182.5 349.524L1182 349.524ZM1182 357.621L1181.5 357.621L1181.5 361.669L1182 361.669L1182.5 361.669L1182.5 357.621L1182 357.621ZM1182 365.718L1181.5 365.718L1181.5 369.766L1182 369.766L1182.5 369.766L1182.5 365.718L1182 365.718ZM1182 373.814L1181.5 373.814L1181.5 377.863L1182 377.863L1182.5 377.863L1182.5 373.814L1182 373.814ZM1182 381.911L1181.5 381.911L1181.5 385.96L1182 385.96L1182.5 385.96L1182.5 381.911L1182 381.911ZM1182 390.008L1181.5 390.008L1181.5 394.056L1182 394.056L1182.5 394.056L1182.5 390.008L1182 390.008ZM1182 398.105L1181.5 398.105L1181.5 402.153L1182 402.153L1182.5 402.153L1182.5 398.105L1182 398.105ZM1182 406.202L1181.5 406.202L1181.5 410.25L1182 410.25L1182.5 410.25L1182.5 406.202L1182 406.202ZM1182 414.298L1181.5 414.298L1181.5 418.347L1182 418.347L1182.5 418.347L1182.5 414.298L1182 414.298ZM1182 422.395L1181.5 422.395L1181.5 426.444L1182 426.444L1182.5 426.444L1182.5 422.395L1182 422.395ZM1182 430.492L1181.5 430.492L1181.5 434.54L1182 434.54L1182.5 434.54L1182.5 430.492L1182 430.492ZM1182 438.589L1181.5 438.589L1181.5 442.637L1182 442.637L1182.5 442.637L1182.5 438.589L1182 438.589ZM1182 446.685L1181.5 446.685L1181.5 450.734L1182 450.734L1182.5 450.734L1182.5 446.685L1182 446.685ZM1182 454.782L1181.5 454.782L1181.5 458.831L1182 458.831L1182.5 458.831L1182.5 454.782L1182 454.782ZM1182 462.879L1181.5 462.879L1181.5 466.927L1182 466.927L1182.5 466.927L1182.5 462.879L1182 462.879ZM1182 470.976L1181.5 470.976L1181.5 473L1182 473L1182.5 473L1182.5 470.976L1182 470.976ZM1182 473L1181.5 473C1181.5 473.502 1181.45 473.991 1181.36 474.464L1181.85 474.561L1182.34 474.658C1182.44 474.122 1182.5 473.567 1182.5 473L1182 473ZM1180.65 477.445L1180.24 477.167C1179.69 477.985 1178.98 478.689 1178.17 479.237L1178.44 479.653L1178.72 480.068C1179.65 479.448 1180.45 478.65 1181.07 477.723L1180.65 477.445ZM1175.56 480.848L1175.46 480.357C1174.99 480.451 1174.5 480.5 1174 480.5L1174 481L1174 481.5C1174.57 481.5 1175.12 481.444 1175.66 481.338L1175.56 480.848ZM1174 481L1174 480.5L1172.03 480.5L1172.03 481L1172.03 481.5L1174 481.5L1174 481ZM1168.09 481L1168.09 480.5L1164.14 480.5L1164.14 481L1164.14 481.5L1168.09 481.5L1168.09 481ZM1160.2 481L1160.2 480.5L1156.26 480.5L1156.26 481L1156.26 481.5L1160.2 481.5L1160.2 481ZM1152.31 481L1152.31 480.5L1148.37 480.5L1148.37 481L1148.37 481.5L1152.31 481.5L1152.31 481ZM1144.43 481L1144.43 480.5L1140.49 480.5L1140.49 481L1140.49 481.5L1144.43 481.5L1144.43 481ZM1136.54 481L1136.54 480.5L1132.6 480.5L1132.6 481L1132.6 481.5L1136.54 481.5L1136.54 481ZM1128.66 481L1128.66 480.5L1124.71 480.5L1124.71 481L1124.71 481.5L1128.66 481.5L1128.66 481ZM1120.77 481L1120.77 480.5L1116.83 480.5L1116.83 481L1116.83 481.5L1120.77 481.5L1120.77 481ZM1112.89 481L1112.89 480.5L1108.94 480.5L1108.94 481L1108.94 481.5L1112.89 481.5L1112.89 481ZM1105 481L1105 480.5L1101.06 480.5L1101.06 481L1101.06 481.5L1105 481.5L1105 481ZM1097.11 481L1097.11 480.5L1093.17 480.5L1093.17 481L1093.17 481.5L1097.11 481.5L1097.11 481ZM1089.23 481L1089.23 480.5L1085.29 480.5L1085.29 481L1085.29 481.5L1089.23 481.5L1089.23 481ZM1081.34 481L1081.34 480.5L1077.4 480.5L1077.4 481L1077.4 481.5L1081.34 481.5L1081.34 481ZM1073.46 481L1073.46 480.5L1069.51 480.5L1069.51 481L1069.51 481.5L1073.46 481.5L1073.46 481ZM1065.57 481L1065.57 480.5L1061.63 480.5L1061.63 481L1061.63 481.5L1065.57 481.5L1065.57 481ZM1057.69 481L1057.69 480.5L1053.74 480.5L1053.74 481L1053.74 481.5L1057.69 481.5L1057.69 481ZM1049.8 481L1049.8 480.5L1045.86 480.5L1045.86 481L1045.86 481.5L1049.8 481.5L1049.8 481ZM1041.91 481L1041.91 480.5L1037.97 480.5L1037.97 481L1037.97 481.5L1041.91 481.5L1041.91 481ZM1034.03 481L1034.03 480.5L1030.09 480.5L1030.09 481L1030.09 481.5L1034.03 481.5L1034.03 481ZM1026.14 481L1026.14 480.5L1022.2 480.5L1022.2 481L1022.2 481.5L1026.14 481.5L1026.14 481ZM1018.26 481L1018.26 480.5L1014.31 480.5L1014.31 481L1014.31 481.5L1018.26 481.5L1018.26 481ZM1010.37 481L1010.37 480.5L1006.43 480.5L1006.43 481L1006.43 481.5L1010.37 481.5L1010.37 481ZM1002.49 481L1002.49 480.5L998.543 480.5L998.543 481L998.543 481.5L1002.49 481.5L1002.49 481ZM994.6 481L994.6 480.5L990.657 480.5L990.657 481L990.657 481.5L994.6 481.5L994.6 481ZM986.714 481L986.714 480.5L982.771 480.5L982.771 481L982.771 481.5L986.714 481.5L986.714 481ZM978.829 481L978.829 480.5L974.886 480.5L974.886 481L974.886 481.5L978.829 481.5L978.829 481ZM970.943 481L970.943 480.5L967 480.5L967 481L967 481.5L970.943 481.5L970.943 481ZM963.057 481L963.057 480.5L959.114 480.5L959.114 481L959.114 481.5L963.057 481.5L963.057 481ZM955.171 481L955.171 480.5L951.229 480.5L951.229 481L951.229 481.5L955.171 481.5L955.171 481ZM947.286 481L947.286 480.5L943.343 480.5L943.343 481L943.343 481.5L947.286 481.5L947.286 481ZM939.4 481L939.4 480.5L935.457 480.5L935.457 481L935.457 481.5L939.4 481.5L939.4 481ZM931.514 481L931.514 480.5L927.571 480.5L927.571 481L927.571 481.5L931.514 481.5L931.514 481ZM923.629 481L923.629 480.5L919.686 480.5L919.686 481L919.686 481.5L923.629 481.5L923.629 481ZM915.743 481L915.743 480.5L911.8 480.5L911.8 481L911.8 481.5L915.743 481.5L915.743 481ZM907.857 481L907.857 480.5L903.914 480.5L903.914 481L903.914 481.5L907.857 481.5L907.857 481ZM899.971 481L899.971 480.5L898 480.5L898 481L898 481.5L899.971 481.5L899.971 481ZM898 481L898 480.5C897.498 480.5 897.009 480.451 896.536 480.357L896.439 480.848L896.342 481.338C896.878 481.444 897.433 481.5 898 481.5L898 481ZM893.555 479.653L893.833 479.237C893.015 478.689 892.311 477.985 891.763 477.167L891.347 477.445L890.932 477.723C891.552 478.65 892.35 479.448 893.277 480.068L893.555 479.653ZM890.152 474.561L890.643 474.464C890.549 473.991 890.5 473.502 890.5 473L890 473L889.5 473C889.5 473.567 889.556 474.122 889.662 474.658L890.152 474.561ZM890 473L890.5 473L890.5 470.976L890 470.976L889.5 470.976L889.5 473L890 473ZM890 466.927L890.5 466.927L890.5 462.879L890 462.879L889.5 462.879L889.5 466.927L890 466.927ZM890 458.831L890.5 458.831L890.5 454.782L890 454.782L889.5 454.782L889.5 458.831L890 458.831ZM890 450.734L890.5 450.734L890.5 446.685L890 446.685L889.5 446.685L889.5 450.734L890 450.734ZM890 442.637L890.5 442.637L890.5 438.589L890 438.589L889.5 438.589L889.5 442.637L890 442.637ZM890 434.54L890.5 434.54L890.5 430.492L890 430.492L889.5 430.492L889.5 434.54L890 434.54ZM890 426.444L890.5 426.444L890.5 422.395L890 422.395L889.5 422.395L889.5 426.444L890 426.444ZM890 418.347L890.5 418.347L890.5 414.298L890 414.298L889.5 414.298L889.5 418.347L890 418.347ZM890 410.25L890.5 410.25L890.5 406.202L890 406.202L889.5 406.202L889.5 410.25L890 410.25ZM890 402.153L890.5 402.153L890.5 398.105L890 398.105L889.5 398.105L889.5 402.153L890 402.153ZM890 394.056L890.5 394.056L890.5 390.008L890 390.008L889.5 390.008L889.5 394.056L890 394.056ZM890 385.96L890.5 385.96L890.5 381.911L890 381.911L889.5 381.911L889.5 385.96L890 385.96ZM890 377.863L890.5 377.863L890.5 373.815L890 373.815L889.5 373.815L889.5 377.863L890 377.863ZM890 369.766L890.5 369.766L890.5 365.718L890 365.718L889.5 365.718L889.5 369.766L890 369.766ZM890 361.669L890.5 361.669L890.5 357.621L890 357.621L889.5 357.621L889.5 361.669L890 361.669ZM890 353.573L890.5 353.573L890.5 349.524L890 349.524L889.5 349.524L889.5 353.573L890 353.573ZM890 345.476L890.5 345.476L890.5 341.427L890 341.427L889.5 341.427L889.5 345.476L890 345.476ZM890 337.379L890.5 337.379L890.5 333.331L890 333.331L889.5 333.331L889.5 337.379L890 337.379ZM890 329.282L890.5 329.282L890.5 325.234L890 325.234L889.5 325.234L889.5 329.282L890 329.282ZM890 321.185L890.5 321.185L890.5 317.137L890 317.137L889.5 317.137L889.5 321.185L890 321.185ZM890 313.089L890.5 313.089L890.5 309.04L890 309.04L889.5 309.04L889.5 313.089L890 313.089ZM890 304.992L890.5 304.992L890.5 300.944L890 300.944L889.5 300.944L889.5 304.992L890 304.992ZM890 296.895L890.5 296.895L890.5 292.847L890 292.847L889.5 292.847L889.5 296.895L890 296.895ZM890 288.798L890.5 288.798L890.5 284.75L890 284.75L889.5 284.75L889.5 288.798L890 288.798ZM890 280.702L890.5 280.702L890.5 276.653L890 276.653L889.5 276.653L889.5 280.702L890 280.702ZM890 272.605L890.5 272.605L890.5 268.556L890 268.556L889.5 268.556L889.5 272.605L890 272.605ZM890 264.508L890.5 264.508L890.5 260.46L890 260.46L889.5 260.46L889.5 264.508L890 264.508ZM890 256.411L890.5 256.411L890.5 252.363L890 252.363L889.5 252.363L889.5 256.411L890 256.411ZM890 248.315L890.5 248.315L890.5 244.266L890 244.266L889.5 244.266L889.5 248.315L890 248.315ZM890 240.218L890.5 240.218L890.5 236.169L890 236.169L889.5 236.169L889.5 240.218L890 240.218ZM890 232.121L890.5 232.121L890.5 228.073L890 228.073L889.5 228.073L889.5 232.121L890 232.121ZM890 224.024L890.5 224.024L890.5 222L890 222L889.5 222L889.5 224.024L890 224.024Z" fill="white"/>
<path d="M906 336C906 331.582 909.582 328 914 328H1158C1162.42 328 1166 331.582 1166 336V359C1166 363.418 1162.42 367 1158 367H914C909.582 367 906 363.418 906 359V336Z" fill="white" fill-opacity="0.2"/>
<text fill="white" style="white-space: pre" xml:space="preserve" font-family="Red Hat Mono" font-size="16" font-weight="600" letter-spacing="0em"><tspan x="949.656" y="353.204">Assistant Response</tspan></text>
<path d="M906 438C906 433.582 909.582 430 914 430H1158C1162.42 430 1166 433.582 1166 438V461C1166 465.418 1162.42 469 1158 469H914C909.582 469 906 465.418 906 461V438Z" fill="white" fill-opacity="0.2"/>
<text fill="white" style="white-space: pre" xml:space="preserve" font-family="Red Hat Mono" font-size="16" font-weight="600" letter-spacing="0em"><tspan x="949.656" y="455.204">Assistant Response</tspan></text>
<path d="M906 285C906 280.582 909.582 277 914 277H1158C1162.42 277 1166 280.582 1166 285V308C1166 312.418 1162.42 316 1158 316H914C909.582 316 906 312.418 906 308V285Z" fill="white" fill-opacity="0.2"/>
<text fill="white" style="white-space: pre" xml:space="preserve" font-family="Red Hat Mono" font-size="16" font-weight="600" letter-spacing="0em"><tspan x="988.031" y="302.204">User Input</tspan></text>
<path d="M906 387C906 382.582 909.582 379 914 379H1158C1162.42 379 1166 382.582 1166 387V410C1166 414.418 1162.42 418 1158 418H914C909.582 418 906 414.418 906 410V387Z" fill="white" fill-opacity="0.2"/>
<text fill="white" style="white-space: pre" xml:space="preserve" font-family="Red Hat Mono" font-size="16" font-weight="600" letter-spacing="0em"><tspan x="988.031" y="404.204">User Input</tspan></text>
<path d="M906 234C906 229.582 909.582 226 914 226H1158C1162.42 226 1166 229.582 1166 234V257C1166 261.418 1162.42 265 1158 265H914C909.582 265 906 261.418 906 257V234Z" fill="white" fill-opacity="0.2"/>
<text fill="white" style="white-space: pre" xml:space="preserve" font-family="Red Hat Mono" font-size="16" font-weight="600" letter-spacing="0em"><tspan x="940.062" y="251.204">System Prompt &#38; Tool</tspan></text>
<path d="M574 311C574 306.582 577.582 303 582 303H826C830.418 303 834 306.582 834 311V385C834 389.418 830.418 393 826 393H582C577.582 393 574 389.418 574 385V311Z" fill="white"/>
<text fill="#080808" style="white-space: pre" xml:space="preserve" font-family="Red Hat Mono" font-size="16" font-weight="600" letter-spacing="0em"><tspan x="660.828" y="353.704">Event Bus</tspan></text>
<path d="M242 311C242 306.582 245.582 303 250 303H494C498.418 303 502 306.582 502 311V334C502 338.418 498.418 342 494 342H250C245.582 342 242 338.418 242 334V311Z" fill="white"/>
<text fill="#080808" style="white-space: pre" xml:space="preserve" font-family="Red Hat Mono" font-size="16" font-weight="600" letter-spacing="0em"><tspan x="304.844" y="328.204">Inbound Worker</tspan></text>
<path d="M242 362C242 357.582 245.582 354 250 354H494C498.418 354 502 357.582 502 362V385C502 389.418 498.418 393 494 393H250C245.582 393 242 389.418 242 385V362Z" fill="#E66A32"/>
<text fill="#080808" style="white-space: pre" xml:space="preserve" font-family="Red Hat Mono" font-size="16" font-weight="600" letter-spacing="0em"><tspan x="319.234" y="379.204">Cron Worker</tspan></text>
<path d="M574.707 323.707C575.098 323.317 575.098 322.683 574.707 322.293L568.343 315.929C567.953 315.538 567.319 315.538 566.929 315.929C566.538 316.319 566.538 316.953 566.929 317.343L572.586 323L566.929 328.657C566.538 329.047 566.538 329.681 566.929 330.071C567.319 330.462 567.953 330.462 568.343 330.071L574.707 323.707ZM574 323L574 322L502 322L502 323L502 324L574 324L574 323Z" fill="white"/>
<path d="M574.707 374.707C575.098 374.317 575.098 373.683 574.707 373.293L568.343 366.929C567.953 366.538 567.319 366.538 566.929 366.929C566.538 367.319 566.538 367.953 566.929 368.343L572.586 374L566.929 379.657C566.538 380.047 566.538 380.681 566.929 381.071C567.319 381.462 567.953 381.462 568.343 381.071L574.707 374.707ZM574 374L574 373L502 373L502 374L502 375L574 375L574 374Z" fill="white"/>
<path d="M833.293 372.293C832.902 372.683 832.902 373.317 833.293 373.707L839.657 380.071C840.047 380.462 840.681 380.462 841.071 380.071C841.462 379.681 841.462 379.047 841.071 378.657L835.414 373L841.071 367.343C841.462 366.953 841.462 366.319 841.071 365.929C840.681 365.538 840.047 365.538 839.657 365.929L833.293 372.293ZM906 450L906 449L891.655 449L891.655 450L891.655 451L906 451L906 450ZM883.655 442L884.655 442L884.655 381L883.655 381L882.655 381L882.655 442L883.655 442ZM875.655 373L875.655 372L834 372L834 373L834 374L875.655 374L875.655 373ZM883.655 381L884.655 381C884.655 376.029 880.626 372 875.655 372L875.655 373L875.655 374C879.521 374 882.655 377.134 882.655 381L883.655 381ZM891.655 450L891.655 449C887.789 449 884.655 445.866 884.655 442L883.655 442L882.655 442C882.655 446.971 886.685 451 891.655 451L891.655 450Z" fill="white"/>
<path d="M833.293 373.707C832.902 373.317 832.902 372.683 833.293 372.293L839.657 365.929C840.047 365.538 840.681 365.538 841.071 365.929C841.462 366.319 841.462 366.953 841.071 367.343L835.414 373L841.071 378.657C841.462 379.047 841.462 379.681 841.071 380.071C840.681 380.462 840.047 380.462 839.657 380.071L833.293 373.707ZM906 347L906 348L891.655 348L891.655 347L891.655 346L906 346L906 347ZM883.655 355L884.655 355L884.655 365L883.655 365L882.655 365L882.655 355L883.655 355ZM875.655 373L875.655 374L834 374L834 373L834 372L875.655 372L875.655 373ZM883.655 365L884.655 365C884.655 369.971 880.626 374 875.655 374L875.655 373L875.655 372C879.521 372 882.655 368.866 882.655 365L883.655 365ZM891.655 347L891.655 348C887.789 348 884.655 351.134 884.655 355L883.655 355L882.655 355C882.655 350.029 886.685 346 891.655 346L891.655 347Z" fill="white"/>
<path d="M906.707 397.707C907.098 397.317 907.098 396.683 906.707 396.293L900.343 389.929C899.953 389.538 899.319 389.538 898.929 389.929C898.538 390.319 898.538 390.953 898.929 391.343L904.586 397L898.929 402.657C898.538 403.047 898.538 403.681 898.929 404.071C899.319 404.462 899.953 404.462 900.343 404.071L906.707 397.707ZM834 325V326H848.345V325V324H834V325ZM856.345 333H855.345V389H856.345H857.345V333H856.345ZM864.345 397V398H906V397V396H864.345V397ZM856.345 389H855.345C855.345 393.971 859.374 398 864.345 398V397V396C860.479 396 857.345 392.866 857.345 389H856.345ZM848.345 325V326C852.211 326 855.345 329.134 855.345 333H856.345H857.345C857.345 328.029 853.315 324 848.345 324V325Z" fill="white"/>
<path d="M906.707 295.293C907.098 295.683 907.098 296.317 906.707 296.707L900.343 303.071C899.953 303.462 899.319 303.462 898.929 303.071C898.538 302.681 898.538 302.047 898.929 301.657L904.586 296L898.929 290.343C898.538 289.953 898.538 289.319 898.929 288.929C899.319 288.538 899.953 288.538 900.343 288.929L906.707 295.293ZM834 325V324H848.345V325V326H834V325ZM856.345 317H855.345V304H856.345H857.345V317H856.345ZM864.345 296V295H906V296V297H864.345V296ZM856.345 304H855.345C855.345 299.029 859.374 295 864.345 295V296V297C860.479 297 857.345 300.134 857.345 304H856.345ZM848.345 325V324C852.211 324 855.345 320.866 855.345 317H856.345H857.345C857.345 321.971 853.315 326 848.345 326V325Z" fill="white"/>
</g>
<defs>
<clipPath id="clip0_232_101">
<rect width="1440" height="720" fill="white"/>
</clipPath>
</defs>
</svg>
