<svg width="1440" height="720" viewBox="0 0 1440 720" fill="none" xmlns="http://www.w3.org/2000/svg">
<g clip-path="url(#clip0_232_139)">
<rect width="1440" height="720" fill="#080808"/>
<path d="M858 143C862.418 143 866 146.582 866 151L866 569C866 573.418 862.418 577 858 577L582 577C577.582 577 574 573.418 574 569L574 151C574 146.582 577.582 143 582 143L858 143Z" fill="white" fill-opacity="0.05"/>
<path d="M574 151L574.5 151C574.5 150.498 574.549 150.009 574.643 149.536L574.152 149.439L573.662 149.342C573.556 149.878 573.5 150.433 573.5 151L574 151ZM575.348 146.555L575.763 146.833C576.311 146.015 577.015 145.311 577.833 144.763L577.555 144.347L577.277 143.932C576.35 144.552 575.552 145.35 574.932 146.277L575.348 146.555ZM580.439 143.152L580.536 143.643C581.009 143.549 581.499 143.5 582 143.5L582 143L582 142.5C581.433 142.5 580.878 142.556 580.342 142.662L580.439 143.152ZM582 143L582 143.5L584.029 143.5L584.029 143L584.029 142.5L582 142.5L582 143ZM588.088 143L588.088 143.5L592.147 143.5L592.147 143L592.147 142.5L588.088 142.5L588.088 143ZM596.206 143L596.206 143.5L600.265 143.5L600.265 143L600.265 142.5L596.206 142.5L596.206 143ZM604.324 143L604.324 143.5L608.382 143.5L608.382 143L608.382 142.5L604.324 142.5L604.324 143ZM612.441 143L612.441 143.5L616.5 143.5L616.5 143L616.5 142.5L612.441 142.5L612.441 143ZM620.559 143L620.559 143.5L624.618 143.5L624.618 143L624.618 142.5L620.559 142.5L620.559 143ZM628.676 143L628.676 143.5L632.735 143.5L632.735 143L632.735 142.5L628.676 142.5L628.676 143ZM636.794 143L636.794 143.5L640.853 143.5L640.853 143L640.853 142.5L636.794 142.5L636.794 143ZM644.912 143L644.912 143.5L648.971 143.5L648.971 143L648.971 142.5L644.912 142.5L644.912 143ZM653.029 143L653.029 143.5L657.088 143.5L657.088 143L657.088 142.5L653.029 142.5L653.029 143ZM661.147 143L661.147 143.5L665.206 143.5L665.206 143L665.206 142.5L661.147 142.5L661.147 143ZM669.265 143L669.265 143.5L673.324 143.5L673.324 143L673.324 142.5L669.265 142.5L669.265 143ZM677.382 143L677.382 143.5L681.441 143.5L681.441 143L681.441 142.5L677.382 142.5L677.382 143ZM685.5 143L685.5 143.5L689.559 143.5L689.559 143L689.559 142.5L685.5 142.5L685.5 143ZM693.618 143L693.618 143.5L697.676 143.5L697.676 143L697.676 142.5L693.618 142.5L693.618 143ZM701.735 143L701.735 143.5L705.794 143.5L705.794 143L705.794 142.5L701.735 142.5L701.735 143ZM709.853 143L709.853 143.5L713.912 143.5L713.912 143L713.912 142.5L709.853 142.5L709.853 143ZM717.971 143L717.971 143.5L722.029 143.5L722.029 143L722.029 142.5L717.971 142.5L717.971 143ZM726.088 143L726.088 143.5L730.147 143.5L730.147 143L730.147 142.5L726.088 142.5L726.088 143ZM734.206 143L734.206 143.5L738.265 143.5L738.265 143L738.265 142.5L734.206 142.5L734.206 143ZM742.324 143L742.324 143.5L746.382 143.5L746.382 143L746.382 142.5L742.324 142.5L742.324 143ZM750.441 143L750.441 143.5L754.5 143.5L754.5 143L754.5 142.5L750.441 142.5L750.441 143ZM758.559 143L758.559 143.5L762.618 143.5L762.618 143L762.618 142.5L758.559 142.5L758.559 143ZM766.676 143L766.676 143.5L770.735 143.5L770.735 143L770.735 142.5L766.676 142.5L766.676 143ZM774.794 143L774.794 143.5L778.853 143.5L778.853 143L778.853 142.5L774.794 142.5L774.794 143ZM782.912 143L782.912 143.5L786.971 143.5L786.971 143L786.971 142.5L782.912 142.5L782.912 143ZM791.029 143L791.029 143.5L795.088 143.5L795.088 143L795.088 142.5L791.029 142.5L791.029 143ZM799.147 143L799.147 143.5L803.206 143.5L803.206 143L803.206 142.5L799.147 142.5L799.147 143ZM807.265 143L807.265 143.5L811.324 143.5L811.324 143L811.324 142.5L807.265 142.5L807.265 143ZM815.382 143L815.382 143.5L819.441 143.5L819.441 143L819.441 142.5L815.382 142.5L815.382 143ZM823.5 143L823.5 143.5L827.559 143.5L827.559 143L827.559 142.5L823.5 142.5L823.5 143ZM831.618 143L831.618 143.5L835.676 143.5L835.676 143L835.676 142.5L831.618 142.5L831.618 143ZM839.735 143L839.735 143.5L843.794 143.5L843.794 143L843.794 142.5L839.735 142.5L839.735 143ZM847.853 143L847.853 143.5L851.912 143.5L851.912 143L851.912 142.5L847.853 142.5L847.853 143ZM855.971 143L855.971 143.5L858 143.5L858 143L858 142.5L855.971 142.5L855.971 143ZM858 143L858 143.5C858.502 143.5 858.991 143.549 859.464 143.643L859.561 143.152L859.658 142.662C859.122 142.556 858.567 142.5 858 142.5L858 143ZM862.445 144.347L862.167 144.763C862.985 145.311 863.689 146.015 864.237 146.833L864.653 146.555L865.068 146.277C864.448 145.35 863.65 144.552 862.723 143.932L862.445 144.347ZM865.848 149.439L865.357 149.536C865.451 150.009 865.5 150.498 865.5 151L866 151L866.5 151C866.5 150.433 866.444 149.878 866.338 149.342L865.848 149.439ZM866 151L865.5 151L865.5 153.01L866 153.01L866.5 153.01L866.5 151L866 151ZM866 157.029L865.5 157.029L865.5 161.048L866 161.048L866.5 161.048L866.5 157.029L866 157.029ZM866 165.067L865.5 165.067L865.5 169.087L866 169.087L866.5 169.087L866.5 165.067L866 165.067ZM866 173.106L865.5 173.106L865.5 177.125L866 177.125L866.5 177.125L866.5 173.106L866 173.106ZM866 181.144L865.5 181.144L865.5 185.163L866 185.163L866.5 185.163L866.5 181.144L866 181.144ZM866 189.183L865.5 189.183L865.5 193.202L866 193.202L866.5 193.202L866.5 189.183L866 189.183ZM866 197.221L865.5 197.221L865.5 201.24L866 201.24L866.5 201.24L866.5 197.221L866 197.221ZM866 205.26L865.5 205.26L865.5 209.279L866 209.279L866.5 209.279L866.5 205.26L866 205.26ZM866 213.298L865.5 213.298L865.5 217.317L866 217.317L866.5 217.317L866.5 213.298L866 213.298ZM866 221.337L865.5 221.337L865.5 225.356L866 225.356L866.5 225.356L866.5 221.337L866 221.337ZM866 229.375L865.5 229.375L865.5 233.394L866 233.394L866.5 233.394L866.5 229.375L866 229.375ZM866 237.413L865.5 237.413L865.5 241.433L866 241.433L866.5 241.433L866.5 237.413L866 237.413ZM866 245.452L865.5 245.452L865.5 249.471L866 249.471L866.5 249.471L866.5 245.452L866 245.452ZM866 253.49L865.5 253.49L865.5 257.51L866 257.51L866.5 257.51L866.5 253.49L866 253.49ZM866 261.529L865.5 261.529L865.5 265.548L866 265.548L866.5 265.548L866.5 261.529L866 261.529ZM866 269.567L865.5 269.567L865.5 273.587L866 273.587L866.5 273.587L866.5 269.567L866 269.567ZM866 277.606L865.5 277.606L865.5 281.625L866 281.625L866.5 281.625L866.5 277.606L866 277.606ZM866 285.644L865.5 285.644L865.5 289.663L866 289.663L866.5 289.663L866.5 285.644L866 285.644ZM866 293.683L865.5 293.683L865.5 297.702L866 297.702L866.5 297.702L866.5 293.683L866 293.683ZM866 301.721L865.5 301.721L865.5 305.74L866 305.74L866.5 305.74L866.5 301.721L866 301.721ZM866 309.76L865.5 309.76L865.5 313.779L866 313.779L866.5 313.779L866.5 309.76L866 309.76ZM866 317.798L865.5 317.798L865.5 321.817L866 321.817L866.5 321.817L866.5 317.798L866 317.798ZM866 325.837L865.5 325.837L865.5 329.856L866 329.856L866.5 329.856L866.5 325.837L866 325.837ZM866 333.875L865.5 333.875L865.5 337.894L866 337.894L866.5 337.894L866.5 333.875L866 333.875ZM866 341.913L865.5 341.913L865.5 345.933L866 345.933L866.5 345.933L866.5 341.913L866 341.913ZM866 349.952L865.5 349.952L865.5 353.971L866 353.971L866.5 353.971L866.5 349.952L866 349.952ZM866 357.99L865.5 357.99L865.5 362.01L866 362.01L866.5 362.01L866.5 357.99L866 357.99ZM866 366.029L865.5 366.029L865.5 370.048L866 370.048L866.5 370.048L866.5 366.029L866 366.029ZM866 374.067L865.5 374.067L865.5 378.086L866 378.086L866.5 378.086L866.5 374.067L866 374.067ZM866 382.106L865.5 382.106L865.5 386.125L866 386.125L866.5 386.125L866.5 382.106L866 382.106ZM866 390.144L865.5 390.144L865.5 394.163L866 394.163L866.5 394.163L866.5 390.144L866 390.144ZM866 398.183L865.5 398.183L865.5 402.202L866 402.202L866.5 402.202L866.5 398.183L866 398.183ZM866 406.221L865.5 406.221L865.5 410.24L866 410.24L866.5 410.24L866.5 406.221L866 406.221ZM866 414.259L865.5 414.259L865.5 418.279L866 418.279L866.5 418.279L866.5 414.259L866 414.259ZM866 422.298L865.5 422.298L865.5 426.317L866 426.317L866.5 426.317L866.5 422.298L866 422.298ZM866 430.336L865.5 430.336L865.5 434.356L866 434.356L866.5 434.356L866.5 430.336L866 430.336ZM866 438.375L865.5 438.375L865.5 442.394L866 442.394L866.5 442.394L866.5 438.375L866 438.375ZM866 446.413L865.5 446.413L865.5 450.433L866 450.433L866.5 450.433L866.5 446.413L866 446.413ZM866 454.452L865.5 454.452L865.5 458.471L866 458.471L866.5 458.471L866.5 454.452L866 454.452ZM866 462.49L865.5 462.49L865.5 466.509L866 466.509L866.5 466.509L866.5 462.49L866 462.49ZM866 470.529L865.5 470.529L865.5 474.548L866 474.548L866.5 474.548L866.5 470.529L866 470.529ZM866 478.567L865.5 478.567L865.5 482.586L866 482.586L866.5 482.586L866.5 478.567L866 478.567ZM866 486.606L865.5 486.606L865.5 490.625L866 490.625L866.5 490.625L866.5 486.606L866 486.606ZM866 494.644L865.5 494.644L865.5 498.663L866 498.663L866.5 498.663L866.5 494.644L866 494.644ZM866 502.682L865.5 502.682L865.5 506.702L866 506.702L866.5 506.702L866.5 502.682L866 502.682ZM866 510.721L865.5 510.721L865.5 514.74L866 514.74L866.5 514.74L866.5 510.721L866 510.721ZM866 518.759L865.5 518.759L865.5 522.779L866 522.779L866.5 522.779L866.5 518.759L866 518.759ZM866 526.798L865.5 526.798L865.5 530.817L866 530.817L866.5 530.817L866.5 526.798L866 526.798ZM866 534.836L865.5 534.836L865.5 538.856L866 538.856L866.5 538.856L866.5 534.836L866 534.836ZM866 542.875L865.5 542.875L865.5 546.894L866 546.894L866.5 546.894L866.5 542.875L866 542.875ZM866 550.913L865.5 550.913L865.5 554.932L866 554.932L866.5 554.932L866.5 550.913L866 550.913ZM866 558.952L865.5 558.952L865.5 562.971L866 562.971L866.5 562.971L866.5 558.952L866 558.952ZM866 566.99L865.5 566.99L865.5 569L866 569L866.5 569L866.5 566.99L866 566.99ZM866 569L865.5 569C865.5 569.502 865.451 569.991 865.357 570.464L865.848 570.561L866.338 570.658C866.444 570.122 866.5 569.567 866.5 569L866 569ZM864.653 573.445L864.237 573.167C863.689 573.985 862.985 574.689 862.167 575.237L862.445 575.653L862.723 576.068C863.65 575.448 864.448 574.65 865.068 573.723L864.653 573.445ZM859.561 576.848L859.464 576.357C858.991 576.451 858.502 576.5 858 576.5L858 577L858 577.5C858.567 577.5 859.122 577.444 859.658 577.338L859.561 576.848ZM858 577L858 576.5L855.971 576.5L855.971 577L855.971 577.5L858 577.5L858 577ZM851.912 577L851.912 576.5L847.853 576.5L847.853 577L847.853 577.5L851.912 577.5L851.912 577ZM843.794 577L843.794 576.5L839.735 576.5L839.735 577L839.735 577.5L843.794 577.5L843.794 577ZM835.676 577L835.676 576.5L831.618 576.5L831.618 577L831.618 577.5L835.676 577.5L835.676 577ZM827.559 577L827.559 576.5L823.5 576.5L823.5 577L823.5 577.5L827.559 577.5L827.559 577ZM819.441 577L819.441 576.5L815.382 576.5L815.382 577L815.382 577.5L819.441 577.5L819.441 577ZM811.324 577L811.324 576.5L807.265 576.5L807.265 577L807.265 577.5L811.324 577.5L811.324 577ZM803.206 577L803.206 576.5L799.147 576.5L799.147 577L799.147 577.5L803.206 577.5L803.206 577ZM795.088 577L795.088 576.5L791.029 576.5L791.029 577L791.029 577.5L795.088 577.5L795.088 577ZM786.971 577L786.971 576.5L782.912 576.5L782.912 577L782.912 577.5L786.971 577.5L786.971 577ZM778.853 577L778.853 576.5L774.794 576.5L774.794 577L774.794 577.5L778.853 577.5L778.853 577ZM770.735 577L770.735 576.5L766.676 576.5L766.676 577L766.676 577.5L770.735 577.5L770.735 577ZM762.618 577L762.618 576.5L758.559 576.5L758.559 577L758.559 577.5L762.618 577.5L762.618 577ZM754.5 577L754.5 576.5L750.441 576.5L750.441 577L750.441 577.5L754.5 577.5L754.5 577ZM746.382 577L746.382 576.5L742.324 576.5L742.324 577L742.324 577.5L746.382 577.5L746.382 577ZM738.265 577L738.265 576.5L734.206 576.5L734.206 577L734.206 577.5L738.265 577.5L738.265 577ZM730.147 577L730.147 576.5L726.088 576.5L726.088 577L726.088 577.5L730.147 577.5L730.147 577ZM722.029 577L722.029 576.5L717.971 576.5L717.971 577L717.971 577.5L722.029 577.5L722.029 577ZM713.912 577L713.912 576.5L709.853 576.5L709.853 577L709.853 577.5L713.912 577.5L713.912 577ZM705.794 577L705.794 576.5L701.735 576.5L701.735 577L701.735 577.5L705.794 577.5L705.794 577ZM697.676 577L697.676 576.5L693.618 576.5L693.618 577L693.618 577.5L697.676 577.5L697.676 577ZM689.559 577L689.559 576.5L685.5 576.5L685.5 577L685.5 577.5L689.559 577.5L689.559 577ZM681.441 577L681.441 576.5L677.382 576.5L677.382 577L677.382 577.5L681.441 577.5L681.441 577ZM673.324 577L673.324 576.5L669.265 576.5L669.265 577L669.265 577.5L673.324 577.5L673.324 577ZM665.206 577L665.206 576.5L661.147 576.5L661.147 577L661.147 577.5L665.206 577.5L665.206 577ZM657.088 577L657.088 576.5L653.029 576.5L653.029 577L653.029 577.5L657.088 577.5L657.088 577ZM648.971 577L648.971 576.5L644.912 576.5L644.912 577L644.912 577.5L648.971 577.5L648.971 577ZM640.853 577L640.853 576.5L636.794 576.5L636.794 577L636.794 577.5L640.853 577.5L640.853 577ZM632.735 577L632.735 576.5L628.676 576.5L628.676 577L628.676 577.5L632.735 577.5L632.735 577ZM624.618 577L624.618 576.5L620.559 576.5L620.559 577L620.559 577.5L624.618 577.5L624.618 577ZM616.5 577L616.5 576.5L612.441 576.5L612.441 577L612.441 577.5L616.5 577.5L616.5 577ZM608.382 577L608.382 576.5L604.324 576.5L604.324 577L604.324 577.5L608.382 577.5L608.382 577ZM600.265 577L600.265 576.5L596.206 576.5L596.206 577L596.206 577.5L600.265 577.5L600.265 577ZM592.147 577L592.147 576.5L588.088 576.5L588.088 577L588.088 577.5L592.147 577.5L592.147 577ZM584.029 577L584.029 576.5L582 576.5L582 577L582 577.5L584.029 577.5L584.029 577ZM582 577L582 576.5C581.498 576.5 581.009 576.451 580.536 576.357L580.439 576.848L580.342 577.338C580.878 577.444 581.433 577.5 582 577.5L582 577ZM577.555 575.653L577.833 575.237C577.015 574.689 576.311 573.985 575.763 573.167L575.347 573.445L574.932 573.723C575.552 574.65 576.35 575.448 577.277 576.068L577.555 575.653ZM574.152 570.561L574.643 570.464C574.549 569.991 574.5 569.502 574.5 569L574 569L573.5 569C573.5 569.567 573.556 570.122 573.662 570.658L574.152 570.561ZM574 569L574.5 569L574.5 566.99L574 566.99L573.5 566.99L573.5 569L574 569ZM574 562.971L574.5 562.971L574.5 558.952L574 558.952L573.5 558.952L573.5 562.971L574 562.971ZM574 554.933L574.5 554.933L574.5 550.913L574 550.913L573.5 550.913L573.5 554.933L574 554.933ZM574 546.894L574.5 546.894L574.5 542.875L574 542.875L573.5 542.875L573.5 546.894L574 546.894ZM574 538.856L574.5 538.856L574.5 534.837L574 534.837L573.5 534.837L573.5 538.856L574 538.856ZM574 530.817L574.5 530.817L574.5 526.798L574 526.798L573.5 526.798L573.5 530.817L574 530.817ZM574 522.779L574.5 522.779L574.5 518.76L574 518.76L573.5 518.76L573.5 522.779L574 522.779ZM574 514.74L574.5 514.74L574.5 510.721L574 510.721L573.5 510.721L573.5 514.74L574 514.74ZM574 506.702L574.5 506.702L574.5 502.683L574 502.683L573.5 502.683L573.5 506.702L574 506.702ZM574 498.663L574.5 498.663L574.5 494.644L574 494.644L573.5 494.644L573.5 498.663L574 498.663ZM574 490.625L574.5 490.625L574.5 486.606L574 486.606L573.5 486.606L573.5 490.625L574 490.625ZM574 482.587L574.5 482.587L574.5 478.567L574 478.567L573.5 478.567L573.5 482.587L574 482.587ZM574 474.548L574.5 474.548L574.5 470.529L574 470.529L573.5 470.529L573.5 474.548L574 474.548ZM574 466.51L574.5 466.51L574.5 462.49L574 462.49L573.5 462.49L573.5 466.51L574 466.51ZM574 458.471L574.5 458.471L574.5 454.452L574 454.452L573.5 454.452L573.5 458.471L574 458.471ZM574 450.433L574.5 450.433L574.5 446.413L574 446.413L573.5 446.413L573.5 450.433L574 450.433ZM574 442.394L574.5 442.394L574.5 438.375L574 438.375L573.5 438.375L573.5 442.394L574 442.394ZM574 434.356L574.5 434.356L574.5 430.337L574 430.337L573.5 430.337L573.5 434.356L574 434.356ZM574 426.317L574.5 426.317L574.5 422.298L574 422.298L573.5 422.298L573.5 426.317L574 426.317ZM574 418.279L574.5 418.279L574.5 414.26L574 414.26L573.5 414.26L573.5 418.279L574 418.279ZM574 410.24L574.5 410.24L574.5 406.221L574 406.221L573.5 406.221L573.5 410.24L574 410.24ZM574 402.202L574.5 402.202L574.5 398.183L574 398.183L573.5 398.183L573.5 402.202L574 402.202ZM574 394.163L574.5 394.163L574.5 390.144L574 390.144L573.5 390.144L573.5 394.163L574 394.163ZM574 386.125L574.5 386.125L574.5 382.106L574 382.106L573.5 382.106L573.5 386.125L574 386.125ZM574 378.087L574.5 378.087L574.5 374.067L574 374.067L573.5 374.067L573.5 378.087L574 378.087ZM574 370.048L574.5 370.048L574.5 366.029L574 366.029L573.5 366.029L573.5 370.048L574 370.048ZM574 362.01L574.5 362.01L574.5 357.99L574 357.99L573.5 357.99L573.5 362.01L574 362.01ZM574 353.971L574.5 353.971L574.5 349.952L574 349.952L573.5 349.952L573.5 353.971L574 353.971ZM574 345.933L574.5 345.933L574.5 341.914L574 341.914L573.5 341.914L573.5 345.933L574 345.933ZM574 337.894L574.5 337.894L574.5 333.875L574 333.875L573.5 333.875L573.5 337.894L574 337.894ZM574 329.856L574.5 329.856L574.5 325.837L574 325.837L573.5 325.837L573.5 329.856L574 329.856ZM574 321.817L574.5 321.817L574.5 317.798L574 317.798L573.5 317.798L573.5 321.817L574 321.817ZM574 313.779L574.5 313.779L574.5 309.76L574 309.76L573.5 309.76L573.5 313.779L574 313.779ZM574 305.74L574.5 305.74L574.5 301.721L574 301.721L573.5 301.721L573.5 305.74L574 305.74ZM574 297.702L574.5 297.702L574.5 293.683L574 293.683L573.5 293.683L573.5 297.702L574 297.702ZM574 289.664L574.5 289.664L574.5 285.644L574 285.644L573.5 285.644L573.5 289.664L574 289.664ZM574 281.625L574.5 281.625L574.5 277.606L574 277.606L573.5 277.606L573.5 281.625L574 281.625ZM574 273.587L574.5 273.587L574.5 269.567L574 269.567L573.5 269.567L573.5 273.587L574 273.587ZM574 265.548L574.5 265.548L574.5 261.529L574 261.529L573.5 261.529L573.5 265.548L574 265.548ZM574 257.51L574.5 257.51L574.5 253.491L574 253.491L573.5 253.491L573.5 257.51L574 257.51ZM574 249.471L574.5 249.471L574.5 245.452L574 245.452L573.5 245.452L573.5 249.471L574 249.471ZM574 241.433L574.5 241.433L574.5 237.414L574 237.414L573.5 237.414L573.5 241.433L574 241.433ZM574 233.394L574.5 233.394L574.5 229.375L574 229.375L573.5 229.375L573.5 233.394L574 233.394ZM574 225.356L574.5 225.356L574.5 221.337L574 221.337L573.5 221.337L573.5 225.356L574 225.356ZM574 217.318L574.5 217.318L574.5 213.298L574 213.298L573.5 213.298L573.5 217.318L574 217.318ZM574 209.279L574.5 209.279L574.5 205.26L574 205.26L573.5 205.26L573.5 209.279L574 209.279ZM574 201.241L574.5 201.241L574.5 197.221L574 197.221L573.5 197.221L573.5 201.241L574 201.241ZM574 193.202L574.5 193.202L574.5 189.183L574 189.183L573.5 189.183L573.5 193.202L574 193.202ZM574 185.164L574.5 185.164L574.5 181.144L574 181.144L573.5 181.144L573.5 185.164L574 185.164ZM574 177.125L574.5 177.125L574.5 173.106L574 173.106L573.5 173.106L573.5 177.125L574 177.125ZM574 169.087L574.5 169.087L574.5 165.068L574 165.068L573.5 165.068L573.5 169.087L574 169.087ZM574 161.048L574.5 161.048L574.5 157.029L574 157.029L573.5 157.029L573.5 161.048L574 161.048ZM574 153.01L574.5 153.01L574.5 151L574 151L573.5 151L573.5 153.01L574 153.01Z" fill="white"/>
<path d="M858 143C862.418 143 866 146.582 866 151L866 454C866 458.418 862.418 462 858 462L582 462C577.582 462 574 458.418 574 454L574 151C574 146.582 577.582 143 582 143L858 143Z" fill="white" fill-opacity="0.05"/>
<path d="M574 151L574.5 151C574.5 150.498 574.549 150.009 574.643 149.536L574.152 149.439L573.662 149.342C573.556 149.878 573.5 150.433 573.5 151L574 151ZM575.347 146.555L575.763 146.833C576.311 146.015 577.015 145.311 577.833 144.763L577.555 144.347L577.277 143.932C576.35 144.552 575.552 145.35 574.932 146.277L575.347 146.555ZM580.439 143.152L580.536 143.643C581.009 143.549 581.498 143.5 582 143.5L582 143L582 142.5C581.433 142.5 580.878 142.556 580.342 142.662L580.439 143.152ZM582 143L582 143.5L583.971 143.5L583.971 143L583.971 142.5L582 142.5L582 143ZM587.914 143L587.914 143.5L591.857 143.5L591.857 143L591.857 142.5L587.914 142.5L587.914 143ZM595.8 143L595.8 143.5L599.743 143.5L599.743 143L599.743 142.5L595.8 142.5L595.8 143ZM603.686 143L603.686 143.5L607.629 143.5L607.629 143L607.629 142.5L603.686 142.5L603.686 143ZM611.571 143L611.571 143.5L615.514 143.5L615.514 143L615.514 142.5L611.571 142.5L611.571 143ZM619.457 143L619.457 143.5L623.4 143.5L623.4 143L623.4 142.5L619.457 142.5L619.457 143ZM627.343 143L627.343 143.5L631.286 143.5L631.286 143L631.286 142.5L627.343 142.5L627.343 143ZM635.229 143L635.229 143.5L639.171 143.5L639.171 143L639.171 142.5L635.229 142.5L635.229 143ZM643.114 143L643.114 143.5L647.057 143.5L647.057 143L647.057 142.5L643.114 142.5L643.114 143ZM651 143L651 143.5L654.943 143.5L654.943 143L654.943 142.5L651 142.5L651 143ZM658.886 143L658.886 143.5L662.829 143.5L662.829 143L662.829 142.5L658.886 142.5L658.886 143ZM666.771 143L666.771 143.5L670.714 143.5L670.714 143L670.714 142.5L666.771 142.5L666.771 143ZM674.657 143L674.657 143.5L678.6 143.5L678.6 143L678.6 142.5L674.657 142.5L674.657 143ZM682.543 143L682.543 143.5L686.486 143.5L686.486 143L686.486 142.5L682.543 142.5L682.543 143ZM690.429 143L690.429 143.5L694.371 143.5L694.371 143L694.371 142.5L690.429 142.5L690.429 143ZM698.314 143L698.314 143.5L702.257 143.5L702.257 143L702.257 142.5L698.314 142.5L698.314 143ZM706.2 143L706.2 143.5L710.143 143.5L710.143 143L710.143 142.5L706.2 142.5L706.2 143ZM714.086 143L714.086 143.5L718.029 143.5L718.029 143L718.029 142.5L714.086 142.5L714.086 143ZM721.971 143L721.971 143.5L725.914 143.5L725.914 143L725.914 142.5L721.971 142.5L721.971 143ZM729.857 143L729.857 143.5L733.8 143.5L733.8 143L733.8 142.5L729.857 142.5L729.857 143ZM737.743 143L737.743 143.5L741.686 143.5L741.686 143L741.686 142.5L737.743 142.5L737.743 143ZM745.629 143L745.629 143.5L749.571 143.5L749.571 143L749.571 142.5L745.629 142.5L745.629 143ZM753.514 143L753.514 143.5L757.457 143.5L757.457 143L757.457 142.5L753.514 142.5L753.514 143ZM761.4 143L761.4 143.5L765.343 143.5L765.343 143L765.343 142.5L761.4 142.5L761.4 143ZM769.286 143L769.286 143.5L773.229 143.5L773.229 143L773.229 142.5L769.286 142.5L769.286 143ZM777.171 143L777.171 143.5L781.114 143.5L781.114 143L781.114 142.5L777.171 142.5L777.171 143ZM785.057 143L785.057 143.5L789 143.5L789 143L789 142.5L785.057 142.5L785.057 143ZM792.943 143L792.943 143.5L796.886 143.5L796.886 143L796.886 142.5L792.943 142.5L792.943 143ZM800.829 143L800.829 143.5L804.771 143.5L804.771 143L804.771 142.5L800.829 142.5L800.829 143ZM808.714 143L808.714 143.5L812.657 143.5L812.657 143L812.657 142.5L808.714 142.5L808.714 143ZM816.6 143L816.6 143.5L820.543 143.5L820.543 143L820.543 142.5L816.6 142.5L816.6 143ZM824.486 143L824.486 143.5L828.429 143.5L828.429 143L828.429 142.5L824.486 142.5L824.486 143ZM832.371 143L832.371 143.5L836.314 143.5L836.314 143L836.314 142.5L832.371 142.5L832.371 143ZM840.257 143L840.257 143.5L844.2 143.5L844.2 143L844.2 142.5L840.257 142.5L840.257 143ZM848.143 143L848.143 143.5L852.086 143.5L852.086 143L852.086 142.5L848.143 142.5L848.143 143ZM856.029 143L856.029 143.5L858 143.5L858 143L858 142.5L856.029 142.5L856.029 143ZM858 143L858 143.5C858.502 143.5 858.991 143.549 859.464 143.643L859.561 143.152L859.658 142.662C859.122 142.556 858.567 142.5 858 142.5L858 143ZM862.445 144.347L862.167 144.763C862.985 145.311 863.689 146.015 864.237 146.833L864.653 146.555L865.068 146.277C864.448 145.35 863.65 144.552 862.723 143.932L862.445 144.347ZM865.848 149.439L865.357 149.536C865.451 150.009 865.5 150.498 865.5 151L866 151L866.5 151C866.5 150.433 866.444 149.878 866.338 149.342L865.848 149.439ZM866 151L865.5 151L865.5 152.993L866 152.993L866.5 152.993L866.5 151L866 151ZM866 156.98L865.5 156.98L865.5 160.967L866 160.967L866.5 160.967L866.5 156.98L866 156.98ZM866 164.954L865.5 164.954L865.5 168.941L866 168.941L866.5 168.941L866.5 164.954L866 164.954ZM866 172.928L865.5 172.928L865.5 176.914L866 176.914L866.5 176.914L866.5 172.928L866 172.928ZM866 180.901L865.5 180.901L865.5 184.888L866 184.888L866.5 184.888L866.5 180.901L866 180.901ZM866 188.875L865.5 188.875L865.5 192.862L866 192.862L866.5 192.862L866.5 188.875L866 188.875ZM866 196.849L865.5 196.849L865.5 200.836L866 200.836L866.5 200.836L866.5 196.849L866 196.849ZM866 204.822L865.5 204.822L865.5 208.809L866 208.809L866.5 208.809L866.5 204.822L866 204.822ZM866 212.796L865.5 212.796L865.5 216.783L866 216.783L866.5 216.783L866.5 212.796L866 212.796ZM866 220.77L865.5 220.77L865.5 224.757L866 224.757L866.5 224.757L866.5 220.77L866 220.77ZM866 228.743L865.5 228.743L865.5 232.73L866 232.73L866.5 232.73L866.5 228.743L866 228.743ZM866 236.717L865.5 236.717L865.5 240.704L866 240.704L866.5 240.704L866.5 236.717L866 236.717ZM866 244.691L865.5 244.691L865.5 248.678L866 248.678L866.5 248.678L866.5 244.691L866 244.691ZM866 252.664L865.5 252.664L865.5 256.651L866 256.651L866.5 256.651L866.5 252.664L866 252.664ZM866 260.638L865.5 260.638L865.5 264.625L866 264.625L866.5 264.625L866.5 260.638L866 260.638ZM866 268.612L865.5 268.612L865.5 272.599L866 272.599L866.5 272.599L866.5 268.612L866 268.612ZM866 276.585L865.5 276.585L865.5 280.572L866 280.572L866.5 280.572L866.5 276.585L866 276.585ZM866 284.559L865.5 284.559L865.5 288.546L866 288.546L866.5 288.546L866.5 284.559L866 284.559ZM866 292.533L865.5 292.533L865.5 296.52L866 296.52L866.5 296.52L866.5 292.533L866 292.533ZM866 300.507L865.5 300.507L865.5 304.493L866 304.493L866.5 304.493L866.5 300.507L866 300.507ZM866 308.48L865.5 308.48L865.5 312.467L866 312.467L866.5 312.467L866.5 308.48L866 308.48ZM866 316.454L865.5 316.454L865.5 320.441L866 320.441L866.5 320.441L866.5 316.454L866 316.454ZM866 324.428L865.5 324.428L865.5 328.415L866 328.415L866.5 328.415L866.5 324.428L866 324.428ZM866 332.401L865.5 332.401L865.5 336.388L866 336.388L866.5 336.388L866.5 332.401L866 332.401ZM866 340.375L865.5 340.375L865.5 344.362L866 344.362L866.5 344.362L866.5 340.375L866 340.375ZM866 348.349L865.5 348.349L865.5 352.336L866 352.336L866.5 352.336L866.5 348.349L866 348.349ZM866 356.322L865.5 356.322L865.5 360.309L866 360.309L866.5 360.309L866.5 356.322L866 356.322ZM866 364.296L865.5 364.296L865.5 368.283L866 368.283L866.5 368.283L866.5 364.296L866 364.296ZM866 372.27L865.5 372.27L865.5 376.257L866 376.257L866.5 376.257L866.5 372.27L866 372.27ZM866 380.244L865.5 380.244L865.5 384.23L866 384.23L866.5 384.23L866.5 380.244L866 380.244ZM866 388.217L865.5 388.217L865.5 392.204L866 392.204L866.5 392.204L866.5 388.217L866 388.217ZM866 396.191L865.5 396.191L865.5 400.178L866 400.178L866.5 400.178L866.5 396.191L866 396.191ZM866 404.165L865.5 404.165L865.5 408.151L866 408.151L866.5 408.151L866.5 404.165L866 404.165ZM866 412.138L865.5 412.138L865.5 416.125L866 416.125L866.5 416.125L866.5 412.138L866 412.138ZM866 420.112L865.5 420.112L865.5 424.099L866 424.099L866.5 424.099L866.5 420.112L866 420.112ZM866 428.086L865.5 428.086L865.5 432.073L866 432.073L866.5 432.073L866.5 428.086L866 428.086ZM866 436.059L865.5 436.059L865.5 440.046L866 440.046L866.5 440.046L866.5 436.059L866 436.059ZM866 444.033L865.5 444.033L865.5 448.02L866 448.02L866.5 448.02L866.5 444.033L866 444.033ZM866 452.007L865.5 452.007L865.5 454L866 454L866.5 454L866.5 452.007L866 452.007ZM866 454L865.5 454C865.5 454.502 865.451 454.991 865.357 455.464L865.848 455.561L866.338 455.658C866.444 455.122 866.5 454.567 866.5 454L866 454ZM864.653 458.445L864.237 458.167C863.689 458.985 862.985 459.689 862.167 460.237L862.445 460.653L862.723 461.068C863.65 460.448 864.448 459.65 865.068 458.723L864.653 458.445ZM859.561 461.848L859.464 461.357C858.991 461.451 858.502 461.5 858 461.5L858 462L858 462.5C858.567 462.5 859.122 462.444 859.658 462.338L859.561 461.848ZM858 462L858 461.5L856.029 461.5L856.029 462L856.029 462.5L858 462.5L858 462ZM852.086 462L852.086 461.5L848.143 461.5L848.143 462L848.143 462.5L852.086 462.5L852.086 462ZM844.2 462L844.2 461.5L840.257 461.5L840.257 462L840.257 462.5L844.2 462.5L844.2 462ZM836.314 462L836.314 461.5L832.371 461.5L832.371 462L832.371 462.5L836.314 462.5L836.314 462ZM828.429 462L828.429 461.5L824.486 461.5L824.486 462L824.486 462.5L828.429 462.5L828.429 462ZM820.543 462L820.543 461.5L816.6 461.5L816.6 462L816.6 462.5L820.543 462.5L820.543 462ZM812.657 462L812.657 461.5L808.714 461.5L808.714 462L808.714 462.5L812.657 462.5L812.657 462ZM804.771 462L804.771 461.5L800.829 461.5L800.829 462L800.829 462.5L804.771 462.5L804.771 462ZM796.886 462L796.886 461.5L792.943 461.5L792.943 462L792.943 462.5L796.886 462.5L796.886 462ZM789 462L789 461.5L785.057 461.5L785.057 462L785.057 462.5L789 462.5L789 462ZM781.114 462L781.114 461.5L777.171 461.5L777.171 462L777.171 462.5L781.114 462.5L781.114 462ZM773.229 462L773.229 461.5L769.286 461.5L769.286 462L769.286 462.5L773.229 462.5L773.229 462ZM765.343 462L765.343 461.5L761.4 461.5L761.4 462L761.4 462.5L765.343 462.5L765.343 462ZM757.457 462L757.457 461.5L753.514 461.5L753.514 462L753.514 462.5L757.457 462.5L757.457 462ZM749.571 462L749.571 461.5L745.629 461.5L745.629 462L745.629 462.5L749.571 462.5L749.571 462ZM741.686 462L741.686 461.5L737.743 461.5L737.743 462L737.743 462.5L741.686 462.5L741.686 462ZM733.8 462L733.8 461.5L729.857 461.5L729.857 462L729.857 462.5L733.8 462.5L733.8 462ZM725.914 462L725.914 461.5L721.971 461.5L721.971 462L721.971 462.5L725.914 462.5L725.914 462ZM718.029 462L718.029 461.5L714.086 461.5L714.086 462L714.086 462.5L718.029 462.5L718.029 462ZM710.143 462L710.143 461.5L706.2 461.5L706.2 462L706.2 462.5L710.143 462.5L710.143 462ZM702.257 462L702.257 461.5L698.314 461.5L698.314 462L698.314 462.5L702.257 462.5L702.257 462ZM694.371 462L694.371 461.5L690.429 461.5L690.429 462L690.429 462.5L694.371 462.5L694.371 462ZM686.486 462L686.486 461.5L682.543 461.5L682.543 462L682.543 462.5L686.486 462.5L686.486 462ZM678.6 462L678.6 461.5L674.657 461.5L674.657 462L674.657 462.5L678.6 462.5L678.6 462ZM670.714 462L670.714 461.5L666.771 461.5L666.771 462L666.771 462.5L670.714 462.5L670.714 462ZM662.829 462L662.829 461.5L658.886 461.5L658.886 462L658.886 462.5L662.829 462.5L662.829 462ZM654.943 462L654.943 461.5L651 461.5L651 462L651 462.5L654.943 462.5L654.943 462ZM647.057 462L647.057 461.5L643.114 461.5L643.114 462L643.114 462.5L647.057 462.5L647.057 462ZM639.171 462L639.171 461.5L635.229 461.5L635.229 462L635.229 462.5L639.171 462.5L639.171 462ZM631.286 462L631.286 461.5L627.343 461.5L627.343 462L627.343 462.5L631.286 462.5L631.286 462ZM623.4 462L623.4 461.5L619.457 461.5L619.457 462L619.457 462.5L623.4 462.5L623.4 462ZM615.514 462L615.514 461.5L611.571 461.5L611.571 462L611.571 462.5L615.514 462.5L615.514 462ZM607.629 462L607.629 461.5L603.686 461.5L603.686 462L603.686 462.5L607.629 462.5L607.629 462ZM599.743 462L599.743 461.5L595.8 461.5L595.8 462L595.8 462.5L599.743 462.5L599.743 462ZM591.857 462L591.857 461.5L587.914 461.5L587.914 462L587.914 462.5L591.857 462.5L591.857 462ZM583.971 462L583.971 461.5L582 461.5L582 462L582 462.5L583.971 462.5L583.971 462ZM582 462L582 461.5C581.498 461.5 581.009 461.451 580.536 461.357L580.439 461.848L580.342 462.338C580.878 462.444 581.433 462.5 582 462.5L582 462ZM577.555 460.653L577.833 460.237C577.015 459.689 576.311 458.985 575.763 458.167L575.347 458.445L574.932 458.723C575.552 459.65 576.35 460.448 577.277 461.068L577.555 460.653ZM574.152 455.561L574.643 455.464C574.549 454.991 574.5 454.502 574.5 454L574 454L573.5 454C573.5 454.567 573.556 455.122 573.662 455.658L574.152 455.561ZM574 454L574.5 454L574.5 452.007L574 452.007L573.5 452.007L573.5 454L574 454ZM574 448.02L574.5 448.02L574.5 444.033L574 444.033L573.5 444.033L573.5 448.02L574 448.02ZM574 440.046L574.5 440.046L574.5 436.059L574 436.059L573.5 436.059L573.5 440.046L574 440.046ZM574 432.072L574.5 432.072L574.5 428.086L574 428.086L573.5 428.086L573.5 432.072L574 432.072ZM574 424.099L574.5 424.099L574.5 420.112L574 420.112L573.5 420.112L573.5 424.099L574 424.099ZM574 416.125L574.5 416.125L574.5 412.138L574 412.138L573.5 412.138L573.5 416.125L574 416.125ZM574 408.151L574.5 408.151L574.5 404.164L574 404.164L573.5 404.164L573.5 408.151L574 408.151ZM574 400.178L574.5 400.178L574.5 396.191L574 396.191L573.5 396.191L573.5 400.178L574 400.178ZM574 392.204L574.5 392.204L574.5 388.217L574 388.217L573.5 388.217L573.5 392.204L574 392.204ZM574 384.23L574.5 384.23L574.5 380.243L574 380.243L573.5 380.243L573.5 384.23L574 384.23ZM574 376.257L574.5 376.257L574.5 372.27L574 372.27L573.5 372.27L573.5 376.257L574 376.257ZM574 368.283L574.5 368.283L574.5 364.296L574 364.296L573.5 364.296L573.5 368.283L574 368.283ZM574 360.309L574.5 360.309L574.5 356.322L574 356.322L573.5 356.322L573.5 360.309L574 360.309ZM574 352.336L574.5 352.336L574.5 348.349L574 348.349L573.5 348.349L573.5 352.336L574 352.336ZM574 344.362L574.5 344.362L574.5 340.375L574 340.375L573.5 340.375L573.5 344.362L574 344.362ZM574 336.388L574.5 336.388L574.5 332.401L574 332.401L573.5 332.401L573.5 336.388L574 336.388ZM574 328.414L574.5 328.414L574.5 324.428L574 324.428L573.5 324.428L573.5 328.414L574 328.414ZM574 320.441L574.5 320.441L574.5 316.454L574 316.454L573.5 316.454L573.5 320.441L574 320.441ZM574 312.467L574.5 312.467L574.5 308.48L574 308.48L573.5 308.48L573.5 312.467L574 312.467ZM574 304.493L574.5 304.493L574.5 300.507L574 300.507L573.5 300.507L573.5 304.493L574 304.493ZM574 296.52L574.5 296.52L574.5 292.533L574 292.533L573.5 292.533L573.5 296.52L574 296.52ZM574 288.546L574.5 288.546L574.5 284.559L574 284.559L573.5 284.559L573.5 288.546L574 288.546ZM574 280.572L574.5 280.572L574.5 276.585L574 276.585L573.5 276.585L573.5 280.572L574 280.572ZM574 272.599L574.5 272.599L574.5 268.612L574 268.612L573.5 268.612L573.5 272.599L574 272.599ZM574 264.625L574.5 264.625L574.5 260.638L574 260.638L573.5 260.638L573.5 264.625L574 264.625ZM574 256.651L574.5 256.651L574.5 252.664L574 252.664L573.5 252.664L573.5 256.651L574 256.651ZM574 248.678L574.5 248.678L574.5 244.691L574 244.691L573.5 244.691L573.5 248.678L574 248.678ZM574 240.704L574.5 240.704L574.5 236.717L574 236.717L573.5 236.717L573.5 240.704L574 240.704ZM574 232.73L574.5 232.73L574.5 228.743L574 228.743L573.5 228.743L573.5 232.73L574 232.73ZM574 224.756L574.5 224.756L574.5 220.77L574 220.77L573.5 220.77L573.5 224.756L574 224.756ZM574 216.783L574.5 216.783L574.5 212.796L574 212.796L573.5 212.796L573.5 216.783L574 216.783ZM574 208.809L574.5 208.809L574.5 204.822L574 204.822L573.5 204.822L573.5 208.809L574 208.809ZM574 200.835L574.5 200.835L574.5 196.849L574 196.849L573.5 196.849L573.5 200.835L574 200.835ZM574 192.862L574.5 192.862L574.5 188.875L574 188.875L573.5 188.875L573.5 192.862L574 192.862ZM574 184.888L574.5 184.888L574.5 180.901L574 180.901L573.5 180.901L573.5 184.888L574 184.888ZM574 176.914L574.5 176.914L574.5 172.927L574 172.927L573.5 172.927L573.5 176.914L574 176.914ZM574 168.941L574.5 168.941L574.5 164.954L574 164.954L573.5 164.954L573.5 168.941L574 168.941ZM574 160.967L574.5 160.967L574.5 156.98L574 156.98L573.5 156.98L573.5 160.967L574 160.967ZM574 152.993L574.5 152.993L574.5 151L574 151L573.5 151L573.5 152.993L574 152.993Z" fill="white"/>
<path d="M590 533C590 528.582 593.582 525 598 525H842C846.418 525 850 528.582 850 533V556C850 560.418 846.418 564 842 564H598C593.582 564 590 560.418 590 556V533Z" fill="white" fill-opacity="0.2"/>
<text fill="white" style="white-space: pre" xml:space="preserve" font-family="Red Hat Mono" font-size="16" font-weight="600" letter-spacing="0em"><tspan x="633.656" y="550.204">Assistant Response</tspan></text>
<path d="M590 265C590 260.582 593.582 257 598 257H842C846.418 257 850 260.582 850 265V288C850 292.418 846.418 296 842 296H598C593.582 296 590 292.418 590 288V265Z" fill="#E66A32" fill-opacity="0.25"/>
<text fill="white" style="white-space: pre" xml:space="preserve" font-family="Red Hat Mono" font-size="16" font-weight="600" letter-spacing="0em"><tspan x="638.453" y="282.204">Agent Personality</tspan></text>
<path d="M590 214C590 209.582 593.582 206 598 206H842C846.418 206 850 209.582 850 214V237C850 241.418 846.418 245 842 245H598C593.582 245 590 241.418 590 237V214Z" fill="#E66A32" fill-opacity="0.25"/>
<text fill="white" style="white-space: pre" xml:space="preserve" font-family="Red Hat Mono" font-size="16" font-weight="600" letter-spacing="0em"><tspan x="652.844" y="231.204">Agent Identity</tspan></text>
<text fill="white" style="white-space: pre" xml:space="preserve" font-family="Red Hat Mono" font-size="16" font-weight="600" letter-spacing="0em"><tspan x="657.641" y="180.204">System Prompt</tspan></text>
<path d="M590 316C590 311.582 593.582 308 598 308H842C846.418 308 850 311.582 850 316V339C850 343.418 846.418 347 842 347H598C593.582 347 590 343.418 590 339V316Z" fill="#E66A32" fill-opacity="0.25"/>
<text fill="white" style="white-space: pre" xml:space="preserve" font-family="Red Hat Mono" font-size="16" font-weight="600" letter-spacing="0em"><tspan x="619.266" y="333.204">Bootstrap Information</tspan></text>
<path d="M590 367C590 362.582 593.582 359 598 359H842C846.418 359 850 362.582 850 367V390C850 394.418 846.418 398 842 398H598C593.582 398 590 394.418 590 390V367Z" fill="#E66A32" fill-opacity="0.25"/>
<text fill="white" style="white-space: pre" xml:space="preserve" font-family="Red Hat Mono" font-size="16" font-weight="600" letter-spacing="0em"><tspan x="628.859" y="384.204">Runtime Information</tspan></text>
<path d="M590 418C590 413.582 593.582 410 598 410H842C846.418 410 850 413.582 850 418V441C850 445.418 846.418 449 842 449H598C593.582 449 590 445.418 590 441V418Z" fill="#E66A32" fill-opacity="0.25"/>
<text fill="white" style="white-space: pre" xml:space="preserve" font-family="Red Hat Mono" font-size="16" font-weight="600" letter-spacing="0em"><tspan x="657.641" y="435.204">Platform Hint</tspan></text>
<path d="M590 482C590 477.582 593.582 474 598 474H842C846.418 474 850 477.582 850 482V505C850 509.418 846.418 513 842 513H598C593.582 513 590 509.418 590 505V482Z" fill="white" fill-opacity="0.2"/>
<text fill="white" style="white-space: pre" xml:space="preserve" font-family="Red Hat Mono" font-size="16" font-weight="600" letter-spacing="0em"><tspan x="672.031" y="499.204">User Input</tspan></text>
</g>
<defs>
<clipPath id="clip0_232_139">
<rect width="1440" height="720" fill="white"/>
</clipPath>
</defs>
</svg>
