<svg width="1440" height="720" viewBox="0 0 1440 720" fill="none" xmlns="http://www.w3.org/2000/svg">
<g clip-path="url(#clip0_170_44)">
<rect width="1440" height="720" fill="white"/>
<rect width="1440" height="720" fill="#080808"/>
<path d="M541 638C545.418 638 549 641.582 549 646L549 670C549 674.418 545.418 678 541 678L517 678C512.582 678 509 674.418 509 670L509 646C509 641.582 512.582 638 517 638L541 638Z" fill="white"/>
<path d="M572.056 662.368H573.256C573.821 662.368 574.317 662.208 574.744 661.888C575.171 661.568 575.507 661.115 575.752 660.528C575.997 659.941 576.12 659.232 576.12 658.4C576.12 657.568 575.997 656.859 575.752 656.272C575.507 655.685 575.171 655.232 574.744 654.912C574.317 654.592 573.821 654.432 573.256 654.432H572.056V662.368ZM570.136 664V652.8H573.432C574.328 652.8 575.123 653.029 575.816 653.488C576.509 653.947 577.053 654.597 577.448 655.44C577.853 656.272 578.056 657.259 578.056 658.4C578.056 659.531 577.853 660.517 577.448 661.36C577.053 662.203 576.509 662.853 575.816 663.312C575.123 663.771 574.328 664 573.432 664H570.136ZM582.466 664.144C581.9 664.144 581.399 664.043 580.962 663.84C580.524 663.627 580.183 663.339 579.938 662.976C579.703 662.613 579.586 662.192 579.586 661.712C579.586 661.221 579.708 660.8 579.954 660.448C580.21 660.096 580.567 659.824 581.026 659.632C581.495 659.44 582.05 659.344 582.69 659.344C583.074 659.344 583.447 659.387 583.81 659.472C584.172 659.547 584.535 659.675 584.898 659.856V659.056C584.898 658.491 584.743 658.069 584.434 657.792C584.124 657.504 583.65 657.36 583.01 657.36C582.658 657.36 582.284 657.413 581.89 657.52C581.506 657.627 581.074 657.803 580.594 658.048L579.906 656.736C580.535 656.427 581.127 656.203 581.682 656.064C582.247 655.925 582.807 655.856 583.362 655.856C584.418 655.856 585.234 656.117 585.81 656.64C586.396 657.163 586.69 657.904 586.69 658.864V664H584.898V663.152C584.535 663.493 584.156 663.744 583.762 663.904C583.367 664.064 582.935 664.144 582.466 664.144ZM581.282 661.664C581.282 662.037 581.431 662.336 581.73 662.56C582.039 662.773 582.45 662.88 582.962 662.88C583.335 662.88 583.682 662.821 584.002 662.704C584.322 662.587 584.62 662.411 584.898 662.176V660.912C584.61 660.773 584.311 660.672 584.002 660.608C583.692 660.544 583.362 660.512 583.01 660.512C582.476 660.512 582.055 660.619 581.746 660.832C581.436 661.035 581.282 661.312 581.282 661.664ZM594.396 664.16C593.393 664.16 592.63 663.941 592.108 663.504C591.596 663.056 591.34 662.405 591.34 661.552V657.424H588.78V655.984H591.34V653.776L593.148 653.392V655.984H596.54V657.424H593.148V661.216C593.148 661.717 593.265 662.075 593.5 662.288C593.745 662.501 594.124 662.608 594.636 662.608C594.913 662.608 595.201 662.587 595.5 662.544C595.809 662.491 596.161 662.395 596.556 662.256V663.792C596.214 663.899 595.857 663.984 595.484 664.048C595.11 664.123 594.748 664.16 594.396 664.16ZM601.653 664.144C601.088 664.144 600.587 664.043 600.149 663.84C599.712 663.627 599.371 663.339 599.125 662.976C598.891 662.613 598.773 662.192 598.773 661.712C598.773 661.221 598.896 660.8 599.141 660.448C599.397 660.096 599.755 659.824 600.213 659.632C600.683 659.44 601.237 659.344 601.877 659.344C602.261 659.344 602.635 659.387 602.997 659.472C603.36 659.547 603.723 659.675 604.085 659.856V659.056C604.085 658.491 603.931 658.069 603.621 657.792C603.312 657.504 602.837 657.36 602.197 657.36C601.845 657.36 601.472 657.413 601.077 657.52C600.693 657.627 600.261 657.803 599.781 658.048L599.093 656.736C599.723 656.427 600.315 656.203 600.869 656.064C601.435 655.925 601.995 655.856 602.549 655.856C603.605 655.856 604.421 656.117 604.997 656.64C605.584 657.163 605.877 657.904 605.877 658.864V664H604.085V663.152C603.723 663.493 603.344 663.744 602.949 663.904C602.555 664.064 602.123 664.144 601.653 664.144ZM600.469 661.664C600.469 662.037 600.619 662.336 600.917 662.56C601.227 662.773 601.637 662.88 602.149 662.88C602.523 662.88 602.869 662.821 603.189 662.704C603.509 662.587 603.808 662.411 604.085 662.176V660.912C603.797 660.773 603.499 660.672 603.189 660.608C602.88 660.544 602.549 660.512 602.197 660.512C601.664 660.512 601.243 660.619 600.933 660.832C600.624 661.035 600.469 661.312 600.469 661.664ZM620.857 664.176C620.174 664.176 619.577 664.048 619.065 663.792C618.553 663.525 618.153 663.157 617.865 662.688C617.577 662.208 617.433 661.653 617.433 661.024C617.433 660.416 617.582 659.867 617.881 659.376C618.179 658.885 618.643 658.421 619.273 657.984C618.953 657.515 618.713 657.072 618.553 656.656C618.403 656.229 618.329 655.808 618.329 655.392C618.329 654.859 618.451 654.384 618.697 653.968C618.942 653.552 619.278 653.227 619.705 652.992C620.142 652.747 620.633 652.624 621.177 652.624C621.699 652.624 622.163 652.731 622.569 652.944C622.974 653.157 623.294 653.445 623.529 653.808C623.763 654.171 623.881 654.592 623.881 655.072C623.881 655.467 623.801 655.829 623.641 656.16C623.491 656.491 623.235 656.821 622.873 657.152C622.521 657.483 622.046 657.84 621.449 658.224C621.769 658.587 622.121 658.971 622.505 659.376C622.889 659.781 623.283 660.181 623.689 660.576C623.838 660.256 623.971 659.904 624.089 659.52C624.217 659.136 624.318 658.72 624.393 658.272L625.929 658.528C625.801 659.136 625.641 659.701 625.449 660.224C625.267 660.736 625.054 661.205 624.809 661.632C625.161 661.941 625.475 662.213 625.753 662.448C626.03 662.683 626.286 662.896 626.521 663.088L625.449 664.256C625.193 664.043 624.931 663.829 624.665 663.616C624.398 663.403 624.121 663.163 623.833 662.896C623.427 663.323 622.974 663.643 622.473 663.856C621.971 664.069 621.433 664.176 620.857 664.176ZM619.897 655.36C619.897 655.637 619.955 655.92 620.073 656.208C620.19 656.496 620.371 656.816 620.617 657.168C621.022 656.912 621.347 656.677 621.593 656.464C621.849 656.24 622.03 656.021 622.137 655.808C622.243 655.595 622.297 655.365 622.297 655.12C622.297 654.779 622.185 654.496 621.961 654.272C621.737 654.048 621.459 653.936 621.129 653.936C620.766 653.936 620.467 654.069 620.233 654.336C620.009 654.592 619.897 654.933 619.897 655.36ZM619.033 660.928C619.033 661.493 619.203 661.947 619.545 662.288C619.897 662.619 620.366 662.784 620.953 662.784C621.294 662.784 621.619 662.709 621.929 662.56C622.238 662.411 622.521 662.192 622.777 661.904C622.297 661.435 621.833 660.965 621.385 660.496C620.937 660.027 620.521 659.557 620.137 659.088C619.763 659.387 619.486 659.685 619.305 659.984C619.123 660.283 619.033 660.597 619.033 660.928ZM637.292 664V652.8H639.212V657.808L643.228 652.8H645.42L640.908 658.224L645.628 664H643.212L639.212 658.88V664H637.292ZM650.758 664.16C649.979 664.16 649.275 663.979 648.646 663.616C648.017 663.243 647.515 662.741 647.142 662.112C646.779 661.483 646.598 660.779 646.598 660C646.598 659.211 646.769 658.507 647.11 657.888C647.462 657.269 647.937 656.779 648.534 656.416C649.142 656.043 649.819 655.856 650.566 655.856C651.345 655.856 652.033 656.037 652.63 656.4C653.238 656.763 653.713 657.253 654.054 657.872C654.406 658.491 654.582 659.2 654.582 660V660.432H648.374C648.427 660.869 648.566 661.259 648.79 661.6C649.025 661.931 649.318 662.192 649.67 662.384C650.033 662.576 650.427 662.672 650.854 662.672C651.27 662.672 651.654 662.592 652.006 662.432C652.369 662.272 652.667 662.048 652.902 661.76L654.102 662.832C653.643 663.291 653.137 663.627 652.582 663.84C652.027 664.053 651.419 664.16 650.758 664.16ZM648.39 659.296H652.854C652.79 658.901 652.651 658.56 652.438 658.272C652.235 657.973 651.974 657.744 651.654 657.584C651.345 657.413 650.993 657.328 650.598 657.328C650.225 657.328 649.883 657.408 649.574 657.568C649.275 657.728 649.025 657.957 648.822 658.256C648.619 658.544 648.475 658.891 648.39 659.296ZM657.408 667.504C657.216 667.504 657.002 667.488 656.768 667.456C656.544 667.435 656.325 667.403 656.112 667.36V665.76C656.336 665.803 656.522 665.835 656.672 665.856C656.832 665.877 657.008 665.888 657.2 665.888C657.562 665.888 657.861 665.819 658.096 665.68C658.341 665.552 658.528 665.328 658.656 665.008L659.024 664.128L655.904 655.984H657.888L660.064 661.984L662.384 655.984H664.32L660.4 665.392C660.176 665.904 659.93 666.315 659.664 666.624C659.408 666.933 659.098 667.157 658.736 667.296C658.384 667.435 657.941 667.504 657.408 667.504Z" fill="white"/>
<path d="M717 638C721.418 638 725 641.582 725 646L725 670C725 674.418 721.418 678 717 678L693 678C688.582 678 685 674.418 685 670L685 646C685 641.582 688.582 638 693 638L717 638Z" fill="#E66A32"/>
<path d="M746.136 664V652.8H748.056V657.808L752.072 652.8H754.264L749.752 658.224L754.472 664H752.056L748.056 658.88V664H746.136ZM759.602 664.16C758.823 664.16 758.119 663.979 757.49 663.616C756.86 663.243 756.359 662.741 755.986 662.112C755.623 661.483 755.442 660.779 755.442 660C755.442 659.211 755.612 658.507 755.954 657.888C756.306 657.269 756.78 656.779 757.378 656.416C757.986 656.043 758.663 655.856 759.41 655.856C760.188 655.856 760.876 656.037 761.474 656.4C762.082 656.763 762.556 657.253 762.898 657.872C763.25 658.491 763.426 659.2 763.426 660V660.432H757.218C757.271 660.869 757.41 661.259 757.634 661.6C757.868 661.931 758.162 662.192 758.514 662.384C758.876 662.576 759.271 662.672 759.698 662.672C760.114 662.672 760.498 662.592 760.85 662.432C761.212 662.272 761.511 662.048 761.746 661.76L762.946 662.832C762.487 663.291 761.98 663.627 761.426 663.84C760.871 664.053 760.263 664.16 759.602 664.16ZM757.234 659.296H761.698C761.634 658.901 761.495 658.56 761.282 658.272C761.079 657.973 760.818 657.744 760.498 657.584C760.188 657.413 759.836 657.328 759.442 657.328C759.068 657.328 758.727 657.408 758.418 657.568C758.119 657.728 757.868 657.957 757.666 658.256C757.463 658.544 757.319 658.891 757.234 659.296ZM766.252 667.504C766.06 667.504 765.846 667.488 765.612 667.456C765.388 667.435 765.169 667.403 764.956 667.36V665.76C765.18 665.803 765.366 665.835 765.516 665.856C765.676 665.877 765.852 665.888 766.044 665.888C766.406 665.888 766.705 665.819 766.94 665.68C767.185 665.552 767.372 665.328 767.5 665.008L767.868 664.128L764.748 655.984H766.732L768.908 661.984L771.228 655.984H773.164L769.244 665.392C769.02 665.904 768.774 666.315 768.508 666.624C768.252 666.933 767.942 667.157 767.58 667.296C767.228 667.435 766.785 667.504 766.252 667.504Z" fill="white"/>
<path d="M836 638C840.418 638 844 641.582 844 646L844 670C844 674.418 840.418 678 836 678L812 678C807.582 678 804 674.418 804 670L804 646C804 641.582 807.582 638 812 638L836 638Z" fill="white" fill-opacity="0.2"/>
<path d="M865.248 664V652.8H869.184C869.941 652.8 870.597 652.949 871.152 653.248C871.717 653.536 872.155 653.941 872.464 654.464C872.773 654.987 872.928 655.595 872.928 656.288C872.928 656.949 872.773 657.541 872.464 658.064C872.155 658.587 871.717 658.997 871.152 659.296C870.597 659.584 869.941 659.728 869.184 659.728H867.168V664H865.248ZM867.168 658.144H868.88C869.563 658.144 870.085 657.973 870.448 657.632C870.811 657.291 870.992 656.837 870.992 656.272C870.992 655.717 870.811 655.269 870.448 654.928C870.085 654.587 869.563 654.416 868.88 654.416H867.168V658.144ZM878.394 664.16C877.636 664.16 876.954 663.979 876.346 663.616C875.738 663.243 875.258 662.747 874.906 662.128C874.554 661.499 874.378 660.789 874.378 660C874.378 659.221 874.554 658.523 874.906 657.904C875.258 657.275 875.738 656.779 876.346 656.416C876.954 656.043 877.636 655.856 878.394 655.856C879.151 655.856 879.834 656.043 880.442 656.416C881.05 656.779 881.53 657.275 881.882 657.904C882.234 658.523 882.41 659.221 882.41 660C882.41 660.789 882.234 661.499 881.882 662.128C881.53 662.747 881.05 663.243 880.442 663.616C879.844 663.979 879.162 664.16 878.394 664.16ZM878.394 662.608C878.831 662.608 879.215 662.496 879.546 662.272C879.887 662.048 880.154 661.739 880.346 661.344C880.548 660.949 880.65 660.501 880.65 660C880.65 659.499 880.548 659.056 880.346 658.672C880.154 658.277 879.887 657.968 879.546 657.744C879.215 657.52 878.831 657.408 878.394 657.408C877.956 657.408 877.567 657.525 877.226 657.76C876.895 657.984 876.628 658.293 876.426 658.688C876.234 659.072 876.138 659.509 876.138 660C876.138 660.501 876.234 660.949 876.426 661.344C876.628 661.739 876.895 662.048 877.226 662.272C877.567 662.496 877.956 662.608 878.394 662.608ZM887.94 654.416C887.577 654.416 887.268 654.288 887.012 654.032C886.766 653.776 886.644 653.472 886.644 653.12C886.644 652.768 886.766 652.469 887.012 652.224C887.268 651.968 887.577 651.84 887.94 651.84C888.292 651.84 888.59 651.968 888.836 652.224C889.092 652.469 889.22 652.768 889.22 653.12C889.22 653.472 889.092 653.776 888.836 654.032C888.59 654.288 888.292 654.416 887.94 654.416ZM889.988 664.16C889.017 664.16 888.281 663.931 887.78 663.472C887.278 663.013 887.028 662.336 887.028 661.44V657.424H884.148V655.984H888.836V661.248C888.836 661.728 888.948 662.075 889.172 662.288C889.406 662.501 889.758 662.608 890.228 662.608C890.494 662.608 890.756 662.581 891.012 662.528C891.268 662.475 891.55 662.389 891.86 662.272V663.792C891.614 663.888 891.321 663.973 890.98 664.048C890.638 664.123 890.308 664.16 889.988 664.16ZM894.077 664V655.984H895.885V657.184C896.504 656.299 897.325 655.856 898.349 655.856C898.904 655.856 899.389 655.979 899.805 656.224C900.221 656.459 900.547 656.795 900.781 657.232C901.027 657.659 901.149 658.155 901.149 658.72V664H899.325V659.232C899.325 658.645 899.165 658.181 898.845 657.84C898.525 657.488 898.099 657.312 897.565 657.312C897.224 657.312 896.909 657.387 896.621 657.536C896.333 657.685 896.088 657.904 895.885 658.192V664H894.077ZM908.583 664.16C907.58 664.16 906.818 663.941 906.295 663.504C905.783 663.056 905.527 662.405 905.527 661.552V657.424H902.967V655.984H905.527V653.776L907.335 653.392V655.984H910.727V657.424H907.335V661.216C907.335 661.717 907.452 662.075 907.687 662.288C907.932 662.501 908.311 662.608 908.823 662.608C909.1 662.608 909.388 662.587 909.687 662.544C909.996 662.491 910.348 662.395 910.743 662.256V663.792C910.402 663.899 910.044 663.984 909.671 664.048C909.298 664.123 908.935 664.16 908.583 664.16ZM916.977 664.16C916.198 664.16 915.494 663.979 914.865 663.616C914.235 663.243 913.734 662.741 913.361 662.112C912.998 661.483 912.817 660.779 912.817 660C912.817 659.211 912.987 658.507 913.329 657.888C913.681 657.269 914.155 656.779 914.753 656.416C915.361 656.043 916.038 655.856 916.785 655.856C917.563 655.856 918.251 656.037 918.849 656.4C919.457 656.763 919.931 657.253 920.273 657.872C920.625 658.491 920.801 659.2 920.801 660V660.432H914.593C914.646 660.869 914.785 661.259 915.009 661.6C915.243 661.931 915.537 662.192 915.889 662.384C916.251 662.576 916.646 662.672 917.073 662.672C917.489 662.672 917.873 662.592 918.225 662.432C918.587 662.272 918.886 662.048 919.121 661.76L920.321 662.832C919.862 663.291 919.355 663.627 918.801 663.84C918.246 664.053 917.638 664.16 916.977 664.16ZM914.609 659.296H919.073C919.009 658.901 918.87 658.56 918.657 658.272C918.454 657.973 918.193 657.744 917.873 657.584C917.563 657.413 917.211 657.328 916.817 657.328C916.443 657.328 916.102 657.408 915.793 657.568C915.494 657.728 915.243 657.957 915.041 658.256C914.838 658.544 914.694 658.891 914.609 659.296ZM922.795 664V662.576H924.779V657.424H922.795V655.984H926.587V657.888C926.853 657.216 927.216 656.709 927.675 656.368C928.144 656.027 928.677 655.856 929.275 655.856C929.52 655.856 929.728 655.877 929.899 655.92C930.069 655.952 930.272 656.011 930.507 656.096V657.744C930.272 657.648 930.021 657.579 929.755 657.536C929.499 657.483 929.248 657.456 929.003 657.456C928.48 657.456 928.005 657.584 927.579 657.84C927.152 658.085 926.821 658.437 926.587 658.896V662.576H928.699V664H922.795Z" fill="white"/>
<rect x="309" y="166" width="176" height="60" rx="12" stroke="white" stroke-width="2"/>
<path d="M329 176C333.418 176 337 179.582 337 184L337 208C337 212.418 333.418 216 329 216L325 216C320.582 216 317 212.418 317 208L317 184C317 179.582 320.582 176 325 176L329 176Z" fill="white" fill-opacity="0.2"/>
<path d="M374 176C378.418 176 382 179.582 382 184L382 208C382 212.418 378.418 216 374 216L350 216C345.582 216 342 212.418 342 208L342 184C342 179.582 345.582 176 350 176L374 176Z" fill="#E66A32"/>
<path d="M399 176C403.418 176 407 179.582 407 184L407 208C407 212.418 403.418 216 399 216L395 216C390.582 216 387 212.418 387 208L387 184C387 179.582 390.582 176 395 176L399 176Z" fill="white" fill-opacity="0.2"/>
<path d="M444 176C448.418 176 452 179.582 452 184L452 208C452 212.418 448.418 216 444 216L420 216C415.582 216 412 212.418 412 208L412 184C412 179.582 415.582 176 420 176L444 176Z" fill="#E66A32"/>
<path d="M469 176C473.418 176 477 179.582 477 184L477 208C477 212.418 473.418 216 469 216L465 216C460.582 216 457 212.418 457 208L457 184C457 179.582 460.582 176 465 176L469 176Z" fill="white" fill-opacity="0.2"/>
<rect x="1029" y="166" width="176" height="60" rx="12" stroke="white" stroke-width="2"/>
<path d="M1049 176C1053.42 176 1057 179.582 1057 184L1057 208C1057 212.418 1053.42 216 1049 216L1045 216C1040.58 216 1037 212.418 1037 208L1037 184C1037 179.582 1040.58 176 1045 176L1049 176Z" fill="white" fill-opacity="0.2"/>
<path d="M1094 176C1098.42 176 1102 179.582 1102 184L1102 208C1102 212.418 1098.42 216 1094 216L1070 216C1065.58 216 1062 212.418 1062 208L1062 184C1062 179.582 1065.58 176 1070 176L1094 176Z" fill="white"/>
<path d="M1119 176C1123.42 176 1127 179.582 1127 184L1127 208C1127 212.418 1123.42 216 1119 216L1115 216C1110.58 216 1107 212.418 1107 208L1107 184C1107 179.582 1110.58 176 1115 176L1119 176Z" fill="white" fill-opacity="0.2"/>
<path d="M1164 176C1168.42 176 1172 179.582 1172 184L1172 208C1172 212.418 1168.42 216 1164 216L1140 216C1135.58 216 1132 212.418 1132 208L1132 184C1132 179.582 1135.58 176 1140 176L1164 176Z" fill="white"/>
<path d="M1189 176C1193.42 176 1197 179.582 1197 184L1197 208C1197 212.418 1193.42 216 1189 216L1185 216C1180.58 216 1177 212.418 1177 208L1177 184C1177 179.582 1180.58 176 1185 176L1189 176Z" fill="white" fill-opacity="0.2"/>
<rect x="84" y="412" width="151" height="60" rx="12" stroke="white" stroke-width="2"/>
<path d="M104 422C108.418 422 112 425.582 112 430L112 454C112 458.418 108.418 462 104 462L100 462C95.5817 462 92 458.418 92 454L92 430C92 425.582 95.5817 422 100 422L104 422Z" fill="white" fill-opacity="0.2"/>
<path d="M149 422C153.418 422 157 425.582 157 430L157 454C157 458.418 153.418 462 149 462L125 462C120.582 462 117 458.418 117 454L117 430C117 425.582 120.582 422 125 422L149 422Z" fill="white"/>
<path d="M194 422C198.418 422 202 425.582 202 430L202 454C202 458.418 198.418 462 194 462L170 462C165.582 462 162 458.418 162 454L162 430C162 425.582 165.582 422 170 422L194 422Z" fill="white"/>
<path d="M219 422C223.418 422 227 425.582 227 430L227 454C227 458.418 223.418 462 219 462L215 462C210.582 462 207 458.418 207 454L207 430C207 425.582 210.582 422 215 422L219 422Z" fill="white" fill-opacity="0.2"/>
<rect x="251" y="412" width="106" height="60" rx="12" stroke="white" stroke-width="2"/>
<path d="M271 422C275.418 422 279 425.582 279 430L279 454C279 458.418 275.418 462 271 462L267 462C262.582 462 259 458.418 259 454L259 430C259 425.582 262.582 422 267 422L271 422Z" fill="white" fill-opacity="0.2"/>
<path d="M316 422C320.418 422 324 425.582 324 430L324 454C324 458.418 320.418 462 316 462L292 462C287.582 462 284 458.418 284 454L284 430C284 425.582 287.582 422 292 422L316 422Z" fill="white"/>
<path d="M341 422C345.418 422 349 425.582 349 430L349 454C349 458.418 345.418 462 341 462L337 462C332.582 462 329 458.418 329 454L329 430C329 425.582 332.582 422 337 422L341 422Z" fill="white" fill-opacity="0.2"/>
<path d="M377.909 447.644C377.525 447.644 377.205 447.516 376.949 447.26C376.693 446.993 376.565 446.679 376.565 446.316C376.565 445.943 376.693 445.628 376.949 445.372C377.205 445.105 377.525 444.972 377.909 444.972C378.293 444.972 378.613 445.105 378.869 445.372C379.125 445.628 379.253 445.943 379.253 446.316C379.253 446.689 379.125 447.004 378.869 447.26C378.613 447.516 378.293 447.644 377.909 447.644ZM387.503 447.644C387.119 447.644 386.799 447.516 386.543 447.26C386.287 446.993 386.159 446.679 386.159 446.316C386.159 445.943 386.287 445.628 386.543 445.372C386.799 445.105 387.119 444.972 387.503 444.972C387.887 444.972 388.207 445.105 388.463 445.372C388.719 445.628 388.847 445.943 388.847 446.316C388.847 446.689 388.719 447.004 388.463 447.26C388.207 447.516 387.887 447.644 387.503 447.644ZM397.097 447.644C396.713 447.644 396.393 447.516 396.137 447.26C395.881 446.993 395.753 446.679 395.753 446.316C395.753 445.943 395.881 445.628 396.137 445.372C396.393 445.105 396.713 444.972 397.097 444.972C397.481 444.972 397.801 445.105 398.057 445.372C398.313 445.628 398.441 445.943 398.441 446.316C398.441 446.689 398.313 447.004 398.057 447.26C397.801 447.516 397.481 447.644 397.097 447.644Z" fill="white"/>
<rect x="418" y="412" width="196" height="60" rx="12" stroke="white" stroke-width="2"/>
<path d="M438 422C442.418 422 446 425.582 446 430L446 454C446 458.418 442.418 462 438 462L434 462C429.582 462 426 458.418 426 454L426 430C426 425.582 429.582 422 434 422L438 422Z" fill="white" fill-opacity="0.2"/>
<path d="M483 422C487.418 422 491 425.582 491 430L491 454C491 458.418 487.418 462 483 462L459 462C454.582 462 451 458.418 451 454L451 430C451 425.582 454.582 422 459 422L483 422Z" fill="white"/>
<path d="M528 422C532.418 422 536 425.582 536 430L536 454C536 458.418 532.418 462 528 462L504 462C499.582 462 496 458.418 496 454L496 430C496 425.582 499.582 422 504 422L528 422Z" fill="white"/>
<path d="M573 422C577.418 422 581 425.582 581 430L581 454C581 458.418 577.418 462 573 462L549 462C544.582 462 541 458.418 541 454L541 430C541 425.582 544.582 422 549 422L573 422Z" fill="white"/>
<path d="M598 422C602.418 422 606 425.582 606 430L606 454C606 458.418 602.418 462 598 462L594 462C589.582 462 586 458.418 586 454L586 430C586 425.582 589.582 422 594 422L598 422Z" fill="white" fill-opacity="0.2"/>
<rect x="630" y="412" width="151" height="60" rx="12" stroke="white" stroke-width="2"/>
<path d="M650 422C654.418 422 658 425.582 658 430L658 454C658 458.418 654.418 462 650 462L646 462C641.582 462 638 458.418 638 454L638 430C638 425.582 641.582 422 646 422L650 422Z" fill="white" fill-opacity="0.2"/>
<path d="M695 422C699.418 422 703 425.582 703 430L703 454C703 458.418 699.418 462 695 462L671 462C666.582 462 663 458.418 663 454L663 430C663 425.582 666.582 422 671 422L695 422Z" fill="white"/>
<path d="M740 422C744.418 422 748 425.582 748 430L748 454C748 458.418 744.418 462 740 462L716 462C711.582 462 708 458.418 708 454L708 430C708 425.582 711.582 422 716 422L740 422Z" fill="white"/>
<path d="M765 422C769.418 422 773 425.582 773 430L773 454C773 458.418 769.418 462 765 462L761 462C756.582 462 753 458.418 753 454L753 430C753 425.582 756.582 422 761 422L765 422Z" fill="white" fill-opacity="0.2"/>
<rect x="864" y="412" width="101" height="60" rx="12" stroke="white" stroke-width="2"/>
<path d="M904 422C908.418 422 912 425.582 912 430L912 454C912 458.418 908.418 462 904 462L880 462C875.582 462 872 458.418 872 454L872 430C872 425.582 875.582 422 880 422L904 422Z" fill="white"/>
<path d="M949 422C953.418 422 957 425.582 957 430L957 454C957 458.418 953.418 462 949 462L925 462C920.582 462 917 458.418 917 454L917 430C917 425.582 920.582 422 925 422L949 422Z" fill="white"/>
<rect x="981" y="412" width="56" height="60" rx="12" stroke="white" stroke-width="2"/>
<path d="M1021 422C1025.42 422 1029 425.582 1029 430L1029 454C1029 458.418 1025.42 462 1021 462L997 462C992.582 462 989 458.418 989 454L989 430C989 425.582 992.582 422 997 422L1021 422Z" fill="white"/>
<path d="M1057.91 447.644C1057.53 447.644 1057.21 447.516 1056.95 447.26C1056.69 446.993 1056.57 446.679 1056.57 446.316C1056.57 445.943 1056.69 445.628 1056.95 445.372C1057.21 445.105 1057.53 444.972 1057.91 444.972C1058.29 444.972 1058.61 445.105 1058.87 445.372C1059.13 445.628 1059.25 445.943 1059.25 446.316C1059.25 446.689 1059.13 447.004 1058.87 447.26C1058.61 447.516 1058.29 447.644 1057.91 447.644ZM1067.5 447.644C1067.12 447.644 1066.8 447.516 1066.54 447.26C1066.29 446.993 1066.16 446.679 1066.16 446.316C1066.16 445.943 1066.29 445.628 1066.54 445.372C1066.8 445.105 1067.12 444.972 1067.5 444.972C1067.89 444.972 1068.21 445.105 1068.46 445.372C1068.72 445.628 1068.85 445.943 1068.85 446.316C1068.85 446.689 1068.72 447.004 1068.46 447.26C1068.21 447.516 1067.89 447.644 1067.5 447.644ZM1077.1 447.644C1076.71 447.644 1076.39 447.516 1076.14 447.26C1075.88 446.993 1075.75 446.679 1075.75 446.316C1075.75 445.943 1075.88 445.628 1076.14 445.372C1076.39 445.105 1076.71 444.972 1077.1 444.972C1077.48 444.972 1077.8 445.105 1078.06 445.372C1078.31 445.628 1078.44 445.943 1078.44 446.316C1078.44 446.689 1078.31 447.004 1078.06 447.26C1077.8 447.516 1077.48 447.644 1077.1 447.644Z" fill="white"/>
<rect x="1098" y="412" width="146" height="60" rx="12" stroke="white" stroke-width="2"/>
<path d="M1138 422C1142.42 422 1146 425.582 1146 430L1146 454C1146 458.418 1142.42 462 1138 462L1114 462C1109.58 462 1106 458.418 1106 454L1106 430C1106 425.582 1109.58 422 1114 422L1138 422Z" fill="white"/>
<path d="M1183 422C1187.42 422 1191 425.582 1191 430L1191 454C1191 458.418 1187.42 462 1183 462L1159 462C1154.58 462 1151 458.418 1151 454L1151 430C1151 425.582 1154.58 422 1159 422L1183 422Z" fill="white"/>
<path d="M1228 422C1232.42 422 1236 425.582 1236 430L1236 454C1236 458.418 1232.42 462 1228 462L1204 462C1199.58 462 1196 458.418 1196 454L1196 430C1196 425.582 1199.58 422 1204 422L1228 422Z" fill="white"/>
<rect x="1260" y="412" width="101" height="60" rx="12" stroke="white" stroke-width="2"/>
<path d="M1300 422C1304.42 422 1308 425.582 1308 430L1308 454C1308 458.418 1304.42 462 1300 462L1276 462C1271.58 462 1268 458.418 1268 454L1268 430C1268 425.582 1271.58 422 1276 422L1300 422Z" fill="white"/>
<path d="M1345 422C1349.42 422 1353 425.582 1353 430L1353 454C1353 458.418 1349.42 462 1345 462L1321 462C1316.58 462 1313 458.418 1313 454L1313 430C1313 425.582 1316.58 422 1321 422L1345 422Z" fill="white"/>
<path d="M226.293 441.293C225.902 441.683 225.902 442.317 226.293 442.707L232.657 449.071C233.047 449.462 233.681 449.462 234.071 449.071C234.462 448.681 234.462 448.047 234.071 447.657L228.414 442L234.071 436.343C234.462 435.953 234.462 435.319 234.071 434.929C233.681 434.538 233.047 434.538 232.657 434.929L226.293 441.293ZM259.707 442.707C260.098 442.317 260.098 441.683 259.707 441.293L253.343 434.929C252.953 434.538 252.319 434.538 251.929 434.929C251.538 435.319 251.538 435.953 251.929 436.343L257.586 442L251.929 447.657C251.538 448.047 251.538 448.681 251.929 449.071C252.319 449.462 252.953 449.462 253.343 449.071L259.707 442.707ZM227 442V443H259V442V441H227V442Z" fill="white"/>
<path d="M606.293 441.293C605.902 441.683 605.902 442.317 606.293 442.707L612.657 449.071C613.047 449.462 613.681 449.462 614.071 449.071C614.462 448.681 614.462 448.047 614.071 447.657L608.414 442L614.071 436.343C614.462 435.953 614.462 435.319 614.071 434.929C613.681 434.538 613.047 434.538 612.657 434.929L606.293 441.293ZM639.707 442.707C640.098 442.317 640.098 441.683 639.707 441.293L633.343 434.929C632.953 434.538 632.319 434.538 631.929 434.929C631.538 435.319 631.538 435.953 631.929 436.343L637.586 442L631.929 447.657C631.538 448.047 631.538 448.681 631.929 449.071C632.319 449.462 632.953 449.462 633.343 449.071L639.707 442.707ZM607 442V443H639V442V441H607V442Z" fill="white"/>
<rect x="187" y="289" width="176" height="60" rx="12" stroke="white" stroke-width="2"/>
<path d="M207 299C211.418 299 215 302.582 215 307L215 331C215 335.418 211.418 339 207 339L203 339C198.582 339 195 335.418 195 331L195 307C195 302.582 198.582 299 203 299L207 299Z" fill="white" fill-opacity="0.2"/>
<path d="M252 299C256.418 299 260 302.582 260 307L260 331C260 335.418 256.418 339 252 339L228 339C223.582 339 220 335.418 220 331L220 307C220 302.582 223.582 299 228 299L252 299Z" fill="#E66A32"/>
<path d="M277 299C281.418 299 285 302.582 285 307L285 331C285 335.418 281.418 339 277 339L273 339C268.582 339 265 335.418 265 331L265 307C265 302.582 268.582 299 273 299L277 299Z" fill="white" fill-opacity="0.2"/>
<path d="M322 299C326.418 299 330 302.582 330 307L330 331C330 335.418 326.418 339 322 339L298 339C293.582 339 290 335.418 290 331L290 307C290 302.582 293.582 299 298 299L322 299Z" fill="#E66A32"/>
<path d="M347 299C351.418 299 355 302.582 355 307L355 331C355 335.418 351.418 339 347 339L343 339C338.582 339 335 335.418 335 331L335 307C335 302.582 338.582 299 343 299L347 299Z" fill="white" fill-opacity="0.2"/>
<rect x="379" y="289" width="106" height="60" rx="12" stroke="white" stroke-width="2"/>
<path d="M399 299C403.418 299 407 302.582 407 307L407 331C407 335.418 403.418 339 399 339L395 339C390.582 339 387 335.418 387 331L387 307C387 302.582 390.582 299 395 299L399 299Z" fill="white" fill-opacity="0.2"/>
<path d="M444 299C448.418 299 452 302.582 452 307L452 331C452 335.418 448.418 339 444 339L420 339C415.582 339 412 335.418 412 331L412 307C412 302.582 415.582 299 420 299L444 299Z" fill="#E66A32"/>
<path d="M469 299C473.418 299 477 302.582 477 307L477 331C477 335.418 473.418 339 469 339L465 339C460.582 339 457 335.418 457 331L457 307C457 302.582 460.582 299 465 299L469 299Z" fill="white" fill-opacity="0.2"/>
<rect x="501" y="289" width="106" height="60" rx="12" stroke="white" stroke-width="2"/>
<path d="M521 299C525.418 299 529 302.582 529 307L529 331C529 335.418 525.418 339 521 339L517 339C512.582 339 509 335.418 509 331L509 307C509 302.582 512.582 299 517 299L521 299Z" fill="white" fill-opacity="0.2"/>
<path d="M566 299C570.418 299 574 302.582 574 307L574 331C574 335.418 570.418 339 566 339L542 339C537.582 339 534 335.418 534 331L534 307C534 302.582 537.582 299 542 299L566 299Z" fill="#E66A32"/>
<path d="M591 299C595.418 299 599 302.582 599 307L599 331C599 335.418 595.418 339 591 339L587 339C582.582 339 579 335.418 579 331L579 307C579 302.582 582.582 299 587 299L591 299Z" fill="white" fill-opacity="0.2"/>
<rect x="907" y="289" width="176" height="60" rx="12" stroke="white" stroke-width="2"/>
<path d="M927 299C931.418 299 935 302.582 935 307L935 331C935 335.418 931.418 339 927 339L923 339C918.582 339 915 335.418 915 331L915 307C915 302.582 918.582 299 923 299L927 299Z" fill="white" fill-opacity="0.2"/>
<path d="M972 299C976.418 299 980 302.582 980 307L980 331C980 335.418 976.418 339 972 339L948 339C943.582 339 940 335.418 940 331L940 307C940 302.582 943.582 299 948 299L972 299Z" fill="white"/>
<path d="M997 299C1001.42 299 1005 302.582 1005 307L1005 331C1005 335.418 1001.42 339 997 339L993 339C988.582 339 985 335.418 985 331L985 307C985 302.582 988.582 299 993 299L997 299Z" fill="white" fill-opacity="0.2"/>
<path d="M1042 299C1046.42 299 1050 302.582 1050 307L1050 331C1050 335.418 1046.42 339 1042 339L1018 339C1013.58 339 1010 335.418 1010 331L1010 307C1010 302.582 1013.58 299 1018 299L1042 299Z" fill="white"/>
<path d="M1067 299C1071.42 299 1075 302.582 1075 307L1075 331C1075 335.418 1071.42 339 1067 339L1063 339C1058.58 339 1055 335.418 1055 331L1055 307C1055 302.582 1058.58 299 1063 299L1067 299Z" fill="white" fill-opacity="0.2"/>
<rect x="1099" y="289" width="106" height="60" rx="12" stroke="white" stroke-width="2"/>
<path d="M1119 299C1123.42 299 1127 302.582 1127 307L1127 331C1127 335.418 1123.42 339 1119 339L1115 339C1110.58 339 1107 335.418 1107 331L1107 307C1107 302.582 1110.58 299 1115 299L1119 299Z" fill="white" fill-opacity="0.2"/>
<path d="M1164 299C1168.42 299 1172 302.582 1172 307L1172 331C1172 335.418 1168.42 339 1164 339L1140 339C1135.58 339 1132 335.418 1132 331L1132 307C1132 302.582 1135.58 299 1140 299L1164 299Z" fill="white"/>
<path d="M1189 299C1193.42 299 1197 302.582 1197 307L1197 331C1197 335.418 1193.42 339 1189 339L1185 339C1180.58 339 1177 335.418 1177 331L1177 307C1177 302.582 1180.58 299 1185 299L1189 299Z" fill="white" fill-opacity="0.2"/>
<rect x="1221" y="289" width="106" height="60" rx="12" stroke="white" stroke-width="2"/>
<path d="M1241 299C1245.42 299 1249 302.582 1249 307L1249 331C1249 335.418 1245.42 339 1241 339L1237 339C1232.58 339 1229 335.418 1229 331L1229 307C1229 302.582 1232.58 299 1237 299L1241 299Z" fill="white" fill-opacity="0.2"/>
<path d="M1286 299C1290.42 299 1294 302.582 1294 307L1294 331C1294 335.418 1290.42 339 1286 339L1262 339C1257.58 339 1254 335.418 1254 331L1254 307C1254 302.582 1257.58 299 1262 299L1286 299Z" fill="white"/>
<path d="M1311 299C1315.42 299 1319 302.582 1319 307L1319 331C1319 335.418 1315.42 339 1311 339L1307 339C1302.58 339 1299 335.418 1299 331L1299 307C1299 302.582 1302.58 299 1307 299L1311 299Z" fill="white" fill-opacity="0.2"/>
<path d="M348.04 131V114.2H353.536C354.592 114.2 355.512 114.384 356.296 114.752C357.096 115.12 357.72 115.64 358.168 116.312C358.616 116.968 358.84 117.736 358.84 118.616C358.84 119.48 358.592 120.24 358.096 120.896C357.6 121.536 356.928 122.016 356.08 122.336C357.104 122.64 357.912 123.144 358.504 123.848C359.112 124.536 359.416 125.36 359.416 126.32C359.416 127.248 359.176 128.064 358.696 128.768C358.232 129.472 357.584 130.024 356.752 130.424C355.936 130.808 354.968 131 353.848 131H348.04ZM350.872 121.28H353.248C354.08 121.28 354.744 121.064 355.24 120.632C355.736 120.2 355.984 119.624 355.984 118.904C355.984 118.168 355.736 117.592 355.24 117.176C354.744 116.744 354.08 116.528 353.248 116.528H350.872V121.28ZM350.872 128.672H353.512C354.424 128.672 355.152 128.44 355.696 127.976C356.256 127.496 356.536 126.864 356.536 126.08C356.536 125.28 356.264 124.648 355.72 124.184C355.176 123.72 354.44 123.488 353.512 123.488H350.872V128.672ZM366.511 127.76V123.464H362.551V121.376H366.511V117.128H368.671V121.376H372.631V123.464H368.671V127.76H366.511ZM394.932 131V116.648H389.724V114.2H403.02V116.648H397.812V131H394.932ZM405.411 131V128.864H408.387V121.136H405.411V118.976H411.099V121.832C411.499 120.824 412.043 120.064 412.731 119.552C413.435 119.04 414.235 118.784 415.131 118.784C415.499 118.784 415.811 118.816 416.067 118.88C416.323 118.928 416.627 119.016 416.979 119.144V121.616C416.627 121.472 416.251 121.368 415.851 121.304C415.467 121.224 415.091 121.184 414.723 121.184C413.939 121.184 413.227 121.376 412.587 121.76C411.947 122.128 411.451 122.656 411.099 123.344V128.864H414.267V131H405.411ZM425.465 131.24C424.297 131.24 423.241 130.968 422.297 130.424C421.353 129.864 420.601 129.112 420.041 128.168C419.497 127.224 419.225 126.168 419.225 125C419.225 123.816 419.481 122.76 419.993 121.832C420.521 120.904 421.233 120.168 422.129 119.624C423.041 119.064 424.057 118.784 425.177 118.784C426.345 118.784 427.377 119.056 428.273 119.6C429.185 120.144 429.897 120.88 430.409 121.808C430.937 122.736 431.201 123.8 431.201 125V125.648H421.889C421.969 126.304 422.177 126.888 422.513 127.4C422.865 127.896 423.305 128.288 423.833 128.576C424.377 128.864 424.969 129.008 425.609 129.008C426.233 129.008 426.809 128.888 427.337 128.648C427.881 128.408 428.329 128.072 428.681 127.64L430.481 129.248C429.793 129.936 429.033 130.44 428.201 130.76C427.369 131.08 426.457 131.24 425.465 131.24ZM421.913 123.944H428.609C428.513 123.352 428.305 122.84 427.985 122.408C427.681 121.96 427.289 121.616 426.809 121.376C426.345 121.12 425.817 120.992 425.225 120.992C424.665 120.992 424.153 121.112 423.689 121.352C423.241 121.592 422.865 121.936 422.561 122.384C422.257 122.816 422.041 123.336 421.913 123.944ZM439.856 131.24C438.688 131.24 437.632 130.968 436.688 130.424C435.744 129.864 434.992 129.112 434.432 128.168C433.888 127.224 433.616 126.168 433.616 125C433.616 123.816 433.872 122.76 434.384 121.832C434.912 120.904 435.624 120.168 436.52 119.624C437.432 119.064 438.448 118.784 439.568 118.784C440.736 118.784 441.768 119.056 442.664 119.6C443.576 120.144 444.288 120.88 444.8 121.808C445.328 122.736 445.592 123.8 445.592 125V125.648H436.28C436.36 126.304 436.568 126.888 436.904 127.4C437.256 127.896 437.696 128.288 438.224 128.576C438.768 128.864 439.36 129.008 440 129.008C440.624 129.008 441.2 128.888 441.728 128.648C442.272 128.408 442.72 128.072 443.072 127.64L444.872 129.248C444.184 129.936 443.424 130.44 442.592 130.76C441.76 131.08 440.848 131.24 439.856 131.24ZM436.304 123.944H443C442.904 123.352 442.696 122.84 442.376 122.408C442.072 121.96 441.68 121.616 441.2 121.376C440.736 121.12 440.208 120.992 439.616 120.992C439.056 120.992 438.544 121.112 438.08 121.352C437.632 121.592 437.256 121.936 436.952 122.384C436.648 122.816 436.432 123.336 436.304 123.944Z" fill="white"/>
<path d="M1068.04 131V114.2H1073.54C1074.59 114.2 1075.51 114.384 1076.3 114.752C1077.1 115.12 1077.72 115.64 1078.17 116.312C1078.62 116.968 1078.84 117.736 1078.84 118.616C1078.84 119.48 1078.59 120.24 1078.1 120.896C1077.6 121.536 1076.93 122.016 1076.08 122.336C1077.1 122.64 1077.91 123.144 1078.5 123.848C1079.11 124.536 1079.42 125.36 1079.42 126.32C1079.42 127.248 1079.18 128.064 1078.7 128.768C1078.23 129.472 1077.58 130.024 1076.75 130.424C1075.94 130.808 1074.97 131 1073.85 131H1068.04ZM1070.87 121.28H1073.25C1074.08 121.28 1074.74 121.064 1075.24 120.632C1075.74 120.2 1075.98 119.624 1075.98 118.904C1075.98 118.168 1075.74 117.592 1075.24 117.176C1074.74 116.744 1074.08 116.528 1073.25 116.528H1070.87V121.28ZM1070.87 128.672H1073.51C1074.42 128.672 1075.15 128.44 1075.7 127.976C1076.26 127.496 1076.54 126.864 1076.54 126.08C1076.54 125.28 1076.26 124.648 1075.72 124.184C1075.18 123.72 1074.44 123.488 1073.51 123.488H1070.87V128.672ZM1100.54 131V116.648H1095.33V114.2H1108.63V116.648H1103.42V131H1100.54ZM1111.02 131V128.864H1114V121.136H1111.02V118.976H1116.71V121.832C1117.11 120.824 1117.65 120.064 1118.34 119.552C1119.04 119.04 1119.84 118.784 1120.74 118.784C1121.11 118.784 1121.42 118.816 1121.68 118.88C1121.93 118.928 1122.24 119.016 1122.59 119.144V121.616C1122.24 121.472 1121.86 121.368 1121.46 121.304C1121.08 121.224 1120.7 121.184 1120.33 121.184C1119.55 121.184 1118.84 121.376 1118.2 121.76C1117.56 122.128 1117.06 122.656 1116.71 123.344V128.864H1119.88V131H1111.02ZM1131.07 131.24C1129.91 131.24 1128.85 130.968 1127.91 130.424C1126.96 129.864 1126.21 129.112 1125.65 128.168C1125.11 127.224 1124.83 126.168 1124.83 125C1124.83 123.816 1125.09 122.76 1125.6 121.832C1126.13 120.904 1126.84 120.168 1127.74 119.624C1128.65 119.064 1129.67 118.784 1130.79 118.784C1131.95 118.784 1132.99 119.056 1133.88 119.6C1134.79 120.144 1135.51 120.88 1136.02 121.808C1136.55 122.736 1136.81 123.8 1136.81 125V125.648H1127.5C1127.58 126.304 1127.79 126.888 1128.12 127.4C1128.47 127.896 1128.91 128.288 1129.44 128.576C1129.99 128.864 1130.58 129.008 1131.22 129.008C1131.84 129.008 1132.42 128.888 1132.95 128.648C1133.49 128.408 1133.94 128.072 1134.29 127.64L1136.09 129.248C1135.4 129.936 1134.64 130.44 1133.81 130.76C1132.98 131.08 1132.07 131.24 1131.07 131.24ZM1127.52 123.944H1134.22C1134.12 123.352 1133.91 122.84 1133.59 122.408C1133.29 121.96 1132.9 121.616 1132.42 121.376C1131.95 121.12 1131.43 120.992 1130.83 120.992C1130.27 120.992 1129.76 121.112 1129.3 121.352C1128.85 121.592 1128.47 121.936 1128.17 122.384C1127.87 122.816 1127.65 123.336 1127.52 123.944ZM1145.47 131.24C1144.3 131.24 1143.24 130.968 1142.3 130.424C1141.35 129.864 1140.6 129.112 1140.04 128.168C1139.5 127.224 1139.23 126.168 1139.23 125C1139.23 123.816 1139.48 122.76 1139.99 121.832C1140.52 120.904 1141.23 120.168 1142.13 119.624C1143.04 119.064 1144.06 118.784 1145.18 118.784C1146.35 118.784 1147.38 119.056 1148.27 119.6C1149.19 120.144 1149.9 120.88 1150.41 121.808C1150.94 122.736 1151.2 123.8 1151.2 125V125.648H1141.89C1141.97 126.304 1142.18 126.888 1142.51 127.4C1142.87 127.896 1143.31 128.288 1143.83 128.576C1144.38 128.864 1144.97 129.008 1145.61 129.008C1146.23 129.008 1146.81 128.888 1147.34 128.648C1147.88 128.408 1148.33 128.072 1148.68 127.64L1150.48 129.248C1149.79 129.936 1149.03 130.44 1148.2 130.76C1147.37 131.08 1146.46 131.24 1145.47 131.24ZM1141.91 123.944H1148.61C1148.51 123.352 1148.31 122.84 1147.99 122.408C1147.68 121.96 1147.29 121.616 1146.81 121.376C1146.35 121.12 1145.82 120.992 1145.23 120.992C1144.67 120.992 1144.15 121.112 1143.69 121.352C1143.24 121.592 1142.87 121.936 1142.56 122.384C1142.26 122.816 1142.04 123.336 1141.91 123.944Z" fill="white"/>
<path d="M274.013 289.159C274.101 289.704 274.614 290.075 275.159 289.987L284.044 288.554C284.59 288.466 284.96 287.953 284.872 287.408C284.784 286.862 284.271 286.492 283.726 286.58L275.828 287.854L274.554 279.956C274.466 279.41 273.953 279.04 273.408 279.128C272.862 279.216 272.492 279.729 272.58 280.274L274.013 289.159ZM327 217L326.189 216.415L274.189 288.415L275 289L275.811 289.585L327.811 217.585L327 217Z" fill="white"/>
<path d="M994.013 289.159C994.101 289.704 994.614 290.075 995.159 289.987L1004.04 288.554C1004.59 288.466 1004.96 287.953 1004.87 287.408C1004.78 286.862 1004.27 286.492 1003.73 286.58L995.828 287.854L994.554 279.956C994.466 279.41 993.953 279.04 993.408 279.128C992.862 279.216 992.492 279.729 992.58 280.274L994.013 289.159ZM1047 217L1046.19 216.415L994.189 288.415L995 289L995.811 289.585L1047.81 217.585L1047 217Z" fill="white"/>
<path d="M431.668 289.943C432.189 290.127 432.76 289.853 432.943 289.332L435.93 280.842C436.114 280.321 435.84 279.75 435.319 279.567C434.798 279.384 434.227 279.657 434.044 280.178L431.389 287.725L423.842 285.07C423.321 284.886 422.75 285.16 422.567 285.681C422.384 286.202 422.657 286.773 423.178 286.956L431.668 289.943ZM397 216L396.098 216.432L431.098 289.432L432 289L432.902 288.568L397.902 215.568L397 216Z" fill="white"/>
<path d="M1151.67 289.943C1152.19 290.127 1152.76 289.853 1152.94 289.332L1155.93 280.842C1156.11 280.321 1155.84 279.75 1155.32 279.567C1154.8 279.384 1154.23 279.657 1154.04 280.178L1151.39 287.725L1143.84 285.07C1143.32 284.886 1142.75 285.16 1142.57 285.681C1142.38 286.202 1142.66 286.773 1143.18 286.956L1151.67 289.943ZM1117 216L1116.1 216.432L1151.1 289.432L1152 289L1152.9 288.568L1117.9 215.568L1117 216Z" fill="white"/>
<path d="M554.094 289.996C554.644 289.944 555.047 289.456 554.996 288.906L554.15 279.946C554.098 279.396 553.611 278.992 553.061 279.044C552.511 279.096 552.107 279.584 552.159 280.134L552.91 288.098L544.946 288.85C544.396 288.902 543.992 289.389 544.044 289.939C544.096 290.489 544.584 290.893 545.134 290.841L554.094 289.996ZM467 217L466.362 217.77L553.362 289.77L554 289L554.638 288.23L467.638 216.23L467 217Z" fill="white"/>
<path d="M1274.09 289.996C1274.64 289.944 1275.05 289.456 1275 288.906L1274.15 279.946C1274.1 279.396 1273.61 278.992 1273.06 279.044C1272.51 279.096 1272.11 279.584 1272.16 280.134L1272.91 288.098L1264.95 288.85C1264.4 288.902 1263.99 289.389 1264.04 289.939C1264.1 290.489 1264.58 290.893 1265.13 290.841L1274.09 289.996ZM1187 217L1186.36 217.77L1273.36 289.77L1274 289L1274.64 288.23L1187.64 216.23L1187 217Z" fill="white"/>
<path d="M159.027 412.231C159.155 412.768 159.694 413.1 160.231 412.973L168.988 410.895C169.525 410.768 169.857 410.229 169.73 409.691C169.602 409.154 169.063 408.822 168.526 408.949L160.742 410.796L158.895 403.012C158.768 402.475 158.229 402.143 157.691 402.27C157.154 402.398 156.822 402.937 156.949 403.474L159.027 412.231ZM205 339L204.149 338.475L159.149 411.475L160 412L160.851 412.525L205.851 339.525L205 339Z" fill="white"/>
<path d="M914.203 412.605C914.537 413.045 915.165 413.13 915.605 412.797L922.773 407.355C923.213 407.021 923.299 406.394 922.965 405.954C922.631 405.514 922.004 405.428 921.564 405.762L915.192 410.599L910.355 404.227C910.021 403.787 909.394 403.701 908.954 404.035C908.514 404.369 908.428 404.996 908.762 405.436L914.203 412.605ZM925 339L924.009 338.864L914.009 411.864L915 412L915.991 412.136L925.991 339.136L925 339Z" fill="white"/>
<path d="M303.604 412.918C304.111 413.137 304.699 412.903 304.918 412.396L308.483 404.132C308.702 403.625 308.468 403.037 307.961 402.818C307.454 402.599 306.865 402.833 306.647 403.34L303.478 410.686L296.132 407.517C295.625 407.298 295.037 407.532 294.818 408.039C294.599 408.546 294.833 409.135 295.34 409.353L303.604 412.918ZM275 339L274.071 339.369L303.071 412.369L304 412L304.929 411.631L275.929 338.631L275 339Z" fill="white"/>
<path d="M1008.44 412.828C1008.9 413.138 1009.52 413.018 1009.83 412.561L1014.88 405.113C1015.19 404.655 1015.07 404.034 1014.61 403.724C1014.16 403.414 1013.53 403.533 1013.22 403.99L1008.73 410.611L1002.11 406.121C1001.66 405.811 1001.03 405.93 1000.72 406.387C1000.41 406.844 1000.53 407.466 1000.99 407.776L1008.44 412.828ZM995 339L994.018 339.188L1008.02 412.188L1009 412L1009.98 411.812L995.982 338.812L995 339Z" fill="white"/>
<path d="M515.264 412.677C515.639 413.084 516.271 413.11 516.677 412.736L523.297 406.638C523.704 406.264 523.73 405.631 523.355 405.225C522.981 404.819 522.349 404.793 521.942 405.167L516.058 410.587L510.638 404.703C510.264 404.296 509.631 404.27 509.225 404.645C508.819 405.019 508.793 405.651 509.167 406.058L515.264 412.677ZM519 339L518.001 338.959L515.001 411.959L516 412L516.999 412.041L519.999 339.041L519 339Z" fill="white"/>
<path d="M1170 412.035C1170.02 412.587 1170.48 413.019 1171.04 412.999L1180.03 412.68C1180.58 412.661 1181.01 412.198 1180.99 411.646C1180.97 411.094 1180.51 410.662 1179.96 410.682L1171.96 410.965L1171.68 402.97C1171.66 402.418 1171.2 401.987 1170.65 402.006C1170.09 402.026 1169.66 402.489 1169.68 403.041L1170 412.035ZM1239 339L1238.27 338.318L1170.27 411.318L1171 412L1171.73 412.682L1239.73 339.682L1239 339Z" fill="white"/>
<path d="M706.226 412.974C706.764 412.85 707.099 412.312 706.974 411.774L704.944 403.006C704.819 402.468 704.282 402.133 703.744 402.258C703.206 402.382 702.871 402.92 702.995 403.458L704.8 411.251L697.006 413.056C696.468 413.181 696.133 413.718 696.258 414.256C696.382 414.794 696.92 415.129 697.458 415.005L706.226 412.974ZM589 339L588.471 339.848L705.471 412.848L706 412L706.529 411.152L589.529 338.152L589 339Z" fill="white"/>
<path d="M1308.29 412.707C1308.68 413.098 1309.32 413.098 1309.71 412.707L1316.07 406.343C1316.46 405.953 1316.46 405.319 1316.07 404.929C1315.68 404.538 1315.05 404.538 1314.66 404.929L1309 410.586L1303.34 404.929C1302.95 404.538 1302.32 404.538 1301.93 404.929C1301.54 405.319 1301.54 405.953 1301.93 406.343L1308.29 412.707ZM1309 339H1308V412H1309H1310V339H1309Z" fill="white"/>
<path d="M348.293 441.293C347.902 441.683 347.902 442.317 348.293 442.707L354.657 449.071C355.047 449.462 355.681 449.462 356.071 449.071C356.462 448.681 356.462 448.047 356.071 447.657L350.414 442L356.071 436.343C356.462 435.953 356.462 435.319 356.071 434.929C355.681 434.538 355.047 434.538 354.657 434.929L348.293 441.293ZM370.707 442.707C371.098 442.317 371.098 441.683 370.707 441.293L364.343 434.929C363.953 434.538 363.319 434.538 362.929 434.929C362.538 435.319 362.538 435.953 362.929 436.343L368.586 442L362.929 447.657C362.538 448.047 362.538 448.681 362.929 449.071C363.319 449.462 363.953 449.462 364.343 449.071L370.707 442.707ZM349 442V443H370V442V441H349V442Z" fill="white"/>
<path d="M404.293 441.293C403.902 441.683 403.902 442.317 404.293 442.707L410.657 449.071C411.047 449.462 411.681 449.462 412.071 449.071C412.462 448.681 412.462 448.047 412.071 447.657L406.414 442L412.071 436.343C412.462 435.953 412.462 435.319 412.071 434.929C411.681 434.538 411.047 434.538 410.657 434.929L404.293 441.293ZM426.707 442.707C427.098 442.317 427.098 441.683 426.707 441.293L420.343 434.929C419.953 434.538 419.319 434.538 418.929 434.929C418.538 435.319 418.538 435.953 418.929 436.343L424.586 442L418.929 447.657C418.538 448.047 418.538 448.681 418.929 449.071C419.319 449.462 419.953 449.462 420.343 449.071L426.707 442.707ZM405 442V443H426V442V441H405V442Z" fill="white"/>
</g>
<defs>
<clipPath id="clip0_170_44">
<rect width="1440" height="720" fill="white"/>
</clipPath>
</defs>
</svg>
