<svg width="1440" height="720" viewBox="0 0 1440 720" fill="none" xmlns="http://www.w3.org/2000/svg">
<g clip-path="url(#clip0_170_44)">
<rect width="1440" height="720" fill="#080808"/>
<path d="M541 638C545.418 638 549 641.582 549 646L549 670C549 674.418 545.418 678 541 678L517 678C512.582 678 509 674.418 509 670L509 646C509 641.582 512.582 638 517 638L541 638Z" fill="white"/>
<text fill="white" xml:space="preserve" style="white-space: pre" font-family="Red Hat Mono" font-size="16" font-weight="600" letter-spacing="0em"><tspan x="569" y="664.204">Data &#38; Key</tspan></text>
<path d="M717 638C721.418 638 725 641.582 725 646L725 670C725 674.418 721.418 678 717 678L693 678C688.582 678 685 674.418 685 670L685 646C685 641.582 688.582 638 693 638L717 638Z" fill="#E66A32"/>
<text fill="white" xml:space="preserve" style="white-space: pre" font-family="Red Hat Mono" font-size="16" font-weight="600" letter-spacing="0em"><tspan x="745" y="664.204">Key</tspan></text>
<path d="M836 638C840.418 638 844 641.582 844 646L844 670C844 674.418 840.418 678 836 678L812 678C807.582 678 804 674.418 804 670L804 646C804 641.582 807.582 638 812 638L836 638Z" fill="white" fill-opacity="0.2"/>
<text fill="white" xml:space="preserve" style="white-space: pre" font-family="Red Hat Mono" font-size="16" font-weight="600" letter-spacing="0em"><tspan x="864" y="664.204">Pointer</tspan></text>
<path d="M317 166V167H477V166V165H317V166ZM485 174H484V218H485H486V174H485ZM477 226V225H317V226V227H477V226ZM309 218H310V174H309H308V218H309ZM317 226V225C313.134 225 310 221.866 310 218H309H308C308 222.971 312.029 227 317 227V226ZM485 218H484C484 221.866 480.866 225 477 225V226V227C481.971 227 486 222.971 486 218H485ZM477 166V167C480.866 167 484 170.134 484 174H485H486C486 169.029 481.971 165 477 165V166ZM317 166V165C312.029 165 308 169.029 308 174H309H310C310 170.134 313.134 167 317 167V166Z" fill="white"/>
<path d="M329 176C333.418 176 337 179.582 337 184L337 208C337 212.418 333.418 216 329 216L325 216C320.582 216 317 212.418 317 208L317 184C317 179.582 320.582 176 325 176L329 176Z" fill="white" fill-opacity="0.2"/>
<path d="M374 176C378.418 176 382 179.582 382 184L382 208C382 212.418 378.418 216 374 216L350 216C345.582 216 342 212.418 342 208L342 184C342 179.582 345.582 176 350 176L374 176Z" fill="#E66A32"/>
<path d="M399 176C403.418 176 407 179.582 407 184L407 208C407 212.418 403.418 216 399 216L395 216C390.582 216 387 212.418 387 208L387 184C387 179.582 390.582 176 395 176L399 176Z" fill="white" fill-opacity="0.2"/>
<path d="M444 176C448.418 176 452 179.582 452 184L452 208C452 212.418 448.418 216 444 216L420 216C415.582 216 412 212.418 412 208L412 184C412 179.582 415.582 176 420 176L444 176Z" fill="#E66A32"/>
<path d="M469 176C473.418 176 477 179.582 477 184L477 208C477 212.418 473.418 216 469 216L465 216C460.582 216 457 212.418 457 208L457 184C457 179.582 460.582 176 465 176L469 176Z" fill="white" fill-opacity="0.2"/>
<path d="M1037 166V167H1197V166V165H1037V166ZM1205 174H1204V218H1205H1206V174H1205ZM1197 226V225H1037V226V227H1197V226ZM1029 218H1030V174H1029H1028V218H1029ZM1037 226V225C1033.13 225 1030 221.866 1030 218H1029H1028C1028 222.971 1032.03 227 1037 227V226ZM1205 218H1204C1204 221.866 1200.87 225 1197 225V226V227C1201.97 227 1206 222.971 1206 218H1205ZM1197 166V167C1200.87 167 1204 170.134 1204 174H1205H1206C1206 169.029 1201.97 165 1197 165V166ZM1037 166V165C1032.03 165 1028 169.029 1028 174H1029H1030C1030 170.134 1033.13 167 1037 167V166Z" fill="white"/>
<path d="M1049 176C1053.42 176 1057 179.582 1057 184L1057 208C1057 212.418 1053.42 216 1049 216L1045 216C1040.58 216 1037 212.418 1037 208L1037 184C1037 179.582 1040.58 176 1045 176L1049 176Z" fill="white" fill-opacity="0.2"/>
<path d="M1094 176C1098.42 176 1102 179.582 1102 184L1102 208C1102 212.418 1098.42 216 1094 216L1070 216C1065.58 216 1062 212.418 1062 208L1062 184C1062 179.582 1065.58 176 1070 176L1094 176Z" fill="white"/>
<path d="M1119 176C1123.42 176 1127 179.582 1127 184L1127 208C1127 212.418 1123.42 216 1119 216L1115 216C1110.58 216 1107 212.418 1107 208L1107 184C1107 179.582 1110.58 176 1115 176L1119 176Z" fill="white" fill-opacity="0.2"/>
<path d="M1164 176C1168.42 176 1172 179.582 1172 184L1172 208C1172 212.418 1168.42 216 1164 216L1140 216C1135.58 216 1132 212.418 1132 208L1132 184C1132 179.582 1135.58 176 1140 176L1164 176Z" fill="white"/>
<path d="M1189 176C1193.42 176 1197 179.582 1197 184L1197 208C1197 212.418 1193.42 216 1189 216L1185 216C1180.58 216 1177 212.418 1177 208L1177 184C1177 179.582 1180.58 176 1185 176L1189 176Z" fill="white" fill-opacity="0.2"/>
<rect x="84" y="412" width="151" height="60" rx="12" stroke="white" stroke-width="2"/>
<path d="M104 422C108.418 422 112 425.582 112 430L112 454C112 458.418 108.418 462 104 462L100 462C95.5817 462 92 458.418 92 454L92 430C92 425.582 95.5817 422 100 422L104 422Z" fill="white" fill-opacity="0.2"/>
<path d="M149 422C153.418 422 157 425.582 157 430L157 454C157 458.418 153.418 462 149 462L125 462C120.582 462 117 458.418 117 454L117 430C117 425.582 120.582 422 125 422L149 422Z" fill="white"/>
<path d="M194 422C198.418 422 202 425.582 202 430L202 454C202 458.418 198.418 462 194 462L170 462C165.582 462 162 458.418 162 454L162 430C162 425.582 165.582 422 170 422L194 422Z" fill="white"/>
<path d="M219 422C223.418 422 227 425.582 227 430L227 454C227 458.418 223.418 462 219 462L215 462C210.582 462 207 458.418 207 454L207 430C207 425.582 210.582 422 215 422L219 422Z" fill="white" fill-opacity="0.2"/>
<rect x="251" y="412" width="106" height="60" rx="12" stroke="white" stroke-width="2"/>
<path d="M271 422C275.418 422 279 425.582 279 430L279 454C279 458.418 275.418 462 271 462L267 462C262.582 462 259 458.418 259 454L259 430C259 425.582 262.582 422 267 422L271 422Z" fill="white" fill-opacity="0.2"/>
<path d="M316 422C320.418 422 324 425.582 324 430L324 454C324 458.418 320.418 462 316 462L292 462C287.582 462 284 458.418 284 454L284 430C284 425.582 287.582 422 292 422L316 422Z" fill="white"/>
<path d="M341 422C345.418 422 349 425.582 349 430L349 454C349 458.418 345.418 462 341 462L337 462C332.582 462 329 458.418 329 454L329 430C329 425.582 332.582 422 337 422L341 422Z" fill="white" fill-opacity="0.2"/>
<text fill="white" xml:space="preserve" style="white-space: pre" font-family="Red Hat Mono" font-size="16" font-weight="600" letter-spacing="0em"><tspan x="373.109" y="447.704">...</tspan></text>
<rect x="418" y="412" width="196" height="60" rx="12" stroke="white" stroke-width="2"/>
<path d="M438 422C442.418 422 446 425.582 446 430L446 454C446 458.418 442.418 462 438 462L434 462C429.582 462 426 458.418 426 454L426 430C426 425.582 429.582 422 434 422L438 422Z" fill="white" fill-opacity="0.2"/>
<path d="M483 422C487.418 422 491 425.582 491 430L491 454C491 458.418 487.418 462 483 462L459 462C454.582 462 451 458.418 451 454L451 430C451 425.582 454.582 422 459 422L483 422Z" fill="white"/>
<path d="M528 422C532.418 422 536 425.582 536 430L536 454C536 458.418 532.418 462 528 462L504 462C499.582 462 496 458.418 496 454L496 430C496 425.582 499.582 422 504 422L528 422Z" fill="white"/>
<path d="M573 422C577.418 422 581 425.582 581 430L581 454C581 458.418 577.418 462 573 462L549 462C544.582 462 541 458.418 541 454L541 430C541 425.582 544.582 422 549 422L573 422Z" fill="white"/>
<path d="M598 422C602.418 422 606 425.582 606 430L606 454C606 458.418 602.418 462 598 462L594 462C589.582 462 586 458.418 586 454L586 430C586 425.582 589.582 422 594 422L598 422Z" fill="white" fill-opacity="0.2"/>
<rect x="630" y="412" width="151" height="60" rx="12" stroke="white" stroke-width="2"/>
<path d="M650 422C654.418 422 658 425.582 658 430L658 454C658 458.418 654.418 462 650 462L646 462C641.582 462 638 458.418 638 454L638 430C638 425.582 641.582 422 646 422L650 422Z" fill="white" fill-opacity="0.2"/>
<path d="M695 422C699.418 422 703 425.582 703 430L703 454C703 458.418 699.418 462 695 462L671 462C666.582 462 663 458.418 663 454L663 430C663 425.582 666.582 422 671 422L695 422Z" fill="white"/>
<path d="M740 422C744.418 422 748 425.582 748 430L748 454C748 458.418 744.418 462 740 462L716 462C711.582 462 708 458.418 708 454L708 430C708 425.582 711.582 422 716 422L740 422Z" fill="white"/>
<path d="M765 422C769.418 422 773 425.582 773 430L773 454C773 458.418 769.418 462 765 462L761 462C756.582 462 753 458.418 753 454L753 430C753 425.582 756.582 422 761 422L765 422Z" fill="white" fill-opacity="0.2"/>
<rect x="864" y="412" width="101" height="60" rx="12" stroke="white" stroke-width="2"/>
<path d="M904 422C908.418 422 912 425.582 912 430L912 454C912 458.418 908.418 462 904 462L880 462C875.582 462 872 458.418 872 454L872 430C872 425.582 875.582 422 880 422L904 422Z" fill="white"/>
<path d="M949 422C953.418 422 957 425.582 957 430L957 454C957 458.418 953.418 462 949 462L925 462C920.582 462 917 458.418 917 454L917 430C917 425.582 920.582 422 925 422L949 422Z" fill="white"/>
<rect x="981" y="412" width="56" height="60" rx="12" stroke="white" stroke-width="2"/>
<path d="M1021 422C1025.42 422 1029 425.582 1029 430L1029 454C1029 458.418 1025.42 462 1021 462L997 462C992.582 462 989 458.418 989 454L989 430C989 425.582 992.582 422 997 422L1021 422Z" fill="white"/>
<text fill="white" xml:space="preserve" style="white-space: pre" font-family="Red Hat Mono" font-size="16" font-weight="600" letter-spacing="0em"><tspan x="1053.11" y="447.704">...</tspan></text>
<rect x="1098" y="412" width="146" height="60" rx="12" stroke="white" stroke-width="2"/>
<path d="M1138 422C1142.42 422 1146 425.582 1146 430L1146 454C1146 458.418 1142.42 462 1138 462L1114 462C1109.58 462 1106 458.418 1106 454L1106 430C1106 425.582 1109.58 422 1114 422L1138 422Z" fill="white"/>
<path d="M1183 422C1187.42 422 1191 425.582 1191 430L1191 454C1191 458.418 1187.42 462 1183 462L1159 462C1154.58 462 1151 458.418 1151 454L1151 430C1151 425.582 1154.58 422 1159 422L1183 422Z" fill="white"/>
<path d="M1228 422C1232.42 422 1236 425.582 1236 430L1236 454C1236 458.418 1232.42 462 1228 462L1204 462C1199.58 462 1196 458.418 1196 454L1196 430C1196 425.582 1199.58 422 1204 422L1228 422Z" fill="white"/>
<rect x="1260" y="412" width="101" height="60" rx="12" stroke="white" stroke-width="2"/>
<path d="M1300 422C1304.42 422 1308 425.582 1308 430L1308 454C1308 458.418 1304.42 462 1300 462L1276 462C1271.58 462 1268 458.418 1268 454L1268 430C1268 425.582 1271.58 422 1276 422L1300 422Z" fill="white"/>
<path d="M1345 422C1349.42 422 1353 425.582 1353 430L1353 454C1353 458.418 1349.42 462 1345 462L1321 462C1316.58 462 1313 458.418 1313 454L1313 430C1313 425.582 1316.58 422 1321 422L1345 422Z" fill="white"/>
<path d="M226.293 441.293C225.902 441.683 225.902 442.317 226.293 442.707L232.657 449.071C233.047 449.462 233.681 449.462 234.071 449.071C234.462 448.681 234.462 448.047 234.071 447.657L228.414 442L234.071 436.343C234.462 435.953 234.462 435.319 234.071 434.929C233.681 434.538 233.047 434.538 232.657 434.929L226.293 441.293ZM259.707 442.707C260.098 442.317 260.098 441.683 259.707 441.293L253.343 434.929C252.953 434.538 252.319 434.538 251.929 434.929C251.538 435.319 251.538 435.953 251.929 436.343L257.586 442L251.929 447.657C251.538 448.047 251.538 448.681 251.929 449.071C252.319 449.462 252.953 449.462 253.343 449.071L259.707 442.707ZM227 442V443H259V442V441H227V442Z" fill="white"/>
<path d="M606.293 441.293C605.902 441.683 605.902 442.317 606.293 442.707L612.657 449.071C613.047 449.462 613.681 449.462 614.071 449.071C614.462 448.681 614.462 448.047 614.071 447.657L608.414 442L614.071 436.343C614.462 435.953 614.462 435.319 614.071 434.929C613.681 434.538 613.047 434.538 612.657 434.929L606.293 441.293ZM639.707 442.707C640.098 442.317 640.098 441.683 639.707 441.293L633.343 434.929C632.953 434.538 632.319 434.538 631.929 434.929C631.538 435.319 631.538 435.953 631.929 436.343L637.586 442L631.929 447.657C631.538 448.047 631.538 448.681 631.929 449.071C632.319 449.462 632.953 449.462 633.343 449.071L639.707 442.707ZM607 442V443H639V442V441H607V442Z" fill="white"/>
<rect x="187" y="289" width="176" height="60" rx="12" stroke="white" stroke-width="2"/>
<path d="M207 299C211.418 299 215 302.582 215 307L215 331C215 335.418 211.418 339 207 339L203 339C198.582 339 195 335.418 195 331L195 307C195 302.582 198.582 299 203 299L207 299Z" fill="white" fill-opacity="0.2"/>
<path d="M252 299C256.418 299 260 302.582 260 307L260 331C260 335.418 256.418 339 252 339L228 339C223.582 339 220 335.418 220 331L220 307C220 302.582 223.582 299 228 299L252 299Z" fill="#E66A32"/>
<path d="M277 299C281.418 299 285 302.582 285 307L285 331C285 335.418 281.418 339 277 339L273 339C268.582 339 265 335.418 265 331L265 307C265 302.582 268.582 299 273 299L277 299Z" fill="white" fill-opacity="0.2"/>
<path d="M322 299C326.418 299 330 302.582 330 307L330 331C330 335.418 326.418 339 322 339L298 339C293.582 339 290 335.418 290 331L290 307C290 302.582 293.582 299 298 299L322 299Z" fill="#E66A32"/>
<path d="M347 299C351.418 299 355 302.582 355 307L355 331C355 335.418 351.418 339 347 339L343 339C338.582 339 335 335.418 335 331L335 307C335 302.582 338.582 299 343 299L347 299Z" fill="white" fill-opacity="0.2"/>
<rect x="379" y="289" width="106" height="60" rx="12" stroke="white" stroke-width="2"/>
<path d="M399 299C403.418 299 407 302.582 407 307L407 331C407 335.418 403.418 339 399 339L395 339C390.582 339 387 335.418 387 331L387 307C387 302.582 390.582 299 395 299L399 299Z" fill="white" fill-opacity="0.2"/>
<path d="M444 299C448.418 299 452 302.582 452 307L452 331C452 335.418 448.418 339 444 339L420 339C415.582 339 412 335.418 412 331L412 307C412 302.582 415.582 299 420 299L444 299Z" fill="#E66A32"/>
<path d="M469 299C473.418 299 477 302.582 477 307L477 331C477 335.418 473.418 339 469 339L465 339C460.582 339 457 335.418 457 331L457 307C457 302.582 460.582 299 465 299L469 299Z" fill="white" fill-opacity="0.2"/>
<rect x="501" y="289" width="106" height="60" rx="12" stroke="white" stroke-width="2"/>
<path d="M521 299C525.418 299 529 302.582 529 307L529 331C529 335.418 525.418 339 521 339L517 339C512.582 339 509 335.418 509 331L509 307C509 302.582 512.582 299 517 299L521 299Z" fill="white" fill-opacity="0.2"/>
<path d="M566 299C570.418 299 574 302.582 574 307L574 331C574 335.418 570.418 339 566 339L542 339C537.582 339 534 335.418 534 331L534 307C534 302.582 537.582 299 542 299L566 299Z" fill="#E66A32"/>
<path d="M591 299C595.418 299 599 302.582 599 307L599 331C599 335.418 595.418 339 591 339L587 339C582.582 339 579 335.418 579 331L579 307C579 302.582 582.582 299 587 299L591 299Z" fill="white" fill-opacity="0.2"/>
<rect x="907" y="289" width="176" height="60" rx="12" stroke="white" stroke-width="2"/>
<path d="M927 299C931.418 299 935 302.582 935 307L935 331C935 335.418 931.418 339 927 339L923 339C918.582 339 915 335.418 915 331L915 307C915 302.582 918.582 299 923 299L927 299Z" fill="white" fill-opacity="0.2"/>
<path d="M972 299C976.418 299 980 302.582 980 307L980 331C980 335.418 976.418 339 972 339L948 339C943.582 339 940 335.418 940 331L940 307C940 302.582 943.582 299 948 299L972 299Z" fill="white"/>
<path d="M997 299C1001.42 299 1005 302.582 1005 307L1005 331C1005 335.418 1001.42 339 997 339L993 339C988.582 339 985 335.418 985 331L985 307C985 302.582 988.582 299 993 299L997 299Z" fill="white" fill-opacity="0.2"/>
<path d="M1042 299C1046.42 299 1050 302.582 1050 307L1050 331C1050 335.418 1046.42 339 1042 339L1018 339C1013.58 339 1010 335.418 1010 331L1010 307C1010 302.582 1013.58 299 1018 299L1042 299Z" fill="white"/>
<path d="M1067 299C1071.42 299 1075 302.582 1075 307L1075 331C1075 335.418 1071.42 339 1067 339L1063 339C1058.58 339 1055 335.418 1055 331L1055 307C1055 302.582 1058.58 299 1063 299L1067 299Z" fill="white" fill-opacity="0.2"/>
<rect x="1099" y="289" width="106" height="60" rx="12" stroke="white" stroke-width="2"/>
<path d="M1119 299C1123.42 299 1127 302.582 1127 307L1127 331C1127 335.418 1123.42 339 1119 339L1115 339C1110.58 339 1107 335.418 1107 331L1107 307C1107 302.582 1110.58 299 1115 299L1119 299Z" fill="white" fill-opacity="0.2"/>
<path d="M1164 299C1168.42 299 1172 302.582 1172 307L1172 331C1172 335.418 1168.42 339 1164 339L1140 339C1135.58 339 1132 335.418 1132 331L1132 307C1132 302.582 1135.58 299 1140 299L1164 299Z" fill="white"/>
<path d="M1189 299C1193.42 299 1197 302.582 1197 307L1197 331C1197 335.418 1193.42 339 1189 339L1185 339C1180.58 339 1177 335.418 1177 331L1177 307C1177 302.582 1180.58 299 1185 299L1189 299Z" fill="white" fill-opacity="0.2"/>
<rect x="1221" y="289" width="106" height="60" rx="12" stroke="white" stroke-width="2"/>
<path d="M1241 299C1245.42 299 1249 302.582 1249 307L1249 331C1249 335.418 1245.42 339 1241 339L1237 339C1232.58 339 1229 335.418 1229 331L1229 307C1229 302.582 1232.58 299 1237 299L1241 299Z" fill="white" fill-opacity="0.2"/>
<path d="M1286 299C1290.42 299 1294 302.582 1294 307L1294 331C1294 335.418 1290.42 339 1286 339L1262 339C1257.58 339 1254 335.418 1254 331L1254 307C1254 302.582 1257.58 299 1262 299L1286 299Z" fill="white"/>
<path d="M1311 299C1315.42 299 1319 302.582 1319 307L1319 331C1319 335.418 1315.42 339 1311 339L1307 339C1302.58 339 1299 335.418 1299 331L1299 307C1299 302.582 1302.58 299 1307 299L1311 299Z" fill="white" fill-opacity="0.2"/>
<text fill="white" xml:space="preserve" style="white-space: pre" font-family="Red Hat Mono" font-size="24" font-weight="600" letter-spacing="0em"><tspan x="346" y="130.556">B+ Tree</tspan></text>
<text fill="white" xml:space="preserve" style="white-space: pre" font-family="Red Hat Mono" font-size="24" font-weight="600" letter-spacing="0em"><tspan x="1066" y="130.556">B Tree</tspan></text>
<path d="M274.013 289.159C274.101 289.704 274.614 290.075 275.159 289.987L284.044 288.554C284.59 288.466 284.96 287.953 284.872 287.408C284.784 286.862 284.271 286.492 283.726 286.58L275.828 287.854L274.554 279.956C274.466 279.41 273.953 279.04 273.408 279.128C272.862 279.216 272.492 279.729 272.58 280.274L274.013 289.159ZM327 217L326.189 216.415L274.189 288.415L275 289L275.811 289.585L327.811 217.585L327 217Z" fill="white"/>
<path d="M994.013 289.159C994.101 289.704 994.614 290.075 995.159 289.987L1004.04 288.554C1004.59 288.466 1004.96 287.953 1004.87 287.408C1004.78 286.862 1004.27 286.492 1003.73 286.58L995.828 287.854L994.554 279.956C994.466 279.41 993.953 279.04 993.408 279.128C992.862 279.216 992.492 279.729 992.58 280.274L994.013 289.159ZM1047 217L1046.19 216.415L994.189 288.415L995 289L995.811 289.585L1047.81 217.585L1047 217Z" fill="white"/>
<path d="M431.668 289.943C432.189 290.127 432.76 289.853 432.943 289.332L435.93 280.842C436.114 280.321 435.84 279.75 435.319 279.567C434.798 279.384 434.227 279.657 434.044 280.178L431.389 287.725L423.842 285.07C423.321 284.886 422.75 285.16 422.567 285.681C422.384 286.202 422.657 286.773 423.178 286.956L431.668 289.943ZM397 216L396.098 216.432L431.098 289.432L432 289L432.902 288.568L397.902 215.568L397 216Z" fill="white"/>
<path d="M1151.67 289.943C1152.19 290.127 1152.76 289.853 1152.94 289.332L1155.93 280.842C1156.11 280.321 1155.84 279.75 1155.32 279.567C1154.8 279.384 1154.23 279.657 1154.04 280.178L1151.39 287.725L1143.84 285.07C1143.32 284.886 1142.75 285.16 1142.57 285.681C1142.38 286.202 1142.66 286.773 1143.18 286.956L1151.67 289.943ZM1117 216L1116.1 216.432L1151.1 289.432L1152 289L1152.9 288.568L1117.9 215.568L1117 216Z" fill="white"/>
<path d="M554.094 289.996C554.644 289.944 555.047 289.456 554.996 288.906L554.15 279.946C554.098 279.396 553.611 278.992 553.061 279.044C552.511 279.096 552.107 279.584 552.159 280.134L552.91 288.098L544.946 288.85C544.396 288.902 543.992 289.389 544.044 289.939C544.096 290.489 544.584 290.893 545.134 290.841L554.094 289.996ZM467 217L466.362 217.77L553.362 289.77L554 289L554.638 288.23L467.638 216.23L467 217Z" fill="white"/>
<path d="M1274.09 289.996C1274.64 289.944 1275.05 289.456 1275 288.906L1274.15 279.946C1274.1 279.396 1273.61 278.992 1273.06 279.044C1272.51 279.096 1272.11 279.584 1272.16 280.134L1272.91 288.098L1264.95 288.85C1264.4 288.902 1263.99 289.389 1264.04 289.939C1264.1 290.489 1264.58 290.893 1265.13 290.841L1274.09 289.996ZM1187 217L1186.36 217.77L1273.36 289.77L1274 289L1274.64 288.23L1187.64 216.23L1187 217Z" fill="white"/>
<path d="M159.027 412.231C159.155 412.768 159.694 413.1 160.231 412.973L168.988 410.895C169.525 410.768 169.857 410.229 169.73 409.691C169.602 409.154 169.063 408.822 168.526 408.949L160.742 410.796L158.895 403.012C158.768 402.475 158.229 402.143 157.691 402.27C157.154 402.398 156.822 402.937 156.949 403.474L159.027 412.231ZM205 339L204.149 338.475L159.149 411.475L160 412L160.851 412.525L205.851 339.525L205 339Z" fill="white"/>
<path d="M914.203 412.605C914.537 413.045 915.165 413.13 915.605 412.797L922.773 407.355C923.213 407.021 923.299 406.394 922.965 405.954C922.631 405.514 922.004 405.428 921.564 405.762L915.192 410.599L910.355 404.227C910.021 403.787 909.394 403.701 908.954 404.035C908.514 404.369 908.428 404.996 908.762 405.436L914.203 412.605ZM925 339L924.009 338.864L914.009 411.864L915 412L915.991 412.136L925.991 339.136L925 339Z" fill="white"/>
<path d="M303.604 412.918C304.111 413.137 304.699 412.903 304.918 412.396L308.483 404.132C308.702 403.625 308.468 403.037 307.961 402.818C307.454 402.599 306.865 402.833 306.647 403.34L303.478 410.686L296.132 407.517C295.625 407.298 295.037 407.532 294.818 408.039C294.599 408.546 294.833 409.135 295.34 409.353L303.604 412.918ZM275 339L274.071 339.369L303.071 412.369L304 412L304.929 411.631L275.929 338.631L275 339Z" fill="white"/>
<path d="M1008.44 412.828C1008.9 413.138 1009.52 413.018 1009.83 412.561L1014.88 405.113C1015.19 404.655 1015.07 404.034 1014.61 403.724C1014.16 403.414 1013.53 403.533 1013.22 403.99L1008.73 410.611L1002.11 406.121C1001.66 405.811 1001.03 405.93 1000.72 406.387C1000.41 406.844 1000.53 407.466 1000.99 407.776L1008.44 412.828ZM995 339L994.018 339.188L1008.02 412.188L1009 412L1009.98 411.812L995.982 338.812L995 339Z" fill="white"/>
<path d="M515.264 412.677C515.639 413.084 516.271 413.11 516.677 412.736L523.297 406.638C523.704 406.264 523.73 405.631 523.355 405.225C522.981 404.819 522.349 404.793 521.942 405.167L516.058 410.587L510.638 404.703C510.264 404.296 509.631 404.27 509.225 404.645C508.819 405.019 508.793 405.651 509.167 406.058L515.264 412.677ZM519 339L518.001 338.959L515.001 411.959L516 412L516.999 412.041L519.999 339.041L519 339Z" fill="white"/>
<path d="M1170 412.035C1170.02 412.587 1170.48 413.019 1171.04 412.999L1180.03 412.68C1180.58 412.661 1181.01 412.198 1180.99 411.646C1180.97 411.094 1180.51 410.662 1179.96 410.682L1171.96 410.965L1171.68 402.97C1171.66 402.418 1171.2 401.987 1170.65 402.006C1170.09 402.026 1169.66 402.489 1169.68 403.041L1170 412.035ZM1239 339L1238.27 338.318L1170.27 411.318L1171 412L1171.73 412.682L1239.73 339.682L1239 339Z" fill="white"/>
<path d="M706.226 412.974C706.764 412.85 707.099 412.312 706.974 411.774L704.944 403.006C704.819 402.468 704.282 402.133 703.744 402.258C703.206 402.382 702.871 402.92 702.995 403.458L704.8 411.251L697.006 413.056C696.468 413.181 696.133 413.718 696.258 414.256C696.382 414.794 696.92 415.129 697.458 415.005L706.226 412.974ZM589 339L588.471 339.848L705.471 412.848L706 412L706.529 411.152L589.529 338.152L589 339Z" fill="white"/>
<path d="M1308.29 412.707C1308.68 413.098 1309.32 413.098 1309.71 412.707L1316.07 406.343C1316.46 405.953 1316.46 405.319 1316.07 404.929C1315.68 404.538 1315.05 404.538 1314.66 404.929L1309 410.586L1303.34 404.929C1302.95 404.538 1302.32 404.538 1301.93 404.929C1301.54 405.319 1301.54 405.953 1301.93 406.343L1308.29 412.707ZM1309 339H1308V412H1309H1310V339H1309Z" fill="white"/>
<path d="M348.293 441.293C347.902 441.683 347.902 442.317 348.293 442.707L354.657 449.071C355.047 449.462 355.681 449.462 356.071 449.071C356.462 448.681 356.462 448.047 356.071 447.657L350.414 442L356.071 436.343C356.462 435.953 356.462 435.319 356.071 434.929C355.681 434.538 355.047 434.538 354.657 434.929L348.293 441.293ZM370.707 442.707C371.098 442.317 371.098 441.683 370.707 441.293L364.343 434.929C363.953 434.538 363.319 434.538 362.929 434.929C362.538 435.319 362.538 435.953 362.929 436.343L368.586 442L362.929 447.657C362.538 448.047 362.538 448.681 362.929 449.071C363.319 449.462 363.953 449.462 364.343 449.071L370.707 442.707ZM349 442V443H370V442V441H349V442Z" fill="white"/>
<path d="M404.293 441.293C403.902 441.683 403.902 442.317 404.293 442.707L410.657 449.071C411.047 449.462 411.681 449.462 412.071 449.071C412.462 448.681 412.462 448.047 412.071 447.657L406.414 442L412.071 436.343C412.462 435.953 412.462 435.319 412.071 434.929C411.681 434.538 411.047 434.538 410.657 434.929L404.293 441.293ZM426.707 442.707C427.098 442.317 427.098 441.683 426.707 441.293L420.343 434.929C419.953 434.538 419.319 434.538 418.929 434.929C418.538 435.319 418.538 435.953 418.929 436.343L424.586 442L418.929 447.657C418.538 448.047 418.538 448.681 418.929 449.071C419.319 449.462 419.953 449.462 420.343 449.071L426.707 442.707ZM405 442V443H426V442V441H405V442Z" fill="white"/>
</g>
<defs>
<clipPath id="clip0_170_44">
<rect width="1440" height="720" fill="white"/>
</clipPath>
</defs>
</svg>
