<svg width="1440" height="720" viewBox="0 0 1440 720" fill="none" xmlns="http://www.w3.org/2000/svg">
<g clip-path="url(#clip0_109_26)">
<rect width="1440" height="720" fill="white"/>
<rect width="1440" height="720" fill="#080808"/>
<path d="M493 141C493 136.582 496.582 133 501 133H939C943.418 133 947 136.582 947 141V579C947 583.418 943.418 587 939 587H501C496.582 587 493 583.418 493 579V141Z" fill="white" fill-opacity="0.1"/>
<path d="M493 141C493 136.582 496.582 133 501 133H939C943.418 133 947 136.582 947 141V579C947 583.418 943.418 587 939 587H501C496.582 587 493 583.418 493 579V141Z" fill="white" fill-opacity="0.1"/>
<path d="M671 239C671 234.582 674.582 231 679 231H922C926.418 231 930 234.582 930 239V562C930 566.418 926.418 570 922 570H679C674.582 570 671 566.418 671 562V239Z" fill="white" fill-opacity="0.1"/>
<path d="M679 151H922C925.866 151 929 154.134 929 158V211C929 214.866 925.866 218 922 218H679C675.134 218 672 214.866 672 211V158L672.009 157.64C672.196 153.941 675.255 151 679 151Z" fill="white" fill-opacity="0.1" stroke="white" stroke-width="2"/>
<path d="M684 169C684 164.582 687.582 161 692 161H812C816.418 161 820 164.582 820 169V200C820 204.418 816.418 208 812 208H692C687.582 208 684 204.418 684 200V169Z" fill="white" fill-opacity="0.1"/>
<path d="M832 169C832 164.582 835.582 161 840 161H909C913.418 161 917 164.582 917 169V200C917 204.418 913.418 208 909 208H840C835.582 208 832 204.418 832 200V169Z" fill="white" fill-opacity="0.1"/>
<path d="M684 253C684 248.582 687.582 245 692 245H909C913.418 245 917 248.582 917 253V474C917 478.418 913.418 482 909 482H692C687.582 482 684 478.418 684 474V253Z" fill="white" fill-opacity="0.1"/>
<path d="M696 429C696 424.582 699.582 421 704 421H897C901.418 421 905 424.582 905 429V461C905 465.418 901.418 469 897 469H704C699.582 469 696 465.418 696 461V429Z" fill="white" fill-opacity="0.1"/>
<path d="M684 506C684 501.582 687.582 498 692 498H909C913.418 498 917 501.582 917 506V547C917 551.418 913.418 555 909 555H692C687.582 555 684 551.418 684 547V506Z" fill="white" fill-opacity="0.1"/>
<path d="M518 151H650C653.866 151 657 154.134 657 158V562C657 565.866 653.866 569 650 569H518C514.134 569 511 565.866 511 562V158C511 154.134 514.134 151 518 151Z" fill="white" fill-opacity="0.1" stroke="white" stroke-width="2"/>
<path d="M524 169C524 164.582 527.582 161 532 161H636C640.418 161 644 164.582 644 169V211C644 215.418 640.418 219 636 219H532C527.582 219 524 215.418 524 211V169Z" fill="white" fill-opacity="0.1"/>
<path d="M524 239C524 234.582 527.582 231 532 231H636C640.418 231 644 234.582 644 239V376C644 380.418 640.418 384 636 384H532C527.582 384 524 380.418 524 376V239Z" fill="white" fill-opacity="0.1"/>
<path d="M524 406C524 401.582 527.582 398 532 398H636C640.418 398 644 401.582 644 406V546C644 550.418 640.418 554 636 554H532C527.582 554 524 550.418 524 546V406Z" fill="white" fill-opacity="0.1"/>
<path d="M536 419C536 414.582 539.582 411 544 411H624C628.418 411 632 414.582 632 419V452C632 456.418 628.418 460 624 460H544C539.582 460 536 456.418 536 452V419Z" fill="white" fill-opacity="0.1"/>
<path d="M704 258H784C787.866 258 791 261.134 791 265V369C791 372.866 787.866 376 784 376H704C700.134 376 697 372.866 697 369V265C697 261.134 700.134 258 704 258Z" fill="white" fill-opacity="0.1" stroke="white" stroke-width="2"/>
<path d="M809 291C809 286.582 812.582 283 817 283H897C901.418 283 905 286.582 905 291V400C905 404.418 901.418 408 897 408H817C812.582 408 809 404.418 809 400V291Z" fill="white" fill-opacity="0.1"/>
<path d="M840 512H897C900.866 512 904 515.134 904 519V535C904 538.866 900.866 542 897 542H840C836.134 542 833 538.866 833 535V519C833 515.134 836.134 512 840 512Z" fill="white" fill-opacity="0.1" stroke="white" stroke-width="2"/>
<path d="M544 246H624C627.866 246 631 249.134 631 253V312C631 315.866 627.866 319 624 319H544C540.134 319 537 315.866 537 312V253L537.009 252.64C537.196 248.941 540.255 246 544 246Z" fill="white" fill-opacity="0.1" stroke="white" stroke-width="2"/>
<path d="M732.493 282.556V195.5C732.493 191.082 736.075 187.5 740.493 187.5H881.75C886.168 187.5 889.75 191.082 889.75 195.5V522.5C889.75 526.918 886.168 530.5 881.75 530.5H591.75C587.332 530.5 583.75 526.918 583.75 522.5V298.556C583.75 294.138 587.332 290.556 591.75 290.556H724.493C728.911 290.556 732.493 286.974 732.493 282.556Z" stroke="white" stroke-dasharray="4 4"/>
</g>
<defs>
<clipPath id="clip0_109_26">
<rect width="1440" height="720" fill="white"/>
</clipPath>
</defs>
</svg>
