<svg width="1440" height="720" viewBox="0 0 1440 720" fill="none" xmlns="http://www.w3.org/2000/svg">
<g clip-path="url(#clip0_113_4)">
<rect width="1440" height="720" fill="#080808"/>
<path d="M673 205C677.418 205 681 208.582 681 213L681 491C681 495.418 677.418 499 673 499L510 499C505.582 499 502 495.418 502 491L502 213C502 208.582 505.582 205 510 205L673 205Z" fill="white" fill-opacity="0.1"/>
<path d="M998 204C1002.42 204 1006 207.582 1006 212L1006 490C1006 494.418 1002.42 498 998 498L853 498C848.582 498 845 494.418 845 490L845 212C845 207.582 848.582 204 853 204L998 204Z" fill="white" fill-opacity="0.1"/>
<path d="M634 246C638.418 246 642 249.582 642 254L642 580C642 584.418 638.418 588 634 588L465 588C460.582 588 457 584.418 457 580L457 254C457 249.582 460.582 246 465 246L634 246Z" fill="white" fill-opacity="0.1"/>
<path d="M977 245C981.418 245 985 248.582 985 253L985 546C985 550.418 981.418 554 977 554L808 554C803.582 554 800 550.418 800 546L800 253C800 248.582 803.582 245 808 245L977 245Z" fill="white" fill-opacity="0.1"/>
<path d="M1025 577.995L1024.5 577.995L1024.5 580C1024.5 580.501 1024.45 580.991 1024.36 581.464L1024.85 581.561C1024.64 582.61 1024.23 583.586 1023.65 584.444L1023.24 584.167C1022.69 584.985 1021.99 585.69 1021.17 586.237L1021.45 586.651C1020.59 587.226 1019.61 587.639 1018.56 587.847L1018.46 587.357C1017.99 587.451 1017.5 587.5 1017 587.5L1014.98 587.5L1014.98 588L1010.95 588L1010.95 587.5L1006.92 587.5L1006.92 588L1002.89 588L1002.89 587.5L998.854 587.5L998.854 588L994.822 588L994.822 587.5L990.79 587.5L990.79 588L986.758 588L986.758 587.5L982.726 587.5L982.726 588L978.693 588L978.693 587.5L974.661 587.5L974.661 588L970.629 588L970.629 587.5L966.597 587.5L966.597 588L962.564 588L962.564 587.5L958.532 587.5L958.532 588L954.5 588L954.5 587.5L950.468 587.5L950.468 588L946.436 588L946.436 587.5L942.403 587.5L942.403 588L938.371 588L938.371 587.5L934.339 587.5L934.339 588L930.307 588L930.307 587.5L926.274 587.5L926.274 588L922.242 588L922.242 587.5L918.21 587.5L918.21 588L914.178 588L914.178 587.5L910.145 587.5L910.145 588L906.113 588L906.113 587.5L902.081 587.5L902.081 588L898.049 588L898.049 587.5L894.017 587.5L894.017 588L889.983 588L889.983 587.5L885.951 587.5L885.951 588L881.919 588L881.919 587.5L877.887 587.5L877.887 588L873.854 588L873.854 587.5L869.822 587.5L869.822 588L865.79 588L865.79 587.5L861.758 587.5L861.758 588L857.726 588L857.726 587.5L853.693 587.5L853.693 588L849.661 588L849.661 587.5L845.629 587.5L845.629 588L841.597 588L841.597 587.5L837.564 587.5L837.564 588L833.532 588L833.532 587.5L829.5 587.5L829.5 588L825.468 588L825.468 587.5L821.436 587.5L821.436 588L817.403 588L817.403 587.5L813.371 587.5L813.371 588L809.339 588L809.339 587.5L805.307 587.5L805.307 588L801.274 588L801.274 587.5L797.242 587.5L797.242 588L793.21 588L793.21 587.5L789.178 587.5L789.178 588L785.145 588L785.145 587.5L781.113 587.5L781.113 588L777.081 588L777.081 587.5L773.049 587.5L773.049 588L769.017 588L769.017 587.5L767 587.5C766.499 587.5 766.009 587.451 765.536 587.357L765.439 587.847C764.39 587.639 763.414 587.226 762.556 586.651L762.833 586.237C762.015 585.69 761.31 584.985 760.763 584.167L760.349 584.444C759.774 583.586 759.361 582.61 759.153 581.561L759.643 581.464C759.549 580.991 759.5 580.501 759.5 580L759.5 577.996L759 577.996L759 573.986L759.5 573.986L759.5 569.978L759 569.978L759 565.969L759.5 565.969L759.5 561.959L759 561.959L759 557.95L759.5 557.95L759.5 553.941L759 553.941L759 549.932L759.5 549.932L759.5 545.923L759 545.923L759 541.914L759.5 541.914L759.5 537.905L759 537.905L759 533.895L759.5 533.895L759.5 529.887L759 529.887L759 525.878L759.5 525.878L759.5 521.868L759 521.868L759 517.859L759.5 517.859L759.5 513.851L759 513.851L759 509.841L759.5 509.841L759.5 505.832L759 505.832L759 501.823L759.5 501.823L759.5 497.813L759 497.813L759 493.805L759.5 493.805L759.5 489.796L759 489.796L759 485.786L759.5 485.786L759.5 481.777L759 481.777L759 477.769L759.5 477.769L759.5 473.76L759 473.76L759 469.75L759.5 469.75L759.5 465.741L759 465.741L759 461.732L759.5 461.732L759.5 457.723L759 457.723L759 453.714L759.5 453.714L759.5 449.705L759 449.705L759 445.695L759.5 445.695L759.5 441.687L759 441.687L759 437.678L759.5 437.678L759.5 433.668L759 433.668L759 429.659L759.5 429.659L759.5 425.65L759 425.65L759 421.641L759.5 421.641L759.5 417.632L759 417.632L759 413.623L759.5 413.623L759.5 409.614L759 409.614L759 405.604L759.5 405.604L759.5 401.596L759 401.596L759 397.587L759.5 397.587L759.5 393.577L759 393.577L759 389.568L759.5 389.568L759.5 385.56L759 385.56L759 381.55L759.5 381.55L759.5 377.541L759 377.541L759 373.532L759.5 373.532L759.5 369.522L759 369.522L759 365.514L759.5 365.514L759.5 361.505L759 361.505L759 357.495L759.5 357.495L759.5 353.486L759 353.486L759 349.478L759.5 349.478L759.5 345.469L759 345.469L759 341.459L759.5 341.459L759.5 337.45L759 337.45L759 333.441L759.5 333.441L759.5 329.432L759 329.432L759 325.423L759.5 325.423L759.5 321.414L759 321.414L759 317.404L759.5 317.404L759.5 313.395L759 313.395L759 309.387L759.5 309.387L759.5 305.377L759 305.377L759 301.368L759.5 301.368L759.5 297.359L759 297.359L759 293.35L759.5 293.35L759.5 289.341L759 289.341L759 285.332L759.5 285.332L759.5 281.323L759 281.323L759 277.313L759.5 277.313L759.5 273.305L759 273.305L759 269.296L759.5 269.296L759.5 265.286L759 265.286L759 261.277L759.5 261.277L759.5 257.269L759 257.269L759 253.259L759.5 253.259L759.5 249.25L759 249.25L759 245.241L759.5 245.241L759.5 241.231L759 241.231L759 237.223L759.5 237.223L759.5 233.214L759 233.214L759 229.204L759.5 229.204L759.5 225.195L759 225.195L759 221.187L759.5 221.187L759.5 217.178L759 217.178L759 213.168L759.5 213.168L759.5 209.159L759 209.159L759 205.15L759.5 205.15L759.5 201.141L759 201.141L759 197.132L759.5 197.132L759.5 193.123L759 193.123L759 189.113L759.5 189.113L759.5 185.104L759 185.104L759 181.096L759.5 181.096L759.5 177.086L759 177.086L759 173.077L759.5 173.077L759.5 169.068L759 169.068L759 165.06L759.5 165.06L759.5 161.05L759 161.05L759 157.041L759.5 157.041L759.5 153.032L759 153.032L759 149.022L759.5 149.022L759.5 145.014L759 145.014L759 141.005L759.5 141.005L759.5 139C759.5 138.499 759.549 138.009 759.643 137.536L759.153 137.438C759.361 136.389 759.774 135.413 760.349 134.555L760.763 134.833C761.31 134.015 762.015 133.31 762.833 132.763L762.556 132.348C763.414 131.773 764.39 131.36 765.439 131.152L765.536 131.643C765.891 131.572 766.255 131.527 766.626 131.509L767 131.5L769.017 131.5L769.017 131L773.049 131L773.049 131.5L777.081 131.5L777.081 131L781.113 131L781.113 131.5L785.146 131.5L785.146 131L789.178 131L789.178 131.5L793.21 131.5L793.21 131L797.242 131L797.242 131.5L801.274 131.5L801.274 131L805.307 131L805.307 131.5L809.339 131.5L809.339 131L813.371 131L813.371 131.5L817.403 131.5L817.403 131L821.436 131L821.436 131.5L825.468 131.5L825.468 131L829.5 131L829.5 131.5L833.532 131.5L833.532 131L837.564 131L837.564 131.5L841.597 131.5L841.597 131L845.629 131L845.629 131.5L849.661 131.5L849.661 131L853.693 131L853.693 131.5L857.726 131.5L857.726 131L861.758 131L861.758 131.5L865.79 131.5L865.79 131L869.822 131L869.822 131.5L873.854 131.5L873.854 131L877.887 131L877.887 131.5L881.919 131.5L881.919 131L885.951 131L885.951 131.5L889.984 131.5L889.984 131L894.017 131L894.017 131.5L898.049 131.5L898.049 131L902.081 131L902.081 131.5L906.113 131.5L906.113 131L910.146 131L910.146 131.5L914.178 131.5L914.178 131L918.21 131L918.21 131.5L922.242 131.5L922.242 131L926.274 131L926.274 131.5L930.307 131.5L930.307 131L934.339 131L934.339 131.5L938.371 131.5L938.371 131L942.403 131L942.403 131.5L946.436 131.5L946.436 131L950.468 131L950.468 131.5L954.5 131.5L954.5 131L958.532 131L958.532 131.5L962.564 131.5L962.564 131L966.597 131L966.597 131.5L970.629 131.5L970.629 131L974.661 131L974.661 131.5L978.693 131.5L978.693 131L982.726 131L982.726 131.5L986.758 131.5L986.758 131L990.79 131L990.79 131.5L994.822 131.5L994.822 131L998.854 131L998.854 131.5L1002.89 131.5L1002.89 131L1006.92 131L1006.92 131.5L1010.95 131.5L1010.95 131L1014.98 131L1014.98 131.5L1017 131.5C1017.5 131.5 1017.99 131.549 1018.46 131.643L1018.56 131.152C1019.61 131.36 1020.59 131.773 1021.45 132.348L1021.17 132.763C1021.99 133.31 1022.69 134.015 1023.24 134.833L1023.65 134.555C1024.23 135.413 1024.64 136.389 1024.85 137.438L1024.36 137.536C1024.45 138.009 1024.5 138.499 1024.5 139L1024.5 141.004L1025 141.004L1025 145.014L1024.5 145.014L1024.5 149.022L1025 149.022L1025 153.031L1024.5 153.031L1024.5 157.041L1025 157.041L1025 161.05L1024.5 161.05L1024.5 165.059L1025 165.059L1025 169.068L1024.5 169.068L1024.5 173.077L1025 173.077L1025 177.086L1024.5 177.086L1024.5 181.095L1025 181.095L1025 185.104L1024.5 185.104L1024.5 189.113L1025 189.113L1025 193.122L1024.5 193.122L1024.5 197.132L1025 197.132L1025 201.141L1024.5 201.141L1024.5 205.149L1025 205.149L1025 209.159L1024.5 209.159L1024.5 213.168L1025 213.168L1025 217.177L1024.5 217.177L1024.5 221.187L1025 221.187L1025 225.195L1024.5 225.195L1024.5 229.204L1025 229.204L1025 233.214L1024.5 233.214L1024.5 237.223L1025 237.223L1025 241.231L1024.5 241.231L1024.5 245.24L1025 245.24L1025 249.25L1024.5 249.25L1024.5 253.259L1025 253.259L1025 257.268L1024.5 257.268L1024.5 261.277L1025 261.277L1025 265.286L1024.5 265.286L1024.5 269.295L1025 269.295L1025 273.305L1024.5 273.305L1024.5 277.313L1025 277.313L1025 281.322L1024.5 281.322L1024.5 285.332L1025 285.332L1025 289.341L1024.5 289.341L1024.5 293.35L1025 293.35L1025 297.359L1024.5 297.359L1024.5 301.368L1025 301.368L1025 305.377L1024.5 305.377L1024.5 309.386L1025 309.386L1025 313.396L1024.5 313.396L1024.5 317.404L1025 317.404L1025 321.413L1024.5 321.413L1024.5 325.423L1025 325.423L1025 329.432L1024.5 329.432L1024.5 333.44L1025 333.44L1025 337.45L1024.5 337.45L1024.5 341.459L1025 341.459L1025 345.468L1024.5 345.468L1024.5 349.478L1025 349.478L1025 353.486L1024.5 353.486L1024.5 357.495L1025 357.495L1025 361.505L1024.5 361.505L1024.5 365.514L1025 365.514L1025 369.522L1024.5 369.522L1024.5 373.531L1025 373.531L1025 377.541L1024.5 377.541L1024.5 381.55L1025 381.55L1025 385.559L1024.5 385.559L1024.5 389.568L1025 389.568L1025 393.577L1024.5 393.577L1024.5 397.586L1025 397.586L1025 401.596L1024.5 401.596L1024.5 405.604L1025 405.604L1025 409.613L1024.5 409.613L1024.5 413.623L1025 413.623L1025 417.632L1024.5 417.632L1024.5 421.641L1025 421.641L1025 425.65L1024.5 425.65L1024.5 429.659L1025 429.659L1025 433.668L1024.5 433.668L1024.5 437.677L1025 437.677L1025 441.687L1024.5 441.687L1024.5 445.695L1025 445.695L1025 449.704L1024.5 449.704L1024.5 453.714L1025 453.714L1025 457.723L1024.5 457.723L1024.5 461.731L1025 461.731L1025 465.741L1024.5 465.741L1024.5 469.75L1025 469.75L1025 473.759L1024.5 473.759L1024.5 477.769L1025 477.769L1025 481.777L1024.5 481.777L1024.5 485.786L1025 485.786L1025 489.796L1024.5 489.796L1024.5 493.805L1025 493.805L1025 497.813L1024.5 497.813L1024.5 501.822L1025 501.822L1025 505.832L1024.5 505.832L1024.5 509.841L1025 509.841L1025 513.85L1024.5 513.85L1024.5 517.859L1025 517.859L1025 521.868L1024.5 521.868L1024.5 525.877L1025 525.877L1025 529.887L1024.5 529.887L1024.5 533.896L1025 533.896L1025 537.904L1024.5 537.904L1024.5 541.914L1025 541.914L1025 545.923L1024.5 545.923L1024.5 549.932L1025 549.932L1025 553.94L1024.5 553.94L1024.5 557.95L1025 557.95L1025 561.959L1024.5 561.959L1024.5 565.968L1025 565.968L1025 569.978L1024.5 569.978L1024.5 573.986L1025 573.986L1025 577.995Z" stroke="white" stroke-dasharray="4 4"/>
<path d="M617 131C621.418 131 625 134.582 625 139L625 504C625 508.418 621.418 512 617 512L422 512C417.582 512 414 508.418 414 504L414 139C414 134.582 417.582 131 422 131L617 131Z" fill="white" fill-opacity="0.1"/>
<path d="M960 160C964.418 160 968 163.582 968 168L968 503C968 507.418 964.418 511 960 511L788 511C783.582 511 780 507.418 780 503L780 168C780 163.582 783.582 160 788 160L960 160Z" fill="white" fill-opacity="0.1"/>
<path d="M561 314.333C559.527 314.333 558.333 315.527 558.333 317C558.333 318.473 559.527 319.667 561 319.667C562.473 319.667 563.667 318.473 563.667 317C563.667 315.527 562.473 314.333 561 314.333ZM660 314.333C658.527 314.333 657.333 315.527 657.333 317C657.333 318.473 658.527 319.667 660 319.667C661.473 319.667 662.667 318.473 662.667 317C662.667 315.527 661.473 314.333 660 314.333ZM660 317V316.5H657.937V317V317.5H660V317ZM653.812 317V316.5H649.688V317V317.5H653.812V317ZM645.562 317V316.5L641.438 316.5V317V317.5L645.562 317.5V317ZM637.312 317V316.5H633.187V317V317.5H637.312V317ZM629.062 317V316.5H624.938V317V317.5H629.062V317ZM620.812 317V316.5H616.688V317V317.5H620.812V317ZM612.562 317V316.5H608.438V317V317.5H612.562V317ZM604.312 317V316.5H600.187V317V317.5H604.312V317ZM596.062 317V316.5H591.938V317V317.5H596.062V317ZM587.812 317V316.5H583.688V317V317.5H587.812V317ZM579.562 317V316.5H575.437V317V317.5H579.562V317ZM571.312 317V316.5H567.188V317V317.5H571.312V317ZM563.062 317V316.5H561V317V317.5H563.062V317Z" fill="white"/>
<path d="M438 373.333C436.527 373.333 435.333 374.527 435.333 376C435.333 377.473 436.527 378.667 438 378.667C439.473 378.667 440.667 377.473 440.667 376C440.667 374.527 439.473 373.333 438 373.333ZM561 373.333C559.527 373.333 558.333 374.527 558.333 376C558.333 377.473 559.527 378.667 561 378.667C562.473 378.667 563.667 377.473 563.667 376C563.667 374.527 562.473 373.333 561 373.333ZM561 376V375.5H558.95V376V376.5H561V376ZM554.85 376V375.5H550.75V376V376.5H554.85V376ZM546.65 376V375.5L542.55 375.5V376V376.5L546.65 376.5V376ZM538.45 376V375.5H534.35V376V376.5H538.45V376ZM530.25 376V375.5H526.15V376V376.5H530.25V376ZM522.05 376V375.5H517.95V376V376.5H522.05V376ZM513.85 376V375.5H509.75V376V376.5H513.85V376ZM505.65 376V375.5H501.55V376V376.5H505.65V376ZM497.45 376V375.5H493.35V376V376.5H497.45V376ZM489.25 376V375.5H485.15V376V376.5H489.25V376ZM481.05 376V375.5H476.95V376V376.5H481.05V376ZM472.85 376V375.5H468.75V376V376.5H472.85V376ZM464.65 376V375.5H460.55V376V376.5H464.65V376ZM456.45 376V375.5L452.35 375.5V376V376.5L456.45 376.5V376ZM448.25 376V375.5H444.15V376V376.5H448.25V376ZM440.05 376V375.5H438V376V376.5H440.05V376Z" fill="white"/>
<path d="M563.667 435C563.667 433.527 562.473 432.333 561 432.333C559.527 432.333 558.333 433.527 558.333 435C558.333 436.473 559.527 437.667 561 437.667C562.473 437.667 563.667 436.473 563.667 435ZM563.667 554C563.667 552.527 562.473 551.333 561 551.333C559.527 551.333 558.333 552.527 558.333 554C558.333 555.473 559.527 556.667 561 556.667C562.473 556.667 563.667 555.473 563.667 554ZM561 554L561.5 554L561.5 552.017L561 552.017L560.5 552.017L560.5 554L561 554ZM561 548.05L561.5 548.05L561.5 544.083L561 544.083L560.5 544.083L560.5 548.05L561 548.05ZM561 540.117L561.5 540.117L561.5 536.15L561 536.15L560.5 536.15L560.5 540.117L561 540.117ZM561 532.183L561.5 532.183L561.5 528.217L561 528.217L560.5 528.217L560.5 532.183L561 532.183ZM561 524.25L561.5 524.25L561.5 520.283L561 520.283L560.5 520.283L560.5 524.25L561 524.25ZM561 516.317L561.5 516.317L561.5 512.35L561 512.35L560.5 512.35L560.5 516.317L561 516.317ZM561 508.383L561.5 508.383L561.5 504.417L561 504.417L560.5 504.417L560.5 508.383L561 508.383ZM561 500.45L561.5 500.45L561.5 496.483L561 496.483L560.5 496.483L560.5 500.45L561 500.45ZM561 492.517L561.5 492.517L561.5 488.55L561 488.55L560.5 488.55L560.5 492.517L561 492.517ZM561 484.583L561.5 484.583L561.5 480.617L561 480.617L560.5 480.617L560.5 484.583L561 484.583ZM561 476.65L561.5 476.65L561.5 472.683L561 472.683L560.5 472.683L560.5 476.65L561 476.65ZM561 468.717L561.5 468.717L561.5 464.75L561 464.75L560.5 464.75L560.5 468.717L561 468.717ZM561 460.783L561.5 460.783L561.5 456.817L561 456.817L560.5 456.817L560.5 460.783L561 460.783ZM561 452.85L561.5 452.85L561.5 448.883L561 448.883L560.5 448.883L560.5 452.85L561 452.85ZM561 444.917L561.5 444.917L561.5 440.95L561 440.95L560.5 440.95L560.5 444.917L561 444.917ZM561 436.983L561.5 436.983L561.5 435L561 435L560.5 435L560.5 436.983L561 436.983Z" fill="white"/>
<path d="M907.667 376C907.667 374.527 906.473 373.333 905 373.333C903.527 373.333 902.333 374.527 902.333 376C902.333 377.473 903.527 378.667 905 378.667C906.473 378.667 907.667 377.473 907.667 376ZM907.667 588C907.667 586.527 906.473 585.333 905 585.333C903.527 585.333 902.333 586.527 902.333 588C902.333 589.473 903.527 590.667 905 590.667C906.473 590.667 907.667 589.473 907.667 588ZM905 588L905.5 588L905.5 586.037L905 586.037L904.5 586.037L904.5 588L905 588ZM905 582.111L905.5 582.111L905.5 578.185L905 578.185L904.5 578.185L904.5 582.111L905 582.111ZM905 574.259L905.5 574.259L905.5 570.333L905 570.333L904.5 570.333L904.5 574.259L905 574.259ZM905 566.407L905.5 566.407L905.5 562.481L905 562.481L904.5 562.481L904.5 566.407L905 566.407ZM905 558.556L905.5 558.556L905.5 554.63L905 554.63L904.5 554.63L904.5 558.556L905 558.556ZM905 550.704L905.5 550.704L905.5 546.778L905 546.778L904.5 546.778L904.5 550.704L905 550.704ZM905 542.852L905.5 542.852L905.5 538.926L905 538.926L904.5 538.926L904.5 542.852L905 542.852ZM905 535L905.5 535L905.5 531.074L905 531.074L904.5 531.074L904.5 535L905 535ZM905 527.148L905.5 527.148L905.5 523.222L905 523.222L904.5 523.222L904.5 527.148L905 527.148ZM905 519.296L905.5 519.296L905.5 515.37L905 515.37L904.5 515.37L904.5 519.296L905 519.296ZM905 511.444L905.5 511.444L905.5 507.519L905 507.519L904.5 507.519L904.5 511.444L905 511.444ZM905 503.593L905.5 503.593L905.5 499.667L905 499.667L904.5 499.667L904.5 503.593L905 503.593ZM905 495.741L905.5 495.741L905.5 491.815L905 491.815L904.5 491.815L904.5 495.741L905 495.741ZM905 487.889L905.5 487.889L905.5 483.963L905 483.963L904.5 483.963L904.5 487.889L905 487.889ZM905 480.037L905.5 480.037L905.5 476.111L905 476.111L904.5 476.111L904.5 480.037L905 480.037ZM905 472.185L905.5 472.185L905.5 468.259L905 468.259L904.5 468.259L904.5 472.185L905 472.185ZM905 464.333L905.5 464.333L905.5 460.407L905 460.407L904.5 460.407L904.5 464.333L905 464.333ZM905 456.481L905.5 456.481L905.5 452.556L905 452.556L904.5 452.556L904.5 456.481L905 456.481ZM905 448.63L905.5 448.63L905.5 444.704L905 444.704L904.5 444.704L904.5 448.63L905 448.63ZM905 440.778L905.5 440.778L905.5 436.852L905 436.852L904.5 436.852L904.5 440.778L905 440.778ZM905 432.926L905.5 432.926L905.5 429L905 429L904.5 429L904.5 432.926L905 432.926ZM905 425.074L905.5 425.074L905.5 421.148L905 421.148L904.5 421.148L904.5 425.074L905 425.074ZM905 417.222L905.5 417.222L905.5 413.296L905 413.296L904.5 413.296L904.5 417.222L905 417.222ZM905 409.37L905.5 409.37L905.5 405.445L905 405.445L904.5 405.445L904.5 409.37L905 409.37ZM905 401.519L905.5 401.519L905.5 397.593L905 397.593L904.5 397.593L904.5 401.519L905 401.519ZM905 393.667L905.5 393.667L905.5 389.741L905 389.741L904.5 389.741L904.5 393.667L905 393.667ZM905 385.815L905.5 385.815L905.5 381.889L905 381.889L904.5 381.889L904.5 385.815L905 385.815ZM905 377.963L905.5 377.963L905.5 376L905 376L904.5 376L904.5 377.963L905 377.963Z" fill="white"/>
<path d="M609 277L609 476C609 479.866 605.866 483 602 483L521 483C517.134 483 514 479.866 514 476L514 277C514 273.134 517.134 270 521 270L602 270C605.866 270 609 273.134 609 277Z" fill="white" fill-opacity="0.1" stroke="white" stroke-width="2"/>
<path d="M952 276L952 475C952 478.866 948.866 482 945 482L864 482C860.134 482 857 478.866 857 475L857 276C857 272.134 860.134 269 864 269L945 269C948.866 269 952 272.134 952 276Z" fill="white" fill-opacity="0.1" stroke="white" stroke-width="2"/>
<path d="M579 308L579 327C579 330.866 575.866 334 572 334L551 334C547.134 334 544 330.866 544 327L544 308C544 304.134 547.134 301 551 301L572 301C575.866 301 579 304.134 579 308Z" fill="white" fill-opacity="0.5" stroke="white" stroke-width="2"/>
<path d="M579 425L579 444C579 447.866 575.866 451 572 451L551 451C547.134 451 544 447.866 544 444L544 425C544 421.134 547.134 418 551 418L572 418C575.866 418 579 421.134 579 425Z" fill="white" fill-opacity="0.5" stroke="white" stroke-width="2"/>
<path d="M579 367L579 386C579 389.866 575.866 393 572 393L551 393C547.134 393 544 389.866 544 386L544 367C544 363.134 547.134 360 551 360L572 360C575.866 360 579 363.134 579 367Z" fill="white" fill-opacity="0.5" stroke="white" stroke-width="2"/>
<path d="M922 366L922 385C922 388.866 918.866 392 915 392L894 392C890.134 392 887 388.866 887 385L887 366C887 362.134 890.134 359 894 359L915 359C918.866 359 922 362.134 922 366Z" fill="white" fill-opacity="0.5" stroke="white" stroke-width="2"/>
</g>
<defs>
<clipPath id="clip0_113_4">
<rect width="1440" height="720" fill="white"/>
</clipPath>
</defs>
</svg>
