<svg width="1440" height="720" viewBox="0 0 1440 720" fill="none" xmlns="http://www.w3.org/2000/svg">
<g clip-path="url(#clip0_116_81)">
<rect width="1440" height="720" fill="#080808"/>
<path d="M174 338C174 333.582 177.582 330 182 330H278C282.418 330 286 333.582 286 338V382C286 386.418 282.418 390 278 390H182C177.582 390 174 386.418 174 382V338Z" fill="white" fill-opacity="0.3"/>
<path d="M686 338C686 333.582 689.582 330 694 330H790C794.418 330 798 333.582 798 338V382C798 386.418 794.418 390 790 390H694C689.582 390 686 386.418 686 382V338Z" fill="white" fill-opacity="0.3"/>
<path d="M330 214C330 209.582 333.582 206 338 206H434C438.418 206 442 209.582 442 214V258C442 262.418 438.418 266 434 266H338C333.582 266 330 262.418 330 258V214Z" fill="white" fill-opacity="0.3"/>
<path d="M842 174C842 169.582 845.582 166 850 166H946C950.418 166 954 169.582 954 174V218C954 222.418 950.418 226 946 226H850C845.582 226 842 222.418 842 218V174Z" fill="white" fill-opacity="0.3"/>
<path d="M1154 92C1154 87.5817 1157.58 84 1162 84H1258C1262.42 84 1266 87.5817 1266 92V136C1266 140.418 1262.42 144 1258 144H1162C1157.58 144 1154 140.418 1154 136V92Z" fill="white" fill-opacity="0.3"/>
<path d="M330 378C330 373.582 333.582 370 338 370H434C438.418 370 442 373.582 442 378V422C442 426.418 438.418 430 434 430H338C333.582 430 330 426.418 330 422V378Z" fill="white" fill-opacity="0.3"/>
<path d="M842 438C842 433.582 845.582 430 850 430H946C950.418 430 954 433.582 954 438V482C954 486.418 950.418 490 946 490H850C845.582 490 842 486.418 842 482V438Z" fill="white" fill-opacity="0.3"/>
<path d="M998 378C998 373.582 1001.58 370 1006 370H1102C1106.42 370 1110 373.582 1110 378V422C1110 426.418 1106.42 430 1102 430H1006C1001.58 430 998 426.418 998 422V378Z" fill="white" fill-opacity="0.3"/>
<path d="M1154 256C1154 251.582 1157.58 248 1162 248H1258C1262.42 248 1266 251.582 1266 256V300C1266 304.418 1262.42 308 1258 308H1162C1157.58 308 1154 304.418 1154 300V256Z" fill="white" fill-opacity="0.3"/>
<path d="M1154 502C1154 497.582 1157.58 494 1162 494H1258C1262.42 494 1266 497.582 1266 502V546C1266 550.418 1262.42 554 1258 554H1162C1157.58 554 1154 550.418 1154 546V502Z" fill="white" fill-opacity="0.3"/>
<path d="M330 296C330 291.582 333.582 288 338 288H434C438.418 288 442 291.582 442 296V340C442 344.418 438.418 348 434 348H338C333.582 348 330 344.418 330 340V296Z" fill="white" fill-opacity="0.3"/>
<path d="M998 135C998 130.582 1001.58 127 1006 127H1102C1106.42 127 1110 130.582 1110 135V179C1110 183.418 1106.42 187 1102 187H1006C1001.58 187 998 183.418 998 179V135Z" fill="white" fill-opacity="0.3"/>
<path d="M1154 174C1154 169.582 1157.58 166 1162 166H1258C1262.42 166 1266 169.582 1266 174V218C1266 222.418 1262.42 226 1258 226H1162C1157.58 226 1154 222.418 1154 218V174Z" fill="white" fill-opacity="0.3"/>
<path d="M1154 420C1154 415.582 1157.58 412 1162 412H1258C1262.42 412 1266 415.582 1266 420V464C1266 468.418 1262.42 472 1258 472H1162C1157.58 472 1154 468.418 1154 464V420Z" fill="white" fill-opacity="0.3"/>
<path d="M330 460C330 455.582 333.582 452 338 452H434C438.418 452 442 455.582 442 460V504C442 508.418 438.418 512 434 512H338C333.582 512 330 508.418 330 504V460Z" fill="white" fill-opacity="0.3"/>
<path d="M842 584C842 579.582 845.582 576 850 576H946C950.418 576 954 579.582 954 584V628C954 632.418 950.418 636 946 636H850C845.582 636 842 632.418 842 628V584Z" fill="white" fill-opacity="0.3"/>
<path d="M998 502C998 497.582 1001.58 494 1006 494H1102C1106.42 494 1110 497.582 1110 502V546C1110 550.418 1106.42 554 1102 554H1006C1001.58 554 998 550.418 998 546V502Z" fill="white" fill-opacity="0.3"/>
<path d="M1154 338C1154 333.582 1157.58 330 1162 330H1258C1262.42 330 1266 333.582 1266 338V382C1266 386.418 1262.42 390 1258 390H1162C1157.58 390 1154 386.418 1154 382V338Z" fill="white" fill-opacity="0.3"/>
<path d="M1154 584C1154 579.582 1157.58 576 1162 576H1258C1262.42 576 1266 579.582 1266 584V628C1266 632.418 1262.42 636 1258 636H1162C1157.58 636 1154 632.418 1154 628V584Z" fill="white" fill-opacity="0.3"/>
<path d="M286 359.5H299.25C303.668 359.5 307.25 355.918 307.25 351.5V243.5C307.25 239.082 310.832 235.5 315.25 235.5H330" stroke="white" stroke-width="2" stroke-dasharray="4 4"/>
<path d="M798 359.5H811.25C815.668 359.5 819.25 355.918 819.25 351.5V205.5C819.25 201.082 822.832 197.5 827.25 197.5H842" stroke="white" stroke-width="2" stroke-dasharray="4 4"/>
<path d="M286 360H299.25C303.668 360 307.25 363.582 307.25 368V476C307.25 480.418 310.832 484 315.25 484H330" stroke="white" stroke-width="2" stroke-dasharray="4 4"/>
<path d="M798 360H811.25C815.668 360 819.25 363.582 819.25 368V598.5C819.25 602.918 822.832 606.5 827.25 606.5H842" stroke="white" stroke-width="2" stroke-dasharray="4 4"/>
<path d="M954 460H967.25C971.668 460 975.25 463.582 975.25 468V515C975.25 519.418 978.832 523 983.25 523H998" stroke="white" stroke-width="2" stroke-dasharray="4 4"/>
<path d="M954 460H967.25C971.668 460 975.25 456.418 975.25 452V405C975.25 400.582 978.832 397 983.25 397H998" stroke="white" stroke-width="2" stroke-dasharray="4 4"/>
<path d="M1110 399H1123.25C1127.67 399 1131.25 402.582 1131.25 407V434C1131.25 438.418 1134.83 442 1139.25 442H1154" stroke="white" stroke-width="2" stroke-dasharray="4 4"/>
<path d="M954 198H967.25C971.668 198 975.25 201.582 975.25 206V269C975.25 273.418 978.832 277 983.25 277H1154" stroke="white" stroke-width="2" stroke-dasharray="4 4"/>
<path d="M1110 157H1123.25C1127.67 157 1131.25 160.582 1131.25 165V192C1131.25 196.418 1134.83 200 1139.25 200H1154" stroke="white" stroke-width="2" stroke-dasharray="4 4"/>
<path d="M1110 399H1123.25C1127.67 399 1131.25 395.418 1131.25 391V364C1131.25 359.582 1134.83 356 1139.25 356H1154" stroke="white" stroke-width="2" stroke-dasharray="4 4"/>
<path d="M954 198H967.25C971.668 198 975.25 194.418 975.25 190V163C975.25 158.582 978.832 155 983.25 155H998" stroke="white" stroke-width="2" stroke-dasharray="4 4"/>
<path d="M1110 157H1123.25C1127.67 157 1131.25 153.418 1131.25 149V122C1131.25 117.582 1134.83 114 1139.25 114H1154" stroke="white" stroke-width="2" stroke-dasharray="4 4"/>
<path d="M307.25 326V326C307.25 321.582 310.832 318 315.25 318H318.625H330" stroke="white" stroke-width="2" stroke-dasharray="4 4"/>
<path d="M307.25 393.5V393.5C307.25 397.918 310.832 401.5 315.25 401.5H318.625H330" stroke="white" stroke-width="2" stroke-dasharray="4 4"/>
<path d="M819.25 452V452C819.25 456.418 822.832 460 827.25 460H830.625H842" stroke="white" stroke-width="2" stroke-dasharray="4 4"/>
<path d="M954 607H968.821H1154" stroke="white" stroke-width="2" stroke-dasharray="4 4"/>
<path d="M1110 523H1124.82H1154" stroke="white" stroke-width="2" stroke-dasharray="4 4"/>
</g>
<defs>
<clipPath id="clip0_116_81">
<rect width="1440" height="720" fill="white"/>
</clipPath>
</defs>
</svg>
