<svg width="1440" height="720" viewBox="0 0 1440 720" fill="none" xmlns="http://www.w3.org/2000/svg">
<g clip-path="url(#clip0_157_4)">
<rect width="1440" height="720" fill="#080808"/>
<path d="M83 74C83 69.5817 86.5817 66 91 66H335C339.418 66 343 69.5817 343 74V97C343 101.418 339.418 105 335 105H91C86.5817 105 83 101.418 83 97V74Z" fill="#E66A32" fill-opacity="0.25"/>
<text fill="white" xml:space="preserve" style="white-space: pre" font-family="Red Hat Mono" font-size="16" font-weight="600" letter-spacing="0em"><tspan x="145.844" y="91.204">User (Browser)</tspan></text>
<text fill="#E66A32" xml:space="preserve" style="white-space: pre" font-family="Red Hat Mono" font-size="16" font-weight="600" letter-spacing="0em"><tspan x="292.25" y="144.204">User Click Login</tspan></text>
<text fill="#E66A32" xml:space="preserve" style="white-space: pre" font-family="Red Hat Mono" font-size="16" font-weight="600" letter-spacing="0em"><tspan x="553.109" y="194.204">HTTP 302 Redirection to Auth Server</tspan></text>
<text fill="#E66A32" xml:space="preserve" style="white-space: pre" font-family="Red Hat Mono" font-size="16" font-weight="600" letter-spacing="0em"><tspan x="643.25" y="245.204">Paint Login Page</tspan></text>
<text fill="#E66A32" xml:space="preserve" style="white-space: pre" font-family="Red Hat Mono" font-size="16" font-weight="600" letter-spacing="0em"><tspan x="543.016" y="345.204">Redirect Back with Authorization Code</tspan></text>
<text fill="white" xml:space="preserve" style="white-space: pre" font-family="Red Hat Mono" font-size="16" font-weight="600" letter-spacing="0em"><tspan x="547.312" y="395.204">Fetch Token using Authorization Code</tspan></text>
<text fill="white" xml:space="preserve" style="white-space: pre" font-family="Red Hat Mono" font-size="16" font-weight="600" letter-spacing="0em"><tspan x="648.047" y="445.204">Return Token(s)</tspan></text>
<text fill="white" xml:space="preserve" style="white-space: pre" font-family="Red Hat Mono" font-size="16" font-weight="600" letter-spacing="0em"><tspan x="576.094" y="496.204">Request Data with Access Token</tspan></text>
<text fill="white" xml:space="preserve" style="white-space: pre" font-family="Red Hat Mono" font-size="16" font-weight="600" letter-spacing="0em"><tspan x="1033.12" y="545.204">Response</tspan></text>
<text fill="#E66A32" xml:space="preserve" style="white-space: pre" font-family="Red Hat Mono" font-size="16" font-weight="600" letter-spacing="0em"><tspan x="293.25" y="295.204">Successful Login</tspan></text>
<path d="M785 74C785 69.5817 788.582 66 793 66H1037C1041.42 66 1045 69.5817 1045 74V97C1045 101.418 1041.42 105 1037 105H793C788.582 105 785 101.418 785 97V74Z" fill="white" fill-opacity="0.2"/>
<text fill="white" xml:space="preserve" style="white-space: pre" font-family="Red Hat Mono" font-size="16" font-weight="600" letter-spacing="0em"><tspan x="862.234" y="91.204">Auth Server</tspan></text>
<path d="M396 74C396 69.5817 399.582 66 404 66H648C652.418 66 656 69.5817 656 74V97C656 101.418 652.418 105 648 105H404C399.582 105 396 101.418 396 97V74Z" fill="white" fill-opacity="0.2"/>
<text fill="white" xml:space="preserve" style="white-space: pre" font-family="Red Hat Mono" font-size="16" font-weight="600" letter-spacing="0em"><tspan x="458.844" y="91.204">Client Web App</tspan></text>
<path d="M1098 74C1098 69.5817 1101.58 66 1106 66H1350C1354.42 66 1358 69.5817 1358 74V97C1358 101.418 1354.42 105 1350 105H1106C1101.58 105 1098 101.418 1098 97V74Z" fill="white" fill-opacity="0.2"/>
<text fill="white" xml:space="preserve" style="white-space: pre" font-family="Red Hat Mono" font-size="16" font-weight="600" letter-spacing="0em"><tspan x="1184.83" y="91.204">Resourses</tspan></text>
<path d="M213 625V105" stroke="white" stroke-dasharray="4 4"/>
<path d="M915 625V105" stroke="white" stroke-dasharray="4 4"/>
<path d="M526 625V105" stroke="white" stroke-dasharray="4 4"/>
<path d="M1228 625V105" stroke="white" stroke-dasharray="4 4"/>
<path d="M213 153.667C210.054 153.667 207.667 156.054 207.667 159C207.667 161.946 210.054 164.333 213 164.333C215.946 164.333 218.333 161.946 218.333 159C218.333 156.054 215.946 153.667 213 153.667ZM526.707 159.707C527.098 159.317 527.098 158.683 526.707 158.293L520.343 151.929C519.953 151.538 519.319 151.538 518.929 151.929C518.538 152.319 518.538 152.953 518.929 153.343L524.586 159L518.929 164.657C518.538 165.047 518.538 165.681 518.929 166.071C519.319 166.462 519.953 166.462 520.343 166.071L526.707 159.707ZM213 159V160L526 160V159V158L213 158V159Z" fill="#E66A32"/>
<path d="M526 203.667C523.054 203.667 520.667 206.054 520.667 209C520.667 211.946 523.054 214.333 526 214.333C528.946 214.333 531.333 211.946 531.333 209C531.333 206.054 528.946 203.667 526 203.667ZM915.707 209.707C916.098 209.317 916.098 208.683 915.707 208.293L909.343 201.929C908.953 201.538 908.319 201.538 907.929 201.929C907.538 202.319 907.538 202.953 907.929 203.343L913.586 209L907.929 214.657C907.538 215.047 907.538 215.681 907.929 216.071C908.319 216.462 908.953 216.462 909.343 216.071L915.707 209.707ZM526 209V210L915 210V209V208L526 208V209Z" fill="#E66A32"/>
<path d="M526 403.667C523.054 403.667 520.667 406.054 520.667 409C520.667 411.946 523.054 414.333 526 414.333C528.946 414.333 531.333 411.946 531.333 409C531.333 406.054 528.946 403.667 526 403.667ZM915.707 409.707C916.098 409.317 916.098 408.683 915.707 408.293L909.343 401.929C908.953 401.538 908.319 401.538 907.929 401.929C907.538 402.319 907.538 402.953 907.929 403.343L913.586 409L907.929 414.657C907.538 415.047 907.538 415.681 907.929 416.071C908.319 416.462 908.953 416.462 909.343 416.071L915.707 409.707ZM526 409V410H915V409V408H526V409Z" fill="white"/>
<path d="M526 503.667C523.055 503.667 520.667 506.054 520.667 509C520.667 511.946 523.055 514.333 526 514.333C528.946 514.333 531.333 511.946 531.333 509C531.333 506.054 528.946 503.667 526 503.667ZM1228.71 509.707C1229.1 509.317 1229.1 508.683 1228.71 508.293L1222.34 501.929C1221.95 501.538 1221.32 501.538 1220.93 501.929C1220.54 502.319 1220.54 502.953 1220.93 503.343L1226.59 509L1220.93 514.657C1220.54 515.047 1220.54 515.681 1220.93 516.071C1221.32 516.462 1221.95 516.462 1222.34 516.071L1228.71 509.707ZM526 509V510L1228 510V509V508L526 508V509Z" fill="white"/>
<path d="M525.293 558.293C524.902 558.683 524.902 559.317 525.293 559.707L531.657 566.071C532.047 566.462 532.681 566.462 533.071 566.071C533.462 565.681 533.462 565.047 533.071 564.657L527.414 559L533.071 553.343C533.462 552.953 533.462 552.319 533.071 551.929C532.681 551.538 532.047 551.538 531.657 551.929L525.293 558.293ZM1228 553.667C1225.05 553.667 1222.67 556.054 1222.67 559C1222.67 561.946 1225.05 564.333 1228 564.333C1230.95 564.333 1233.33 561.946 1233.33 559C1233.33 556.054 1230.95 553.667 1228 553.667ZM526 559V560H1228V559V558H526V559Z" fill="white"/>
<path d="M525.293 458.293C524.902 458.683 524.902 459.317 525.293 459.707L531.657 466.071C532.047 466.462 532.681 466.462 533.071 466.071C533.462 465.681 533.462 465.047 533.071 464.657L527.414 459L533.071 453.343C533.462 452.953 533.462 452.319 533.071 451.929C532.681 451.538 532.047 451.538 531.657 451.929L525.293 458.293ZM915 453.667C912.054 453.667 909.667 456.054 909.667 459C909.667 461.946 912.054 464.333 915 464.333C917.946 464.333 920.333 461.946 920.333 459C920.333 456.054 917.946 453.667 915 453.667ZM526 459V460H915V459V458H526V459Z" fill="white"/>
<path d="M525.293 358.293C524.902 358.683 524.902 359.317 525.293 359.707L531.657 366.071C532.047 366.462 532.681 366.462 533.071 366.071C533.462 365.681 533.462 365.047 533.071 364.657L527.414 359L533.071 353.343C533.462 352.953 533.462 352.319 533.071 351.929C532.681 351.538 532.047 351.538 531.657 351.929L525.293 358.293ZM915 353.667C912.054 353.667 909.667 356.054 909.667 359C909.667 361.946 912.054 364.333 915 364.333C917.946 364.333 920.333 361.946 920.333 359C920.333 356.054 917.946 353.667 915 353.667ZM526 359V360H915V359V358H526V359Z" fill="#E66A32"/>
<path d="M212.293 258.293C211.902 258.683 211.902 259.317 212.293 259.707L218.657 266.071C219.047 266.462 219.681 266.462 220.071 266.071C220.462 265.681 220.462 265.047 220.071 264.657L214.414 259L220.071 253.343C220.462 252.953 220.462 252.319 220.071 251.929C219.681 251.538 219.047 251.538 218.657 251.929L212.293 258.293ZM915 253.667C912.054 253.667 909.667 256.054 909.667 259C909.667 261.946 912.054 264.333 915 264.333C917.946 264.333 920.333 261.946 920.333 259C920.333 256.054 917.946 253.667 915 253.667ZM213 259V260L915 260V259V258L213 258V259Z" fill="#E66A32"/>
<path d="M213 303.667C210.055 303.667 207.667 306.054 207.667 309C207.667 311.946 210.055 314.333 213 314.333C215.946 314.333 218.333 311.946 218.333 309C218.333 306.054 215.946 303.667 213 303.667ZM915.707 309.707C916.098 309.317 916.098 308.683 915.707 308.293L909.343 301.929C908.953 301.538 908.319 301.538 907.929 301.929C907.538 302.319 907.538 302.953 907.929 303.343L913.586 309L907.929 314.657C907.538 315.047 907.538 315.681 907.929 316.071C908.319 316.462 908.953 316.462 909.343 316.071L915.707 309.707ZM213 309V310L915 310V309V308L213 308V309Z" fill="#E66A32"/>
<path d="M421 647C421 642.582 424.582 639 429 639H527C531.418 639 535 642.582 535 647V670C535 674.418 531.418 678 527 678H429C424.582 678 421 674.418 421 670V647Z" fill="#E66A32"/>
<path d="M816 647C816 642.582 819.582 639 824 639H922C926.418 639 930 642.582 930 647V670C930 674.418 926.418 678 922 678H824C819.582 678 816 674.418 816 670V647Z" fill="white"/>
<text fill="white" xml:space="preserve" style="white-space: pre" font-family="Red Hat Mono" font-size="16" font-weight="600" letter-spacing="0em"><tspan x="556.422" y="664.204">Browser</tspan></text>
<text fill="white" xml:space="preserve" style="white-space: pre" font-family="Red Hat Mono" font-size="16" font-weight="600" letter-spacing="0em"><tspan x="951.422" y="664.204">Backend</tspan></text>
</g>
<defs>
<clipPath id="clip0_157_4">
<rect width="1440" height="720" fill="white"/>
</clipPath>
</defs>
</svg>
