<svg width="1440" height="720" viewBox="0 0 1440 720" fill="none" xmlns="http://www.w3.org/2000/svg">
<g clip-path="url(#clip0_123_4)">
<rect width="1440" height="720" fill="#080808"/>
<path d="M770.067 168.523C774.004 168.272 777.372 171.322 777.51 175.265L783.901 357.745C784.058 362.223 780.026 365.693 775.622 364.871L620.975 336.02C615.554 335.008 610.507 339.065 610.329 344.576L607.056 445.919C606.924 449.993 603.365 453.064 599.363 452.659L598.975 452.608L528.729 441.587C524.769 440.966 522.138 437.153 522.963 433.23L552.929 290.801C553.61 287.561 556.469 285.242 559.779 285.242H700.462C706.203 285.242 710.476 279.939 709.256 274.329L706.762 262.866C705.862 258.73 702.201 255.78 697.968 255.78H616.934C612.69 255.78 609.422 252.034 609.998 247.83L618.762 183.826C619.214 180.527 621.927 178.003 625.25 177.79L770.067 168.523ZM652.105 202.29C645.672 201.169 640.224 207.059 641.842 213.386L644.619 224.251C645.638 228.235 649.227 231.022 653.339 231.022H664.08C669.05 231.022 673.08 226.993 673.08 222.022V213.512C673.08 209.137 669.935 205.396 665.625 204.646L652.105 202.29Z" fill="white" fill-opacity="0.35" stroke="white" stroke-width="2"/>
<path fill-rule="evenodd" clip-rule="evenodd" d="M626.282 504.823C621.896 503.661 619.354 499.088 620.682 494.749L659.085 369.272C660.265 365.418 664.128 363.043 668.1 363.731L795.892 385.852C800.162 386.591 804.243 383.797 805.099 379.549L826.717 272.233C827.382 268.933 830.042 266.402 833.371 265.902L908.796 254.571C914.041 253.783 918.588 258.225 917.921 263.488L897.351 425.768C896.815 429.996 893.058 433.062 888.808 432.739L726.36 420.394C721.021 419.988 716.798 424.84 717.936 430.072L720.544 442.055C721.207 445.101 723.578 447.484 726.62 448.163L816.341 468.166C820.715 469.141 823.435 473.519 822.371 477.873L806.201 544.075C805.138 548.427 800.71 551.058 796.38 549.91L626.282 504.823ZM773.208 495.581C776.611 494.579 778.948 491.455 778.948 487.907L778.948 480.251C778.948 476.493 776.332 473.242 772.662 472.437L753.863 468.313C748.257 467.083 743.218 471.983 744.29 477.622L747.409 494.02C748.292 498.666 752.992 501.536 757.528 500.2L773.208 495.581Z" fill="white" fill-opacity="0.1"/>
<path d="M876.875 275.073L882.096 274.283L882.239 274.145L886.058 267.143C886.878 265.64 888.864 265.851 889.558 267.08L898.938 258.026C899.569 257.416 900.524 257.289 901.293 257.713L913.277 264.325C914.011 264.73 914.415 265.551 914.287 266.381L912.49 278.047L909.884 294.956C910.486 295.648 910.564 296.71 909.957 297.494L909.378 298.242L907.82 308.353C909.016 309.292 908.746 311.231 907.292 311.783L904.024 332.991C904.016 333.085 904.002 333.178 903.981 333.269L901.859 347.04C902.441 347.705 902.609 348.732 901.931 349.596L901.352 350.333L899.205 364.271C900.728 364.322 901.663 366.044 900.799 367.365L898.09 371.507L895.111 390.837L897.22 404.22C897.379 405.232 896.749 406.2 895.759 406.464L892.572 407.314L891.614 413.534L892.073 414.077C893.121 415.317 892.334 416.994 891.03 417.322L889.392 427.956C889.193 429.246 887.832 430.003 886.632 429.492L877.12 425.441C876.959 428.336 876.911 430.1 877 430.5C877.212 431.452 874.371 428.156 869.681 422.273L865.927 420.675L861.756 427.051C860.842 428.448 858.719 428.176 858.187 426.593L855.068 417.315L847.114 419.436L841.051 427.161C840.445 427.933 839.369 428.151 838.51 427.676L831.257 423.665L824.442 425.482C823.371 425.768 822.272 425.128 821.992 424.055L820.308 417.609L817.988 416.326L815.288 419.814C814.021 421.451 811.405 420.32 811.731 418.275L812.524 413.303L811.381 412.672L805.5 414.833L802.002 421.246C801.302 422.53 799.506 422.653 798.637 421.476L796.245 418.235L787.099 421.596C786.42 421.846 785.66 421.709 785.11 421.239L778.599 415.677L777.18 417.218C776.504 417.953 775.389 418.076 774.568 417.506L768.193 413.082L758.285 418.102C757.785 418.356 757.201 418.387 756.676 418.189L742.151 412.715L738.806 416.472C737.91 417.478 736.294 417.328 735.599 416.173L730.982 408.506L722.403 405.273L720.795 418.142C720.641 419.373 719.414 420.169 718.227 419.807L709.178 417.047L716.2 429.746C716.972 431.14 715.881 432.833 714.293 432.707L698.319 431.446L698.208 432.884L713.626 436.869C715.307 437.304 715.674 439.526 714.223 440.478L712.109 441.865L716.648 444.372C718.151 445.202 717.977 447.416 716.363 448.002L696.478 455.224L696.404 456.176L697.228 457.192L721.233 454.563L724.497 450.411C725.276 449.421 726.764 449.388 727.586 450.343L730.357 453.563L733.724 453.195C734.736 453.084 735.669 453.75 735.893 454.743L736.977 459.555L742.921 454.376C743.781 453.627 745.093 453.747 745.802 454.641L752.019 462.481L756.42 458.08C757.263 457.237 758.651 457.314 759.396 458.245L764.27 464.338L771.813 461.454C772.537 461.177 773.357 461.344 773.915 461.882L777.234 465.083L782.62 462.797C783.652 462.36 784.841 462.851 785.25 463.894C785.987 465.773 786.772 467.824 787.592 470.006L788.903 467.502C789.709 465.965 791.957 466.113 792.553 467.743L796.851 479.483L798.753 469.082C799.055 467.434 801.127 466.865 802.228 468.127L807.916 474.647L812.336 471.899C813.922 470.914 815.873 472.445 815.293 474.219L813.18 480.682L816.678 484.692C817.87 486.058 816.776 488.178 814.972 487.997L810.92 487.592L808.44 495.174L811.254 497.888C812.573 499.16 811.63 501.388 809.799 501.327L806.464 501.215L805.682 503.607L810.661 517.208C811.095 518.394 810.336 519.68 809.088 519.872L805.193 520.473C807.106 526.37 808.227 530.113 808 530C807.734 529.867 804.194 527.534 798.95 524.192L797.684 528.063L801.965 532.402C803.345 533.802 802.09 536.145 800.16 535.77L795.461 534.859L793.647 540.407L799.045 541.076C801.079 541.328 801.463 544.112 799.573 544.905L795.034 546.808C793.454 547.471 791.827 545.97 792.36 544.342L793.647 540.407L785.882 539.444L785.064 543.917C784.801 545.355 783.135 546.034 781.941 545.19L775.097 540.348C774.646 541.305 773.474 541.787 772.441 541.303L762.18 536.506L747.754 534.717C746.752 534.593 746 533.742 746 532.733V529.608L731.776 531.803C730.999 531.923 730.224 531.577 729.795 530.919L723.231 520.851L715.557 519.363L711.368 523.989C710.617 524.819 709.331 524.871 708.515 524.104L700.334 516.41L691.866 514.768L691.814 515.447C691.686 517.102 689.713 517.889 688.481 516.778L684.713 513.381L664.695 509.498C664.404 509.509 664.108 509.455 663.826 509.33L643.016 505.294C642.123 505.121 641.459 504.367 641.401 503.459L640.677 492.242L639.239 491.177L637.205 491.009L627.238 497.547C625.793 498.496 623.907 497.288 624.163 495.579L624.722 491.851C624.879 490.809 625.816 490.067 626.865 490.154L637.205 491.009L638.163 490.38L628.492 483.216C627.21 482.267 627.501 480.273 629 479.729L636.862 476.874C636.746 475.753 637.567 474.552 638.977 474.638L639.543 474.672L639.405 472.529L633.814 467.488C632.531 466.331 633.218 464.202 634.935 464.014L638.828 463.588L638.484 458.246L636.355 456.244C635.41 455.356 635.548 453.818 636.634 453.111L638.091 452.163L637.77 447.182C637.661 445.503 639.548 444.449 640.921 445.42L644.529 447.973L656.077 440.456L643.479 434.614C642.013 433.933 641.917 431.884 643.315 431.071L649.317 427.578L646.578 427.361C644.836 427.224 644.096 425.076 645.383 423.894L650.848 418.877C650.927 418.099 651.439 417.364 652.379 417.143L652.861 417.029L654.536 415.491L653.385 413.725C652.247 411.98 654.203 409.875 656.027 410.882L658.231 412.1L659.607 410.837L654.125 404.083C652.882 402.55 654.374 400.334 656.262 400.91L666.889 404.151L681.131 391.077L658.657 391.817C656.782 391.878 655.861 389.556 657.27 388.316L663.311 383.002L663.309 383.001C661.542 382.335 661.596 379.818 663.39 379.229L670.109 377.021L679.633 368.643C680.592 367.799 682.085 368.059 682.704 369.177L684.438 372.313L689.775 370.56C691.223 370.084 692.649 371.338 692.364 372.835L690.529 382.449L699.262 374.432C700.599 373.204 702.748 374.25 702.608 376.06L701.497 390.407L713.884 389.999L718.293 387.433L713.816 379.998C712.704 378.151 714.898 376.094 716.669 377.323L725.161 383.216L725.333 383.335L733.274 378.714C734.008 378.286 734.933 378.37 735.579 378.922L742.083 384.478L749.493 379.656C750.113 379.252 750.904 379.224 751.552 379.582L765.02 387.031L767.861 383.841C768.706 382.892 770.209 382.961 770.964 383.983L773.945 388.022L776.242 387.947L783.861 386.151C784.276 386.053 784.712 386.09 785.104 386.257L788.151 387.555L800.231 387.157C802.004 387.099 802.969 389.206 801.768 390.51L799.888 392.553L804.682 394.594L813.171 390.293L808.61 372.836C808.293 371.623 809.158 370.421 810.409 370.335L819.47 369.715L821.173 359.034C821.095 358.931 821.017 358.829 820.939 358.727L815.329 360.375C813.749 360.839 812.317 359.302 812.891 357.759L815.283 351.324C814.974 350.922 814.67 350.524 814.369 350.132C813.842 349.445 813.831 348.517 814.321 347.803L819.283 340.562L820.219 338.044C818.949 337.592 818.331 335.837 819.501 334.707L822.536 331.777L820.114 328.91C819.286 327.931 819.581 326.437 820.717 325.845L823.782 324.249L820.913 315.716C820.47 314.398 821.474 313.041 822.864 313.079L828.472 313.234L829.796 304.924L828.283 304.385C826.512 303.753 826.513 301.248 828.284 300.617L830.615 299.786L832.791 286.133L831.655 285.704C829.729 284.976 830.026 282.164 832.062 281.855L833.508 281.637L835.538 268.899C835.76 267.506 837.314 266.775 838.529 267.49L845.023 271.318L846.25 268.017C846.655 266.928 847.9 266.412 848.957 266.895L864.806 274.144L871.657 264.148C872.68 262.655 875.001 263.18 875.283 264.967L876.875 275.073Z" fill="black" fill-opacity="0.01"/>
<path d="M726 376.5L720.795 418.142C720.641 419.373 719.414 420.169 718.227 419.807L656.262 400.91C654.374 400.334 652.882 402.55 654.125 404.083L758.007 532.08C759.239 533.598 761.692 532.629 761.555 530.679L759.735 504.843C759.629 503.333 761.165 502.261 762.525 502.926C780.14 511.539 807.245 529.622 808 530C808.777 530.388 793.753 485.574 785.25 463.894C784.841 462.851 783.652 462.36 782.62 462.797L769.396 468.408C768.57 468.758 767.613 468.516 767.053 467.816L759.396 458.245C758.651 457.314 757.263 457.237 756.42 458.08L746.024 468.476C745.202 469.298 743.853 469.248 743.094 468.366L727.586 450.343C726.764 449.388 725.276 449.421 724.497 450.411L687.634 497.296C686.134 499.204 688.69 501.634 690.52 500.04L742.921 454.376C743.781 453.627 745.093 453.747 745.802 454.641L755.089 466.351C755.631 467.035 756.555 467.288 757.37 466.976L771.813 461.454C772.537 461.177 773.357 461.344 773.915 461.882L811.254 497.888C812.573 499.16 811.63 501.388 809.799 501.327L775.013 500.167C773.206 500.107 772.253 502.284 773.522 503.571L801.965 532.402C803.345 533.802 802.09 536.145 800.16 535.77L643.016 505.294C642.123 505.121 641.459 504.367 641.401 503.459L637.77 447.182C637.661 445.503 639.548 444.449 640.921 445.42L781.941 545.19C783.135 546.034 784.801 545.355 785.064 543.917L798.753 469.082C799.055 467.434 801.127 466.865 802.228 468.127L816.678 484.692C817.87 486.058 816.776 488.178 814.972 487.997L782.947 484.795C781.537 484.654 780.717 483.132 781.374 481.877L788.903 467.502C789.709 465.965 791.957 466.113 792.553 467.743L810.661 517.208C811.095 518.394 810.336 519.68 809.088 519.872L731.776 531.803C730.999 531.923 730.224 531.577 729.795 530.919L653.385 413.725C652.247 411.98 654.203 409.875 656.027 410.882L716.648 444.372C718.151 445.202 717.977 447.416 716.363 448.002L629 479.729C627.501 480.273 627.21 482.267 628.492 483.216L663.442 509.105C664.626 509.982 666.32 509.321 666.597 507.873L692.364 372.835C692.649 371.338 691.223 370.084 689.775 370.56L663.39 379.229C661.596 379.818 661.542 382.335 663.309 383.001L756.676 418.189C757.201 418.387 757.785 418.356 758.285 418.102L899.453 346.577C901.362 345.61 903.252 347.912 901.931 349.596L841.051 427.161C840.445 427.933 839.369 428.151 838.51 427.676L751.552 379.582C750.904 379.224 750.113 379.252 749.493 379.656L636.634 453.111C635.548 453.818 635.41 455.356 636.355 456.244L708.515 524.104C709.331 524.871 710.617 524.819 711.368 523.989L742.803 489.269C743.24 488.787 743.415 488.122 743.272 487.487L735.893 454.743C735.669 453.75 734.736 453.084 733.724 453.195L634.935 464.014C633.218 464.202 632.531 466.331 633.814 467.488L688.481 516.778C689.713 517.889 691.686 517.102 691.814 515.447L702.608 376.06C702.748 374.25 700.599 373.204 699.262 374.432L645.383 423.894C644.096 425.076 644.836 427.224 646.578 427.361L714.293 432.707C715.881 432.833 716.972 431.14 716.2 429.746L682.704 369.177C682.085 368.059 680.592 367.799 679.633 368.643L657.27 388.316C655.861 389.556 656.782 391.878 658.657 391.817L800.231 387.157C802.004 387.099 802.969 389.206 801.768 390.51L777.18 417.218C776.504 417.953 775.389 418.076 774.568 417.506L716.669 377.323C714.898 376.094 712.704 378.151 713.816 379.998L735.599 416.173C736.294 417.328 737.91 417.478 738.806 416.472L767.861 383.841C768.706 382.892 770.209 382.961 770.964 383.983L798.637 421.476C799.506 422.653 801.302 422.53 802.002 421.246L886.058 267.143C887.089 265.253 889.963 266.073 889.796 268.219C885.415 324.588 876.243 427.095 877 430.5C877.789 434.052 836.13 378.508 814.369 350.132C813.842 349.445 813.831 348.517 814.321 347.803L871.657 264.148C872.68 262.655 875.001 263.18 875.283 264.967L897.22 404.22C897.379 405.232 896.749 406.2 895.759 406.464L824.442 425.482C823.371 425.768 822.272 425.128 821.992 424.055L808.61 372.836C808.293 371.623 809.158 370.421 810.409 370.335L898.989 364.274C900.637 364.162 901.703 365.982 900.799 367.365L861.756 427.051C860.842 428.448 858.719 428.176 858.187 426.593L820.913 315.716C820.47 314.398 821.474 313.041 822.864 313.079L898.629 315.172C900.883 315.234 901.501 312.099 899.391 311.302L831.655 285.704C829.729 284.976 830.026 282.164 832.062 281.855L896.479 272.106C898.874 271.743 899.732 275.154 897.45 275.967L828.284 300.617C826.513 301.248 826.512 303.753 828.283 304.385L902.704 330.932C904.528 331.583 904.454 334.189 902.595 334.735L815.329 360.375C813.749 360.839 812.317 359.302 812.891 357.759L846.25 268.017C846.655 266.928 847.9 266.412 848.957 266.895L909.207 294.451C910.379 294.987 910.745 296.475 909.957 297.494L815.288 419.814C814.021 421.451 811.405 420.32 811.731 418.275L835.538 268.899C835.76 267.506 837.314 266.775 838.529 267.49L907.588 308.194C909.086 309.077 908.821 311.32 907.157 311.829L821.475 338.059C819.465 338.674 817.988 336.168 819.501 334.707L898.938 258.026C899.569 257.416 900.524 257.289 901.293 257.713L913.277 264.325C914.011 264.73 914.415 265.551 914.287 266.381L889.392 427.956C889.193 429.246 887.832 430.003 886.632 429.491L785.104 386.257C784.712 386.09 784.276 386.053 783.861 386.151L652.379 417.143C650.346 417.622 650.315 420.503 652.337 421.026L713.626 436.869C715.307 437.304 715.674 439.526 714.223 440.478L627.238 497.547C625.793 498.496 623.907 497.288 624.163 495.579L624.722 491.851C624.879 490.809 625.816 490.067 626.865 490.154L744.165 499.848C745.202 499.934 746 500.801 746 501.842V532.733C746 533.742 746.752 534.593 747.754 534.717L799.045 541.076C801.079 541.328 801.463 544.112 799.573 544.905L795.034 546.808C793.454 547.471 791.827 545.97 792.36 544.342L815.293 474.219C815.873 472.445 813.922 470.914 812.336 471.899L780.837 491.48C780.309 491.808 779.964 492.363 779.903 492.981L775.278 539.689C775.142 541.061 773.69 541.888 772.441 541.303L638.008 478.446C636.009 477.511 636.774 474.504 638.977 474.638L732.933 480.357C735.139 480.491 735.901 477.476 733.896 476.546L643.479 434.614C642.013 433.933 641.917 431.884 643.315 431.071L733.274 378.714C734.008 378.286 734.933 378.37 735.579 378.922L785.11 421.239C785.66 421.709 786.42 421.846 787.099 421.596L891.403 383.262C893.533 382.479 892.919 379.315 890.651 379.386L816.079 381.716C813.936 381.783 813.386 384.717 815.358 385.556L889.763 417.208C891.701 418.033 893.433 415.687 892.073 414.077L820.114 328.91C819.286 327.931 819.581 326.437 820.717 325.845L914.5 277" stroke="white" stroke-opacity="0.5"/>
</g>
<defs>
<clipPath id="clip0_123_4">
<rect width="1440" height="720" fill="white"/>
</clipPath>
</defs>
</svg>
