<svg width="1440" height="720" viewBox="0 0 1440 720" fill="none" xmlns="http://www.w3.org/2000/svg">
<g clip-path="url(#clip0_143_9)">
<rect width="1440" height="720" fill="#080808"/>
<path d="M661 264C665.418 264 669 267.582 669 272L669 577C669 581.418 665.418 585 661 585L307 585C302.582 585 299 581.418 299 577L299 272C299 267.582 302.582 264 307 264L661 264Z" fill="white" fill-opacity="0.05"/>
<path d="M299 272L299.5 272C299.5 271.498 299.549 271.009 299.643 270.536L299.152 270.439L298.662 270.342C298.556 270.878 298.5 271.433 298.5 272L299 272ZM300.347 267.555L300.763 267.833C301.311 267.015 302.015 266.311 302.833 265.763L302.555 265.347L302.277 264.932C301.35 265.552 300.552 266.35 299.932 267.277L300.347 267.555ZM305.439 264.152L305.536 264.643C306.009 264.549 306.498 264.5 307 264.5L307 264L307 263.5C306.433 263.5 305.878 263.556 305.342 263.662L305.439 264.152ZM307 264L307 264.5L309.011 264.5L309.011 264L309.011 263.5L307 263.5L307 264ZM313.034 264L313.034 264.5L317.057 264.5L317.057 264L317.057 263.5L313.034 263.5L313.034 264ZM321.08 264L321.08 264.5L325.102 264.5L325.102 264L325.102 263.5L321.08 263.5L321.08 264ZM329.125 264L329.125 264.5L333.148 264.5L333.148 264L333.148 263.5L329.125 263.5L329.125 264ZM337.17 264L337.17 264.5L341.193 264.5L341.193 264L341.193 263.5L337.17 263.5L337.17 264ZM345.216 264L345.216 264.5L349.239 264.5L349.239 264L349.239 263.5L345.216 263.5L345.216 264ZM353.261 264L353.261 264.5L357.284 264.5L357.284 264L357.284 263.5L353.261 263.5L353.261 264ZM361.307 264L361.307 264.5L365.33 264.5L365.33 264L365.33 263.5L361.307 263.5L361.307 264ZM369.352 264L369.352 264.5L373.375 264.5L373.375 264L373.375 263.5L369.352 263.5L369.352 264ZM377.398 264L377.398 264.5L381.42 264.5L381.42 264L381.42 263.5L377.398 263.5L377.398 264ZM385.443 264L385.443 264.5L389.466 264.5L389.466 264L389.466 263.5L385.443 263.5L385.443 264ZM393.489 264L393.489 264.5L397.511 264.5L397.511 264L397.511 263.5L393.489 263.5L393.489 264ZM401.534 264L401.534 264.5L405.557 264.5L405.557 264L405.557 263.5L401.534 263.5L401.534 264ZM409.58 264L409.58 264.5L413.602 264.5L413.602 264L413.602 263.5L409.58 263.5L409.58 264ZM417.625 264L417.625 264.5L421.648 264.5L421.648 264L421.648 263.5L417.625 263.5L417.625 264ZM425.67 264L425.67 264.5L429.693 264.5L429.693 264L429.693 263.5L425.67 263.5L425.67 264ZM433.716 264L433.716 264.5L437.739 264.5L437.739 264L437.739 263.5L433.716 263.5L433.716 264ZM441.761 264L441.761 264.5L445.784 264.5L445.784 264L445.784 263.5L441.761 263.5L441.761 264ZM449.807 264L449.807 264.5L453.83 264.5L453.83 264L453.83 263.5L449.807 263.5L449.807 264ZM457.852 264L457.852 264.5L461.875 264.5L461.875 264L461.875 263.5L457.852 263.5L457.852 264ZM465.898 264L465.898 264.5L469.92 264.5L469.92 264L469.92 263.5L465.898 263.5L465.898 264ZM473.943 264L473.943 264.5L477.966 264.5L477.966 264L477.966 263.5L473.943 263.5L473.943 264ZM481.989 264L481.989 264.5L486.011 264.5L486.011 264L486.011 263.5L481.989 263.5L481.989 264ZM490.034 264L490.034 264.5L494.057 264.5L494.057 264L494.057 263.5L490.034 263.5L490.034 264ZM498.079 264L498.079 264.5L502.102 264.5L502.102 264L502.102 263.5L498.079 263.5L498.079 264ZM506.125 264L506.125 264.5L510.148 264.5L510.148 264L510.148 263.5L506.125 263.5L506.125 264ZM514.17 264L514.17 264.5L518.193 264.5L518.193 264L518.193 263.5L514.17 263.5L514.17 264ZM522.216 264L522.216 264.5L526.238 264.5L526.238 264L526.238 263.5L522.216 263.5L522.216 264ZM530.261 264L530.261 264.5L534.284 264.5L534.284 264L534.284 263.5L530.261 263.5L530.261 264ZM538.307 264L538.307 264.5L542.329 264.5L542.329 264L542.329 263.5L538.307 263.5L538.307 264ZM546.352 264L546.352 264.5L550.375 264.5L550.375 264L550.375 263.5L546.352 263.5L546.352 264ZM554.398 264L554.398 264.5L558.42 264.5L558.42 264L558.42 263.5L554.398 263.5L554.398 264ZM562.443 264L562.443 264.5L566.466 264.5L566.466 264L566.466 263.5L562.443 263.5L562.443 264ZM570.488 264L570.488 264.5L574.511 264.5L574.511 264L574.511 263.5L570.488 263.5L570.488 264ZM578.534 264L578.534 264.5L582.557 264.5L582.557 264L582.557 263.5L578.534 263.5L578.534 264ZM586.579 264L586.579 264.5L590.602 264.5L590.602 264L590.602 263.5L586.579 263.5L586.579 264ZM594.625 264L594.625 264.5L598.648 264.5L598.648 264L598.648 263.5L594.625 263.5L594.625 264ZM602.67 264L602.67 264.5L606.693 264.5L606.693 264L606.693 263.5L602.67 263.5L602.67 264ZM610.716 264L610.716 264.5L614.739 264.5L614.739 264L614.739 263.5L610.716 263.5L610.716 264ZM618.761 264L618.761 264.5L622.784 264.5L622.784 264L622.784 263.5L618.761 263.5L618.761 264ZM626.807 264L626.807 264.5L630.829 264.5L630.829 264L630.829 263.5L626.807 263.5L626.807 264ZM634.852 264L634.852 264.5L638.875 264.5L638.875 264L638.875 263.5L634.852 263.5L634.852 264ZM642.898 264L642.898 264.5L646.92 264.5L646.92 264L646.92 263.5L642.898 263.5L642.898 264ZM650.943 264L650.943 264.5L654.966 264.5L654.966 264L654.966 263.5L650.943 263.5L650.943 264ZM658.989 264L658.989 264.5L661 264.5L661 264L661 263.5L658.989 263.5L658.989 264ZM661 264L661 264.5C661.502 264.5 661.991 264.549 662.464 264.643L662.561 264.152L662.658 263.662C662.122 263.556 661.567 263.5 661 263.5L661 264ZM665.445 265.347L665.167 265.763C665.985 266.311 666.689 267.015 667.237 267.833L667.653 267.555L668.068 267.277C667.448 266.35 666.65 265.552 665.723 264.932L665.445 265.347ZM668.848 270.439L668.357 270.536C668.451 271.009 668.5 271.498 668.5 272L669 272L669.5 272C669.5 271.433 669.444 270.878 669.338 270.342L668.848 270.439ZM669 272L668.5 272L668.5 274.007L669 274.007L669.5 274.007L669.5 272L669 272ZM669 278.02L668.5 278.02L668.5 282.033L669 282.033L669.5 282.033L669.5 278.02L669 278.02ZM669 286.046L668.5 286.046L668.5 290.059L669 290.059L669.5 290.059L669.5 286.046L669 286.046ZM669 294.072L668.5 294.072L668.5 298.086L669 298.086L669.5 298.086L669.5 294.072L669 294.072ZM669 302.099L668.5 302.099L668.5 306.112L669 306.112L669.5 306.112L669.5 302.099L669 302.099ZM669 310.125L668.5 310.125L668.5 314.138L669 314.138L669.5 314.138L669.5 310.125L669 310.125ZM669 318.151L668.5 318.151L668.5 322.164L669 322.164L669.5 322.164L669.5 318.151L669 318.151ZM669 326.178L668.5 326.178L668.5 330.191L669 330.191L669.5 330.191L669.5 326.178L669 326.178ZM669 334.204L668.5 334.204L668.5 338.217L669 338.217L669.5 338.217L669.5 334.204L669 334.204ZM669 342.23L668.5 342.23L668.5 346.243L669 346.243L669.5 346.243L669.5 342.23L669 342.23ZM669 350.257L668.5 350.257L668.5 354.27L669 354.27L669.5 354.27L669.5 350.257L669 350.257ZM669 358.283L668.5 358.283L668.5 362.296L669 362.296L669.5 362.296L669.5 358.283L669 358.283ZM669 366.309L668.5 366.309L668.5 370.322L669 370.322L669.5 370.322L669.5 366.309L669 366.309ZM669 374.336L668.5 374.336L668.5 378.349L669 378.349L669.5 378.349L669.5 374.336L669 374.336ZM669 382.362L668.5 382.362L668.5 386.375L669 386.375L669.5 386.375L669.5 382.362L669 382.362ZM669 390.388L668.5 390.388L668.5 394.401L669 394.401L669.5 394.401L669.5 390.388L669 390.388ZM669 398.415L668.5 398.415L668.5 402.428L669 402.428L669.5 402.428L669.5 398.415L669 398.415ZM669 406.441L668.5 406.441L668.5 410.454L669 410.454L669.5 410.454L669.5 406.441L669 406.441ZM669 414.467L668.5 414.467L668.5 418.48L669 418.48L669.5 418.48L669.5 414.467L669 414.467ZM669 422.493L668.5 422.493L668.5 426.507L669 426.507L669.5 426.507L669.5 422.493L669 422.493ZM669 430.52L668.5 430.52L668.5 434.533L669 434.533L669.5 434.533L669.5 430.52L669 430.52ZM669 438.546L668.5 438.546L668.5 442.559L669 442.559L669.5 442.559L669.5 438.546L669 438.546ZM669 446.572L668.5 446.572L668.5 450.586L669 450.586L669.5 450.586L669.5 446.572L669 446.572ZM669 454.599L668.5 454.599L668.5 458.612L669 458.612L669.5 458.612L669.5 454.599L669 454.599ZM669 462.625L668.5 462.625L668.5 466.638L669 466.638L669.5 466.638L669.5 462.625L669 462.625ZM669 470.651L668.5 470.651L668.5 474.664L669 474.664L669.5 474.664L669.5 470.651L669 470.651ZM669 478.678L668.5 478.678L668.5 482.691L669 482.691L669.5 482.691L669.5 478.678L669 478.678ZM669 486.704L668.5 486.704L668.5 490.717L669 490.717L669.5 490.717L669.5 486.704L669 486.704ZM669 494.73L668.5 494.73L668.5 498.743L669 498.743L669.5 498.743L669.5 494.73L669 494.73ZM669 502.757L668.5 502.757L668.5 506.77L669 506.77L669.5 506.77L669.5 502.757L669 502.757ZM669 510.783L668.5 510.783L668.5 514.796L669 514.796L669.5 514.796L669.5 510.783L669 510.783ZM669 518.809L668.5 518.809L668.5 522.822L669 522.822L669.5 522.822L669.5 518.809L669 518.809ZM669 526.835L668.5 526.835L668.5 530.849L669 530.849L669.5 530.849L669.5 526.835L669 526.835ZM669 534.862L668.5 534.862L668.5 538.875L669 538.875L669.5 538.875L669.5 534.862L669 534.862ZM669 542.888L668.5 542.888L668.5 546.901L669 546.901L669.5 546.901L669.5 542.888L669 542.888ZM669 550.914L668.5 550.914L668.5 554.927L669 554.927L669.5 554.927L669.5 550.914L669 550.914ZM669 558.941L668.5 558.941L668.5 562.954L669 562.954L669.5 562.954L669.5 558.941L669 558.941ZM669 566.967L668.5 566.967L668.5 570.98L669 570.98L669.5 570.98L669.5 566.967L669 566.967ZM669 574.993L668.5 574.993L668.5 577L669 577L669.5 577L669.5 574.993L669 574.993ZM669 577L668.5 577C668.5 577.502 668.451 577.991 668.357 578.464L668.848 578.561L669.338 578.658C669.444 578.122 669.5 577.567 669.5 577L669 577ZM667.653 581.445L667.237 581.167C666.689 581.985 665.985 582.689 665.167 583.237L665.445 583.653L665.723 584.068C666.65 583.448 667.448 582.65 668.068 581.723L667.653 581.445ZM662.561 584.848L662.464 584.357C661.991 584.451 661.502 584.5 661 584.5L661 585L661 585.5C661.567 585.5 662.122 585.444 662.658 585.338L662.561 584.848ZM661 585L661 584.5L658.989 584.5L658.989 585L658.989 585.5L661 585.5L661 585ZM654.966 585L654.966 584.5L650.943 584.5L650.943 585L650.943 585.5L654.966 585.5L654.966 585ZM646.92 585L646.92 584.5L642.898 584.5L642.898 585L642.898 585.5L646.92 585.5L646.92 585ZM638.875 585L638.875 584.5L634.852 584.5L634.852 585L634.852 585.5L638.875 585.5L638.875 585ZM630.83 585L630.83 584.5L626.807 584.5L626.807 585L626.807 585.5L630.83 585.5L630.83 585ZM622.784 585L622.784 584.5L618.761 584.5L618.761 585L618.761 585.5L622.784 585.5L622.784 585ZM614.739 585L614.739 584.5L610.716 584.5L610.716 585L610.716 585.5L614.739 585.5L614.739 585ZM606.693 585L606.693 584.5L602.67 584.5L602.67 585L602.67 585.5L606.693 585.5L606.693 585ZM598.648 585L598.648 584.5L594.625 584.5L594.625 585L594.625 585.5L598.648 585.5L598.648 585ZM590.602 585L590.602 584.5L586.58 584.5L586.58 585L586.58 585.5L590.602 585.5L590.602 585ZM582.557 585L582.557 584.5L578.534 584.5L578.534 585L578.534 585.5L582.557 585.5L582.557 585ZM574.511 585L574.511 584.5L570.489 584.5L570.489 585L570.489 585.5L574.511 585.5L574.511 585ZM566.466 585L566.466 584.5L562.443 584.5L562.443 585L562.443 585.5L566.466 585.5L566.466 585ZM558.42 585L558.42 584.5L554.398 584.5L554.398 585L554.398 585.5L558.42 585.5L558.42 585ZM550.375 585L550.375 584.5L546.352 584.5L546.352 585L546.352 585.5L550.375 585.5L550.375 585ZM542.33 585L542.33 584.5L538.307 584.5L538.307 585L538.307 585.5L542.33 585.5L542.33 585ZM534.284 585L534.284 584.5L530.261 584.5L530.261 585L530.261 585.5L534.284 585.5L534.284 585ZM526.239 585L526.239 584.5L522.216 584.5L522.216 585L522.216 585.5L526.239 585.5L526.239 585ZM518.193 585L518.193 584.5L514.17 584.5L514.17 585L514.17 585.5L518.193 585.5L518.193 585ZM510.148 585L510.148 584.5L506.125 584.5L506.125 585L506.125 585.5L510.148 585.5L510.148 585ZM502.102 585L502.102 584.5L498.08 584.5L498.08 585L498.08 585.5L502.102 585.5L502.102 585ZM494.057 585L494.057 584.5L490.034 584.5L490.034 585L490.034 585.5L494.057 585.5L494.057 585ZM486.011 585L486.011 584.5L481.989 584.5L481.989 585L481.989 585.5L486.011 585.5L486.011 585ZM477.966 585L477.966 584.5L473.943 584.5L473.943 585L473.943 585.5L477.966 585.5L477.966 585ZM469.921 585L469.921 584.5L465.898 584.5L465.898 585L465.898 585.5L469.921 585.5L469.921 585ZM461.875 585L461.875 584.5L457.852 584.5L457.852 585L457.852 585.5L461.875 585.5L461.875 585ZM453.83 585L453.83 584.5L449.807 584.5L449.807 585L449.807 585.5L453.83 585.5L453.83 585ZM445.784 585L445.784 584.5L441.762 584.5L441.762 585L441.762 585.5L445.784 585.5L445.784 585ZM437.739 585L437.739 584.5L433.716 584.5L433.716 585L433.716 585.5L437.739 585.5L437.739 585ZM429.693 585L429.693 584.5L425.671 584.5L425.671 585L425.671 585.5L429.693 585.5L429.693 585ZM421.648 585L421.648 584.5L417.625 584.5L417.625 585L417.625 585.5L421.648 585.5L421.648 585ZM413.602 585L413.602 584.5L409.58 584.5L409.58 585L409.58 585.5L413.602 585.5L413.602 585ZM405.557 585L405.557 584.5L401.534 584.5L401.534 585L401.534 585.5L405.557 585.5L405.557 585ZM397.512 585L397.512 584.5L393.489 584.5L393.489 585L393.489 585.5L397.512 585.5L397.512 585ZM389.466 585L389.466 584.5L385.443 584.5L385.443 585L385.443 585.5L389.466 585.5L389.466 585ZM381.421 585L381.421 584.5L377.398 584.5L377.398 585L377.398 585.5L381.421 585.5L381.421 585ZM373.375 585L373.375 584.5L369.352 584.5L369.352 585L369.352 585.5L373.375 585.5L373.375 585ZM365.33 585L365.33 584.5L361.307 584.5L361.307 585L361.307 585.5L365.33 585.5L365.33 585ZM357.284 585L357.284 584.5L353.261 584.5L353.261 585L353.261 585.5L357.284 585.5L357.284 585ZM349.239 585L349.239 584.5L345.216 584.5L345.216 585L345.216 585.5L349.239 585.5L349.239 585ZM341.193 585L341.193 584.5L337.171 584.5L337.171 585L337.171 585.5L341.193 585.5L341.193 585ZM333.148 585L333.148 584.5L329.125 584.5L329.125 585L329.125 585.5L333.148 585.5L333.148 585ZM325.102 585L325.102 584.5L321.08 584.5L321.08 585L321.08 585.5L325.102 585.5L325.102 585ZM317.057 585L317.057 584.5L313.034 584.5L313.034 585L313.034 585.5L317.057 585.5L317.057 585ZM309.011 585L309.011 584.5L307 584.5L307 585L307 585.5L309.011 585.5L309.011 585ZM307 585L307 584.5C306.498 584.5 306.009 584.451 305.536 584.357L305.439 584.848L305.342 585.338C305.878 585.444 306.433 585.5 307 585.5L307 585ZM302.555 583.653L302.833 583.237C302.015 582.689 301.311 581.985 300.763 581.167L300.347 581.445L299.932 581.723C300.552 582.65 301.35 583.448 302.277 584.068L302.555 583.653ZM299.152 578.561L299.643 578.464C299.549 577.991 299.5 577.502 299.5 577L299 577L298.5 577C298.5 577.567 298.556 578.122 298.662 578.658L299.152 578.561ZM299 577L299.5 577L299.5 574.993L299 574.993L298.5 574.993L298.5 577L299 577ZM299 570.98L299.5 570.98L299.5 566.967L299 566.967L298.5 566.967L298.5 570.98L299 570.98ZM299 562.954L299.5 562.954L299.5 558.941L299 558.941L298.5 558.941L298.5 562.954L299 562.954ZM299 554.928L299.5 554.928L299.5 550.914L299 550.914L298.5 550.914L298.5 554.928L299 554.928ZM299 546.901L299.5 546.901L299.5 542.888L299 542.888L298.5 542.888L298.5 546.901L299 546.901ZM299 538.875L299.5 538.875L299.5 534.862L299 534.862L298.5 534.862L298.5 538.875L299 538.875ZM299 530.849L299.5 530.849L299.5 526.836L299 526.836L298.5 526.836L298.5 530.849L299 530.849ZM299 522.822L299.5 522.822L299.5 518.809L299 518.809L298.5 518.809L298.5 522.822L299 522.822ZM299 514.796L299.5 514.796L299.5 510.783L299 510.783L298.5 510.783L298.5 514.796L299 514.796ZM299 506.77L299.5 506.77L299.5 502.757L299 502.757L298.5 502.757L298.5 506.77L299 506.77ZM299 498.743L299.5 498.743L299.5 494.73L299 494.73L298.5 494.73L298.5 498.743L299 498.743ZM299 490.717L299.5 490.717L299.5 486.704L299 486.704L298.5 486.704L298.5 490.717L299 490.717ZM299 482.691L299.5 482.691L299.5 478.678L299 478.678L298.5 478.678L298.5 482.691L299 482.691ZM299 474.664L299.5 474.664L299.5 470.651L299 470.651L298.5 470.651L298.5 474.664L299 474.664ZM299 466.638L299.5 466.638L299.5 462.625L299 462.625L298.5 462.625L298.5 466.638L299 466.638ZM299 458.612L299.5 458.612L299.5 454.599L299 454.599L298.5 454.599L298.5 458.612L299 458.612ZM299 450.586L299.5 450.586L299.5 446.572L299 446.572L298.5 446.572L298.5 450.586L299 450.586ZM299 442.559L299.5 442.559L299.5 438.546L299 438.546L298.5 438.546L298.5 442.559L299 442.559ZM299 434.533L299.5 434.533L299.5 430.52L299 430.52L298.5 430.52L298.5 434.533L299 434.533ZM299 426.507L299.5 426.507L299.5 422.493L299 422.493L298.5 422.493L298.5 426.507L299 426.507ZM299 418.48L299.5 418.48L299.5 414.467L299 414.467L298.5 414.467L298.5 418.48L299 418.48ZM299 410.454L299.5 410.454L299.5 406.441L299 406.441L298.5 406.441L298.5 410.454L299 410.454ZM299 402.428L299.5 402.428L299.5 398.415L299 398.415L298.5 398.415L298.5 402.428L299 402.428ZM299 394.401L299.5 394.401L299.5 390.388L299 390.388L298.5 390.388L298.5 394.401L299 394.401ZM299 386.375L299.5 386.375L299.5 382.362L299 382.362L298.5 382.362L298.5 386.375L299 386.375ZM299 378.349L299.5 378.349L299.5 374.336L299 374.336L298.5 374.336L298.5 378.349L299 378.349ZM299 370.322L299.5 370.322L299.5 366.309L299 366.309L298.5 366.309L298.5 370.322L299 370.322ZM299 362.296L299.5 362.296L299.5 358.283L299 358.283L298.5 358.283L298.5 362.296L299 362.296ZM299 354.27L299.5 354.27L299.5 350.257L299 350.257L298.5 350.257L298.5 354.27L299 354.27ZM299 346.244L299.5 346.244L299.5 342.23L299 342.23L298.5 342.23L298.5 346.244L299 346.244ZM299 338.217L299.5 338.217L299.5 334.204L299 334.204L298.5 334.204L298.5 338.217L299 338.217ZM299 330.191L299.5 330.191L299.5 326.178L299 326.178L298.5 326.178L298.5 330.191L299 330.191ZM299 322.165L299.5 322.165L299.5 318.151L299 318.151L298.5 318.151L298.5 322.165L299 322.165ZM299 314.138L299.5 314.138L299.5 310.125L299 310.125L298.5 310.125L298.5 314.138L299 314.138ZM299 306.112L299.5 306.112L299.5 302.099L299 302.099L298.5 302.099L298.5 306.112L299 306.112ZM299 298.086L299.5 298.086L299.5 294.073L299 294.073L298.5 294.073L298.5 298.086L299 298.086ZM299 290.059L299.5 290.059L299.5 286.046L299 286.046L298.5 286.046L298.5 290.059L299 290.059ZM299 282.033L299.5 282.033L299.5 278.02L299 278.02L298.5 278.02L298.5 282.033L299 282.033ZM299 274.007L299.5 274.007L299.5 272L299 272L298.5 272L298.5 274.007L299 274.007Z" fill="white"/>
<path d="M1136 136C1140.42 136 1144 139.582 1144 144L1144 577C1144 581.418 1140.42 585 1136 585L758 585C753.582 585 750 581.418 750 577L750 144C750 139.582 753.582 136 758 136L1136 136Z" fill="white" fill-opacity="0.05"/>
<path d="M750 144L750.5 144C750.5 143.498 750.549 143.009 750.643 142.536L750.152 142.439L749.662 142.342C749.556 142.878 749.5 143.433 749.5 144L750 144ZM751.348 139.555L751.763 139.833C752.311 139.015 753.015 138.311 753.833 137.763L753.555 137.347L753.277 136.932C752.35 137.552 751.552 138.35 750.932 139.277L751.348 139.555ZM756.439 136.152L756.536 136.643C757.009 136.549 757.499 136.5 758 136.5L758 136L758 135.5C757.433 135.5 756.878 135.556 756.342 135.662L756.439 136.152ZM758 136L758 136.5L760.011 136.5L760.011 136L760.011 135.5L758 135.5L758 136ZM764.032 136L764.032 136.5L768.053 136.5L768.053 136L768.053 135.5L764.032 135.5L764.032 136ZM772.074 136L772.074 136.5L776.096 136.5L776.096 136L776.096 135.5L772.074 135.5L772.074 136ZM780.117 136L780.117 136.5L784.138 136.5L784.138 136L784.138 135.5L780.117 135.5L780.117 136ZM788.16 136L788.16 136.5L792.181 136.5L792.181 136L792.181 135.5L788.16 135.5L788.16 136ZM796.202 136L796.202 136.5L800.223 136.5L800.223 136L800.223 135.5L796.202 135.5L796.202 136ZM804.245 136L804.245 136.5L808.266 136.5L808.266 136L808.266 135.5L804.245 135.5L804.245 136ZM812.287 136L812.287 136.5L816.309 136.5L816.309 136L816.309 135.5L812.287 135.5L812.287 136ZM820.33 136L820.33 136.5L824.351 136.5L824.351 136L824.351 135.5L820.33 135.5L820.33 136ZM828.372 136L828.372 136.5L832.394 136.5L832.394 136L832.394 135.5L828.372 135.5L828.372 136ZM836.415 136L836.415 136.5L840.436 136.5L840.436 136L840.436 135.5L836.415 135.5L836.415 136ZM844.457 136L844.457 136.5L848.479 136.5L848.479 136L848.479 135.5L844.457 135.5L844.457 136ZM852.5 136L852.5 136.5L856.521 136.5L856.521 136L856.521 135.5L852.5 135.5L852.5 136ZM860.543 136L860.543 136.5L864.564 136.5L864.564 136L864.564 135.5L860.543 135.5L860.543 136ZM868.585 136L868.585 136.5L872.606 136.5L872.606 136L872.606 135.5L868.585 135.5L868.585 136ZM876.628 136L876.628 136.5L880.649 136.5L880.649 136L880.649 135.5L876.628 135.5L876.628 136ZM884.67 136L884.67 136.5L888.692 136.5L888.692 136L888.692 135.5L884.67 135.5L884.67 136ZM892.713 136L892.713 136.5L896.734 136.5L896.734 136L896.734 135.5L892.713 135.5L892.713 136ZM900.755 136L900.755 136.5L904.777 136.5L904.777 136L904.777 135.5L900.755 135.5L900.755 136ZM908.798 136L908.798 136.5L912.819 136.5L912.819 136L912.819 135.5L908.798 135.5L908.798 136ZM916.84 136L916.84 136.5L920.862 136.5L920.862 136L920.862 135.5L916.84 135.5L916.84 136ZM924.883 136L924.883 136.5L928.904 136.5L928.904 136L928.904 135.5L924.883 135.5L924.883 136ZM932.926 136L932.926 136.5L936.947 136.5L936.947 136L936.947 135.5L932.926 135.5L932.926 136ZM940.968 136L940.968 136.5L944.989 136.5L944.989 136L944.989 135.5L940.968 135.5L940.968 136ZM949.011 136L949.011 136.5L953.032 136.5L953.032 136L953.032 135.5L949.011 135.5L949.011 136ZM957.053 136L957.053 136.5L961.074 136.5L961.074 136L961.074 135.5L957.053 135.5L957.053 136ZM965.096 136L965.096 136.5L969.117 136.5L969.117 136L969.117 135.5L965.096 135.5L965.096 136ZM973.138 136L973.138 136.5L977.16 136.5L977.16 136L977.16 135.5L973.138 135.5L973.138 136ZM981.181 136L981.181 136.5L985.202 136.5L985.202 136L985.202 135.5L981.181 135.5L981.181 136ZM989.223 136L989.223 136.5L993.245 136.5L993.245 136L993.245 135.5L989.223 135.5L989.223 136ZM997.266 136L997.266 136.5L1001.29 136.5L1001.29 136L1001.29 135.5L997.266 135.5L997.266 136ZM1005.31 136L1005.31 136.5L1009.33 136.5L1009.33 136L1009.33 135.5L1005.31 135.5L1005.31 136ZM1013.35 136L1013.35 136.5L1017.37 136.5L1017.37 136L1017.37 135.5L1013.35 135.5L1013.35 136ZM1021.39 136L1021.39 136.5L1025.41 136.5L1025.41 136L1025.41 135.5L1021.39 135.5L1021.39 136ZM1029.44 136L1029.44 136.5L1033.46 136.5L1033.46 136L1033.46 135.5L1029.44 135.5L1029.44 136ZM1037.48 136L1037.48 136.5L1041.5 136.5L1041.5 136L1041.5 135.5L1037.48 135.5L1037.48 136ZM1045.52 136L1045.52 136.5L1049.54 136.5L1049.54 136L1049.54 135.5L1045.52 135.5L1045.52 136ZM1053.56 136L1053.56 136.5L1057.58 136.5L1057.58 136L1057.58 135.5L1053.56 135.5L1053.56 136ZM1061.61 136L1061.61 136.5L1065.63 136.5L1065.63 136L1065.63 135.5L1061.61 135.5L1061.61 136ZM1069.65 136L1069.65 136.5L1073.67 136.5L1073.67 136L1073.67 135.5L1069.65 135.5L1069.65 136ZM1077.69 136L1077.69 136.5L1081.71 136.5L1081.71 136L1081.71 135.5L1077.69 135.5L1077.69 136ZM1085.73 136L1085.73 136.5L1089.76 136.5L1089.76 136L1089.76 135.5L1085.73 135.5L1085.73 136ZM1093.78 136L1093.78 136.5L1097.8 136.5L1097.8 136L1097.8 135.5L1093.78 135.5L1093.78 136ZM1101.82 136L1101.82 136.5L1105.84 136.5L1105.84 136L1105.84 135.5L1101.82 135.5L1101.82 136ZM1109.86 136L1109.86 136.5L1113.88 136.5L1113.88 136L1113.88 135.5L1109.86 135.5L1109.86 136ZM1117.9 136L1117.9 136.5L1121.93 136.5L1121.93 136L1121.93 135.5L1117.9 135.5L1117.9 136ZM1125.95 136L1125.95 136.5L1129.97 136.5L1129.97 136L1129.97 135.5L1125.95 135.5L1125.95 136ZM1133.99 136L1133.99 136.5L1136 136.5L1136 136L1136 135.5L1133.99 135.5L1133.99 136ZM1136 136L1136 136.5C1136.5 136.5 1136.99 136.549 1137.46 136.643L1137.56 136.152L1137.66 135.662C1137.12 135.556 1136.57 135.5 1136 135.5L1136 136ZM1140.44 137.347L1140.17 137.763C1140.98 138.311 1141.69 139.015 1142.24 139.833L1142.65 139.555L1143.07 139.277C1142.45 138.35 1141.65 137.552 1140.72 136.932L1140.44 137.347ZM1143.85 142.439L1143.36 142.536C1143.45 143.009 1143.5 143.498 1143.5 144L1144 144L1144.5 144C1144.5 143.433 1144.44 142.878 1144.34 142.342L1143.85 142.439ZM1144 144L1143.5 144L1143.5 146.005L1144 146.005L1144.5 146.005L1144.5 144L1144 144ZM1144 150.014L1143.5 150.014L1143.5 154.023L1144 154.023L1144.5 154.023L1144.5 150.014L1144 150.014ZM1144 158.032L1143.5 158.032L1143.5 162.042L1144 162.042L1144.5 162.042L1144.5 158.032L1144 158.032ZM1144 166.051L1143.5 166.051L1143.5 170.06L1144 170.06L1144.5 170.06L1144.5 166.051L1144 166.051ZM1144 174.069L1143.5 174.069L1143.5 178.079L1144 178.079L1144.5 178.079L1144.5 174.069L1144 174.069ZM1144 182.088L1143.5 182.088L1143.5 186.097L1144 186.097L1144.5 186.097L1144.5 182.088L1144 182.088ZM1144 190.106L1143.5 190.106L1143.5 194.116L1144 194.116L1144.5 194.116L1144.5 190.106L1144 190.106ZM1144 198.125L1143.5 198.125L1143.5 202.134L1144 202.134L1144.5 202.134L1144.5 198.125L1144 198.125ZM1144 206.144L1143.5 206.144L1143.5 210.153L1144 210.153L1144.5 210.153L1144.5 206.144L1144 206.144ZM1144 214.162L1143.5 214.162L1143.5 218.171L1144 218.171L1144.5 218.171L1144.5 214.162L1144 214.162ZM1144 222.181L1143.5 222.181L1143.5 226.19L1144 226.19L1144.5 226.19L1144.5 222.181L1144 222.181ZM1144 230.199L1143.5 230.199L1143.5 234.208L1144 234.208L1144.5 234.208L1144.5 230.199L1144 230.199ZM1144 238.218L1143.5 238.218L1143.5 242.227L1144 242.227L1144.5 242.227L1144.5 238.218L1144 238.218ZM1144 246.236L1143.5 246.236L1143.5 250.245L1144 250.245L1144.5 250.245L1144.5 246.236L1144 246.236ZM1144 254.255L1143.5 254.255L1143.5 258.264L1144 258.264L1144.5 258.264L1144.5 254.255L1144 254.255ZM1144 262.273L1143.5 262.273L1143.5 266.282L1144 266.282L1144.5 266.282L1144.5 262.273L1144 262.273ZM1144 270.292L1143.5 270.292L1143.5 274.301L1144 274.301L1144.5 274.301L1144.5 270.292L1144 270.292ZM1144 278.31L1143.5 278.31L1143.5 282.319L1144 282.319L1144.5 282.319L1144.5 278.31L1144 278.31ZM1144 286.329L1143.5 286.329L1143.5 290.338L1144 290.338L1144.5 290.338L1144.5 286.329L1144 286.329ZM1144 294.347L1143.5 294.347L1143.5 298.357L1144 298.357L1144.5 298.357L1144.5 294.347L1144 294.347ZM1144 302.366L1143.5 302.366L1143.5 306.375L1144 306.375L1144.5 306.375L1144.5 302.366L1144 302.366ZM1144 310.384L1143.5 310.384L1143.5 314.394L1144 314.394L1144.5 314.394L1144.5 310.384L1144 310.384ZM1144 318.403L1143.5 318.403L1143.5 322.412L1144 322.412L1144.5 322.412L1144.5 318.403L1144 318.403ZM1144 326.421L1143.5 326.421L1143.5 330.431L1144 330.431L1144.5 330.431L1144.5 326.421L1144 326.421ZM1144 334.44L1143.5 334.44L1143.5 338.449L1144 338.449L1144.5 338.449L1144.5 334.44L1144 334.44ZM1144 342.458L1143.5 342.458L1143.5 346.468L1144 346.468L1144.5 346.468L1144.5 342.458L1144 342.458ZM1144 350.477L1143.5 350.477L1143.5 354.486L1144 354.486L1144.5 354.486L1144.5 350.477L1144 350.477ZM1144 358.495L1143.5 358.495L1143.5 362.505L1144 362.505L1144.5 362.505L1144.5 358.495L1144 358.495ZM1144 366.514L1143.5 366.514L1143.5 370.523L1144 370.523L1144.5 370.523L1144.5 366.514L1144 366.514ZM1144 374.533L1143.5 374.533L1143.5 378.542L1144 378.542L1144.5 378.542L1144.5 374.533L1144 374.533ZM1144 382.551L1143.5 382.551L1143.5 386.56L1144 386.56L1144.5 386.56L1144.5 382.551L1144 382.551ZM1144 390.57L1143.5 390.57L1143.5 394.579L1144 394.579L1144.5 394.579L1144.5 390.57L1144 390.57ZM1144 398.588L1143.5 398.588L1143.5 402.597L1144 402.597L1144.5 402.597L1144.5 398.588L1144 398.588ZM1144 406.607L1143.5 406.607L1143.5 410.616L1144 410.616L1144.5 410.616L1144.5 406.607L1144 406.607ZM1144 414.625L1143.5 414.625L1143.5 418.634L1144 418.634L1144.5 418.634L1144.5 414.625L1144 414.625ZM1144 422.644L1143.5 422.644L1143.5 426.653L1144 426.653L1144.5 426.653L1144.5 422.644L1144 422.644ZM1144 430.662L1143.5 430.662L1143.5 434.671L1144 434.671L1144.5 434.671L1144.5 430.662L1144 430.662ZM1144 438.681L1143.5 438.681L1143.5 442.69L1144 442.69L1144.5 442.69L1144.5 438.681L1144 438.681ZM1144 446.699L1143.5 446.699L1143.5 450.708L1144 450.708L1144.5 450.708L1144.5 446.699L1144 446.699ZM1144 454.718L1143.5 454.718L1143.5 458.727L1144 458.727L1144.5 458.727L1144.5 454.718L1144 454.718ZM1144 462.736L1143.5 462.736L1143.5 466.745L1144 466.745L1144.5 466.745L1144.5 462.736L1144 462.736ZM1144 470.755L1143.5 470.755L1143.5 474.764L1144 474.764L1144.5 474.764L1144.5 470.755L1144 470.755ZM1144 478.773L1143.5 478.773L1143.5 482.782L1144 482.782L1144.5 482.782L1144.5 478.773L1144 478.773ZM1144 486.792L1143.5 486.792L1143.5 490.801L1144 490.801L1144.5 490.801L1144.5 486.792L1144 486.792ZM1144 494.81L1143.5 494.81L1143.5 498.819L1144 498.819L1144.5 498.819L1144.5 494.81L1144 494.81ZM1144 502.829L1143.5 502.829L1143.5 506.838L1144 506.838L1144.5 506.838L1144.5 502.829L1144 502.829ZM1144 510.847L1143.5 510.847L1143.5 514.856L1144 514.856L1144.5 514.856L1144.5 510.847L1144 510.847ZM1144 518.866L1143.5 518.866L1143.5 522.875L1144 522.875L1144.5 522.875L1144.5 518.866L1144 518.866ZM1144 526.884L1143.5 526.884L1143.5 530.893L1144 530.893L1144.5 530.893L1144.5 526.884L1144 526.884ZM1144 534.902L1143.5 534.902L1143.5 538.912L1144 538.912L1144.5 538.912L1144.5 534.902L1144 534.902ZM1144 542.921L1143.5 542.921L1143.5 546.93L1144 546.93L1144.5 546.93L1144.5 542.921L1144 542.921ZM1144 550.939L1143.5 550.939L1143.5 554.949L1144 554.949L1144.5 554.949L1144.5 550.939L1144 550.939ZM1144 558.958L1143.5 558.958L1143.5 562.967L1144 562.967L1144.5 562.967L1144.5 558.958L1144 558.958ZM1144 566.976L1143.5 566.976L1143.5 570.986L1144 570.986L1144.5 570.986L1144.5 566.976L1144 566.976ZM1144 574.995L1143.5 574.995L1143.5 577L1144 577L1144.5 577L1144.5 574.995L1144 574.995ZM1144 577L1143.5 577C1143.5 577.502 1143.45 577.991 1143.36 578.464L1143.85 578.561L1144.34 578.658C1144.44 578.122 1144.5 577.567 1144.5 577L1144 577ZM1142.65 581.445L1142.24 581.167C1141.69 581.985 1140.98 582.689 1140.17 583.237L1140.44 583.653L1140.72 584.068C1141.65 583.448 1142.45 582.65 1143.07 581.723L1142.65 581.445ZM1137.56 584.848L1137.46 584.357C1136.99 584.451 1136.5 584.5 1136 584.5L1136 585L1136 585.5C1136.57 585.5 1137.12 585.444 1137.66 585.338L1137.56 584.848ZM1136 585L1136 584.5L1133.99 584.5L1133.99 585L1133.99 585.5L1136 585.5L1136 585ZM1129.97 585L1129.97 584.5L1125.95 584.5L1125.95 585L1125.95 585.5L1129.97 585.5L1129.97 585ZM1121.93 585L1121.93 584.5L1117.9 584.5L1117.9 585L1117.9 585.5L1121.93 585.5L1121.93 585ZM1113.88 585L1113.88 584.5L1109.86 584.5L1109.86 585L1109.86 585.5L1113.88 585.5L1113.88 585ZM1105.84 585L1105.84 584.5L1101.82 584.5L1101.82 585L1101.82 585.5L1105.84 585.5L1105.84 585ZM1097.8 585L1097.8 584.5L1093.78 584.5L1093.78 585L1093.78 585.5L1097.8 585.5L1097.8 585ZM1089.76 585L1089.76 584.5L1085.73 584.5L1085.73 585L1085.73 585.5L1089.76 585.5L1089.76 585ZM1081.71 585L1081.71 584.5L1077.69 584.5L1077.69 585L1077.69 585.5L1081.71 585.5L1081.71 585ZM1073.67 585L1073.67 584.5L1069.65 584.5L1069.65 585L1069.65 585.5L1073.67 585.5L1073.67 585ZM1065.63 585L1065.63 584.5L1061.61 584.5L1061.61 585L1061.61 585.5L1065.63 585.5L1065.63 585ZM1057.59 585L1057.59 584.5L1053.56 584.5L1053.56 585L1053.56 585.5L1057.59 585.5L1057.59 585ZM1049.54 585L1049.54 584.5L1045.52 584.5L1045.52 585L1045.52 585.5L1049.54 585.5L1049.54 585ZM1041.5 585L1041.5 584.5L1037.48 584.5L1037.48 585L1037.48 585.5L1041.5 585.5L1041.5 585ZM1033.46 585L1033.46 584.5L1029.44 584.5L1029.44 585L1029.44 585.5L1033.46 585.5L1033.46 585ZM1025.41 585L1025.41 584.5L1021.39 584.5L1021.39 585L1021.39 585.5L1025.41 585.5L1025.41 585ZM1017.37 585L1017.37 584.5L1013.35 584.5L1013.35 585L1013.35 585.5L1017.37 585.5L1017.37 585ZM1009.33 585L1009.33 584.5L1005.31 584.5L1005.31 585L1005.31 585.5L1009.33 585.5L1009.33 585ZM1001.29 585L1001.29 584.5L997.266 584.5L997.266 585L997.266 585.5L1001.29 585.5L1001.29 585ZM993.245 585L993.245 584.5L989.223 584.5L989.223 585L989.223 585.5L993.245 585.5L993.245 585ZM985.202 585L985.202 584.5L981.181 584.5L981.181 585L981.181 585.5L985.202 585.5L985.202 585ZM977.16 585L977.16 584.5L973.138 584.5L973.138 585L973.138 585.5L977.16 585.5L977.16 585ZM969.117 585L969.117 584.5L965.096 584.5L965.096 585L965.096 585.5L969.117 585.5L969.117 585ZM961.074 585L961.074 584.5L957.053 584.5L957.053 585L957.053 585.5L961.074 585.5L961.074 585ZM953.032 585L953.032 584.5L949.011 584.5L949.011 585L949.011 585.5L953.032 585.5L953.032 585ZM944.989 585L944.989 584.5L940.968 584.5L940.968 585L940.968 585.5L944.989 585.5L944.989 585ZM936.947 585L936.947 584.5L932.926 584.5L932.926 585L932.926 585.5L936.947 585.5L936.947 585ZM928.904 585L928.904 584.5L924.883 584.5L924.883 585L924.883 585.5L928.904 585.5L928.904 585ZM920.862 585L920.862 584.5L916.841 584.5L916.841 585L916.841 585.5L920.862 585.5L920.862 585ZM912.819 585L912.819 584.5L908.798 584.5L908.798 585L908.798 585.5L912.819 585.5L912.819 585ZM904.777 585L904.777 584.5L900.755 584.5L900.755 585L900.755 585.5L904.777 585.5L904.777 585ZM896.734 585L896.734 584.5L892.713 584.5L892.713 585L892.713 585.5L896.734 585.5L896.734 585ZM888.692 585L888.692 584.5L884.67 584.5L884.67 585L884.67 585.5L888.692 585.5L888.692 585ZM880.649 585L880.649 584.5L876.628 584.5L876.628 585L876.628 585.5L880.649 585.5L880.649 585ZM872.607 585L872.607 584.5L868.585 584.5L868.585 585L868.585 585.5L872.607 585.5L872.607 585ZM864.564 585L864.564 584.5L860.543 584.5L860.543 585L860.543 585.5L864.564 585.5L864.564 585ZM856.521 585L856.521 584.5L852.5 584.5L852.5 585L852.5 585.5L856.521 585.5L856.521 585ZM848.479 585L848.479 584.5L844.458 584.5L844.458 585L844.458 585.5L848.479 585.5L848.479 585ZM840.436 585L840.436 584.5L836.415 584.5L836.415 585L836.415 585.5L840.436 585.5L840.436 585ZM832.394 585L832.394 584.5L828.373 584.5L828.373 585L828.373 585.5L832.394 585.5L832.394 585ZM824.351 585L824.351 584.5L820.33 584.5L820.33 585L820.33 585.5L824.351 585.5L824.351 585ZM816.309 585L816.309 584.5L812.287 584.5L812.287 585L812.287 585.5L816.309 585.5L816.309 585ZM808.266 585L808.266 584.5L804.245 584.5L804.245 585L804.245 585.5L808.266 585.5L808.266 585ZM800.224 585L800.224 584.5L796.202 584.5L796.202 585L796.202 585.5L800.224 585.5L800.224 585ZM792.181 585L792.181 584.5L788.16 584.5L788.16 585L788.16 585.5L792.181 585.5L792.181 585ZM784.139 585L784.139 584.5L780.117 584.5L780.117 585L780.117 585.5L784.139 585.5L784.139 585ZM776.096 585L776.096 584.5L772.075 584.5L772.075 585L772.075 585.5L776.096 585.5L776.096 585ZM768.053 585L768.053 584.5L764.032 584.5L764.032 585L764.032 585.5L768.053 585.5L768.053 585ZM760.011 585L760.011 584.5L758 584.5L758 585L758 585.5L760.011 585.5L760.011 585ZM758 585L758 584.5C757.498 584.5 757.009 584.451 756.536 584.357L756.439 584.848L756.342 585.338C756.878 585.444 757.433 585.5 758 585.5L758 585ZM753.555 583.653L753.833 583.237C753.015 582.689 752.311 581.985 751.763 581.167L751.347 581.445L750.932 581.723C751.552 582.65 752.35 583.448 753.277 584.068L753.555 583.653ZM750.152 578.561L750.643 578.464C750.549 577.991 750.5 577.502 750.5 577L750 577L749.5 577C749.5 577.567 749.556 578.122 749.662 578.658L750.152 578.561ZM750 577L750.5 577L750.5 574.995L750 574.995L749.5 574.995L749.5 577L750 577ZM750 570.986L750.5 570.986L750.5 566.977L750 566.977L749.5 566.977L749.5 570.986L750 570.986ZM750 562.968L750.5 562.968L750.5 558.958L750 558.958L749.5 558.958L749.5 562.968L750 562.968ZM750 554.949L750.5 554.949L750.5 550.94L750 550.94L749.5 550.94L749.5 554.949L750 554.949ZM750 546.931L750.5 546.931L750.5 542.921L750 542.921L749.5 542.921L749.5 546.931L750 546.931ZM750 538.912L750.5 538.912L750.5 534.903L750 534.903L749.5 534.903L749.5 538.912L750 538.912ZM750 530.894L750.5 530.894L750.5 526.884L750 526.884L749.5 526.884L749.5 530.894L750 530.894ZM750 522.875L750.5 522.875L750.5 518.866L750 518.866L749.5 518.866L749.5 522.875L750 522.875ZM750 514.856L750.5 514.856L750.5 510.847L750 510.847L749.5 510.847L749.5 514.856L750 514.856ZM750 506.838L750.5 506.838L750.5 502.829L750 502.829L749.5 502.829L749.5 506.838L750 506.838ZM750 498.819L750.5 498.819L750.5 494.81L750 494.81L749.5 494.81L749.5 498.819L750 498.819ZM750 490.801L750.5 490.801L750.5 486.792L750 486.792L749.5 486.792L749.5 490.801L750 490.801ZM750 482.782L750.5 482.782L750.5 478.773L750 478.773L749.5 478.773L749.5 482.782L750 482.782ZM750 474.764L750.5 474.764L750.5 470.755L750 470.755L749.5 470.755L749.5 474.764L750 474.764ZM750 466.745L750.5 466.745L750.5 462.736L750 462.736L749.5 462.736L749.5 466.745L750 466.745ZM750 458.727L750.5 458.727L750.5 454.718L750 454.718L749.5 454.718L749.5 458.727L750 458.727ZM750 450.708L750.5 450.708L750.5 446.699L750 446.699L749.5 446.699L749.5 450.708L750 450.708ZM750 442.69L750.5 442.69L750.5 438.681L750 438.681L749.5 438.681L749.5 442.69L750 442.69ZM750 434.671L750.5 434.671L750.5 430.662L750 430.662L749.5 430.662L749.5 434.671L750 434.671ZM750 426.653L750.5 426.653L750.5 422.643L750 422.643L749.5 422.643L749.5 426.653L750 426.653ZM750 418.634L750.5 418.634L750.5 414.625L750 414.625L749.5 414.625L749.5 418.634L750 418.634ZM750 410.616L750.5 410.616L750.5 406.606L750 406.606L749.5 406.606L749.5 410.616L750 410.616ZM750 402.597L750.5 402.597L750.5 398.588L750 398.588L749.5 398.588L749.5 402.597L750 402.597ZM750 394.579L750.5 394.579L750.5 390.569L750 390.569L749.5 390.569L749.5 394.579L750 394.579ZM750 386.56L750.5 386.56L750.5 382.551L750 382.551L749.5 382.551L749.5 386.56L750 386.56ZM750 378.542L750.5 378.542L750.5 374.532L750 374.532L749.5 374.532L749.5 378.542L750 378.542ZM750 370.523L750.5 370.523L750.5 366.514L750 366.514L749.5 366.514L749.5 370.523L750 370.523ZM750 362.505L750.5 362.505L750.5 358.495L750 358.495L749.5 358.495L749.5 362.505L750 362.505ZM750 354.486L750.5 354.486L750.5 350.477L750 350.477L749.5 350.477L749.5 354.486L750 354.486ZM750 346.467L750.5 346.467L750.5 342.458L750 342.458L749.5 342.458L749.5 346.467L750 346.467ZM750 338.449L750.5 338.449L750.5 334.44L750 334.44L749.5 334.44L749.5 338.449L750 338.449ZM750 330.43L750.5 330.43L750.5 326.421L750 326.421L749.5 326.421L749.5 330.43L750 330.43ZM750 322.412L750.5 322.412L750.5 318.403L750 318.403L749.5 318.403L749.5 322.412L750 322.412ZM750 314.393L750.5 314.393L750.5 310.384L750 310.384L749.5 310.384L749.5 314.393L750 314.393ZM750 306.375L750.5 306.375L750.5 302.366L750 302.366L749.5 302.366L749.5 306.375L750 306.375ZM750 298.356L750.5 298.356L750.5 294.347L750 294.347L749.5 294.347L749.5 298.356L750 298.356ZM750 290.338L750.5 290.338L750.5 286.329L750 286.329L749.5 286.329L749.5 290.338L750 290.338ZM750 282.319L750.5 282.319L750.5 278.31L750 278.31L749.5 278.31L749.5 282.319L750 282.319ZM750 274.301L750.5 274.301L750.5 270.292L750 270.292L749.5 270.292L749.5 274.301L750 274.301ZM750 266.282L750.5 266.282L750.5 262.273L750 262.273L749.5 262.273L749.5 266.282L750 266.282ZM750 258.264L750.5 258.264L750.5 254.255L750 254.255L749.5 254.255L749.5 258.264L750 258.264ZM750 250.245L750.5 250.245L750.5 246.236L750 246.236L749.5 246.236L749.5 250.245L750 250.245ZM750 242.227L750.5 242.227L750.5 238.218L750 238.218L749.5 238.218L749.5 242.227L750 242.227ZM750 234.208L750.5 234.208L750.5 230.199L750 230.199L749.5 230.199L749.5 234.208L750 234.208ZM750 226.19L750.5 226.19L750.5 222.181L750 222.181L749.5 222.181L749.5 226.19L750 226.19ZM750 218.171L750.5 218.171L750.5 214.162L750 214.162L749.5 214.162L749.5 218.171L750 218.171ZM750 210.153L750.5 210.153L750.5 206.144L750 206.144L749.5 206.144L749.5 210.153L750 210.153ZM750 202.135L750.5 202.135L750.5 198.125L750 198.125L749.5 198.125L749.5 202.135L750 202.135ZM750 194.116L750.5 194.116L750.5 190.107L750 190.107L749.5 190.107L749.5 194.116L750 194.116ZM750 186.098L750.5 186.098L750.5 182.088L750 182.088L749.5 182.088L749.5 186.098L750 186.098ZM750 178.079L750.5 178.079L750.5 174.07L750 174.07L749.5 174.07L749.5 178.079L750 178.079ZM750 170.061L750.5 170.061L750.5 166.051L750 166.051L749.5 166.051L749.5 170.061L750 170.061ZM750 162.042L750.5 162.042L750.5 158.033L750 158.033L749.5 158.033L749.5 162.042L750 162.042ZM750 154.024L750.5 154.024L750.5 150.014L750 150.014L749.5 150.014L749.5 154.024L750 154.024ZM750 146.005L750.5 146.005L750.5 144L750 144L749.5 144L749.5 146.005L750 146.005Z" fill="white"/>
<path d="M394 484C394 479.582 397.582 476 402 476H646C650.418 476 654 479.582 654 484V507C654 511.418 650.418 515 646 515H402C397.582 515 394 511.418 394 507V484Z" fill="white" fill-opacity="0.2"/>
<text fill="white" xml:space="preserve" style="white-space: pre" font-family="Red Hat Mono" font-size="16" font-weight="600" letter-spacing="0em"><tspan x="428.062" y="501.204">Multi-Head Attention</tspan></text>
<path d="M763 484C763 479.582 766.582 476 771 476H1015C1019.42 476 1023 479.582 1023 484V507C1023 511.418 1019.42 515 1015 515H771C766.582 515 763 511.418 763 507V484Z" fill="white" fill-opacity="0.2"/>
<text fill="white" xml:space="preserve" style="white-space: pre" font-family="Red Hat Mono" font-size="16" font-weight="600" letter-spacing="0em"><tspan x="797.062" y="501.204">Multi-Head Attention</tspan></text>
<path d="M771 77V78H1015V77V76H771V77ZM1023 85H1022V108H1023H1024V85H1023ZM1015 116V115H771V116V117H1015V116ZM763 108H764V85H763H762V108H763ZM771 116V115C767.134 115 764 111.866 764 108H763H762C762 112.971 766.029 117 771 117V116ZM1023 108H1022C1022 111.866 1018.87 115 1015 115V116V117C1019.97 117 1024 112.971 1024 108H1023ZM1015 77V78C1018.87 78 1022 81.134 1022 85H1023H1024C1024 80.0294 1019.97 76 1015 76V77ZM771 77V76C766.029 76 762 80.0294 762 85H763H764C764 81.134 767.134 78 771 78V77Z" fill="white"/>
<text fill="white" xml:space="preserve" style="white-space: pre" font-family="Red Hat Mono" font-size="16" font-weight="600" letter-spacing="0em"><tspan x="825.844" y="102.204">Inference Head</tspan></text>
<path d="M402 609V610H646V609V608H402V609ZM654 617H653V640H654H655V617H654ZM646 648V647H402V648V649H646V648ZM394 640H395V617H394H393V640H394ZM402 648V647C398.134 647 395 643.866 395 640H394H393C393 644.971 397.029 649 402 649V648ZM654 640H653C653 643.866 649.866 647 646 647V648V649C650.971 649 655 644.971 655 640H654ZM646 609V610C649.866 610 653 613.134 653 617H654H655C655 612.029 650.971 608 646 608V609ZM402 609V608C397.029 608 393 612.029 393 617H394H395C395 613.134 398.134 610 402 610V609Z" fill="white"/>
<text fill="white" xml:space="preserve" style="white-space: pre" font-family="Red Hat Mono" font-size="16" font-weight="600" letter-spacing="0em"><tspan x="466.438" y="634.204">Tokenization</tspan></text>
<path d="M771 609V610H1015V609V608H771V609ZM1023 617H1022V640H1023H1024V617H1023ZM1015 648V647H771V648V649H1015V648ZM763 640H764V617H763H762V640H763ZM771 648V647C767.134 647 764 643.866 764 640H763H762C762 644.971 766.029 649 771 649V648ZM1023 640H1022C1022 643.866 1018.87 647 1015 647V648V649C1019.97 649 1024 644.971 1024 640H1023ZM1015 609V610C1018.87 610 1022 613.134 1022 617H1023H1024C1024 612.029 1019.97 608 1015 608V609ZM771 609V608C766.029 608 762 612.029 762 617H763H764C764 613.134 767.134 610 771 610V609Z" fill="white"/>
<text fill="white" xml:space="preserve" style="white-space: pre" font-family="Red Hat Mono" font-size="16" font-weight="600" letter-spacing="0em"><tspan x="835.438" y="634.204">Tokenization</tspan></text>
<path d="M394 356C394 351.582 397.582 348 402 348H646C650.418 348 654 351.582 654 356V379C654 383.418 650.418 387 646 387H402C397.582 387 394 383.418 394 379V356Z" fill="white" fill-opacity="0.2"/>
<text fill="white" xml:space="preserve" style="white-space: pre" font-family="Red Hat Mono" font-size="16" font-weight="600" letter-spacing="0em"><tspan x="466.438" y="373.204">Feed Forward</tspan></text>
<path d="M763 356C763 351.582 766.582 348 771 348H1015C1019.42 348 1023 351.582 1023 356V379C1023 383.418 1019.42 387 1015 387H771C766.582 387 763 383.418 763 379V356Z" fill="white" fill-opacity="0.2"/>
<text fill="white" xml:space="preserve" style="white-space: pre" font-family="Red Hat Mono" font-size="16" font-weight="600" letter-spacing="0em"><tspan x="835.438" y="373.204">Feed Forward</tspan></text>
<path d="M394 433C394 428.582 397.582 425 402 425H646C650.418 425 654 428.582 654 433V456C654 460.418 650.418 464 646 464H402C397.582 464 394 460.418 394 456V433Z" fill="white" fill-opacity="0.1"/>
<text fill="white" xml:space="preserve" style="white-space: pre" font-family="Red Hat Mono" font-size="16" font-weight="600" letter-spacing="0em"><tspan x="476.031" y="450.204">Sum &#38; Norm</tspan></text>
<path d="M763 433C763 428.582 766.582 425 771 425H1015C1019.42 425 1023 428.582 1023 433V456C1023 460.418 1019.42 464 1015 464H771C766.582 464 763 460.418 763 456V433Z" fill="white" fill-opacity="0.1"/>
<text fill="white" xml:space="preserve" style="white-space: pre" font-family="Red Hat Mono" font-size="16" font-weight="600" letter-spacing="0em"><tspan x="845.031" y="450.204">Sum &#38; Norm</tspan></text>
<path d="M394 305C394 300.582 397.582 297 402 297H646C650.418 297 654 300.582 654 305V328C654 332.418 650.418 336 646 336H402C397.582 336 394 332.418 394 328V305Z" fill="white" fill-opacity="0.1"/>
<text fill="white" xml:space="preserve" style="white-space: pre" font-family="Red Hat Mono" font-size="16" font-weight="600" letter-spacing="0em"><tspan x="476.031" y="322.204">Sum &#38; Norm</tspan></text>
<path d="M763 305C763 300.582 766.582 297 771 297H1015C1019.42 297 1023 300.582 1023 305V328C1023 332.418 1019.42 336 1015 336H771C766.582 336 763 332.418 763 328V305Z" fill="white" fill-opacity="0.1"/>
<text fill="white" xml:space="preserve" style="white-space: pre" font-family="Red Hat Mono" font-size="16" font-weight="600" letter-spacing="0em"><tspan x="845.031" y="322.204">Sum &#38; Norm</tspan></text>
<path d="M524.707 647.293C524.317 646.902 523.683 646.902 523.293 647.293L516.929 653.657C516.538 654.047 516.538 654.681 516.929 655.071C517.319 655.462 517.953 655.462 518.343 655.071L524 649.414L529.657 655.071C530.047 655.462 530.681 655.462 531.071 655.071C531.462 654.681 531.462 654.047 531.071 653.657L524.707 647.293ZM524 674H525V648H524H523V674H524Z" fill="white"/>
<path d="M893.707 647.293C893.317 646.902 892.683 646.902 892.293 647.293L885.929 653.657C885.538 654.047 885.538 654.681 885.929 655.071C886.319 655.462 886.953 655.462 887.343 655.071L893 649.414L898.657 655.071C899.047 655.462 899.681 655.462 900.071 655.071C900.462 654.681 900.462 654.047 900.071 653.657L893.707 647.293ZM893 674H894V648H893H892V674H893Z" fill="white"/>
<path d="M893.707 50.2929C893.317 49.9024 892.683 49.9024 892.293 50.2929L885.929 56.6569C885.538 57.0474 885.538 57.6805 885.929 58.0711C886.319 58.4616 886.953 58.4616 887.343 58.0711L893 52.4142L898.657 58.0711C899.047 58.4616 899.681 58.4616 900.071 58.0711C900.462 57.6805 900.462 57.0474 900.071 56.6569L893.707 50.2929ZM893 77H894V51H893H892V77H893Z" fill="white"/>
<path d="M524.707 514.293C524.317 513.902 523.683 513.902 523.293 514.293L516.929 520.657C516.538 521.047 516.538 521.681 516.929 522.071C517.319 522.462 517.953 522.462 518.343 522.071L524 516.414L529.657 522.071C530.047 522.462 530.681 522.462 531.071 522.071C531.462 521.681 531.462 521.047 531.071 520.657L524.707 514.293ZM524 609H525V515H524H523V609H524Z" fill="white"/>
<path d="M893.707 514.293C893.317 513.902 892.683 513.902 892.293 514.293L885.929 520.657C885.538 521.047 885.538 521.681 885.929 522.071C886.319 522.462 886.953 522.462 887.343 522.071L893 516.414L898.657 522.071C899.047 522.462 899.681 522.462 900.071 522.071C900.462 521.681 900.462 521.047 900.071 520.657L893.707 514.293ZM893 609L894 609L894 515L893 515L892 515L892 609L893 609Z" fill="white"/>
<path d="M524.707 463.293C524.317 462.902 523.683 462.902 523.293 463.293L516.929 469.657C516.538 470.047 516.538 470.681 516.929 471.071C517.319 471.462 517.953 471.462 518.343 471.071L524 465.414L529.657 471.071C530.047 471.462 530.681 471.462 531.071 471.071C531.462 470.681 531.462 470.047 531.071 469.657L524.707 463.293ZM524 476H525V464H524H523V476H524Z" fill="white"/>
<path d="M893.707 463.293C893.317 462.902 892.683 462.902 892.293 463.293L885.929 469.657C885.538 470.047 885.538 470.681 885.929 471.071C886.319 471.462 886.953 471.462 887.343 471.071L893 465.414L898.657 471.071C899.047 471.462 899.681 471.462 900.071 471.071C900.462 470.681 900.462 470.047 900.071 469.657L893.707 463.293ZM893 476H894V464H893H892V476H893Z" fill="white"/>
<path d="M524.707 386.793C524.317 386.402 523.683 386.402 523.293 386.793L516.929 393.157C516.538 393.547 516.538 394.181 516.929 394.571C517.319 394.962 517.953 394.962 518.343 394.571L524 388.914L529.657 394.571C530.047 394.962 530.681 394.962 531.071 394.571C531.462 394.181 531.462 393.547 531.071 393.157L524.707 386.793ZM524 425H525V387.5H524H523V425H524Z" fill="white"/>
<path d="M844.707 386.793C844.317 386.402 843.683 386.402 843.293 386.793L836.929 393.157C836.538 393.547 836.538 394.181 836.929 394.571C837.319 394.962 837.953 394.962 838.343 394.571L844 388.914L849.657 394.571C850.047 394.962 850.681 394.962 851.071 394.571C851.462 394.181 851.462 393.547 851.071 393.157L844.707 386.793ZM844 403H845V387.5H844H843V403H844Z" fill="white"/>
<path d="M524.707 335.293C524.317 334.902 523.683 334.902 523.293 335.293L516.929 341.657C516.538 342.047 516.538 342.681 516.929 343.071C517.319 343.462 517.953 343.462 518.343 343.071L524 337.414L529.657 343.071C530.047 343.462 530.681 343.462 531.071 343.071C531.462 342.681 531.462 342.047 531.071 341.657L524.707 335.293ZM524 348H525V336H524H523V348H524Z" fill="white"/>
<path d="M893.707 335.293C893.317 334.902 892.683 334.902 892.293 335.293L885.929 341.657C885.538 342.047 885.538 342.681 885.929 343.071C886.319 343.462 886.953 343.462 887.343 343.071L893 337.414L898.657 343.071C899.047 343.462 899.681 343.462 900.071 343.071C900.462 342.681 900.462 342.047 900.071 341.657L893.707 335.293ZM893 348H894V336H893H892V348H893Z" fill="white"/>
<path d="M475.707 514.293C475.317 513.902 474.683 513.902 474.293 514.293L467.929 520.657C467.538 521.047 467.538 521.681 467.929 522.071C468.319 522.462 468.953 522.462 469.343 522.071L475 516.414L480.657 522.071C481.047 522.462 481.681 522.462 482.071 522.071C482.462 521.681 482.462 521.047 482.071 520.657L475.707 514.293ZM524 542V541H483V542V543H524V542ZM475 534H476V515H475H474V534H475ZM483 542V541C479.134 541 476 537.866 476 534H475H474C474 538.971 478.029 543 483 543V542Z" fill="white"/>
<path d="M844.707 514.293C844.317 513.902 843.683 513.902 843.293 514.293L836.929 520.657C836.538 521.047 836.538 521.681 836.929 522.071C837.319 522.462 837.953 522.462 838.343 522.071L844 516.414L849.657 522.071C850.047 522.462 850.681 522.462 851.071 522.071C851.462 521.681 851.462 521.047 851.071 520.657L844.707 514.293ZM893 542V541H852V542V543H893V542ZM844 534H845V515H844H843V534H844ZM852 542V541C848.134 541 845 537.866 845 534H844H843C843 538.971 847.029 543 852 543V542Z" fill="white"/>
<path d="M892.293 387.293C892.683 386.902 893.317 386.902 893.707 387.293L900.071 393.657C900.462 394.047 900.462 394.681 900.071 395.071C899.681 395.462 899.047 395.462 898.657 395.071L893 389.414L887.343 395.071C886.953 395.462 886.319 395.462 885.929 395.071C885.538 394.681 885.538 394.047 885.929 393.657L892.293 387.293ZM718.5 403.5V402.5H885V403.5V404.5H718.5V403.5ZM893 395.5H892V388H893H894V395.5H893ZM710.5 395.5H709.5V229H710.5H711.5V395.5H710.5ZM524 229H525V297H524H523V229H524ZM702.5 221V222H617.25V221V220H702.5V221ZM617.25 221V222H532V221V220H617.25V221ZM524 229H523C523 224.029 527.029 220 532 220V221V222C528.134 222 525 225.134 525 229H524ZM710.5 229H709.5C709.5 225.134 706.366 222 702.5 222V221V220C707.471 220 711.5 224.029 711.5 229H710.5ZM885 403.5V402.5C888.866 402.5 892 399.366 892 395.5H893H894C894 400.471 889.971 404.5 885 404.5V403.5ZM718.5 403.5V404.5C713.529 404.5 709.5 400.471 709.5 395.5H710.5H711.5C711.5 399.366 714.634 402.5 718.5 402.5V403.5Z" fill="white"/>
<path d="M573.293 514.293C573.683 513.902 574.317 513.902 574.707 514.293L581.071 520.657C581.462 521.047 581.462 521.681 581.071 522.071C580.681 522.462 580.047 522.462 579.657 522.071L574 516.414L568.343 522.071C567.953 522.462 567.319 522.462 566.929 522.071C566.538 521.681 566.538 521.047 566.929 520.657L573.293 514.293ZM525 542V541H566V542V543H525V542ZM574 534H573V515H574H575V534H574ZM566 542V541C569.866 541 573 537.866 573 534H574H575C575 538.971 570.971 543 566 543V542Z" fill="white"/>
<path d="M942.293 514.293C942.683 513.902 943.317 513.902 943.707 514.293L950.071 520.657C950.462 521.047 950.462 521.681 950.071 522.071C949.681 522.462 949.047 522.462 948.657 522.071L943 516.414L937.343 522.071C936.953 522.462 936.319 522.462 935.929 522.071C935.538 521.681 935.538 521.047 935.929 520.657L942.293 514.293ZM894 542V541H935V542V543H894V542ZM943 534H942V515H943H944V534H943ZM935 542V541C938.866 541 942 537.866 942 534H943H944C944 538.971 939.971 543 935 543V542Z" fill="white"/>
<path d="M942.293 387.293C942.683 386.902 943.317 386.902 943.707 387.293L950.071 393.657C950.462 394.047 950.462 394.681 950.071 395.071C949.681 395.462 949.047 395.462 948.657 395.071L943 389.414L937.343 395.071C936.953 395.462 936.319 395.462 935.929 395.071C935.538 394.681 935.538 394.047 935.929 393.657L942.293 387.293ZM902 415V414H935V415V416H902V415ZM943 407H942V388H943H944V407H943ZM894 423H895V425H894H893V423H894ZM935 415V414C938.866 414 942 410.866 942 407H943H944C944 411.971 939.971 416 935 416V415ZM902 415V416C898.134 416 895 419.134 895 423H894H893C893 418.029 897.029 414 902 414V415Z" fill="white"/>
<path d="M394.918 451.707C395.309 451.317 395.309 450.683 394.918 450.293L388.554 443.929C388.164 443.538 387.53 443.538 387.14 443.929C386.749 444.319 386.749 444.953 387.14 445.343L392.797 451L387.14 456.657C386.749 457.047 386.749 457.681 387.14 458.071C387.53 458.462 388.164 458.462 388.554 458.071L394.918 451.707ZM524 553V552H360V553V554H524V553ZM352 545H353V459H352H351V545H352ZM360 451V452H394.211V451V450H360V451ZM352 459H353C353 455.134 356.134 452 360 452V451V450C355.029 450 351 454.029 351 459H352ZM360 553V552C356.134 552 353 548.866 353 545H352H351C351 549.971 355.029 554 360 554V553Z" fill="white"/>
<path d="M1022.08 451.707C1021.69 451.317 1021.69 450.683 1022.08 450.293L1028.45 443.929C1028.84 443.538 1029.47 443.538 1029.86 443.929C1030.25 444.319 1030.25 444.953 1029.86 445.343L1024.2 451L1029.86 456.657C1030.25 457.047 1030.25 457.681 1029.86 458.071C1029.47 458.462 1028.84 458.462 1028.45 458.071L1022.08 451.707ZM893 553V552H1057V553V554H893V553ZM1065 545H1064V459H1065H1066V545H1065ZM1057 451V452H1022.79V451V450H1057V451ZM1065 459H1064C1064 455.134 1060.87 452 1057 452V451V450C1061.97 450 1066 454.029 1066 459H1065ZM1057 553V552C1060.87 552 1064 548.866 1064 545H1065H1066C1066 549.971 1061.97 554 1057 554V553Z" fill="white"/>
<path d="M394.83 317.707C395.22 317.317 395.22 316.683 394.83 316.293L388.466 309.929C388.075 309.538 387.442 309.538 387.051 309.929C386.661 310.319 386.661 310.953 387.051 311.343L392.708 317L387.051 322.657C386.661 323.047 386.661 323.681 387.051 324.071C387.442 324.462 388.075 324.462 388.466 324.071L394.83 317.707ZM524 416V415H360V416V417H524V416ZM352 408H353V325H352H351V408H352ZM360 317V318H394.122V317V316H360V317ZM352 325H353C353 321.134 356.134 318 360 318V317V316C355.029 316 351 320.029 351 325H352ZM360 416V415C356.134 415 353 411.866 353 408H352H351C351 412.971 355.029 417 360 417V416Z" fill="white"/>
<text fill="white" xml:space="preserve" style="white-space: pre" font-family="Red Hat Mono" font-size="16" font-weight="600" letter-spacing="0em"><tspan x="499.516" y="690.204">Input</tspan></text>
<text fill="white" xml:space="preserve" style="white-space: pre" font-family="Red Hat Mono" font-size="16" font-weight="600" letter-spacing="0em"><tspan x="868.516" y="690.204">Input</tspan></text>
<text fill="white" xml:space="preserve" style="white-space: pre" font-family="Red Hat Mono" font-size="16" font-weight="600" letter-spacing="0em"><tspan x="863.719" y="40.204">Output</tspan></text>
<text fill="white" xml:space="preserve" style="white-space: pre" font-family="Red Hat Mono" font-size="16" font-weight="600" letter-spacing="0em"><tspan x="133.141" y="442.204">Encoder Block&#10;</tspan><tspan x="128.344" y="463.204">Repeat N Times</tspan></text>
<text fill="white" xml:space="preserve" style="white-space: pre" font-family="Red Hat Mono" font-size="16" font-weight="600" letter-spacing="0em"><tspan x="1164.14" y="442.204">Decoder Block&#10;</tspan><tspan x="1159.34" y="463.204">Repeat N Times</tspan></text>
<path d="M1022.29 315.293C1021.9 315.683 1021.9 316.317 1022.29 316.707L1028.66 323.071C1029.05 323.462 1029.68 323.462 1030.07 323.071C1030.46 322.681 1030.46 322.047 1030.07 321.657L1024.41 316L1030.07 310.343C1030.46 309.953 1030.46 309.319 1030.07 308.929C1029.68 308.538 1029.05 308.538 1028.66 308.929L1022.29 315.293ZM936 415V416H1056.5V415V414H936V415ZM1064.5 407H1065.5V324H1064.5H1063.5V407H1064.5ZM1056.5 316V315H1023V316V317H1056.5V316ZM1064.5 324H1065.5C1065.5 319.029 1061.47 315 1056.5 315V316V317C1060.37 317 1063.5 320.134 1063.5 324H1064.5ZM1056.5 415V416C1061.47 416 1065.5 411.971 1065.5 407H1064.5H1063.5C1063.5 410.866 1060.37 414 1056.5 414V415Z" fill="white"/>
<path d="M763 228C763 223.582 766.582 220 771 220H1015C1019.42 220 1023 223.582 1023 228V251C1023 255.418 1019.42 259 1015 259H771C766.582 259 763 255.418 763 251V228Z" fill="white" fill-opacity="0.2"/>
<text fill="white" xml:space="preserve" style="white-space: pre" font-family="Red Hat Mono" font-size="16" font-weight="600" letter-spacing="0em"><tspan x="835.438" y="245.204">Feed Forward</tspan></text>
<path d="M763 177C763 172.582 766.582 169 771 169H1015C1019.42 169 1023 172.582 1023 177V200C1023 204.418 1019.42 208 1015 208H771C766.582 208 763 204.418 763 200V177Z" fill="white" fill-opacity="0.1"/>
<text fill="white" xml:space="preserve" style="white-space: pre" font-family="Red Hat Mono" font-size="16" font-weight="600" letter-spacing="0em"><tspan x="845.031" y="194.204">Sum &#38; Norm</tspan></text>
<path d="M893.707 258.793C893.317 258.402 892.683 258.402 892.293 258.793L885.929 265.157C885.538 265.547 885.538 266.181 885.929 266.571C886.319 266.962 886.953 266.962 887.343 266.571L893 260.914L898.657 266.571C899.047 266.962 899.681 266.962 900.071 266.571C900.462 266.181 900.462 265.547 900.071 265.157L893.707 258.793ZM893 297H894V259.5H893H892V297H893Z" fill="white"/>
<path d="M893.707 115.293C893.317 114.902 892.683 114.902 892.293 115.293L885.929 121.657C885.538 122.047 885.538 122.681 885.929 123.071C886.319 123.462 886.953 123.462 887.343 123.071L893 117.414L898.657 123.071C899.047 123.462 899.681 123.462 900.071 123.071C900.462 122.681 900.462 122.047 900.071 121.657L893.707 115.293ZM893 169L894 169L894 116L893 116L892 116L892 169L893 169Z" fill="white"/>
<path d="M893.707 207.293C893.317 206.902 892.683 206.902 892.293 207.293L885.929 213.657C885.538 214.047 885.538 214.681 885.929 215.071C886.319 215.462 886.953 215.462 887.343 215.071L893 209.414L898.657 215.071C899.047 215.462 899.681 215.462 900.071 215.071C900.462 214.681 900.462 214.047 900.071 213.657L893.707 207.293ZM893 220H894V208H893H892V220H893Z" fill="white"/>
<path d="M1022.17 189.707C1021.78 189.317 1021.78 188.683 1022.17 188.293L1028.53 181.929C1028.92 181.538 1029.56 181.538 1029.95 181.929C1030.34 182.319 1030.34 182.953 1029.95 183.343L1024.29 189L1029.95 194.657C1030.34 195.047 1030.34 195.681 1029.95 196.071C1029.56 196.462 1028.92 196.462 1028.53 196.071L1022.17 189.707ZM893 288V287H1057V288V289H893V288ZM1065 280H1064V197H1065H1066V280H1065ZM1057 189V190H1022.88V189V188H1057V189ZM1065 197H1064C1064 193.134 1060.87 190 1057 190V189V188C1061.97 188 1066 192.029 1066 197H1065ZM1057 288V287C1060.87 287 1064 283.866 1064 280H1065H1066C1066 284.971 1061.97 289 1057 289V288Z" fill="white"/>
<path d="M524.707 568.707C525.098 568.317 525.098 567.683 524.707 567.293L518.343 560.929C517.953 560.538 517.319 560.538 516.929 560.929C516.538 561.319 516.538 561.953 516.929 562.343L522.586 568L516.929 573.657C516.538 574.047 516.538 574.681 516.929 575.071C517.319 575.462 517.953 575.462 518.343 575.071L524.707 568.707ZM516 280V279H334V280V281H516V280ZM326 288H325V560H326H327V288H326ZM334 568V569H524V568V567H334V568ZM524 288H523V297H524H525V288H524ZM326 560H325C325 564.971 329.029 569 334 569V568V567C330.134 567 327 563.866 327 560H326ZM334 280V279C329.029 279 325 283.029 325 288H326H327C327 284.134 330.134 281 334 281V280ZM516 280V281C519.866 281 523 284.134 523 288H524H525C525 283.029 520.971 279 516 279V280Z" fill="white"/>
<path d="M892.293 568.707C891.902 568.317 891.902 567.683 892.293 567.293L898.657 560.929C899.047 560.538 899.681 560.538 900.071 560.929C900.462 561.319 900.462 561.953 900.071 562.343L894.414 568L900.071 573.657C900.462 574.047 900.462 574.681 900.071 575.071C899.681 575.462 899.047 575.462 898.657 575.071L892.293 568.707ZM901 153V152H1083V153V154H901V153ZM1091 161H1092V560H1091H1090V161H1091ZM1083 568V569H893V568V567H1083V568ZM893 161H894V168.5H893H892V161H893ZM1091 560H1092C1092 564.971 1087.97 569 1083 569V568V567C1086.87 567 1090 563.866 1090 560H1091ZM1083 153V152C1087.97 152 1092 156.029 1092 161H1091H1090C1090 157.134 1086.87 154 1083 154V153ZM901 153V154C897.134 154 894 157.134 894 161H893H892C892 156.029 896.029 152 901 152V153Z" fill="white"/>
</g>
<defs>
<clipPath id="clip0_143_9">
<rect width="1440" height="720" fill="white"/>
</clipPath>
</defs>
</svg>
