<svg width="1440" height="720" viewBox="0 0 1440 720" fill="none" xmlns="http://www.w3.org/2000/svg">
<g clip-path="url(#clip0_138_4)">
<rect width="1440" height="720" fill="#080808"/>
<path d="M372.5 100L366.726 110H378.274L372.5 100ZM372.5 109H371.5V605H372.5H373.5V109H372.5Z" fill="white"/>
<path d="M1101 547L1091 541.226V552.774L1101 547ZM1092 547V546H318V547V548H1092V547Z" fill="white"/>
<path d="M343 384.912L326.2 384.912L326.2 373.92L328.648 373.92L328.648 382.032L333.328 382.032L333.328 376.776L335.728 376.776L335.728 382.032L340.552 382.032L340.552 373.824L343 373.824L343 384.912ZM343 370.761L340.864 370.761L340.864 367.785L333.136 367.785L333.136 370.761L330.976 370.761L330.976 365.073L333.832 365.073C332.824 364.673 332.064 364.129 331.552 363.441C331.04 362.737 330.784 361.937 330.784 361.041C330.784 360.673 330.816 360.361 330.88 360.105C330.928 359.849 331.016 359.545 331.144 359.193L333.616 359.193C333.472 359.545 333.368 359.921 333.304 360.321C333.224 360.705 333.184 361.081 333.184 361.449C333.184 362.233 333.376 362.945 333.76 363.585C334.128 364.225 334.656 364.721 335.344 365.073L340.864 365.073L340.864 361.905L343 361.905L343 370.761ZM343 356.371L340.864 356.371L340.864 353.395L333.136 353.395L333.136 356.371L330.976 356.371L330.976 350.683L333.832 350.683C332.824 350.283 332.064 349.739 331.552 349.051C331.04 348.347 330.784 347.547 330.784 346.651C330.784 346.283 330.816 345.971 330.88 345.715C330.928 345.459 331.016 345.155 331.144 344.803L333.616 344.803C333.472 345.155 333.368 345.531 333.304 345.931C333.224 346.315 333.184 346.691 333.184 347.059C333.184 347.843 333.376 348.555 333.76 349.195C334.128 349.835 334.656 350.331 335.344 350.683L340.864 350.683L340.864 347.515L343 347.515L343 356.371ZM343.24 336.628C343.24 337.764 342.968 338.788 342.424 339.7C341.864 340.612 341.12 341.332 340.192 341.86C339.248 342.388 338.184 342.652 337 342.652C335.832 342.652 334.784 342.388 333.856 341.86C332.912 341.332 332.168 340.612 331.624 339.7C331.064 338.788 330.784 337.764 330.784 336.628C330.784 335.492 331.064 334.468 331.624 333.556C332.168 332.644 332.912 331.924 333.856 331.396C334.784 330.868 335.832 330.604 337 330.604C338.184 330.604 339.248 330.868 340.192 331.396C341.12 331.924 341.864 332.644 342.424 333.556C342.968 334.452 343.24 335.476 343.24 336.628ZM340.912 336.628C340.912 335.972 340.744 335.396 340.408 334.9C340.072 334.388 339.608 333.988 339.016 333.7C338.424 333.396 337.752 333.244 337 333.244C336.248 333.244 335.584 333.396 335.008 333.7C334.416 333.988 333.952 334.388 333.616 334.9C333.28 335.396 333.112 335.972 333.112 336.628C333.112 337.284 333.288 337.868 333.64 338.38C333.976 338.876 334.44 339.276 335.032 339.58C335.608 339.868 336.264 340.012 337 340.012C337.752 340.012 338.424 339.868 339.016 339.58C339.608 339.276 340.072 338.876 340.408 338.38C340.744 337.868 340.912 337.284 340.912 336.628ZM343 327.589L340.864 327.589L340.864 324.613L333.136 324.613L333.136 327.589L330.976 327.589L330.976 321.901L333.832 321.901C332.824 321.501 332.064 320.957 331.552 320.269C331.04 319.565 330.784 318.765 330.784 317.869C330.784 317.501 330.816 317.189 330.88 316.933C330.928 316.677 331.016 316.373 331.144 316.021L333.616 316.021C333.472 316.373 333.368 316.749 333.304 317.149C333.224 317.533 333.184 317.909 333.184 318.277C333.184 319.061 333.376 319.773 333.76 320.413C334.128 321.053 334.656 321.549 335.344 321.901L340.864 321.901L340.864 318.733L343 318.733L343 327.589ZM343 298.688L326.2 298.688L326.2 292.976C326.2 291.856 326.416 290.88 326.848 290.048C327.264 289.2 327.856 288.544 328.624 288.08C329.376 287.6 330.256 287.36 331.264 287.36C332.368 287.36 333.32 287.648 334.12 288.224C334.92 288.8 335.504 289.584 335.872 290.576L343 286.904L343 290L336.28 293.336L336.28 295.808L343 295.808L343 298.688ZM333.976 295.808L333.976 293.216C333.976 292.32 333.736 291.608 333.256 291.08C332.76 290.536 332.112 290.264 331.312 290.264C330.496 290.264 329.848 290.536 329.368 291.08C328.872 291.608 328.624 292.32 328.624 293.216L328.624 295.808L333.976 295.808ZM343.216 280.458C343.216 281.306 343.064 282.058 342.76 282.714C342.44 283.37 342.008 283.882 341.464 284.25C340.92 284.602 340.288 284.778 339.568 284.778C338.832 284.778 338.2 284.594 337.672 284.226C337.144 283.842 336.736 283.306 336.448 282.618C336.16 281.914 336.016 281.082 336.016 280.122C336.016 279.546 336.08 278.986 336.208 278.442C336.32 277.898 336.512 277.354 336.784 276.81L335.584 276.81C334.736 276.81 334.104 277.042 333.688 277.506C333.256 277.97 333.04 278.682 333.04 279.642C333.04 280.17 333.12 280.73 333.28 281.322C333.44 281.898 333.704 282.546 334.072 283.266L332.104 284.298C331.64 283.354 331.304 282.466 331.096 281.634C330.888 280.786 330.784 279.946 330.784 279.114C330.784 277.53 331.176 276.306 331.96 275.442C332.744 274.562 333.856 274.122 335.296 274.122L343 274.122L343 276.81L341.728 276.81C342.24 277.354 342.616 277.922 342.856 278.514C343.096 279.106 343.216 279.754 343.216 280.458ZM339.496 282.234C340.056 282.234 340.504 282.01 340.84 281.562C341.16 281.098 341.32 280.482 341.32 279.714C341.32 279.154 341.232 278.634 341.056 278.154C340.88 277.674 340.616 277.226 340.264 276.81L338.368 276.81C338.16 277.242 338.008 277.69 337.912 278.154C337.816 278.618 337.768 279.114 337.768 279.642C337.768 280.442 337.928 281.074 338.248 281.538C338.552 282.002 338.968 282.234 339.496 282.234ZM343.24 262.563C343.24 264.067 342.912 265.211 342.256 265.995C341.584 266.763 340.608 267.147 339.328 267.147L333.136 267.147L333.136 270.987L330.976 270.987L330.976 267.147L327.664 267.147L327.088 264.435L330.976 264.435L330.976 259.347L333.136 259.347L333.136 264.435L338.824 264.435C339.576 264.435 340.112 264.259 340.432 263.907C340.752 263.539 340.912 262.971 340.912 262.203C340.912 261.787 340.88 261.355 340.816 260.907C340.736 260.443 340.592 259.915 340.384 259.323L342.688 259.323C342.848 259.835 342.976 260.371 343.072 260.931C343.184 261.491 343.24 262.035 343.24 262.563ZM343.24 249.972C343.24 251.14 342.968 252.196 342.424 253.14C341.864 254.084 341.112 254.836 340.168 255.396C339.224 255.94 338.168 256.212 337 256.212C335.816 256.212 334.76 255.956 333.832 255.444C332.904 254.916 332.168 254.204 331.624 253.308C331.064 252.396 330.784 251.38 330.784 250.26C330.784 249.092 331.056 248.06 331.6 247.164C332.144 246.252 332.88 245.54 333.808 245.028C334.736 244.5 335.8 244.236 337 244.236L337.648 244.236L337.648 253.548C338.304 253.468 338.888 253.26 339.4 252.924C339.896 252.572 340.288 252.132 340.576 251.604C340.864 251.06 341.008 250.468 341.008 249.828C341.008 249.204 340.888 248.628 340.648 248.1C340.408 247.556 340.072 247.108 339.64 246.756L341.248 244.956C341.936 245.644 342.44 246.404 342.76 247.236C343.08 248.068 343.24 248.98 343.24 249.972ZM335.944 253.524L335.944 246.828C335.352 246.924 334.84 247.132 334.408 247.452C333.96 247.756 333.616 248.148 333.376 248.628C333.12 249.092 332.992 249.62 332.992 250.212C332.992 250.772 333.112 251.284 333.352 251.748C333.592 252.196 333.936 252.572 334.384 252.876C334.816 253.18 335.336 253.396 335.944 253.524Z" fill="white"/>
<path d="M605.2 580V563.2H608.416L611.2 569.944L613.984 563.2H617.2V580H614.68V567.088L611.176 575.416L607.672 567.088V580H605.2ZM625.591 580.24C624.455 580.24 623.431 579.968 622.519 579.424C621.607 578.864 620.887 578.12 620.359 577.192C619.831 576.248 619.567 575.184 619.567 574C619.567 572.832 619.831 571.784 620.359 570.856C620.887 569.912 621.607 569.168 622.519 568.624C623.431 568.064 624.455 567.784 625.591 567.784C626.727 567.784 627.751 568.064 628.663 568.624C629.575 569.168 630.295 569.912 630.823 570.856C631.351 571.784 631.615 572.832 631.615 574C631.615 575.184 631.351 576.248 630.823 577.192C630.295 578.12 629.575 578.864 628.663 579.424C627.767 579.968 626.743 580.24 625.591 580.24ZM625.591 577.912C626.247 577.912 626.823 577.744 627.319 577.408C627.831 577.072 628.231 576.608 628.519 576.016C628.823 575.424 628.975 574.752 628.975 574C628.975 573.248 628.823 572.584 628.519 572.008C628.231 571.416 627.831 570.952 627.319 570.616C626.823 570.28 626.247 570.112 625.591 570.112C624.935 570.112 624.351 570.288 623.839 570.64C623.343 570.976 622.943 571.44 622.639 572.032C622.351 572.608 622.207 573.264 622.207 574C622.207 574.752 622.351 575.424 622.639 576.016C622.943 576.608 623.343 577.072 623.839 577.408C624.351 577.744 624.935 577.912 625.591 577.912ZM639.285 580.168C638.277 580.168 637.357 579.896 636.525 579.352C635.709 578.808 635.053 578.072 634.557 577.144C634.077 576.2 633.837 575.152 633.837 574C633.837 572.832 634.085 571.784 634.581 570.856C635.077 569.928 635.741 569.192 636.573 568.648C637.405 568.088 638.325 567.808 639.333 567.808C639.989 567.808 640.589 567.936 641.133 568.192C641.693 568.448 642.189 568.808 642.621 569.272V562.768L645.333 562.312V580H642.693V578.608C642.261 579.12 641.757 579.512 641.181 579.784C640.605 580.04 639.973 580.168 639.285 580.168ZM639.933 577.936C640.477 577.936 640.981 577.832 641.445 577.624C641.909 577.416 642.301 577.12 642.621 576.736V571.264C642.301 570.88 641.901 570.584 641.421 570.376C640.957 570.152 640.461 570.04 639.933 570.04C639.261 570.04 638.669 570.208 638.157 570.544C637.645 570.88 637.245 571.344 636.957 571.936C636.669 572.528 636.525 573.216 636.525 574C636.525 574.752 636.669 575.432 636.957 576.04C637.245 576.632 637.645 577.096 638.157 577.432C638.669 577.768 639.261 577.936 639.933 577.936ZM654.684 580.24C653.516 580.24 652.46 579.968 651.516 579.424C650.572 578.864 649.82 578.112 649.26 577.168C648.716 576.224 648.444 575.168 648.444 574C648.444 572.816 648.7 571.76 649.212 570.832C649.74 569.904 650.452 569.168 651.348 568.624C652.26 568.064 653.276 567.784 654.396 567.784C655.564 567.784 656.596 568.056 657.492 568.6C658.404 569.144 659.116 569.88 659.628 570.808C660.156 571.736 660.42 572.8 660.42 574V574.648H651.108C651.188 575.304 651.396 575.888 651.732 576.4C652.084 576.896 652.524 577.288 653.052 577.576C653.596 577.864 654.188 578.008 654.828 578.008C655.452 578.008 656.028 577.888 656.556 577.648C657.1 577.408 657.548 577.072 657.9 576.64L659.7 578.248C659.012 578.936 658.252 579.44 657.42 579.76C656.588 580.08 655.676 580.24 654.684 580.24ZM651.132 572.944H657.828C657.732 572.352 657.524 571.84 657.204 571.408C656.9 570.96 656.508 570.616 656.028 570.376C655.564 570.12 655.036 569.992 654.444 569.992C653.884 569.992 653.372 570.112 652.908 570.352C652.46 570.592 652.084 570.936 651.78 571.384C651.476 571.816 651.26 572.336 651.132 572.944ZM671.595 580.24C670.155 580.24 669.051 579.896 668.283 579.208C667.531 578.52 667.155 577.504 667.155 576.16V564.688H662.835V562.552H669.867V575.872C669.867 576.592 670.035 577.112 670.371 577.432C670.723 577.752 671.259 577.912 671.979 577.912C672.363 577.912 672.747 577.872 673.131 577.792C673.515 577.712 673.939 577.584 674.403 577.408V579.688C674.035 579.832 673.595 579.96 673.083 580.072C672.571 580.184 672.075 580.24 671.595 580.24ZM697.736 580.264C696.552 580.264 695.464 579.928 694.472 579.256C693.48 578.584 692.688 577.608 692.096 576.328C691.504 575.032 691.208 573.456 691.208 571.6C691.208 569.744 691.504 568.176 692.096 566.896C692.688 565.6 693.48 564.616 694.472 563.944C695.464 563.272 696.552 562.936 697.736 562.936C698.728 562.936 699.632 563.152 700.448 563.584C701.28 564 701.992 564.616 702.584 565.432C703.192 566.232 703.632 567.208 703.904 568.36L701.312 569.104C701.072 567.936 700.624 567.048 699.968 566.44C699.328 565.832 698.6 565.528 697.784 565.528C697.096 565.528 696.472 565.752 695.912 566.2C695.368 566.648 694.928 567.328 694.592 568.24C694.272 569.136 694.112 570.256 694.112 571.6C694.112 572.944 694.272 574.072 694.592 574.984C694.928 575.88 695.368 576.552 695.912 577C696.472 577.448 697.096 577.672 697.784 577.672C698.6 577.672 699.328 577.368 699.968 576.76C700.624 576.152 701.072 575.264 701.312 574.096L703.904 574.84C703.632 575.976 703.192 576.952 702.584 577.768C701.992 578.584 701.28 579.208 700.448 579.64C699.632 580.056 698.728 580.264 697.736 580.264ZM711.934 580.24C710.798 580.24 709.774 579.968 708.862 579.424C707.95 578.864 707.23 578.12 706.702 577.192C706.174 576.248 705.91 575.184 705.91 574C705.91 572.832 706.174 571.784 706.702 570.856C707.23 569.912 707.95 569.168 708.862 568.624C709.774 568.064 710.798 567.784 711.934 567.784C713.07 567.784 714.094 568.064 715.006 568.624C715.918 569.168 716.638 569.912 717.166 570.856C717.694 571.784 717.958 572.832 717.958 574C717.958 575.184 717.694 576.248 717.166 577.192C716.638 578.12 715.918 578.864 715.006 579.424C714.11 579.968 713.086 580.24 711.934 580.24ZM711.934 577.912C712.59 577.912 713.166 577.744 713.662 577.408C714.174 577.072 714.574 576.608 714.862 576.016C715.166 575.424 715.318 574.752 715.318 574C715.318 573.248 715.166 572.584 714.862 572.008C714.574 571.416 714.174 570.952 713.662 570.616C713.166 570.28 712.59 570.112 711.934 570.112C711.278 570.112 710.694 570.288 710.182 570.64C709.686 570.976 709.286 571.44 708.982 572.032C708.694 572.608 708.55 573.264 708.55 574C708.55 574.752 708.694 575.424 708.982 576.016C709.286 576.608 709.686 577.072 710.182 577.408C710.694 577.744 711.278 577.912 711.934 577.912ZM720.349 580V567.976H722.677V569.008C722.965 568.592 723.277 568.288 723.613 568.096C723.965 567.904 724.357 567.808 724.789 567.808C725.301 567.808 725.757 567.936 726.157 568.192C726.573 568.432 726.893 568.784 727.117 569.248C727.437 568.752 727.805 568.392 728.221 568.168C728.653 567.928 729.133 567.808 729.661 567.808C730.445 567.808 731.085 568.096 731.581 568.672C732.093 569.248 732.349 570 732.349 570.928V580H730.045V571.648C730.045 571.072 729.925 570.624 729.685 570.304C729.445 569.968 729.101 569.8 728.653 569.8C728.429 569.8 728.221 569.848 728.029 569.944C727.837 570.04 727.653 570.208 727.477 570.448C727.509 570.544 727.525 570.64 727.525 570.736C727.525 570.832 727.525 570.936 727.525 571.048V580H725.221V571.648C725.221 571.072 725.093 570.624 724.837 570.304C724.597 569.968 724.253 569.8 723.805 569.8C723.613 569.8 723.421 569.84 723.229 569.92C723.037 570 722.853 570.152 722.677 570.376V580H720.349ZM735.34 585.016V567.976H737.98V569.44C738.412 568.912 738.916 568.512 739.492 568.24C740.068 567.952 740.708 567.808 741.412 567.808C742.42 567.808 743.332 568.088 744.148 568.648C744.98 569.192 745.636 569.928 746.116 570.856C746.612 571.784 746.86 572.832 746.86 574C746.86 575.152 746.612 576.2 746.116 577.144C745.62 578.072 744.956 578.808 744.124 579.352C743.308 579.896 742.388 580.168 741.364 580.168C740.708 580.168 740.1 580.048 739.54 579.808C738.98 579.552 738.484 579.192 738.052 578.728V585.016H735.34ZM740.764 577.96C741.436 577.96 742.028 577.792 742.54 577.456C743.052 577.12 743.452 576.656 743.74 576.064C744.028 575.456 744.172 574.768 744.172 574C744.172 573.232 744.028 572.552 743.74 571.96C743.452 571.368 743.052 570.904 742.54 570.568C742.028 570.216 741.436 570.04 740.764 570.04C740.22 570.04 739.716 570.152 739.252 570.376C738.788 570.584 738.388 570.888 738.052 571.288V576.712C738.388 577.112 738.788 577.424 739.252 577.648C739.732 577.856 740.236 577.96 740.764 577.96ZM757.938 580.24C756.498 580.24 755.394 579.896 754.626 579.208C753.874 578.52 753.498 577.504 753.498 576.16V564.688H749.178V562.552H756.21V575.872C756.21 576.592 756.378 577.112 756.714 577.432C757.066 577.752 757.602 577.912 758.322 577.912C758.706 577.912 759.09 577.872 759.474 577.792C759.858 577.712 760.282 577.584 760.746 577.408V579.688C760.378 579.832 759.938 579.96 759.426 580.072C758.914 580.184 758.418 580.24 757.938 580.24ZM769.809 580.24C768.641 580.24 767.585 579.968 766.641 579.424C765.697 578.864 764.945 578.112 764.385 577.168C763.841 576.224 763.569 575.168 763.569 574C763.569 572.816 763.825 571.76 764.337 570.832C764.865 569.904 765.577 569.168 766.473 568.624C767.385 568.064 768.401 567.784 769.521 567.784C770.689 567.784 771.721 568.056 772.617 568.6C773.529 569.144 774.241 569.88 774.753 570.808C775.281 571.736 775.545 572.8 775.545 574V574.648H766.233C766.313 575.304 766.521 575.888 766.857 576.4C767.209 576.896 767.649 577.288 768.177 577.576C768.721 577.864 769.313 578.008 769.953 578.008C770.577 578.008 771.153 577.888 771.681 577.648C772.225 577.408 772.673 577.072 773.025 576.64L774.825 578.248C774.137 578.936 773.377 579.44 772.545 579.76C771.713 580.08 770.801 580.24 769.809 580.24ZM766.257 572.944H772.953C772.857 572.352 772.649 571.84 772.329 571.408C772.025 570.96 771.633 570.616 771.153 570.376C770.689 570.12 770.161 569.992 769.569 569.992C769.009 569.992 768.497 570.112 768.033 570.352C767.585 570.592 767.209 570.936 766.905 571.384C766.601 571.816 766.385 572.336 766.257 572.944ZM777.6 580L782.28 573.856L777.744 567.976H780.936L783.936 572.008L786.984 567.976H790.032L785.472 573.88L790.176 580H786.984L783.816 575.752L780.648 580H777.6ZM798.206 565.624C797.662 565.624 797.198 565.432 796.814 565.048C796.446 564.664 796.262 564.208 796.262 563.68C796.262 563.152 796.446 562.704 796.814 562.336C797.198 561.952 797.662 561.76 798.206 561.76C798.734 561.76 799.182 561.952 799.55 562.336C799.934 562.704 800.126 563.152 800.126 563.68C800.126 564.208 799.934 564.664 799.55 565.048C799.182 565.432 798.734 565.624 798.206 565.624ZM801.278 580.24C799.822 580.24 798.718 579.896 797.966 579.208C797.214 578.52 796.838 577.504 796.838 576.16V570.136H792.518V567.976H799.55V575.872C799.55 576.592 799.718 577.112 800.054 577.432C800.406 577.752 800.934 577.912 801.638 577.912C802.038 577.912 802.43 577.872 802.814 577.792C803.198 577.712 803.622 577.584 804.086 577.408V579.688C803.718 579.832 803.278 579.96 802.766 580.072C802.254 580.184 801.758 580.24 801.278 580.24ZM814.781 580.24C813.277 580.24 812.133 579.912 811.349 579.256C810.581 578.584 810.197 577.608 810.197 576.328V570.136H806.357V567.976H810.197V564.664L812.909 564.088V567.976H817.997V570.136H812.909V575.824C812.909 576.576 813.085 577.112 813.437 577.432C813.805 577.752 814.373 577.912 815.141 577.912C815.557 577.912 815.989 577.88 816.437 577.816C816.901 577.736 817.429 577.592 818.021 577.384V579.688C817.509 579.848 816.973 579.976 816.413 580.072C815.853 580.184 815.309 580.24 814.781 580.24ZM822.955 585.256C822.667 585.256 822.347 585.232 821.995 585.184C821.659 585.152 821.331 585.104 821.011 585.04V582.64C821.347 582.704 821.627 582.752 821.851 582.784C822.091 582.816 822.355 582.832 822.643 582.832C823.187 582.832 823.635 582.728 823.987 582.52C824.355 582.328 824.635 581.992 824.827 581.512L825.379 580.192L820.699 567.976H823.675L826.939 576.976L830.419 567.976H833.323L827.443 582.088C827.107 582.856 826.739 583.472 826.339 583.936C825.955 584.4 825.491 584.736 824.947 584.944C824.419 585.152 823.755 585.256 822.955 585.256Z" fill="white"/>
<path d="M458.7 347V333H463.28C464.16 333 464.927 333.153 465.58 333.46C466.247 333.767 466.767 334.2 467.14 334.76C467.513 335.307 467.7 335.947 467.7 336.68C467.7 337.4 467.493 338.033 467.08 338.58C466.667 339.113 466.107 339.513 465.4 339.78C466.253 340.033 466.927 340.453 467.42 341.04C467.927 341.613 468.18 342.3 468.18 343.1C468.18 343.873 467.98 344.553 467.58 345.14C467.193 345.727 466.653 346.187 465.96 346.52C465.28 346.84 464.473 347 463.54 347H458.7ZM461.06 338.9H463.04C463.733 338.9 464.287 338.72 464.7 338.36C465.113 338 465.32 337.52 465.32 336.92C465.32 336.307 465.113 335.827 464.7 335.48C464.287 335.12 463.733 334.94 463.04 334.94H461.06V338.9ZM461.06 345.06H463.26C464.02 345.06 464.627 344.867 465.08 344.48C465.547 344.08 465.78 343.553 465.78 342.9C465.78 342.233 465.553 341.707 465.1 341.32C464.647 340.933 464.033 340.74 463.26 340.74H461.06V345.06ZM474.932 335.02C474.479 335.02 474.092 334.86 473.772 334.54C473.466 334.22 473.312 333.84 473.312 333.4C473.312 332.96 473.466 332.587 473.772 332.28C474.092 331.96 474.479 331.8 474.932 331.8C475.372 331.8 475.746 331.96 476.052 332.28C476.372 332.587 476.532 332.96 476.532 333.4C476.532 333.84 476.372 334.22 476.052 334.54C475.746 334.86 475.372 335.02 474.932 335.02ZM477.492 347.2C476.279 347.2 475.359 346.913 474.732 346.34C474.106 345.767 473.792 344.92 473.792 343.8V338.78H470.192V336.98H476.052V343.56C476.052 344.16 476.192 344.593 476.472 344.86C476.766 345.127 477.206 345.26 477.792 345.26C478.126 345.26 478.452 345.227 478.772 345.16C479.092 345.093 479.446 344.987 479.832 344.84V346.74C479.526 346.86 479.159 346.967 478.732 347.06C478.306 347.153 477.892 347.2 477.492 347.2ZM485.824 347.18C485.118 347.18 484.491 347.053 483.944 346.8C483.398 346.533 482.971 346.173 482.664 345.72C482.371 345.267 482.224 344.74 482.224 344.14C482.224 343.527 482.378 343 482.684 342.56C483.004 342.12 483.451 341.78 484.024 341.54C484.611 341.3 485.304 341.18 486.104 341.18C486.584 341.18 487.051 341.233 487.504 341.34C487.958 341.433 488.411 341.593 488.864 341.82V340.82C488.864 340.113 488.671 339.587 488.284 339.24C487.898 338.88 487.304 338.7 486.504 338.7C486.064 338.7 485.598 338.767 485.104 338.9C484.624 339.033 484.084 339.253 483.484 339.56L482.624 337.92C483.411 337.533 484.151 337.253 484.844 337.08C485.551 336.907 486.251 336.82 486.944 336.82C488.264 336.82 489.284 337.147 490.004 337.8C490.738 338.453 491.104 339.38 491.104 340.58V347H488.864V345.94C488.411 346.367 487.938 346.68 487.444 346.88C486.951 347.08 486.411 347.18 485.824 347.18ZM484.344 344.08C484.344 344.547 484.531 344.92 484.904 345.2C485.291 345.467 485.804 345.6 486.444 345.6C486.911 345.6 487.344 345.527 487.744 345.38C488.144 345.233 488.518 345.013 488.864 344.72V343.14C488.504 342.967 488.131 342.84 487.744 342.76C487.358 342.68 486.944 342.64 486.504 342.64C485.838 342.64 485.311 342.773 484.924 343.04C484.538 343.293 484.344 343.64 484.344 344.08ZM498.897 347.2C497.963 347.2 497.097 347.08 496.297 346.84C495.51 346.587 494.837 346.227 494.277 345.76L495.377 344.26C496.07 344.7 496.69 345.007 497.237 345.18C497.783 345.353 498.33 345.44 498.877 345.44C499.61 345.44 500.19 345.32 500.617 345.08C501.057 344.84 501.277 344.527 501.277 344.14C501.277 343.833 501.157 343.593 500.917 343.42C500.677 343.247 500.363 343.12 499.977 343.04C499.59 342.96 499.157 342.887 498.677 342.82C498.21 342.753 497.737 342.667 497.257 342.56C496.79 342.453 496.357 342.307 495.957 342.12C495.57 341.92 495.257 341.647 495.017 341.3C494.777 340.94 494.657 340.473 494.657 339.9C494.657 339.26 494.83 338.713 495.177 338.26C495.523 337.793 496.01 337.433 496.637 337.18C497.277 336.927 498.003 336.8 498.817 336.8C499.59 336.8 500.337 336.907 501.057 337.12C501.79 337.32 502.49 337.647 503.157 338.1L502.057 339.58C501.523 339.207 500.977 338.947 500.417 338.8C499.87 338.64 499.317 338.56 498.757 338.56C498.117 338.56 497.61 338.667 497.237 338.88C496.863 339.08 496.677 339.36 496.677 339.72C496.677 340.027 496.797 340.26 497.037 340.42C497.277 340.58 497.597 340.7 497.997 340.78C498.397 340.86 498.837 340.933 499.317 341C499.797 341.067 500.27 341.153 500.737 341.26C501.217 341.367 501.657 341.52 502.057 341.72C502.457 341.92 502.777 342.2 503.017 342.56C503.257 342.92 503.377 343.393 503.377 343.98C503.377 344.607 503.177 345.167 502.777 345.66C502.39 346.14 501.857 346.52 501.177 346.8C500.497 347.067 499.737 347.2 498.897 347.2Z" fill="white"/>
<path d="M669.8 341V329.04H665.46V327H676.54V329.04H672.2V341H669.8ZM683.252 341.2C682.279 341.2 681.399 340.973 680.612 340.52C679.826 340.053 679.199 339.427 678.732 338.64C678.279 337.853 678.052 336.973 678.052 336C678.052 335.013 678.266 334.133 678.692 333.36C679.132 332.587 679.726 331.973 680.472 331.52C681.232 331.053 682.079 330.82 683.012 330.82C683.986 330.82 684.846 331.047 685.592 331.5C686.352 331.953 686.946 332.567 687.372 333.34C687.812 334.113 688.032 335 688.032 336V336.54H680.272C680.339 337.087 680.512 337.573 680.792 338C681.086 338.413 681.452 338.74 681.892 338.98C682.346 339.22 682.839 339.34 683.372 339.34C683.892 339.34 684.372 339.24 684.812 339.04C685.266 338.84 685.639 338.56 685.932 338.2L687.432 339.54C686.859 340.113 686.226 340.533 685.532 340.8C684.839 341.067 684.079 341.2 683.252 341.2ZM680.292 335.12H685.872C685.792 334.627 685.619 334.2 685.352 333.84C685.099 333.467 684.772 333.18 684.372 332.98C683.986 332.767 683.546 332.66 683.052 332.66C682.586 332.66 682.159 332.76 681.772 332.96C681.399 333.16 681.086 333.447 680.832 333.82C680.579 334.18 680.399 334.613 680.292 335.12ZM694.904 341.2C693.971 341.2 693.104 341.08 692.304 340.84C691.518 340.587 690.844 340.227 690.284 339.76L691.384 338.26C692.078 338.7 692.698 339.007 693.244 339.18C693.791 339.353 694.338 339.44 694.884 339.44C695.618 339.44 696.198 339.32 696.624 339.08C697.064 338.84 697.284 338.527 697.284 338.14C697.284 337.833 697.164 337.593 696.924 337.42C696.684 337.247 696.371 337.12 695.984 337.04C695.598 336.96 695.164 336.887 694.684 336.82C694.218 336.753 693.744 336.667 693.264 336.56C692.798 336.453 692.364 336.307 691.964 336.12C691.578 335.92 691.264 335.647 691.024 335.3C690.784 334.94 690.664 334.473 690.664 333.9C690.664 333.26 690.838 332.713 691.184 332.26C691.531 331.793 692.018 331.433 692.644 331.18C693.284 330.927 694.011 330.8 694.824 330.8C695.598 330.8 696.344 330.907 697.064 331.12C697.798 331.32 698.498 331.647 699.164 332.1L698.064 333.58C697.531 333.207 696.984 332.947 696.424 332.8C695.878 332.64 695.324 332.56 694.764 332.56C694.124 332.56 693.618 332.667 693.244 332.88C692.871 333.08 692.684 333.36 692.684 333.72C692.684 334.027 692.804 334.26 693.044 334.42C693.284 334.58 693.604 334.7 694.004 334.78C694.404 334.86 694.844 334.933 695.324 335C695.804 335.067 696.278 335.153 696.744 335.26C697.224 335.367 697.664 335.52 698.064 335.72C698.464 335.92 698.784 336.2 699.024 336.56C699.264 336.92 699.384 337.393 699.384 337.98C699.384 338.607 699.184 339.167 698.784 339.66C698.398 340.14 697.864 340.52 697.184 340.8C696.504 341.067 695.744 341.2 694.904 341.2ZM708.737 341.2C707.483 341.2 706.53 340.927 705.877 340.38C705.237 339.82 704.917 339.007 704.917 337.94V332.78H701.717V330.98H704.917V328.22L707.177 327.74V330.98H711.417V332.78H707.177V337.52C707.177 338.147 707.323 338.593 707.617 338.86C707.923 339.127 708.397 339.26 709.037 339.26C709.383 339.26 709.743 339.233 710.117 339.18C710.503 339.113 710.943 338.993 711.437 338.82V340.74C711.01 340.873 710.563 340.98 710.097 341.06C709.63 341.153 709.177 341.2 708.737 341.2ZM726.701 341V327H735.861V329.04H729.101V332.94H733.481V334.94H729.101V338.96H735.941V341H726.701ZM738.493 341V339.22H740.973V332.78H738.493V330.98H743.233V333.36C743.566 332.52 744.02 331.887 744.593 331.46C745.18 331.033 745.846 330.82 746.593 330.82C746.9 330.82 747.16 330.847 747.373 330.9C747.586 330.94 747.84 331.013 748.133 331.12V333.18C747.84 333.06 747.526 332.973 747.193 332.92C746.873 332.853 746.56 332.82 746.253 332.82C745.6 332.82 745.006 332.98 744.473 333.3C743.94 333.607 743.526 334.047 743.233 334.62V339.22H745.873V341H738.493ZM750.485 341V339.22H752.965V332.78H750.485V330.98H755.225V333.36C755.559 332.52 756.012 331.887 756.585 331.46C757.172 331.033 757.839 330.82 758.585 330.82C758.892 330.82 759.152 330.847 759.365 330.9C759.579 330.94 759.832 331.013 760.125 331.12V333.18C759.832 333.06 759.519 332.973 759.185 332.92C758.865 332.853 758.552 332.82 758.245 332.82C757.592 332.82 756.999 332.98 756.465 333.3C755.932 333.607 755.519 334.047 755.225 334.62V339.22H757.865V341H750.485ZM766.938 341.2C765.991 341.2 765.138 340.973 764.378 340.52C763.618 340.053 763.018 339.433 762.578 338.66C762.138 337.873 761.918 336.987 761.918 336C761.918 335.027 762.138 334.153 762.578 333.38C763.018 332.593 763.618 331.973 764.378 331.52C765.138 331.053 765.991 330.82 766.938 330.82C767.884 330.82 768.738 331.053 769.498 331.52C770.258 331.973 770.858 332.593 771.298 333.38C771.738 334.153 771.957 335.027 771.957 336C771.957 336.987 771.738 337.873 771.298 338.66C770.858 339.433 770.258 340.053 769.498 340.52C768.751 340.973 767.898 341.2 766.938 341.2ZM766.938 339.26C767.484 339.26 767.964 339.12 768.378 338.84C768.804 338.56 769.138 338.173 769.378 337.68C769.631 337.187 769.758 336.627 769.758 336C769.758 335.373 769.631 334.82 769.378 334.34C769.138 333.847 768.804 333.46 768.378 333.18C767.964 332.9 767.484 332.76 766.938 332.76C766.391 332.76 765.904 332.907 765.478 333.2C765.064 333.48 764.731 333.867 764.478 334.36C764.238 334.84 764.118 335.387 764.118 336C764.118 336.627 764.238 337.187 764.478 337.68C764.731 338.173 765.064 338.56 765.478 338.84C765.904 339.12 766.391 339.26 766.938 339.26ZM774.47 341V339.22H776.95V332.78H774.47V330.98H779.21V333.36C779.543 332.52 779.996 331.887 780.57 331.46C781.156 331.033 781.823 330.82 782.57 330.82C782.876 330.82 783.136 330.847 783.35 330.9C783.563 330.94 783.816 331.013 784.11 331.12V333.18C783.816 333.06 783.503 332.973 783.17 332.92C782.85 332.853 782.536 332.82 782.23 332.82C781.576 332.82 780.983 332.98 780.45 333.3C779.916 333.607 779.503 334.047 779.21 334.62V339.22H781.85V341H774.47Z" fill="white"/>
<path d="M1090.56 120L1086.18 106H1088.62L1092.02 117.48L1095.46 106.02H1097.82L1093.42 120H1090.56ZM1102.83 120.18C1102.13 120.18 1101.5 120.053 1100.95 119.8C1100.41 119.533 1099.98 119.173 1099.67 118.72C1099.38 118.267 1099.23 117.74 1099.23 117.14C1099.23 116.527 1099.39 116 1099.69 115.56C1100.01 115.12 1100.46 114.78 1101.03 114.54C1101.62 114.3 1102.31 114.18 1103.11 114.18C1103.59 114.18 1104.06 114.233 1104.51 114.34C1104.97 114.433 1105.42 114.593 1105.87 114.82V113.82C1105.87 113.113 1105.68 112.587 1105.29 112.24C1104.91 111.88 1104.31 111.7 1103.51 111.7C1103.07 111.7 1102.61 111.767 1102.11 111.9C1101.63 112.033 1101.09 112.253 1100.49 112.56L1099.63 110.92C1100.42 110.533 1101.16 110.253 1101.85 110.08C1102.56 109.907 1103.26 109.82 1103.95 109.82C1105.27 109.82 1106.29 110.147 1107.01 110.8C1107.75 111.453 1108.11 112.38 1108.11 113.58V120H1105.87V118.94C1105.42 119.367 1104.95 119.68 1104.45 119.88C1103.96 120.08 1103.42 120.18 1102.83 120.18ZM1101.35 117.08C1101.35 117.547 1101.54 117.92 1101.91 118.2C1102.3 118.467 1102.81 118.6 1103.45 118.6C1103.92 118.6 1104.35 118.527 1104.75 118.38C1105.15 118.233 1105.53 118.013 1105.87 117.72V116.14C1105.51 115.967 1105.14 115.84 1104.75 115.76C1104.37 115.68 1103.95 115.64 1103.51 115.64C1102.85 115.64 1102.32 115.773 1101.93 116.04C1101.55 116.293 1101.35 116.64 1101.35 117.08ZM1111.52 120V118.22H1114V111.78H1111.52V109.98H1116.26V112.36C1116.6 111.52 1117.05 110.887 1117.62 110.46C1118.21 110.033 1118.88 109.82 1119.62 109.82C1119.93 109.82 1120.19 109.847 1120.4 109.9C1120.62 109.94 1120.87 110.013 1121.16 110.12V112.18C1120.87 112.06 1120.56 111.973 1120.22 111.92C1119.9 111.853 1119.59 111.82 1119.28 111.82C1118.63 111.82 1118.04 111.98 1117.5 112.3C1116.97 112.607 1116.56 113.047 1116.26 113.62V118.22H1118.9V120H1111.52ZM1127.92 108.02C1127.46 108.02 1127.08 107.86 1126.76 107.54C1126.45 107.22 1126.3 106.84 1126.3 106.4C1126.3 105.96 1126.45 105.587 1126.76 105.28C1127.08 104.96 1127.46 104.8 1127.92 104.8C1128.36 104.8 1128.73 104.96 1129.04 105.28C1129.36 105.587 1129.52 105.96 1129.52 106.4C1129.52 106.84 1129.36 107.22 1129.04 107.54C1128.73 107.86 1128.36 108.02 1127.92 108.02ZM1130.48 120.2C1129.26 120.2 1128.34 119.913 1127.72 119.34C1127.09 118.767 1126.78 117.92 1126.78 116.8V111.78H1123.18V109.98H1129.04V116.56C1129.04 117.16 1129.18 117.593 1129.46 117.86C1129.75 118.127 1130.19 118.26 1130.78 118.26C1131.11 118.26 1131.44 118.227 1131.76 118.16C1132.08 118.093 1132.43 117.987 1132.82 117.84V119.74C1132.51 119.86 1132.14 119.967 1131.72 120.06C1131.29 120.153 1130.88 120.2 1130.48 120.2ZM1138.81 120.18C1138.1 120.18 1137.48 120.053 1136.93 119.8C1136.38 119.533 1135.96 119.173 1135.65 118.72C1135.36 118.267 1135.21 117.74 1135.21 117.14C1135.21 116.527 1135.36 116 1135.67 115.56C1135.99 115.12 1136.44 114.78 1137.01 114.54C1137.6 114.3 1138.29 114.18 1139.09 114.18C1139.57 114.18 1140.04 114.233 1140.49 114.34C1140.94 114.433 1141.4 114.593 1141.85 114.82V113.82C1141.85 113.113 1141.66 112.587 1141.27 112.24C1140.88 111.88 1140.29 111.7 1139.49 111.7C1139.05 111.7 1138.58 111.767 1138.09 111.9C1137.61 112.033 1137.07 112.253 1136.47 112.56L1135.61 110.92C1136.4 110.533 1137.14 110.253 1137.83 110.08C1138.54 109.907 1139.24 109.82 1139.93 109.82C1141.25 109.82 1142.27 110.147 1142.99 110.8C1143.72 111.453 1144.09 112.38 1144.09 113.58V120H1141.85V118.94C1141.4 119.367 1140.92 119.68 1140.43 119.88C1139.94 120.08 1139.4 120.18 1138.81 120.18ZM1137.33 117.08C1137.33 117.547 1137.52 117.92 1137.89 118.2C1138.28 118.467 1138.79 118.6 1139.43 118.6C1139.9 118.6 1140.33 118.527 1140.73 118.38C1141.13 118.233 1141.5 118.013 1141.85 117.72V116.14C1141.49 115.967 1141.12 115.84 1140.73 115.76C1140.34 115.68 1139.93 115.64 1139.49 115.64C1138.82 115.64 1138.3 115.773 1137.91 116.04C1137.52 116.293 1137.33 116.64 1137.33 117.08ZM1147.58 120V109.98H1149.84V111.48C1150.61 110.373 1151.64 109.82 1152.92 109.82C1153.61 109.82 1154.22 109.973 1154.74 110.28C1155.26 110.573 1155.67 110.993 1155.96 111.54C1156.27 112.073 1156.42 112.693 1156.42 113.4V120H1154.14V114.04C1154.14 113.307 1153.94 112.727 1153.54 112.3C1153.14 111.86 1152.61 111.64 1151.94 111.64C1151.51 111.64 1151.12 111.733 1150.76 111.92C1150.4 112.107 1150.09 112.38 1149.84 112.74V120H1147.58ZM1164.21 120.2C1163.23 120.2 1162.33 119.973 1161.53 119.52C1160.75 119.053 1160.12 118.433 1159.65 117.66C1159.2 116.873 1158.97 115.993 1158.97 115.02C1158.97 114.033 1159.2 113.147 1159.65 112.36C1160.12 111.573 1160.75 110.953 1161.53 110.5C1162.33 110.047 1163.23 109.82 1164.21 109.82C1165.2 109.82 1166.09 110.033 1166.87 110.46C1167.67 110.887 1168.3 111.453 1168.75 112.16L1166.99 113.38C1166.73 112.887 1166.35 112.5 1165.85 112.22C1165.37 111.927 1164.83 111.78 1164.21 111.78C1163.64 111.78 1163.13 111.92 1162.67 112.2C1162.22 112.48 1161.87 112.867 1161.61 113.36C1161.36 113.84 1161.23 114.393 1161.23 115.02C1161.23 115.633 1161.36 116.187 1161.61 116.68C1161.88 117.16 1162.23 117.54 1162.67 117.82C1163.13 118.1 1163.64 118.24 1164.21 118.24C1164.83 118.24 1165.37 118.1 1165.85 117.82C1166.35 117.527 1166.73 117.14 1166.99 116.66L1168.75 117.86C1168.3 118.567 1167.67 119.133 1166.87 119.56C1166.09 119.987 1165.2 120.2 1164.21 120.2ZM1176.21 120.2C1175.23 120.2 1174.35 119.973 1173.57 119.52C1172.78 119.053 1172.15 118.427 1171.69 117.64C1171.23 116.853 1171.01 115.973 1171.01 115C1171.01 114.013 1171.22 113.133 1171.65 112.36C1172.09 111.587 1172.68 110.973 1173.43 110.52C1174.19 110.053 1175.03 109.82 1175.97 109.82C1176.94 109.82 1177.8 110.047 1178.55 110.5C1179.31 110.953 1179.9 111.567 1180.33 112.34C1180.77 113.113 1180.99 114 1180.99 115V115.54H1173.23C1173.29 116.087 1173.47 116.573 1173.75 117C1174.04 117.413 1174.41 117.74 1174.85 117.98C1175.3 118.22 1175.79 118.34 1176.33 118.34C1176.85 118.34 1177.33 118.24 1177.77 118.04C1178.22 117.84 1178.59 117.56 1178.89 117.2L1180.39 118.54C1179.81 119.113 1179.18 119.533 1178.49 119.8C1177.79 120.067 1177.03 120.2 1176.21 120.2ZM1173.25 114.12H1178.83C1178.75 113.627 1178.57 113.2 1178.31 112.84C1178.05 112.467 1177.73 112.18 1177.33 111.98C1176.94 111.767 1176.5 111.66 1176.01 111.66C1175.54 111.66 1175.11 111.76 1174.73 111.96C1174.35 112.16 1174.04 112.447 1173.79 112.82C1173.53 113.18 1173.35 113.613 1173.25 114.12Z" fill="white"/>
<path d="M1069.32 396V393.96H1072.84V384.04H1069.32V382H1078.76V384.04H1075.24V393.96H1078.76V396H1069.32ZM1081.58 396V394.22H1084.06V387.78H1081.58V385.98H1086.32V388.36C1086.65 387.52 1087.1 386.887 1087.68 386.46C1088.26 386.033 1088.93 385.82 1089.68 385.82C1089.98 385.82 1090.24 385.847 1090.46 385.9C1090.67 385.94 1090.92 386.013 1091.22 386.12V388.18C1090.92 388.06 1090.61 387.973 1090.28 387.92C1089.96 387.853 1089.64 387.82 1089.34 387.82C1088.68 387.82 1088.09 387.98 1087.56 388.3C1087.02 388.607 1086.61 389.047 1086.32 389.62V394.22H1088.96V396H1081.58ZM1093.57 396V394.22H1096.05V387.78H1093.57V385.98H1098.31V388.36C1098.64 387.52 1099.09 386.887 1099.67 386.46C1100.25 386.033 1100.92 385.82 1101.67 385.82C1101.97 385.82 1102.23 385.847 1102.45 385.9C1102.66 385.94 1102.91 386.013 1103.21 386.12V388.18C1102.91 388.06 1102.6 387.973 1102.27 387.92C1101.95 387.853 1101.63 387.82 1101.33 387.82C1100.67 387.82 1100.08 387.98 1099.55 388.3C1099.01 388.607 1098.6 389.047 1098.31 389.62V394.22H1100.95V396H1093.57ZM1110.28 396.2C1109.31 396.2 1108.43 395.973 1107.64 395.52C1106.85 395.053 1106.23 394.427 1105.76 393.64C1105.31 392.853 1105.08 391.973 1105.08 391C1105.08 390.013 1105.29 389.133 1105.72 388.36C1106.16 387.587 1106.75 386.973 1107.5 386.52C1108.26 386.053 1109.11 385.82 1110.04 385.82C1111.01 385.82 1111.87 386.047 1112.62 386.5C1113.38 386.953 1113.97 387.567 1114.4 388.34C1114.84 389.113 1115.06 390 1115.06 391V391.54H1107.3C1107.37 392.087 1107.54 392.573 1107.82 393C1108.11 393.413 1108.48 393.74 1108.92 393.98C1109.37 394.22 1109.87 394.34 1110.4 394.34C1110.92 394.34 1111.4 394.24 1111.84 394.04C1112.29 393.84 1112.67 393.56 1112.96 393.2L1114.46 394.54C1113.89 395.113 1113.25 395.533 1112.56 395.8C1111.87 396.067 1111.11 396.2 1110.28 396.2ZM1107.32 390.12H1112.9C1112.82 389.627 1112.65 389.2 1112.38 388.84C1112.13 388.467 1111.8 388.18 1111.4 387.98C1111.01 387.767 1110.57 387.66 1110.08 387.66C1109.61 387.66 1109.19 387.76 1108.8 387.96C1108.43 388.16 1108.11 388.447 1107.86 388.82C1107.61 389.18 1107.43 389.613 1107.32 390.12ZM1121.43 396.14C1120.59 396.14 1119.83 395.913 1119.13 395.46C1118.45 395.007 1117.91 394.393 1117.49 393.62C1117.09 392.833 1116.89 391.96 1116.89 391C1116.89 390.027 1117.1 389.153 1117.51 388.38C1117.93 387.607 1118.48 386.993 1119.17 386.54C1119.87 386.073 1120.63 385.84 1121.47 385.84C1122.02 385.84 1122.52 385.947 1122.97 386.16C1123.44 386.373 1123.85 386.673 1124.21 387.06V381.64L1126.47 381.26V396H1124.27V394.84C1123.91 395.267 1123.49 395.593 1123.01 395.82C1122.53 396.033 1122.01 396.14 1121.43 396.14ZM1121.97 394.28C1122.43 394.28 1122.85 394.193 1123.23 394.02C1123.62 393.847 1123.95 393.6 1124.21 393.28V388.72C1123.95 388.4 1123.61 388.153 1123.21 387.98C1122.83 387.793 1122.41 387.7 1121.97 387.7C1121.41 387.7 1120.92 387.84 1120.49 388.12C1120.07 388.4 1119.73 388.787 1119.49 389.28C1119.25 389.773 1119.13 390.347 1119.13 391C1119.13 391.627 1119.25 392.193 1119.49 392.7C1119.73 393.193 1120.07 393.58 1120.49 393.86C1120.92 394.14 1121.41 394.28 1121.97 394.28ZM1133.04 396.16C1132.36 396.16 1131.76 396.007 1131.22 395.7C1130.7 395.393 1130.29 394.973 1129.98 394.44C1129.69 393.907 1129.54 393.287 1129.54 392.58V385.98H1131.82V391.92C1131.82 392.667 1132.02 393.26 1132.42 393.7C1132.82 394.127 1133.36 394.34 1134.02 394.34C1134.46 394.34 1134.86 394.253 1135.2 394.08C1135.56 393.893 1135.87 393.62 1136.12 393.26V385.98H1138.38V396H1136.12V394.5C1135.36 395.607 1134.34 396.16 1133.04 396.16ZM1146.26 396.2C1145.27 396.2 1144.38 395.973 1143.58 395.52C1142.79 395.053 1142.16 394.433 1141.7 393.66C1141.24 392.873 1141.02 391.993 1141.02 391.02C1141.02 390.033 1141.24 389.147 1141.7 388.36C1142.16 387.573 1142.79 386.953 1143.58 386.5C1144.38 386.047 1145.27 385.82 1146.26 385.82C1147.24 385.82 1148.13 386.033 1148.92 386.46C1149.72 386.887 1150.34 387.453 1150.8 388.16L1149.04 389.38C1148.77 388.887 1148.39 388.5 1147.9 388.22C1147.42 387.927 1146.87 387.78 1146.26 387.78C1145.68 387.78 1145.17 387.92 1144.72 388.2C1144.26 388.48 1143.91 388.867 1143.66 389.36C1143.4 389.84 1143.28 390.393 1143.28 391.02C1143.28 391.633 1143.4 392.187 1143.66 392.68C1143.92 393.16 1144.28 393.54 1144.72 393.82C1145.17 394.1 1145.68 394.24 1146.26 394.24C1146.87 394.24 1147.42 394.1 1147.9 393.82C1148.39 393.527 1148.77 393.14 1149.04 392.66L1150.8 393.86C1150.34 394.567 1149.72 395.133 1148.92 395.56C1148.13 395.987 1147.24 396.2 1146.26 396.2ZM1157.93 384.02C1157.47 384.02 1157.09 383.86 1156.77 383.54C1156.46 383.22 1156.31 382.84 1156.31 382.4C1156.31 381.96 1156.46 381.587 1156.77 381.28C1157.09 380.96 1157.47 380.8 1157.93 380.8C1158.37 380.8 1158.74 380.96 1159.05 381.28C1159.37 381.587 1159.53 381.96 1159.53 382.4C1159.53 382.84 1159.37 383.22 1159.05 383.54C1158.74 383.86 1158.37 384.02 1157.93 384.02ZM1160.49 396.2C1159.27 396.2 1158.35 395.913 1157.73 395.34C1157.1 394.767 1156.79 393.92 1156.79 392.8V387.78H1153.19V385.98H1159.05V392.56C1159.05 393.16 1159.19 393.593 1159.47 393.86C1159.76 394.127 1160.2 394.26 1160.79 394.26C1161.12 394.26 1161.45 394.227 1161.77 394.16C1162.09 394.093 1162.44 393.987 1162.83 393.84V395.74C1162.52 395.86 1162.15 395.967 1161.73 396.06C1161.3 396.153 1160.89 396.2 1160.49 396.2ZM1165.52 396V381.6L1167.78 381.22V387.06C1168.14 386.673 1168.55 386.373 1169.02 386.16C1169.49 385.947 1169.99 385.84 1170.52 385.84C1171.37 385.84 1172.14 386.073 1172.82 386.54C1173.51 386.993 1174.07 387.607 1174.48 388.38C1174.89 389.153 1175.1 390.027 1175.1 391C1175.1 391.96 1174.89 392.833 1174.48 393.62C1174.08 394.393 1173.54 395.007 1172.86 395.46C1172.18 395.913 1171.41 396.14 1170.56 396.14C1169.99 396.14 1169.46 396.033 1168.98 395.82C1168.5 395.593 1168.08 395.267 1167.72 394.84V396H1165.52ZM1170.02 394.28C1170.58 394.28 1171.07 394.14 1171.5 393.86C1171.93 393.58 1172.26 393.193 1172.5 392.7C1172.74 392.193 1172.86 391.627 1172.86 391C1172.86 390.347 1172.74 389.773 1172.5 389.28C1172.26 388.787 1171.93 388.4 1171.5 388.12C1171.07 387.84 1170.58 387.7 1170.02 387.7C1169.58 387.7 1169.17 387.793 1168.78 387.98C1168.39 388.153 1168.06 388.4 1167.78 388.72V393.28C1168.05 393.6 1168.37 393.847 1168.76 394.02C1169.15 394.193 1169.57 394.28 1170.02 394.28ZM1184.33 396.2C1183.13 396.2 1182.21 395.913 1181.57 395.34C1180.95 394.767 1180.63 393.92 1180.63 392.8V383.24H1177.03V381.46H1182.89V392.56C1182.89 393.16 1183.03 393.593 1183.31 393.86C1183.61 394.127 1184.05 394.26 1184.65 394.26C1184.97 394.26 1185.29 394.227 1185.61 394.16C1185.93 394.093 1186.29 393.987 1186.67 393.84V395.74C1186.37 395.86 1186 395.967 1185.57 396.06C1185.15 396.153 1184.73 396.2 1184.33 396.2ZM1194.22 396.2C1193.25 396.2 1192.37 395.973 1191.58 395.52C1190.8 395.053 1190.17 394.427 1189.7 393.64C1189.25 392.853 1189.02 391.973 1189.02 391C1189.02 390.013 1189.24 389.133 1189.66 388.36C1190.1 387.587 1190.7 386.973 1191.44 386.52C1192.2 386.053 1193.05 385.82 1193.98 385.82C1194.96 385.82 1195.82 386.047 1196.56 386.5C1197.32 386.953 1197.92 387.567 1198.34 388.34C1198.78 389.113 1199 390 1199 391V391.54H1191.24C1191.31 392.087 1191.48 392.573 1191.76 393C1192.06 393.413 1192.42 393.74 1192.86 393.98C1193.32 394.22 1193.81 394.34 1194.34 394.34C1194.86 394.34 1195.34 394.24 1195.78 394.04C1196.24 393.84 1196.61 393.56 1196.9 393.2L1198.4 394.54C1197.83 395.113 1197.2 395.533 1196.5 395.8C1195.81 396.067 1195.05 396.2 1194.22 396.2ZM1191.26 390.12H1196.84C1196.76 389.627 1196.59 389.2 1196.32 388.84C1196.07 388.467 1195.74 388.18 1195.34 387.98C1194.96 387.767 1194.52 387.66 1194.02 387.66C1193.56 387.66 1193.13 387.76 1192.74 387.96C1192.37 388.16 1192.06 388.447 1191.8 388.82C1191.55 389.18 1191.37 389.613 1191.26 390.12ZM1105.76 422V408H1114.92V410.04H1108.16V413.94H1112.54V415.94H1108.16V419.96H1115V422H1105.76ZM1117.55 422V420.22H1120.03V413.78H1117.55V411.98H1122.29V414.36C1122.63 413.52 1123.08 412.887 1123.65 412.46C1124.24 412.033 1124.91 411.82 1125.65 411.82C1125.96 411.82 1126.22 411.847 1126.43 411.9C1126.65 411.94 1126.9 412.013 1127.19 412.12V414.18C1126.9 414.06 1126.59 413.973 1126.25 413.92C1125.93 413.853 1125.62 413.82 1125.31 413.82C1124.66 413.82 1124.07 413.98 1123.53 414.3C1123 414.607 1122.59 415.047 1122.29 415.62V420.22H1124.93V422H1117.55ZM1129.54 422V420.22H1132.02V413.78H1129.54V411.98H1134.28V414.36C1134.62 413.52 1135.07 412.887 1135.64 412.46C1136.23 412.033 1136.9 411.82 1137.64 411.82C1137.95 411.82 1138.21 411.847 1138.42 411.9C1138.64 411.94 1138.89 412.013 1139.18 412.12V414.18C1138.89 414.06 1138.58 413.973 1138.24 413.92C1137.92 413.853 1137.61 413.82 1137.3 413.82C1136.65 413.82 1136.06 413.98 1135.52 414.3C1134.99 414.607 1134.58 415.047 1134.28 415.62V420.22H1136.92V422H1129.54ZM1146 422.2C1145.05 422.2 1144.2 421.973 1143.44 421.52C1142.68 421.053 1142.08 420.433 1141.64 419.66C1141.2 418.873 1140.98 417.987 1140.98 417C1140.98 416.027 1141.2 415.153 1141.64 414.38C1142.08 413.593 1142.68 412.973 1143.44 412.52C1144.2 412.053 1145.05 411.82 1146 411.82C1146.94 411.82 1147.8 412.053 1148.56 412.52C1149.32 412.973 1149.92 413.593 1150.36 414.38C1150.8 415.153 1151.02 416.027 1151.02 417C1151.02 417.987 1150.8 418.873 1150.36 419.66C1149.92 420.433 1149.32 421.053 1148.56 421.52C1147.81 421.973 1146.96 422.2 1146 422.2ZM1146 420.26C1146.54 420.26 1147.02 420.12 1147.44 419.84C1147.86 419.56 1148.2 419.173 1148.44 418.68C1148.69 418.187 1148.82 417.627 1148.82 417C1148.82 416.373 1148.69 415.82 1148.44 415.34C1148.2 414.847 1147.86 414.46 1147.44 414.18C1147.02 413.9 1146.54 413.76 1146 413.76C1145.45 413.76 1144.96 413.907 1144.54 414.2C1144.12 414.48 1143.79 414.867 1143.54 415.36C1143.3 415.84 1143.18 416.387 1143.18 417C1143.18 417.627 1143.3 418.187 1143.54 418.68C1143.79 419.173 1144.12 419.56 1144.54 419.84C1144.96 420.12 1145.45 420.26 1146 420.26ZM1153.53 422V420.22H1156.01V413.78H1153.53V411.98H1158.27V414.36C1158.6 413.52 1159.05 412.887 1159.63 412.46C1160.21 412.033 1160.88 411.82 1161.63 411.82C1161.93 411.82 1162.19 411.847 1162.41 411.9C1162.62 411.94 1162.87 412.013 1163.17 412.12V414.18C1162.87 414.06 1162.56 413.973 1162.23 413.92C1161.91 413.853 1161.59 413.82 1161.29 413.82C1160.63 413.82 1160.04 413.98 1159.51 414.3C1158.97 414.607 1158.56 415.047 1158.27 415.62V420.22H1160.91V422H1153.53Z" fill="white"/>
<path d="M1090.83 505V493.04H1086.49V491H1097.57V493.04H1093.23V505H1090.83ZM1099.56 505V503.22H1102.04V496.78H1099.56V494.98H1104.3V497.36C1104.64 496.52 1105.09 495.887 1105.66 495.46C1106.25 495.033 1106.92 494.82 1107.66 494.82C1107.97 494.82 1108.23 494.847 1108.44 494.9C1108.66 494.94 1108.91 495.013 1109.2 495.12V497.18C1108.91 497.06 1108.6 496.973 1108.26 496.92C1107.94 496.853 1107.63 496.82 1107.32 496.82C1106.67 496.82 1106.08 496.98 1105.54 497.3C1105.01 497.607 1104.6 498.047 1104.3 498.62V503.22H1106.94V505H1099.56ZM1114.86 505.18C1114.15 505.18 1113.52 505.053 1112.98 504.8C1112.43 504.533 1112 504.173 1111.7 503.72C1111.4 503.267 1111.26 502.74 1111.26 502.14C1111.26 501.527 1111.41 501 1111.72 500.56C1112.04 500.12 1112.48 499.78 1113.06 499.54C1113.64 499.3 1114.34 499.18 1115.14 499.18C1115.62 499.18 1116.08 499.233 1116.54 499.34C1116.99 499.433 1117.44 499.593 1117.9 499.82V498.82C1117.9 498.113 1117.7 497.587 1117.32 497.24C1116.93 496.88 1116.34 496.7 1115.54 496.7C1115.1 496.7 1114.63 496.767 1114.14 496.9C1113.66 497.033 1113.12 497.253 1112.52 497.56L1111.66 495.92C1112.44 495.533 1113.18 495.253 1113.88 495.08C1114.58 494.907 1115.28 494.82 1115.98 494.82C1117.3 494.82 1118.32 495.147 1119.04 495.8C1119.77 496.453 1120.14 497.38 1120.14 498.58V505H1117.9V503.94C1117.44 504.367 1116.97 504.68 1116.48 504.88C1115.98 505.08 1115.44 505.18 1114.86 505.18ZM1113.38 502.08C1113.38 502.547 1113.56 502.92 1113.94 503.2C1114.32 503.467 1114.84 503.6 1115.48 503.6C1115.94 503.6 1116.38 503.527 1116.78 503.38C1117.18 503.233 1117.55 503.013 1117.9 502.72V501.14C1117.54 500.967 1117.16 500.84 1116.78 500.76C1116.39 500.68 1115.98 500.64 1115.54 500.64C1114.87 500.64 1114.34 500.773 1113.96 501.04C1113.57 501.293 1113.38 501.64 1113.38 502.08ZM1127.95 493.02C1127.49 493.02 1127.11 492.86 1126.79 492.54C1126.48 492.22 1126.33 491.84 1126.33 491.4C1126.33 490.96 1126.48 490.587 1126.79 490.28C1127.11 489.96 1127.49 489.8 1127.95 489.8C1128.39 489.8 1128.76 489.96 1129.07 490.28C1129.39 490.587 1129.55 490.96 1129.55 491.4C1129.55 491.84 1129.39 492.22 1129.07 492.54C1128.76 492.86 1128.39 493.02 1127.95 493.02ZM1130.51 505.2C1129.29 505.2 1128.37 504.913 1127.75 504.34C1127.12 503.767 1126.81 502.92 1126.81 501.8V496.78H1123.21V494.98H1129.07V501.56C1129.07 502.16 1129.21 502.593 1129.49 502.86C1129.78 503.127 1130.22 503.26 1130.81 503.26C1131.14 503.26 1131.47 503.227 1131.79 503.16C1132.11 503.093 1132.46 502.987 1132.85 502.84V504.74C1132.54 504.86 1132.17 504.967 1131.75 505.06C1131.32 505.153 1130.91 505.2 1130.51 505.2ZM1135.62 505V494.98H1137.88V496.48C1138.65 495.373 1139.68 494.82 1140.96 494.82C1141.65 494.82 1142.26 494.973 1142.78 495.28C1143.3 495.573 1143.71 495.993 1144 496.54C1144.31 497.073 1144.46 497.693 1144.46 498.4V505H1142.18V499.04C1142.18 498.307 1141.98 497.727 1141.58 497.3C1141.18 496.86 1140.65 496.64 1139.98 496.64C1139.55 496.64 1139.16 496.733 1138.8 496.92C1138.44 497.107 1138.13 497.38 1137.88 497.74V505H1135.62ZM1151.93 493.02C1151.48 493.02 1151.09 492.86 1150.77 492.54C1150.47 492.22 1150.31 491.84 1150.31 491.4C1150.31 490.96 1150.47 490.587 1150.77 490.28C1151.09 489.96 1151.48 489.8 1151.93 489.8C1152.37 489.8 1152.75 489.96 1153.05 490.28C1153.37 490.587 1153.53 490.96 1153.53 491.4C1153.53 491.84 1153.37 492.22 1153.05 492.54C1152.75 492.86 1152.37 493.02 1151.93 493.02ZM1154.49 505.2C1153.28 505.2 1152.36 504.913 1151.73 504.34C1151.11 503.767 1150.79 502.92 1150.79 501.8V496.78H1147.19V494.98H1153.05V501.56C1153.05 502.16 1153.19 502.593 1153.47 502.86C1153.77 503.127 1154.21 503.26 1154.79 503.26C1155.13 503.26 1155.45 503.227 1155.77 503.16C1156.09 503.093 1156.45 502.987 1156.83 502.84V504.74C1156.53 504.86 1156.16 504.967 1155.73 505.06C1155.31 505.153 1154.89 505.2 1154.49 505.2ZM1159.6 505V494.98H1161.86V496.48C1162.64 495.373 1163.66 494.82 1164.94 494.82C1165.64 494.82 1166.24 494.973 1166.76 495.28C1167.28 495.573 1167.69 495.993 1167.98 496.54C1168.29 497.073 1168.44 497.693 1168.44 498.4V505H1166.16V499.04C1166.16 498.307 1165.96 497.727 1165.56 497.3C1165.16 496.86 1164.63 496.64 1163.96 496.64C1163.54 496.64 1163.14 496.733 1162.78 496.92C1162.42 497.107 1162.12 497.38 1161.86 497.74V505H1159.6ZM1175.86 509.38C1175.15 509.38 1174.45 509.293 1173.76 509.12C1173.08 508.947 1172.44 508.707 1171.86 508.4L1172.64 506.74C1173.22 507.02 1173.77 507.227 1174.28 507.36C1174.78 507.507 1175.28 507.58 1175.78 507.58C1177.39 507.58 1178.2 506.84 1178.2 505.36V503.78C1177.84 504.193 1177.4 504.52 1176.9 504.76C1176.4 504.987 1175.87 505.1 1175.3 505.1C1174.47 505.1 1173.72 504.873 1173.04 504.42C1172.37 503.953 1171.84 503.333 1171.44 502.56C1171.05 501.787 1170.86 500.927 1170.86 499.98C1170.86 499.033 1171.06 498.18 1171.48 497.42C1171.89 496.647 1172.44 496.033 1173.14 495.58C1173.83 495.127 1174.6 494.9 1175.44 494.9C1175.98 494.9 1176.49 495.007 1176.96 495.22C1177.44 495.433 1177.86 495.74 1178.22 496.14V494.98H1180.44V505.36C1180.44 506.653 1180.04 507.647 1179.26 508.34C1178.48 509.033 1177.35 509.38 1175.86 509.38ZM1175.94 503.24C1176.4 503.24 1176.82 503.147 1177.2 502.96C1177.58 502.773 1177.92 502.52 1178.2 502.2V497.78C1177.92 497.46 1177.58 497.213 1177.18 497.04C1176.79 496.853 1176.38 496.76 1175.94 496.76C1175.38 496.76 1174.88 496.9 1174.46 497.18C1174.03 497.447 1173.7 497.827 1173.46 498.32C1173.22 498.8 1173.1 499.36 1173.1 500C1173.1 500.613 1173.22 501.167 1173.46 501.66C1173.7 502.153 1174.03 502.54 1174.46 502.82C1174.88 503.1 1175.38 503.24 1175.94 503.24ZM1105.76 531V517H1114.92V519.04H1108.16V522.94H1112.54V524.94H1108.16V528.96H1115V531H1105.76ZM1117.55 531V529.22H1120.03V522.78H1117.55V520.98H1122.29V523.36C1122.63 522.52 1123.08 521.887 1123.65 521.46C1124.24 521.033 1124.91 520.82 1125.65 520.82C1125.96 520.82 1126.22 520.847 1126.43 520.9C1126.65 520.94 1126.9 521.013 1127.19 521.12V523.18C1126.9 523.06 1126.59 522.973 1126.25 522.92C1125.93 522.853 1125.62 522.82 1125.31 522.82C1124.66 522.82 1124.07 522.98 1123.53 523.3C1123 523.607 1122.59 524.047 1122.29 524.62V529.22H1124.93V531H1117.55ZM1129.54 531V529.22H1132.02V522.78H1129.54V520.98H1134.28V523.36C1134.62 522.52 1135.07 521.887 1135.64 521.46C1136.23 521.033 1136.9 520.82 1137.64 520.82C1137.95 520.82 1138.21 520.847 1138.42 520.9C1138.64 520.94 1138.89 521.013 1139.18 521.12V523.18C1138.89 523.06 1138.58 522.973 1138.24 522.92C1137.92 522.853 1137.61 522.82 1137.3 522.82C1136.65 522.82 1136.06 522.98 1135.52 523.3C1134.99 523.607 1134.58 524.047 1134.28 524.62V529.22H1136.92V531H1129.54ZM1146 531.2C1145.05 531.2 1144.2 530.973 1143.44 530.52C1142.68 530.053 1142.08 529.433 1141.64 528.66C1141.2 527.873 1140.98 526.987 1140.98 526C1140.98 525.027 1141.2 524.153 1141.64 523.38C1142.08 522.593 1142.68 521.973 1143.44 521.52C1144.2 521.053 1145.05 520.82 1146 520.82C1146.94 520.82 1147.8 521.053 1148.56 521.52C1149.32 521.973 1149.92 522.593 1150.36 523.38C1150.8 524.153 1151.02 525.027 1151.02 526C1151.02 526.987 1150.8 527.873 1150.36 528.66C1149.92 529.433 1149.32 530.053 1148.56 530.52C1147.81 530.973 1146.96 531.2 1146 531.2ZM1146 529.26C1146.54 529.26 1147.02 529.12 1147.44 528.84C1147.86 528.56 1148.2 528.173 1148.44 527.68C1148.69 527.187 1148.82 526.627 1148.82 526C1148.82 525.373 1148.69 524.82 1148.44 524.34C1148.2 523.847 1147.86 523.46 1147.44 523.18C1147.02 522.9 1146.54 522.76 1146 522.76C1145.45 522.76 1144.96 522.907 1144.54 523.2C1144.12 523.48 1143.79 523.867 1143.54 524.36C1143.3 524.84 1143.18 525.387 1143.18 526C1143.18 526.627 1143.3 527.187 1143.54 527.68C1143.79 528.173 1144.12 528.56 1144.54 528.84C1144.96 529.12 1145.45 529.26 1146 529.26ZM1153.53 531V529.22H1156.01V522.78H1153.53V520.98H1158.27V523.36C1158.6 522.52 1159.05 521.887 1159.63 521.46C1160.21 521.033 1160.88 520.82 1161.63 520.82C1161.93 520.82 1162.19 520.847 1162.41 520.9C1162.62 520.94 1162.87 521.013 1163.17 521.12V523.18C1162.87 523.06 1162.56 522.973 1162.23 522.92C1161.91 522.853 1161.59 522.82 1161.29 522.82C1160.63 522.82 1160.04 522.98 1159.51 523.3C1158.97 523.607 1158.56 524.047 1158.27 524.62V529.22H1160.91V531H1153.53Z" fill="white"/>
<path d="M391.5 527.5C746.5 527.5 910 316 1000 107.5" stroke="white"/>
<path d="M1057.5 527.5C702.5 527.5 533.5 316 443.5 107.5" stroke="white"/>
<path d="M412 112C412 222 439 399 521 461C603 523 933.5 537 1056 537" stroke="white"/>
<path d="M472 107.5C530.5 211 624.5 380.5 725.5 380.5C826.5 380.5 923.5 217 970.5 107.5" stroke="white"/>
<path d="M395 402H1055" stroke="white" stroke-dasharray="2 2"/>
</g>
<defs>
<clipPath id="clip0_138_4">
<rect width="1440" height="720" fill="white"/>
</clipPath>
</defs>
</svg>
