<svg width="1440" height="720" viewBox="0 0 1440 720" fill="none" xmlns="http://www.w3.org/2000/svg">
<g clip-path="url(#clip0_138_4)">
<rect width="1440" height="720" fill="#080808"/>
<path d="M372.5 100L366.726 110H378.274L372.5 100ZM372.5 109H371.5V605H372.5H373.5V109H372.5Z" fill="white"/>
<path d="M1101 547L1091 541.226V552.774L1101 547ZM1092 547V546H318V547V548H1092V547Z" fill="white"/>
<text transform="translate(318 387) rotate(-90)" fill="white" xml:space="preserve" style="white-space: pre" font-family="Red Hat Mono" font-size="24" font-weight="600" letter-spacing="0em"><tspan x="0" y="24.556">Error Rate</tspan></text>
<text transform="translate(604 555)" fill="white" xml:space="preserve" style="white-space: pre" font-family="Red Hat Mono" font-size="24" font-weight="600" letter-spacing="0em"><tspan x="0" y="24.556">Model Complexity</tspan></text>
<text transform="translate(457 327)" fill="white" xml:space="preserve" style="white-space: pre" font-family="Red Hat Mono" font-size="20" font-weight="600" letter-spacing="0em"><tspan x="0" y="20.13">Bias</tspan></text>
<text transform="translate(665 321)" fill="white" xml:space="preserve" style="white-space: pre" font-family="Red Hat Mono" font-size="20" font-weight="600" letter-spacing="0em"><tspan x="0" y="20.13">Test Error</tspan></text>
<text transform="translate(1086 100)" fill="white" xml:space="preserve" style="white-space: pre" font-family="Red Hat Mono" font-size="20" font-weight="600" letter-spacing="0em"><tspan x="0" y="20.13">Variance</tspan></text>
<text transform="translate(1068 376)" fill="white" xml:space="preserve" style="white-space: pre" font-family="Red Hat Mono" font-size="20" font-weight="600" letter-spacing="0em"><tspan x="0.0429688" y="20.13">Irreducible&#x2028;</tspan><tspan x="36.0195" y="46.13">Error</tspan></text>
<text transform="translate(1086 485)" fill="white" xml:space="preserve" style="white-space: pre" font-family="Red Hat Mono" font-size="20" font-weight="600" letter-spacing="0em"><tspan x="0.03125" y="20.13">Training&#10;</tspan><tspan x="18.0195" y="46.13">Error</tspan></text>
<path d="M391.5 527.5C746.5 527.5 910 316 1000 107.5" stroke="white"/>
<path d="M1057.5 527.5C702.5 527.5 533.5 316 443.5 107.5" stroke="white"/>
<path d="M412 112C412 222 439 399 521 461C603 523 933.5 537 1056 537" stroke="white"/>
<path d="M472 107.5C530.5 211 624.5 380.5 725.5 380.5C826.5 380.5 923.5 217 970.5 107.5" stroke="white"/>
<path d="M395 402H1055" stroke="white" stroke-dasharray="2 2"/>
</g>
<defs>
<clipPath id="clip0_138_4">
<rect width="1440" height="720" fill="white"/>
</clipPath>
</defs>
</svg>
