<svg width="1440" height="720" viewBox="0 0 1440 720" fill="none" xmlns="http://www.w3.org/2000/svg">
<g clip-path="url(#clip0_197_4)">
<rect width="1440" height="720" fill="#080808"/>
<path d="M879.5 339C878 260.5 792 232 746 232C695.499 232 625.5 276.5 619.5 339C613.5 401.5 532 431 578 482.5C624 534 748 522.5 782.5 463.5C817 404.5 881 417.5 879.5 339Z" fill="white" fill-opacity="0.05"/>
<path d="M806.467 254.298C742.16 209.252 668.457 261.94 641.35 299.105C611.592 339.906 581.841 456.213 628.802 497.89C675.762 539.567 693.672 503.132 762.387 496.315C831.102 489.497 895.879 388.336 914.483 322.57C932.91 257.425 870.774 299.344 806.467 254.298Z" fill="white" fill-opacity="0.05"/>
<path d="M654.227 219.872C581.045 248.315 583.907 338.87 599.749 382.056C617.141 429.467 697.318 518.819 758.061 502.928C818.804 487.036 798.459 451.903 830.967 390.981C863.474 330.059 815.349 219.996 771.002 167.99C727.074 116.476 727.408 191.429 654.227 219.872Z" fill="white" fill-opacity="0.05"/>
<path d="M793.608 266.393C738.678 225.4 670.009 273.114 643.78 306.81C614.985 343.802 605.726 418.939 645.359 456.847C684.991 494.755 658.842 570.273 720.547 564.192C782.251 558.111 845.033 461.113 824.062 404.205C803.091 347.297 848.539 307.387 793.608 266.393Z" fill="white" fill-opacity="0.05"/>
<path d="M778.561 274.935C709.169 227.485 647.452 262.181 627.792 290.131C606.207 320.814 615.262 390.761 667.435 432.91C719.608 475.06 710.611 542.753 775.375 546.531C840.139 550.309 883.065 467.882 846.139 410.572C809.212 353.262 847.952 322.385 778.561 274.935Z" fill="white" fill-opacity="0.05"/>
<path d="M773.5 451.5C844.694 418.397 904.593 398.074 885.999 356C865.586 309.809 837 266 773.5 248C713.092 230.876 629.511 235.608 601 298.5C572.489 361.392 533.06 414.678 587.5 456C629 487.5 702.305 484.603 773.5 451.5Z" fill="white" fill-opacity="0.05"/>
<path d="M817.86 443.786C892.06 409.191 916.444 387.762 896 341.5C873.554 290.712 846.679 287.959 779.5 267C715.592 247.062 657.82 164.647 602.499 204.5C542.645 247.619 564.148 398.588 622.287 444.783C666.606 479.998 743.661 478.38 817.86 443.786Z" fill="white" fill-opacity="0.05"/>
<path d="M685.305 235.815C610.021 213.524 551.664 189.125 537.764 232.975C522.504 281.114 514.948 332.877 550.647 388.391C584.607 441.202 650.405 492.96 713.397 464.673C776.389 436.385 841.212 422.524 827.738 355.518C817.467 304.44 760.589 258.105 685.305 235.815Z" fill="white" fill-opacity="0.05"/>
<path d="M848.854 367.676C887.127 299.122 923.741 247.544 884.012 224.357C840.397 198.902 791.556 180.167 729.559 202.809C670.582 224.348 605.642 277.178 619.411 344.844C633.181 412.51 632.474 478.794 700.803 480.358C752.89 481.55 810.581 436.23 848.854 367.676Z" fill="white" fill-opacity="0.05"/>
<path d="M664.824 473.122C722.318 501.981 763.957 533.438 794.301 477.556C827.615 416.206 855.596 350.191 846.82 279.149C838.471 211.568 801.498 145.155 734.084 180.908C666.67 216.662 603.569 233.995 587.939 319.579C576.025 384.819 607.331 444.262 664.824 473.122Z" fill="white" fill-opacity="0.05"/>
<rect x="800" y="286" width="147" height="147" rx="73.5" transform="rotate(90 800 286)" fill="#E66A32"/>
</g>
<defs>
<clipPath id="clip0_197_4">
<rect width="1440" height="720" fill="white"/>
</clipPath>
</defs>
</svg>
