<svg width="1440" height="720" viewBox="0 0 1440 720" fill="none" xmlns="http://www.w3.org/2000/svg">
<g clip-path="url(#clip0_252_4)">
<rect width="1440" height="720" fill="#080808"/>
<rect x="853" y="414" width="17" height="28" fill="#E66A32"/>
<rect x="803" y="414" width="18" height="28" fill="#E66A32"/>
<circle cx="837" cy="357" r="75" fill="#E66A32"/>
<ellipse cx="812.5" cy="312" rx="9.5" ry="10" fill="#080808"/>
<ellipse cx="861.5" cy="312" rx="9.5" ry="10" fill="#080808"/>
<path d="M861.042 292C860.549 290.275 864.491 283.223 870.211 279.825C875.433 276.722 883.62 276.274 885 277.999" stroke="#E66A32" stroke-width="5" stroke-linecap="round"/>
<path d="M811.958 292C812.451 290.275 808.509 283.223 802.789 279.825C797.567 276.722 789.38 276.274 788 277.999" stroke="#E66A32" stroke-width="5" stroke-linecap="round"/>
<circle cx="346" cy="357" r="75" fill="#E66A32"/>
<circle cx="591" cy="357" r="75" fill="#E66A32"/>
<ellipse cx="566.5" cy="312" rx="9.5" ry="10" fill="#080808"/>
<ellipse cx="615.5" cy="312" rx="9.5" ry="10" fill="#080808"/>
<path d="M615.042 292C614.549 290.275 618.491 283.223 624.211 279.825C629.433 276.722 637.62 276.274 639 277.999" stroke="#E66A32" stroke-width="5" stroke-linecap="round"/>
<path d="M565.958 292C566.451 290.275 562.509 283.223 556.789 279.825C551.567 276.722 543.38 276.274 542 277.999" stroke="#E66A32" stroke-width="5" stroke-linecap="round"/>
<rect x="1098" y="414" width="17" height="28" fill="#E66A32"/>
<rect x="1048" y="414" width="18" height="28" fill="#E66A32"/>
<circle cx="1082" cy="357" r="75" fill="#E66A32"/>
<circle cx="1082" cy="357" r="75" fill="url(#paint0_linear_252_4)" fill-opacity="0.2"/>
<circle cx="1157" cy="357" r="18" fill="#E66A32"/>
<circle cx="1157" cy="357" r="18" fill="url(#paint1_linear_252_4)" fill-opacity="0.2"/>
<circle cx="1007" cy="357" r="18" fill="#E66A32"/>
<circle cx="1007" cy="357" r="18" fill="url(#paint2_linear_252_4)" fill-opacity="0.2"/>
<ellipse cx="1057.5" cy="312" rx="9.5" ry="10" fill="#080808"/>
<ellipse cx="1106.5" cy="312" rx="9.5" ry="10" fill="#080808"/>
<path d="M1106.04 292C1105.55 290.275 1109.49 283.223 1115.21 279.825C1120.43 276.722 1128.62 276.274 1130 277.999" stroke="#E66A32" stroke-width="5" stroke-linecap="round"/>
<path d="M1056.96 292C1057.45 290.275 1053.51 283.223 1047.79 279.825C1042.57 276.722 1034.38 276.274 1033 277.999" stroke="#E66A32" stroke-width="5" stroke-linecap="round"/>
</g>
<defs>
<linearGradient id="paint0_linear_252_4" x1="1157" y1="357" x2="1007" y2="357" gradientUnits="userSpaceOnUse">
<stop/>
<stop offset="1" stop-color="#666666" stop-opacity="0"/>
</linearGradient>
<linearGradient id="paint1_linear_252_4" x1="1175" y1="357" x2="1139" y2="357" gradientUnits="userSpaceOnUse">
<stop/>
<stop offset="1" stop-color="#666666" stop-opacity="0"/>
</linearGradient>
<linearGradient id="paint2_linear_252_4" x1="1025" y1="357" x2="989" y2="357" gradientUnits="userSpaceOnUse">
<stop/>
<stop offset="1" stop-color="#666666" stop-opacity="0"/>
</linearGradient>
<clipPath id="clip0_252_4">
<rect width="1440" height="720" fill="white"/>
</clipPath>
</defs>
</svg>
