<svg width="1440" height="720" viewBox="0 0 1440 720" fill="none" xmlns="http://www.w3.org/2000/svg">
<g clip-path="url(#clip0_109_26)">
<rect width="1440" height="720" fill="#080808"/>
<path d="M493 141C493 136.582 496.582 133 501 133H939C943.418 133 947 136.582 947 141V579C947 583.418 943.418 587 939 587H501C496.582 587 493 583.418 493 579V141Z" fill="white" fill-opacity="0.1"/>
<path d="M493 141C493 136.582 496.582 133 501 133H939C943.418 133 947 136.582 947 141V579C947 583.418 943.418 587 939 587H501C496.582 587 493 583.418 493 579V141Z" fill="white" fill-opacity="0.1"/>
<path d="M671 239C671 234.582 674.582 231 679 231H922C926.418 231 930 234.582 930 239V562C930 566.418 926.418 570 922 570H679C674.582 570 671 566.418 671 562V239Z" fill="white" fill-opacity="0.1"/>
<path d="M671 158C671 153.582 674.582 150 679 150H922C926.418 150 930 153.582 930 158V211C930 215.418 926.418 219 922 219H679C674.582 219 671 215.418 671 211V158Z" fill="white" fill-opacity="0.1"/>
<path d="M679 150V151H922V150V149H679V150ZM930 158H929V211H930H931V158H930ZM922 219V218H679V219V220H922V219ZM671 211H672V158H671H670V211H671ZM679 219V218C675.134 218 672 214.866 672 211H671H670C670 215.971 674.029 220 679 220V219ZM930 211H929C929 214.866 925.866 218 922 218V219V220C926.971 220 931 215.971 931 211H930ZM922 150V151C925.866 151 929 154.134 929 158H930H931C931 153.029 926.971 149 922 149V150ZM679 150V149C674.029 149 670 153.029 670 158H671H672C672 154.134 675.134 151 679 151V150Z" fill="white"/>
<path d="M684 169C684 164.582 687.582 161 692 161H812C816.418 161 820 164.582 820 169V200C820 204.418 816.418 208 812 208H692C687.582 208 684 204.418 684 200V169Z" fill="white" fill-opacity="0.1"/>
<path d="M832 169C832 164.582 835.582 161 840 161H909C913.418 161 917 164.582 917 169V200C917 204.418 913.418 208 909 208H840C835.582 208 832 204.418 832 200V169Z" fill="white" fill-opacity="0.1"/>
<path d="M684 253C684 248.582 687.582 245 692 245H909C913.418 245 917 248.582 917 253V474C917 478.418 913.418 482 909 482H692C687.582 482 684 478.418 684 474V253Z" fill="white" fill-opacity="0.1"/>
<path d="M696 429C696 424.582 699.582 421 704 421H897C901.418 421 905 424.582 905 429V461C905 465.418 901.418 469 897 469H704C699.582 469 696 465.418 696 461V429Z" fill="white" fill-opacity="0.1"/>
<path d="M684 506C684 501.582 687.582 498 692 498H909C913.418 498 917 501.582 917 506V547C917 551.418 913.418 555 909 555H692C687.582 555 684 551.418 684 547V506Z" fill="white" fill-opacity="0.1"/>
<path d="M510 158C510 153.582 513.582 150 518 150H650C654.418 150 658 153.582 658 158V562C658 566.418 654.418 570 650 570H518C513.582 570 510 566.418 510 562V158Z" fill="white" fill-opacity="0.1"/>
<path d="M518 150V151H650V150V149H518V150ZM658 158H657V562H658H659V158H658ZM650 570V569H518V570V571H650V570ZM510 562H511V158H510H509V562H510ZM518 570V569C514.134 569 511 565.866 511 562H510H509C509 566.971 513.029 571 518 571V570ZM658 562H657C657 565.866 653.866 569 650 569V570V571C654.971 571 659 566.971 659 562H658ZM650 150V151C653.866 151 657 154.134 657 158H658H659C659 153.029 654.971 149 650 149V150ZM518 150V149C513.029 149 509 153.029 509 158H510H511C511 154.134 514.134 151 518 151V150Z" fill="white"/>
<path d="M524 169C524 164.582 527.582 161 532 161H636C640.418 161 644 164.582 644 169V211C644 215.418 640.418 219 636 219H532C527.582 219 524 215.418 524 211V169Z" fill="white" fill-opacity="0.1"/>
<path d="M524 239C524 234.582 527.582 231 532 231H636C640.418 231 644 234.582 644 239V376C644 380.418 640.418 384 636 384H532C527.582 384 524 380.418 524 376V239Z" fill="white" fill-opacity="0.1"/>
<path d="M524 406C524 401.582 527.582 398 532 398H636C640.418 398 644 401.582 644 406V546C644 550.418 640.418 554 636 554H532C527.582 554 524 550.418 524 546V406Z" fill="white" fill-opacity="0.1"/>
<path d="M536 419C536 414.582 539.582 411 544 411H624C628.418 411 632 414.582 632 419V452C632 456.418 628.418 460 624 460H544C539.582 460 536 456.418 536 452V419Z" fill="white" fill-opacity="0.1"/>
<path d="M696 265C696 260.582 699.582 257 704 257H784C788.418 257 792 260.582 792 265V369C792 373.418 788.418 377 784 377H704C699.582 377 696 373.418 696 369V265Z" fill="white" fill-opacity="0.1"/>
<path d="M704 257V258H784V257V256H704V257ZM792 265H791V369H792H793V265H792ZM784 377V376H704V377V378H784V377ZM696 369H697V265H696H695V369H696ZM704 377V376C700.134 376 697 372.866 697 369H696H695C695 373.971 699.029 378 704 378V377ZM792 369H791C791 372.866 787.866 376 784 376V377V378C788.971 378 793 373.971 793 369H792ZM784 257V258C787.866 258 791 261.134 791 265H792H793C793 260.029 788.971 256 784 256V257ZM704 257V256C699.029 256 695 260.029 695 265H696H697C697 261.134 700.134 258 704 258V257Z" fill="white"/>
<path d="M809 291C809 286.582 812.582 283 817 283H897C901.418 283 905 286.582 905 291V400C905 404.418 901.418 408 897 408H817C812.582 408 809 404.418 809 400V291Z" fill="white" fill-opacity="0.1"/>
<path d="M832 519C832 514.582 835.582 511 840 511H897C901.418 511 905 514.582 905 519V535C905 539.418 901.418 543 897 543H840C835.582 543 832 539.418 832 535V519Z" fill="white" fill-opacity="0.1" stroke="white" stroke-width="2"/>
<path d="M536 253C536 248.582 539.582 245 544 245H624C628.418 245 632 248.582 632 253V312C632 316.418 628.418 320 624 320H544C539.582 320 536 316.418 536 312V253Z" fill="white" fill-opacity="0.1"/>
<path d="M544 245V246H624V245V244H544V245ZM632 253H631V312H632H633V253H632ZM624 320V319H544V320V321H624V320ZM536 312H537V253H536H535V312H536ZM544 320V319C540.134 319 537 315.866 537 312H536H535C535 316.971 539.029 321 544 321V320ZM632 312H631C631 315.866 627.866 319 624 319V320V321C628.971 321 633 316.971 633 312H632ZM624 245V246C627.866 246 631 249.134 631 253H632H633C633 248.029 628.971 244 624 244V245ZM544 245V244C539.029 244 535 248.029 535 253H536H537C537 249.134 540.134 246 544 246V245Z" fill="white"/>
<path d="M732.493 282.556V195.5C732.493 191.082 736.075 187.5 740.493 187.5H881.75C886.168 187.5 889.75 191.082 889.75 195.5V522.5C889.75 526.918 886.168 530.5 881.75 530.5H591.75C587.332 530.5 583.75 526.918 583.75 522.5V298.556C583.75 294.138 587.332 290.556 591.75 290.556H724.493C728.911 290.556 732.493 286.974 732.493 282.556Z" stroke="white" stroke-dasharray="4 4"/>
</g>
<rect x="0.5" y="0.5" width="1439" height="719" stroke="black"/>
<defs>
<clipPath id="clip0_109_26">
<rect width="1440" height="720" fill="white"/>
</clipPath>
</defs>
</svg>
