<svg width="1440" height="720" viewBox="0 0 1440 720" fill="none" xmlns="http://www.w3.org/2000/svg" xmlns:xlink="http://www.w3.org/1999/xlink">
<g clip-path="url(#clip0_162_4)">
<rect width="1440" height="720" fill="#080808"/>
<path d="M250 116C250 111.582 253.582 108 258 108H414C418.418 108 422 111.582 422 116V427C422 431.418 418.418 435 414 435H258C253.582 435 250 431.418 250 427V116Z" fill="url(#pattern0_162_4)" fill-opacity="0.2"/>
<path d="M476 296C476 291.582 479.582 288 484 288H764C768.418 288 772 291.582 772 296V481C772 485.418 768.418 489 764 489H484C479.582 489 476 485.418 476 481V296Z" fill="url(#pattern1_162_4)" fill-opacity="0.2"/>
<path d="M408 276C408 271.582 411.582 268 416 268H572C576.418 268 580 271.582 580 276V532C580 536.418 576.418 540 572 540H416C411.582 540 408 536.418 408 532V276Z" fill="url(#pattern2_162_4)" fill-opacity="0.2"/>
<path d="M961 344C961 339.582 964.582 336 969 336H1125C1129.42 336 1133 339.582 1133 344V600C1133 604.418 1129.42 608 1125 608H969C964.582 608 961 604.418 961 600V344Z" fill="url(#pattern3_162_4)" fill-opacity="0.2"/>
<path d="M612 264C612 259.582 615.582 256 620 256H776C780.418 256 784 259.582 784 264V520C784 524.418 780.418 528 776 528H620C615.582 528 612 524.418 612 520V264Z" fill="url(#pattern4_162_4)" fill-opacity="0.2"/>
<path d="M815 198C815 193.582 818.582 190 823 190H979C983.418 190 987 193.582 987 198V454C987 458.418 983.418 462 979 462H823C818.582 462 815 458.418 815 454V198Z" fill="url(#pattern5_162_4)" fill-opacity="0.2"/>
<path d="M512 334C512 329.582 515.582 326 520 326H846C850.418 326 854 329.582 854 334V590C854 594.418 850.418 598 846 598H520C515.582 598 512 594.418 512 590V334Z" fill="url(#pattern6_162_4)" fill-opacity="0.2"/>
<path d="M850 83C850 78.5817 853.582 75 858 75H1184C1188.42 75 1192 78.5817 1192 83V339C1192 343.418 1188.42 347 1184 347H858C853.582 347 850 343.418 850 339V83Z" fill="url(#pattern7_162_4)" fill-opacity="0.2"/>
<path d="M705 304C705 299.582 708.582 296 713 296H1039C1043.42 296 1047 299.582 1047 304V560C1047 564.418 1043.42 568 1039 568H713C708.582 568 705 564.418 705 560V304Z" fill="url(#pattern8_162_4)" fill-opacity="0.2"/>
<path d="M453 204C453 199.582 456.582 196 461 196H907C911.418 196 915 199.582 915 204V464C915 468.418 911.418 472 907 472H461C456.582 472 453 468.418 453 464V204Z" fill="url(#pattern9_162_4)" fill-opacity="0.2"/>
<path d="M634 138C634 133.582 637.582 130 642 130H1013C1017.42 130 1021 133.582 1021 138V398C1021 402.418 1017.42 406 1013 406H642C637.582 406 634 402.418 634 398V138Z" fill="url(#pattern10_162_4)" fill-opacity="0.2"/>
<path d="M886 280C886 275.582 889.582 272 894 272H1269C1273.42 272 1277 275.582 1277 280V392C1277 396.418 1273.42 400 1269 400H894C889.582 400 886 396.418 886 392V280Z" fill="url(#pattern11_162_4)" fill-opacity="0.2"/>
<path d="M739 204C739 199.582 742.582 196 747 196H1122C1126.42 196 1130 199.582 1130 204V316C1130 320.418 1126.42 324 1122 324H747C742.582 324 739 320.418 739 316V204Z" fill="url(#pattern12_162_4)" fill-opacity="0.2"/>
<path d="M329 433C329 428.582 332.582 425 337 425H712C716.418 425 720 428.582 720 433V545C720 549.418 716.418 553 712 553H337C332.582 553 329 549.418 329 545V433Z" fill="url(#pattern13_162_4)" fill-opacity="0.2"/>
<path d="M155 261C155 256.582 158.582 253 163 253H538C542.418 253 546 256.582 546 261V381C546 385.418 542.418 389 538 389H163C158.582 389 155 385.418 155 381V261Z" fill="url(#pattern14_162_4)" fill-opacity="0.2"/>
<path d="M568 372C568 367.582 571.582 364 576 364H951C955.418 364 959 367.582 959 372V492C959 496.418 955.418 500 951 500H576C571.582 500 568 496.418 568 492V372Z" fill="url(#pattern15_162_4)" fill-opacity="0.2"/>
<path d="M233 504C233 499.582 236.582 496 241 496H616C620.418 496 624 499.582 624 504V624C624 628.418 620.418 632 616 632H241C236.582 632 233 628.418 233 624V504Z" fill="url(#pattern16_162_4)" fill-opacity="0.2"/>
<path d="M705 352C705 347.582 708.582 344 713 344H1088C1092.42 344 1096 347.582 1096 352V512C1096 516.418 1092.42 520 1088 520H713C708.582 520 705 516.418 705 512V352Z" fill="url(#pattern17_162_4)" fill-opacity="0.2"/>
<path d="M774 267C774 262.582 777.582 259 782 259H1157C1161.42 259 1165 262.582 1165 267V427C1165 431.418 1161.42 435 1157 435H782C777.582 435 774 431.418 774 427V267Z" fill="url(#pattern18_162_4)" fill-opacity="0.2"/>
<path d="M293 280C293 275.582 296.582 272 301 272H676C680.418 272 684 275.582 684 280V440C684 444.418 680.418 448 676 448H301C296.582 448 293 444.418 293 440V280Z" fill="url(#pattern19_162_4)" fill-opacity="0.2"/>
<path d="M362 195C362 190.582 365.582 187 370 187H745C749.418 187 753 190.582 753 195V355C753 359.418 749.418 363 745 363H370C365.582 363 362 359.418 362 355V195Z" fill="url(#pattern20_162_4)" fill-opacity="0.2"/>
<path d="M381 176C381 171.582 384.582 168 389 168H764C768.418 168 772 171.582 772 176V336C772 340.418 768.418 344 764 344H389C384.582 344 381 340.418 381 336V176Z" fill="url(#pattern21_162_4)" fill-opacity="0.2"/>
</g>
<defs>
<clipPath id="clip0_162_4">
<rect width="1440" height="720" fill="white"/>
</clipPath>
<pattern id="pattern0_162_4" patternUnits="userSpaceOnUse" patternTransform="matrix(12.5 0 0 12.5 333.5 269)" preserveAspectRatio="none" viewBox="-1.62913e-06 2.18557e-06 125 125" width="1" height="1">
<g id="pattern0_162_4_inner">
<path d="M42 1.83588e-06C46.4183 2.02901e-06 50 3.58172 50 8L50 42C50 46.4183 46.4183 50 42 50L8 50C3.58172 50 1.56563e-07 46.4183 3.49692e-07 42L1.83588e-06 8C2.02901e-06 3.58172 3.58172 1.56562e-07 8 3.49691e-07L42 1.83588e-06Z" fill="white"/>
</g>
</pattern><pattern id="pattern1_162_4" patternUnits="userSpaceOnUse" patternTransform="matrix(12.5 0 0 12.5 621.5 386)" preserveAspectRatio="none" viewBox="-1.62913e-06 2.18557e-06 125 125" width="1" height="1">
<g id="pattern1_162_4_inner">
<path d="M42 1.83588e-06C46.4183 2.02901e-06 50 3.58172 50 8L50 42C50 46.4183 46.4183 50 42 50L8 50C3.58172 50 1.56563e-07 46.4183 3.49692e-07 42L1.83588e-06 8C2.02901e-06 3.58172 3.58172 1.56562e-07 8 3.49691e-07L42 1.83588e-06Z" fill="white"/>
</g>
</pattern><pattern id="pattern2_162_4" patternUnits="userSpaceOnUse" patternTransform="matrix(12.5 0 0 12.5 491.5 401.5)" preserveAspectRatio="none" viewBox="-1.62913e-06 2.18557e-06 125 125" width="1" height="1">
<g id="pattern2_162_4_inner">
<path d="M42 1.83588e-06C46.4183 2.02901e-06 50 3.58172 50 8L50 42C50 46.4183 46.4183 50 42 50L8 50C3.58172 50 1.56563e-07 46.4183 3.49692e-07 42L1.83588e-06 8C2.02901e-06 3.58172 3.58172 1.56562e-07 8 3.49691e-07L42 1.83588e-06Z" fill="white"/>
</g>
</pattern><pattern id="pattern3_162_4" patternUnits="userSpaceOnUse" patternTransform="matrix(12.5 0 0 12.5 1044.5 469.5)" preserveAspectRatio="none" viewBox="-1.62913e-06 2.18557e-06 125 125" width="1" height="1">
<g id="pattern3_162_4_inner">
<path d="M42 1.83588e-06C46.4183 2.02901e-06 50 3.58172 50 8L50 42C50 46.4183 46.4183 50 42 50L8 50C3.58172 50 1.56563e-07 46.4183 3.49692e-07 42L1.83588e-06 8C2.02901e-06 3.58172 3.58172 1.56562e-07 8 3.49691e-07L42 1.83588e-06Z" fill="white"/>
</g>
</pattern><pattern id="pattern4_162_4" patternUnits="userSpaceOnUse" patternTransform="matrix(12.5 0 0 12.5 695.5 389.5)" preserveAspectRatio="none" viewBox="-1.62913e-06 2.18557e-06 125 125" width="1" height="1">
<g id="pattern4_162_4_inner">
<path d="M42 1.83588e-06C46.4183 2.02901e-06 50 3.58172 50 8L50 42C50 46.4183 46.4183 50 42 50L8 50C3.58172 50 1.56563e-07 46.4183 3.49692e-07 42L1.83588e-06 8C2.02901e-06 3.58172 3.58172 1.56562e-07 8 3.49691e-07L42 1.83588e-06Z" fill="white"/>
</g>
</pattern><pattern id="pattern5_162_4" patternUnits="userSpaceOnUse" patternTransform="matrix(12.5 0 0 12.5 898.5 323.5)" preserveAspectRatio="none" viewBox="-1.62913e-06 2.18557e-06 125 125" width="1" height="1">
<g id="pattern5_162_4_inner">
<path d="M42 1.83588e-06C46.4183 2.02901e-06 50 3.58172 50 8L50 42C50 46.4183 46.4183 50 42 50L8 50C3.58172 50 1.56563e-07 46.4183 3.49692e-07 42L1.83588e-06 8C2.02901e-06 3.58172 3.58172 1.56562e-07 8 3.49691e-07L42 1.83588e-06Z" fill="white"/>
</g>
</pattern><pattern id="pattern6_162_4" patternUnits="userSpaceOnUse" patternTransform="matrix(12.5 0 0 12.5 680.5 459.5)" preserveAspectRatio="none" viewBox="-1.62913e-06 2.18557e-06 125 125" width="1" height="1">
<g id="pattern6_162_4_inner">
<path d="M42 1.83588e-06C46.4183 2.02901e-06 50 3.58172 50 8L50 42C50 46.4183 46.4183 50 42 50L8 50C3.58172 50 1.56563e-07 46.4183 3.49692e-07 42L1.83588e-06 8C2.02901e-06 3.58172 3.58172 1.56562e-07 8 3.49691e-07L42 1.83588e-06Z" fill="white"/>
</g>
</pattern><pattern id="pattern7_162_4" patternUnits="userSpaceOnUse" patternTransform="matrix(12.5 0 0 12.5 1018.5 208.5)" preserveAspectRatio="none" viewBox="-1.62913e-06 2.18557e-06 125 125" width="1" height="1">
<g id="pattern7_162_4_inner">
<path d="M42 1.83588e-06C46.4183 2.02901e-06 50 3.58172 50 8L50 42C50 46.4183 46.4183 50 42 50L8 50C3.58172 50 1.56563e-07 46.4183 3.49692e-07 42L1.83588e-06 8C2.02901e-06 3.58172 3.58172 1.56562e-07 8 3.49691e-07L42 1.83588e-06Z" fill="white"/>
</g>
</pattern><pattern id="pattern8_162_4" patternUnits="userSpaceOnUse" patternTransform="matrix(12.5 0 0 12.5 873.5 429.5)" preserveAspectRatio="none" viewBox="-1.62913e-06 2.18557e-06 125 125" width="1" height="1">
<g id="pattern8_162_4_inner">
<path d="M42 1.83588e-06C46.4183 2.02901e-06 50 3.58172 50 8L50 42C50 46.4183 46.4183 50 42 50L8 50C3.58172 50 1.56563e-07 46.4183 3.49692e-07 42L1.83588e-06 8C2.02901e-06 3.58172 3.58172 1.56562e-07 8 3.49691e-07L42 1.83588e-06Z" fill="white"/>
</g>
</pattern><pattern id="pattern9_162_4" patternUnits="userSpaceOnUse" patternTransform="matrix(12.5 0 0 12.5 681.5 331.5)" preserveAspectRatio="none" viewBox="-1.62913e-06 2.18557e-06 125 125" width="1" height="1">
<g id="pattern9_162_4_inner">
<path d="M42 1.83588e-06C46.4183 2.02901e-06 50 3.58172 50 8L50 42C50 46.4183 46.4183 50 42 50L8 50C3.58172 50 1.56563e-07 46.4183 3.49692e-07 42L1.83588e-06 8C2.02901e-06 3.58172 3.58172 1.56562e-07 8 3.49691e-07L42 1.83588e-06Z" fill="white"/>
</g>
</pattern><pattern id="pattern10_162_4" patternUnits="userSpaceOnUse" patternTransform="matrix(12.5 0 0 12.5 825 265.5)" preserveAspectRatio="none" viewBox="-1.62913e-06 2.18557e-06 125 125" width="1" height="1">
<g id="pattern10_162_4_inner">
<path d="M42 1.83588e-06C46.4183 2.02901e-06 50 3.58172 50 8L50 42C50 46.4183 46.4183 50 42 50L8 50C3.58172 50 1.56563e-07 46.4183 3.49692e-07 42L1.83588e-06 8C2.02901e-06 3.58172 3.58172 1.56562e-07 8 3.49691e-07L42 1.83588e-06Z" fill="white"/>
</g>
</pattern><pattern id="pattern11_162_4" patternUnits="userSpaceOnUse" patternTransform="matrix(12.5 0 0 12.5 1079 333.5)" preserveAspectRatio="none" viewBox="-1.62913e-06 2.18557e-06 125 125" width="1" height="1">
<g id="pattern11_162_4_inner">
<path d="M42 1.83588e-06C46.4183 2.02901e-06 50 3.58172 50 8L50 42C50 46.4183 46.4183 50 42 50L8 50C3.58172 50 1.56563e-07 46.4183 3.49692e-07 42L1.83588e-06 8C2.02901e-06 3.58172 3.58172 1.56562e-07 8 3.49691e-07L42 1.83588e-06Z" fill="white"/>
</g>
</pattern><pattern id="pattern12_162_4" patternUnits="userSpaceOnUse" patternTransform="matrix(12.5 0 0 12.5 932 257.5)" preserveAspectRatio="none" viewBox="-1.62913e-06 2.18557e-06 125 125" width="1" height="1">
<g id="pattern12_162_4_inner">
<path d="M42 1.83588e-06C46.4183 2.02901e-06 50 3.58172 50 8L50 42C50 46.4183 46.4183 50 42 50L8 50C3.58172 50 1.56563e-07 46.4183 3.49692e-07 42L1.83588e-06 8C2.02901e-06 3.58172 3.58172 1.56562e-07 8 3.49691e-07L42 1.83588e-06Z" fill="white"/>
</g>
</pattern><pattern id="pattern13_162_4" patternUnits="userSpaceOnUse" patternTransform="matrix(12.5 0 0 12.5 522 486.5)" preserveAspectRatio="none" viewBox="-1.62913e-06 2.18557e-06 125 125" width="1" height="1">
<g id="pattern13_162_4_inner">
<path d="M42 1.83588e-06C46.4183 2.02901e-06 50 3.58172 50 8L50 42C50 46.4183 46.4183 50 42 50L8 50C3.58172 50 1.56563e-07 46.4183 3.49692e-07 42L1.83588e-06 8C2.02901e-06 3.58172 3.58172 1.56562e-07 8 3.49691e-07L42 1.83588e-06Z" fill="white"/>
</g>
</pattern><pattern id="pattern14_162_4" patternUnits="userSpaceOnUse" patternTransform="matrix(12.5 0 0 12.5 348 318.5)" preserveAspectRatio="none" viewBox="-1.62913e-06 2.18557e-06 125 125" width="1" height="1">
<g id="pattern14_162_4_inner">
<path d="M42 1.83588e-06C46.4183 2.02901e-06 50 3.58172 50 8L50 42C50 46.4183 46.4183 50 42 50L8 50C3.58172 50 1.56563e-07 46.4183 3.49692e-07 42L1.83588e-06 8C2.02901e-06 3.58172 3.58172 1.56562e-07 8 3.49691e-07L42 1.83588e-06Z" fill="white"/>
</g>
</pattern><pattern id="pattern15_162_4" patternUnits="userSpaceOnUse" patternTransform="matrix(12.5 0 0 12.5 761 429.5)" preserveAspectRatio="none" viewBox="-1.62913e-06 2.18557e-06 125 125" width="1" height="1">
<g id="pattern15_162_4_inner">
<path d="M42 1.83588e-06C46.4183 2.02901e-06 50 3.58172 50 8L50 42C50 46.4183 46.4183 50 42 50L8 50C3.58172 50 1.56563e-07 46.4183 3.49692e-07 42L1.83588e-06 8C2.02901e-06 3.58172 3.58172 1.56562e-07 8 3.49691e-07L42 1.83588e-06Z" fill="white"/>
</g>
</pattern><pattern id="pattern16_162_4" patternUnits="userSpaceOnUse" patternTransform="matrix(12.5 0 0 12.5 426 561.5)" preserveAspectRatio="none" viewBox="-1.62913e-06 2.18557e-06 125 125" width="1" height="1">
<g id="pattern16_162_4_inner">
<path d="M42 1.83588e-06C46.4183 2.02901e-06 50 3.58172 50 8L50 42C50 46.4183 46.4183 50 42 50L8 50C3.58172 50 1.56563e-07 46.4183 3.49692e-07 42L1.83588e-06 8C2.02901e-06 3.58172 3.58172 1.56562e-07 8 3.49691e-07L42 1.83588e-06Z" fill="white"/>
</g>
</pattern><pattern id="pattern17_162_4" patternUnits="userSpaceOnUse" patternTransform="matrix(12.5 0 0 12.5 898 429.5)" preserveAspectRatio="none" viewBox="-1.62913e-06 2.18557e-06 125 125" width="1" height="1">
<g id="pattern17_162_4_inner">
<path d="M42 1.83588e-06C46.4183 2.02901e-06 50 3.58172 50 8L50 42C50 46.4183 46.4183 50 42 50L8 50C3.58172 50 1.56563e-07 46.4183 3.49692e-07 42L1.83588e-06 8C2.02901e-06 3.58172 3.58172 1.56562e-07 8 3.49691e-07L42 1.83588e-06Z" fill="white"/>
</g>
</pattern><pattern id="pattern18_162_4" patternUnits="userSpaceOnUse" patternTransform="matrix(12.5 0 0 12.5 967 344.5)" preserveAspectRatio="none" viewBox="-1.62913e-06 2.18557e-06 125 125" width="1" height="1">
<g id="pattern18_162_4_inner">
<path d="M42 1.83588e-06C46.4183 2.02901e-06 50 3.58172 50 8L50 42C50 46.4183 46.4183 50 42 50L8 50C3.58172 50 1.56563e-07 46.4183 3.49692e-07 42L1.83588e-06 8C2.02901e-06 3.58172 3.58172 1.56562e-07 8 3.49691e-07L42 1.83588e-06Z" fill="white"/>
</g>
</pattern><pattern id="pattern19_162_4" patternUnits="userSpaceOnUse" patternTransform="matrix(12.5 0 0 12.5 486 357.5)" preserveAspectRatio="none" viewBox="-1.62913e-06 2.18557e-06 125 125" width="1" height="1">
<g id="pattern19_162_4_inner">
<path d="M42 1.83588e-06C46.4183 2.02901e-06 50 3.58172 50 8L50 42C50 46.4183 46.4183 50 42 50L8 50C3.58172 50 1.56563e-07 46.4183 3.49692e-07 42L1.83588e-06 8C2.02901e-06 3.58172 3.58172 1.56562e-07 8 3.49691e-07L42 1.83588e-06Z" fill="white"/>
</g>
</pattern><pattern id="pattern20_162_4" patternUnits="userSpaceOnUse" patternTransform="matrix(12.5 0 0 12.5 555 272.5)" preserveAspectRatio="none" viewBox="-1.62913e-06 2.18557e-06 125 125" width="1" height="1">
<g id="pattern20_162_4_inner">
<path d="M42 1.83588e-06C46.4183 2.02901e-06 50 3.58172 50 8L50 42C50 46.4183 46.4183 50 42 50L8 50C3.58172 50 1.56563e-07 46.4183 3.49692e-07 42L1.83588e-06 8C2.02901e-06 3.58172 3.58172 1.56562e-07 8 3.49691e-07L42 1.83588e-06Z" fill="white"/>
</g>
</pattern><pattern id="pattern21_162_4" patternUnits="userSpaceOnUse" patternTransform="matrix(12.5 0 0 12.5 574 253.5)" preserveAspectRatio="none" viewBox="-1.62913e-06 2.18557e-06 125 125" width="1" height="1">
<g id="pattern21_162_4_inner">
<path d="M42 1.83588e-06C46.4183 2.02901e-06 50 3.58172 50 8L50 42C50 46.4183 46.4183 50 42 50L8 50C3.58172 50 1.56563e-07 46.4183 3.49692e-07 42L1.83588e-06 8C2.02901e-06 3.58172 3.58172 1.56562e-07 8 3.49691e-07L42 1.83588e-06Z" fill="white"/>
</g>
</pattern></defs>
</svg>
