<svg width="1440" height="720" viewBox="0 0 1440 720" fill="none" xmlns="http://www.w3.org/2000/svg">
<g clip-path="url(#clip0_113_4)">
<rect width="1440" height="720" fill="#080808"/>
<path d="M673 205C677.418 205 681 208.582 681 213L681 491C681 495.418 677.418 499 673 499L510 499C505.582 499 502 495.418 502 491L502 213C502 208.582 505.582 205 510 205L673 205Z" fill="white" fill-opacity="0.1"/>
<path d="M998 204C1002.42 204 1006 207.582 1006 212L1006 490C1006 494.418 1002.42 498 998 498L853 498C848.582 498 845 494.418 845 490L845 212C845 207.582 848.582 204 853 204L998 204Z" fill="white" fill-opacity="0.1"/>
<path d="M634 246C638.418 246 642 249.582 642 254L642 580C642 584.418 638.418 588 634 588L465 588C460.582 588 457 584.418 457 580L457 254C457 249.582 460.582 246 465 246L634 246Z" fill="white" fill-opacity="0.1"/>
<path d="M977 245C981.418 245 985 248.582 985 253L985 546C985 550.418 981.418 554 977 554L808 554C803.582 554 800 550.418 800 546L800 253C800 248.582 803.582 245 808 245L977 245Z" fill="white" fill-opacity="0.1"/>
<path d="M759 139L759.5 139C759.5 138.498 759.549 138.009 759.643 137.536L759.152 137.439L758.662 137.342C758.556 137.878 758.5 138.433 758.5 139L759 139ZM760.348 134.555L760.763 134.833C761.311 134.015 762.015 133.311 762.833 132.763L762.555 132.347L762.277 131.932C761.35 132.552 760.552 133.35 759.932 134.277L760.348 134.555ZM765.439 131.152L765.536 131.643C766.009 131.549 766.499 131.5 767 131.5L767 131L767 130.5C766.433 130.5 765.878 130.556 765.342 130.662L765.439 131.152ZM767 131L767 131.5L769.016 131.5L769.016 131L769.016 130.5L767 130.5L767 131ZM773.048 131L773.048 131.5L777.081 131.5L777.081 131L777.081 130.5L773.048 130.5L773.048 131ZM781.113 131L781.113 131.5L785.145 131.5L785.145 131L785.145 130.5L781.113 130.5L781.113 131ZM789.177 131L789.177 131.5L793.21 131.5L793.21 131L793.21 130.5L789.177 130.5L789.177 131ZM797.242 131L797.242 131.5L801.274 131.5L801.274 131L801.274 130.5L797.242 130.5L797.242 131ZM805.306 131L805.306 131.5L809.339 131.5L809.339 131L809.339 130.5L805.306 130.5L805.306 131ZM813.371 131L813.371 131.5L817.403 131.5L817.403 131L817.403 130.5L813.371 130.5L813.371 131ZM821.436 131L821.436 131.5L825.468 131.5L825.468 131L825.468 130.5L821.436 130.5L821.436 131ZM829.5 131L829.5 131.5L833.532 131.5L833.532 131L833.532 130.5L829.5 130.5L829.5 131ZM837.565 131L837.565 131.5L841.597 131.5L841.597 131L841.597 130.5L837.565 130.5L837.565 131ZM845.629 131L845.629 131.5L849.661 131.5L849.661 131L849.661 130.5L845.629 130.5L845.629 131ZM853.694 131L853.694 131.5L857.726 131.5L857.726 131L857.726 130.5L853.694 130.5L853.694 131ZM861.758 131L861.758 131.5L865.79 131.5L865.79 131L865.79 130.5L861.758 130.5L861.758 131ZM869.823 131L869.823 131.5L873.855 131.5L873.855 131L873.855 130.5L869.823 130.5L869.823 131ZM877.887 131L877.887 131.5L881.919 131.5L881.919 131L881.919 130.5L877.887 130.5L877.887 131ZM885.952 131L885.952 131.5L889.984 131.5L889.984 131L889.984 130.5L885.952 130.5L885.952 131ZM894.016 131L894.016 131.5L898.048 131.5L898.048 131L898.048 130.5L894.016 130.5L894.016 131ZM902.081 131L902.081 131.5L906.113 131.5L906.113 131L906.113 130.5L902.081 130.5L902.081 131ZM910.145 131L910.145 131.5L914.177 131.5L914.177 131L914.177 130.5L910.145 130.5L910.145 131ZM918.21 131L918.21 131.5L922.242 131.5L922.242 131L922.242 130.5L918.21 130.5L918.21 131ZM926.274 131L926.274 131.5L930.306 131.5L930.306 131L930.306 130.5L926.274 130.5L926.274 131ZM934.339 131L934.339 131.5L938.371 131.5L938.371 131L938.371 130.5L934.339 130.5L934.339 131ZM942.403 131L942.403 131.5L946.435 131.5L946.435 131L946.435 130.5L942.403 130.5L942.403 131ZM950.468 131L950.468 131.5L954.5 131.5L954.5 131L954.5 130.5L950.468 130.5L950.468 131ZM958.532 131L958.532 131.5L962.565 131.5L962.565 131L962.565 130.5L958.532 130.5L958.532 131ZM966.597 131L966.597 131.5L970.629 131.5L970.629 131L970.629 130.5L966.597 130.5L966.597 131ZM974.661 131L974.661 131.5L978.694 131.5L978.694 131L978.694 130.5L974.661 130.5L974.661 131ZM982.726 131L982.726 131.5L986.758 131.5L986.758 131L986.758 130.5L982.726 130.5L982.726 131ZM990.79 131L990.79 131.5L994.823 131.5L994.823 131L994.823 130.5L990.79 130.5L990.79 131ZM998.855 131L998.855 131.5L1002.89 131.5L1002.89 131L1002.89 130.5L998.855 130.5L998.855 131ZM1006.92 131L1006.92 131.5L1010.95 131.5L1010.95 131L1010.95 130.5L1006.92 130.5L1006.92 131ZM1014.98 131L1014.98 131.5L1017 131.5L1017 131L1017 130.5L1014.98 130.5L1014.98 131ZM1017 131L1017 131.5C1017.5 131.5 1017.99 131.549 1018.46 131.643L1018.56 131.152L1018.66 130.662C1018.12 130.556 1017.57 130.5 1017 130.5L1017 131ZM1021.44 132.347L1021.17 132.763C1021.98 133.311 1022.69 134.015 1023.24 134.833L1023.65 134.555L1024.07 134.277C1023.45 133.35 1022.65 132.552 1021.72 131.932L1021.44 132.347ZM1024.85 137.439L1024.36 137.536C1024.45 138.009 1024.5 138.498 1024.5 139L1025 139L1025.5 139C1025.5 138.433 1025.44 137.878 1025.34 137.342L1024.85 137.439ZM1025 139L1024.5 139L1024.5 141.005L1025 141.005L1025.5 141.005L1025.5 139L1025 139ZM1025 145.014L1024.5 145.014L1024.5 149.023L1025 149.023L1025.5 149.023L1025.5 145.014L1025 145.014ZM1025 153.032L1024.5 153.032L1024.5 157.041L1025 157.041L1025.5 157.041L1025.5 153.032L1025 153.032ZM1025 161.05L1024.5 161.05L1024.5 165.059L1025 165.059L1025.5 165.059L1025.5 161.05L1025 161.05ZM1025 169.068L1024.5 169.068L1024.5 173.077L1025 173.077L1025.5 173.077L1025.5 169.068L1025 169.068ZM1025 177.086L1024.5 177.086L1024.5 181.095L1025 181.095L1025.5 181.095L1025.5 177.086L1025 177.086ZM1025 185.105L1024.5 185.105L1024.5 189.114L1025 189.114L1025.5 189.114L1025.5 185.105L1025 185.105ZM1025 193.123L1024.5 193.123L1024.5 197.132L1025 197.132L1025.5 197.132L1025.5 193.123L1025 193.123ZM1025 201.141L1024.5 201.141L1024.5 205.15L1025 205.15L1025.5 205.15L1025.5 201.141L1025 201.141ZM1025 209.159L1024.5 209.159L1024.5 213.168L1025 213.168L1025.5 213.168L1025.5 209.159L1025 209.159ZM1025 217.177L1024.5 217.177L1024.5 221.186L1025 221.186L1025.5 221.186L1025.5 217.177L1025 217.177ZM1025 225.195L1024.5 225.195L1024.5 229.205L1025 229.205L1025.5 229.205L1025.5 225.195L1025 225.195ZM1025 233.214L1024.5 233.214L1024.5 237.223L1025 237.223L1025.5 237.223L1025.5 233.214L1025 233.214ZM1025 241.232L1024.5 241.232L1024.5 245.241L1025 245.241L1025.5 245.241L1025.5 241.232L1025 241.232ZM1025 249.25L1024.5 249.25L1024.5 253.259L1025 253.259L1025.5 253.259L1025.5 249.25L1025 249.25ZM1025 257.268L1024.5 257.268L1024.5 261.277L1025 261.277L1025.5 261.277L1025.5 257.268L1025 257.268ZM1025 265.286L1024.5 265.286L1024.5 269.296L1025 269.296L1025.5 269.296L1025.5 265.286L1025 265.286ZM1025 273.305L1024.5 273.305L1024.5 277.314L1025 277.314L1025.5 277.314L1025.5 273.305L1025 273.305ZM1025 281.323L1024.5 281.323L1024.5 285.332L1025 285.332L1025.5 285.332L1025.5 281.323L1025 281.323ZM1025 289.341L1024.5 289.341L1024.5 293.35L1025 293.35L1025.5 293.35L1025.5 289.341L1025 289.341ZM1025 297.359L1024.5 297.359L1024.5 301.368L1025 301.368L1025.5 301.368L1025.5 297.359L1025 297.359ZM1025 305.377L1024.5 305.377L1024.5 309.386L1025 309.386L1025.5 309.386L1025.5 305.377L1025 305.377ZM1025 313.396L1024.5 313.396L1024.5 317.405L1025 317.405L1025.5 317.405L1025.5 313.396L1025 313.396ZM1025 321.414L1024.5 321.414L1024.5 325.423L1025 325.423L1025.5 325.423L1025.5 321.414L1025 321.414ZM1025 329.432L1024.5 329.432L1024.5 333.441L1025 333.441L1025.5 333.441L1025.5 329.432L1025 329.432ZM1025 337.45L1024.5 337.45L1024.5 341.459L1025 341.459L1025.5 341.459L1025.5 337.45L1025 337.45ZM1025 345.468L1024.5 345.468L1024.5 349.477L1025 349.477L1025.5 349.477L1025.5 345.468L1025 345.468ZM1025 353.486L1024.5 353.486L1024.5 357.496L1025 357.496L1025.5 357.496L1025.5 353.486L1025 353.486ZM1025 361.505L1024.5 361.505L1024.5 365.514L1025 365.514L1025.5 365.514L1025.5 361.505L1025 361.505ZM1025 369.523L1024.5 369.523L1024.5 373.532L1025 373.532L1025.5 373.532L1025.5 369.523L1025 369.523ZM1025 377.541L1024.5 377.541L1024.5 381.55L1025 381.55L1025.5 381.55L1025.5 377.541L1025 377.541ZM1025 385.559L1024.5 385.559L1024.5 389.568L1025 389.568L1025.5 389.568L1025.5 385.559L1025 385.559ZM1025 393.577L1024.5 393.577L1024.5 397.587L1025 397.587L1025.5 397.587L1025.5 393.577L1025 393.577ZM1025 401.596L1024.5 401.596L1024.5 405.605L1025 405.605L1025.5 405.605L1025.5 401.596L1025 401.596ZM1025 409.614L1024.5 409.614L1024.5 413.623L1025 413.623L1025.5 413.623L1025.5 409.614L1025 409.614ZM1025 417.632L1024.5 417.632L1024.5 421.641L1025 421.641L1025.5 421.641L1025.5 417.632L1025 417.632ZM1025 425.65L1024.5 425.65L1024.5 429.659L1025 429.659L1025.5 429.659L1025.5 425.65L1025 425.65ZM1025 433.668L1024.5 433.668L1024.5 437.677L1025 437.677L1025.5 437.677L1025.5 433.668L1025 433.668ZM1025 441.687L1024.5 441.687L1024.5 445.696L1025 445.696L1025.5 445.696L1025.5 441.687L1025 441.687ZM1025 449.705L1024.5 449.705L1024.5 453.714L1025 453.714L1025.5 453.714L1025.5 449.705L1025 449.705ZM1025 457.723L1024.5 457.723L1024.5 461.732L1025 461.732L1025.5 461.732L1025.5 457.723L1025 457.723ZM1025 465.741L1024.5 465.741L1024.5 469.75L1025 469.75L1025.5 469.75L1025.5 465.741L1025 465.741ZM1025 473.759L1024.5 473.759L1024.5 477.768L1025 477.768L1025.5 477.768L1025.5 473.759L1025 473.759ZM1025 481.777L1024.5 481.777L1024.5 485.787L1025 485.787L1025.5 485.787L1025.5 481.777L1025 481.777ZM1025 489.796L1024.5 489.796L1024.5 493.805L1025 493.805L1025.5 493.805L1025.5 489.796L1025 489.796ZM1025 497.814L1024.5 497.814L1024.5 501.823L1025 501.823L1025.5 501.823L1025.5 497.814L1025 497.814ZM1025 505.832L1024.5 505.832L1024.5 509.841L1025 509.841L1025.5 509.841L1025.5 505.832L1025 505.832ZM1025 513.85L1024.5 513.85L1024.5 517.859L1025 517.859L1025.5 517.859L1025.5 513.85L1025 513.85ZM1025 521.868L1024.5 521.868L1024.5 525.878L1025 525.878L1025.5 525.878L1025.5 521.868L1025 521.868ZM1025 529.887L1024.5 529.887L1024.5 533.896L1025 533.896L1025.5 533.896L1025.5 529.887L1025 529.887ZM1025 537.905L1024.5 537.905L1024.5 541.914L1025 541.914L1025.5 541.914L1025.5 537.905L1025 537.905ZM1025 545.923L1024.5 545.923L1024.5 549.932L1025 549.932L1025.5 549.932L1025.5 545.923L1025 545.923ZM1025 553.941L1024.5 553.941L1024.5 557.95L1025 557.95L1025.5 557.95L1025.5 553.941L1025 553.941ZM1025 561.959L1024.5 561.959L1024.5 565.968L1025 565.968L1025.5 565.968L1025.5 561.959L1025 561.959ZM1025 569.978L1024.5 569.978L1024.5 573.987L1025 573.987L1025.5 573.987L1025.5 569.978L1025 569.978ZM1025 577.996L1024.5 577.996L1024.5 580L1025 580L1025.5 580L1025.5 577.996L1025 577.996ZM1025 580L1024.5 580C1024.5 580.502 1024.45 580.991 1024.36 581.464L1024.85 581.561L1025.34 581.658C1025.44 581.122 1025.5 580.567 1025.5 580L1025 580ZM1023.65 584.445L1023.24 584.167C1022.69 584.985 1021.98 585.689 1021.17 586.237L1021.44 586.653L1021.72 587.068C1022.65 586.448 1023.45 585.65 1024.07 584.723L1023.65 584.445ZM1018.56 587.848L1018.46 587.357C1017.99 587.451 1017.5 587.5 1017 587.5L1017 588L1017 588.5C1017.57 588.5 1018.12 588.444 1018.66 588.338L1018.56 587.848ZM1017 588L1017 587.5L1014.98 587.5L1014.98 588L1014.98 588.5L1017 588.5L1017 588ZM1010.95 588L1010.95 587.5L1006.92 587.5L1006.92 588L1006.92 588.5L1010.95 588.5L1010.95 588ZM1002.89 588L1002.89 587.5L998.855 587.5L998.855 588L998.855 588.5L1002.89 588.5L1002.89 588ZM994.823 588L994.823 587.5L990.79 587.5L990.79 588L990.79 588.5L994.823 588.5L994.823 588ZM986.758 588L986.758 587.5L982.726 587.5L982.726 588L982.726 588.5L986.758 588.5L986.758 588ZM978.694 588L978.694 587.5L974.661 587.5L974.661 588L974.661 588.5L978.694 588.5L978.694 588ZM970.629 588L970.629 587.5L966.597 587.5L966.597 588L966.597 588.5L970.629 588.5L970.629 588ZM962.565 588L962.565 587.5L958.532 587.5L958.532 588L958.532 588.5L962.565 588.5L962.565 588ZM954.5 588L954.5 587.5L950.468 587.5L950.468 588L950.468 588.5L954.5 588.5L954.5 588ZM946.435 588L946.435 587.5L942.403 587.5L942.403 588L942.403 588.5L946.435 588.5L946.435 588ZM938.371 588L938.371 587.5L934.339 587.5L934.339 588L934.339 588.5L938.371 588.5L938.371 588ZM930.306 588L930.306 587.5L926.274 587.5L926.274 588L926.274 588.5L930.306 588.5L930.306 588ZM922.242 588L922.242 587.5L918.21 587.5L918.21 588L918.21 588.5L922.242 588.5L922.242 588ZM914.177 588L914.177 587.5L910.145 587.5L910.145 588L910.145 588.5L914.177 588.5L914.177 588ZM906.113 588L906.113 587.5L902.081 587.5L902.081 588L902.081 588.5L906.113 588.5L906.113 588ZM898.048 588L898.048 587.5L894.016 587.5L894.016 588L894.016 588.5L898.048 588.5L898.048 588ZM889.984 588L889.984 587.5L885.952 587.5L885.952 588L885.952 588.5L889.984 588.5L889.984 588ZM881.919 588L881.919 587.5L877.887 587.5L877.887 588L877.887 588.5L881.919 588.5L881.919 588ZM873.855 588L873.855 587.5L869.823 587.5L869.823 588L869.823 588.5L873.855 588.5L873.855 588ZM865.79 588L865.79 587.5L861.758 587.5L861.758 588L861.758 588.5L865.79 588.5L865.79 588ZM857.726 588L857.726 587.5L853.694 587.5L853.694 588L853.694 588.5L857.726 588.5L857.726 588ZM849.661 588L849.661 587.5L845.629 587.5L845.629 588L845.629 588.5L849.661 588.5L849.661 588ZM841.597 588L841.597 587.5L837.565 587.5L837.565 588L837.565 588.5L841.597 588.5L841.597 588ZM833.532 588L833.532 587.5L829.5 587.5L829.5 588L829.5 588.5L833.532 588.5L833.532 588ZM825.468 588L825.468 587.5L821.435 587.5L821.435 588L821.435 588.5L825.468 588.5L825.468 588ZM817.403 588L817.403 587.5L813.371 587.5L813.371 588L813.371 588.5L817.403 588.5L817.403 588ZM809.339 588L809.339 587.5L805.306 587.5L805.306 588L805.306 588.5L809.339 588.5L809.339 588ZM801.274 588L801.274 587.5L797.242 587.5L797.242 588L797.242 588.5L801.274 588.5L801.274 588ZM793.21 588L793.21 587.5L789.177 587.5L789.177 588L789.177 588.5L793.21 588.5L793.21 588ZM785.145 588L785.145 587.5L781.113 587.5L781.113 588L781.113 588.5L785.145 588.5L785.145 588ZM777.081 588L777.081 587.5L773.048 587.5L773.048 588L773.048 588.5L777.081 588.5L777.081 588ZM769.016 588L769.016 587.5L767 587.5L767 588L767 588.5L769.016 588.5L769.016 588ZM767 588L767 587.5C766.498 587.5 766.009 587.451 765.536 587.357L765.439 587.848L765.342 588.338C765.878 588.444 766.433 588.5 767 588.5L767 588ZM762.555 586.653L762.833 586.237C762.015 585.689 761.311 584.985 760.763 584.167L760.347 584.445L759.932 584.723C760.552 585.65 761.35 586.448 762.277 587.068L762.555 586.653ZM759.152 581.561L759.643 581.464C759.549 580.991 759.5 580.502 759.5 580L759 580L758.5 580C758.5 580.567 758.556 581.122 758.662 581.658L759.152 581.561ZM759 580L759.5 580L759.5 577.995L759 577.995L758.5 577.995L758.5 580L759 580ZM759 573.986L759.5 573.986L759.5 569.977L759 569.977L758.5 569.977L758.5 573.986L759 573.986ZM759 565.968L759.5 565.968L759.5 561.959L759 561.959L758.5 561.959L758.5 565.968L759 565.968ZM759 557.95L759.5 557.95L759.5 553.941L759 553.941L758.5 553.941L758.5 557.95L759 557.95ZM759 549.932L759.5 549.932L759.5 545.923L759 545.923L758.5 545.923L758.5 549.932L759 549.932ZM759 541.914L759.5 541.914L759.5 537.905L759 537.905L758.5 537.905L758.5 541.914L759 541.914ZM759 533.895L759.5 533.895L759.5 529.886L759 529.886L758.5 529.886L758.5 533.895L759 533.895ZM759 525.877L759.5 525.877L759.5 521.868L759 521.868L758.5 521.868L758.5 525.877L759 525.877ZM759 517.859L759.5 517.859L759.5 513.85L759 513.85L758.5 513.85L758.5 517.859L759 517.859ZM759 509.841L759.5 509.841L759.5 505.832L759 505.832L758.5 505.832L758.5 509.841L759 509.841ZM759 501.823L759.5 501.823L759.5 497.814L759 497.814L758.5 497.814L758.5 501.823L759 501.823ZM759 493.805L759.5 493.805L759.5 489.795L759 489.795L758.5 489.795L758.5 493.805L759 493.805ZM759 485.786L759.5 485.786L759.5 481.777L759 481.777L758.5 481.777L758.5 485.786L759 485.786ZM759 477.768L759.5 477.768L759.5 473.759L759 473.759L758.5 473.759L758.5 477.768L759 477.768ZM759 469.75L759.5 469.75L759.5 465.741L759 465.741L758.5 465.741L758.5 469.75L759 469.75ZM759 461.732L759.5 461.732L759.5 457.723L759 457.723L758.5 457.723L758.5 461.732L759 461.732ZM759 453.714L759.5 453.714L759.5 449.704L759 449.704L758.5 449.704L758.5 453.714L759 453.714ZM759 445.695L759.5 445.695L759.5 441.686L759 441.686L758.5 441.686L758.5 445.695L759 445.695ZM759 437.677L759.5 437.677L759.5 433.668L759 433.668L758.5 433.668L758.5 437.677L759 437.677ZM759 429.659L759.5 429.659L759.5 425.65L759 425.65L758.5 425.65L758.5 429.659L759 429.659ZM759 421.641L759.5 421.641L759.5 417.632L759 417.632L758.5 417.632L758.5 421.641L759 421.641ZM759 413.623L759.5 413.623L759.5 409.614L759 409.614L758.5 409.614L758.5 413.623L759 413.623ZM759 405.604L759.5 405.604L759.5 401.595L759 401.595L758.5 401.595L758.5 405.604L759 405.604ZM759 397.586L759.5 397.586L759.5 393.577L759 393.577L758.5 393.577L758.5 397.586L759 397.586ZM759 389.568L759.5 389.568L759.5 385.559L759 385.559L758.5 385.559L758.5 389.568L759 389.568ZM759 381.55L759.5 381.55L759.5 377.541L759 377.541L758.5 377.541L758.5 381.55L759 381.55ZM759 373.532L759.5 373.532L759.5 369.523L759 369.523L758.5 369.523L758.5 373.532L759 373.532ZM759 365.514L759.5 365.514L759.5 361.504L759 361.504L758.5 361.504L758.5 365.514L759 365.514ZM759 357.495L759.5 357.495L759.5 353.486L759 353.486L758.5 353.486L758.5 357.495L759 357.495ZM759 349.477L759.5 349.477L759.5 345.468L759 345.468L758.5 345.468L758.5 349.477L759 349.477ZM759 341.459L759.5 341.459L759.5 337.45L759 337.45L758.5 337.45L758.5 341.459L759 341.459ZM759 333.441L759.5 333.441L759.5 329.432L759 329.432L758.5 329.432L758.5 333.441L759 333.441ZM759 325.423L759.5 325.423L759.5 321.413L759 321.413L758.5 321.413L758.5 325.423L759 325.423ZM759 317.404L759.5 317.404L759.5 313.395L759 313.395L758.5 313.395L758.5 317.404L759 317.404ZM759 309.386L759.5 309.386L759.5 305.377L759 305.377L758.5 305.377L758.5 309.386L759 309.386ZM759 301.368L759.5 301.368L759.5 297.359L759 297.359L758.5 297.359L758.5 301.368L759 301.368ZM759 293.35L759.5 293.35L759.5 289.341L759 289.341L758.5 289.341L758.5 293.35L759 293.35ZM759 285.332L759.5 285.332L759.5 281.323L759 281.323L758.5 281.323L758.5 285.332L759 285.332ZM759 277.313L759.5 277.313L759.5 273.304L759 273.304L758.5 273.304L758.5 277.313L759 277.313ZM759 269.295L759.5 269.295L759.5 265.286L759 265.286L758.5 265.286L758.5 269.295L759 269.295ZM759 261.277L759.5 261.277L759.5 257.268L759 257.268L758.5 257.268L758.5 261.277L759 261.277ZM759 253.259L759.5 253.259L759.5 249.25L759 249.25L758.5 249.25L758.5 253.259L759 253.259ZM759 245.241L759.5 245.241L759.5 241.232L759 241.232L758.5 241.232L758.5 245.241L759 245.241ZM759 237.222L759.5 237.222L759.5 233.213L759 233.213L758.5 233.213L758.5 237.222L759 237.222ZM759 229.204L759.5 229.204L759.5 225.195L759 225.195L758.5 225.195L758.5 229.204L759 229.204ZM759 221.186L759.5 221.186L759.5 217.177L759 217.177L758.5 217.177L758.5 221.186L759 221.186ZM759 213.168L759.5 213.168L759.5 209.159L759 209.159L758.5 209.159L758.5 213.168L759 213.168ZM759 205.15L759.5 205.15L759.5 201.141L759 201.141L758.5 201.141L758.5 205.15L759 205.15ZM759 197.132L759.5 197.132L759.5 193.122L759 193.122L758.5 193.122L758.5 197.132L759 197.132ZM759 189.113L759.5 189.113L759.5 185.104L759 185.104L758.5 185.104L758.5 189.113L759 189.113ZM759 181.095L759.5 181.095L759.5 177.086L759 177.086L758.5 177.086L758.5 181.095L759 181.095ZM759 173.077L759.5 173.077L759.5 169.068L759 169.068L758.5 169.068L758.5 173.077L759 173.077ZM759 165.059L759.5 165.059L759.5 161.05L759 161.05L758.5 161.05L758.5 165.059L759 165.059ZM759 157.041L759.5 157.041L759.5 153.032L759 153.032L758.5 153.032L758.5 157.041L759 157.041ZM759 149.022L759.5 149.022L759.5 145.013L759 145.013L758.5 145.013L758.5 149.022L759 149.022ZM759 141.004L759.5 141.004L759.5 139L759 139L758.5 139L758.5 141.004L759 141.004Z" fill="white"/>
<path d="M617 131C621.418 131 625 134.582 625 139L625 504C625 508.418 621.418 512 617 512L422 512C417.582 512 414 508.418 414 504L414 139C414 134.582 417.582 131 422 131L617 131Z" fill="white" fill-opacity="0.1"/>
<path d="M960 160C964.418 160 968 163.582 968 168L968 503C968 507.418 964.418 511 960 511L788 511C783.582 511 780 507.418 780 503L780 168C780 163.582 783.582 160 788 160L960 160Z" fill="white" fill-opacity="0.1"/>
<path d="M561 314.333C559.527 314.333 558.333 315.527 558.333 317C558.333 318.473 559.527 319.667 561 319.667C562.473 319.667 563.667 318.473 563.667 317C563.667 315.527 562.473 314.333 561 314.333ZM660 314.333C658.527 314.333 657.333 315.527 657.333 317C657.333 318.473 658.527 319.667 660 319.667C661.473 319.667 662.667 318.473 662.667 317C662.667 315.527 661.473 314.333 660 314.333ZM660 317V316.5H657.937V317V317.5H660V317ZM653.812 317V316.5H649.688V317V317.5H653.812V317ZM645.562 317V316.5L641.438 316.5V317V317.5L645.562 317.5V317ZM637.312 317V316.5H633.187V317V317.5H637.312V317ZM629.062 317V316.5H624.938V317V317.5H629.062V317ZM620.812 317V316.5H616.688V317V317.5H620.812V317ZM612.562 317V316.5H608.438V317V317.5H612.562V317ZM604.312 317V316.5H600.187V317V317.5H604.312V317ZM596.062 317V316.5H591.938V317V317.5H596.062V317ZM587.812 317V316.5H583.688V317V317.5H587.812V317ZM579.562 317V316.5H575.437V317V317.5H579.562V317ZM571.312 317V316.5H567.188V317V317.5H571.312V317ZM563.062 317V316.5H561V317V317.5H563.062V317Z" fill="white"/>
<path d="M438 373.333C436.527 373.333 435.333 374.527 435.333 376C435.333 377.473 436.527 378.667 438 378.667C439.473 378.667 440.667 377.473 440.667 376C440.667 374.527 439.473 373.333 438 373.333ZM561 373.333C559.527 373.333 558.333 374.527 558.333 376C558.333 377.473 559.527 378.667 561 378.667C562.473 378.667 563.667 377.473 563.667 376C563.667 374.527 562.473 373.333 561 373.333ZM561 376V375.5H558.95V376V376.5H561V376ZM554.85 376V375.5H550.75V376V376.5H554.85V376ZM546.65 376V375.5L542.55 375.5V376V376.5L546.65 376.5V376ZM538.45 376V375.5H534.35V376V376.5H538.45V376ZM530.25 376V375.5H526.15V376V376.5H530.25V376ZM522.05 376V375.5H517.95V376V376.5H522.05V376ZM513.85 376V375.5H509.75V376V376.5H513.85V376ZM505.65 376V375.5H501.55V376V376.5H505.65V376ZM497.45 376V375.5H493.35V376V376.5H497.45V376ZM489.25 376V375.5H485.15V376V376.5H489.25V376ZM481.05 376V375.5H476.95V376V376.5H481.05V376ZM472.85 376V375.5H468.75V376V376.5H472.85V376ZM464.65 376V375.5H460.55V376V376.5H464.65V376ZM456.45 376V375.5L452.35 375.5V376V376.5L456.45 376.5V376ZM448.25 376V375.5H444.15V376V376.5H448.25V376ZM440.05 376V375.5H438V376V376.5H440.05V376Z" fill="white"/>
<path d="M563.667 435C563.667 433.527 562.473 432.333 561 432.333C559.527 432.333 558.333 433.527 558.333 435C558.333 436.473 559.527 437.667 561 437.667C562.473 437.667 563.667 436.473 563.667 435ZM563.667 554C563.667 552.527 562.473 551.333 561 551.333C559.527 551.333 558.333 552.527 558.333 554C558.333 555.473 559.527 556.667 561 556.667C562.473 556.667 563.667 555.473 563.667 554ZM561 554L561.5 554L561.5 552.017L561 552.017L560.5 552.017L560.5 554L561 554ZM561 548.05L561.5 548.05L561.5 544.083L561 544.083L560.5 544.083L560.5 548.05L561 548.05ZM561 540.117L561.5 540.117L561.5 536.15L561 536.15L560.5 536.15L560.5 540.117L561 540.117ZM561 532.183L561.5 532.183L561.5 528.217L561 528.217L560.5 528.217L560.5 532.183L561 532.183ZM561 524.25L561.5 524.25L561.5 520.283L561 520.283L560.5 520.283L560.5 524.25L561 524.25ZM561 516.317L561.5 516.317L561.5 512.35L561 512.35L560.5 512.35L560.5 516.317L561 516.317ZM561 508.383L561.5 508.383L561.5 504.417L561 504.417L560.5 504.417L560.5 508.383L561 508.383ZM561 500.45L561.5 500.45L561.5 496.483L561 496.483L560.5 496.483L560.5 500.45L561 500.45ZM561 492.517L561.5 492.517L561.5 488.55L561 488.55L560.5 488.55L560.5 492.517L561 492.517ZM561 484.583L561.5 484.583L561.5 480.617L561 480.617L560.5 480.617L560.5 484.583L561 484.583ZM561 476.65L561.5 476.65L561.5 472.683L561 472.683L560.5 472.683L560.5 476.65L561 476.65ZM561 468.717L561.5 468.717L561.5 464.75L561 464.75L560.5 464.75L560.5 468.717L561 468.717ZM561 460.783L561.5 460.783L561.5 456.817L561 456.817L560.5 456.817L560.5 460.783L561 460.783ZM561 452.85L561.5 452.85L561.5 448.883L561 448.883L560.5 448.883L560.5 452.85L561 452.85ZM561 444.917L561.5 444.917L561.5 440.95L561 440.95L560.5 440.95L560.5 444.917L561 444.917ZM561 436.983L561.5 436.983L561.5 435L561 435L560.5 435L560.5 436.983L561 436.983Z" fill="white"/>
<path d="M907.667 376C907.667 374.527 906.473 373.333 905 373.333C903.527 373.333 902.333 374.527 902.333 376C902.333 377.473 903.527 378.667 905 378.667C906.473 378.667 907.667 377.473 907.667 376ZM907.667 588C907.667 586.527 906.473 585.333 905 585.333C903.527 585.333 902.333 586.527 902.333 588C902.333 589.473 903.527 590.667 905 590.667C906.473 590.667 907.667 589.473 907.667 588ZM905 588L905.5 588L905.5 586.037L905 586.037L904.5 586.037L904.5 588L905 588ZM905 582.111L905.5 582.111L905.5 578.185L905 578.185L904.5 578.185L904.5 582.111L905 582.111ZM905 574.259L905.5 574.259L905.5 570.333L905 570.333L904.5 570.333L904.5 574.259L905 574.259ZM905 566.407L905.5 566.407L905.5 562.481L905 562.481L904.5 562.481L904.5 566.407L905 566.407ZM905 558.556L905.5 558.556L905.5 554.63L905 554.63L904.5 554.63L904.5 558.556L905 558.556ZM905 550.704L905.5 550.704L905.5 546.778L905 546.778L904.5 546.778L904.5 550.704L905 550.704ZM905 542.852L905.5 542.852L905.5 538.926L905 538.926L904.5 538.926L904.5 542.852L905 542.852ZM905 535L905.5 535L905.5 531.074L905 531.074L904.5 531.074L904.5 535L905 535ZM905 527.148L905.5 527.148L905.5 523.222L905 523.222L904.5 523.222L904.5 527.148L905 527.148ZM905 519.296L905.5 519.296L905.5 515.37L905 515.37L904.5 515.37L904.5 519.296L905 519.296ZM905 511.444L905.5 511.444L905.5 507.519L905 507.519L904.5 507.519L904.5 511.444L905 511.444ZM905 503.593L905.5 503.593L905.5 499.667L905 499.667L904.5 499.667L904.5 503.593L905 503.593ZM905 495.741L905.5 495.741L905.5 491.815L905 491.815L904.5 491.815L904.5 495.741L905 495.741ZM905 487.889L905.5 487.889L905.5 483.963L905 483.963L904.5 483.963L904.5 487.889L905 487.889ZM905 480.037L905.5 480.037L905.5 476.111L905 476.111L904.5 476.111L904.5 480.037L905 480.037ZM905 472.185L905.5 472.185L905.5 468.259L905 468.259L904.5 468.259L904.5 472.185L905 472.185ZM905 464.333L905.5 464.333L905.5 460.407L905 460.407L904.5 460.407L904.5 464.333L905 464.333ZM905 456.481L905.5 456.481L905.5 452.556L905 452.556L904.5 452.556L904.5 456.481L905 456.481ZM905 448.63L905.5 448.63L905.5 444.704L905 444.704L904.5 444.704L904.5 448.63L905 448.63ZM905 440.778L905.5 440.778L905.5 436.852L905 436.852L904.5 436.852L904.5 440.778L905 440.778ZM905 432.926L905.5 432.926L905.5 429L905 429L904.5 429L904.5 432.926L905 432.926ZM905 425.074L905.5 425.074L905.5 421.148L905 421.148L904.5 421.148L904.5 425.074L905 425.074ZM905 417.222L905.5 417.222L905.5 413.296L905 413.296L904.5 413.296L904.5 417.222L905 417.222ZM905 409.37L905.5 409.37L905.5 405.445L905 405.445L904.5 405.445L904.5 409.37L905 409.37ZM905 401.519L905.5 401.519L905.5 397.593L905 397.593L904.5 397.593L904.5 401.519L905 401.519ZM905 393.667L905.5 393.667L905.5 389.741L905 389.741L904.5 389.741L904.5 393.667L905 393.667ZM905 385.815L905.5 385.815L905.5 381.889L905 381.889L904.5 381.889L904.5 385.815L905 385.815ZM905 377.963L905.5 377.963L905.5 376L905 376L904.5 376L904.5 377.963L905 377.963Z" fill="white"/>
<path d="M602 269C606.418 269 610 272.582 610 277L610 476C610 480.418 606.418 484 602 484L521 484C516.582 484 513 480.418 513 476L513 277C513 272.582 516.582 269 521 269L602 269Z" fill="white" fill-opacity="0.1"/>
<path d="M610 277L609 277L609 476L610 476L611 476L611 277L610 277ZM602 484L602 483L521 483L521 484L521 485L602 485L602 484ZM513 476L514 476L514 277L513 277L512 277L512 476L513 476ZM521 269L521 270L602 270L602 269L602 268L521 268L521 269ZM513 277L514 277C514 273.134 517.134 270 521 270L521 269L521 268C516.029 268 512 272.029 512 277L513 277ZM521 484L521 483C517.134 483 514 479.866 514 476L513 476L512 476C512 480.971 516.029 485 521 485L521 484ZM610 476L609 476C609 479.866 605.866 483 602 483L602 484L602 485C606.971 485 611 480.971 611 476L610 476ZM610 277L611 277C611 272.029 606.971 268 602 268L602 269L602 270C605.866 270 609 273.134 609 277L610 277Z" fill="white"/>
<path d="M945 268C949.418 268 953 271.582 953 276L953 475C953 479.418 949.418 483 945 483L864 483C859.582 483 856 479.418 856 475L856 276C856 271.582 859.582 268 864 268L945 268Z" fill="white" fill-opacity="0.1"/>
<path d="M953 276L952 276L952 475L953 475L954 475L954 276L953 276ZM945 483L945 482L864 482L864 483L864 484L945 484L945 483ZM856 475L857 475L857 276L856 276L855 276L855 475L856 475ZM864 268L864 269L945 269L945 268L945 267L864 267L864 268ZM856 276L857 276C857 272.134 860.134 269 864 269L864 268L864 267C859.029 267 855 271.029 855 276L856 276ZM864 483L864 482C860.134 482 857 478.866 857 475L856 475L855 475C855 479.971 859.029 484 864 484L864 483ZM953 475L952 475C952 478.866 948.866 482 945 482L945 483L945 484C949.971 484 954 479.971 954 475L953 475ZM953 276L954 276C954 271.029 949.971 267 945 267L945 268L945 269C948.866 269 952 272.134 952 276L953 276Z" fill="white"/>
<path d="M572 300C576.418 300 580 303.582 580 308L580 327C580 331.418 576.418 335 572 335L551 335C546.582 335 543 331.418 543 327L543 308C543 303.582 546.582 300 551 300L572 300Z" fill="white" fill-opacity="0.5"/>
<path d="M580 308L579 308L579 327L580 327L581 327L581 308L580 308ZM572 335L572 334L551 334L551 335L551 336L572 336L572 335ZM543 327L544 327L544 308L543 308L542 308L542 327L543 327ZM551 300L551 301L572 301L572 300L572 299L551 299L551 300ZM543 308L544 308C544 304.134 547.134 301 551 301L551 300L551 299C546.029 299 542 303.029 542 308L543 308ZM551 335L551 334C547.134 334 544 330.866 544 327L543 327L542 327C542 331.971 546.029 336 551 336L551 335ZM580 327L579 327C579 330.866 575.866 334 572 334L572 335L572 336C576.971 336 581 331.971 581 327L580 327ZM580 308L581 308C581 303.029 576.971 299 572 299L572 300L572 301C575.866 301 579 304.134 579 308L580 308Z" fill="white"/>
<path d="M572 417C576.418 417 580 420.582 580 425L580 444C580 448.418 576.418 452 572 452L551 452C546.582 452 543 448.418 543 444L543 425C543 420.582 546.582 417 551 417L572 417Z" fill="white" fill-opacity="0.5"/>
<path d="M580 425L579 425L579 444L580 444L581 444L581 425L580 425ZM572 452L572 451L551 451L551 452L551 453L572 453L572 452ZM543 444L544 444L544 425L543 425L542 425L542 444L543 444ZM551 417L551 418L572 418L572 417L572 416L551 416L551 417ZM543 425L544 425C544 421.134 547.134 418 551 418L551 417L551 416C546.029 416 542 420.029 542 425L543 425ZM551 452L551 451C547.134 451 544 447.866 544 444L543 444L542 444C542 448.971 546.029 453 551 453L551 452ZM580 444L579 444C579 447.866 575.866 451 572 451L572 452L572 453C576.971 453 581 448.971 581 444L580 444ZM580 425L581 425C581 420.029 576.971 416 572 416L572 417L572 418C575.866 418 579 421.134 579 425L580 425Z" fill="white"/>
<path d="M572 359C576.418 359 580 362.582 580 367L580 386C580 390.418 576.418 394 572 394L551 394C546.582 394 543 390.418 543 386L543 367C543 362.582 546.582 359 551 359L572 359Z" fill="white" fill-opacity="0.5"/>
<path d="M580 367L579 367L579 386L580 386L581 386L581 367L580 367ZM572 394L572 393L551 393L551 394L551 395L572 395L572 394ZM543 386L544 386L544 367L543 367L542 367L542 386L543 386ZM551 359L551 360L572 360L572 359L572 358L551 358L551 359ZM543 367L544 367C544 363.134 547.134 360 551 360L551 359L551 358C546.029 358 542 362.029 542 367L543 367ZM551 394L551 393C547.134 393 544 389.866 544 386L543 386L542 386C542 390.971 546.029 395 551 395L551 394ZM580 386L579 386C579 389.866 575.866 393 572 393L572 394L572 395C576.971 395 581 390.971 581 386L580 386ZM580 367L581 367C581 362.029 576.971 358 572 358L572 359L572 360C575.866 360 579 363.134 579 367L580 367Z" fill="white"/>
<path d="M915 358C919.418 358 923 361.582 923 366L923 385C923 389.418 919.418 393 915 393L894 393C889.582 393 886 389.418 886 385L886 366C886 361.582 889.582 358 894 358L915 358Z" fill="white" fill-opacity="0.5"/>
<path d="M923 366L922 366L922 385L923 385L924 385L924 366L923 366ZM915 393L915 392L894 392L894 393L894 394L915 394L915 393ZM886 385L887 385L887 366L886 366L885 366L885 385L886 385ZM894 358L894 359L915 359L915 358L915 357L894 357L894 358ZM886 366L887 366C887 362.134 890.134 359 894 359L894 358L894 357C889.029 357 885 361.029 885 366L886 366ZM894 393L894 392C890.134 392 887 388.866 887 385L886 385L885 385C885 389.971 889.029 394 894 394L894 393ZM923 385L922 385C922 388.866 918.866 392 915 392L915 393L915 394C919.971 394 924 389.971 924 385L923 385ZM923 366L924 366C924 361.029 919.971 357 915 357L915 358L915 359C918.866 359 922 362.134 922 366L923 366Z" fill="white"/>
</g>
<defs>
<clipPath id="clip0_113_4">
<rect width="1440" height="720" fill="white"/>
</clipPath>
</defs>
</svg>
