<svg width="1440" height="720" viewBox="0 0 1440 720" fill="none" xmlns="http://www.w3.org/2000/svg">
<g clip-path="url(#clip0_116_28)">
<rect width="1440" height="720" fill="#080808"/>
<g filter="url(#filter0_i_116_28)">
<path d="M1824.14 354.343C1827.26 357.467 1827.26 362.533 1824.14 365.657L1199.05 990.739C1195.93 993.863 1190.86 993.863 1187.74 990.739L562.657 365.657C559.533 362.533 559.533 357.467 562.657 354.343L1187.74 -270.739C1190.86 -273.863 1195.93 -273.863 1199.05 -270.739L1824.14 354.343Z" fill="black" fill-opacity="0.01"/>
</g>
<mask id="path-3-inside-1_116_28" fill="white">
<path d="M1753.14 354.343C1756.26 357.467 1756.26 362.533 1753.14 365.657L1198.76 920.029C1195.64 923.153 1190.57 923.153 1187.45 920.029L633.078 365.657C629.954 362.533 629.954 357.467 633.078 354.343L1187.45 -200.029C1190.57 -203.153 1195.64 -203.153 1198.76 -200.029L1753.14 354.343Z"/>
</mask>
<path d="M1753.14 354.343C1756.26 357.467 1756.26 362.533 1753.14 365.657L1198.76 920.029C1195.64 923.153 1190.57 923.153 1187.45 920.029L633.078 365.657C629.954 362.533 629.954 357.467 633.078 354.343L1187.45 -200.029C1190.57 -203.153 1195.64 -203.153 1198.76 -200.029L1753.14 354.343Z" stroke="white" stroke-opacity="0.3" stroke-width="40" mask="url(#path-3-inside-1_116_28)"/>
<g filter="url(#filter1_i_116_28)">
<path d="M1683.14 354.343C1686.26 357.467 1686.26 362.533 1683.14 365.657L1199.47 849.318C1196.35 852.442 1191.28 852.442 1188.16 849.318L704.5 365.657C701.375 362.533 701.375 357.467 704.5 354.343L1188.16 -129.318C1191.28 -132.442 1196.35 -132.442 1199.47 -129.318L1683.14 354.343Z" fill="black" fill-opacity="0.01"/>
</g>
<path d="M1201.98 775.817L1201.27 775.11L1198.48 777.9C1197.81 778.573 1197.03 779.078 1196.21 779.419L1196.59 780.342C1194.63 781.152 1192.42 781.152 1190.47 780.342L1190.85 779.419C1190.02 779.078 1189.25 778.573 1188.58 777.9L1185.79 775.11L1185.08 775.817L1179.5 770.237L1180.21 769.53L1174.63 763.949L1173.92 764.656L1168.34 759.076L1169.05 758.369L1163.47 752.789L1162.76 753.496L1157.18 747.915L1157.89 747.208L1152.31 741.628L1151.6 742.335L1146.02 736.755L1146.73 736.047L1141.14 730.467L1140.44 731.174L1134.86 725.593L1135.56 724.886L1129.98 719.306L1129.28 720.013L1123.7 714.433L1124.4 713.726L1118.82 708.145L1118.12 708.852L1112.54 703.272L1113.24 702.565L1107.66 696.985L1106.96 697.692L1101.38 692.111L1102.08 691.404L1096.5 685.824L1095.79 686.531L1090.21 680.95L1090.92 680.243L1085.34 674.662L1084.63 675.37L1079.05 669.789L1079.76 669.082L1074.18 663.502L1073.47 664.209L1067.89 658.628L1068.6 657.921L1063.02 652.341L1062.31 653.048L1056.73 647.468L1057.44 646.761L1051.86 641.18L1051.15 641.887L1045.57 636.307L1046.28 635.6L1040.7 630.019L1039.99 630.727L1034.41 625.146L1035.12 624.439L1029.54 618.858L1028.83 619.565L1023.25 613.985L1023.96 613.278L1018.38 607.698L1017.67 608.405L1012.09 602.824L1012.8 602.117L1007.22 596.537L1006.51 597.244L1000.93 591.664L1001.63 590.957L996.054 585.376L995.347 586.083L989.767 580.503L990.474 579.796L984.894 574.215L984.187 574.922L978.606 569.342L979.313 568.634L973.733 563.054L973.025 563.761L967.445 558.181L968.152 557.474L962.571 551.893L961.864 552.6L956.284 547.02L956.991 546.313L951.411 540.733L950.704 541.44L945.124 535.86L945.831 535.152L940.25 529.572L939.543 530.279L933.963 524.699L934.67 523.991L929.09 518.411L928.382 519.118L922.802 513.537L923.509 512.83L917.928 507.25L917.221 507.957L911.641 502.377L912.348 501.67L906.767 496.089L906.06 496.796L900.48 491.216L901.187 490.509L895.607 484.929L894.9 485.636L889.32 480.055L890.027 479.348L884.446 473.767L883.739 474.475L878.159 468.894L878.866 468.187L873.285 462.607L872.578 463.314L866.997 457.733L867.705 457.026L862.124 451.446L861.417 452.153L855.837 446.573L856.544 445.866L850.964 440.286L850.257 440.993L844.676 435.412L845.383 434.705L839.803 429.124L839.096 429.832L833.516 424.251L834.223 423.544L828.642 417.963L827.935 418.67L822.354 413.09L823.062 412.383L817.481 406.803L816.774 407.51L811.193 401.929L811.9 401.222L806.32 395.642L805.613 396.349L800.033 390.769L800.74 390.062L795.16 384.481L794.453 385.189L788.872 379.608L789.579 378.901L783.999 373.32L783.292 374.027L777.711 368.447L778.419 367.74L775.628 364.95C774.956 364.277 774.45 363.503 774.109 362.679L773.186 363.062C772.377 361.105 772.377 358.894 773.186 356.938L774.109 357.321C774.45 356.496 774.956 355.723 775.628 355.05L778.418 352.26L777.711 351.553L783.291 345.973L783.998 346.68L789.579 341.099L788.872 340.392L794.452 334.812L795.159 335.519L800.739 329.939L800.032 329.232L805.613 323.651L806.32 324.358L811.9 318.778L811.193 318.071L816.774 312.491L817.481 313.198L823.062 307.617L822.354 306.91L827.935 301.329L828.642 302.037L834.222 296.456L833.515 295.749L839.095 290.169L839.802 290.876L845.383 285.295L844.676 284.588L850.256 279.008L850.963 279.715L856.543 274.135L855.836 273.428L861.417 267.847L862.124 268.554L867.705 262.974L866.997 262.267L872.578 256.686L873.285 257.393L878.866 251.813L878.159 251.105L883.739 245.525L884.446 246.232L890.026 240.652L889.319 239.945L894.9 234.364L895.607 235.071L901.187 229.491L900.48 228.784L906.06 223.204L906.767 223.911L912.348 218.33L911.641 217.623L917.221 212.043L917.928 212.75L923.509 207.17L922.802 206.462L928.382 200.882L929.089 201.589L934.67 196.008L933.963 195.301L939.543 189.721L940.25 190.428L945.83 184.848L945.123 184.141L950.704 178.56L951.411 179.267L956.991 173.687L956.284 172.98L961.864 167.4L962.572 168.107L968.152 162.526L967.445 161.819L973.026 156.239L973.733 156.946L979.313 151.365L978.606 150.658L984.187 145.077L984.894 145.785L990.474 140.204L989.767 139.497L995.347 133.917L996.054 134.624L1001.64 129.043L1000.93 128.336L1006.51 122.756L1007.22 123.463L1012.8 117.883L1012.09 117.176L1017.67 111.596L1018.38 112.303L1023.96 106.722L1023.25 106.015L1028.83 100.434L1029.54 101.142L1035.12 95.5614L1034.41 94.8542L1039.99 89.2734L1040.7 89.9805L1046.28 84.4003L1045.57 83.6931L1051.15 78.1129L1051.86 78.8201L1057.44 73.2392L1056.73 72.532L1062.31 66.9518L1063.02 67.659L1068.6 62.0787L1067.89 61.3716L1073.47 55.7914L1074.18 56.4985L1079.76 50.9176L1079.05 50.2105L1084.63 44.6303L1085.34 45.3374L1090.92 39.7572L1090.21 39.0501L1095.79 33.4692L1096.5 34.1763L1102.08 28.5961L1101.38 27.889L1106.96 22.3088L1107.66 23.0159L1113.24 17.4357L1112.54 16.7286L1118.12 11.1477L1118.82 11.8548L1124.4 6.27463L1123.7 5.56752L1129.28 -0.0126803L1129.98 0.694427L1135.56 -4.88647L1134.86 -5.59358L1140.44 -11.1738L1141.14 -10.4667L1146.73 -16.0469L1146.02 -16.754L1151.6 -22.3349L1152.31 -21.6278L1157.89 -27.208L1157.18 -27.9151L1162.76 -33.4953L1163.47 -32.7882L1169.05 -38.3684L1168.34 -39.0755L1173.92 -44.6564L1174.63 -43.9493L1180.21 -49.5295L1179.5 -50.2366L1185.08 -55.8168L1185.79 -55.1097L1188.58 -57.9001C1189.25 -58.5726 1190.02 -59.0783 1190.85 -59.4193L1190.47 -60.3426C1192.42 -61.1517 1194.63 -61.152 1196.59 -60.3426L1196.21 -59.4193C1197.03 -59.0783 1197.81 -58.5726 1198.48 -57.9001L1201.27 -55.1104L1201.97 -55.8175L1207.56 -50.2373L1206.85 -49.5302L1212.43 -43.9493L1213.14 -44.6564L1218.72 -39.0762L1218.01 -38.3691L1223.59 -32.7889L1224.3 -33.496L1229.88 -27.9151L1229.17 -27.208L1234.75 -21.6278L1235.46 -22.3349L1241.04 -16.7547L1240.33 -16.0476L1245.91 -10.4667L1246.62 -11.1738L1252.2 -5.59357L1251.49 -4.88646L1257.07 0.693747L1257.78 -0.01336L1263.36 5.56685L1262.65 6.27395L1268.23 11.8548L1268.94 11.1477L1274.52 16.7279L1273.81 17.4351L1279.39 23.0153L1280.1 22.3082L1285.68 27.889L1284.97 28.5962L1290.55 34.1764L1291.26 33.4693L1296.84 39.0495L1296.13 39.7566L1301.72 45.3375L1302.42 44.6304L1308 50.2106L1307.3 50.9177L1312.88 56.4979L1313.58 55.7908L1319.16 61.3717L1318.46 62.0788L1324.04 67.659L1324.74 66.9519L1330.32 72.5321L1329.62 73.2392L1335.2 78.8201L1335.91 78.113L1341.49 83.6932L1340.78 84.4003L1346.36 89.9805L1347.07 89.2734L1352.65 94.8536L1351.94 95.5607L1357.52 101.142L1358.23 100.434L1363.81 106.015L1363.1 106.722L1368.68 112.302L1369.39 111.595L1374.97 117.176L1374.26 117.883L1379.84 123.463L1380.55 122.756L1386.13 128.336L1385.42 129.043L1391 134.624L1391.71 133.917L1397.29 139.497L1396.58 140.204L1402.16 145.785L1402.87 145.078L1408.45 150.658L1407.74 151.366L1413.32 156.946L1414.03 156.239L1419.61 161.819L1418.9 162.526L1424.48 168.107L1425.19 167.4L1430.77 172.98L1430.07 173.687L1435.65 179.267L1436.35 178.56L1441.93 184.14L1441.23 184.847L1446.81 190.428L1447.51 189.721L1453.09 195.301L1452.39 196.009L1457.97 201.589L1458.67 200.882L1464.25 206.463L1463.55 207.17L1469.13 212.75L1469.83 212.043L1475.42 217.623L1474.71 218.33L1480.29 223.911L1481 223.204L1486.58 228.784L1485.87 229.491L1491.45 235.071L1492.16 234.364L1497.74 239.944L1497.03 240.652L1502.61 246.232L1503.32 245.525L1508.9 251.106L1508.19 251.813L1513.77 257.393L1514.48 256.686L1520.06 262.267L1519.35 262.974L1524.93 268.554L1525.64 267.847L1531.22 273.427L1530.51 274.134L1536.09 279.714L1536.8 279.007L1542.38 284.588L1541.67 285.295L1547.25 290.875L1547.96 290.168L1553.54 295.749L1552.83 296.456L1558.41 302.037L1559.12 301.329L1564.7 306.91L1563.99 307.617L1569.58 313.197L1570.28 312.49L1575.86 318.071L1575.16 318.778L1580.74 324.358L1581.44 323.651L1587.02 329.231L1586.32 329.938L1591.9 335.518L1592.6 334.811L1598.18 340.392L1597.48 341.099L1603.06 346.68L1603.76 345.972L1609.34 351.553L1608.64 352.26L1611.43 355.05C1612.1 355.723 1612.61 356.496 1612.95 357.321L1613.87 356.938C1614.68 358.894 1614.68 361.106 1613.87 363.062L1612.95 362.679C1612.61 363.504 1612.1 364.277 1611.43 364.95L1608.64 367.74L1609.35 368.447L1603.77 374.027L1603.06 373.32L1597.48 378.901L1598.18 379.608L1592.6 385.188L1591.9 384.481L1586.32 390.061L1587.02 390.768L1581.44 396.349L1580.74 395.642L1575.16 401.222L1575.86 401.929L1570.28 407.509L1569.58 406.802L1563.99 412.383L1564.7 413.09L1559.12 418.671L1558.41 417.963L1552.83 423.544L1553.54 424.251L1547.96 429.831L1547.25 429.124L1541.67 434.705L1542.38 435.412L1536.8 440.992L1536.09 440.285L1530.51 445.865L1531.22 446.572L1525.64 452.153L1524.93 451.446L1519.35 457.026L1520.06 457.733L1514.48 463.314L1513.77 462.606L1508.19 468.187L1508.9 468.894L1503.32 474.475L1502.61 473.768L1497.03 479.348L1497.74 480.055L1492.16 485.636L1491.45 484.929L1485.87 490.509L1486.58 491.216L1481 496.796L1480.29 496.089L1474.71 501.67L1475.42 502.377L1469.83 507.957L1469.13 507.25L1463.55 512.83L1464.25 513.537L1458.67 519.118L1457.97 518.411L1452.39 523.991L1453.09 524.699L1447.51 530.279L1446.81 529.572L1441.23 535.152L1441.93 535.859L1436.35 541.44L1435.65 540.733L1430.07 546.313L1430.77 547.02L1425.19 552.6L1424.48 551.893L1418.9 557.474L1419.61 558.181L1414.03 563.761L1413.32 563.054L1407.74 568.634L1408.45 569.342L1402.87 574.922L1402.16 574.215L1396.58 579.796L1397.29 580.503L1391.71 586.083L1391 585.376L1385.42 590.957L1386.13 591.664L1380.55 597.244L1379.84 596.537L1374.26 602.117L1374.97 602.824L1369.39 608.404L1368.68 607.697L1363.1 613.278L1363.81 613.985L1358.23 619.565L1357.52 618.858L1351.94 624.439L1352.65 625.146L1347.07 630.727L1346.36 630.019L1340.78 635.6L1341.49 636.307L1335.91 641.887L1335.2 641.18L1329.62 646.761L1330.32 647.468L1324.74 653.048L1324.04 652.341L1318.46 657.921L1319.16 658.628L1313.58 664.208L1312.88 663.501L1307.3 669.082L1308 669.789L1302.42 675.37L1301.72 674.662L1296.14 680.243L1296.84 680.95L1291.26 686.531L1290.55 685.824L1284.97 691.404L1285.68 692.111L1280.1 697.691L1279.39 696.984L1273.81 702.564L1274.52 703.271L1268.94 708.852L1268.23 708.145L1262.65 713.725L1263.36 714.432L1257.78 720.013L1257.07 719.306L1251.49 724.886L1252.2 725.594L1246.62 731.174L1245.91 730.467L1240.33 736.047L1241.04 736.754L1235.46 742.335L1234.75 741.628L1229.17 747.208L1229.88 747.915L1224.3 753.495L1223.59 752.788L1218.01 758.368L1218.72 759.075L1213.14 764.656L1212.43 763.949L1206.85 769.529L1207.56 770.237L1201.98 775.817Z" fill="black" fill-opacity="0.01" stroke="white" stroke-width="2" stroke-dasharray="8 8"/>
<mask id="path-6-inside-2_116_28" fill="white">
<path d="M1541.14 354.343C1544.26 357.467 1544.26 362.533 1541.14 365.657L1198.9 707.897C1195.77 711.021 1190.71 711.021 1187.58 707.897L845.342 365.657C842.218 362.533 842.218 357.467 845.342 354.343L1187.58 12.1035C1190.71 8.97926 1195.77 8.97927 1198.9 12.1035L1541.14 354.343Z"/>
</mask>
<path d="M1541.14 354.343C1544.26 357.467 1544.26 362.533 1541.14 365.657L1198.9 707.897C1195.77 711.021 1190.71 711.021 1187.58 707.897L845.342 365.657C842.218 362.533 842.218 357.467 845.342 354.343L1187.58 12.1035C1190.71 8.97926 1195.77 8.97927 1198.9 12.1035L1541.14 354.343Z" stroke="white" stroke-opacity="0.3" stroke-width="50" mask="url(#path-6-inside-2_116_28)"/>
<g filter="url(#filter2_i_116_28)">
<path d="M1471.14 354.343C1474.26 357.467 1474.26 362.533 1471.14 365.657L1199.61 637.186C1196.48 640.31 1191.42 640.31 1188.29 637.186L916.764 365.657C913.639 362.533 913.639 357.467 916.764 354.343L1188.29 82.8141C1191.42 79.6899 1196.48 79.69 1199.61 82.8141L1471.14 354.343Z" fill="black" fill-opacity="0.01"/>
</g>
<path d="M1201.11 563.686L1200.4 562.979L1197.61 565.768C1196.94 566.44 1196.16 566.946 1195.34 567.287L1195.72 568.21C1193.77 569.02 1191.56 569.02 1189.6 568.21L1189.98 567.287C1189.16 566.946 1188.38 566.44 1187.71 565.768L1184.92 562.979L1184.21 563.686L1178.64 558.108L1179.34 557.401L1173.76 551.822L1173.06 552.529L1167.48 546.951L1168.19 546.244L1162.61 540.666L1161.9 541.373L1156.32 535.795L1157.03 535.088L1151.45 529.509L1150.74 530.216L1145.17 524.638L1145.87 523.931L1140.29 518.353L1139.59 519.06L1134.01 513.482L1134.72 512.774L1129.14 507.196L1128.43 507.903L1122.85 502.325L1123.56 501.617L1117.98 496.039L1117.27 496.746L1111.7 491.168L1112.4 490.461L1106.83 484.883L1106.12 485.59L1100.54 480.012L1101.25 479.305L1095.67 473.726L1094.96 474.433L1089.38 468.855L1090.09 468.148L1084.51 462.57L1083.81 463.277L1078.23 457.699L1078.93 456.992L1073.36 451.413L1072.65 452.12L1067.07 446.542L1067.78 445.835L1062.2 440.257L1061.49 440.964L1055.91 435.386L1056.62 434.678L1051.04 429.1L1050.34 429.807L1044.76 424.229L1045.46 423.521L1039.89 417.943L1039.18 418.65L1033.6 413.072L1034.31 412.365L1028.73 406.787L1028.02 407.494L1022.44 401.915L1023.15 401.208L1017.57 395.63L1016.87 396.337L1011.29 390.759L1011.99 390.052L1006.42 384.474L1005.71 385.181L1000.13 379.603L1000.84 378.896L995.259 373.317L994.552 374.024L988.974 368.446L989.681 367.739L986.892 364.95C986.22 364.277 985.714 363.503 985.373 362.679L984.45 363.062C983.641 361.106 983.641 358.894 984.45 356.938L985.373 357.321C985.714 356.496 986.22 355.723 986.892 355.05L989.681 352.261L988.974 351.554L994.552 345.976L995.259 346.683L1000.84 341.104L1000.13 340.397L1005.71 334.819L1006.42 335.526L1011.99 329.948L1011.29 329.241L1016.87 323.663L1017.57 324.37L1023.15 318.791L1022.44 318.084L1028.02 312.506L1028.73 313.213L1034.31 307.635L1033.6 306.928L1039.18 301.349L1039.89 302.057L1045.46 296.478L1044.76 295.771L1050.34 290.193L1051.04 290.9L1056.62 285.321L1055.91 284.614L1061.49 279.036L1062.2 279.743L1067.78 274.165L1067.07 273.458L1072.65 267.88L1073.36 268.587L1078.93 263.008L1078.23 262.301L1083.81 256.723L1084.51 257.43L1090.09 251.852L1089.38 251.145L1094.96 245.567L1095.67 246.274L1101.25 240.695L1100.54 239.988L1106.12 234.41L1106.83 235.117L1112.4 229.539L1111.7 228.832L1117.27 223.254L1117.98 223.961L1123.56 218.383L1122.85 217.675L1128.43 212.097L1129.14 212.804L1134.72 207.226L1134.01 206.518L1139.59 200.94L1140.29 201.647L1145.87 196.069L1145.17 195.362L1150.74 189.783L1151.45 190.49L1157.03 184.912L1156.32 184.205L1161.9 178.627L1162.61 179.334L1168.19 173.756L1167.48 173.049L1173.06 167.471L1173.76 168.178L1179.34 162.599L1178.64 161.892L1184.21 156.314L1184.92 157.021L1187.71 154.232C1188.38 153.559 1189.16 153.054 1189.98 152.713L1189.6 151.789C1191.56 150.98 1193.77 150.98 1195.72 151.789L1195.34 152.713C1196.16 153.054 1196.94 153.559 1197.61 154.232L1200.4 157.021L1201.11 156.314L1206.68 161.892L1205.98 162.599L1211.56 168.178L1212.26 167.471L1217.84 173.049L1217.13 173.756L1222.71 179.334L1223.42 178.627L1229 184.205L1228.29 184.912L1233.87 190.491L1234.58 189.784L1240.15 195.362L1239.45 196.069L1245.03 201.647L1245.73 200.94L1251.31 206.518L1250.6 207.226L1256.18 212.804L1256.89 212.097L1262.47 217.675L1261.76 218.383L1267.34 223.961L1268.05 223.254L1273.62 228.832L1272.92 229.539L1278.49 235.117L1279.2 234.41L1284.78 239.988L1284.07 240.695L1289.65 246.274L1290.36 245.567L1295.94 251.145L1295.23 251.852L1300.81 257.43L1301.52 256.723L1307.09 262.301L1306.39 263.008L1311.97 268.587L1312.67 267.88L1318.25 273.458L1317.54 274.165L1323.12 279.743L1323.83 279.036L1329.41 284.614L1328.7 285.322L1334.28 290.9L1334.98 290.193L1340.56 295.771L1339.86 296.478L1345.43 302.057L1346.14 301.349L1351.72 306.928L1351.01 307.635L1356.59 313.213L1357.3 312.506L1362.88 318.085L1362.17 318.792L1367.75 324.37L1368.45 323.663L1374.03 329.241L1373.33 329.948L1378.9 335.526L1379.61 334.819L1385.19 340.397L1384.48 341.104L1390.06 346.683L1390.77 345.976L1396.35 351.554L1395.64 352.261L1398.43 355.05C1399.1 355.723 1399.61 356.496 1399.95 357.321L1400.87 356.938C1401.68 358.894 1401.68 361.106 1400.87 363.062L1399.95 362.679C1399.61 363.504 1399.1 364.277 1398.43 364.95L1395.64 367.739L1396.35 368.446L1390.77 374.024L1390.06 373.317L1384.48 378.896L1385.19 379.603L1379.61 385.181L1378.9 384.474L1373.33 390.052L1374.03 390.759L1368.45 396.337L1367.75 395.63L1362.17 401.209L1362.88 401.916L1357.3 407.494L1356.59 406.787L1351.01 412.365L1351.72 413.072L1346.14 418.65L1345.43 417.943L1339.86 423.522L1340.56 424.229L1334.98 429.807L1334.28 429.1L1328.7 434.678L1329.41 435.386L1323.83 440.964L1323.12 440.257L1317.54 445.835L1318.25 446.542L1312.67 452.12L1311.97 451.413L1306.39 456.992L1307.09 457.699L1301.52 463.277L1300.81 462.57L1295.23 468.148L1295.94 468.855L1290.36 474.433L1289.65 473.726L1284.07 479.305L1284.78 480.012L1279.2 485.59L1278.49 484.883L1272.92 490.461L1273.62 491.168L1268.05 496.746L1267.34 496.039L1261.76 501.617L1262.47 502.325L1256.89 507.903L1256.18 507.196L1250.6 512.774L1251.31 513.482L1245.73 519.06L1245.03 518.353L1239.45 523.931L1240.15 524.638L1234.58 530.217L1233.87 529.509L1228.29 535.088L1229 535.795L1223.42 541.373L1222.71 540.666L1217.13 546.244L1217.84 546.951L1212.26 552.529L1211.56 551.822L1205.98 557.401L1206.68 558.108L1201.11 563.686Z" fill="black" fill-opacity="0.01" stroke="white" stroke-width="2" stroke-dasharray="8 8"/>
<g filter="url(#filter3_i_116_28)">
<path d="M1329.14 354.343C1332.26 357.467 1332.26 362.533 1329.14 365.657L1199.03 495.764C1195.9 498.889 1190.84 498.889 1187.71 495.764L1057.61 365.657C1054.48 362.533 1054.48 357.467 1057.61 354.343L1187.71 224.236C1190.84 221.111 1195.9 221.111 1199.03 224.235L1329.14 354.343Z" fill="black" fill-opacity="0.01"/>
</g>
<path d="M1257.43 364.95L1198.03 424.347C1195.3 427.08 1190.87 427.08 1188.13 424.347L1128.73 364.95C1126 362.216 1126 357.784 1128.73 355.05L1188.13 295.653C1190.87 292.92 1195.3 292.92 1198.03 295.653L1257.43 355.05C1260.08 357.698 1260.16 361.941 1257.68 364.689L1257.43 364.95Z" fill="white" fill-opacity="0.5" stroke="white" stroke-width="2"/>
</g>
<defs>
<filter id="filter0_i_116_28" x="560.314" y="-273.082" width="1266.16" height="1266.16" filterUnits="userSpaceOnUse" color-interpolation-filters="sRGB">
<feFlood flood-opacity="0" result="BackgroundImageFix"/>
<feBlend mode="normal" in="SourceGraphic" in2="BackgroundImageFix" result="shape"/>
<feColorMatrix in="SourceAlpha" type="matrix" values="0 0 0 0 0 0 0 0 0 0 0 0 0 0 0 0 0 0 127 0" result="hardAlpha"/>
<feOffset/>
<feGaussianBlur stdDeviation="25"/>
<feComposite in2="hardAlpha" operator="arithmetic" k2="-1" k3="1"/>
<feColorMatrix type="matrix" values="0 0 0 0 1 0 0 0 0 1 0 0 0 0 1 0 0 0 0.5 0"/>
<feBlend mode="lighten" in2="shape" result="effect1_innerShadow_116_28"/>
</filter>
<filter id="filter1_i_116_28" x="702.156" y="-131.661" width="983.322" height="983.322" filterUnits="userSpaceOnUse" color-interpolation-filters="sRGB">
<feFlood flood-opacity="0" result="BackgroundImageFix"/>
<feBlend mode="normal" in="SourceGraphic" in2="BackgroundImageFix" result="shape"/>
<feColorMatrix in="SourceAlpha" type="matrix" values="0 0 0 0 0 0 0 0 0 0 0 0 0 0 0 0 0 0 127 0" result="hardAlpha"/>
<feOffset/>
<feGaussianBlur stdDeviation="25"/>
<feComposite in2="hardAlpha" operator="arithmetic" k2="-1" k3="1"/>
<feColorMatrix type="matrix" values="0 0 0 0 1 0 0 0 0 1 0 0 0 0 1 0 0 0 0.5 0"/>
<feBlend mode="lighten" in2="shape" result="effect1_innerShadow_116_28"/>
</filter>
<filter id="filter2_i_116_28" x="914.421" y="80.4709" width="559.058" height="559.058" filterUnits="userSpaceOnUse" color-interpolation-filters="sRGB">
<feFlood flood-opacity="0" result="BackgroundImageFix"/>
<feBlend mode="normal" in="SourceGraphic" in2="BackgroundImageFix" result="shape"/>
<feColorMatrix in="SourceAlpha" type="matrix" values="0 0 0 0 0 0 0 0 0 0 0 0 0 0 0 0 0 0 127 0" result="hardAlpha"/>
<feOffset/>
<feGaussianBlur stdDeviation="25"/>
<feComposite in2="hardAlpha" operator="arithmetic" k2="-1" k3="1"/>
<feColorMatrix type="matrix" values="0 0 0 0 1 0 0 0 0 1 0 0 0 0 1 0 0 0 0.5 0"/>
<feBlend mode="lighten" in2="shape" result="effect1_innerShadow_116_28"/>
</filter>
<filter id="filter3_i_116_28" x="1055.26" y="221.893" width="276.215" height="276.215" filterUnits="userSpaceOnUse" color-interpolation-filters="sRGB">
<feFlood flood-opacity="0" result="BackgroundImageFix"/>
<feBlend mode="normal" in="SourceGraphic" in2="BackgroundImageFix" result="shape"/>
<feColorMatrix in="SourceAlpha" type="matrix" values="0 0 0 0 0 0 0 0 0 0 0 0 0 0 0 0 0 0 127 0" result="hardAlpha"/>
<feOffset/>
<feGaussianBlur stdDeviation="25"/>
<feComposite in2="hardAlpha" operator="arithmetic" k2="-1" k3="1"/>
<feColorMatrix type="matrix" values="0 0 0 0 1 0 0 0 0 1 0 0 0 0 1 0 0 0 0.5 0"/>
<feBlend mode="lighten" in2="shape" result="effect1_innerShadow_116_28"/>
</filter>
<clipPath id="clip0_116_28">
<rect width="1440" height="720" fill="white"/>
</clipPath>
</defs>
</svg>
