<svg width="1440" height="720" viewBox="0 0 1440 720" fill="none" xmlns="http://www.w3.org/2000/svg">
<g clip-path="url(#clip0_116_28)">
<rect width="1440" height="720" fill="#080808"/>
<g filter="url(#filter0_i_116_28)">
<path d="M1824.14 354.343C1827.26 357.467 1827.26 362.533 1824.14 365.657L1199.05 990.739C1195.93 993.863 1190.86 993.863 1187.74 990.739L562.657 365.657C559.533 362.533 559.533 357.467 562.657 354.343L1187.74 -270.739C1190.86 -273.863 1195.93 -273.863 1199.05 -270.739L1824.14 354.343Z" fill="black" fill-opacity="0.01"/>
</g>
<path d="M1753.14 354.343C1756.26 357.467 1756.26 362.533 1753.14 365.657L1198.76 920.029C1195.64 923.153 1190.57 923.153 1187.45 920.029L633.078 365.657C629.954 362.533 629.954 357.467 633.078 354.343L1187.45 -200.029C1190.57 -203.153 1195.64 -203.153 1198.76 -200.029L1753.14 354.343Z" stroke="white" stroke-opacity="0.25" stroke-width="20"/>
<g filter="url(#filter1_i_116_28)">
<path d="M1683.14 354.343C1686.26 357.467 1686.26 362.533 1683.14 365.657L1199.47 849.318C1196.35 852.442 1191.28 852.442 1188.16 849.318L704.5 365.657C701.375 362.533 701.375 357.467 704.5 354.343L1188.16 -129.318C1191.28 -132.442 1196.35 -132.442 1199.47 -129.318L1683.14 354.343Z" fill="black" fill-opacity="0.01"/>
</g>
<path d="M1612.14 354.343C1615.26 357.467 1615.26 362.533 1612.14 365.657L1199.18 778.607C1196.06 781.731 1191 781.731 1187.87 778.607L774.921 365.657C771.797 362.533 771.797 357.467 774.921 354.343L1187.87 -58.6072C1191 -61.7314 1196.06 -61.7314 1199.19 -58.6072L1612.14 354.343Z" fill="black" fill-opacity="0.01"/>
<path d="M1187.87 -58.6072L1188.58 -57.9001C1189.25 -58.5726 1190.02 -59.0783 1190.85 -59.4194L1190.47 -60.3434L1190.08 -61.2674C1189.02 -60.8277 1188.03 -60.176 1187.16 -59.3144L1187.87 -58.6072ZM1196.59 -60.3434L1196.21 -59.4193C1197.03 -59.0783 1197.81 -58.5726 1198.48 -57.9001L1199.19 -58.6072L1199.89 -59.3143C1199.03 -60.176 1198.04 -60.8276 1196.97 -61.2674L1196.59 -60.3434ZM1199.19 -58.6072L1198.48 -57.9001L1201.27 -55.1099L1201.98 -55.8171L1202.68 -56.5242L1199.89 -59.3143L1199.19 -58.6072ZM1207.56 -50.2366L1206.85 -49.5295L1212.43 -43.9491L1213.14 -44.6562L1213.84 -45.3633L1208.26 -50.9437L1207.56 -50.2366ZM1218.72 -39.0758L1218.01 -38.3687L1223.59 -32.7883L1224.3 -33.4954L1225 -34.2025L1219.42 -39.7829L1218.72 -39.0758ZM1229.88 -27.915L1229.17 -27.2079L1234.75 -21.6275L1235.46 -22.3346L1236.16 -23.0417L1230.58 -28.6221L1229.88 -27.915ZM1241.04 -16.7541L1240.33 -16.047L1245.91 -10.4666L1246.62 -11.1737L1247.33 -11.8808L1241.75 -17.4613L1241.04 -16.7541ZM1252.2 -5.59335L1251.49 -4.88624L1257.07 0.694178L1257.78 -0.0129284L1258.49 -0.720035L1252.91 -6.30046L1252.2 -5.59335ZM1263.36 5.56749L1262.65 6.2746L1268.23 11.855L1268.94 11.1479L1269.65 10.4408L1264.07 4.86039L1263.36 5.56749ZM1274.52 16.7283L1273.81 17.4354L1279.39 23.0158L1280.1 22.3087L1280.81 21.6016L1275.23 16.0212L1274.52 16.7283ZM1285.68 27.8891L1284.97 28.5962L1290.55 34.1766L1291.26 33.4695L1291.97 32.7624L1286.39 27.182L1285.68 27.8891ZM1296.84 39.05L1296.14 39.7571L1301.72 45.3375L1302.42 44.6304L1303.13 43.9232L1297.55 38.3428L1296.84 39.05ZM1308 50.2108L1307.3 50.9179L1312.88 56.4983L1313.58 55.7912L1314.29 55.0841L1308.71 49.5036L1308 50.2108ZM1319.16 61.3716L1318.46 62.0787L1324.04 67.6591L1324.74 66.952L1325.45 66.2449L1319.87 60.6645L1319.16 61.3716ZM1330.32 72.5324L1329.62 73.2395L1335.2 78.8199L1335.91 78.1128L1336.61 77.4057L1331.03 71.8253L1330.32 72.5324ZM1341.49 83.6932L1340.78 84.4003L1346.36 89.9807L1347.07 89.2736L1347.77 88.5665L1342.19 82.9861L1341.49 83.6932ZM1352.65 94.854L1351.94 95.5611L1357.52 101.142L1358.23 100.434L1358.93 99.7274L1353.35 94.1469L1352.65 94.854ZM1363.81 106.015L1363.1 106.722L1368.68 112.302L1369.39 111.595L1370.09 110.888L1364.51 105.308L1363.81 106.015ZM1374.97 117.176L1374.26 117.883L1379.84 123.463L1380.55 122.756L1381.26 122.049L1375.68 116.469L1374.97 117.176ZM1386.13 128.337L1385.42 129.044L1391 134.624L1391.71 133.917L1392.42 133.21L1386.84 127.629L1386.13 128.337ZM1397.29 139.497L1396.58 140.204L1402.16 145.785L1402.87 145.078L1403.58 144.371L1398 138.79L1397.29 139.497ZM1408.45 150.658L1407.74 151.365L1413.32 156.946L1414.03 156.239L1414.74 155.532L1409.16 149.951L1408.45 150.658ZM1419.61 161.819L1418.9 162.526L1424.48 168.107L1425.19 167.399L1425.9 166.692L1420.32 161.112L1419.61 161.819ZM1430.77 172.98L1430.07 173.687L1435.65 179.267L1436.35 178.56L1437.06 177.853L1431.48 172.273L1430.77 172.98ZM1441.93 184.141L1441.23 184.848L1446.81 190.428L1447.51 189.721L1448.22 189.014L1442.64 183.434L1441.93 184.141ZM1453.09 195.302L1452.39 196.009L1457.97 201.589L1458.67 200.882L1459.38 200.175L1453.8 194.594L1453.09 195.302ZM1464.25 206.462L1463.55 207.17L1469.13 212.75L1469.84 212.043L1470.54 211.336L1464.96 205.755L1464.25 206.462ZM1475.42 217.623L1474.71 218.33L1480.29 223.911L1481 223.204L1481.7 222.497L1476.12 216.916L1475.42 217.623ZM1486.58 228.784L1485.87 229.491L1491.45 235.072L1492.16 234.365L1492.86 233.657L1487.28 228.077L1486.58 228.784ZM1497.74 239.945L1497.03 240.652L1502.61 246.232L1503.32 245.525L1504.02 244.818L1498.44 239.238L1497.74 239.945ZM1508.9 251.106L1508.19 251.813L1513.77 257.393L1514.48 256.686L1515.19 255.979L1509.61 250.399L1508.9 251.106ZM1520.06 262.267L1519.35 262.974L1524.93 268.554L1525.64 267.847L1526.35 267.14L1520.77 261.56L1520.06 262.267ZM1531.22 273.427L1530.51 274.135L1536.09 279.715L1536.8 279.008L1537.51 278.301L1531.93 272.72L1531.22 273.427ZM1542.38 284.588L1541.67 285.295L1547.25 290.876L1547.96 290.169L1548.67 289.462L1543.09 283.881L1542.38 284.588ZM1553.54 295.749L1552.83 296.456L1558.41 302.037L1559.12 301.33L1559.83 300.622L1554.25 295.042L1553.54 295.749ZM1564.7 306.91L1564 307.617L1569.58 313.198L1570.28 312.49L1570.99 311.783L1565.41 306.203L1564.7 306.91ZM1575.86 318.071L1575.16 318.778L1580.74 324.358L1581.44 323.651L1582.15 322.944L1576.57 317.364L1575.86 318.071ZM1587.02 329.232L1586.32 329.939L1591.9 335.519L1592.6 334.812L1593.31 334.105L1587.73 328.525L1587.02 329.232ZM1598.18 340.393L1597.48 341.1L1603.06 346.68L1603.77 345.973L1604.47 345.266L1598.89 339.685L1598.18 340.393ZM1609.35 351.553L1608.64 352.26L1611.43 355.05L1612.14 354.343L1612.84 353.636L1610.05 350.846L1609.35 351.553ZM1612.14 354.343L1611.43 355.05C1612.1 355.723 1612.61 356.496 1612.95 357.32L1613.87 356.938L1614.8 356.555C1614.36 355.493 1613.7 354.498 1612.84 353.636L1612.14 354.343ZM1613.87 363.062L1612.95 362.68C1612.61 363.504 1612.1 364.277 1611.43 364.95L1612.14 365.657L1612.84 366.364C1613.7 365.502 1614.36 364.507 1614.8 363.445L1613.87 363.062ZM1612.14 365.657L1611.43 364.95L1608.64 367.74L1609.35 368.447L1610.05 369.154L1612.84 366.364L1612.14 365.657ZM1603.76 374.027L1603.06 373.32L1597.48 378.901L1598.18 379.608L1598.89 380.315L1604.47 374.735L1603.76 374.027ZM1592.6 385.188L1591.9 384.481L1586.32 390.062L1587.02 390.769L1587.73 391.476L1593.31 385.895L1592.6 385.188ZM1581.44 396.349L1580.74 395.642L1575.16 401.222L1575.86 401.93L1576.57 402.637L1582.15 397.056L1581.44 396.349ZM1570.28 407.51L1569.58 406.803L1563.99 412.383L1564.7 413.09L1565.41 413.797L1570.99 408.217L1570.28 407.51ZM1559.12 418.671L1558.41 417.964L1552.83 423.544L1553.54 424.251L1554.25 424.958L1559.83 419.378L1559.12 418.671ZM1547.96 429.832L1547.25 429.124L1541.67 434.705L1542.38 435.412L1543.09 436.119L1548.67 430.539L1547.96 429.832ZM1536.8 440.992L1536.09 440.285L1530.51 445.866L1531.22 446.573L1531.93 447.28L1537.51 441.699L1536.8 440.992ZM1525.64 452.153L1524.93 451.446L1519.35 457.027L1520.06 457.734L1520.77 458.441L1526.35 452.86L1525.64 452.153ZM1514.48 463.314L1513.77 462.607L1508.19 468.187L1508.9 468.894L1509.6 469.602L1515.19 464.021L1514.48 463.314ZM1503.32 474.475L1502.61 473.768L1497.03 479.348L1497.74 480.055L1498.44 480.762L1504.02 475.182L1503.32 474.475ZM1492.16 485.636L1491.45 484.929L1485.87 490.509L1486.58 491.216L1487.28 491.923L1492.86 486.343L1492.16 485.636ZM1481 496.796L1480.29 496.089L1474.71 501.67L1475.42 502.377L1476.12 503.084L1481.7 497.504L1481 496.796ZM1469.83 507.957L1469.13 507.25L1463.55 512.831L1464.25 513.538L1464.96 514.245L1470.54 508.664L1469.83 507.957ZM1458.67 519.118L1457.97 518.411L1452.39 523.991L1453.09 524.699L1453.8 525.406L1459.38 519.825L1458.67 519.118ZM1447.51 530.279L1446.81 529.572L1441.23 535.152L1441.93 535.859L1442.64 536.566L1448.22 530.986L1447.51 530.279ZM1436.35 541.44L1435.65 540.733L1430.06 546.313L1430.77 547.02L1431.48 547.727L1437.06 542.147L1436.35 541.44ZM1425.19 552.601L1424.48 551.893L1418.9 557.474L1419.61 558.181L1420.32 558.888L1425.9 553.308L1425.19 552.601ZM1414.03 563.761L1413.32 563.054L1407.74 568.635L1408.45 569.342L1409.16 570.049L1414.74 564.469L1414.03 563.761ZM1402.87 574.922L1402.16 574.215L1396.58 579.796L1397.29 580.503L1398 581.21L1403.58 575.629L1402.87 574.922ZM1391.71 586.083L1391 585.376L1385.42 590.956L1386.13 591.664L1386.84 592.371L1392.42 586.79L1391.71 586.083ZM1380.55 597.244L1379.84 596.537L1374.26 602.117L1374.97 602.824L1375.67 603.531L1381.26 597.951L1380.55 597.244ZM1369.39 608.405L1368.68 607.698L1363.1 613.278L1363.81 613.985L1364.51 614.692L1370.09 609.112L1369.39 608.405ZM1358.23 619.566L1357.52 618.859L1351.94 624.439L1352.65 625.146L1353.35 625.853L1358.93 620.273L1358.23 619.566ZM1347.07 630.726L1346.36 630.019L1340.78 635.6L1341.49 636.307L1342.19 637.014L1347.77 631.434L1347.07 630.726ZM1335.9 641.887L1335.2 641.18L1329.62 646.761L1330.32 647.468L1331.03 648.175L1336.61 642.594L1335.9 641.887ZM1324.74 653.048L1324.04 652.341L1318.46 657.921L1319.16 658.629L1319.87 659.336L1325.45 653.755L1324.74 653.048ZM1313.58 664.209L1312.88 663.502L1307.3 669.082L1308 669.789L1308.71 670.497L1314.29 664.916L1313.58 664.209ZM1302.42 675.37L1301.72 674.663L1296.13 680.243L1296.84 680.95L1297.55 681.657L1303.13 676.077L1302.42 675.37ZM1291.26 686.531L1290.55 685.824L1284.97 691.404L1285.68 692.111L1286.39 692.818L1291.97 687.238L1291.26 686.531ZM1280.1 697.692L1279.39 696.984L1273.81 702.565L1274.52 703.272L1275.23 703.979L1280.81 698.399L1280.1 697.692ZM1268.94 708.852L1268.23 708.145L1262.65 713.726L1263.36 714.433L1264.07 715.14L1269.65 709.559L1268.94 708.852ZM1257.78 720.013L1257.07 719.306L1251.49 724.887L1252.2 725.594L1252.91 726.301L1258.49 720.72L1257.78 720.013ZM1246.62 731.174L1245.91 730.467L1240.33 736.047L1241.04 736.754L1241.74 737.462L1247.33 731.881L1246.62 731.174ZM1235.46 742.335L1234.75 741.628L1229.17 747.208L1229.88 747.915L1230.58 748.622L1236.16 743.042L1235.46 742.335ZM1224.3 753.496L1223.59 752.789L1218.01 758.369L1218.72 759.076L1219.42 759.783L1225 754.203L1224.3 753.496ZM1213.14 764.657L1212.43 763.949L1206.85 769.53L1207.56 770.237L1208.26 770.944L1213.84 765.364L1213.14 764.657ZM1201.97 775.817L1201.27 775.11L1198.48 777.9L1199.18 778.607L1199.89 779.314L1202.68 776.524L1201.97 775.817ZM1199.18 778.607L1198.48 777.9C1197.81 778.573 1197.03 779.078 1196.21 779.419L1196.59 780.343L1196.97 781.267C1198.04 780.828 1199.03 780.176 1199.89 779.314L1199.18 778.607ZM1190.47 780.343L1190.85 779.419C1190.02 779.078 1189.25 778.573 1188.58 777.9L1187.87 778.607L1187.16 779.314C1188.03 780.176 1189.02 780.828 1190.08 781.267L1190.47 780.343ZM1187.87 778.607L1188.58 777.9L1185.79 775.11L1185.08 775.817L1184.37 776.524L1187.16 779.314L1187.87 778.607ZM1179.5 770.237L1180.21 769.529L1174.63 763.949L1173.92 764.656L1173.21 765.363L1178.79 770.944L1179.5 770.237ZM1168.34 759.076L1169.05 758.369L1163.47 752.788L1162.76 753.495L1162.05 754.202L1167.63 759.783L1168.34 759.076ZM1157.18 747.915L1157.89 747.208L1152.31 741.627L1151.6 742.335L1150.89 743.042L1156.47 748.622L1157.18 747.915ZM1146.02 736.754L1146.73 736.047L1141.14 730.467L1140.44 731.174L1139.73 731.881L1145.31 737.461L1146.02 736.754ZM1134.86 725.593L1135.56 724.886L1129.98 719.306L1129.28 720.013L1128.57 720.72L1134.15 726.3L1134.86 725.593ZM1123.7 714.432L1124.4 713.725L1118.82 708.145L1118.12 708.852L1117.41 709.559L1122.99 715.14L1123.7 714.432ZM1112.54 703.272L1113.24 702.565L1107.66 696.984L1106.96 697.691L1106.25 698.398L1111.83 703.979L1112.54 703.272ZM1101.37 692.111L1102.08 691.404L1096.5 685.823L1095.79 686.53L1095.09 687.238L1100.67 692.818L1101.37 692.111ZM1090.21 680.95L1090.92 680.243L1085.34 674.662L1084.63 675.37L1083.93 676.077L1089.51 681.657L1090.21 680.95ZM1079.05 669.789L1079.76 669.082L1074.18 663.502L1073.47 664.209L1072.77 664.916L1078.35 670.496L1079.05 669.789ZM1067.89 658.628L1068.6 657.921L1063.02 652.341L1062.31 653.048L1061.6 653.755L1067.19 659.335L1067.89 658.628ZM1056.73 647.468L1057.44 646.76L1051.86 641.18L1051.15 641.887L1050.44 642.594L1056.02 648.175L1056.73 647.468ZM1045.57 636.307L1046.28 635.6L1040.7 630.019L1039.99 630.726L1039.28 631.433L1044.86 637.014L1045.57 636.307ZM1034.41 625.146L1035.12 624.439L1029.54 618.858L1028.83 619.565L1028.12 620.273L1033.7 625.853L1034.41 625.146ZM1023.25 613.985L1023.96 613.278L1018.38 607.698L1017.67 608.405L1016.96 609.112L1022.54 614.692L1023.25 613.985ZM1012.09 602.824L1012.8 602.117L1007.22 596.537L1006.51 597.244L1005.8 597.951L1011.38 603.531L1012.09 602.824ZM1000.93 591.663L1001.63 590.956L996.054 585.376L995.347 586.083L994.64 586.79L1000.22 592.371L1000.93 591.663ZM989.767 580.503L990.474 579.795L984.893 574.215L984.186 574.922L983.479 575.629L989.06 581.21L989.767 580.503ZM978.606 569.342L979.313 568.635L973.733 563.054L973.025 563.761L972.318 564.468L977.899 570.049L978.606 569.342ZM967.445 558.181L968.152 557.474L962.572 551.893L961.865 552.6L961.158 553.308L966.738 558.888L967.445 558.181ZM956.284 547.02L956.991 546.313L951.411 540.733L950.704 541.44L949.997 542.147L955.577 547.727L956.284 547.02ZM945.123 535.859L945.83 535.152L940.25 529.572L939.543 530.279L938.836 530.986L944.416 536.566L945.123 535.859ZM933.963 524.698L934.67 523.991L929.089 518.411L928.382 519.118L927.675 519.825L933.255 525.405L933.963 524.698ZM922.802 513.538L923.509 512.83L917.928 507.25L917.221 507.957L916.514 508.664L922.095 514.245L922.802 513.538ZM911.641 502.377L912.348 501.67L906.768 496.089L906.06 496.796L905.353 497.503L910.934 503.084L911.641 502.377ZM900.48 491.216L901.187 490.509L895.607 484.928L894.9 485.635L894.192 486.343L899.773 491.923L900.48 491.216ZM889.319 480.055L890.026 479.348L884.446 473.767L883.739 474.475L883.032 475.182L888.612 480.762L889.319 480.055ZM878.158 468.894L878.865 468.187L873.285 462.607L872.578 463.314L871.871 464.021L877.451 469.601L878.158 468.894ZM866.997 457.733L867.705 457.026L862.124 451.446L861.417 452.153L860.71 452.86L866.29 458.44L866.997 457.733ZM855.837 446.572L856.544 445.865L850.963 440.285L850.256 440.992L849.549 441.699L855.13 447.28L855.837 446.572ZM844.676 435.412L845.383 434.705L839.802 429.124L839.095 429.831L838.388 430.538L843.969 436.119L844.676 435.412ZM833.515 424.251L834.222 423.544L828.642 417.963L827.935 418.67L827.227 419.377L832.808 424.958L833.515 424.251ZM822.354 413.09L823.061 412.383L817.481 406.802L816.774 407.51L816.067 408.217L821.647 413.797L822.354 413.09ZM811.193 401.929L811.9 401.222L806.32 395.642L805.613 396.349L804.906 397.056L810.486 402.636L811.193 401.929ZM800.032 390.768L800.74 390.061L795.159 384.481L794.452 385.188L793.745 385.895L799.325 391.475L800.032 390.768ZM788.872 379.607L789.579 378.9L783.998 373.32L783.291 374.027L782.584 374.734L788.165 380.315L788.872 379.607ZM777.711 368.447L778.418 367.739L775.628 364.95L774.921 365.657L774.214 366.364L777.004 369.154L777.711 368.447ZM774.921 365.657L775.628 364.95C774.956 364.277 774.45 363.504 774.109 362.68L773.185 363.062L772.261 363.444C772.701 364.507 773.352 365.502 774.214 366.364L774.921 365.657ZM773.185 356.938L774.109 357.32C774.45 356.496 774.956 355.723 775.628 355.05L774.921 354.343L774.214 353.636C773.352 354.498 772.701 355.492 772.261 356.555L773.185 356.938ZM774.921 354.343L775.628 355.05L778.418 352.26L777.711 351.553L777.004 350.846L774.214 353.636L774.921 354.343ZM783.292 345.972L783.999 346.68L789.579 341.099L788.872 340.392L788.165 339.685L782.584 345.265L783.292 345.972ZM794.452 334.812L795.16 335.519L800.74 329.938L800.033 329.231L799.326 328.524L793.745 334.105L794.452 334.812ZM805.613 323.651L806.32 324.358L811.901 318.778L811.194 318.07L810.487 317.363L804.906 322.944L805.613 323.651ZM816.774 312.49L817.481 313.197L823.062 307.617L822.354 306.91L821.647 306.202L816.067 311.783L816.774 312.49ZM827.935 301.329L828.642 302.036L834.222 296.456L833.515 295.749L832.808 295.042L827.228 300.622L827.935 301.329ZM839.096 290.168L839.803 290.875L845.383 285.295L844.676 284.588L843.969 283.881L838.389 289.461L839.096 290.168ZM850.257 279.008L850.964 279.715L856.544 274.134L855.837 273.427L855.13 272.72L849.549 278.3L850.257 279.008ZM861.417 267.847L862.124 268.554L867.705 262.973L866.998 262.266L866.291 261.559L860.71 267.14L861.417 267.847ZM872.578 256.686L873.285 257.393L878.866 251.813L878.159 251.105L877.451 250.398L871.871 255.979L872.578 256.686ZM883.739 245.525L884.446 246.232L890.026 240.652L889.319 239.945L888.612 239.238L883.032 244.818L883.739 245.525ZM894.9 234.364L895.607 235.071L901.187 229.491L900.48 228.784L899.773 228.077L894.193 233.657L894.9 234.364ZM906.061 223.203L906.768 223.911L912.348 218.33L911.641 217.623L910.934 216.916L905.353 222.496L906.061 223.203ZM917.221 212.043L917.929 212.75L923.509 207.169L922.802 206.462L922.095 205.755L916.514 211.336L917.221 212.043ZM928.382 200.882L929.089 201.589L934.67 196.009L933.963 195.301L933.256 194.594L927.675 200.175L928.382 200.882ZM939.543 189.721L940.25 190.428L945.831 184.848L945.123 184.141L944.416 183.433L938.836 189.014L939.543 189.721ZM950.704 178.56L951.411 179.267L956.991 173.687L956.284 172.98L955.577 172.273L949.997 177.853L950.704 178.56ZM961.865 167.399L962.572 168.106L968.152 162.526L967.445 161.819L966.738 161.112L961.158 166.692L961.865 167.399ZM973.026 156.239L973.733 156.946L979.313 151.365L978.606 150.658L977.899 149.951L972.318 155.531L973.026 156.239ZM984.186 145.078L984.894 145.785L990.474 140.204L989.767 139.497L989.06 138.79L983.479 144.371L984.186 145.078ZM995.347 133.917L996.054 134.624L1001.63 129.044L1000.93 128.336L1000.22 127.629L994.64 133.21L995.347 133.917ZM1006.51 122.756L1007.22 123.463L1012.8 117.883L1012.09 117.176L1011.38 116.468L1005.8 122.049L1006.51 122.756ZM1017.67 111.595L1018.38 112.302L1023.96 106.722L1023.25 106.015L1022.54 105.308L1016.96 110.888L1017.67 111.595ZM1028.83 100.434L1029.54 101.141L1035.12 95.561L1034.41 94.8539L1033.7 94.1468L1028.12 99.7272L1028.83 100.434ZM1039.99 89.2735L1040.7 89.9806L1046.28 84.4001L1045.57 83.693L1044.86 82.9859L1039.28 88.5664L1039.99 89.2735ZM1051.15 78.1126L1051.86 78.8197L1057.44 73.2393L1056.73 72.5322L1056.02 71.8251L1050.44 77.4055L1051.15 78.1126ZM1062.31 66.9518L1063.02 67.6589L1068.6 62.0785L1067.89 61.3714L1067.19 60.6643L1061.61 66.2447L1062.31 66.9518ZM1073.47 55.7909L1074.18 56.498L1079.76 50.9176L1079.05 50.2105L1078.35 49.5034L1072.77 55.0838L1073.47 55.7909ZM1084.63 44.6301L1085.34 45.3372L1090.92 39.7568L1090.21 39.0497L1089.51 38.3426L1083.93 43.923L1084.63 44.6301ZM1095.79 33.4692L1096.5 34.1764L1102.08 28.5959L1101.38 27.8888L1100.67 27.1817L1095.09 32.7621L1095.79 33.4692ZM1106.96 22.3084L1107.66 23.0155L1113.24 17.4351L1112.54 16.728L1111.83 16.0209L1106.25 21.6013L1106.96 22.3084ZM1118.12 11.1476L1118.82 11.8547L1124.4 6.27425L1123.7 5.56714L1122.99 4.86003L1117.41 10.4405L1118.12 11.1476ZM1129.28 -0.013263L1129.98 0.693844L1135.56 -4.88659L1134.86 -5.59369L1134.15 -6.3008L1128.57 -0.72037L1129.28 -0.013263ZM1140.44 -11.1741L1141.15 -10.467L1146.73 -16.0474L1146.02 -16.7545L1145.31 -17.4616L1139.73 -11.8812L1140.44 -11.1741ZM1151.6 -22.3349L1152.31 -21.6278L1157.89 -27.2082L1157.18 -27.9153L1156.47 -28.6225L1150.89 -23.042L1151.6 -22.3349ZM1162.76 -33.4958L1163.47 -32.7887L1169.05 -38.3691L1168.34 -39.0762L1167.63 -39.7833L1162.05 -34.2029L1162.76 -33.4958ZM1173.92 -44.6566L1174.63 -43.9495L1180.21 -49.5299L1179.5 -50.237L1178.79 -50.9441L1173.21 -45.3637L1173.92 -44.6566ZM1185.08 -55.8175L1185.79 -55.1103L1188.58 -57.9001L1187.87 -58.6072L1187.16 -59.3144L1184.37 -56.5246L1185.08 -55.8175Z" fill="white"/>
<path d="M1541.14 354.343C1544.26 357.467 1544.26 362.533 1541.14 365.657L1198.9 707.897C1195.77 711.021 1190.71 711.021 1187.58 707.897L845.342 365.657C842.218 362.533 842.218 357.467 845.342 354.343L1187.58 12.1035C1190.71 8.97926 1195.77 8.97927 1198.9 12.1035L1541.14 354.343Z" stroke="white" stroke-opacity="0.25" stroke-width="25"/>
<g filter="url(#filter2_i_116_28)">
<path d="M1471.14 354.343C1474.26 357.467 1474.26 362.533 1471.14 365.657L1199.61 637.186C1196.48 640.31 1191.42 640.31 1188.29 637.186L916.764 365.657C913.639 362.533 913.639 357.467 916.764 354.343L1188.29 82.8141C1191.42 79.6899 1196.48 79.69 1199.61 82.8141L1471.14 354.343Z" fill="black" fill-opacity="0.01"/>
</g>
<path d="M1399.14 354.343C1402.26 357.467 1402.26 362.533 1399.14 365.657L1198.32 566.475C1195.19 569.599 1190.13 569.599 1187 566.475L986.185 365.657C983.061 362.533 983.061 357.467 986.185 354.343L1187 153.525C1190.13 150.401 1195.19 150.401 1198.32 153.525L1399.14 354.343Z" fill="black" fill-opacity="0.01"/>
<path d="M1187 153.525L1187.71 154.232C1188.38 153.559 1189.16 153.054 1189.98 152.713L1189.6 151.789L1189.22 150.865C1188.15 151.304 1187.16 151.956 1186.3 152.818L1187 153.525ZM1195.72 151.789L1195.34 152.713C1196.16 153.054 1196.94 153.559 1197.61 154.232L1198.32 153.525L1199.02 152.818C1198.16 151.956 1197.17 151.304 1196.1 150.865L1195.72 151.789ZM1198.32 153.525L1197.61 154.232L1200.4 157.021L1201.11 156.314L1201.81 155.607L1199.02 152.818L1198.32 153.525ZM1206.68 161.892L1205.98 162.599L1211.56 168.178L1212.26 167.471L1212.97 166.763L1207.39 161.185L1206.68 161.892ZM1217.84 173.049L1217.13 173.756L1222.71 179.334L1223.42 178.627L1224.13 177.92L1218.55 172.342L1217.84 173.049ZM1229 184.205L1228.29 184.912L1233.87 190.491L1234.58 189.784L1235.28 189.077L1229.7 183.498L1229 184.205ZM1240.15 195.362L1239.45 196.069L1245.03 201.647L1245.73 200.94L1246.44 200.233L1240.86 194.655L1240.15 195.362ZM1251.31 206.519L1250.6 207.226L1256.18 212.804L1256.89 212.097L1257.6 211.39L1252.02 205.811L1251.31 206.519ZM1262.47 217.675L1261.76 218.382L1267.34 223.96L1268.05 223.253L1268.75 222.546L1263.17 216.968L1262.47 217.675ZM1273.62 228.832L1272.92 229.539L1278.5 235.117L1279.2 234.41L1279.91 233.703L1274.33 228.125L1273.62 228.832ZM1284.78 239.988L1284.07 240.695L1289.65 246.274L1290.36 245.567L1291.07 244.859L1285.49 239.281L1284.78 239.988ZM1295.94 251.145L1295.23 251.852L1300.81 257.43L1301.52 256.723L1302.22 256.016L1296.64 250.438L1295.94 251.145ZM1307.09 262.301L1306.39 263.008L1311.96 268.587L1312.67 267.88L1313.38 267.173L1307.8 261.594L1307.09 262.301ZM1318.25 273.458L1317.54 274.165L1323.12 279.743L1323.83 279.036L1324.54 278.329L1318.96 272.751L1318.25 273.458ZM1329.41 284.615L1328.7 285.322L1334.28 290.9L1334.99 290.193L1335.69 289.486L1330.11 283.907L1329.41 284.615ZM1340.56 295.771L1339.86 296.478L1345.43 302.056L1346.14 301.349L1346.85 300.642L1341.27 295.064L1340.56 295.771ZM1351.72 306.928L1351.01 307.635L1356.59 313.213L1357.3 312.506L1358.01 311.799L1352.43 306.221L1351.72 306.928ZM1362.88 318.084L1362.17 318.791L1367.75 324.37L1368.45 323.663L1369.16 322.955L1363.58 317.377L1362.88 318.084ZM1374.03 329.241L1373.33 329.948L1378.9 335.526L1379.61 334.819L1380.32 334.112L1374.74 328.534L1374.03 329.241ZM1385.19 340.397L1384.48 341.104L1390.06 346.683L1390.77 345.976L1391.48 345.269L1385.9 339.69L1385.19 340.397ZM1396.35 351.554L1395.64 352.261L1398.43 355.05L1399.14 354.343L1399.84 353.636L1397.05 350.847L1396.35 351.554ZM1399.14 354.343L1398.43 355.05C1399.1 355.723 1399.61 356.496 1399.95 357.32L1400.87 356.938L1401.8 356.555C1401.36 355.493 1400.7 354.498 1399.84 353.636L1399.14 354.343ZM1400.87 363.062L1399.95 362.68C1399.61 363.504 1399.1 364.277 1398.43 364.95L1399.14 365.657L1399.84 366.364C1400.7 365.502 1401.36 364.507 1401.8 363.445L1400.87 363.062ZM1399.14 365.657L1398.43 364.95L1395.64 367.739L1396.35 368.446L1397.05 369.153L1399.84 366.364L1399.14 365.657ZM1390.77 374.024L1390.06 373.317L1384.48 378.895L1385.19 379.603L1385.9 380.31L1391.48 374.731L1390.77 374.024ZM1379.61 385.181L1378.9 384.474L1373.33 390.052L1374.03 390.759L1374.74 391.466L1380.32 385.888L1379.61 385.181ZM1368.45 396.337L1367.75 395.63L1362.17 401.209L1362.88 401.916L1363.58 402.623L1369.16 397.045L1368.45 396.337ZM1357.3 407.494L1356.59 406.787L1351.01 412.365L1351.72 413.072L1352.43 413.779L1358.01 408.201L1357.3 407.494ZM1346.14 418.651L1345.43 417.943L1339.86 423.522L1340.56 424.229L1341.27 424.936L1346.85 419.358L1346.14 418.651ZM1334.99 429.807L1334.28 429.1L1328.7 434.678L1329.41 435.385L1330.11 436.093L1335.69 430.514L1334.99 429.807ZM1323.83 440.964L1323.12 440.257L1317.54 445.835L1318.25 446.542L1318.96 447.249L1324.54 441.671L1323.83 440.964ZM1312.67 452.12L1311.96 451.413L1306.39 456.991L1307.09 457.699L1307.8 458.406L1313.38 452.827L1312.67 452.12ZM1301.52 463.277L1300.81 462.57L1295.23 468.148L1295.94 468.855L1296.64 469.562L1302.22 463.984L1301.52 463.277ZM1290.36 474.433L1289.65 473.726L1284.07 479.305L1284.78 480.012L1285.49 480.719L1291.07 475.141L1290.36 474.433ZM1279.2 485.59L1278.5 484.883L1272.92 490.461L1273.62 491.168L1274.33 491.875L1279.91 486.297L1279.2 485.59ZM1268.05 496.747L1267.34 496.039L1261.76 501.618L1262.47 502.325L1263.17 503.032L1268.75 497.454L1268.05 496.747ZM1256.89 507.903L1256.18 507.196L1250.6 512.774L1251.31 513.481L1252.02 514.189L1257.6 508.61L1256.89 507.903ZM1245.73 519.06L1245.03 518.353L1239.45 523.931L1240.15 524.638L1240.86 525.345L1246.44 519.767L1245.73 519.06ZM1234.58 530.216L1233.87 529.509L1228.29 535.087L1229 535.795L1229.7 536.502L1235.28 530.923L1234.58 530.216ZM1223.42 541.373L1222.71 540.666L1217.13 546.244L1217.84 546.951L1218.55 547.658L1224.13 542.08L1223.42 541.373ZM1212.26 552.529L1211.56 551.822L1205.98 557.401L1206.68 558.108L1207.39 558.815L1212.97 553.237L1212.26 552.529ZM1201.11 563.686L1200.4 562.979L1197.61 565.768L1198.32 566.475L1199.02 567.182L1201.81 564.393L1201.11 563.686ZM1198.32 566.475L1197.61 565.768C1196.94 566.441 1196.16 566.946 1195.34 567.287L1195.72 568.211L1196.1 569.135C1197.17 568.696 1198.16 568.044 1199.02 567.182L1198.32 566.475ZM1189.6 568.211L1189.98 567.287C1189.16 566.946 1188.38 566.44 1187.71 565.768L1187 566.475L1186.3 567.182C1187.16 568.044 1188.15 568.696 1189.22 569.135L1189.6 568.211ZM1187 566.475L1187.71 565.768L1184.92 562.979L1184.21 563.686L1183.51 564.393L1186.3 567.182L1187 566.475ZM1178.64 558.108L1179.34 557.401L1173.76 551.822L1173.06 552.529L1172.35 553.237L1177.93 558.815L1178.64 558.108ZM1167.48 546.951L1168.19 546.244L1162.61 540.666L1161.9 541.373L1161.19 542.08L1166.77 547.658L1167.48 546.951ZM1156.32 535.795L1157.03 535.087L1151.45 529.509L1150.74 530.216L1150.04 530.923L1155.62 536.502L1156.32 535.795ZM1145.17 524.638L1145.87 523.931L1140.3 518.353L1139.59 519.06L1138.88 519.767L1144.46 525.345L1145.17 524.638ZM1134.01 513.481L1134.72 512.774L1129.14 507.196L1128.43 507.903L1127.72 508.61L1133.3 514.189L1134.01 513.481ZM1122.85 502.325L1123.56 501.618L1117.98 496.039L1117.27 496.747L1116.57 497.454L1122.15 503.032L1122.85 502.325ZM1111.7 491.168L1112.4 490.461L1106.83 484.883L1106.12 485.59L1105.41 486.297L1110.99 491.875L1111.7 491.168ZM1100.54 480.012L1101.25 479.305L1095.67 473.726L1094.96 474.433L1094.25 475.141L1099.83 480.719L1100.54 480.012ZM1089.38 468.855L1090.09 468.148L1084.51 462.57L1083.81 463.277L1083.1 463.984L1088.68 469.562L1089.38 468.855ZM1078.23 457.699L1078.93 456.991L1073.36 451.413L1072.65 452.12L1071.94 452.827L1077.52 458.406L1078.23 457.699ZM1067.07 446.542L1067.78 445.835L1062.2 440.257L1061.49 440.964L1060.78 441.671L1066.36 447.249L1067.07 446.542ZM1055.91 435.385L1056.62 434.678L1051.04 429.1L1050.34 429.807L1049.63 430.514L1055.21 436.093L1055.91 435.385ZM1044.76 424.229L1045.46 423.522L1039.89 417.943L1039.18 418.651L1038.47 419.358L1044.05 424.936L1044.76 424.229ZM1033.6 413.072L1034.31 412.365L1028.73 406.787L1028.02 407.494L1027.32 408.201L1032.89 413.779L1033.6 413.072ZM1022.44 401.916L1023.15 401.209L1017.57 395.63L1016.87 396.337L1016.16 397.045L1021.74 402.623L1022.44 401.916ZM1011.29 390.759L1011.99 390.052L1006.42 384.474L1005.71 385.181L1005 385.888L1010.58 391.466L1011.29 390.759ZM1000.13 379.603L1000.84 378.895L995.26 373.317L994.553 374.024L993.845 374.731L999.424 380.31L1000.13 379.603ZM988.974 368.446L989.681 367.739L986.892 364.95L986.185 365.657L985.478 366.364L988.267 369.153L988.974 368.446ZM986.185 365.657L986.892 364.95C986.22 364.277 985.714 363.504 985.373 362.68L984.449 363.062L983.525 363.444C983.965 364.507 984.616 365.502 985.478 366.364L986.185 365.657ZM984.449 356.938L985.373 357.32C985.714 356.496 986.22 355.723 986.892 355.05L986.185 354.343L985.478 353.636C984.616 354.498 983.965 355.493 983.525 356.555L984.449 356.938ZM986.185 354.343L986.892 355.05L989.681 352.261L988.974 351.554L988.267 350.847L985.478 353.636L986.185 354.343ZM994.552 345.976L995.26 346.683L1000.84 341.104L1000.13 340.397L999.424 339.69L993.845 345.269L994.552 345.976ZM1005.71 334.819L1006.42 335.526L1011.99 329.948L1011.29 329.241L1010.58 328.534L1005 334.112L1005.71 334.819ZM1016.87 323.663L1017.57 324.37L1023.15 318.791L1022.44 318.084L1021.74 317.377L1016.16 322.955L1016.87 323.663ZM1028.02 312.506L1028.73 313.213L1034.31 307.635L1033.6 306.928L1032.89 306.221L1027.32 311.799L1028.02 312.506ZM1039.18 301.349L1039.89 302.056L1045.46 296.478L1044.76 295.771L1044.05 295.064L1038.47 300.642L1039.18 301.349ZM1050.34 290.193L1051.04 290.9L1056.62 285.322L1055.91 284.615L1055.21 283.907L1049.63 289.486L1050.34 290.193ZM1061.49 279.036L1062.2 279.743L1067.78 274.165L1067.07 273.458L1066.36 272.751L1060.78 278.329L1061.49 279.036ZM1072.65 267.88L1073.36 268.587L1078.93 263.009L1078.23 262.301L1077.52 261.594L1071.94 267.173L1072.65 267.88ZM1083.81 256.723L1084.51 257.43L1090.09 251.852L1089.38 251.145L1088.68 250.438L1083.1 256.016L1083.81 256.723ZM1094.96 245.567L1095.67 246.274L1101.25 240.695L1100.54 239.988L1099.83 239.281L1094.25 244.859L1094.96 245.567ZM1106.12 234.41L1106.83 235.117L1112.4 229.539L1111.7 228.832L1110.99 228.125L1105.41 233.703L1106.12 234.41ZM1117.27 223.253L1117.98 223.961L1123.56 218.382L1122.85 217.675L1122.15 216.968L1116.57 222.546L1117.27 223.253ZM1128.43 212.097L1129.14 212.804L1134.72 207.226L1134.01 206.519L1133.3 205.811L1127.72 211.39L1128.43 212.097ZM1139.59 200.94L1140.29 201.647L1145.87 196.069L1145.17 195.362L1144.46 194.655L1138.88 200.233L1139.59 200.94ZM1150.74 189.784L1151.45 190.491L1157.03 184.913L1156.32 184.205L1155.62 183.498L1150.04 189.077L1150.74 189.784ZM1161.9 178.627L1162.61 179.334L1168.19 173.756L1167.48 173.049L1166.77 172.342L1161.19 177.92L1161.9 178.627ZM1173.06 167.471L1173.76 168.178L1179.34 162.599L1178.64 161.892L1177.93 161.185L1172.35 166.763L1173.06 167.471ZM1184.21 156.314L1184.92 157.021L1187.71 154.232L1187 153.525L1186.3 152.818L1183.51 155.607L1184.21 156.314Z" fill="white"/>
<g filter="url(#filter3_i_116_28)">
<path d="M1329.14 354.343C1332.26 357.467 1332.26 362.533 1329.14 365.657L1199.03 495.764C1195.9 498.889 1190.84 498.889 1187.71 495.764L1057.61 365.657C1054.48 362.533 1054.48 357.467 1057.61 354.343L1187.71 224.236C1190.84 221.111 1195.9 221.111 1199.03 224.235L1329.14 354.343Z" fill="black" fill-opacity="0.01"/>
</g>
<path d="M1258.14 354.343C1261.26 357.467 1261.26 362.533 1258.14 365.657L1198.74 425.054C1195.61 428.178 1190.55 428.178 1187.42 425.054L1128.03 365.657C1124.9 362.533 1124.9 357.467 1128.03 354.343L1187.42 294.946C1190.55 291.822 1195.61 291.822 1198.74 294.946L1258.14 354.343Z" fill="white" fill-opacity="0.5"/>
<path d="M1258.14 365.657L1257.43 364.95L1198.03 424.347L1198.74 425.054L1199.45 425.761L1258.84 366.364L1258.14 365.657ZM1187.42 425.054L1188.13 424.347L1128.73 364.95L1128.03 365.657L1127.32 366.364L1186.72 425.761L1187.42 425.054ZM1128.03 354.343L1128.73 355.05L1188.13 295.653L1187.42 294.946L1186.72 294.239L1127.32 353.636L1128.03 354.343ZM1198.74 294.946L1198.03 295.653L1257.43 355.05L1258.14 354.343L1258.84 353.636L1199.45 294.239L1198.74 294.946ZM1187.42 294.946L1188.13 295.653C1190.87 292.92 1195.3 292.92 1198.03 295.653L1198.74 294.946L1199.45 294.239C1195.93 290.724 1190.23 290.724 1186.72 294.239L1187.42 294.946ZM1128.03 365.657L1128.73 364.95C1126 362.216 1126 357.784 1128.73 355.05L1128.03 354.343L1127.32 353.636C1123.81 357.151 1123.81 362.849 1127.32 366.364L1128.03 365.657ZM1198.74 425.054L1198.03 424.347C1195.3 427.08 1190.87 427.08 1188.13 424.347L1187.42 425.054L1186.72 425.761C1190.23 429.276 1195.93 429.276 1199.45 425.761L1198.74 425.054ZM1258.14 365.657L1258.84 366.364C1262.36 362.849 1262.36 357.151 1258.84 353.636L1258.14 354.343L1257.43 355.05C1260.16 357.784 1260.16 362.216 1257.43 364.95L1258.14 365.657Z" fill="white"/>
</g>
<defs>
<filter id="filter0_i_116_28" x="560.314" y="-273.082" width="1266.16" height="1266.16" filterUnits="userSpaceOnUse" color-interpolation-filters="sRGB">
<feFlood flood-opacity="0" result="BackgroundImageFix"/>
<feBlend mode="normal" in="SourceGraphic" in2="BackgroundImageFix" result="shape"/>
<feColorMatrix in="SourceAlpha" type="matrix" values="0 0 0 0 0 0 0 0 0 0 0 0 0 0 0 0 0 0 127 0" result="hardAlpha"/>
<feOffset/>
<feGaussianBlur stdDeviation="25"/>
<feComposite in2="hardAlpha" operator="arithmetic" k2="-1" k3="1"/>
<feColorMatrix type="matrix" values="0 0 0 0 1 0 0 0 0 1 0 0 0 0 1 0 0 0 0.5 0"/>
<feBlend mode="lighten" in2="shape" result="effect1_innerShadow_116_28"/>
</filter>
<filter id="filter1_i_116_28" x="702.156" y="-131.661" width="983.322" height="983.322" filterUnits="userSpaceOnUse" color-interpolation-filters="sRGB">
<feFlood flood-opacity="0" result="BackgroundImageFix"/>
<feBlend mode="normal" in="SourceGraphic" in2="BackgroundImageFix" result="shape"/>
<feColorMatrix in="SourceAlpha" type="matrix" values="0 0 0 0 0 0 0 0 0 0 0 0 0 0 0 0 0 0 127 0" result="hardAlpha"/>
<feOffset/>
<feGaussianBlur stdDeviation="25"/>
<feComposite in2="hardAlpha" operator="arithmetic" k2="-1" k3="1"/>
<feColorMatrix type="matrix" values="0 0 0 0 1 0 0 0 0 1 0 0 0 0 1 0 0 0 0.5 0"/>
<feBlend mode="lighten" in2="shape" result="effect1_innerShadow_116_28"/>
</filter>
<filter id="filter2_i_116_28" x="914.421" y="80.4709" width="559.058" height="559.058" filterUnits="userSpaceOnUse" color-interpolation-filters="sRGB">
<feFlood flood-opacity="0" result="BackgroundImageFix"/>
<feBlend mode="normal" in="SourceGraphic" in2="BackgroundImageFix" result="shape"/>
<feColorMatrix in="SourceAlpha" type="matrix" values="0 0 0 0 0 0 0 0 0 0 0 0 0 0 0 0 0 0 127 0" result="hardAlpha"/>
<feOffset/>
<feGaussianBlur stdDeviation="25"/>
<feComposite in2="hardAlpha" operator="arithmetic" k2="-1" k3="1"/>
<feColorMatrix type="matrix" values="0 0 0 0 1 0 0 0 0 1 0 0 0 0 1 0 0 0 0.5 0"/>
<feBlend mode="lighten" in2="shape" result="effect1_innerShadow_116_28"/>
</filter>
<filter id="filter3_i_116_28" x="1055.26" y="221.893" width="276.215" height="276.215" filterUnits="userSpaceOnUse" color-interpolation-filters="sRGB">
<feFlood flood-opacity="0" result="BackgroundImageFix"/>
<feBlend mode="normal" in="SourceGraphic" in2="BackgroundImageFix" result="shape"/>
<feColorMatrix in="SourceAlpha" type="matrix" values="0 0 0 0 0 0 0 0 0 0 0 0 0 0 0 0 0 0 127 0" result="hardAlpha"/>
<feOffset/>
<feGaussianBlur stdDeviation="25"/>
<feComposite in2="hardAlpha" operator="arithmetic" k2="-1" k3="1"/>
<feColorMatrix type="matrix" values="0 0 0 0 1 0 0 0 0 1 0 0 0 0 1 0 0 0 0.5 0"/>
<feBlend mode="lighten" in2="shape" result="effect1_innerShadow_116_28"/>
</filter>
<clipPath id="clip0_116_28">
<rect width="1440" height="720" fill="white"/>
</clipPath>
</defs>
</svg>
