<svg width="1440" height="720" viewBox="0 0 1440 720" fill="none" xmlns="http://www.w3.org/2000/svg">
<g clip-path="url(#clip0_147_4)">
<rect width="1440" height="720" fill="#080808"/>
<path d="M891.054 590C881.229 575.824 873.534 562.567 863.729 527.135C856.053 499.4 864.343 455.641 859.737 439.308C855.132 422.976 832.72 398.939 827.193 391.543C821.667 384.147 813.991 371.82 813.991 363.192C813.991 354.563 818.29 342.853 820.132 336.073C821.606 330.65 832.208 302.792 837.325 289.541L848.685 331.143C850.117 330.732 854.518 329.91 860.659 329.91C866.799 329.91 872.837 329.91 875.088 329.91L893.51 288C892.707 304.614 898.965 346.218 929.98 381.99M852.983 426.982C828.728 445.471 792.5 453.484 792.5 510.494C792.5 566.173 852.94 579.583 886.515 583.22M983.774 590C991.245 587.74 1006.19 567.196 1004.34 532.682C1001.01 470.125 975.484 430.383 948.466 401.932M874.1 558.876C858.851 551.685 829.649 538.352 829.649 506.796C829.649 475.24 850.322 457.901 860.659 453.176M929.98 381.99C930.606 382.711 931.241 383.43 931.887 384.147C937.616 390.502 943.163 396.347 948.466 401.932M929.98 381.99C935.938 380.141 947.729 372.56 947.238 357.029C946.624 337.614 919.299 333.916 918.685 319.741C918.071 305.565 926.361 301.559 938.642 299.094C950.923 296.629 963.203 297.245 978.861 313.578C994.519 329.91 989.3 348.092 985.309 361.959C982.116 373.053 959.417 393.23 948.466 401.932M883.685 457.49C883.992 458.722 897.33 492.973 904.869 503.714C914.387 517.273 923.291 526.827 926.975 524.053C930.659 521.28 913.466 494.778 909.168 487.998C903.111 478.445 900.162 468.584 897.808 462.42M925.133 474.439C926.361 491.285 929.166 519.795 931.887 527.135C936.8 540.386 940.484 543.776 942.326 542.235C946.01 539.153 945.396 523.745 943.861 510.494C942.469 498.476 940.893 485.944 940.177 480.294" stroke="white" stroke-width="2"/>
<path d="M-84 590H1560" stroke="white" stroke-width="2"/>
<path d="M837.36 341.801C845.357 341.801 851.841 348.284 851.841 356.281C851.841 364.278 845.357 370.762 837.36 370.762C829.363 370.762 822.881 364.278 822.881 356.281C822.881 348.284 829.363 341.801 837.36 341.801ZM836.437 346.115C830.311 346.115 825.346 351.081 825.346 357.206C825.346 363.332 830.311 368.297 836.437 368.297C842.562 368.297 847.527 363.331 847.527 357.206C847.527 351.081 842.562 346.115 836.437 346.115Z" fill="white"/>
<path d="M890.968 338.104C898.965 338.104 905.448 344.588 905.448 352.585C905.448 360.582 898.965 367.064 890.968 367.064C882.971 367.064 876.488 360.582 876.488 352.585C876.488 344.588 882.971 338.105 890.968 338.104ZM890.043 342.418C883.918 342.418 878.952 347.384 878.952 353.509C878.952 359.634 883.918 364.6 890.043 364.601C896.168 364.601 901.135 359.634 901.135 353.509C901.135 347.383 896.168 342.418 890.043 342.418Z" fill="white"/>
<path d="M666.473 550C665.974 566.758 657.147 581.422 643.984 590H590.01C576.847 581.422 568.02 566.758 567.521 550H666.473Z" fill="white" fill-opacity="0.2" stroke="white" stroke-width="2"/>
<path d="M553 -28H671.5L738.5 590H499.5L553 -28Z" fill="url(#paint0_linear_147_4)" fill-opacity="0.1"/>
</g>
<defs>
<linearGradient id="paint0_linear_147_4" x1="619" y1="-28" x2="619" y2="590" gradientUnits="userSpaceOnUse">
<stop stop-color="white"/>
<stop offset="1" stop-color="#383838"/>
</linearGradient>
<clipPath id="clip0_147_4">
<rect width="1440" height="720" fill="white"/>
</clipPath>
</defs>
</svg>
