<svg width="1440" height="720" viewBox="0 0 1440 720" fill="none" xmlns="http://www.w3.org/2000/svg">
<g clip-path="url(#clip0_102_36)">
<rect width="1440" height="720" fill="#080808"/>
<path d="M283 338C283 333.582 286.582 330 291 330H387C391.418 330 395 333.582 395 338V382C395 386.418 391.418 390 387 390H291C286.582 390 283 386.418 283 382V338Z" fill="white" fill-opacity="0.25"/>
<path d="M1053 338C1053 333.582 1056.58 330 1061 330H1157C1161.42 330 1165 333.582 1165 338V382C1165 386.418 1161.42 390 1157 390H1061C1056.58 390 1053 386.418 1053 382V338Z" fill="white" fill-opacity="0.25"/>
<path d="M473 338C473 333.582 476.582 330 481 330H515C519.418 330 523 333.582 523 338V382C523 386.418 519.418 390 515 390H481C476.582 390 473 386.418 473 382V338Z" fill="white" fill-opacity="0.25"/>
<path d="M573 258C573 253.582 576.582 250 581 250H676C680.418 250 684 253.582 684 258V302C684 306.418 680.418 310 676 310H581C576.582 310 573 306.418 573 302V258Z" fill="white" fill-opacity="0.25"/>
<path d="M846 258C846 253.582 849.582 250 854 250H949C953.418 250 957 253.582 957 258V302C957 306.418 953.418 310 949 310H854C849.582 310 846 306.418 846 302V258Z" fill="white" fill-opacity="0.25"/>
<path d="M735 338C735 333.582 738.582 330 743 330H838C842.418 330 846 333.582 846 338V382C846 386.418 842.418 390 838 390H743C738.582 390 735 386.418 735 382V338Z" fill="white" fill-opacity="0.25"/>
<path d="M684 418C684 413.582 687.582 410 692 410H727C731.418 410 735 413.582 735 418V462C735 466.418 731.418 470 727 470H692C687.582 470 684 466.418 684 462V418Z" fill="white" fill-opacity="0.25"/>
<path d="M957 418C957 413.582 960.582 410 965 410H980C984.418 410 988 413.582 988 418V462C988 466.418 984.418 470 980 470H965C960.582 470 957 466.418 957 462V418Z" fill="white" fill-opacity="0.25"/>
<path d="M988 338C988 333.582 991.582 330 996 330H1017C1021.42 330 1025 333.582 1025 338V382C1025 386.418 1021.42 390 1017 390H996C991.582 390 988 386.418 988 382V338Z" fill="white" fill-opacity="0.25"/>
<path d="M523 418C523 413.582 526.582 410 531 410H565C569.418 410 573 413.582 573 418V462C573 466.418 569.418 470 565 470H531C526.582 470 523 466.418 523 462V418Z" fill="white" fill-opacity="0.25"/>
<path d="M423 258C423 253.582 426.582 250 431 250H465C469.418 250 473 253.582 473 258V302C473 306.418 469.418 310 465 310H431C426.582 310 423 306.418 423 302V258Z" fill="white" fill-opacity="0.25"/>
<path d="M230 360H404.5C408.918 360 412.5 356.418 412.5 352V288C412.5 283.582 416.082 280 420.5 280H1027.5C1031.92 280 1035.5 283.582 1035.5 288V352C1035.5 356.418 1039.08 360 1043.5 360H1210" stroke="white" stroke-width="2" stroke-dasharray="4 4"/>
<path d="M404 360H404.5C408.918 360 412.5 363.582 412.5 368V432C412.5 436.418 416.082 440 420.5 440H1027.5C1031.92 440 1035.5 436.418 1035.5 432V368C1035.5 363.582 1039.08 360 1043.5 360H1044" stroke="white" stroke-width="2" stroke-dasharray="4 4"/>
<path d="M404 360H1043" stroke="white" stroke-width="2" stroke-dasharray="4 4"/>
</g>
<defs>
<clipPath id="clip0_102_36">
<rect width="1440" height="720" fill="white"/>
</clipPath>
</defs>
</svg>
