<svg width="1440" height="720" viewBox="0 0 1440 720" fill="none" xmlns="http://www.w3.org/2000/svg">
<g clip-path="url(#clip0_150_16)">
<path d="M0 8.00002C0 3.58174 3.58172 0 8 0H1432C1436.42 0 1440 3.58172 1440 8V712C1440 716.418 1436.42 720 1432 720H8.00002C3.58174 720 0 716.418 0 712V8.00002Z" fill="#080808"/>
<path d="M112 120C116.418 120 120 123.582 120 128L120 172C120 176.418 116.418 180 112 180L-2 180C-6.41828 180 -10 176.418 -10 172L-10 128C-10 123.582 -6.41828 120 -2 120L112 120Z" fill="white" fill-opacity="0.1"/>
<path d="M182 -20C186.418 -20 190 -16.4183 190 -12L190 102C190 106.418 186.418 110 182 110L-2.00001 110C-6.41828 110 -10 106.418 -10 102L-10 -12C-10 -16.4183 -6.41827 -20 -2 -20L182 -20Z" fill="white" fill-opacity="0.15"/>
<path d="M182 120C186.418 120 190 123.582 190 128L190 242C190 246.418 186.418 250 182 250L138 250C133.582 250 130 246.418 130 242L130 128C130 123.582 133.582 120 138 120L182 120Z" fill="white" fill-opacity="0.1"/>
<path d="M112 190C116.418 190 120 193.582 120 198L120 382C120 386.418 116.418 390 112 390L-1.99999 390C-6.41827 390 -9.99999 386.418 -9.99999 382L-9.99999 198C-9.99998 193.582 -6.41827 190 -1.99998 190L112 190Z" fill="white" fill-opacity="0.2"/>
<path d="M322 260C326.418 260 330 263.582 330 268L330 382C330 386.418 326.418 390 322 390L138 390C133.582 390 130 386.418 130 382L130 268C130 263.582 133.582 260 138 260L322 260Z" fill="white" fill-opacity="0.1"/>
<path d="M392 190C396.418 190 400 193.582 400 198L400 242C400 246.418 396.418 250 392 250L208 250C203.582 250 200 246.418 200 242L200 198C200 193.582 203.582 190 208 190L392 190Z" fill="white" fill-opacity="0.15"/>
<path d="M322 50C326.418 50 330 53.5817 330 58L330 172C330 176.418 326.418 180 322 180L208 180C203.582 180 200 176.418 200 172L200 58C200 53.5817 203.582 50 208 50L322 50Z" fill="white" fill-opacity="0.15"/>
<path d="M462 -20C466.418 -20 470 -16.4183 470 -12L470 102C470 106.418 466.418 110 462 110L348 110C343.582 110 340 106.418 340 102L340 -12C340 -16.4183 343.582 -20 348 -20L462 -20Z" fill="white" fill-opacity="0.1"/>
<path d="M462 120C466.418 120 470 123.582 470 128L470 312C470 316.418 466.418 320 462 320L418 320C413.582 320 410 316.418 410 312L410 128C410 123.582 413.582 120 418 120L462 120Z" fill="white" fill-opacity="0.1"/>
<path d="M742 330C746.418 330 750 333.582 750 338L750 382C750 386.418 746.418 390 742 390L698 390C693.582 390 690 386.418 690 382L690 338C690 333.582 693.582 330 698 330L742 330Z" fill="#E66A32"/>
<path d="M322 -20C326.418 -20 330 -16.4183 330 -12L330 32C330 36.4183 326.418 40 322 40L208 40C203.582 40 200 36.4183 200 32L200 -12C200 -16.4183 203.582 -20 208 -20L322 -20Z" fill="white" fill-opacity="0.1"/>
<path d="M602 -20C606.418 -20 610 -16.4183 610 -12L610 32C610 36.4183 606.418 40 602 40L488 40C483.582 40 480 36.4183 480 32L480 -12C480 -16.4183 483.582 -20 488 -20L602 -20Z" fill="white" fill-opacity="0.1"/>
<path d="M392 120C396.418 120 400 123.582 400 128L400 172C400 176.418 396.418 180 392 180L348 180C343.582 180 340 176.418 340 172L340 128C340 123.582 343.582 120 348 120L392 120Z" fill="white" fill-opacity="0.2"/>
<path d="M602 50C606.418 50 610 53.5817 610 58L610 172C610 176.418 606.418 180 602 180L488 180C483.582 180 480 176.418 480 172L480 58C480 53.5817 483.582 50 488 50L602 50Z" fill="white" fill-opacity="0.15"/>
<path d="M392 260C396.418 260 400 263.582 400 268L400 382C400 386.418 396.418 390 392 390L348 390C343.582 390 340 386.418 340 382L340 268C340 263.582 343.582 260 348 260L392 260Z" fill="white" fill-opacity="0.25"/>
<path d="M1232 260C1236.42 260 1240 263.582 1240 268L1240 382C1240 386.418 1236.42 390 1232 390L1188 390C1183.58 390 1180 386.418 1180 382L1180 268C1180 263.582 1183.58 260 1188 260L1232 260Z" fill="white" fill-opacity="0.15"/>
<path d="M882 50C886.418 50 890 53.5817 890 58L890 172C890 176.418 886.418 180 882 180L838 180C833.582 180 830 176.418 830 172L830 58C830 53.5817 833.582 50 838 50L882 50Z" fill="white" fill-opacity="0.2"/>
<path d="M1162 330C1166.42 330 1170 333.582 1170 338L1170 452C1170 456.418 1166.42 460 1162 460L1048 460C1043.58 460 1040 456.418 1040 452L1040 338C1040 333.582 1043.58 330 1048 330L1162 330Z" fill="white" fill-opacity="0.2"/>
<path d="M322 540C326.418 540 330 543.582 330 548L330 662C330 666.418 326.418 670 322 670L208 670C203.582 670 200 666.418 200 662L200 548C200 543.582 203.582 540 208 540L322 540Z" fill="white" fill-opacity="0.15"/>
<path d="M742 610C746.418 610 750 613.582 750 618L750 662C750 666.418 746.418 670 742 670L558 670C553.582 670 550 666.418 550 662L550 618C550 613.582 553.582 610 558 610L742 610Z" fill="white" fill-opacity="0.15"/>
<path d="M392 680C396.418 680 400 683.582 400 688L400 732C400 736.418 396.418 740 392 740L208 740C203.582 740 200 736.418 200 732L200 688C200 683.582 203.582 680 208 680L392 680Z" fill="white" fill-opacity="0.1"/>
<path d="M1372 -20C1376.42 -20 1380 -16.4183 1380 -12L1380 32C1380 36.4183 1376.42 40 1372 40L1188 40C1183.58 40 1180 36.4183 1180 32L1180 -12C1180 -16.4183 1183.58 -20 1188 -20L1372 -20Z" fill="white" fill-opacity="0.1"/>
<path d="M882 190C886.418 190 890 193.582 890 198L890 242C890 246.418 886.418 250 882 250L698 250C693.582 250 690 246.418 690 242L690 198C690 193.582 693.582 190 698 190L882 190Z" fill="white" fill-opacity="0.15"/>
<path d="M1302 470C1306.42 470 1310 473.582 1310 478L1310 592C1310 596.418 1306.42 600 1302 600L1188 600C1183.58 600 1180 596.418 1180 592L1180 478C1180 473.582 1183.58 470 1188 470L1302 470Z" fill="white" fill-opacity="0.15"/>
<path d="M882 260C886.418 260 890 263.582 890 268L890 382C890 386.418 886.418 390 882 390L768 390C763.582 390 760 386.418 760 382L760 268C760 263.582 763.582 260 768 260L882 260Z" fill="white" fill-opacity="0.25"/>
<path d="M882 610C886.418 610 890 613.582 890 618L890 732C890 736.418 886.418 740 882 740L768 740C763.582 740 760 736.418 760 732L760 618C760 613.582 763.582 610 768 610L882 610Z" fill="white" fill-opacity="0.1"/>
<path d="M1162 190C1166.42 190 1170 193.582 1170 198L1170 312C1170 316.418 1166.42 320 1162 320L978 320C973.582 320 970 316.418 970 312L970 198C970 193.582 973.582 190 978 190L1162 190Z" fill="white" fill-opacity="0.25"/>
<path d="M182 610C186.418 610 190 613.582 190 618L190 732C190 736.418 186.418 740 182 740L-2.00001 740C-6.41828 740 -10 736.418 -10 732L-10 618C-10 613.582 -6.41827 610 -2 610L182 610Z" fill="white" fill-opacity="0.25"/>
<path d="M1372 260C1376.42 260 1380 263.582 1380 268L1380 382C1380 386.418 1376.42 390 1372 390L1258 390C1253.58 390 1250 386.418 1250 382L1250 268C1250 263.582 1253.58 260 1258 260L1372 260Z" fill="white" fill-opacity="0.1"/>
<path d="M952 400C956.418 400 960 403.582 960 408L960 592C960 596.418 956.418 600 952 600L838 600C833.582 600 830 596.418 830 592L830 408C830 403.582 833.582 400 838 400L952 400Z" fill="white" fill-opacity="0.2"/>
<path d="M812 400C816.418 400 820 403.582 820 408L820 522C820 526.418 816.418 530 812 530L768 530C763.582 530 760 526.418 760 522L760 408C760 403.582 763.582 400 768 400L812 400Z" fill="white" fill-opacity="0.15"/>
<path d="M812 540C816.418 540 820 543.582 820 548L820 592C820 596.418 816.418 600 812 600L628 600C623.582 600 620 596.418 620 592L620 548C620 543.582 623.582 540 628 540L812 540Z" fill="white" fill-opacity="0.15"/>
<path d="M742 400C746.418 400 750 403.582 750 408L750 522C750 526.418 746.418 530 742 530L628 530C623.582 530 620 526.418 620 522L620 408C620 403.582 623.582 400 628 400L742 400Z" fill="white" fill-opacity="0.1"/>
<path d="M1442 50C1446.42 50 1450 53.5817 1450 58L1450 172C1450 176.418 1446.42 180 1442 180L1328 180C1323.58 180 1320 176.418 1320 172L1320 58C1320 53.5817 1323.58 50 1328 50L1442 50Z" fill="white" fill-opacity="0.25"/>
<path d="M1442 400C1446.42 400 1450 403.582 1450 408L1450 452C1450 456.418 1446.42 460 1442 460L1258 460C1253.58 460 1250 456.418 1250 452L1250 408C1250 403.582 1253.58 400 1258 400L1442 400Z" fill="white" fill-opacity="0.15"/>
<path d="M1442 470C1446.42 470 1450 473.582 1450 478L1450 592C1450 596.418 1446.42 600 1442 600L1398 600C1393.58 600 1390 596.418 1390 592L1390 478C1390 473.582 1393.58 470 1398 470L1442 470Z" fill="white" fill-opacity="0.1"/>
<path d="M1372 470C1376.42 470 1380 473.582 1380 478L1380 662C1380 666.418 1376.42 670 1372 670L1328 670C1323.58 670 1320 666.418 1320 662L1320 478C1320 473.582 1323.58 470 1328 470L1372 470Z" fill="white" fill-opacity="0.2"/>
<path d="M1442 610C1446.42 610 1450 613.582 1450 618L1450 732C1450 736.418 1446.42 740 1442 740L1398 740C1393.58 740 1390 736.418 1390 732L1390 618C1390 613.582 1393.58 610 1398 610L1442 610Z" fill="white" fill-opacity="0.1"/>
<path d="M1372 680C1376.42 680 1380 683.582 1380 688L1380 732C1380 736.418 1376.42 740 1372 740L1258 740C1253.58 740 1250 736.418 1250 732L1250 688C1250 683.582 1253.58 680 1258 680L1372 680Z" fill="white" fill-opacity="0.1"/>
<path d="M1302 610C1306.42 610 1310 613.582 1310 618L1310 662C1310 666.418 1306.42 670 1302 670L1118 670C1113.58 670 1110 666.418 1110 662L1110 618C1110 613.582 1113.58 610 1118 610L1302 610Z" fill="white" fill-opacity="0.25"/>
<path d="M1232 680C1236.42 680 1240 683.582 1240 688L1240 732C1240 736.418 1236.42 740 1232 740L1048 740C1043.58 740 1040 736.418 1040 732L1040 688C1040 683.582 1043.58 680 1048 680L1232 680Z" fill="white" fill-opacity="0.2"/>
<path d="M1232 400C1236.42 400 1240 403.582 1240 408L1240 452C1240 456.418 1236.42 460 1232 460L1188 460C1183.58 460 1180 456.418 1180 452L1180 408C1180 403.582 1183.58 400 1188 400L1232 400Z" fill="white" fill-opacity="0.1"/>
<path d="M1162 540C1166.42 540 1170 543.582 1170 548L1170 592C1170 596.418 1166.42 600 1162 600L1118 600C1113.58 600 1110 596.418 1110 592L1110 548C1110 543.582 1113.58 540 1118 540L1162 540Z" fill="white" fill-opacity="0.1"/>
<path d="M1092 540C1096.42 540 1100 543.582 1100 548L1100 662C1100 666.418 1096.42 670 1092 670L1048 670C1043.58 670 1040 666.418 1040 662L1040 548C1040 543.582 1043.58 540 1048 540L1092 540Z" fill="white" fill-opacity="0.1"/>
<path d="M1022 330C1026.42 330 1030 333.582 1030 338L1030 592C1030 596.418 1026.42 600 1022 600L978 600C973.582 600 970 596.418 970 592L970 338C970 333.582 973.582 330 978 330L1022 330Z" fill="white" fill-opacity="0.1"/>
<path d="M1162 470C1166.42 470 1170 473.582 1170 478L1170 522C1170 526.418 1166.42 530 1162 530L1048 530C1043.58 530 1040 526.418 1040 522L1040 478C1040 473.582 1043.58 470 1048 470L1162 470Z" fill="white" fill-opacity="0.15"/>
<path d="M1442 190C1446.42 190 1450 193.582 1450 198L1450 382C1450 386.418 1446.42 390 1442 390L1398 390C1393.58 390 1390 386.418 1390 382L1390 198C1390 193.582 1393.58 190 1398 190L1442 190Z" fill="white" fill-opacity="0.1"/>
<path d="M952 330C956.418 330 960 333.582 960 338L960 382C960 386.418 956.418 390 952 390L908 390C903.582 390 900 386.418 900 382L900 338C900 333.582 903.582 330 908 330L952 330Z" fill="white" fill-opacity="0.1"/>
<path d="M1442 -20C1446.42 -20 1450 -16.4183 1450 -12L1450 32C1450 36.4183 1446.42 40 1442 40L1398 40C1393.58 40 1390 36.4183 1390 32L1390 -12C1390 -16.4183 1393.58 -20 1398 -20L1442 -20Z" fill="white" fill-opacity="0.1"/>
<path d="M182 540C186.418 540 190 543.582 190 548L190 592C190 596.418 186.418 600 182 600L138 600C133.582 600 130 596.418 130 592L130 548C130 543.582 133.582 540 138 540L182 540Z" fill="white" fill-opacity="0.1"/>
<path d="M602 540C606.418 540 610 543.582 610 548L610 592C610 596.418 606.418 600 602 600L558 600C553.582 600 550 596.418 550 592L550 548C550 543.582 553.582 540 558 540L602 540Z" fill="white" fill-opacity="0.1"/>
<path d="M602 680C606.418 680 610 683.582 610 688L610 732C610 736.418 606.418 740 602 740L418 740C413.582 740 410 736.418 410 732L410 688C410 683.582 413.582 680 418 680L602 680Z" fill="white" fill-opacity="0.2"/>
<path d="M742 680C746.418 680 750 683.582 750 688L750 732C750 736.418 746.418 740 742 740L628 740C623.582 740 620 736.418 620 732L620 688C620 683.582 623.582 680 628 680L742 680Z" fill="white" fill-opacity="0.25"/>
<path d="M462 470C466.418 470 470 473.582 470 478L470 662C470 666.418 466.418 670 462 670L348 670C343.582 670 340 666.418 340 662L340 478C340 473.582 343.582 470 348 470L462 470Z" fill="white" fill-opacity="0.25"/>
<path d="M532 540C536.418 540 540 543.582 540 548L540 662C540 666.418 536.418 670 532 670L488 670C483.582 670 480 666.418 480 662L480 548C480 543.582 483.582 540 488 540L532 540Z" fill="white" fill-opacity="0.1"/>
<path d="M602 330C606.418 330 610 333.582 610 338L610 522C610 526.418 606.418 530 602 530L488 530C483.582 530 480 526.418 480 522L480 338C480 333.582 483.582 330 488 330L602 330Z" fill="white" fill-opacity="0.2"/>
<path d="M742 260C746.418 260 750 263.582 750 268L750 312C750 316.418 746.418 320 742 320L558 320C553.582 320 550 316.418 550 312L550 268C550 263.582 553.582 260 558 260L742 260Z" fill="white" fill-opacity="0.2"/>
<path d="M672 330C676.418 330 680 333.582 680 338L680 382C680 386.418 676.418 390 672 390L628 390C623.582 390 620 386.418 620 382L620 338C620 333.582 623.582 330 628 330L672 330Z" fill="white" fill-opacity="0.1"/>
<path d="M252 470C256.418 470 260 473.582 260 478L260 522C260 526.418 256.418 530 252 530L68 530C63.5817 530 60 526.418 60 522L60 478C60 473.582 63.5817 470 68 470L252 470Z" fill="white" fill-opacity="0.25"/>
<path d="M112 540C116.418 540 120 543.582 120 548L120 592C120 596.418 116.418 600 112 600L-2 600C-6.41828 600 -10 596.418 -10 592L-10 548C-10 543.582 -6.41828 540 -2 540L112 540Z" fill="white" fill-opacity="0.1"/>
<path d="M1022 610C1026.42 610 1030 613.582 1030 618L1030 662C1030 666.418 1026.42 670 1022 670L908 670C903.582 670 900 666.418 900 662L900 618C900 613.582 903.582 610 908 610L1022 610Z" fill="white" fill-opacity="0.15"/>
<path d="M1022 680C1026.42 680 1030 683.582 1030 688L1030 732C1030 736.418 1026.42 740 1022 740L908 740C903.582 740 900 736.418 900 732L900 688C900 683.582 903.582 680 908 680L1022 680Z" fill="white" fill-opacity="0.1"/>
<path d="M42 400C46.4183 400 50 403.582 50 408L50 522C50 526.418 46.4183 530 42 530L-2 530C-6.41828 530 -10 526.418 -10 522L-10 408C-10 403.582 -6.41827 400 -2 400L42 400Z" fill="white" fill-opacity="0.1"/>
<path d="M182 400C186.418 400 190 403.582 190 408L190 452C190 456.418 186.418 460 182 460L68 460C63.5817 460 60 456.418 60 452L60 408C60 403.582 63.5817 400 68 400L182 400Z" fill="white" fill-opacity="0.1"/>
<path d="M462 330C466.418 330 470 333.582 470 338L470 452C470 456.418 466.418 460 462 460L418 460C413.582 460 410 456.418 410 452L410 338C410 333.582 413.582 330 418 330L462 330Z" fill="white" fill-opacity="0.1"/>
<path d="M322 470C326.418 470 330 473.582 330 478L330 522C330 526.418 326.418 530 322 530L278 530C273.582 530 270 526.418 270 522L270 478C270 473.582 273.582 470 278 470L322 470Z" fill="white" fill-opacity="0.1"/>
<path d="M392 400C396.418 400 400 403.582 400 408L400 452C400 456.418 396.418 460 392 460L208 460C203.582 460 200 456.418 200 452L200 408C200 403.582 203.582 400 208 400L392 400Z" fill="white" fill-opacity="0.2"/>
<path d="M812 50C816.418 50 820 53.5817 820 58L820 172C820 176.418 816.418 180 812 180L628 180C623.582 180 620 176.418 620 172L620 58C620 53.5817 623.582 50 628 50L812 50Z" fill="white" fill-opacity="0.1"/>
<path d="M532 190C536.418 190 540 193.582 540 198L540 312C540 316.418 536.418 320 532 320L488 320C483.582 320 480 316.418 480 312L480 198C480 193.582 483.582 190 488 190L532 190Z" fill="white" fill-opacity="0.1"/>
<path d="M672 190C676.418 190 680 193.582 680 198L680 242C680 246.418 676.418 250 672 250L558 250C553.582 250 550 246.418 550 242L550 198C550 193.582 553.582 190 558 190L672 190Z" fill="white" fill-opacity="0.1"/>
<path d="M742 -20C746.418 -20 750 -16.4183 750 -12L750 32C750 36.4183 746.418 40 742 40L628 40C623.582 40 620 36.4183 620 32L620 -12C620 -16.4183 623.582 -20 628 -20L742 -20Z" fill="white" fill-opacity="0.25"/>
<path d="M952 -20C956.418 -20 960 -16.4183 960 -12L960 32C960 36.4183 956.418 40 952 40L768 40C763.582 40 760 36.4183 760 32L760 -12C760 -16.4183 763.582 -20 768 -20L952 -20Z" fill="white" fill-opacity="0.1"/>
<path d="M952 190C956.418 190 960 193.582 960 198L960 312C960 316.418 956.418 320 952 320L908 320C903.582 320 900 316.418 900 312L900 198C900 193.582 903.582 190 908 190L952 190Z" fill="white" fill-opacity="0.1"/>
<path d="M1092 120C1096.42 120 1100 123.582 1100 128L1100 172C1100 176.418 1096.42 180 1092 180L908 180C903.582 180 900 176.418 900 172L900 128C900 123.582 903.582 120 908 120L1092 120Z" fill="white" fill-opacity="0.1"/>
<path d="M1232 50C1236.42 50 1240 53.5817 1240 58L1240 102C1240 106.418 1236.42 110 1232 110L1118 110C1113.58 110 1110 106.418 1110 102L1110 58C1110 53.5817 1113.58 50 1118 50L1232 50Z" fill="white" fill-opacity="0.1"/>
<path d="M1092 -20C1096.42 -20 1100 -16.4183 1100 -12L1100 102C1100 106.418 1096.42 110 1092 110L978 110C973.582 110 970 106.418 970 102L970 -12C970 -16.4183 973.582 -20 978 -20L1092 -20Z" fill="white" fill-opacity="0.15"/>
<path d="M952 50C956.418 50 960 53.5817 960 58L960 102C960 106.418 956.418 110 952 110L908 110C903.582 110 900 106.418 900 102L900 58C900 53.5817 903.582 50 908 50L952 50Z" fill="white" fill-opacity="0.1"/>
<path d="M1162 -20C1166.42 -20 1170 -16.4183 1170 -12L1170 32C1170 36.4183 1166.42 40 1162 40L1118 40C1113.58 40 1110 36.4183 1110 32L1110 -12C1110 -16.4183 1113.58 -20 1118 -20L1162 -20Z" fill="white" fill-opacity="0.1"/>
<path d="M1302 120C1306.42 120 1310 123.582 1310 128L1310 172C1310 176.418 1306.42 180 1302 180L1188 180C1183.58 180 1180 176.418 1180 172L1180 128C1180 123.582 1183.58 120 1188 120L1302 120Z" fill="white" fill-opacity="0.1"/>
<path d="M1372 190C1376.42 190 1380 193.582 1380 198L1380 242C1380 246.418 1376.42 250 1372 250L1188 250C1183.58 250 1180 246.418 1180 242L1180 198C1180 193.582 1183.58 190 1188 190L1372 190Z" fill="white" fill-opacity="0.15"/>
<path d="M1162 120C1166.42 120 1170 123.582 1170 128L1170 172C1170 176.418 1166.42 180 1162 180L1118 180C1113.58 180 1110 176.418 1110 172L1110 128C1110 123.582 1113.58 120 1118 120L1162 120Z" fill="white" fill-opacity="0.2"/>
<path d="M1302 50C1306.42 50 1310 53.5817 1310 58L1310 102C1310 106.418 1306.42 110 1302 110L1258 110C1253.58 110 1250 106.418 1250 102L1250 58C1250 53.5817 1253.58 50 1258 50L1302 50Z" fill="white" fill-opacity="0.1"/>
</g>
<defs>
<clipPath id="clip0_150_16">
<rect width="1440" height="720" fill="white"/>
</clipPath>
</defs>
</svg>
